<svg id="bag" xmlns="http://www.w3.org/2000/svg" viewBox="0 0 576.17 462.62"><defs><style>.cls-1,.cls-2,.cls-3{fill:none;stroke-miterlimit:10;stroke-width:10px;}.cls-1{stroke:#c84744;}.cls-2,.cls-3{stroke:#000;}.cls-3{stroke-linecap:round;}</style></defs><path class="cls-1" d="M457.27,671.3a47.11,47.11,0,1,1,5.53-25.51" transform="translate(-228.72 -331.02)"/><path class="cls-1" d="M646.73,690.42A47.13,47.13,0,1,1,670,675.12" transform="translate(-228.72 -331.02)"/><path class="cls-1" d="M685.25,698.06c-10.18,3.89-25.39,5.19-34.47-2.75-1.52-1.33-4.8-4.29-5.47-9-.56-4,.81-9,4.2-11.74,6.88-5.47,15.29,4,26-.21,8.73-3.48,8.38-11.86,17.13-13.33,4.05-.67,9.44.23,12.39,3.85,4.38,5.39,1,13.87.09,16C700.58,692.19,689,696.64,685.25,698.06Z" transform="translate(-228.72 -331.02)"/><path class="cls-1" d="M488.83,653.76c-5.72,9.28-17,19.55-29.05,18.76-2-.13-6.42-.49-9.8-3.81-2.88-2.84-4.85-7.67-3.8-11.88,2.14-8.52,14.6-6.06,20.53-16,4.83-8.06-.55-14.5,5.51-21,2.81-3,7.64-5.56,12.18-4.47,6.76,1.62,9.19,10.44,9.81,12.68C497.44,639.79,490.9,650.39,488.83,653.76Z" transform="translate(-228.72 -331.02)"/><path class="cls-1" d="M313.73,480.9s-16.29-16.71,1.69-28.76c0,0,31.72-3.39,11.84-45.68-8-17-5.58-22.62-2.72-26.4,4.95-6.56,18.19-5.41,26.4-2.35,11.79,4.38,17.62,14.31,20.3,19,13.05,23,4.32,48.92,2.12,55" transform="translate(-228.72 -331.02)"/><path class="cls-1" d="M253.25,398.43c2.34,12.21,13.14,19.46,22.32,17.62,7.32-1.47,13.49-8.69,13.63-15.51.17-8.23-8.56-11-9.31-19.45-.66-7.57,5.52-14.28,10.58-18.61a14,14,0,0,0-9.31-26.22,22.54,22.54,0,0,0-20.3,14.38" transform="translate(-228.72 -331.02)"/><path class="cls-1" d="M675.1,354.45c-10,4.83-15,22.86-6.34,42.5,1.27,2.85,8.61,18.57,26.42,24.58a44.13,44.13,0,0,0,25,.79c.67-.31,8.67-4.22,9.44-11.82.68-6.68-4.7-11.56-6.9-13.55-8.5-7.7-15.12-3.2-20.94-8.88-8.56-8.37,1-22.84-7.61-31.09C689.16,352.21,680.5,351.84,675.1,354.45Z" transform="translate(-228.72 -331.02)"/><path class="cls-2" d="M577.94,426.51,799,486.16l-8.78,40.35-19.29,21L730.57,694.93a152.08,152.08,0,0,1-3.5,79L502.5,716a147.1,147.1,0,0,1,36.85-75.44,415.66,415.66,0,0,1,31.58-133.33l-5.27-36.84Z" transform="translate(-228.72 -331.02)"/><path class="cls-2" d="M505.54,718.61,368.12,787.12A147,147,0,0,1,346.5,706,415.78,415.78,0,0,1,283,584.6l-28.12-24.38-19.47-41.17,206.05-99.84,19.82,36.22L460.45,484l66.12,137.75a150.66,150.66,0,0,1,13.6,11.36" transform="translate(-228.72 -331.02)"/><path class="cls-3" d="M600.75,485.67a87.63,87.63,0,0,1-8.91,56.46" transform="translate(-228.72 -331.02)"/><path class="cls-3" d="M600.72,514.75A17.11,17.11,0,1,1,595.78,534" transform="translate(-228.72 -331.02)"/><path class="cls-3" d="M647,524.93a14.57,14.57,0,0,1,23.89,6.49c3,10.13-5.33,20.94-2.76,31.19-.39.19-.88-.35-.66-.73" transform="translate(-228.72 -331.02)"/><path class="cls-3" d="M669.81,545.93c-3.32-2.67-6.68-5.38-10.54-7.12s-8.32-2.47-12.3-1-7.26,5.34-7.21,9.69c.06,5.43,5.14,9.66,10.33,10.52s10.43-.81,15.44-2.46" transform="translate(-228.72 -331.02)"/><path class="cls-3" d="M689.25,525.68a71.6,71.6,0,0,1-2.73,37.47" transform="translate(-228.72 -331.02)"/><path class="cls-3" d="M690.54,543.27a29.47,29.47,0,0,1,21.36-6.85" transform="translate(-228.72 -331.02)"/><path class="cls-3" d="M719.23,552.6c3.33,3.5,7.09,6.77,11.62,8.47s10,1.58,13.84-1.3,5.5-8.84,2.75-12.81c-2.5-3.61-7.41-4.54-11.79-4.63-5.22-.11-10.74.65-14.88,3.82-6.86,5.27-7.52,16.47-2.06,23.17s15.63,8.6,23.62,5.31" transform="translate(-228.72 -331.02)"/><path class="cls-3" d="M285.72,547.56A87.73,87.73,0,0,1,316,596.07" transform="translate(-228.72 -331.02)"/><path class="cls-3" d="M304.75,569.56a17.1,17.1,0,1,1,8.85,17.77" transform="translate(-228.72 -331.02)"/><path class="cls-3" d="M346.4,546.94a14.57,14.57,0,0,1,22.3-10.75c8.92,5.68,9.69,19.31,18.35,25.38a.55.55,0,0,1-1-.12" transform="translate(-228.72 -331.02)"/><path class="cls-3" d="M377.38,547.88c-4.26.15-8.58.31-12.63,1.52s-7.91,3.59-10,7.27-2,8.79.9,12c3.6,4.07,10.21,3.94,14.69,1.19s7.35-7.45,10.06-12" transform="translate(-228.72 -331.02)"/><path class="cls-3" d="M378.81,519.84A71.71,71.71,0,0,1,401.29,550" transform="translate(-228.72 -331.02)"/><path class="cls-3" d="M391.3,532.3A29.51,29.51,0,0,1,403,513.12" transform="translate(-228.72 -331.02)"/><path class="cls-3" d="M419.09,520.56c4.81.46,9.79.47,14.33-1.22S442,514,443,509.3s-1.63-10.29-6.32-11.48c-4.25-1.09-8.56,1.42-11.94,4.22-4,3.34-7.68,7.52-8.73,12.63-1.74,8.47,5.1,17.37,13.61,18.86s17.44-3.73,21.33-11.45" transform="translate(-228.72 -331.02)"/></svg>