<svg id="chips" xmlns="http://www.w3.org/2000/svg" viewBox="0 0 800.05 357.02"><defs><style>.cls-1,.cls-2,.cls-3{fill:none;stroke-miterlimit:10;stroke-width:12px;}.cls-1{stroke:#c84744;}.cls-2{stroke:#000;stroke-linecap:round;}.cls-3{stroke:#588c38;}</style></defs><path class="cls-1" d="M238.72,420a144.47,144.47,0,0,0-91.54,153.76,154.68,154.68,0,0,0,26.36,67.33c38.16,55.22,112.3,82.76,177.26,65.85" transform="translate(-139.97 -361.49)"/><path class="cls-1" d="M336.88,450.92c-14.17,5.67-24.83,18.16-31,32.11s-8.33,29.35-9.36,44.57a333.62,333.62,0,0,0,20.72,139.92s10.87,32.09,28.5,39.3c.56.23,2.09.85,3.2.17,1.91-1.19.25-4.86,1.69-8.88a11.87,11.87,0,0,1,6.73-6.79c4.73-1.73,10.82.55,15,5.74,0,0,6.46,7.87,7.89-8.78,0,0,12.37-283.56-31.41-261.68q-1.89,3-3.74,6.31A124.39,124.39,0,0,0,336.88,450.92Z" transform="translate(-139.97 -361.49)"/><path class="cls-1" d="M351.51,426.05l-31.76-5.16" transform="translate(-139.97 -361.49)"/><path class="cls-1" d="M447,704.38c-.77,6.6,8.82,10.24,14.52,6.82s8-10.38,9.83-16.77c20.82-73.12,45.62-147.17,40.84-223-.45-7.21.55-14.43.51-21.65s-1.25-14.76-5.54-20.57-12.34-9.29-19-6.56c-5.51,2.26-8.78,7.93-11,13.46s-3.92,11.47-7.88,15.92c-2.84,3.17-6.65,5.35-9.49,8.53s-4.54,8.1-2.2,11.65C453,548.89,455.91,628,447,704.38Z" transform="translate(-139.97 -361.49)"/><path class="cls-1" d="M510.21,687.21c4.6-1.12,8.58-3.91,12.44-6.65L592,631.36c21.57-15.3,43.64-31.11,58.28-53.13a108.58,108.58,0,0,0,17.15-45.64c1.89-14.31-.39-31.28-12.64-38.9-8.33-5.18-19.45-4.4-28.08.26s-15,12.66-19.7,21.29c-8,14.88-11.46,31.75-16.61,47.87S577.72,595.52,564,605.47c-7.86,5.72-17.23,8.95-25.68,13.76-16.93,9.63-24.52,23.51-34.28,39.37-3.2,5.21-10.13,10.78-10,17.34C494.32,684.29,502.64,689,510.21,687.21Z" transform="translate(-139.97 -361.49)"/><path class="cls-1" d="M651.39,648.21c8.67-9.47,21.34-14,33.28-18.68s24.36-10.64,31.05-21.59c6.38-10.44,6.32-23.38,8.09-35.48s6.92-25.4,18.37-29.7c8.53-3.21,18.5-.22,25.37,5.77s11,14.51,13.79,23.19c11.42,36-.69,78.33-29.44,102.85-21.13,18-50.32,25.65-77.67,21.7-9.85-1.43-23.55-3.58-28.73-13.29C640,672.57,643.86,656.41,651.39,648.21Z" transform="translate(-139.97 -361.49)"/><path class="cls-1" d="M777.17,639.81a23.52,23.52,0,0,0,39.7-10.23c2.17-8.12-.07-17.12,3.1-24.91,4.28-10.52,18.14-15.13,28.69-10.92s17.24,15.49,18,26.82-3.6,22.53-10.09,31.85a74.79,74.79,0,0,1-101.74,20.21" transform="translate(-139.97 -361.49)"/><path class="cls-2" d="M330.16,367.49a206.81,206.81,0,0,1,8.78,80" transform="translate(-139.97 -361.49)"/><path class="cls-2" d="M321,527l17.72,28.76" transform="translate(-139.97 -361.49)"/><path class="cls-2" d="M358.92,511.38l-4.76,29.5" transform="translate(-139.97 -361.49)"/><path class="cls-2" d="M864.78,541.8,871.4,517" transform="translate(-139.97 -361.49)"/><path class="cls-2" d="M896.39,568.16l33.53-19.59" transform="translate(-139.97 -361.49)"/><path class="cls-2" d="M903.57,603.07l30.46.3" transform="translate(-139.97 -361.49)"/><path class="cls-3" d="M324.84,451.7A77.86,77.86,0,0,1,223,372.41c24.48-7.76,52-2.67,72.66,12.57S325,426,324.84,451.7Z" transform="translate(-139.97 -361.49)"/></svg>