<svg id="illustration" xmlns="http://www.w3.org/2000/svg" viewBox="0 0 534.41 629.13"><defs><style>.cls-1,.cls-2,.cls-3{fill:none;stroke-miterlimit:10;stroke-width:10px;}.cls-1{stroke:#000;}.cls-2{stroke:#588c38;}.cls-3{stroke:#c84744;}</style></defs><path class="cls-1" d="M664,478.78c33.6-14.49,65.13-13.79,68.51-28.73a13.59,13.59,0,0,0-1.22-9.23c-5-8.67-20.52-7.37-22.41-7.19,0,0-79.51,10-153.73,102.34a121.09,121.09,0,0,1,10.66-42c23-49.92,73.68-67.21,85.55-70.93,7.86-3.13,11.78-11.6,9.56-18.66-2.52-8-12.53-12.79-21.4-8.82a151.93,151.93,0,0,0-35,15.11c-44.43,26.3-63.36,68.55-70.34,87.23l-.63-110.38,41.23-26.64c7.72-2.29,11.2-10.72,8.45-16.7s-11.41-8.82-18.17-4.45a171.46,171.46,0,0,0-46.73,29.39,127.71,127.71,0,0,0-8.81-22.5,130.9,130.9,0,0,0-35-42.84c-8.66-8.38-21.18-7.41-26.46-.87-3.68,4.56-3.86,11.86-.6,18.21a200.87,200.87,0,0,1,28.08,36.07c23,37.82,28.25,74.94,29.43,96.94a224,224,0,0,0-40.91-41.63c-38.79-30.29-78.83-40.78-102-44.86-13.41-3-24,5.17-24.59,12.84-.41,5.6,4.5,11.87,11.9,15.08a175.13,175.13,0,0,1,44,10.2" transform="translate(-250.76 -246.78)"/><path class="cls-1" d="M583.53,795.38c-15.85-79.66-26.74-204.46,34.7-284.15.89-1,1.9-2.05,3-3.21" transform="translate(-250.76 -246.78)"/><path class="cls-1" d="M459.8,576.88l1.42,1.43s92.78,71.37-22.83,292.6H603s-3.53-10.28-8.25-27.68" transform="translate(-250.76 -246.78)"/><path class="cls-1" d="M432,426.65c65.87,48.3,70.62,130.09,71.1,141.67a317.45,317.45,0,0,0-55.9-48.41c-63.89-43.35-129-53-165.49-55.41-12.8-4.14-24.58,4-25.82,12.7-1.12,7.86,6.08,17.79,17.78,19.44a269.58,269.58,0,0,1,153.8,52.49" transform="translate(-250.76 -246.78)"/><path class="cls-2" d="M526,315.21a51.92,51.92,0,0,1,44.78-63,52,52,0,0,1-6.33,42.69C556.28,307.15,540.57,313.65,526,315.21Z" transform="translate(-250.76 -246.78)"/><path class="cls-2" d="M688.65,336.14a49.71,49.71,0,0,0-70.16,26.74c12.54,6.71,29.57,7.76,43,3.05S683.05,349.21,688.65,336.14Z" transform="translate(-250.76 -246.78)"/><path class="cls-2" d="M690.61,592.15a49.72,49.72,0,0,0-70.21-26.61c4.92,13.34,17,25.44,30.12,30.83S677.75,598.21,690.61,592.15Z" transform="translate(-250.76 -246.78)"/><path class="cls-2" d="M413.62,340.72a44.79,44.79,0,0,1-51.17-50.22c13.05.86,27.42,5.77,36.79,14.88S412.38,327.71,413.62,340.72Z" transform="translate(-250.76 -246.78)"/><path class="cls-2" d="M369.12,546.13a54,54,0,0,0-77.66,22.46c12.56,7.57,28.79,9.22,42.89,5.2S362.45,559.18,369.12,546.13Z" transform="translate(-250.76 -246.78)"/><path class="cls-2" d="M778.59,510a57.86,57.86,0,0,0-77.29-18.2c5.56,14.55,17.53,27.7,32.63,31.47S766.84,520.16,778.59,510Z" transform="translate(-250.76 -246.78)"/><circle class="cls-3" cx="392.68" cy="247.8" r="28.07"/><circle class="cls-3" cx="153.84" cy="185" r="28.07"/><circle class="cls-3" cx="182.39" cy="331.53" r="28.07"/><circle class="cls-3" cx="351.76" cy="570.37" r="28.07"/></svg>