<?xml version="1.0" encoding="utf-8"?>
<!-- Generator: Adobe Illustrator 25.0.0, SVG Export Plug-In . SVG Version: 6.00 Build 0)  -->
<svg version="1.1" id="Layer_2" xmlns="http://www.w3.org/2000/svg" xmlns:xlink="http://www.w3.org/1999/xlink" x="0px" y="0px"
	 viewBox="0 0 590.4 221.6" style="enable-background:new 0 0 590.4 221.6;" xml:space="preserve">
<style type="text/css">
	.st0{stroke:#EA0A8C;stroke-width:0.233;stroke-miterlimit:10;}
	.st1{font-family:'HelveticaLTStd-Bold';}
	.st2{font-size:8.0453px;}
</style>
<path class="st0" d="M111.1,70.5c-13.6,0-27.1,4.5-34.8,7.5c-3.4,1.3-7.2-0.5-8.2-4.1c-2.2-7.8-5.9-20.5-9.6-29.4
	c-3.5-8.4-10.5-21.8-15-27c-2-2.4-5.6-2.9-8.2-1.1L14.3,31.2c-2.5,1.8-3.4,5.1-2,7.9c6.6,12.8,21.8,50.1,16.8,89
	c-3.8,29-2.8,45.6,0.7,54.8c5.4,14.1,11.2,25.9,14.9,25.9c2.1,0,7.6,0,10.6,0c5.5,0,6.6-1.5,8.4-4.6c2.4-4.3,5.3-6,9.8-3.9
	c7.8,3.8,15,8.6,34.7,8.6c17.4,0,68.3-15.3,68.3-64.5S148.1,70.5,111.1,70.5z M105.9,175.9c-18.8,0-37.7-15.5-37.7-36.4
	s19-36.4,37.7-36.4s37.7,15.5,37.7,36.4S124.7,175.9,105.9,175.9z"/>
<path d="M316.3,205.5c-1.5-9.3-6.5-42.1-6.5-56.3c0-17.4,6.5-78.8-55.9-78.8c-26.9,0-46.4,7.6-53.4,10.8c-1.6,0.7-2.2,2.6-1.3,4.1
	l12.7,21.1c0.6,1.1,1.9,1.6,3.1,1.3c6.7-1.6,20.9-8.4,37.6-8.4c12.5,0,22.4,3.5,26.9,19.1c0.6,2.2-1.3,4.2-3.5,3.6
	c-5.8-1.5-16.5-3.8-29.7-3.8c-20,0-54.4,14.4-54.4,47.9c0,15.2,20,43.2,54.4,43.2c24,0,35.5-7.1,40.3-11.1c1.5-1.2,3.8-0.7,4.5,1.1
	l1.6,7.7c0.4,1.1,1.5,1.8,2.7,1.8h18.2C315.2,208.8,316.6,207.3,316.3,205.5z M249.7,182.9c-15.6,0-28.3-8.7-28.3-19.4
	c0-10.7,12.7-19.4,28.3-19.4s28.3,8.7,28.3,19.4C278,174.3,265.3,182.9,249.7,182.9z"/>
<path d="M340.8,81.8c-1.4,0.8-2.1,2.5-1.6,4c2.7,7.7,9.9,30.9,9.9,56.8c0,25.7-2.1,53.1-2.9,62.7c-0.2,1.9,1.4,3.6,3.3,3.6h31
	c1.7,0,3.2-1.3,3.3-3c0.9-9.8,0.3-55.4,2.8-62.1c2.5-6.6,22.7-33.4,38.1-36c1.5-0.2,2.6-1.4,2.8-2.9c1.1-10.3,3-22.7,3.9-27.9
	c0.3-1.7-0.8-3.3-2.4-3.7c-5.3-1.4-18.6-1.3-44.2,18.5c-1.7,1.3-4.3,0.7-5.1-1.3c-4-9.7-7-15.6-8.7-17.7c-1.7-2.1-4.3-4.5-11.2-0.9
	C354.9,74.4,344.9,79.6,340.8,81.8z"/>
<path d="M511,70.5c-32.6,0.2-67.8,24-67.8,70.4S483.1,209,511,209c27.3,0,48.1-11.8,55.4-25.9c0.3-0.5,0.2-1.1-0.2-1.5
	c-5.8-6-15.2-14-18.2-16.5c-0.5-0.4-1.3-0.4-1.7,0.1c-2.9,3-13.7,12.9-29.7,12.9c-18,0-31.1-8.6-35.2-26.9c-0.3-1.1,0.7-2.1,1.7-1.6
	c13.1,6,27.6,7.5,42.1,7.5c0,0,38.2-0.6,44.6-10.6C576.2,136.5,577,70,511,70.5z M536.6,125.5c-12.5,1.1-39,0.4-52.2,0
	c-2.6-0.1-4.2-2.8-2.8-4.9c6.3-9.5,19.4-18.8,29.1-18.8c9.7,0,22.2,9.2,28.6,18.8C540.8,122.7,539.2,125.3,536.6,125.5z"/>
<text transform="matrix(1 0 0 1 556.1742 82.6162)" class="st1 st2">TM/MC</text>
</svg>
