<svg id="Layer_1" data-name="Layer 1" xmlns="http://www.w3.org/2000/svg" viewBox="0 0 1439.58 750.87"><defs><style>.cls-1{fill:#fff9ed;}</style></defs><path class="cls-1" d="M79.08,137.29l91.77-5.08,79.93-.84,22,5.49h16.91l75.7-12.26,40.18-.42,21.14,7.61H575.58l26.22,11h37.64l23.26-6.34,47.78,6.77L765.89,125l37.63.42,29.18,5.93L894,124.18l55.82,6.34,171.28,12.69,162-6.77,87.12-5.07,30-6.77,118.41,19v694l-23.26,6.77-51.59,2.32-19.46,8.46L1406,850.94s-61.75,18.72-69.36,24.11l-15.23-9.73-25.58-4.65-27.7-9.52s-27.17.74-71.47,7.19l-132.37-7-78,9.93-29.39-3-27.91-15-127.09.21-63.22,15-78-11.63-247.4-3L240,832.55H139.14l-12.06-10.79L114.4,833.18l-12.69.63L80.14,821.13Z" transform="translate(-79.08 -124.18)"/></svg>