<svg id="Layer_1" data-name="Layer 1" xmlns="http://www.w3.org/2000/svg" viewBox="0 0 1568.5 1147.99"><defs><style>.cls-1{fill:#fff;}</style></defs><path class="cls-1" d="M40.23,808a6.12,6.12,0,0,1,0,8.33L24.42,834.46a7,7,0,0,0,0,9.55c5.24,6.08,10.5,12.13,15.72,18.22a6.12,6.12,0,0,1-.05,8.59l-15.44,17.8c-2.8,3.23-2.78,6.85,0,10.07q7.78,9,15.52,17.95a6.09,6.09,0,0,1,.11,8.32c-5,5.73-9.79,11.57-14.94,17.13-3.58,3.88-3.49,8.09,0,11.8,5.17,5.6,10,11.49,15,17.28a6.12,6.12,0,0,1,0,8.21L24.49,997.55a7,7,0,0,0,0,9.68c5.23,6.08,10.48,12.13,15.71,18.22a6.08,6.08,0,0,1,0,8.45q-7.77,9-15.56,17.93a7.69,7.69,0,0,0-2,4.44,4.75,4.75,0,0,0,0,.54,7.58,7.58,0,0,0,2,5q7.85,9,15.63,18.08a6.49,6.49,0,0,1,1.64,3.77v0a6.57,6.57,0,0,1-1.89,5q-7.68,8.85-15.34,17.68a7.2,7.2,0,0,0-1.94,6.28,2.7,2.7,0,0,0,.12.47,3.36,3.36,0,0,0,.14.45s0,0,0,0a8.63,8.63,0,0,0,1.69,2.8q7.77,9,15.51,17.95a6.08,6.08,0,0,1,.08,8.33l-4.6,5.31H1591V0H292.2V.16h-253q-7.39,8.52-14.8,17a7,7,0,0,0,0,9.56c5.2,6,10.43,12,15.61,18.09,2.49,2.91,2.44,5.94-.08,8.84q-7.68,8.85-15.34,17.68c-2.79,3.22-2.77,6.84,0,10.06q7.77,9,15.51,18a6.08,6.08,0,0,1,.08,8.33q-7.55,8.72-15.11,17.42c-3.49,4-3.49,7.22,0,11.21q7.62,8.76,15.19,17.57a6.14,6.14,0,0,1,0,8.21L24.48,180.28a7,7,0,0,0,0,9.67C29.69,196,35,202.09,40.16,208.17a6.06,6.06,0,0,1,0,8.45q-7.76,9-15.55,17.93a7.08,7.08,0,0,0,0,9.94q7.81,9,15.62,18.08a6,6,0,0,1,.1,8.19q-7.54,8.73-15.12,17.42c-3.57,4.1-3.57,7.28-.05,11.34q7.56,8.72,15.08,17.44a6.12,6.12,0,0,1,0,8.33L24.4,343.46a7,7,0,0,0,0,9.56c5.24,6.07,10.5,12.13,15.72,18.21a6.14,6.14,0,0,1,0,8.6q-7.73,8.9-15.44,17.8c-2.8,3.23-2.78,6.85,0,10.06q7.79,9,15.52,17.95a6.1,6.1,0,0,1,.11,8.33c-5,5.73-9.79,11.57-14.94,17.13-3.58,3.88-3.49,8.09,0,11.8,5.17,5.6,10,11.49,15,17.28a6.12,6.12,0,0,1,0,8.21L24.47,506.56a7.19,7.19,0,0,0-1.89,5.6,7.47,7.47,0,0,0,1.88,4.08q7.84,9.1,15.71,18.22a6.22,6.22,0,0,1,1.64,4.95A6.46,6.46,0,0,1,40,544.64q-7.68,8.85-15.34,17.68a7.92,7.92,0,0,0-2,4.25,7.7,7.7,0,0,0,2,4.22q7.84,9,15.63,18.07a6.22,6.22,0,0,1,1.59,4.95,6.09,6.09,0,0,1-1.56,4.85q-7.54,8.72-15.11,17.42a9.51,9.51,0,0,0-2.57,4.9c-.27,2,.57,4,2.53,6.31q7.62,8.78,15.19,17.58a6.12,6.12,0,0,1,0,8.2L24.47,671.25a7,7,0,0,0,0,9.68c5.24,6.07,10.5,12.13,15.71,18.21a6.06,6.06,0,0,1,0,8.45q-7.76,9-15.55,17.93a7.08,7.08,0,0,0,0,9.94q7.82,9,15.62,18.08a6.06,6.06,0,0,1,.1,8.2q-7.55,8.71-15.12,17.41c-3.57,4.09-3.57,7.28-.05,11.34Q32.73,799.22,40.23,808Z" transform="translate(-22.49)"/></svg>