<?xml version="1.0" encoding="utf-8"?>
<!-- Generator: Adobe Illustrator 25.0.0, SVG Export Plug-In . SVG Version: 6.00 Build 0)  -->
<svg version="1.1" id="Layer_1" xmlns="http://www.w3.org/2000/svg" xmlns:xlink="http://www.w3.org/1999/xlink" x="0px" y="0px"
	 viewBox="0 0 1148 1591" style="enable-background:new 0 0 1148 1591;" xml:space="preserve">
<style type="text/css">
	.st0{fill:#FFFFFF;}
</style>
<path class="st0" d="M340,40.2c-2.5,2.2-5.8,2.2-8.3,0c-6.1-5.3-12.1-10.5-18.2-15.8c-2.9-2.5-6.6-2.5-9.5,0
	c-6.1,5.2-12.1,10.5-18.2,15.7c-2.7,2.3-5.9,2.3-8.6-0.1c-5.9-5.2-11.9-10.3-17.8-15.4c-3.2-2.8-6.8-2.8-10.1,0
	c-6,5.2-12,10.4-18,15.5c-2.6,2.2-5.8,2.3-8.3,0.1c-5.7-5-11.6-9.8-17.1-14.9c-3.9-3.6-8.1-3.5-11.8-0.1c-5.6,5.2-11.5,10-17.3,15
	c-2.5,2.1-5.8,2.1-8.2,0c-6-5.3-12.1-10.5-18.2-15.8c-3-2.6-6.7-2.6-9.7,0c-6.1,5.2-12.1,10.5-18.2,15.7c-2.7,2.3-5.8,2.2-8.4,0
	c-6-5.2-12-10.4-17.9-15.6c-1.4-1.2-2.9-1.9-4.4-2c-0.2,0-0.3,0-0.5,0c-1.7,0-3.4,0.7-5,2c-6,5.2-12,10.4-18.1,15.6
	c-1.2,1-2.5,1.5-3.8,1.6h0c-1.7,0.2-3.4-0.5-5-1.9c-5.9-5.1-11.8-10.2-17.7-15.3c-2-1.7-4.2-2.4-6.3-1.9c-0.2,0-0.3,0.1-0.5,0.1
	c-0.2,0-0.3,0.1-0.4,0.1c0,0,0,0-0.1,0c-1,0.3-1.9,0.9-2.8,1.7c-6,5.2-12,10.3-17.9,15.5c-2.6,2.2-5.8,2.2-8.3,0.1
	c-1.8-1.5-3.5-3.1-5.3-4.6L0,1591l1148,0l0-1298.8h-0.2v-253c-5.7-4.9-11.4-9.9-17-14.8c-2.9-2.5-6.6-2.5-9.6,0
	c-6,5.2-12,10.4-18.1,15.6c-2.9,2.5-5.9,2.4-8.8-0.1c-5.9-5.1-11.8-10.2-17.7-15.3c-3.2-2.8-6.8-2.8-10.1,0c-6,5.2-12,10.3-18,15.5
	c-2.6,2.2-5.8,2.2-8.3,0.1c-5.8-5-11.6-10.1-17.4-15.1c-4-3.5-7.2-3.5-11.2,0c-5.8,5.1-11.7,10.1-17.6,15.2c-2.5,2.1-5.8,2.1-8.2,0
	c-6.1-5.3-12.1-10.5-18.2-15.8c-3-2.6-6.7-2.6-9.7,0c-6.1,5.2-12.1,10.5-18.2,15.7c-2.7,2.3-5.8,2.2-8.5-0.1
	c-6-5.2-12-10.4-17.9-15.6c-3.1-2.7-6.8-2.7-9.9,0c-6,5.2-12,10.4-18.1,15.6c-2.5,2.2-5.8,2.2-8.2,0.1c-5.8-5-11.6-10.1-17.4-15.1
	c-4.1-3.6-7.3-3.6-11.3-0.1c-5.8,5-11.6,10.1-17.4,15.1c-2.5,2.2-5.8,2.2-8.3,0c-6.1-5.3-12.1-10.5-18.2-15.8
	c-2.9-2.5-6.7-2.5-9.6,0c-6.1,5.2-12.1,10.5-18.2,15.7c-2.7,2.3-5.9,2.3-8.6-0.1c-5.9-5.2-11.9-10.3-17.8-15.4
	c-3.2-2.8-6.9-2.8-10.1,0c-6,5.2-12,10.4-18,15.5c-2.6,2.2-5.8,2.3-8.3,0.1c-5.7-5-11.6-9.8-17.1-14.9c-3.9-3.6-8.1-3.5-11.8-0.1
	c-5.6,5.2-11.5,10-17.3,15c-2.5,2.1-5.8,2.1-8.2,0c-6-5.3-12.1-10.5-18.2-15.8c-1.7-1.5-3.7-2.1-5.6-1.9c-1.4,0.2-2.8,0.8-4.1,1.9
	c-6.1,5.2-12.1,10.5-18.2,15.7c-1.5,1.3-3.3,1.9-5,1.6c-1.8,0.3-3.5-0.4-5.2-1.9c-5.9-5.1-11.8-10.2-17.7-15.3
	c-1.4-1.2-2.8-1.9-4.2-2c-1.5,0.2-2.9,0.8-4.2,2c-6,5.2-12,10.4-18.1,15.6c-1.5,1.3-3.3,1.8-5,1.6c-1.7,0.2-3.4-0.3-4.8-1.6
	c-5.8-5-11.6-10.1-17.4-15.1c-1.7-1.5-3.3-2.4-4.9-2.6c-2-0.3-4,0.6-6.3,2.5c-5.8,5.1-11.7,10.1-17.6,15.2c-2.4,2.1-5.8,2.1-8.2,0
	c-6.1-5.3-12.1-10.5-18.2-15.8c-3-2.6-6.7-2.6-9.7,0c-6.1,5.2-12.1,10.5-18.2,15.7c-2.7,2.3-5.8,2.2-8.5-0.1
	c-6-5.2-12-10.4-17.9-15.6c-3.1-2.7-6.8-2.7-9.9,0c-6,5.2-12,10.4-18.1,15.6c-2.5,2.2-5.8,2.2-8.2,0.1c-5.8-5-11.6-10.1-17.4-15.1
	c-4.1-3.6-7.3-3.6-11.3-0.1C351.7,30.2,345.9,35.2,340,40.2z"/>
</svg>
