<?xml version="1.0" encoding="utf-8"?>
<!-- Generator: Adobe Illustrator 25.0.0, SVG Export Plug-In . SVG Version: 6.00 Build 0)  -->
<svg version="1.1" id="Layer_1" xmlns="http://www.w3.org/2000/svg" xmlns:xlink="http://www.w3.org/1999/xlink" x="0px" y="0px"
	 viewBox="0 0 1590.99 1148" style="enable-background:new 0 0 1590.99 1148;" xml:space="preserve">
<style type="text/css">
	.st0{fill:#7F469B;}
</style>
<path class="st0" d="M1550.76,807.95c-2.18,2.54-2.15,5.83,0.03,8.33c5.26,6.06,10.52,12.12,15.78,18.18
	c2.5,2.89,2.51,6.64,0.01,9.55c-5.24,6.08-10.5,12.13-15.72,18.22c-2.35,2.74-2.29,5.87,0.05,8.59c5.15,5.93,10.3,11.87,15.44,17.8
	c2.8,3.23,2.78,6.85,0,10.07c-5.19,5.97-10.36,11.96-15.52,17.95c-2.23,2.58-2.26,5.82-0.11,8.32c4.96,5.73,9.79,11.57,14.94,17.13
	c3.58,3.88,3.49,8.09,0.05,11.8c-5.17,5.6-10.03,11.49-15.01,17.28c-2.11,2.45-2.09,5.79,0.02,8.21
	c5.26,6.05,10.52,12.11,15.78,18.17c2.58,2.96,2.59,6.7,0.01,9.68c-5.23,6.08-10.48,12.13-15.71,18.22
	c-2.28,2.67-2.23,5.83,0.04,8.45c5.18,5.97,10.37,11.96,15.56,17.93c1.22,1.41,1.88,2.91,2,4.44c0.02,0.18,0.03,0.35,0.03,0.54
	c0,1.7-0.68,3.4-2.03,4.96c-5.23,6.02-10.44,12.04-15.63,18.08c-1,1.15-1.54,2.46-1.64,3.77v0.03c-0.18,1.68,0.46,3.37,1.89,5.02
	c5.12,5.9,10.23,11.78,15.34,17.68c1.73,2,2.38,4.16,1.94,6.28c-0.02,0.15-0.07,0.32-0.12,0.47c-0.03,0.15-0.09,0.31-0.14,0.45
	c0,0.02,0,0.04-0.02,0.05c-0.34,0.96-0.9,1.9-1.69,2.8c-5.18,5.97-10.35,11.97-15.51,17.95c-2.23,2.58-2.25,5.82-0.08,8.33
	c1.54,1.77,3.06,3.54,4.6,5.31H0V0h1298.79v0.16h252.98c4.93,5.68,9.87,11.35,14.8,17.02c2.5,2.88,2.5,6.64-0.01,9.56
	c-5.2,6.04-10.43,12.04-15.61,18.09c-2.49,2.91-2.44,5.94,0.08,8.84c5.12,5.9,10.23,11.78,15.34,17.68
	c2.79,3.22,2.77,6.84-0.03,10.06c-5.18,5.97-10.35,11.97-15.51,17.95c-2.23,2.58-2.25,5.82-0.08,8.33
	c5.03,5.81,10.06,11.62,15.11,17.42c3.49,4.01,3.49,7.22,0.04,11.21c-5.08,5.84-10.14,11.7-15.19,17.57
	c-2.11,2.45-2.06,5.8,0.03,8.21c5.26,6.06,10.52,12.12,15.77,18.18c2.59,3,2.61,6.67,0.03,9.67c-5.24,6.08-10.5,12.14-15.71,18.22
	c-2.28,2.67-2.24,5.82,0.05,8.45c5.17,5.97,10.36,11.96,15.55,17.93c2.71,3.14,2.7,6.81-0.02,9.94
	c-5.21,6.02-10.43,12.04-15.62,18.08c-2.16,2.5-2.2,5.77-0.1,8.19c5.03,5.82,10.07,11.63,15.12,17.42c3.57,4.1,3.57,7.28,0.05,11.34
	c-5.04,5.81-10.07,11.63-15.08,17.44c-2.18,2.54-2.15,5.83,0.03,8.33c5.26,6.06,10.52,12.12,15.78,18.17
	c2.5,2.9,2.51,6.65,0.01,9.56c-5.24,6.07-10.5,12.13-15.72,18.21c-2.35,2.74-2.29,5.88,0.05,8.6c5.15,5.93,10.3,11.86,15.44,17.8
	c2.8,3.23,2.78,6.85,0,10.06c-5.19,5.98-10.36,11.97-15.52,17.95c-2.23,2.59-2.26,5.83-0.11,8.33c4.96,5.73,9.79,11.57,14.94,17.13
	c3.58,3.88,3.49,8.09,0.05,11.8c-5.17,5.6-10.03,11.49-15.01,17.28c-2.11,2.45-2.09,5.79,0.02,8.21
	c5.26,6.05,10.52,12.11,15.78,18.17c1.48,1.71,2.12,3.67,1.89,5.6c-0.15,1.42-0.79,2.82-1.88,4.08
	c-5.23,6.07-10.48,12.13-15.71,18.22c-1.33,1.55-1.87,3.26-1.64,4.95c-0.26,1.76,0.37,3.51,1.86,5.23
	c5.12,5.9,10.23,11.78,15.34,17.68c1.17,1.36,1.86,2.8,2.02,4.25c-0.16,1.46-0.82,2.89-1.98,4.22
	c-5.23,6.02-10.44,12.03-15.63,18.07c-1.3,1.5-1.82,3.26-1.59,4.95c-0.23,1.68,0.3,3.39,1.56,4.85
	c5.03,5.81,10.06,11.62,15.11,17.42c1.51,1.73,2.37,3.33,2.57,4.9c0.27,2.04-0.57,4.05-2.53,6.31c-5.08,5.85-10.14,11.7-15.19,17.58
	c-2.11,2.44-2.06,5.79,0.03,8.2c5.26,6.06,10.52,12.12,15.77,18.18c2.59,3,2.61,6.67,0.03,9.68c-5.24,6.07-10.5,12.13-15.71,18.21
	c-2.28,2.67-2.24,5.82,0.05,8.45c5.17,5.98,10.36,11.96,15.55,17.93c2.71,3.14,2.7,6.81-0.02,9.94
	c-5.21,6.02-10.43,12.04-15.62,18.08c-2.16,2.51-2.2,5.77-0.1,8.2c5.03,5.81,10.07,11.62,15.12,17.41
	c3.57,4.09,3.57,7.28,0.05,11.34C1560.8,796.31,1555.77,802.13,1550.76,807.95z"/>
</svg>
