<svg id="Layer_1" data-name="Layer 1" xmlns="http://www.w3.org/2000/svg" viewBox="0 0 133.99 1920"><defs><style>.cls-1{fill:#d11111;opacity:0;}</style></defs><path class="cls-1" d="M84,1920.41H0V.41H84q22.15,25.46,44.3,50.9c7.48,8.6,7.48,19.85-.06,28.59-15.56,18-31.19,36-46.7,54.11-7.47,8.71-7.28,17.76.25,26.44l45.87,52.86c8.35,9.63,8.27,20.47-.08,30.09C112.08,261.27,96.8,279.34,81.05,297c-5.57,6.24-6.08,18.95,0,25.55,15.35,16.66,29.85,34.1,44.74,51.18,10.89,12.49,10.93,21.88.14,34.29q-22.62,26-45.12,52.18a18.35,18.35,0,0,0,.06,24.56q23.59,27.18,47.18,54.36c7.77,9,7.84,20,.12,28.95-15.65,18.18-31.39,36.29-47,54.5-6.85,8-6.72,17.41.1,25.28l46.52,53.61c8.15,9.4,8.11,20.38,0,29.72q-23.42,27-46.76,54.06c-6.59,7.66-6.58,17.32,0,24.9q22.56,26.08,45.21,52.1c10.36,11.91,10.32,21.56-.09,33.54Q103.5,921.81,81,948c-6.55,7.59-6.49,17.45,0,24.93q23.44,27,46.87,54c7.94,9.12,8,20.17.12,29.35-15.56,18-31.19,36-46.7,54.11-7.06,8.24-6.94,17.61.07,25.68l46.52,53.61c8.09,9.32,8,20.28-.23,29.71Q104.4,1246.12,81.22,1273c-6.82,7.91-6.87,17.47-.11,25.29q22.56,26.09,45.21,52.1c10.17,11.7,10.15,21.45,0,33.16q-22.77,26.24-45.45,52.56c-6.35,7.37-6.34,17.34-.07,24.55q23.6,27.18,47.2,54.34c7.74,8.9,7.86,20.08.2,29-15.67,18.17-31.4,36.28-47,54.5-7,8.16-6.78,17.52.31,25.68l46.2,53.23c8.34,9.61,8.23,20.44-.15,30.09q-23.1,26.61-46.11,53.3c-7.05,8.16-7.16,17.61-.19,25.67q22.73,26.28,45.54,52.48c9.54,11,9.55,21.09.08,32Q105.42,1895.64,84,1920.41Z" transform="translate(0 -0.41)"/></svg>