<?xml version="1.0" encoding="utf-8"?>
<!-- Generator: Adobe Illustrator 25.2.0, SVG Export Plug-In . SVG Version: 6.00 Build 0)  -->
<svg version="1.1" id="Layer_1" xmlns="http://www.w3.org/2000/svg" xmlns:xlink="http://www.w3.org/1999/xlink" x="0px" y="0px"
	 viewBox="0 0 1920 178.2" style="enable-background:new 0 0 1920 178.2;" xml:space="preserve">
<style type="text/css">
	.st0{fill:#7F469B;}
</style>
<g>
	
		<image style="display:none;overflow:visible;opacity:0.75;enable-background:new    ;" width="2010" height="224" xlink:href="9C1D7E34E677192D.png"  transform="matrix(1 0 0 1 -45 -0.8011)">
	</image>
	<g>
		<path class="st0" d="M1920,94.2c0,28,0,56,0,84c-640,0-1280,0-1920,0c0-28,0-56,0-84c17-14.8,33.9-29.5,50.9-44.3
			c8.6-7.5,19.8-7.5,28.6,0.1c18.1,15.6,36,31.2,54.1,46.7c8.7,7.5,17.8,7.3,26.4-0.2c17.6-15.3,35.2-30.6,52.9-45.9
			c9.6-8.4,20.5-8.3,30.1,0.1c17.9,15.5,35.9,30.8,53.6,46.5c6.2,5.6,19,6.1,25.5,0c16.7-15.3,34.1-29.8,51.2-44.7
			c12.5-10.9,21.9-10.9,34.3-0.1c17.4,15.1,34.8,30.1,52.2,45.1c7.3,6.3,17.3,6.2,24.6-0.1c18.1-15.7,36.2-31.5,54.4-47.2
			c9-7.8,20-7.8,29-0.1c18.2,15.6,36.3,31.4,54.5,47c8,6.8,17.4,6.7,25.3-0.1c17.9-15.5,35.7-31,53.6-46.5c9.4-8.1,20.4-8.1,29.7,0
			c18,15.6,36,31.2,54.1,46.8c7.7,6.6,17.3,6.6,24.9,0c17.4-15,34.8-30.1,52.1-45.2c11.9-10.4,21.6-10.3,33.5,0.1
			c17.4,15.1,34.8,30.1,52.2,45.1c7.6,6.6,17.5,6.5,24.9,0c18-15.6,36-31.2,54-46.9c9.1-7.9,20.2-8,29.3-0.1
			c18.1,15.6,36,31.2,54.1,46.7c8.2,7.1,17.6,6.9,25.7-0.1c17.9-15.5,35.7-31,53.6-46.5c9.3-8.1,20.3-8,29.7,0.2
			c17.9,15.5,35.8,31,53.7,46.4c7.9,6.8,17.5,6.9,25.3,0.1c17.4-15,34.7-30.1,52.1-45.2c11.7-10.2,21.4-10.2,33.2,0
			c17.5,15.2,35,30.3,52.6,45.5c7.4,6.3,17.3,6.3,24.6,0.1c18.1-15.7,36.2-31.5,54.3-47.2c8.9-7.7,20.1-7.9,29-0.2
			c18.2,15.7,36.3,31.4,54.5,47c8.2,7,17.5,6.8,25.7-0.3c17.7-15.4,35.5-30.8,53.2-46.2c9.6-8.3,20.4-8.2,30.1,0.2
			c17.7,15.4,35.5,30.8,53.3,46.1c8.2,7.1,17.6,7.2,25.7,0.2c17.5-15.2,35-30.4,52.5-45.5c11-9.5,21.1-9.5,32-0.1
			C1887,65.6,1903.5,79.9,1920,94.2z"/>
	</g>
</g>
</svg>
