<?xml version="1.0" standalone="no"?>
<!DOCTYPE svg PUBLIC "-//W3C//DTD SVG 1.1//EN" "http://www.w3.org/Graphics/SVG/1.1/DTD/svg11.dtd" >
<svg xmlns="http://www.w3.org/2000/svg" xmlns:xlink="http://www.w3.org/1999/xlink" version="1.1">
<metadata>
Created by FontForge 20190801 at Tue Oct 11 16:02:51 2016
 By Unknown
Copyright \(c\) 2014 by Newlyn Works Limited. All rights reserved.
</metadata>
<defs>
<font id="FarmNew-Medium" horiz-adv-x="598" >
  <font-face 
    font-family="Farm New Medium"
    font-weight="500"
    font-stretch="normal"
    units-per-em="1000"
    panose-1="0 0 6 0 0 0 0 0 0 0"
    ascent="800"
    descent="-200"
    x-height="477"
    cap-height="665"
    bbox="-426.403 -350 1533 954"
    underline-thickness="50"
    underline-position="-100"
    stemh="102"
    stemv="114"
    unicode-range="U+000D-FB02"
  />
<missing-glyph horiz-adv-x="724" 
d="M150 0c-41 0 -58 22 -58 54v548c0 32 17 56 58 56h425c41 0 57 -22 57 -53v-549c0 -31 -16 -56 -57 -56h-425zM526 93v472h-328v-472h328z" />
    <glyph glyph-name="fi" unicode="fi" horiz-adv-x="788" 
d="M639 574c-42 0 -76 33 -76 75c0 41 34 75 76 75s76 -34 76 -75c0 -42 -34 -75 -76 -75zM133 477v21c0 148 97 213 238 213c56 0 91 -8 124 -23c26 -12 34 -25 34 -47c0 -28 -21 -50 -46 -50c-12 0 -22 4 -35 8c-23 6 -44 11 -82 11c-78 0 -121 -38 -121 -115v-18h163
c26 0 48 -19 48 -49c0 -29 -22 -49 -48 -49h-163v-335c0 -31 -23 -50 -56 -50s-56 19 -56 50v335h-72c-27 0 -49 20 -49 49c0 30 22 49 49 49h72zM695 44c0 -30 -23 -50 -56 -50s-56 20 -56 50v389c0 31 23 50 56 50s56 -19 56 -50v-389z" />
    <glyph glyph-name="fl" unicode="fl" horiz-adv-x="788" 
d="M133 477v21c0 148 97 213 238 213c56 0 91 -8 124 -23c26 -12 34 -25 34 -47c0 -28 -21 -50 -46 -50c-12 0 -22 4 -35 8c-23 6 -44 11 -82 11c-78 0 -121 -38 -121 -115v-18h163c26 0 48 -19 48 -49c0 -29 -22 -49 -48 -49h-163v-335c0 -31 -23 -50 -56 -50
s-56 19 -56 50v335h-72c-27 0 -49 20 -49 49c0 30 22 49 49 49h72zM695 44c0 -31 -23 -51 -56 -51s-56 20 -56 51v600c0 30 23 50 56 50s56 -20 56 -50v-600z" />
    <glyph glyph-name="f_f" unicode="ff" horiz-adv-x="1014" 
d="M622 477v22c0 148 98 213 239 213c55 0 112 -13 151 -33c22 -11 32 -25 32 -45c0 -29 -22 -50 -46 -50c-12 0 -22 4 -33 7c-40 14 -71 20 -110 20c-77 0 -120 -38 -120 -115v-19h162c27 0 49 -19 49 -49c0 -29 -22 -49 -49 -49h-162v-335c0 -31 -24 -50 -57 -50
s-56 19 -56 50v335h-72c-26 0 -48 20 -48 49c0 30 22 49 48 49h72zM133 477v18c0 148 97 213 238 213c56 0 113 -13 151 -33c22 -11 32 -25 32 -45c0 -29 -21 -50 -46 -50c-12 0 -22 4 -33 7c-40 14 -71 20 -109 20c-78 0 -121 -38 -121 -115v-15h163c26 0 48 -19 48 -49
c0 -29 -22 -49 -48 -49h-163v-335c0 -31 -23 -50 -56 -50s-56 19 -56 50v335h-72c-27 0 -49 20 -49 49c0 30 22 49 49 49h72z" />
    <glyph glyph-name="f_f_f" unicode="fff" horiz-adv-x="1504" 
d="M1112 477v25c0 148 97 213 238 213c56 0 113 -13 151 -33c22 -11 32 -25 32 -45c0 -29 -21 -50 -46 -50c-12 0 -22 4 -33 7c-40 14 -71 20 -109 20c-78 0 -121 -38 -121 -115v-22h163c26 0 48 -19 48 -49c0 -29 -22 -49 -48 -49h-163v-335c0 -31 -23 -50 -56 -50
s-56 19 -56 50v335h-72c-27 0 -49 20 -49 49c0 30 22 49 49 49h72zM622 477v21c0 148 98 213 239 213c55 0 112 -13 151 -33c22 -11 32 -25 32 -45c0 -29 -22 -50 -46 -50c-12 0 -22 4 -33 7c-40 14 -71 20 -110 20c-77 0 -120 -38 -120 -115v-18h162c27 0 49 -19 49 -49
c0 -29 -22 -49 -49 -49h-162v-335c0 -31 -24 -50 -57 -50s-56 19 -56 50v335h-72c-26 0 -48 20 -48 49c0 30 22 49 48 49h72zM133 477v17c0 148 97 213 238 213c56 0 113 -13 151 -33c22 -11 32 -23 32 -44c0 -29 -21 -51 -46 -51c-12 0 -22 4 -33 7c-40 14 -71 20 -109 20
c-78 0 -121 -38 -121 -115v-14h163c26 0 48 -19 48 -49c0 -29 -22 -49 -48 -49h-163v-335c0 -31 -23 -50 -56 -50s-56 19 -56 50v335h-72c-27 0 -49 20 -49 49c0 30 22 49 49 49h72z" />
    <glyph glyph-name="f_f_i" unicode="ffi" horiz-adv-x="1277" 
d="M1128 574c-42 0 -76 33 -76 75c0 41 34 75 76 75s76 -34 76 -75c0 -42 -34 -75 -76 -75zM622 477v21c0 148 98 213 239 213c55 0 91 -8 124 -23c26 -12 34 -25 34 -47c0 -28 -21 -50 -46 -50c-12 0 -22 4 -36 8c-22 6 -43 11 -82 11c-77 0 -120 -38 -120 -115v-18h162
c27 0 49 -19 49 -49c0 -29 -22 -49 -49 -49h-162v-335c0 -31 -24 -50 -57 -50s-56 19 -56 50v335h-72c-26 0 -48 20 -48 49c0 30 22 49 48 49h72zM133 477v17c0 148 97 213 238 213c56 0 113 -13 151 -33c22 -11 32 -25 32 -45c0 -29 -21 -50 -46 -50c-12 0 -22 4 -33 7
c-40 14 -71 20 -109 20c-78 0 -121 -38 -121 -115v-14h163c26 0 48 -19 48 -49c0 -29 -22 -49 -48 -49h-163v-335c0 -31 -23 -50 -56 -50s-56 19 -56 50v335h-72c-27 0 -49 20 -49 49c0 30 22 49 49 49h72zM1185 44c0 -30 -24 -50 -57 -50s-56 20 -56 50v388
c0 31 23 50 56 50s57 -19 57 -50v-388z" />
    <glyph glyph-name="f_f_l" unicode="ffl" horiz-adv-x="1278" 
d="M622 477v21c0 148 98 213 239 213c55 0 104 -11 140 -28c23 -11 33 -25 33 -46c0 -29 -22 -50 -47 -50c-12 0 -22 4 -33 7c-34 10 -60 16 -99 16c-77 0 -120 -38 -120 -115v-18h162c27 0 49 -19 49 -49c0 -29 -22 -49 -49 -49h-162v-335c0 -31 -24 -50 -57 -50
s-56 19 -56 50v335h-72c-26 0 -48 20 -48 49c0 30 22 49 48 49h72zM133 477v19c0 148 97 213 238 213c56 0 99 -10 135 -28c25 -12 33 -25 33 -47c0 -28 -21 -49 -45 -49c-12 0 -22 4 -35 8c-29 10 -55 15 -93 15c-78 0 -121 -38 -121 -115v-16h163c26 0 48 -19 48 -49
c0 -29 -22 -49 -48 -49h-163v-335c0 -31 -23 -50 -56 -50s-56 19 -56 50v335h-72c-27 0 -49 20 -49 49c0 30 22 49 49 49h72zM1185 44c0 -31 -24 -51 -57 -51s-56 20 -56 51v600c0 30 23 50 56 50s57 -20 57 -50v-600z" />
    <glyph glyph-name=".notdef" horiz-adv-x="724" 
d="M150 0c-41 0 -58 22 -58 54v548c0 32 17 56 58 56h425c41 0 57 -22 57 -53v-549c0 -31 -16 -56 -57 -56h-425zM526 93v472h-328v-472h328z" />
    <glyph glyph-name="NULL" horiz-adv-x="600" 
 />
    <glyph glyph-name="CR" unicode="&#xd;" horiz-adv-x="285" 
 />
    <glyph glyph-name="space" unicode=" " horiz-adv-x="285" 
 />
    <glyph glyph-name="uni00A0" unicode="&#xa0;" horiz-adv-x="231" 
 />
    <glyph glyph-name="A" unicode="A" horiz-adv-x="714" 
d="M513 161h-313l-52 -127c-11 -27 -28 -41 -54 -41c-32 0 -54 21 -56 50c-1 13 3 25 9 39l210 505c22 56 52 77 97 77h7c46 0 75 -21 98 -77l210 -509c5 -13 8 -24 8 -32c0 -31 -25 -53 -58 -53c-24 0 -44 15 -55 42zM238 261h236l-115 293h-3z" />
    <glyph glyph-name="B" unicode="B" horiz-adv-x="680" 
d="M147 0c-32 0 -50 18 -50 48v563c0 29 18 47 50 47h213c160 0 241 -79 241 -187c0 -66 -42 -123 -96 -145c76 -24 114 -85 114 -146c0 -103 -82 -180 -233 -180h-239zM207 364h160c73 0 120 32 120 95s-48 98 -135 98h-125c-14 0 -20 -6 -20 -23v-170zM376 102
c89 0 128 31 128 89c0 47 -37 84 -110 84h-187v-150c0 -18 6 -23 20 -23h149z" />
    <glyph glyph-name="C" unicode="C" horiz-adv-x="714" 
d="M398 669c93 0 171 -36 202 -58c19 -13 34 -27 34 -50c0 -25 -17 -52 -49 -52c-14 0 -27 6 -44 14c-35 18 -82 39 -146 39c-125 0 -220 -97 -220 -231c0 -138 97 -234 236 -234c100 0 163 53 199 84c10 7 21 16 38 16c31 0 50 -26 50 -52c0 -19 -9 -33 -23 -47
c-54 -53 -152 -109 -269 -109c-214 0 -351 156 -351 339c0 197 150 341 343 341z" />
    <glyph glyph-name="D" unicode="D" horiz-adv-x="718" 
d="M147 0c-32 0 -50 18 -50 48v563c0 29 18 47 50 47h144c233 0 372 -137 372 -328c0 -193 -139 -330 -372 -330h-144zM207 125c0 -18 6 -23 20 -23h80c134 0 236 83 236 228c0 142 -101 227 -235 227h-81c-14 0 -20 -6 -20 -23v-409z" />
    <glyph glyph-name="E" unicode="E" horiz-adv-x="635" 
d="M207 125c0 -18 6 -23 20 -23h306c32 0 53 -19 53 -51s-21 -51 -53 -51h-382c-33 0 -54 18 -54 51v556c0 32 21 51 54 51h377c33 0 53 -19 53 -51c0 -31 -20 -50 -53 -50h-301c-14 0 -20 -6 -20 -23v-154h228c32 0 52 -19 52 -50s-20 -49 -52 -49h-228v-156z" />
    <glyph glyph-name="F" unicode="F" horiz-adv-x="592" 
d="M227 557c-14 0 -20 -6 -20 -23v-176h238c33 0 53 -20 53 -51s-20 -51 -53 -51h-238v-214c0 -30 -23 -49 -55 -49s-55 19 -55 49v569c0 29 18 47 50 47h381c33 0 53 -19 53 -51c0 -31 -20 -50 -52 -50h-302z" />
    <glyph glyph-name="G" unicode="G" horiz-adv-x="776" 
d="M405 669c91 0 172 -38 205 -62c19 -14 33 -27 33 -47c0 -27 -17 -54 -48 -54c-16 0 -29 6 -45 14c-34 18 -75 42 -148 42c-119 0 -227 -88 -227 -231c0 -146 107 -235 238 -235c77 0 154 28 196 68v103h-169c-26 0 -46 20 -46 49s20 49 46 49h210c45 0 62 -24 62 -64
v-150c0 -33 -19 -56 -44 -75c-69 -49 -152 -87 -263 -87c-198 0 -350 143 -350 339c0 199 152 341 350 341z" />
    <glyph glyph-name="H" unicode="H" horiz-adv-x="748" 
d="M542 277h-335v-235c0 -29 -23 -49 -55 -49s-55 20 -55 49v574c0 29 23 49 55 49s55 -20 55 -49v-237h335v237c0 29 23 49 55 49s55 -20 55 -49v-574c0 -29 -23 -49 -55 -49s-55 20 -55 49v235z" />
    <glyph glyph-name="I" unicode="I" horiz-adv-x="303" 
d="M97 616c0 29 23 49 55 49s55 -20 55 -49v-574c0 -29 -23 -49 -55 -49s-55 20 -55 49v574z" />
    <glyph glyph-name="J" unicode="J" horiz-adv-x="595" 
d="M160 557c-32 0 -52 19 -52 50c0 32 20 51 52 51h294c33 0 51 -18 51 -47v-420c0 -119 -72 -202 -218 -202c-92 0 -171 37 -217 75c-16 12 -25 26 -25 44c0 35 26 55 50 55c14 0 26 -5 41 -15c40 -29 89 -51 154 -51c66 0 105 35 105 105v332c0 17 -6 23 -21 23h-214z" />
    <glyph glyph-name="K" unicode="K" horiz-adv-x="706" 
d="M97 616c0 29 23 49 55 49s55 -20 55 -49v-295l345 320c17 16 32 24 47 24c32 0 56 -30 56 -56c0 -19 -11 -32 -24 -43l-207 -188l223 -293c30 -39 1 -92 -49 -92c-23 0 -36 13 -51 33l-208 276l-132 -121v-139c0 -29 -23 -49 -55 -49s-55 20 -55 49v574z" />
    <glyph glyph-name="L" unicode="L" horiz-adv-x="595" 
d="M97 616c0 29 23 48 55 48s55 -19 55 -48v-491c0 -18 6 -23 20 -23h292c33 0 53 -19 53 -51s-20 -51 -53 -51h-368c-33 0 -54 18 -54 51v565z" />
    <glyph glyph-name="M" unicode="M" horiz-adv-x="832" 
d="M625 488h-2l-144 -211c-20 -30 -36 -42 -63 -42c-26 0 -41 12 -62 42l-144 211h-3v-446c0 -30 -23 -49 -55 -49s-55 19 -55 49v558c0 39 28 64 65 64h8c38 0 62 -23 82 -53l167 -244h1l166 245c20 29 39 52 77 52h8c36 0 64 -25 64 -64v-558c0 -30 -23 -49 -55 -49
s-55 19 -55 49v446z" />
    <glyph glyph-name="N" unicode="N" horiz-adv-x="774" 
d="M677 52c0 -35 -31 -59 -66 -59h-4c-34 0 -56 15 -81 50l-319 447v-448c0 -29 -23 -49 -55 -49s-55 20 -55 49v556c0 40 27 66 61 66h6c34 0 52 -12 84 -55l319 -434v441c0 29 23 49 55 49s55 -20 55 -49v-564z" />
    <glyph glyph-name="O" unicode="O" horiz-adv-x="811" 
d="M405 -11c-198 0 -350 143 -350 341c0 197 152 339 350 339s351 -142 351 -339c0 -198 -153 -341 -351 -341zM405 97c123 0 231 88 231 232s-108 232 -231 232c-122 0 -230 -88 -230 -232s108 -232 230 -232z" />
    <glyph glyph-name="P" unicode="P" horiz-adv-x="650" 
d="M352 658c161 0 259 -105 259 -229s-99 -228 -261 -228h-143v-159c0 -30 -23 -49 -55 -49s-55 19 -55 49v569c0 29 18 47 50 47h205zM207 299h137c102 0 149 57 149 130c0 68 -46 128 -147 128h-119c-14 0 -20 -6 -20 -23v-235z" />
    <glyph glyph-name="Q" unicode="Q" horiz-adv-x="830" 
d="M405 -11c-198 0 -350 143 -350 341c0 197 152 339 350 339s351 -142 351 -339c0 -86 -29 -161 -77 -218l72 -70c12 -10 20 -24 20 -39c0 -27 -24 -53 -56 -53c-17 0 -32 8 -44 21l-73 71c-55 -34 -121 -53 -193 -53zM405 97c38 0 76 9 108 27l-101 98
c-12 11 -20 25 -20 39c0 27 24 53 56 53c17 0 32 -9 44 -21l102 -99c26 35 42 81 42 135c0 144 -108 232 -231 232c-122 0 -230 -88 -230 -232s108 -232 230 -232z" />
    <glyph glyph-name="R" unicode="R" horiz-adv-x="680" 
d="M614 450c0 -81 -50 -179 -169 -206l159 -159c13 -12 19 -24 19 -39c0 -26 -24 -53 -56 -53c-18 0 -30 8 -42 21l-206 215h-112v-187c0 -30 -23 -49 -55 -49s-55 19 -55 49v569c0 29 18 47 50 47h206c184 0 261 -100 261 -208zM207 328h138c110 0 149 52 149 115
c0 62 -39 114 -149 114h-118c-14 0 -20 -6 -20 -23v-206z" />
    <glyph glyph-name="S" unicode="S" horiz-adv-x="663" 
d="M346 669c89 0 173 -32 208 -53c18 -11 36 -25 36 -48c0 -27 -17 -54 -48 -54c-16 0 -26 4 -41 12c-42 20 -99 39 -160 39c-96 0 -149 -44 -149 -94c0 -67 65 -84 183 -107c121 -24 231 -50 231 -184c0 -105 -99 -192 -263 -192c-106 0 -205 33 -257 67
c-20 14 -25 32 -25 45c0 29 22 57 51 57c14 0 28 -6 42 -13c56 -28 124 -49 195 -49c91 0 140 33 140 83c0 55 -53 69 -174 93c-122 24 -240 51 -240 198c0 102 93 200 271 200z" />
    <glyph glyph-name="T" unicode="T" horiz-adv-x="648" 
d="M270 557h-202c-32 0 -53 19 -53 50c0 32 21 51 54 51h511c33 0 53 -19 53 -51c0 -31 -20 -50 -53 -50h-200v-515c0 -29 -23 -49 -55 -49s-55 20 -55 49v515z" />
    <glyph glyph-name="U" unicode="U" horiz-adv-x="750" 
d="M201 281c0 -113 66 -187 174 -187c107 0 174 73 174 187v335c0 29 23 49 55 49s55 -20 55 -49v-341c0 -166 -106 -288 -284 -288c-179 0 -284 122 -284 288v341c0 29 23 49 55 49s55 -20 55 -49v-335z" />
    <glyph glyph-name="V" unicode="V" horiz-adv-x="719" 
d="M463 70c-23 -57 -55 -77 -105 -77c-47 0 -78 20 -101 77l-211 510c-5 13 -8 24 -8 32c0 32 26 53 59 53c24 0 44 -14 55 -42l206 -520h2l210 521c10 27 28 41 54 41c32 0 55 -21 56 -50c1 -13 -3 -25 -9 -39z" />
    <glyph glyph-name="W" unicode="W" horiz-adv-x="954" 
d="M65 591c-1 7 -2 16 -2 22c1 31 24 52 59 52c34 0 52 -18 58 -51l99 -489h2l114 473c10 46 41 67 82 67c47 0 73 -21 84 -67l118 -473h2l93 489c6 33 23 51 58 51c34 0 59 -21 59 -53c0 -5 0 -14 -2 -21l-119 -523c-11 -47 -46 -75 -89 -75c-42 0 -80 28 -91 75l-112 447
h-1l-111 -447c-11 -47 -50 -75 -92 -75s-80 28 -90 75z" />
    <glyph glyph-name="X" unicode="X" horiz-adv-x="697" 
d="M425 332l214 -247c32 -38 5 -92 -47 -92c-24 0 -36 13 -53 32l-190 226l-191 -226c-18 -20 -29 -32 -55 -32c-49 0 -76 54 -44 91l216 247l-207 241c-33 38 -4 92 46 92c23 0 37 -12 55 -33l182 -219l183 219c18 20 30 33 55 33c50 0 79 -54 45 -92z" />
    <glyph glyph-name="Y" unicode="Y" horiz-adv-x="687" 
d="M398 264v-222c0 -30 -25 -49 -55 -49c-31 0 -55 19 -55 49v221l-246 312c-30 38 -2 90 47 90c22 0 37 -12 53 -33l202 -258l201 257c17 21 29 34 54 34c49 0 76 -54 45 -92z" />
    <glyph glyph-name="Z" unicode="Z" horiz-adv-x="641" 
d="M108 0c-37 0 -62 28 -62 61c0 23 9 42 30 65l370 427h-340c-29 0 -51 18 -51 53c0 32 22 52 51 52h425c40 0 63 -25 63 -60c0 -26 -13 -48 -31 -67l-374 -425h358c29 0 51 -18 51 -53c0 -32 -22 -53 -51 -53h-439z" />
    <glyph glyph-name="Aacute" unicode="&#xc1;" horiz-adv-x="714" 
d="M320 720c-21 -14 -48 -11 -60 5c-10 14 -10 37 12 55l132 112c12 10 25 16 38 16c29 0 51 -22 51 -49c0 -15 -9 -29 -27 -41zM513 161h-313l-52 -127c-11 -27 -28 -41 -54 -41c-32 0 -54 21 -56 50c-1 13 3 25 9 39l210 505c22 56 52 77 97 77h7c46 0 75 -21 98 -77
l210 -509c5 -13 8 -24 8 -32c0 -31 -25 -53 -58 -53c-24 0 -44 15 -55 42zM238 261h236l-115 293h-3z" />
    <glyph glyph-name="Abreve" unicode="&#x102;" horiz-adv-x="714" 
d="M358 729c-113 0 -177 83 -177 142c0 24 19 37 43 37c19 0 31 -12 35 -23c19 -51 51 -73 99 -73c47 0 79 22 98 73c5 11 17 23 36 23c23 0 43 -13 43 -37c0 -59 -65 -142 -177 -142zM513 161h-313l-52 -127c-11 -27 -28 -41 -54 -41c-32 0 -54 21 -56 50c-1 13 3 25 9 39
l210 505c22 56 52 77 97 77h7c46 0 75 -21 98 -77l210 -509c5 -13 8 -24 8 -32c0 -31 -25 -53 -58 -53c-24 0 -44 15 -55 42zM238 261h236l-115 293h-3z" />
    <glyph glyph-name="Acircumflex" unicode="&#xc2;" horiz-adv-x="714" 
d="M358 908c26 0 39 -12 52 -28c30 -33 66 -72 103 -107c31 -29 7 -62 -23 -62c-17 0 -28 9 -41 21l-91 78l-92 -78c-12 -11 -23 -21 -40 -21c-28 0 -53 33 -23 62c37 35 74 74 104 107c14 16 25 28 51 28zM513 161h-313l-52 -127c-11 -27 -28 -41 -54 -41
c-32 0 -54 21 -56 50c-1 13 3 25 9 39l210 505c22 56 52 77 97 77h7c46 0 75 -21 98 -77l210 -509c5 -13 8 -24 8 -32c0 -31 -25 -53 -58 -53c-24 0 -44 15 -55 42zM238 261h236l-115 293h-3z" />
    <glyph glyph-name="Adieresis" unicode="&#xc4;" horiz-adv-x="714" 
d="M261 733c-33 0 -60 27 -60 60c0 34 27 62 60 62c34 0 62 -28 62 -62c0 -33 -28 -60 -62 -60zM454 733c-33 0 -60 27 -60 60c0 34 27 62 60 62c35 0 62 -28 62 -62c0 -33 -27 -60 -62 -60zM513 161h-313l-52 -127c-11 -27 -28 -41 -54 -41c-32 0 -54 21 -56 50
c-1 13 3 25 9 39l210 505c22 56 52 77 97 77h7c46 0 75 -21 98 -77l210 -509c5 -13 8 -24 8 -32c0 -31 -25 -53 -58 -53c-24 0 -44 15 -55 42zM238 261h236l-115 293h-3z" />
    <glyph glyph-name="Agrave" unicode="&#xc0;" horiz-adv-x="714" 
d="M443 780c22 -18 22 -41 12 -55c-12 -16 -38 -19 -59 -5l-147 98c-18 12 -26 26 -26 41c-1 27 21 49 50 49c13 0 26 -6 38 -16zM513 161h-313l-52 -127c-11 -27 -28 -41 -54 -41c-32 0 -54 21 -56 50c-1 13 3 25 9 39l210 505c22 56 52 77 97 77h7c46 0 75 -21 98 -77
l210 -509c5 -13 8 -24 8 -32c0 -31 -25 -53 -58 -53c-24 0 -44 15 -55 42zM238 261h236l-115 293h-3z" />
    <glyph glyph-name="Amacron" unicode="&#x100;" horiz-adv-x="714" 
d="M237 747c-29 0 -50 18 -50 46c0 27 21 46 50 46h243c29 0 50 -19 50 -46c0 -28 -21 -46 -50 -46h-243zM513 161h-313l-52 -127c-11 -27 -28 -41 -54 -41c-32 0 -54 21 -56 50c-1 13 3 25 9 39l210 505c22 56 52 77 97 77h7c46 0 75 -21 98 -77l210 -509
c5 -13 8 -24 8 -32c0 -31 -25 -53 -58 -53c-24 0 -44 15 -55 42zM238 261h236l-115 293h-3z" />
    <glyph glyph-name="Aogonek" unicode="&#x104;" horiz-adv-x="715" 
d="M362 663c46 0 76 -20 98 -76l210 -510c5 -14 8 -25 8 -33c0 -33 -18 -46 -41 -51c-72 -15 -135 -38 -135 -79c0 -25 27 -39 59 -39c21 0 43 8 59 19c5 4 12 9 22 9c20 0 36 -17 36 -34c0 -10 -4 -20 -12 -30c-11 -15 -49 -44 -120 -44c-84 0 -151 44 -151 111
c0 58 37 115 161 149l-43 106h-313l-52 -127c-10 -27 -28 -42 -54 -42c-32 0 -54 22 -56 51c-1 12 3 25 9 39l209 505c22 56 53 76 99 76h7zM359 553h-2l-118 -292h236z" />
    <glyph glyph-name="Aring" unicode="&#xc5;" horiz-adv-x="714" 
d="M469 815c0 -58 -50 -103 -111 -103c-60 0 -109 45 -109 103s50 102 110 102c61 0 110 -44 110 -102zM359 765c28 0 49 21 49 50c0 28 -21 50 -49 50c-29 0 -50 -22 -50 -50c0 -29 21 -50 50 -50zM513 161h-313l-52 -127c-11 -27 -28 -41 -54 -41c-32 0 -54 21 -56 50
c-1 13 3 25 9 39l210 505c22 56 52 77 97 77h7c46 0 75 -21 98 -77l210 -509c5 -13 8 -24 8 -32c0 -31 -25 -53 -58 -53c-24 0 -44 15 -55 42zM238 261h236l-115 293h-3z" />
    <glyph glyph-name="Atilde" unicode="&#xc3;" horiz-adv-x="714" 
d="M417 810c18 0 24 15 30 29c7 16 18 23 36 23c19 0 38 -12 38 -41c0 -45 -33 -91 -89 -91c-58 0 -99 50 -135 50c-18 0 -24 -14 -30 -28c-7 -16 -18 -24 -36 -24c-19 0 -38 12 -38 41c0 45 33 92 89 92c59 0 99 -51 135 -51zM513 161h-313l-52 -127
c-11 -27 -28 -41 -54 -41c-32 0 -54 21 -56 50c-1 13 3 25 9 39l210 505c22 56 52 77 97 77h7c46 0 75 -21 98 -77l210 -509c5 -13 8 -24 8 -32c0 -31 -25 -53 -58 -53c-24 0 -44 15 -55 42zM238 261h236l-115 293h-3z" />
    <glyph glyph-name="AE" unicode="&#xc6;" horiz-adv-x="1087" 
d="M979 658c33 0 54 -19 54 -51c0 -31 -21 -50 -53 -50h-304c-13 0 -18 -5 -18 -20v-157h229c32 0 52 -19 52 -50s-20 -49 -52 -49h-229v-156c0 -18 6 -23 21 -23h305c33 0 53 -19 53 -51s-20 -51 -53 -51h-382c-33 0 -54 18 -54 51v115h-304l-112 -146
c-9 -12 -24 -27 -48 -27c-32 0 -56 23 -56 56c0 15 8 30 19 45l383 487c42 56 69 77 141 77h408zM548 556h-3l-225 -291h228v291z" />
    <glyph glyph-name="Cacute" unicode="&#x106;" horiz-adv-x="714" 
d="M345 720c-21 -14 -48 -11 -60 5c-10 14 -10 37 12 55l132 112c12 10 25 16 38 16c29 0 51 -22 51 -49c0 -15 -9 -29 -27 -41zM398 669c93 0 171 -36 202 -58c19 -13 34 -27 34 -50c0 -25 -17 -52 -49 -52c-14 0 -27 6 -44 14c-35 18 -82 39 -146 39
c-125 0 -220 -97 -220 -231c0 -138 97 -234 236 -234c100 0 163 53 199 84c10 7 21 16 38 16c31 0 50 -26 50 -52c0 -19 -9 -33 -23 -47c-54 -53 -152 -109 -269 -109c-214 0 -351 156 -351 339c0 197 150 341 343 341z" />
    <glyph glyph-name="Ccaron" unicode="&#x10c;" horiz-adv-x="714" 
d="M474 893c13 12 24 21 41 21c30 0 54 -33 23 -62c-37 -35 -73 -74 -103 -107c-13 -16 -26 -28 -52 -28s-37 12 -51 28c-30 33 -67 72 -104 107c-30 29 -5 62 23 62c17 0 28 -10 40 -21l92 -77zM398 669c93 0 171 -36 202 -58c19 -13 34 -27 34 -50c0 -25 -17 -52 -49 -52
c-14 0 -27 6 -44 14c-35 18 -82 39 -146 39c-125 0 -220 -97 -220 -231c0 -138 97 -234 236 -234c100 0 163 53 199 84c10 7 21 16 38 16c31 0 50 -26 50 -52c0 -19 -9 -33 -23 -47c-54 -53 -152 -109 -269 -109c-214 0 -351 156 -351 339c0 197 150 341 343 341z" />
    <glyph glyph-name="Ccedilla" unicode="&#xc7;" horiz-adv-x="715" 
d="M648 198c30 0 51 -26 51 -54c0 -17 -11 -34 -31 -53c-55 -50 -158 -101 -255 -101c-6 0 -11 0 -20 1l-10 -39c79 -3 108 -43 108 -81c0 -69 -68 -115 -151 -115c-32 0 -67 6 -86 16c-14 8 -18 18 -18 30c0 18 14 32 31 32c20 0 44 -11 81 -11s65 15 65 40
c0 22 -28 33 -75 33c-5 0 -9 -1 -14 -1c-27 0 -32 25 -23 45l26 58c-168 32 -272 170 -272 330c0 197 145 341 337 341c94 0 169 -40 203 -63c24 -14 32 -30 32 -47c0 -30 -21 -53 -48 -53c-10 0 -22 4 -45 15c-44 23 -88 42 -145 41c-124 0 -214 -96 -214 -230
c0 -138 97 -234 236 -234c83 0 147 38 197 81c16 13 27 19 40 19z" />
    <glyph glyph-name="Cdotaccent" unicode="&#x10a;" horiz-adv-x="714" 
d="M383 735c-42 0 -76 33 -76 75c0 41 34 75 76 75s76 -34 76 -75c0 -42 -34 -75 -76 -75zM398 669c93 0 171 -36 202 -58c19 -13 34 -27 34 -50c0 -25 -17 -52 -49 -52c-14 0 -27 6 -44 14c-35 18 -82 39 -146 39c-125 0 -220 -97 -220 -231c0 -138 97 -234 236 -234
c100 0 163 53 199 84c10 7 21 16 38 16c31 0 50 -26 50 -52c0 -19 -9 -33 -23 -47c-54 -53 -152 -109 -269 -109c-214 0 -351 156 -351 339c0 197 150 341 343 341z" />
    <glyph glyph-name="Eth" unicode="&#xd0;" horiz-adv-x="776" 
d="M205 0c-32 0 -50 18 -50 48v238h-76c-26 0 -48 20 -48 50c0 29 22 49 48 49h76v226c0 29 18 47 50 47h144c233 0 372 -137 372 -328c0 -193 -139 -330 -372 -330h-144zM265 385h99c26 0 48 -20 48 -49c0 -30 -22 -50 -48 -50h-99v-161c0 -18 6 -23 20 -23h80
c134 0 236 83 236 227c0 143 -101 228 -235 228h-81c-14 0 -20 -6 -20 -23v-149z" />
    <glyph glyph-name="Dcaron" unicode="&#x10e;" horiz-adv-x="718" 
d="M418 893c13 12 24 21 41 21c30 0 54 -33 23 -62c-37 -35 -73 -74 -103 -107c-13 -16 -26 -28 -52 -28s-37 12 -51 28c-30 33 -67 72 -104 107c-30 29 -5 62 23 62c17 0 28 -10 40 -21l92 -77zM147 0c-32 0 -50 18 -50 48v563c0 29 18 47 50 47h144
c233 0 372 -137 372 -328c0 -193 -139 -330 -372 -330h-144zM207 125c0 -18 6 -23 20 -23h80c134 0 236 83 236 228c0 142 -101 227 -235 227h-81c-14 0 -20 -6 -20 -23v-409z" />
    <glyph glyph-name="Dcroat" unicode="&#x110;" horiz-adv-x="779" 
d="M209 0c-33 0 -51 18 -51 48v238h-75c-27 0 -49 20 -49 50c0 29 22 49 49 49h75v226c0 29 18 47 51 47h144c233 0 371 -137 371 -328c0 -193 -138 -330 -371 -330h-144zM268 385h99c27 0 49 -20 49 -49c0 -30 -22 -50 -49 -50h-99v-161c0 -18 6 -23 21 -23h80
c134 0 236 83 236 227c0 143 -102 228 -236 228h-80c-15 0 -21 -6 -21 -23v-149z" />
    <glyph glyph-name="Eacute" unicode="&#xc9;" horiz-adv-x="635" 
d="M300 720c-21 -14 -48 -11 -60 5c-10 14 -10 37 12 55l132 112c12 10 25 16 38 16c29 0 51 -22 51 -49c0 -15 -9 -29 -27 -41zM207 125c0 -18 6 -23 20 -23h306c32 0 53 -19 53 -51s-21 -51 -53 -51h-382c-33 0 -54 18 -54 51v556c0 32 21 51 54 51h377
c33 0 53 -19 53 -51c0 -31 -20 -50 -53 -50h-301c-14 0 -20 -6 -20 -23v-154h228c32 0 52 -19 52 -50s-20 -49 -52 -49h-228v-156z" />
    <glyph glyph-name="Ecaron" unicode="&#x11a;" horiz-adv-x="635" 
d="M429 893c13 12 24 21 41 21c30 0 54 -33 23 -62c-37 -35 -73 -74 -103 -107c-13 -16 -26 -28 -52 -28s-37 12 -51 28c-30 33 -67 72 -104 107c-30 29 -5 62 23 62c17 0 28 -10 40 -21l92 -77zM207 125c0 -18 6 -23 20 -23h306c32 0 53 -19 53 -51s-21 -51 -53 -51h-382
c-33 0 -54 18 -54 51v556c0 32 21 51 54 51h377c33 0 53 -19 53 -51c0 -31 -20 -50 -53 -50h-301c-14 0 -20 -6 -20 -23v-154h228c32 0 52 -19 52 -50s-20 -49 -52 -49h-228v-156z" />
    <glyph glyph-name="Ecircumflex" unicode="&#xca;" horiz-adv-x="635" 
d="M338 908c26 0 39 -12 52 -28c30 -33 66 -72 103 -107c31 -29 7 -62 -23 -62c-17 0 -28 9 -41 21l-91 78l-92 -78c-12 -11 -23 -21 -40 -21c-28 0 -53 33 -23 62c37 35 74 74 104 107c14 16 25 28 51 28zM207 125c0 -18 6 -23 20 -23h306c32 0 53 -19 53 -51
s-21 -51 -53 -51h-382c-33 0 -54 18 -54 51v556c0 32 21 51 54 51h377c33 0 53 -19 53 -51c0 -31 -20 -50 -53 -50h-301c-14 0 -20 -6 -20 -23v-154h228c32 0 52 -19 52 -50s-20 -49 -52 -49h-228v-156z" />
    <glyph glyph-name="Edieresis" unicode="&#xcb;" horiz-adv-x="635" 
d="M241 733c-33 0 -60 27 -60 60c0 34 27 62 60 62c34 0 62 -28 62 -62c0 -33 -28 -60 -62 -60zM434 733c-33 0 -60 27 -60 60c0 34 27 62 60 62c35 0 62 -28 62 -62c0 -33 -27 -60 -62 -60zM207 125c0 -18 6 -23 20 -23h306c32 0 53 -19 53 -51s-21 -51 -53 -51h-382
c-33 0 -54 18 -54 51v556c0 32 21 51 54 51h377c33 0 53 -19 53 -51c0 -31 -20 -50 -53 -50h-301c-14 0 -20 -6 -20 -23v-154h228c32 0 52 -19 52 -50s-20 -49 -52 -49h-228v-156z" />
    <glyph glyph-name="Edotaccent" unicode="&#x116;" horiz-adv-x="635" 
d="M338 735c-42 0 -76 33 -76 75c0 41 34 75 76 75s76 -34 76 -75c0 -42 -34 -75 -76 -75zM207 125c0 -18 6 -23 20 -23h306c32 0 53 -19 53 -51s-21 -51 -53 -51h-382c-33 0 -54 18 -54 51v556c0 32 21 51 54 51h377c33 0 53 -19 53 -51c0 -31 -20 -50 -53 -50h-301
c-14 0 -20 -6 -20 -23v-154h228c32 0 52 -19 52 -50s-20 -49 -52 -49h-228v-156z" />
    <glyph glyph-name="Egrave" unicode="&#xc8;" horiz-adv-x="635" 
d="M423 780c22 -18 22 -41 12 -55c-12 -16 -38 -19 -59 -5l-147 98c-18 12 -26 26 -26 41c-1 27 21 49 50 49c13 0 26 -6 38 -16zM207 125c0 -18 6 -23 20 -23h306c32 0 53 -19 53 -51s-21 -51 -53 -51h-382c-33 0 -54 18 -54 51v556c0 32 21 51 54 51h377
c33 0 53 -19 53 -51c0 -31 -20 -50 -53 -50h-301c-14 0 -20 -6 -20 -23v-154h228c32 0 52 -19 52 -50s-20 -49 -52 -49h-228v-156z" />
    <glyph glyph-name="Emacron" unicode="&#x112;" horiz-adv-x="635" 
d="M217 747c-29 0 -50 18 -50 46c0 27 21 46 50 46h243c29 0 50 -19 50 -46c0 -28 -21 -46 -50 -46h-243zM207 125c0 -18 6 -23 20 -23h306c32 0 53 -19 53 -51s-21 -51 -53 -51h-382c-33 0 -54 18 -54 51v556c0 32 21 51 54 51h377c33 0 53 -19 53 -51
c0 -31 -20 -50 -53 -50h-301c-14 0 -20 -6 -20 -23v-154h228c32 0 52 -19 52 -50s-20 -49 -52 -49h-228v-156z" />
    <glyph glyph-name="Eogonek" unicode="&#x118;" horiz-adv-x="654" 
d="M206 125c0 -18 6 -23 21 -23h307c32 0 52 -20 52 -52c0 -22 -10 -35 -24 -44c-68 -41 -134 -52 -134 -93c0 -25 27 -39 58 -39c24 0 44 10 60 20c6 5 14 9 22 9c20 0 36 -17 36 -37c0 -9 -5 -19 -14 -29c-16 -17 -52 -43 -121 -43c-83 0 -145 43 -145 104
c0 34 23 73 75 102h-249c-33 0 -54 18 -54 51v556c0 32 21 51 54 51h377c33 0 54 -19 54 -51c0 -31 -21 -50 -53 -50h-301c-15 0 -21 -6 -21 -23v-154h229c32 0 52 -19 52 -50s-20 -49 -52 -49h-229v-156z" />
    <glyph glyph-name="Gbreve" unicode="&#x11e;" horiz-adv-x="776" 
d="M388 729c-113 0 -177 83 -177 142c0 24 19 37 43 37c19 0 31 -12 35 -23c19 -51 51 -73 99 -73c47 0 79 22 98 73c5 11 17 23 36 23c23 0 43 -13 43 -37c0 -59 -65 -142 -177 -142zM405 669c91 0 172 -38 205 -62c19 -14 33 -27 33 -47c0 -27 -17 -54 -48 -54
c-16 0 -29 6 -45 14c-34 18 -75 42 -148 42c-119 0 -227 -88 -227 -231c0 -146 107 -235 238 -235c77 0 154 28 196 68v103h-169c-26 0 -46 20 -46 49s20 49 46 49h210c45 0 62 -24 62 -64v-150c0 -33 -19 -56 -44 -75c-69 -49 -152 -87 -263 -87c-198 0 -350 143 -350 339
c0 199 152 341 350 341z" />
    <glyph glyph-name="uni0122" unicode="&#x122;" horiz-adv-x="776" 
d="M405 669c91 0 172 -38 205 -62c19 -14 33 -27 33 -47c0 -27 -17 -54 -48 -54c-16 0 -29 6 -45 14c-34 18 -75 42 -148 42c-119 0 -227 -88 -227 -231c0 -146 107 -235 238 -235c77 0 154 28 196 68v103h-169c-26 0 -46 20 -46 49s20 49 46 49h210c45 0 62 -24 62 -64
v-150c0 -33 -19 -56 -44 -75c-69 -49 -152 -87 -263 -87c-198 0 -350 143 -350 339c0 199 152 341 350 341zM380 -221c-31 -5 -74 16 -74 63c0 42 33 70 74 70c42 0 80 -31 80 -90c0 -55 -34 -129 -90 -161c-13 -8 -26 -11 -37 -11c-20 0 -31 13 -31 26c-1 10 5 21 18 27
c33 15 53 39 60 76z" />
    <glyph glyph-name="Gdotaccent" unicode="&#x120;" horiz-adv-x="776" 
d="M388 735c-42 0 -76 33 -76 75c0 41 34 75 76 75s76 -34 76 -75c0 -42 -34 -75 -76 -75zM405 669c91 0 172 -38 205 -62c19 -14 33 -27 33 -47c0 -27 -17 -54 -48 -54c-16 0 -29 6 -45 14c-34 18 -75 42 -148 42c-119 0 -227 -88 -227 -231c0 -146 107 -235 238 -235
c77 0 154 28 196 68v103h-169c-26 0 -46 20 -46 49s20 49 46 49h210c45 0 62 -24 62 -64v-150c0 -33 -19 -56 -44 -75c-69 -49 -152 -87 -263 -87c-198 0 -350 143 -350 339c0 199 152 341 350 341z" />
    <glyph glyph-name="Hbar" unicode="&#x126;" horiz-adv-x="833" 
d="M584 277h-335v-236c0 -29 -23 -49 -55 -49s-55 20 -55 49v422h-55c-29 0 -50 18 -50 45c0 28 21 46 50 46h55v62c0 29 23 49 55 49s55 -20 55 -49v-62h335v62c0 29 23 49 55 49s55 -20 55 -49v-62h55c29 0 50 -18 50 -46c0 -27 -21 -45 -50 -45h-55v-422
c0 -29 -23 -49 -55 -49s-55 20 -55 49v236zM584 379v84h-335v-84h335z" />
    <glyph glyph-name="IJ" unicode="&#x132;" horiz-adv-x="898" 
d="M97 616c0 29 23 49 55 49s55 -20 55 -49v-574c0 -29 -23 -49 -55 -49s-55 20 -55 49v574zM463 557c-32 0 -52 19 -52 50c0 32 20 51 52 51h294c33 0 51 -18 51 -47v-420c0 -119 -72 -202 -218 -202c-92 0 -171 37 -217 75c-16 12 -25 26 -25 44c0 35 26 55 50 55
c14 0 26 -5 41 -15c40 -29 89 -51 154 -51c66 0 105 35 105 105v332c0 17 -6 23 -21 23h-214z" />
    <glyph glyph-name="Iacute" unicode="&#xcd;" horiz-adv-x="303" 
d="M114 720c-21 -14 -48 -11 -60 5c-10 14 -10 37 12 55l132 112c12 10 25 16 38 16c29 0 51 -22 51 -49c0 -15 -9 -29 -27 -41zM97 616c0 29 23 49 55 49s55 -20 55 -49v-574c0 -29 -23 -49 -55 -49s-55 20 -55 49v574z" />
    <glyph glyph-name="Icircumflex" unicode="&#xce;" horiz-adv-x="303" 
d="M152 908c26 0 39 -12 52 -28c30 -33 66 -72 103 -107c31 -29 7 -62 -23 -62c-17 0 -28 9 -41 21l-91 78l-92 -78c-12 -11 -23 -21 -40 -21c-28 0 -53 33 -23 62c37 35 74 74 104 107c14 16 25 28 51 28zM97 616c0 29 23 49 55 49s55 -20 55 -49v-574
c0 -29 -23 -49 -55 -49s-55 20 -55 49v574z" />
    <glyph glyph-name="Idieresis" unicode="&#xcf;" horiz-adv-x="303" 
d="M55 733c-33 0 -60 27 -60 60c0 34 27 62 60 62c34 0 62 -28 62 -62c0 -33 -28 -60 -62 -60zM248 733c-33 0 -60 27 -60 60c0 34 27 62 60 62c35 0 62 -28 62 -62c0 -33 -27 -60 -62 -60zM97 616c0 29 23 49 55 49s55 -20 55 -49v-574c0 -29 -23 -49 -55 -49
s-55 20 -55 49v574z" />
    <glyph glyph-name="Idotaccent" unicode="&#x130;" horiz-adv-x="303" 
d="M152 735c-42 0 -76 33 -76 75c0 41 34 75 76 75s76 -34 76 -75c0 -42 -34 -75 -76 -75zM97 616c0 29 23 49 55 49s55 -20 55 -49v-574c0 -29 -23 -49 -55 -49s-55 20 -55 49v574z" />
    <glyph glyph-name="Igrave" unicode="&#xcc;" horiz-adv-x="303" 
d="M237 780c22 -18 22 -41 12 -55c-12 -16 -38 -19 -59 -5l-147 98c-18 12 -26 26 -26 41c-1 27 21 49 50 49c13 0 26 -6 38 -16zM97 616c0 29 23 49 55 49s55 -20 55 -49v-574c0 -29 -23 -49 -55 -49s-55 20 -55 49v574z" />
    <glyph glyph-name="Imacron" unicode="&#x12a;" horiz-adv-x="303" 
d="M31 747c-29 0 -50 18 -50 46c0 27 21 46 50 46h243c29 0 50 -19 50 -46c0 -28 -21 -46 -50 -46h-243zM97 616c0 29 23 49 55 49s55 -20 55 -49v-574c0 -29 -23 -49 -55 -49s-55 20 -55 49v574z" />
    <glyph glyph-name="Iogonek" unicode="&#x12e;" horiz-adv-x="311" 
d="M179 -3c-35 -23 -87 -53 -87 -83c0 -26 24 -40 58 -40c22 0 45 8 60 19c6 4 12 10 21 10c20 0 36 -18 36 -35c0 -10 -4 -20 -11 -29c-11 -14 -46 -44 -118 -44c-76 0 -147 38 -147 108c0 46 30 90 110 140v573c0 29 23 49 55 49s55 -20 55 -49v-576
c0 -25 -15 -32 -32 -43z" />
    <glyph glyph-name="uni0136" unicode="&#x136;" horiz-adv-x="706" 
d="M97 616c0 29 23 49 55 49s55 -20 55 -49v-295l345 320c17 16 32 24 47 24c32 0 56 -30 56 -56c0 -19 -11 -32 -24 -43l-207 -188l223 -293c30 -39 1 -92 -49 -92c-23 0 -36 13 -51 33l-208 276l-132 -121v-139c0 -29 -23 -49 -55 -49s-55 20 -55 49v574zM374 -192
c-29 -4 -69 15 -69 59c0 40 31 66 69 66c40 0 75 -29 75 -84c0 -52 -32 -121 -84 -151c-12 -7 -24 -10 -35 -10c-18 0 -29 12 -29 24c0 9 5 20 17 25c31 14 50 37 56 71z" />
    <glyph glyph-name="Lacute" unicode="&#x139;" horiz-adv-x="595" 
d="M114 720c-21 -14 -48 -11 -60 5c-10 14 -10 37 12 55l132 112c12 10 25 16 38 16c29 0 51 -22 51 -49c0 -15 -9 -29 -27 -41zM97 616c0 29 23 48 55 48s55 -19 55 -48v-491c0 -18 6 -23 20 -23h292c33 0 53 -19 53 -51s-20 -51 -53 -51h-368c-33 0 -54 18 -54 51v565z
" />
    <glyph glyph-name="Lcaron" unicode="&#x13d;" horiz-adv-x="595" 
d="M271 504c0 29 4 95 1 138c-2 30 16 52 50 52c33 0 49 -18 49 -44s-17 -109 -28 -145c-6 -19 -17 -34 -38 -34s-34 14 -34 33zM97 616c0 29 23 48 55 48s55 -19 55 -48v-491c0 -18 6 -23 20 -23h292c33 0 53 -19 53 -51s-20 -51 -53 -51h-368c-33 0 -54 18 -54 51v565z
" />
    <glyph glyph-name="uni013B" unicode="&#x13b;" horiz-adv-x="595" 
d="M97 616c0 29 23 48 55 48s55 -19 55 -48v-491c0 -18 6 -23 20 -23h292c33 0 53 -19 53 -51s-20 -51 -53 -51h-368c-33 0 -54 18 -54 51v565zM333 -193c-29 -4 -69 15 -69 59c0 39 31 65 69 65c39 0 74 -29 74 -84c0 -51 -31 -120 -83 -149c-13 -8 -25 -11 -35 -11
c-18 0 -29 12 -29 24c-1 10 5 20 17 26c31 14 49 36 56 70z" />
    <glyph glyph-name="Ldot" unicode="&#x13f;" horiz-adv-x="595" 
d="M152 735c-42 0 -76 33 -76 75c0 41 34 75 76 75s76 -34 76 -75c0 -42 -34 -75 -76 -75zM97 616c0 29 23 48 55 48s55 -19 55 -48v-491c0 -18 6 -23 20 -23h292c33 0 53 -19 53 -51s-20 -51 -53 -51h-368c-33 0 -54 18 -54 51v565z" />
    <glyph glyph-name="Lslash" unicode="&#x141;" horiz-adv-x="652" 
d="M208 664c32 0 55 -19 55 -48v-221l79 36c24 11 52 2 64 -25s0 -54 -25 -65l-118 -50v-166c0 -18 6 -23 21 -23h292c32 0 53 -19 53 -51s-21 -51 -53 -51h-369c-33 0 -54 18 -54 51v190l-51 -23c-25 -10 -53 -1 -65 26s1 53 25 64l91 38v270c0 29 23 48 55 48z" />
    <glyph glyph-name="Nacute" unicode="&#x143;" horiz-adv-x="774" 
d="M349 720c-21 -14 -48 -11 -60 5c-10 14 -10 37 12 55l132 112c12 10 25 16 38 16c29 0 51 -22 51 -49c0 -15 -9 -29 -27 -41zM677 52c0 -35 -31 -59 -66 -59h-4c-34 0 -56 15 -81 50l-319 447v-448c0 -29 -23 -49 -55 -49s-55 20 -55 49v556c0 40 27 66 61 66h6
c34 0 52 -12 84 -55l319 -434v441c0 29 23 49 55 49s55 -20 55 -49v-564z" />
    <glyph glyph-name="Ncaron" unicode="&#x147;" horiz-adv-x="774" 
d="M478 893c13 12 24 21 41 21c30 0 54 -33 23 -62c-37 -35 -73 -74 -103 -107c-13 -16 -26 -28 -52 -28s-37 12 -51 28c-30 33 -67 72 -104 107c-30 29 -5 62 23 62c17 0 28 -10 40 -21l92 -77zM677 52c0 -35 -31 -59 -66 -59h-4c-34 0 -56 15 -81 50l-319 447v-448
c0 -29 -23 -49 -55 -49s-55 20 -55 49v556c0 40 27 66 61 66h6c34 0 52 -12 84 -55l319 -434v441c0 29 23 49 55 49s55 -20 55 -49v-564z" />
    <glyph glyph-name="uni0145" unicode="&#x145;" horiz-adv-x="774" 
d="M677 52c0 -35 -31 -59 -66 -59h-4c-34 0 -56 15 -81 50l-319 447v-448c0 -29 -23 -49 -55 -49s-55 20 -55 49v556c0 40 27 66 61 66h6c34 0 52 -12 84 -55l319 -434v441c0 29 23 49 55 49s55 -20 55 -49v-564zM386 -221c-31 -5 -74 16 -74 63c0 42 33 70 74 70
c42 0 80 -31 80 -90c0 -55 -34 -129 -90 -161c-13 -8 -26 -11 -37 -11c-20 0 -31 13 -31 26c-1 10 5 21 18 27c33 15 53 39 60 76z" />
    <glyph glyph-name="Eng" unicode="&#x14a;" horiz-adv-x="774" 
d="M207 490v-448c0 -29 -23 -49 -55 -49s-55 20 -55 49v556c0 40 27 66 61 66h6c34 0 52 -12 84 -55l319 -433v440c0 29 23 49 55 49s55 -20 55 -49v-622c0 -119 -72 -202 -222 -202c-89 0 -171 33 -208 57c-19 12 -28 29 -28 47c0 34 26 54 51 54c14 0 26 -4 43 -12
c35 -18 84 -38 141 -38c74 0 113 37 113 97v7c-15 7 -28 21 -41 40z" />
    <glyph glyph-name="Ntilde" unicode="&#xd1;" horiz-adv-x="774" 
d="M446 810c18 0 24 15 30 29c7 16 18 23 36 23c19 0 38 -12 38 -41c0 -45 -33 -91 -89 -91c-58 0 -99 50 -135 50c-18 0 -24 -14 -30 -28c-7 -16 -18 -24 -36 -24c-19 0 -38 12 -38 41c0 45 33 92 89 92c59 0 99 -51 135 -51zM677 52c0 -35 -31 -59 -66 -59h-4
c-34 0 -56 15 -81 50l-319 447v-448c0 -29 -23 -49 -55 -49s-55 20 -55 49v556c0 40 27 66 61 66h6c34 0 52 -12 84 -55l319 -434v441c0 29 23 49 55 49s55 -20 55 -49v-564z" />
    <glyph glyph-name="Oacute" unicode="&#xd3;" horiz-adv-x="811" 
d="M367 720c-21 -14 -48 -11 -60 5c-10 14 -10 37 12 55l132 112c12 10 25 16 38 16c29 0 51 -22 51 -49c0 -15 -9 -29 -27 -41zM405 -11c-198 0 -350 143 -350 341c0 197 152 339 350 339s351 -142 351 -339c0 -198 -153 -341 -351 -341zM405 97c123 0 231 88 231 232
s-108 232 -231 232c-122 0 -230 -88 -230 -232s108 -232 230 -232z" />
    <glyph glyph-name="Ocircumflex" unicode="&#xd4;" horiz-adv-x="811" 
d="M405 908c26 0 39 -12 52 -28c30 -33 66 -72 103 -107c31 -29 7 -62 -23 -62c-17 0 -28 9 -41 21l-91 78l-92 -78c-12 -11 -23 -21 -40 -21c-28 0 -53 33 -23 62c37 35 74 74 104 107c14 16 25 28 51 28zM405 -11c-198 0 -350 143 -350 341c0 197 152 339 350 339
s351 -142 351 -339c0 -198 -153 -341 -351 -341zM405 97c123 0 231 88 231 232s-108 232 -231 232c-122 0 -230 -88 -230 -232s108 -232 230 -232z" />
    <glyph glyph-name="Odieresis" unicode="&#xd6;" horiz-adv-x="811" 
d="M308 733c-33 0 -60 27 -60 60c0 34 27 62 60 62c34 0 62 -28 62 -62c0 -33 -28 -60 -62 -60zM501 733c-33 0 -60 27 -60 60c0 34 27 62 60 62c35 0 62 -28 62 -62c0 -33 -27 -60 -62 -60zM405 -11c-198 0 -350 143 -350 341c0 197 152 339 350 339s351 -142 351 -339
c0 -198 -153 -341 -351 -341zM405 97c123 0 231 88 231 232s-108 232 -231 232c-122 0 -230 -88 -230 -232s108 -232 230 -232z" />
    <glyph glyph-name="Ograve" unicode="&#xd2;" horiz-adv-x="811" 
d="M490 780c22 -18 22 -41 12 -55c-12 -16 -38 -19 -59 -5l-147 98c-18 12 -26 26 -26 41c-1 27 21 49 50 49c13 0 26 -6 38 -16zM405 -11c-198 0 -350 143 -350 341c0 197 152 339 350 339s351 -142 351 -339c0 -198 -153 -341 -351 -341zM405 97c123 0 231 88 231 232
s-108 232 -231 232c-122 0 -230 -88 -230 -232s108 -232 230 -232z" />
    <glyph glyph-name="Ohungarumlaut" unicode="&#x150;" horiz-adv-x="811" 
d="M327 722c-22 -20 -50 -16 -62 1c-10 14 -8 32 4 47l100 125c10 12 22 19 36 19c26 0 52 -20 51 -47c0 -15 -9 -29 -24 -44zM517 722c-21 -20 -50 -16 -62 1c-10 14 -7 32 5 47l99 125c10 12 23 19 36 19c27 0 52 -20 52 -47c0 -15 -9 -29 -25 -44zM405 -11
c-198 0 -350 143 -350 341c0 197 152 339 350 339s351 -142 351 -339c0 -198 -153 -341 -351 -341zM405 97c123 0 231 88 231 232s-108 232 -231 232c-122 0 -230 -88 -230 -232s108 -232 230 -232z" />
    <glyph glyph-name="Omacron" unicode="&#x14c;" horiz-adv-x="811" 
d="M284 747c-29 0 -50 18 -50 46c0 27 21 46 50 46h243c29 0 50 -19 50 -46c0 -28 -21 -46 -50 -46h-243zM405 -11c-198 0 -350 143 -350 341c0 197 152 339 350 339s351 -142 351 -339c0 -198 -153 -341 -351 -341zM405 97c123 0 231 88 231 232s-108 232 -231 232
c-122 0 -230 -88 -230 -232s108 -232 230 -232z" />
    <glyph glyph-name="Oslash" unicode="&#xd8;" horiz-adv-x="815" 
d="M407 -10c-77 0 -147 22 -204 60l-63 -67c-9 -9 -20 -14 -30 -14c-24 0 -54 28 -54 54c0 10 4 20 14 30l61 58c-49 58 -77 133 -77 219c0 197 153 338 353 338c79 0 151 -23 209 -62l59 62c9 9 19 13 30 13c25 1 54 -28 54 -53c0 -10 -4 -21 -14 -30l-58 -55
c47 -57 74 -130 74 -213c0 -198 -153 -340 -354 -340zM174 329c0 -55 16 -101 42 -137l323 331c-38 25 -84 38 -132 38c-123 0 -233 -87 -233 -232zM407 97c124 0 234 87 234 232c0 52 -15 96 -40 132l-321 -328c37 -24 81 -36 127 -36z" />
    <glyph glyph-name="Otilde" unicode="&#xd5;" horiz-adv-x="811" 
d="M464 810c18 0 24 15 30 29c7 16 18 23 36 23c19 0 38 -12 38 -41c0 -45 -33 -91 -89 -91c-58 0 -99 50 -135 50c-18 0 -24 -14 -30 -28c-7 -16 -18 -24 -36 -24c-19 0 -38 12 -38 41c0 45 33 92 89 92c59 0 99 -51 135 -51zM405 -11c-198 0 -350 143 -350 341
c0 197 152 339 350 339s351 -142 351 -339c0 -198 -153 -341 -351 -341zM405 97c123 0 231 88 231 232s-108 232 -231 232c-122 0 -230 -88 -230 -232s108 -232 230 -232z" />
    <glyph glyph-name="OE" unicode="&#x152;" horiz-adv-x="1060" 
d="M409 668c30 0 60 -4 87 -10h457c33 0 53 -19 53 -51c0 -31 -20 -50 -53 -50h-298c-14 0 -20 -6 -20 -23v-154h225c32 0 52 -19 52 -50s-20 -49 -52 -49h-225v-156c0 -18 6 -23 20 -23h303c32 0 53 -19 53 -51s-21 -51 -53 -51h-462c-27 -6 -57 -10 -87 -10
c-201 0 -354 142 -354 340c0 197 153 338 354 338zM408 559c-119 1 -230 -84 -230 -230c0 -144 108 -230 231 -230c52 0 88 12 116 28v404c-32 18 -72 28 -117 28z" />
    <glyph glyph-name="Thorn" unicode="&#xde;" horiz-adv-x="653" 
d="M152 665c32 0 55 -20 55 -49v-61h139c178 0 265 -98 265 -221c0 -130 -102 -223 -255 -223h-149v-69c0 -29 -23 -49 -55 -49s-55 20 -55 49v574c0 29 23 49 55 49zM345 455h-138v-245h131c106 0 154 49 154 123c0 76 -55 122 -147 122z" />
    <glyph glyph-name="Racute" unicode="&#x154;" horiz-adv-x="680" 
d="M298 720c-21 -14 -48 -11 -60 5c-10 14 -10 37 12 55l132 112c12 10 25 16 38 16c29 0 51 -22 51 -49c0 -15 -9 -29 -27 -41zM614 450c0 -81 -50 -179 -169 -206l159 -159c13 -12 19 -24 19 -39c0 -26 -24 -53 -56 -53c-18 0 -30 8 -42 21l-206 215h-112v-187
c0 -30 -23 -49 -55 -49s-55 19 -55 49v569c0 29 18 47 50 47h206c184 0 261 -100 261 -208zM207 328h138c110 0 149 52 149 115c0 62 -39 114 -149 114h-118c-14 0 -20 -6 -20 -23v-206z" />
    <glyph glyph-name="Rcaron" unicode="&#x158;" horiz-adv-x="680" 
d="M427 893c13 12 24 21 41 21c30 0 54 -33 23 -62c-37 -35 -73 -74 -103 -107c-13 -16 -26 -28 -52 -28s-37 12 -51 28c-30 33 -67 72 -104 107c-30 29 -5 62 23 62c17 0 28 -10 40 -21l92 -77zM614 450c0 -81 -50 -179 -169 -206l159 -159c13 -12 19 -24 19 -39
c0 -26 -24 -53 -56 -53c-18 0 -30 8 -42 21l-206 215h-112v-187c0 -30 -23 -49 -55 -49s-55 19 -55 49v569c0 29 18 47 50 47h206c184 0 261 -100 261 -208zM207 328h138c110 0 149 52 149 115c0 62 -39 114 -149 114h-118c-14 0 -20 -6 -20 -23v-206z" />
    <glyph glyph-name="uni0156" unicode="&#x156;" horiz-adv-x="680" 
d="M614 450c0 -81 -50 -179 -169 -206l159 -159c13 -12 19 -24 19 -39c0 -26 -24 -53 -56 -53c-18 0 -30 8 -42 21l-206 215h-112v-187c0 -30 -23 -49 -55 -49s-55 19 -55 49v569c0 29 18 47 50 47h206c184 0 261 -100 261 -208zM207 328h138c110 0 149 52 149 115
c0 62 -39 114 -149 114h-118c-14 0 -20 -6 -20 -23v-206zM342 -221c-31 -5 -74 16 -74 63c0 42 33 70 74 70c42 0 80 -31 80 -90c0 -55 -34 -129 -90 -161c-13 -8 -26 -11 -37 -11c-20 0 -31 13 -31 26c-1 10 5 21 18 27c33 15 53 39 60 76z" />
    <glyph glyph-name="Sacute" unicode="&#x15a;" horiz-adv-x="663" 
d="M304 720c-21 -14 -48 -11 -60 5c-10 14 -10 37 12 55l132 112c12 10 25 16 38 16c29 0 51 -22 51 -49c0 -15 -9 -29 -27 -41zM346 669c89 0 173 -32 208 -53c18 -11 36 -25 36 -48c0 -27 -17 -54 -48 -54c-16 0 -26 4 -41 12c-42 20 -99 39 -160 39
c-96 0 -149 -44 -149 -94c0 -67 65 -84 183 -107c121 -24 231 -50 231 -184c0 -105 -99 -192 -263 -192c-106 0 -205 33 -257 67c-20 14 -25 32 -25 45c0 29 22 57 51 57c14 0 28 -6 42 -13c56 -28 124 -49 195 -49c91 0 140 33 140 83c0 55 -53 69 -174 93
c-122 24 -240 51 -240 198c0 102 93 200 271 200z" />
    <glyph glyph-name="Scaron" unicode="&#x160;" horiz-adv-x="663" 
d="M433 893c13 12 24 21 41 21c30 0 54 -33 23 -62c-37 -35 -73 -74 -103 -107c-13 -16 -26 -28 -52 -28s-37 12 -51 28c-30 33 -67 72 -104 107c-30 29 -5 62 23 62c17 0 28 -10 40 -21l92 -77zM346 669c89 0 173 -32 208 -53c18 -11 36 -25 36 -48c0 -27 -17 -54 -48 -54
c-16 0 -26 4 -41 12c-42 20 -99 39 -160 39c-96 0 -149 -44 -149 -94c0 -67 65 -84 183 -107c121 -24 231 -50 231 -184c0 -105 -99 -192 -263 -192c-106 0 -205 33 -257 67c-20 14 -25 32 -25 45c0 29 22 57 51 57c14 0 28 -6 42 -13c56 -28 124 -49 195 -49
c91 0 140 33 140 83c0 55 -53 69 -174 93c-122 24 -240 51 -240 198c0 102 93 200 271 200z" />
    <glyph glyph-name="uni015E" unicode="&#x15e;" horiz-adv-x="663" 
d="M606 180c0 -101 -91 -183 -242 -190l-11 -38c83 -7 108 -43 108 -81c0 -69 -67 -115 -151 -115c-32 0 -61 4 -82 14c-16 7 -22 20 -22 32c0 17 14 32 31 32c21 0 42 -11 81 -11c38 0 65 16 65 40c0 22 -27 33 -74 33h-15c-27 0 -31 24 -22 44l22 52
c-87 8 -165 34 -208 64c-20 14 -25 32 -25 44c0 30 22 57 51 57c14 0 28 -6 42 -12c56 -28 124 -49 195 -49c91 0 140 32 140 82c0 55 -53 69 -174 93c-122 24 -240 51 -240 198c0 102 93 198 271 198c89 0 173 -31 208 -52c18 -10 36 -24 36 -48c0 -26 -17 -54 -48 -54
c-16 0 -26 5 -41 12c-42 20 -99 38 -160 38c-96 0 -149 -42 -149 -92c0 -67 65 -84 183 -107c121 -24 231 -50 231 -184z" />
    <glyph glyph-name="uni0218" unicode="&#x218;" horiz-adv-x="663" 
d="M346 669c89 0 173 -32 208 -53c18 -11 36 -25 36 -48c0 -27 -17 -54 -48 -54c-16 0 -26 4 -41 12c-42 20 -99 39 -160 39c-96 0 -149 -44 -149 -94c0 -67 65 -84 183 -107c121 -24 231 -50 231 -184c0 -105 -99 -192 -263 -192c-106 0 -205 33 -257 67
c-20 14 -25 32 -25 45c0 29 22 57 51 57c14 0 28 -6 42 -13c56 -28 124 -49 195 -49c91 0 140 33 140 83c0 55 -53 69 -174 93c-122 24 -240 51 -240 198c0 102 93 200 271 200zM330 -221c-31 -5 -74 16 -74 63c0 42 33 70 74 70c42 0 80 -31 80 -90
c0 -55 -34 -129 -90 -161c-13 -8 -26 -11 -37 -11c-20 0 -31 13 -31 26c-1 10 5 21 18 27c33 15 53 39 60 76z" />
    <glyph glyph-name="uni1E9E" unicode="&#x1e9e;" horiz-adv-x="699" 
d="M203 42c0 -29 -23 -49 -55 -49s-55 20 -55 49v414c0 116 84 213 272 213c170 0 253 -85 253 -184c0 -71 -35 -121 -88 -143c84 -25 122 -95 122 -156c0 -106 -75 -196 -225 -196c-52 0 -105 8 -145 28c-17 8 -28 23 -28 42c0 28 18 51 47 51c10 0 18 -3 28 -6
c25 -8 54 -16 95 -16c80 0 112 48 112 103c0 51 -36 95 -113 95l-68 -1c-29 0 -46 15 -46 43c0 29 19 42 46 44c106 4 149 30 149 97c0 61 -51 97 -143 97c-105 0 -158 -51 -158 -127v-398z" />
    <glyph glyph-name="Tbar" unicode="&#x166;" horiz-adv-x="648" 
d="M380 251v-209c0 -29 -23 -49 -55 -49s-55 20 -55 49v209h-67c-29 0 -50 18 -50 46c0 27 21 46 50 46h67v214h-202c-32 0 -53 19 -53 50c0 32 21 51 54 51h511c33 0 53 -19 53 -51c0 -31 -20 -50 -53 -50h-200v-214h66c29 0 50 -19 50 -46c0 -28 -21 -46 -50 -46h-66z" />
    <glyph glyph-name="Tcaron" unicode="&#x164;" horiz-adv-x="648" 
d="M416 893c13 12 24 21 41 21c30 0 54 -33 23 -62c-37 -35 -73 -74 -103 -107c-13 -16 -26 -28 -52 -28s-37 12 -51 28c-30 33 -67 72 -104 107c-30 29 -5 62 23 62c17 0 28 -10 40 -21l92 -77zM270 557h-202c-32 0 -53 19 -53 50c0 32 21 51 54 51h511c33 0 53 -19 53 -51
c0 -31 -20 -50 -53 -50h-200v-515c0 -29 -23 -49 -55 -49s-55 20 -55 49v515z" />
    <glyph glyph-name="uni0162" unicode="&#x162;" horiz-adv-x="648" 
d="M270 557h-202c-32 0 -53 19 -53 50c0 32 21 51 54 51h511c33 0 53 -19 53 -51c0 -31 -20 -50 -53 -50h-200v-515c0 -17 -8 -30 -21 -38l-13 -42c76 -2 112 -40 112 -84c0 -66 -62 -112 -149 -112c-32 0 -68 5 -88 16c-14 7 -18 21 -18 30c0 17 14 32 31 32
c20 0 41 -11 81 -11c38 0 65 16 65 40c0 22 -28 33 -67 33c-9 0 -15 -1 -21 -1c-23 0 -32 21 -24 42l23 56c-13 8 -21 22 -21 39v515z" />
    <glyph glyph-name="uni021A" unicode="&#x21a;" horiz-adv-x="648" 
d="M270 557h-202c-32 0 -53 19 -53 50c0 32 21 51 54 51h511c33 0 53 -19 53 -51c0 -31 -20 -50 -53 -50h-200v-515c0 -29 -23 -49 -55 -49s-55 20 -55 49v515zM324 -221c-31 -5 -74 16 -74 63c0 42 33 70 74 70c42 0 80 -31 80 -90c0 -55 -34 -129 -90 -161
c-13 -8 -26 -11 -37 -11c-20 0 -31 13 -31 26c-1 10 5 21 18 27c33 15 53 39 60 76z" />
    <glyph glyph-name="Uacute" unicode="&#xda;" horiz-adv-x="750" 
d="M337 720c-21 -14 -48 -11 -60 5c-10 14 -10 37 12 55l132 112c12 10 25 16 38 16c29 0 51 -22 51 -49c0 -15 -9 -29 -27 -41zM201 281c0 -113 66 -187 174 -187c107 0 174 73 174 187v335c0 29 23 49 55 49s55 -20 55 -49v-341c0 -166 -106 -288 -284 -288
c-179 0 -284 122 -284 288v341c0 29 23 49 55 49s55 -20 55 -49v-335z" />
    <glyph glyph-name="Ucircumflex" unicode="&#xdb;" horiz-adv-x="750" 
d="M375 908c26 0 39 -12 52 -28c30 -33 66 -72 103 -107c31 -29 7 -62 -23 -62c-17 0 -28 9 -41 21l-91 78l-92 -78c-12 -11 -23 -21 -40 -21c-28 0 -53 33 -23 62c37 35 74 74 104 107c14 16 25 28 51 28zM201 281c0 -113 66 -187 174 -187c107 0 174 73 174 187v335
c0 29 23 49 55 49s55 -20 55 -49v-341c0 -166 -106 -288 -284 -288c-179 0 -284 122 -284 288v341c0 29 23 49 55 49s55 -20 55 -49v-335z" />
    <glyph glyph-name="Udieresis" unicode="&#xdc;" horiz-adv-x="750" 
d="M278 733c-33 0 -60 27 -60 60c0 34 27 62 60 62c34 0 62 -28 62 -62c0 -33 -28 -60 -62 -60zM471 733c-33 0 -60 27 -60 60c0 34 27 62 60 62c35 0 62 -28 62 -62c0 -33 -27 -60 -62 -60zM201 281c0 -113 66 -187 174 -187c107 0 174 73 174 187v335c0 29 23 49 55 49
s55 -20 55 -49v-341c0 -166 -106 -288 -284 -288c-179 0 -284 122 -284 288v341c0 29 23 49 55 49s55 -20 55 -49v-335z" />
    <glyph glyph-name="Ugrave" unicode="&#xd9;" horiz-adv-x="750" 
d="M460 780c22 -18 22 -41 12 -55c-12 -16 -38 -19 -59 -5l-147 98c-18 12 -26 26 -26 41c-1 27 21 49 50 49c13 0 26 -6 38 -16zM201 281c0 -113 66 -187 174 -187c107 0 174 73 174 187v335c0 29 23 49 55 49s55 -20 55 -49v-341c0 -166 -106 -288 -284 -288
c-179 0 -284 122 -284 288v341c0 29 23 49 55 49s55 -20 55 -49v-335z" />
    <glyph glyph-name="Uhungarumlaut" unicode="&#x170;" horiz-adv-x="750" 
d="M297 722c-22 -20 -50 -16 -62 1c-10 14 -8 32 4 47l100 125c10 12 22 19 36 19c26 0 52 -20 51 -47c0 -15 -9 -29 -24 -44zM487 722c-21 -20 -50 -16 -62 1c-10 14 -7 32 5 47l99 125c10 12 23 19 36 19c27 0 52 -20 52 -47c0 -15 -9 -29 -25 -44zM201 281
c0 -113 66 -187 174 -187c107 0 174 73 174 187v335c0 29 23 49 55 49s55 -20 55 -49v-341c0 -166 -106 -288 -284 -288c-179 0 -284 122 -284 288v341c0 29 23 49 55 49s55 -20 55 -49v-335z" />
    <glyph glyph-name="Umacron" unicode="&#x16a;" horiz-adv-x="750" 
d="M254 747c-29 0 -50 18 -50 46c0 27 21 46 50 46h243c29 0 50 -19 50 -46c0 -28 -21 -46 -50 -46h-243zM201 281c0 -113 66 -187 174 -187c107 0 174 73 174 187v335c0 29 23 49 55 49s55 -20 55 -49v-341c0 -166 -106 -288 -284 -288c-179 0 -284 122 -284 288v341
c0 29 23 49 55 49s55 -20 55 -49v-335z" />
    <glyph glyph-name="Uogonek" unicode="&#x172;" horiz-adv-x="750" 
d="M659 275c0 -98 -35 -184 -116 -240c-75 -56 -133 -81 -133 -122c0 -25 27 -39 58 -39c24 0 41 9 57 19c8 5 15 10 25 10c20 0 36 -17 36 -37c0 -6 -2 -20 -17 -32c-19 -18 -58 -40 -118 -40c-82 0 -147 43 -147 111c0 31 15 58 42 86c-14 2 -26 5 -38 9
c-138 23 -217 132 -217 275v341c0 29 23 49 55 49s55 -20 55 -49v-335c0 -113 66 -187 174 -187c107 0 174 73 174 187v335c0 29 23 49 55 49s55 -20 55 -49v-341z" />
    <glyph glyph-name="Uring" unicode="&#x16e;" horiz-adv-x="750" 
d="M486 815c0 -58 -50 -103 -111 -103c-60 0 -109 45 -109 103s50 102 110 102c61 0 110 -44 110 -102zM376 765c28 0 49 21 49 50c0 28 -21 50 -49 50c-29 0 -50 -22 -50 -50c0 -29 21 -50 50 -50zM201 281c0 -113 66 -187 174 -187c107 0 174 73 174 187v335
c0 29 23 49 55 49s55 -20 55 -49v-341c0 -166 -106 -288 -284 -288c-179 0 -284 122 -284 288v341c0 29 23 49 55 49s55 -20 55 -49v-335z" />
    <glyph glyph-name="Wacute" unicode="&#x1e82;" horiz-adv-x="954" 
d="M439 720c-21 -14 -48 -11 -60 5c-10 14 -10 37 12 55l132 112c12 10 25 16 38 16c29 0 51 -22 51 -49c0 -15 -9 -29 -27 -41zM65 591c-1 7 -2 16 -2 22c1 31 24 52 59 52c34 0 52 -18 58 -51l99 -489h2l114 473c10 46 41 67 82 67c47 0 73 -21 84 -67l118 -473h2l93 489
c6 33 23 51 58 51c34 0 59 -21 59 -53c0 -5 0 -14 -2 -21l-119 -523c-11 -47 -46 -75 -89 -75c-42 0 -80 28 -91 75l-112 447h-1l-111 -447c-11 -47 -50 -75 -92 -75s-80 28 -90 75z" />
    <glyph glyph-name="Wcircumflex" unicode="&#x174;" horiz-adv-x="954" 
d="M477 908c26 0 39 -12 52 -28c30 -33 66 -72 103 -107c31 -29 7 -62 -23 -62c-17 0 -28 9 -41 21l-91 78l-92 -78c-12 -11 -23 -21 -40 -21c-28 0 -53 33 -23 62c37 35 74 74 104 107c14 16 25 28 51 28zM65 591c-1 7 -2 16 -2 22c1 31 24 52 59 52c34 0 52 -18 58 -51
l99 -489h2l114 473c10 46 41 67 82 67c47 0 73 -21 84 -67l118 -473h2l93 489c6 33 23 51 58 51c34 0 59 -21 59 -53c0 -5 0 -14 -2 -21l-119 -523c-11 -47 -46 -75 -89 -75c-42 0 -80 28 -91 75l-112 447h-1l-111 -447c-11 -47 -50 -75 -92 -75s-80 28 -90 75z" />
    <glyph glyph-name="Wdieresis" unicode="&#x1e84;" horiz-adv-x="954" 
d="M380 733c-33 0 -60 27 -60 60c0 34 27 62 60 62c34 0 62 -28 62 -62c0 -33 -28 -60 -62 -60zM573 733c-33 0 -60 27 -60 60c0 34 27 62 60 62c35 0 62 -28 62 -62c0 -33 -27 -60 -62 -60zM65 591c-1 7 -2 16 -2 22c1 31 24 52 59 52c34 0 52 -18 58 -51l99 -489h2
l114 473c10 46 41 67 82 67c47 0 73 -21 84 -67l118 -473h2l93 489c6 33 23 51 58 51c34 0 59 -21 59 -53c0 -5 0 -14 -2 -21l-119 -523c-11 -47 -46 -75 -89 -75c-42 0 -80 28 -91 75l-112 447h-1l-111 -447c-11 -47 -50 -75 -92 -75s-80 28 -90 75z" />
    <glyph glyph-name="Wgrave" unicode="&#x1e80;" horiz-adv-x="954" 
d="M562 780c22 -18 22 -41 12 -55c-12 -16 -38 -19 -59 -5l-147 98c-18 12 -26 26 -26 41c-1 27 21 49 50 49c13 0 26 -6 38 -16zM65 591c-1 7 -2 16 -2 22c1 31 24 52 59 52c34 0 52 -18 58 -51l99 -489h2l114 473c10 46 41 67 82 67c47 0 73 -21 84 -67l118 -473h2l93 489
c6 33 23 51 58 51c34 0 59 -21 59 -53c0 -5 0 -14 -2 -21l-119 -523c-11 -47 -46 -75 -89 -75c-42 0 -80 28 -91 75l-112 447h-1l-111 -447c-11 -47 -50 -75 -92 -75s-80 28 -90 75z" />
    <glyph glyph-name="Yacute" unicode="&#xdd;" horiz-adv-x="687" 
d="M306 720c-21 -14 -48 -11 -60 5c-10 14 -10 37 12 55l132 112c12 10 25 16 38 16c29 0 51 -22 51 -49c0 -15 -9 -29 -27 -41zM398 264v-222c0 -30 -25 -49 -55 -49c-31 0 -55 19 -55 49v221l-246 312c-30 38 -2 90 47 90c22 0 37 -12 53 -33l202 -258l201 257
c17 21 29 34 54 34c49 0 76 -54 45 -92z" />
    <glyph glyph-name="Ycircumflex" unicode="&#x176;" horiz-adv-x="687" 
d="M344 908c26 0 39 -12 52 -28c30 -33 66 -72 103 -107c31 -29 7 -62 -23 -62c-17 0 -28 9 -41 21l-91 78l-92 -78c-12 -11 -23 -21 -40 -21c-28 0 -53 33 -23 62c37 35 74 74 104 107c14 16 25 28 51 28zM398 264v-222c0 -30 -25 -49 -55 -49c-31 0 -55 19 -55 49v221
l-246 312c-30 38 -2 90 47 90c22 0 37 -12 53 -33l202 -258l201 257c17 21 29 34 54 34c49 0 76 -54 45 -92z" />
    <glyph glyph-name="Ydieresis" unicode="&#x178;" horiz-adv-x="687" 
d="M247 733c-33 0 -60 27 -60 60c0 34 27 62 60 62c34 0 62 -28 62 -62c0 -33 -28 -60 -62 -60zM440 733c-33 0 -60 27 -60 60c0 34 27 62 60 62c35 0 62 -28 62 -62c0 -33 -27 -60 -62 -60zM398 264v-222c0 -30 -25 -49 -55 -49c-31 0 -55 19 -55 49v221l-246 312
c-30 38 -2 90 47 90c22 0 37 -12 53 -33l202 -258l201 257c17 21 29 34 54 34c49 0 76 -54 45 -92z" />
    <glyph glyph-name="Ygrave" unicode="&#x1ef2;" horiz-adv-x="687" 
d="M429 780c22 -18 22 -41 12 -55c-12 -16 -38 -19 -59 -5l-147 98c-18 12 -26 26 -26 41c-1 27 21 49 50 49c13 0 26 -6 38 -16zM398 264v-222c0 -30 -25 -49 -55 -49c-31 0 -55 19 -55 49v221l-246 312c-30 38 -2 90 47 90c22 0 37 -12 53 -33l202 -258l201 257
c17 21 29 34 54 34c49 0 76 -54 45 -92z" />
    <glyph glyph-name="Zacute" unicode="&#x179;" horiz-adv-x="641" 
d="M316 720c-21 -14 -48 -11 -60 5c-10 14 -10 37 12 55l132 112c12 10 25 16 38 16c29 0 51 -22 51 -49c0 -15 -9 -29 -27 -41zM108 0c-37 0 -62 28 -62 61c0 23 9 42 30 65l370 427h-340c-29 0 -51 18 -51 53c0 32 22 52 51 52h425c40 0 63 -25 63 -60
c0 -26 -13 -48 -31 -67l-374 -425h358c29 0 51 -18 51 -53c0 -32 -22 -53 -51 -53h-439z" />
    <glyph glyph-name="Zcaron" unicode="&#x17d;" horiz-adv-x="641" 
d="M445 893c13 12 24 21 41 21c30 0 54 -33 23 -62c-37 -35 -73 -74 -103 -107c-13 -16 -26 -28 -52 -28s-37 12 -51 28c-30 33 -67 72 -104 107c-30 29 -5 62 23 62c17 0 28 -10 40 -21l92 -77zM108 0c-37 0 -62 28 -62 61c0 23 9 42 30 65l370 427h-340
c-29 0 -51 18 -51 53c0 32 22 52 51 52h425c40 0 63 -25 63 -60c0 -26 -13 -48 -31 -67l-374 -425h358c29 0 51 -18 51 -53c0 -32 -22 -53 -51 -53h-439z" />
    <glyph glyph-name="Zdotaccent" unicode="&#x17b;" horiz-adv-x="641" 
d="M354 735c-42 0 -76 33 -76 75c0 41 34 75 76 75s76 -34 76 -75c0 -42 -34 -75 -76 -75zM108 0c-37 0 -62 28 -62 61c0 23 9 42 30 65l370 427h-340c-29 0 -51 18 -51 53c0 32 22 52 51 52h425c40 0 63 -25 63 -60c0 -26 -13 -48 -31 -67l-374 -425h358
c29 0 51 -18 51 -53c0 -32 -22 -53 -51 -53h-439z" />
    <glyph glyph-name="I.alt" horiz-adv-x="523" 
d="M207 533c0 18 -6 24 -20 24h-82c-32 0 -52 20 -52 50c0 31 20 51 52 51h313c32 0 52 -20 52 -51c0 -30 -20 -50 -52 -50h-82c-14 0 -20 -6 -20 -24v-408c0 -17 6 -23 20 -23h82c32 0 53 -20 53 -51s-21 -51 -53 -51h-313c-32 0 -53 20 -53 51s21 51 53 51h82
c14 0 20 6 20 23v408z" />
    <glyph glyph-name="IJ.alt" horiz-adv-x="1118" 
d="M207 533c0 18 -6 24 -20 24h-82c-32 0 -52 20 -52 50c0 31 20 51 52 51h313c32 0 52 -20 52 -51c0 -30 -20 -50 -52 -50h-82c-14 0 -20 -6 -20 -24v-408c0 -17 6 -23 20 -23h82c32 0 53 -20 53 -51s-21 -51 -53 -51h-313c-32 0 -53 20 -53 51s21 51 53 51h82
c14 0 20 6 20 23v408zM683 557c-32 0 -52 19 -52 50c0 32 20 51 52 51h294c33 0 51 -18 51 -47v-420c0 -119 -72 -202 -218 -202c-92 0 -171 37 -217 75c-16 12 -25 26 -25 44c0 35 26 55 50 55c14 0 26 -5 41 -15c40 -29 89 -51 154 -51c66 0 105 35 105 105v332
c0 17 -6 23 -21 23h-214z" />
    <glyph glyph-name="Iacute.alt" horiz-adv-x="523" 
d="M212 719c-21 -14 -48 -11 -60 5c-10 14 -10 37 12 55l132 112c12 10 25 16 38 16c29 0 51 -22 51 -49c0 -15 -9 -29 -27 -41zM207 533c0 18 -6 24 -20 24h-82c-32 0 -52 20 -52 50c0 31 20 51 52 51h313c32 0 52 -20 52 -51c0 -30 -20 -50 -52 -50h-82
c-14 0 -20 -6 -20 -24v-408c0 -17 6 -23 20 -23h82c32 0 53 -20 53 -51s-21 -51 -53 -51h-313c-32 0 -53 20 -53 51s21 51 53 51h82c14 0 20 6 20 23v408z" />
    <glyph glyph-name="Icircumflex.alt" horiz-adv-x="523" 
d="M262 907c26 0 39 -12 52 -28c30 -33 66 -72 103 -107c31 -29 7 -62 -23 -62c-17 0 -28 9 -41 21l-91 78l-92 -78c-12 -11 -23 -21 -40 -21c-28 0 -53 33 -23 62c37 35 74 74 104 107c14 16 25 28 51 28zM207 533c0 18 -6 24 -20 24h-82c-32 0 -52 20 -52 50
c0 31 20 51 52 51h313c32 0 52 -20 52 -51c0 -30 -20 -50 -52 -50h-82c-14 0 -20 -6 -20 -24v-408c0 -17 6 -23 20 -23h82c32 0 53 -20 53 -51s-21 -51 -53 -51h-313c-32 0 -53 20 -53 51s21 51 53 51h82c14 0 20 6 20 23v408z" />
    <glyph glyph-name="Idieresis.alt" horiz-adv-x="523" 
d="M164 732c-33 0 -60 27 -60 60c0 34 27 62 60 62c34 0 62 -28 62 -62c0 -33 -28 -60 -62 -60zM357 732c-33 0 -60 27 -60 60c0 34 27 62 60 62c35 0 62 -28 62 -62c0 -33 -27 -60 -62 -60zM207 533c0 18 -6 24 -20 24h-82c-32 0 -52 20 -52 50c0 31 20 51 52 51h313
c32 0 52 -20 52 -51c0 -30 -20 -50 -52 -50h-82c-14 0 -20 -6 -20 -24v-408c0 -17 6 -23 20 -23h82c32 0 53 -20 53 -51s-21 -51 -53 -51h-313c-32 0 -53 20 -53 51s21 51 53 51h82c14 0 20 6 20 23v408z" />
    <glyph glyph-name="Idotaccent.alt" horiz-adv-x="523" 
d="M262 734c-42 0 -76 33 -76 75c0 41 34 75 76 75s76 -34 76 -75c0 -42 -34 -75 -76 -75zM207 533c0 18 -6 24 -20 24h-82c-32 0 -52 20 -52 50c0 31 20 51 52 51h313c32 0 52 -20 52 -51c0 -30 -20 -50 -52 -50h-82c-14 0 -20 -6 -20 -24v-408c0 -17 6 -23 20 -23h82
c32 0 53 -20 53 -51s-21 -51 -53 -51h-313c-32 0 -53 20 -53 51s21 51 53 51h82c14 0 20 6 20 23v408z" />
    <glyph glyph-name="Igrave.alt" horiz-adv-x="523" 
d="M360 779c22 -18 22 -41 12 -55c-12 -16 -38 -19 -59 -5l-147 98c-18 12 -26 26 -26 41c-1 27 21 49 50 49c13 0 26 -6 38 -16zM207 533c0 18 -6 24 -20 24h-82c-32 0 -52 20 -52 50c0 31 20 51 52 51h313c32 0 52 -20 52 -51c0 -30 -20 -50 -52 -50h-82
c-14 0 -20 -6 -20 -24v-408c0 -17 6 -23 20 -23h82c32 0 53 -20 53 -51s-21 -51 -53 -51h-313c-32 0 -53 20 -53 51s21 51 53 51h82c14 0 20 6 20 23v408z" />
    <glyph glyph-name="Imacron.alt" horiz-adv-x="523" 
d="M141 746c-29 0 -50 18 -50 46c0 27 21 46 50 46h243c29 0 50 -19 50 -46c0 -28 -21 -46 -50 -46h-243zM207 533c0 18 -6 24 -20 24h-82c-32 0 -52 20 -52 50c0 31 20 51 52 51h313c32 0 52 -20 52 -51c0 -30 -20 -50 -52 -50h-82c-14 0 -20 -6 -20 -24v-408
c0 -17 6 -23 20 -23h82c32 0 53 -20 53 -51s-21 -51 -53 -51h-313c-32 0 -53 20 -53 51s21 51 53 51h82c14 0 20 6 20 23v408z" />
    <glyph glyph-name="Iogonek.alt" horiz-adv-x="524" 
d="M230 -85c0 -25 24 -40 59 -40c21 0 43 8 59 19c5 4 12 9 22 9c19 0 36 -17 36 -34c0 -10 -4 -20 -12 -30c-11 -15 -49 -44 -120 -44c-84 0 -148 43 -148 105c0 35 18 67 67 100h-87c-33 0 -53 20 -53 51s20 51 53 51h81c14 0 20 6 20 23v408c0 18 -6 24 -20 24h-82
c-32 0 -52 20 -52 50c0 31 20 51 52 51h314c32 0 52 -20 52 -51c0 -30 -20 -50 -52 -50h-82c-14 0 -20 -6 -20 -24v-408c0 -17 6 -23 20 -23h81c33 0 53 -20 53 -51s-20 -51 -52 -51h-63c-30 0 -68 -14 -92 -32c-27 -21 -34 -40 -34 -53z" />
    <glyph glyph-name="a" unicode="a" horiz-adv-x="624" 
d="M442 88c-63 -70 -129 -102 -212 -102c-100 0 -180 63 -180 158c0 87 71 156 182 156c68 0 134 -20 200 -60v73c0 63 -49 84 -110 84c-53 0 -92 -8 -143 -24c-8 -3 -19 -7 -33 -7c-23 0 -43 19 -43 47c0 19 13 36 34 43c50 20 116 35 188 35c125 0 213 -46 213 -177v-118
c0 -72 17 -108 21 -147c4 -30 -14 -55 -48 -55c-39 0 -55 28 -68 94h-1zM432 166c-51 35 -118 57 -173 57c-66 0 -102 -32 -102 -74c0 -46 45 -74 104 -74c67 0 135 42 171 91z" />
    <glyph glyph-name="b" unicode="b" horiz-adv-x="695" 
d="M205 112v-68c0 -31 -23 -50 -56 -50s-56 19 -56 50v600c0 31 23 50 56 50s57 -19 57 -50c0 -88 0 -189 -5 -277h2c46 69 117 124 215 124c124 0 229 -103 229 -249c0 -151 -108 -256 -228 -256c-97 0 -170 61 -212 126h-2zM201 239c37 -92 118 -152 193 -152
c81 0 140 64 140 152s-60 151 -141 151c-79 0 -154 -60 -192 -151z" />
    <glyph glyph-name="c" unicode="c" horiz-adv-x="571" 
d="M525 61c-52 -45 -123 -75 -215 -75c-151 0 -262 107 -262 253c0 145 107 252 256 252c65 0 127 -23 158 -45c19 -14 32 -26 32 -47c0 -24 -16 -51 -46 -51c-16 0 -29 6 -44 14c-28 17 -61 28 -98 28c-83 0 -145 -58 -145 -147c0 -93 70 -156 159 -156c57 0 100 20 142 52
c10 8 23 15 38 15c27 0 47 -27 47 -51c0 -17 -8 -30 -22 -42z" />
    <glyph glyph-name="d" unicode="d" horiz-adv-x="696" 
d="M506 130c-46 -79 -120 -144 -225 -144c-131 0 -233 110 -233 255c0 146 105 250 228 250c102 0 171 -53 216 -122h2c-5 78 -6 187 -6 275c0 31 23 50 56 50s56 -19 56 -50v-230c0 -191 11 -271 35 -353c11 -38 -18 -67 -57 -67c-25 0 -41 15 -51 41c-8 20 -14 51 -19 95
h-2zM492 239c-36 91 -113 151 -192 151c-80 0 -140 -63 -140 -151s62 -152 143 -152c73 0 153 59 189 152z" />
    <glyph glyph-name="e" unicode="e" horiz-adv-x="600" 
d="M530 290c0 -44 -20 -73 -70 -73h-305c7 -89 89 -134 173 -134c61 0 112 20 156 51c11 8 21 14 35 14c26 0 47 -22 47 -48c0 -14 -7 -28 -24 -41c-50 -42 -133 -73 -214 -73c-168 0 -280 102 -280 256c0 140 111 249 255 249c137 0 227 -87 227 -201zM420 295c5 0 7 3 7 8
c0 52 -48 99 -124 99c-72 0 -126 -41 -143 -107h260z" />
    <glyph glyph-name="f" unicode="f" horiz-adv-x="525" 
d="M133 477v21c0 148 97 213 238 213c56 0 113 -13 151 -33c22 -11 32 -25 32 -45c0 -29 -21 -50 -46 -50c-11 0 -22 4 -33 7c-40 14 -72 20 -109 20c-78 0 -121 -38 -121 -115v-18h163c26 0 48 -19 48 -49c0 -29 -22 -49 -48 -49h-163v-335c0 -30 -23 -50 -56 -50
s-56 20 -56 50v335h-72c-27 0 -49 20 -49 49c0 30 22 49 49 49h72z" />
    <glyph glyph-name="g" unicode="g" horiz-adv-x="642" 
d="M521 -174c-6 51 -50 97 -126 97c-58 0 -112 -21 -163 -43c-22 -10 -47 -25 -75 -31c-14 -3 -27 -3 -37 0c-21 7 -36 27 -36 48c0 25 18 41 40 66c32 34 59 83 64 147c-86 30 -140 98 -140 181c0 116 101 200 248 200c44 0 84 -7 117 -20h170c30 0 50 -18 50 -48
c0 -29 -19 -46 -50 -46h-74c19 -26 29 -55 29 -86c0 -106 -80 -187 -215 -196c-14 -2 -26 -2 -40 -2c-10 -50 -37 -95 -60 -120l3 -4c49 30 118 53 193 53c116 0 202 -78 202 -178c0 -34 -23 -54 -57 -54c-28 0 -41 18 -43 36zM296 185c85 0 141 43 141 107
s-56 107 -141 107s-141 -43 -141 -107s56 -107 141 -107z" />
    <glyph glyph-name="h" unicode="h" horiz-adv-x="682" 
d="M206 360h1c52 76 121 131 208 131c113 0 189 -78 189 -233v-214c0 -31 -23 -50 -56 -50s-56 19 -56 50v206c0 93 -37 139 -107 139s-146 -69 -179 -164v-181c0 -31 -24 -50 -57 -50s-56 19 -56 50v600c0 31 23 50 56 50s57 -19 57 -50v-284z" />
    <glyph glyph-name="i" unicode="i" horiz-adv-x="298" 
d="M149 574c-42 0 -76 33 -76 75c0 41 34 75 76 75s76 -34 76 -75c0 -42 -34 -75 -76 -75zM206 44c0 -30 -24 -50 -57 -50s-56 20 -56 50v389c0 31 23 50 56 50s57 -19 57 -50v-389z" />
    <glyph glyph-name="j" unicode="j" horiz-adv-x="298" 
d="M149 724c42 0 76 -34 76 -75c0 -42 -34 -75 -76 -75s-76 33 -76 75c0 41 34 75 76 75zM150 483c33 0 56 -19 56 -50v-368c0 -99 -24 -173 -65 -226c-19 -25 -39 -47 -67 -47c-41 0 -83 52 -41 99c48 53 61 102 61 204v338c0 31 23 50 56 50z" />
    <glyph glyph-name="k" unicode="k" horiz-adv-x="627" 
d="M206 256l292 218c10 7 17 11 31 11c30 0 53 -28 53 -54c0 -18 -9 -31 -23 -40l-162 -120l176 -187c11 -10 19 -24 19 -38c0 -26 -23 -53 -55 -53c-17 0 -31 9 -43 21l-183 196l-105 -76v-90c0 -31 -24 -50 -57 -50s-56 19 -56 50v600c0 31 23 50 56 50s57 -19 57 -50
v-388z" />
    <glyph glyph-name="l" unicode="l" horiz-adv-x="299" 
d="M206 44c0 -31 -24 -51 -57 -51s-56 20 -56 51v600c0 30 23 50 56 50s57 -20 57 -50v-600z" />
    <glyph glyph-name="m" unicode="m" horiz-adv-x="898" 
d="M671 491c93 0 150 -72 150 -210v-236c0 -30 -21 -51 -57 -51c-34 0 -56 20 -56 50v228c0 83 -24 119 -68 119c-52 0 -96 -61 -126 -146v-200c0 -30 -21 -51 -56 -51s-56 20 -56 50v228c0 83 -24 119 -68 119c-50 0 -96 -57 -127 -149v-194c0 -30 -23 -54 -56 -54
c-36 0 -56 22 -56 54v58c0 163 -5 234 -30 302c-17 46 14 75 55 75c24 0 39 -13 49 -38c9 -21 16 -51 21 -94h2c43 90 95 140 172 140c71 0 121 -42 140 -127h1c41 81 93 127 166 127z" />
    <glyph glyph-name="n" unicode="n" horiz-adv-x="685" 
d="M208 44c0 -31 -23 -50 -56 -50s-56 19 -56 50v62c0 163 -7 234 -31 301c-18 48 14 76 50 76c26 0 40 -14 51 -37c11 -24 19 -59 26 -108h1c50 94 125 153 218 153c122 0 196 -81 196 -231v-216c0 -31 -23 -50 -56 -50s-56 19 -56 50v209c0 88 -37 136 -108 136
c-75 0 -148 -70 -179 -162v-183z" />
    <glyph glyph-name="o" unicode="o" horiz-adv-x="627" 
d="M313 -14c-155 0 -265 111 -265 252c0 142 110 253 265 253s266 -111 266 -253c0 -141 -111 -252 -266 -252zM313 87c87 0 153 61 153 151s-67 152 -153 152s-152 -62 -152 -152s68 -151 152 -151z" />
    <glyph glyph-name="p" unicode="p" horiz-adv-x="698" 
d="M191 351c49 78 124 140 230 140c125 0 230 -106 230 -251c0 -147 -106 -254 -230 -254c-101 0 -170 54 -215 122h-2c5 -78 6 -172 6 -260c0 -30 -22 -50 -57 -50c-34 0 -56 20 -56 50v218c0 191 -11 269 -35 350c-11 39 19 67 59 67c26 0 42 -15 52 -45
c7 -20 12 -48 16 -87h2zM206 239c35 -92 112 -151 191 -151c80 0 140 64 140 151c0 88 -60 151 -142 151c-78 0 -154 -63 -189 -151z" />
    <glyph glyph-name="q" unicode="q" horiz-adv-x="695" 
d="M602 -152c0 -30 -22 -50 -57 -50c-34 0 -56 20 -56 50c0 88 0 182 5 261h-2c-43 -68 -114 -123 -210 -123c-130 0 -234 107 -234 251c0 148 102 254 230 254c95 0 162 -51 210 -126h2v69c0 30 23 49 56 49s56 -19 56 -49v-586zM492 239c-38 91 -113 151 -192 151
c-81 0 -139 -63 -139 -150c0 -88 60 -153 144 -153c72 0 154 64 187 152z" />
    <glyph glyph-name="r" unicode="r" horiz-adv-x="480" 
d="M191 334c47 94 125 157 206 157c38 0 65 -22 65 -58c0 -26 -18 -55 -60 -55h-9c-78 0 -158 -60 -190 -155v-179c0 -31 -23 -50 -56 -50s-56 19 -56 50v153c0 95 -6 150 -27 216c-15 44 15 70 53 70c25 0 41 -16 51 -42c10 -24 17 -59 21 -107h2z" />
    <glyph glyph-name="s" unicode="s" horiz-adv-x="552" 
d="M517 141c0 -92 -84 -155 -228 -155c-67 0 -155 18 -209 43c-24 11 -37 25 -37 48c0 24 19 49 48 49c14 0 26 -5 37 -9c63 -28 113 -37 174 -37c74 0 105 25 105 57c0 36 -48 47 -154 64c-108 17 -196 42 -196 139c0 86 87 151 224 151c75 0 142 -20 182 -39
c24 -11 34 -27 34 -45c0 -25 -19 -48 -46 -48c-11 0 -23 4 -43 10c-35 13 -84 28 -139 28c-74 0 -102 -29 -102 -53c0 -34 41 -43 153 -61c103 -18 197 -46 197 -142z" />
    <glyph glyph-name="t" unicode="t" horiz-adv-x="574" 
d="M239 379v-179c0 -83 41 -113 89 -113c57 0 102 31 141 83c12 14 23 22 41 22c22 0 46 -18 46 -45c0 -13 -4 -26 -14 -38c-54 -74 -129 -123 -224 -123c-114 0 -191 74 -191 205v188h-71c-27 0 -49 20 -49 49c0 30 22 49 49 49h71v125c0 30 23 50 56 50s56 -20 56 -50
v-125h203c27 0 49 -20 49 -49c0 -30 -22 -50 -49 -50z" />
    <glyph glyph-name="u" unicode="u" horiz-adv-x="683" 
d="M475 434c0 31 23 49 56 49s56 -18 56 -49v-62c0 -163 7 -235 32 -303c17 -46 -15 -75 -54 -75c-24 0 -39 16 -50 42c-10 23 -18 57 -24 104h-1c-50 -94 -125 -154 -218 -154c-122 0 -196 81 -196 232v216c0 31 23 49 56 49s56 -18 56 -49v-209c0 -89 37 -137 108 -137
c75 0 148 70 179 163v183z" />
    <glyph glyph-name="v" unicode="v" horiz-adv-x="583" 
d="M299 106l161 341c11 23 25 37 48 37c31 0 56 -21 56 -49c0 -9 -2 -21 -9 -33l-176 -348c-20 -40 -42 -61 -83 -61s-63 21 -84 61l-184 348c-7 13 -9 23 -9 32c0 29 26 50 58 50c27 0 44 -14 54 -36l166 -342h2z" />
    <glyph glyph-name="w" unicode="w" horiz-adv-x="802" 
d="M566 107l87 331c8 30 24 46 52 46c38 0 66 -29 51 -74l-111 -357c-12 -37 -44 -59 -82 -59c-40 0 -65 21 -76 61l-86 298l-90 -298c-11 -39 -42 -61 -79 -61c-41 0 -66 22 -78 60l-108 352c-16 48 14 78 54 78c28 0 47 -17 54 -47l83 -330h2l92 319c11 39 40 58 74 58
c33 0 60 -19 71 -59l88 -318h2z" />
    <glyph glyph-name="x" unicode="x" horiz-adv-x="582" 
d="M89 484c17 0 31 -9 43 -21l160 -157l165 163c9 9 22 15 34 15c28 0 53 -25 53 -53c0 -12 -7 -24 -16 -33l-160 -156l167 -158c11 -10 19 -24 19 -38c0 -26 -23 -53 -55 -53c-17 0 -31 9 -43 21l-168 163l-172 -168c-10 -10 -22 -16 -34 -16c-28 0 -54 26 -54 54
c0 12 7 23 17 32l168 162l-159 152c-12 11 -20 24 -20 39c0 26 24 52 55 52z" />
    <glyph glyph-name="y" unicode="y" horiz-adv-x="595" 
d="M308 98l162 350c10 24 24 37 48 37c29 0 57 -19 58 -51c0 -11 -3 -22 -8 -34l-263 -560c-15 -32 -30 -43 -55 -43c-32 0 -54 22 -54 50c0 9 2 18 7 28l58 124c-17 8 -32 23 -45 46l-188 356c-5 11 -9 21 -9 33c0 31 30 51 59 51c25 0 41 -13 53 -37z" />
    <glyph glyph-name="z" unicode="z" horiz-adv-x="543" 
d="M464 99c29 0 54 -17 54 -50c0 -32 -25 -49 -54 -49h-376c-28 0 -46 24 -46 49c0 13 5 28 18 40l287 294v2c-84 -4 -168 -6 -242 -6c-26 0 -48 20 -48 49c0 30 22 49 48 49h347c28 0 48 -24 48 -48c0 -14 -5 -28 -17 -41l-287 -293v-2c84 4 188 6 268 6z" />
    <glyph glyph-name="aacute" unicode="&#xe1;" horiz-adv-x="624" 
d="M283 540c-21 -14 -48 -11 -60 5c-10 14 -10 37 12 55l132 112c12 10 25 16 38 16c29 0 51 -22 51 -49c0 -15 -9 -29 -27 -41zM442 88c-63 -70 -129 -102 -212 -102c-100 0 -180 63 -180 158c0 87 71 156 182 156c68 0 134 -20 200 -60v73c0 63 -49 84 -110 84
c-53 0 -92 -8 -143 -24c-8 -3 -19 -7 -33 -7c-23 0 -43 19 -43 47c0 19 13 36 34 43c50 20 116 35 188 35c125 0 213 -46 213 -177v-118c0 -72 17 -108 21 -147c4 -30 -14 -55 -48 -55c-39 0 -55 28 -68 94h-1zM432 166c-51 35 -118 57 -173 57c-66 0 -102 -32 -102 -74
c0 -46 45 -74 104 -74c67 0 135 42 171 91z" />
    <glyph glyph-name="abreve" unicode="&#x103;" horiz-adv-x="624" 
d="M321 549c-113 0 -177 83 -177 142c0 24 19 37 43 37c19 0 31 -12 35 -23c19 -51 51 -73 99 -73c47 0 79 22 98 73c5 11 17 23 36 23c23 0 43 -13 43 -37c0 -59 -65 -142 -177 -142zM442 88c-63 -70 -129 -102 -212 -102c-100 0 -180 63 -180 158c0 87 71 156 182 156
c68 0 134 -20 200 -60v73c0 63 -49 84 -110 84c-53 0 -92 -8 -143 -24c-8 -3 -19 -7 -33 -7c-23 0 -43 19 -43 47c0 19 13 36 34 43c50 20 116 35 188 35c125 0 213 -46 213 -177v-118c0 -72 17 -108 21 -147c4 -30 -14 -55 -48 -55c-39 0 -55 28 -68 94h-1zM432 166
c-51 35 -118 57 -173 57c-66 0 -102 -32 -102 -74c0 -46 45 -74 104 -74c67 0 135 42 171 91z" />
    <glyph glyph-name="acircumflex" unicode="&#xe2;" horiz-adv-x="624" 
d="M321 728c26 0 39 -12 52 -28c30 -33 66 -72 103 -107c31 -29 7 -62 -23 -62c-17 0 -28 9 -41 21l-91 78l-92 -78c-12 -11 -23 -21 -40 -21c-28 0 -53 33 -23 62c37 35 74 74 104 107c14 16 25 28 51 28zM442 88c-63 -70 -129 -102 -212 -102c-100 0 -180 63 -180 158
c0 87 71 156 182 156c68 0 134 -20 200 -60v73c0 63 -49 84 -110 84c-53 0 -92 -8 -143 -24c-8 -3 -19 -7 -33 -7c-23 0 -43 19 -43 47c0 19 13 36 34 43c50 20 116 35 188 35c125 0 213 -46 213 -177v-118c0 -72 17 -108 21 -147c4 -30 -14 -55 -48 -55
c-39 0 -55 28 -68 94h-1zM432 166c-51 35 -118 57 -173 57c-66 0 -102 -32 -102 -74c0 -46 45 -74 104 -74c67 0 135 42 171 91z" />
    <glyph glyph-name="adieresis" unicode="&#xe4;" horiz-adv-x="624" 
d="M224 553c-33 0 -60 27 -60 60c0 34 27 62 60 62c34 0 62 -28 62 -62c0 -33 -28 -60 -62 -60zM417 553c-33 0 -60 27 -60 60c0 34 27 62 60 62c35 0 62 -28 62 -62c0 -33 -27 -60 -62 -60zM442 88c-63 -70 -129 -102 -212 -102c-100 0 -180 63 -180 158
c0 87 71 156 182 156c68 0 134 -20 200 -60v73c0 63 -49 84 -110 84c-53 0 -92 -8 -143 -24c-8 -3 -19 -7 -33 -7c-23 0 -43 19 -43 47c0 19 13 36 34 43c50 20 116 35 188 35c125 0 213 -46 213 -177v-118c0 -72 17 -108 21 -147c4 -30 -14 -55 -48 -55
c-39 0 -55 28 -68 94h-1zM432 166c-51 35 -118 57 -173 57c-66 0 -102 -32 -102 -74c0 -46 45 -74 104 -74c67 0 135 42 171 91z" />
    <glyph glyph-name="agrave" unicode="&#xe0;" horiz-adv-x="624" 
d="M406 600c22 -18 22 -41 12 -55c-12 -16 -38 -19 -59 -5l-147 98c-18 12 -26 26 -26 41c-1 27 21 49 50 49c13 0 26 -6 38 -16zM442 88c-63 -70 -129 -102 -212 -102c-100 0 -180 63 -180 158c0 87 71 156 182 156c68 0 134 -20 200 -60v73c0 63 -49 84 -110 84
c-53 0 -92 -8 -143 -24c-8 -3 -19 -7 -33 -7c-23 0 -43 19 -43 47c0 19 13 36 34 43c50 20 116 35 188 35c125 0 213 -46 213 -177v-118c0 -72 17 -108 21 -147c4 -30 -14 -55 -48 -55c-39 0 -55 28 -68 94h-1zM432 166c-51 35 -118 57 -173 57c-66 0 -102 -32 -102 -74
c0 -46 45 -74 104 -74c67 0 135 42 171 91z" />
    <glyph glyph-name="amacron" unicode="&#x101;" horiz-adv-x="624" 
d="M200 567c-29 0 -50 18 -50 46c0 27 21 46 50 46h243c29 0 50 -19 50 -46c0 -28 -21 -46 -50 -46h-243zM442 88c-63 -70 -129 -102 -212 -102c-100 0 -180 63 -180 158c0 87 71 156 182 156c68 0 134 -20 200 -60v73c0 63 -49 84 -110 84c-53 0 -92 -8 -143 -24
c-8 -3 -19 -7 -33 -7c-23 0 -43 19 -43 47c0 19 13 36 34 43c50 20 116 35 188 35c125 0 213 -46 213 -177v-118c0 -72 17 -108 21 -147c4 -30 -14 -55 -48 -55c-39 0 -55 28 -68 94h-1zM432 166c-51 35 -118 57 -173 57c-66 0 -102 -32 -102 -74c0 -46 45 -74 104 -74
c67 0 135 42 171 91z" />
    <glyph glyph-name="aogonek" unicode="&#x105;" horiz-adv-x="623" 
d="M325 491c134 0 213 -48 213 -195v-100c0 -72 16 -107 21 -146c2 -8 1 -20 -6 -32c-8 -13 -31 -22 -54 -28c-66 -18 -103 -38 -103 -76c0 -26 23 -40 54 -40c17 0 38 8 53 19c6 4 12 10 21 10c20 0 36 -18 36 -35c0 -10 -4 -20 -11 -29c-11 -14 -47 -44 -119 -44
c-76 0 -130 49 -130 102c0 67 52 109 161 141c-8 19 -15 48 -20 73h-1c-40 -62 -132 -124 -215 -124c-95 0 -175 64 -175 156c0 86 73 158 182 158c64 0 135 -21 200 -61v73c0 63 -49 84 -111 84c-58 0 -95 -10 -142 -25c-8 -2 -19 -6 -33 -6c-22 0 -43 18 -43 45
c0 16 10 28 22 36c37 31 120 44 200 44zM259 222c-66 0 -103 -32 -103 -73c0 -47 44 -74 100 -74c67 0 134 43 167 95c-50 33 -108 52 -164 52z" />
    <glyph glyph-name="aring" unicode="&#xe5;" horiz-adv-x="624" 
d="M432 635c0 -58 -50 -103 -111 -103c-60 0 -109 45 -109 103s50 102 110 102c61 0 110 -44 110 -102zM322 585c28 0 49 21 49 50c0 28 -21 50 -49 50c-29 0 -50 -22 -50 -50c0 -29 21 -50 50 -50zM442 88c-63 -70 -129 -102 -212 -102c-100 0 -180 63 -180 158
c0 87 71 156 182 156c68 0 134 -20 200 -60v73c0 63 -49 84 -110 84c-53 0 -92 -8 -143 -24c-8 -3 -19 -7 -33 -7c-23 0 -43 19 -43 47c0 19 13 36 34 43c50 20 116 35 188 35c125 0 213 -46 213 -177v-118c0 -72 17 -108 21 -147c4 -30 -14 -55 -48 -55
c-39 0 -55 28 -68 94h-1zM432 166c-51 35 -118 57 -173 57c-66 0 -102 -32 -102 -74c0 -46 45 -74 104 -74c67 0 135 42 171 91z" />
    <glyph glyph-name="atilde" unicode="&#xe3;" horiz-adv-x="624" 
d="M380 630c18 0 24 15 30 29c7 16 18 23 36 23c19 0 38 -12 38 -41c0 -45 -33 -91 -89 -91c-58 0 -99 50 -135 50c-18 0 -24 -14 -30 -28c-7 -16 -18 -24 -36 -24c-19 0 -38 12 -38 41c0 45 33 92 89 92c59 0 99 -51 135 -51zM442 88c-63 -70 -129 -102 -212 -102
c-100 0 -180 63 -180 158c0 87 71 156 182 156c68 0 134 -20 200 -60v73c0 63 -49 84 -110 84c-53 0 -92 -8 -143 -24c-8 -3 -19 -7 -33 -7c-23 0 -43 19 -43 47c0 19 13 36 34 43c50 20 116 35 188 35c125 0 213 -46 213 -177v-118c0 -72 17 -108 21 -147
c4 -30 -14 -55 -48 -55c-39 0 -55 28 -68 94h-1zM432 166c-51 35 -118 57 -173 57c-66 0 -102 -32 -102 -74c0 -46 45 -74 104 -74c67 0 135 42 171 91z" />
    <glyph glyph-name="ae" unicode="&#xe6;" horiz-adv-x="968" 
d="M672 491c137 0 225 -87 225 -201c0 -42 -20 -73 -71 -73h-300c8 -87 89 -134 167 -134c68 0 116 20 159 51c12 8 21 14 35 14c26 0 47 -22 47 -48c0 -14 -7 -28 -24 -41c-50 -42 -132 -73 -210 -73c-113 0 -198 47 -243 121c-60 -80 -146 -121 -228 -121
c-99 0 -179 65 -179 157c0 86 72 158 180 158c64 0 134 -21 198 -61v73c0 63 -49 84 -109 84c-52 0 -91 -8 -141 -24c-8 -3 -19 -7 -33 -7c-23 0 -43 19 -43 47c0 17 13 35 36 44c49 20 107 34 184 34s145 -20 179 -74c46 48 106 74 171 74zM671 403
c-70 0 -125 -39 -142 -108h258c6 0 7 4 7 8c0 52 -47 100 -123 100zM257 222c-65 0 -101 -32 -101 -73c0 -47 46 -74 104 -74c66 0 132 42 168 91c-50 35 -116 56 -171 56z" />
    <glyph glyph-name="cacute" unicode="&#x107;" horiz-adv-x="571" 
d="M266 540c-21 -14 -48 -11 -60 5c-10 14 -10 37 12 55l132 112c12 10 25 16 38 16c29 0 51 -22 51 -49c0 -15 -9 -29 -27 -41zM525 61c-52 -45 -123 -75 -215 -75c-151 0 -262 107 -262 253c0 145 107 252 256 252c65 0 127 -23 158 -45c19 -14 32 -26 32 -47
c0 -24 -16 -51 -46 -51c-16 0 -29 6 -44 14c-28 17 -61 28 -98 28c-83 0 -145 -58 -145 -147c0 -93 70 -156 159 -156c57 0 100 20 142 52c10 8 23 15 38 15c27 0 47 -27 47 -51c0 -17 -8 -30 -22 -42z" />
    <glyph glyph-name="ccaron" unicode="&#x10d;" horiz-adv-x="571" 
d="M395 713c13 12 24 21 41 21c30 0 54 -33 23 -62c-37 -35 -73 -74 -103 -107c-13 -16 -26 -28 -52 -28s-37 12 -51 28c-30 33 -67 72 -104 107c-30 29 -5 62 23 62c17 0 28 -10 40 -21l92 -77zM525 61c-52 -45 -123 -75 -215 -75c-151 0 -262 107 -262 253
c0 145 107 252 256 252c65 0 127 -23 158 -45c19 -14 32 -26 32 -47c0 -24 -16 -51 -46 -51c-16 0 -29 6 -44 14c-28 17 -61 28 -98 28c-83 0 -145 -58 -145 -147c0 -93 70 -156 159 -156c57 0 100 20 142 52c10 8 23 15 38 15c27 0 47 -27 47 -51c0 -17 -8 -30 -22 -42z
" />
    <glyph glyph-name="ccedilla" unicode="&#xe7;" horiz-adv-x="571" 
d="M304 491c65 0 127 -23 158 -45c19 -14 32 -27 32 -47c0 -24 -16 -51 -46 -51c-16 0 -29 6 -44 14c-28 17 -61 28 -98 28c-83 0 -145 -58 -145 -147c0 -93 67 -156 163 -156c59 0 100 22 140 50c11 7 23 15 38 15c29 0 45 -26 45 -49c0 -17 -8 -30 -22 -42
c-40 -36 -109 -66 -185 -73l-10 -36c83 -5 108 -43 108 -81c0 -69 -67 -115 -151 -115c-32 0 -76 5 -91 21c-9 7 -13 16 -13 25c0 18 13 32 30 32c19 0 39 -11 82 -11c38 0 65 16 65 40c0 22 -27 34 -66 34c-9 0 -18 -1 -23 -1c-27 0 -31 24 -22 44l20 49
c-128 16 -221 117 -221 250c0 145 107 252 256 252z" />
    <glyph glyph-name="cdotaccent" unicode="&#x10b;" horiz-adv-x="571" 
d="M304 555c-42 0 -76 33 -76 75c0 41 34 75 76 75s76 -34 76 -75c0 -42 -34 -75 -76 -75zM525 61c-52 -45 -123 -75 -215 -75c-151 0 -262 107 -262 253c0 145 107 252 256 252c65 0 127 -23 158 -45c19 -14 32 -26 32 -47c0 -24 -16 -51 -46 -51c-16 0 -29 6 -44 14
c-28 17 -61 28 -98 28c-83 0 -145 -58 -145 -147c0 -93 70 -156 159 -156c57 0 100 20 142 52c10 8 23 15 38 15c27 0 47 -27 47 -51c0 -17 -8 -30 -22 -42z" />
    <glyph glyph-name="eth" unicode="&#xf0;" horiz-adv-x="617" 
d="M434 593c75 -66 128 -163 128 -290c0 -184 -114 -317 -278 -317c-147 0 -254 104 -254 240c0 131 99 229 233 229c56 0 127 -17 177 -71c-17 74 -57 131 -107 167l-117 -65c-23 -13 -46 -6 -59 21c-12 27 -3 48 22 58l67 27c-32 11 -65 17 -96 18c-25 4 -41 18 -41 46
c0 26 17 47 55 47c54 0 131 -17 201 -58l96 53c22 13 46 7 59 -20c13 -26 4 -49 -21 -58zM292 87c91 0 140 72 149 168c3 9 4 20 5 31c-46 61 -109 79 -157 79c-70 0 -146 -45 -146 -138c0 -91 71 -140 149 -140z" />
    <glyph glyph-name="dcaron" unicode="&#x10f;" horiz-adv-x="731" 
d="M506 130c-46 -79 -120 -144 -225 -144c-131 0 -233 110 -233 255c0 146 105 250 228 250c102 0 171 -53 216 -122h2c-5 78 -6 187 -6 275c0 31 23 50 56 50s56 -19 56 -50v-230c0 -191 11 -271 35 -353c11 -38 -18 -67 -57 -67c-25 0 -41 15 -51 41c-8 20 -14 51 -19 95
h-2zM664 504c1 29 4 95 2 138c-2 30 16 52 50 52c33 0 49 -18 49 -44s-17 -109 -28 -145c-7 -19 -18 -34 -39 -34c-20 0 -34 14 -34 33zM492 239c-36 91 -113 151 -192 151c-80 0 -140 -63 -140 -151s62 -152 143 -152c73 0 153 59 189 152z" />
    <glyph glyph-name="dcroat" unicode="&#x111;" horiz-adv-x="696" 
d="M506 130c-46 -79 -120 -144 -225 -144c-131 0 -233 110 -233 255c0 146 105 250 228 250c102 0 171 -53 216 -122h2c-3 38 -4 83 -5 129h-93c-29 0 -50 18 -50 45c0 28 21 46 50 46h92v55c0 31 23 50 56 50s56 -19 56 -50v-55h54c29 0 50 -18 50 -46
c0 -27 -21 -45 -50 -45h-54v-84c0 -191 11 -271 35 -352c11 -39 -18 -68 -57 -68c-25 0 -40 14 -50 38c-9 20 -15 52 -20 98h-2zM492 239c-36 91 -113 151 -192 151c-80 0 -140 -63 -140 -151s62 -152 143 -152c73 0 153 59 189 152z" />
    <glyph glyph-name="eacute" unicode="&#xe9;" horiz-adv-x="600" 
d="M265 540c-21 -14 -48 -11 -60 5c-10 14 -10 37 12 55l132 112c12 10 25 16 38 16c29 0 51 -22 51 -49c0 -15 -9 -29 -27 -41zM530 290c0 -44 -20 -73 -70 -73h-305c7 -89 89 -134 173 -134c61 0 112 20 156 51c11 8 21 14 35 14c26 0 47 -22 47 -48c0 -14 -7 -28 -24 -41
c-50 -42 -133 -73 -214 -73c-168 0 -280 102 -280 256c0 140 111 249 255 249c137 0 227 -87 227 -201zM420 295c5 0 7 3 7 8c0 52 -48 99 -124 99c-72 0 -126 -41 -143 -107h260z" />
    <glyph glyph-name="ecaron" unicode="&#x11b;" horiz-adv-x="600" 
d="M394 713c13 12 24 21 41 21c30 0 54 -33 23 -62c-37 -35 -73 -74 -103 -107c-13 -16 -26 -28 -52 -28s-37 12 -51 28c-30 33 -67 72 -104 107c-30 29 -5 62 23 62c17 0 28 -10 40 -21l92 -77zM530 290c0 -44 -20 -73 -70 -73h-305c7 -89 89 -134 173 -134
c61 0 112 20 156 51c11 8 21 14 35 14c26 0 47 -22 47 -48c0 -14 -7 -28 -24 -41c-50 -42 -133 -73 -214 -73c-168 0 -280 102 -280 256c0 140 111 249 255 249c137 0 227 -87 227 -201zM420 295c5 0 7 3 7 8c0 52 -48 99 -124 99c-72 0 -126 -41 -143 -107h260z" />
    <glyph glyph-name="ecircumflex" unicode="&#xea;" horiz-adv-x="600" 
d="M303 728c26 0 39 -12 52 -28c30 -33 66 -72 103 -107c31 -29 7 -62 -23 -62c-17 0 -28 9 -41 21l-91 78l-92 -78c-12 -11 -23 -21 -40 -21c-28 0 -53 33 -23 62c37 35 74 74 104 107c14 16 25 28 51 28zM530 290c0 -44 -20 -73 -70 -73h-305c7 -89 89 -134 173 -134
c61 0 112 20 156 51c11 8 21 14 35 14c26 0 47 -22 47 -48c0 -14 -7 -28 -24 -41c-50 -42 -133 -73 -214 -73c-168 0 -280 102 -280 256c0 140 111 249 255 249c137 0 227 -87 227 -201zM420 295c5 0 7 3 7 8c0 52 -48 99 -124 99c-72 0 -126 -41 -143 -107h260z" />
    <glyph glyph-name="edieresis" unicode="&#xeb;" horiz-adv-x="600" 
d="M206 553c-33 0 -60 27 -60 60c0 34 27 62 60 62c34 0 62 -28 62 -62c0 -33 -28 -60 -62 -60zM399 553c-33 0 -60 27 -60 60c0 34 27 62 60 62c35 0 62 -28 62 -62c0 -33 -27 -60 -62 -60zM530 290c0 -44 -20 -73 -70 -73h-305c7 -89 89 -134 173 -134c61 0 112 20 156 51
c11 8 21 14 35 14c26 0 47 -22 47 -48c0 -14 -7 -28 -24 -41c-50 -42 -133 -73 -214 -73c-168 0 -280 102 -280 256c0 140 111 249 255 249c137 0 227 -87 227 -201zM420 295c5 0 7 3 7 8c0 52 -48 99 -124 99c-72 0 -126 -41 -143 -107h260z" />
    <glyph glyph-name="edotaccent" unicode="&#x117;" horiz-adv-x="600" 
d="M303 555c-42 0 -76 33 -76 75c0 41 34 75 76 75s76 -34 76 -75c0 -42 -34 -75 -76 -75zM530 290c0 -44 -20 -73 -70 -73h-305c7 -89 89 -134 173 -134c61 0 112 20 156 51c11 8 21 14 35 14c26 0 47 -22 47 -48c0 -14 -7 -28 -24 -41c-50 -42 -133 -73 -214 -73
c-168 0 -280 102 -280 256c0 140 111 249 255 249c137 0 227 -87 227 -201zM420 295c5 0 7 3 7 8c0 52 -48 99 -124 99c-72 0 -126 -41 -143 -107h260z" />
    <glyph glyph-name="egrave" unicode="&#xe8;" horiz-adv-x="600" 
d="M388 600c22 -18 22 -41 12 -55c-12 -16 -38 -19 -59 -5l-147 98c-18 12 -26 26 -26 41c-1 27 21 49 50 49c13 0 26 -6 38 -16zM530 290c0 -44 -20 -73 -70 -73h-305c7 -89 89 -134 173 -134c61 0 112 20 156 51c11 8 21 14 35 14c26 0 47 -22 47 -48
c0 -14 -7 -28 -24 -41c-50 -42 -133 -73 -214 -73c-168 0 -280 102 -280 256c0 140 111 249 255 249c137 0 227 -87 227 -201zM420 295c5 0 7 3 7 8c0 52 -48 99 -124 99c-72 0 -126 -41 -143 -107h260z" />
    <glyph glyph-name="emacron" unicode="&#x113;" horiz-adv-x="600" 
d="M182 567c-29 0 -50 18 -50 46c0 27 21 46 50 46h243c29 0 50 -19 50 -46c0 -28 -21 -46 -50 -46h-243zM530 290c0 -44 -20 -73 -70 -73h-305c7 -89 89 -134 173 -134c61 0 112 20 156 51c11 8 21 14 35 14c26 0 47 -22 47 -48c0 -14 -7 -28 -24 -41
c-50 -42 -133 -73 -214 -73c-168 0 -280 102 -280 256c0 140 111 249 255 249c137 0 227 -87 227 -201zM420 295c5 0 7 3 7 8c0 52 -48 99 -124 99c-72 0 -126 -41 -143 -107h260z" />
    <glyph glyph-name="eogonek" unicode="&#x119;" horiz-adv-x="600" 
d="M273 -101c0 31 17 60 51 90c-17 0 -33 1 -48 4c-138 17 -228 111 -228 249c0 140 111 249 255 249c137 0 227 -87 227 -201c0 -44 -20 -73 -70 -73h-305c7 -89 89 -134 173 -134c63 0 112 20 156 51c11 8 21 14 35 14c26 0 47 -22 47 -48c0 -14 -7 -29 -22 -40
c-14 -12 -28 -21 -58 -36c-73 -37 -111 -80 -111 -109c0 -27 25 -42 54 -42s48 10 64 21c8 5 14 8 22 8c20 0 36 -18 36 -37c0 -9 -5 -20 -18 -31c-21 -19 -59 -40 -120 -40c-74 0 -140 41 -140 105zM419 295c6 0 8 3 8 8c0 52 -48 99 -124 99c-72 0 -126 -41 -143 -107h259
z" />
    <glyph glyph-name="gbreve" unicode="&#x11f;" horiz-adv-x="642" 
d="M296 549c-113 0 -177 83 -177 142c0 24 19 37 43 37c19 0 31 -12 35 -23c19 -51 51 -73 99 -73c47 0 79 22 98 73c5 11 17 23 36 23c23 0 43 -13 43 -37c0 -59 -65 -142 -177 -142zM521 -174c-6 51 -50 97 -126 97c-58 0 -112 -21 -163 -43c-22 -10 -47 -25 -75 -31
c-14 -3 -27 -3 -37 0c-21 7 -36 27 -36 48c0 25 18 41 40 66c32 34 59 83 64 147c-86 30 -140 98 -140 181c0 116 101 200 248 200c44 0 84 -7 117 -20h170c30 0 50 -18 50 -48c0 -29 -19 -46 -50 -46h-74c19 -26 29 -55 29 -86c0 -106 -80 -187 -215 -196
c-14 -2 -26 -2 -40 -2c-10 -50 -37 -95 -60 -120l3 -4c49 30 118 53 193 53c116 0 202 -78 202 -178c0 -34 -23 -54 -57 -54c-28 0 -41 18 -43 36zM296 185c85 0 141 43 141 107s-56 107 -141 107s-141 -43 -141 -107s56 -107 141 -107z" />
    <glyph glyph-name="uni0123" unicode="&#x123;" horiz-adv-x="642" 
d="M306 691c31 4 74 -17 74 -63c0 -42 -33 -70 -74 -70c-42 0 -80 30 -80 90c0 55 34 128 90 161c13 7 26 10 37 10c20 0 31 -12 31 -26c1 -10 -5 -21 -18 -27c-33 -14 -53 -39 -60 -75zM521 -174c-6 51 -50 97 -126 97c-58 0 -112 -21 -163 -43c-22 -10 -47 -25 -75 -31
c-14 -3 -27 -3 -37 0c-21 7 -36 27 -36 48c0 25 18 41 40 66c32 34 59 83 64 147c-86 30 -140 98 -140 181c0 116 101 200 248 200c44 0 84 -7 117 -20h170c30 0 50 -18 50 -48c0 -29 -19 -46 -50 -46h-74c19 -26 29 -55 29 -86c0 -106 -80 -187 -215 -196
c-14 -2 -26 -2 -40 -2c-10 -50 -37 -95 -60 -120l3 -4c49 30 118 53 193 53c116 0 202 -78 202 -178c0 -34 -23 -54 -57 -54c-28 0 -41 18 -43 36zM296 185c85 0 141 43 141 107s-56 107 -141 107s-141 -43 -141 -107s56 -107 141 -107z" />
    <glyph glyph-name="gdotaccent" unicode="&#x121;" horiz-adv-x="642" 
d="M296 555c-42 0 -76 33 -76 75c0 41 34 75 76 75s76 -34 76 -75c0 -42 -34 -75 -76 -75zM521 -174c-6 51 -50 97 -126 97c-58 0 -112 -21 -163 -43c-22 -10 -47 -25 -75 -31c-14 -3 -27 -3 -37 0c-21 7 -36 27 -36 48c0 25 18 41 40 66c32 34 59 83 64 147
c-86 30 -140 98 -140 181c0 116 101 200 248 200c44 0 84 -7 117 -20h170c30 0 50 -18 50 -48c0 -29 -19 -46 -50 -46h-74c19 -26 29 -55 29 -86c0 -106 -80 -187 -215 -196c-14 -2 -26 -2 -40 -2c-10 -50 -37 -95 -60 -120l3 -4c49 30 118 53 193 53
c116 0 202 -78 202 -178c0 -34 -23 -54 -57 -54c-28 0 -41 18 -43 36zM296 185c85 0 141 43 141 107s-56 107 -141 107s-141 -43 -141 -107s56 -107 141 -107z" />
    <glyph glyph-name="hbar" unicode="&#x127;" horiz-adv-x="680" 
d="M204 589h92c29 0 50 -18 50 -46c0 -27 -21 -45 -50 -45h-92v-138h1c52 76 121 131 208 131c113 0 189 -78 189 -233v-214c0 -31 -23 -50 -56 -50s-56 19 -56 50v206c0 93 -37 139 -107 139s-146 -69 -179 -164v-181c0 -31 -24 -50 -57 -50s-56 19 -56 50v454h-53
c-29 0 -51 18 -51 45c0 28 22 46 51 46h53v55c0 31 23 50 56 50s57 -19 57 -50v-55z" />
    <glyph glyph-name="dotlessi" unicode="&#x131;" horiz-adv-x="299" 
d="M206 44c0 -30 -24 -50 -57 -50s-56 20 -56 50v389c0 31 23 50 56 50s57 -19 57 -50v-389z" />
    <glyph glyph-name="ij" unicode="&#x133;" horiz-adv-x="596" 
d="M149 574c-42 0 -76 33 -76 75c0 41 34 75 76 75s76 -34 76 -75c0 -42 -34 -75 -76 -75zM447 724c42 0 76 -34 76 -75c0 -42 -34 -75 -76 -75s-76 33 -76 75c0 41 34 75 76 75zM206 44c0 -30 -24 -50 -57 -50s-56 20 -56 50v389c0 31 23 50 56 50s57 -19 57 -50v-389z
M448 483c33 0 56 -19 56 -50v-368c0 -99 -24 -173 -65 -226c-19 -25 -39 -47 -67 -47c-41 0 -83 52 -41 99c48 53 61 102 61 204v338c0 31 23 50 56 50z" />
    <glyph glyph-name="iacute" unicode="&#xed;" horiz-adv-x="299" 
d="M111 541c-21 -14 -48 -11 -60 5c-10 14 -10 37 12 55l132 112c12 10 25 16 38 16c29 0 51 -22 51 -49c0 -15 -9 -29 -27 -41zM206 44c0 -30 -24 -50 -57 -50s-56 20 -56 50v389c0 31 23 50 56 50s57 -19 57 -50v-389z" />
    <glyph glyph-name="icircumflex" unicode="&#xee;" horiz-adv-x="299" 
d="M149 729c26 0 39 -12 52 -28c30 -33 66 -72 103 -107c31 -29 7 -62 -23 -62c-17 0 -28 9 -41 21l-91 78l-92 -78c-12 -11 -23 -21 -40 -21c-28 0 -53 33 -23 62c37 35 74 74 104 107c14 16 25 28 51 28zM206 44c0 -30 -24 -50 -57 -50s-56 20 -56 50v389
c0 31 23 50 56 50s57 -19 57 -50v-389z" />
    <glyph glyph-name="idieresis" unicode="&#xef;" horiz-adv-x="299" 
d="M52 554c-33 0 -60 27 -60 60c0 34 27 62 60 62c34 0 62 -28 62 -62c0 -33 -28 -60 -62 -60zM245 554c-33 0 -60 27 -60 60c0 34 27 62 60 62c35 0 62 -28 62 -62c0 -33 -27 -60 -62 -60zM206 44c0 -30 -24 -50 -57 -50s-56 20 -56 50v389c0 31 23 50 56 50s57 -19 57 -50
v-389z" />
    <glyph glyph-name="i.loclTRK" horiz-adv-x="299" 
d="M149 556c-42 0 -76 33 -76 75c0 41 34 75 76 75s76 -34 76 -75c0 -42 -34 -75 -76 -75zM206 44c0 -30 -24 -50 -57 -50s-56 20 -56 50v389c0 31 23 50 56 50s57 -19 57 -50v-389z" />
    <glyph glyph-name="igrave" unicode="&#xec;" horiz-adv-x="299" 
d="M234 601c22 -18 22 -41 12 -55c-12 -16 -38 -19 -59 -5l-147 98c-18 12 -26 26 -26 41c-1 27 21 49 50 49c13 0 26 -6 38 -16zM206 44c0 -30 -24 -50 -57 -50s-56 20 -56 50v389c0 31 23 50 56 50s57 -19 57 -50v-389z" />
    <glyph glyph-name="imacron" unicode="&#x12b;" horiz-adv-x="299" 
d="M28 568c-29 0 -50 18 -50 46c0 27 21 46 50 46h243c29 0 50 -19 50 -46c0 -28 -21 -46 -50 -46h-243zM206 44c0 -30 -24 -50 -57 -50s-56 20 -56 50v389c0 31 23 50 56 50s57 -19 57 -50v-389z" />
    <glyph glyph-name="iogonek" unicode="&#x12f;" horiz-adv-x="299" 
d="M149 724c42 0 76 -34 76 -75c0 -42 -34 -75 -76 -75s-76 33 -76 75c0 41 34 75 76 75zM149 482c33 0 57 -19 57 -50v-387c0 -18 -7 -31 -22 -42c-38 -31 -92 -53 -92 -89c0 -26 25 -40 57 -40c22 0 43 10 54 20c6 4 12 9 20 9c21 0 38 -18 38 -35c0 -10 -3 -20 -10 -29
c-11 -14 -44 -44 -116 -44c-77 0 -144 41 -144 106c0 47 30 87 102 137v394c0 31 23 50 56 50z" />
    <glyph glyph-name="uni0137" unicode="&#x137;" horiz-adv-x="627" 
d="M206 256l292 218c10 7 17 11 31 11c30 0 53 -28 53 -54c0 -18 -9 -31 -23 -40l-162 -120l176 -187c11 -10 19 -24 19 -38c0 -26 -23 -53 -55 -53c-17 0 -31 9 -43 21l-183 196l-105 -76v-90c0 -31 -24 -50 -57 -50s-56 19 -56 50v600c0 31 23 50 56 50s57 -19 57 -50
v-388zM329 -221c-31 -5 -74 16 -74 63c0 42 33 70 74 70c42 0 80 -31 80 -90c0 -55 -34 -129 -90 -161c-13 -8 -26 -11 -37 -11c-20 0 -31 13 -31 26c-1 10 5 21 18 27c33 15 53 39 60 76z" />
    <glyph glyph-name="lacute" unicode="&#x13a;" horiz-adv-x="299" 
d="M111 766c-21 -14 -48 -11 -60 5c-10 14 -10 37 12 55l132 112c12 10 25 16 38 16c29 0 51 -22 51 -49c0 -15 -9 -29 -27 -41zM206 44c0 -31 -24 -51 -57 -51s-56 20 -56 51v600c0 30 23 50 56 50s57 -20 57 -50v-600z" />
    <glyph glyph-name="lcaron" unicode="&#x13e;" horiz-adv-x="336" 
d="M206 44c0 -31 -24 -51 -57 -51s-56 20 -56 51v600c0 30 23 50 56 50s57 -20 57 -50v-600zM270 504c0 29 4 95 1 138c-2 30 16 52 50 52c33 0 49 -18 49 -44s-17 -109 -28 -145c-6 -19 -17 -34 -38 -34s-34 14 -34 33z" />
    <glyph glyph-name="uni013C" unicode="&#x13c;" horiz-adv-x="299" 
d="M206 44c0 -31 -24 -51 -57 -51s-56 20 -56 51v600c0 30 23 50 56 50s57 -20 57 -50v-600zM149 -221c-31 -5 -74 16 -74 63c0 42 33 70 74 70c42 0 80 -31 80 -90c0 -55 -34 -129 -90 -161c-13 -8 -26 -11 -37 -11c-20 0 -31 13 -31 26c-1 10 5 21 18 27
c33 15 53 39 60 76z" />
    <glyph glyph-name="ldot" unicode="&#x140;" horiz-adv-x="349" 
d="M206 44c0 -31 -24 -51 -57 -51s-56 20 -56 51v600c0 30 23 50 56 50s57 -20 57 -50v-600zM322 268c-42 0 -76 33 -76 75c0 41 34 75 76 75s76 -34 76 -75c0 -42 -34 -75 -76 -75z" />
    <glyph glyph-name="lslash" unicode="&#x142;" horiz-adv-x="398" 
d="M200 694c33 0 56 -20 56 -50v-246l54 25c25 11 53 2 64 -25c12 -27 0 -54 -24 -65l-94 -40v-249c0 -31 -23 -51 -56 -51s-56 20 -56 51v199l-55 -25c-25 -10 -53 -1 -65 26s1 53 25 64l95 39v297c0 30 23 50 56 50z" />
    <glyph glyph-name="nacute" unicode="&#x144;" horiz-adv-x="685" 
d="M329 540c-21 -14 -48 -11 -60 5c-10 14 -10 37 12 55l132 112c12 10 25 16 38 16c29 0 51 -22 51 -49c0 -15 -9 -29 -27 -41zM208 44c0 -31 -23 -50 -56 -50s-56 19 -56 50v62c0 163 -7 234 -31 301c-18 48 14 76 50 76c26 0 40 -14 51 -37c11 -24 19 -59 26 -108h1
c50 94 125 153 218 153c122 0 196 -81 196 -231v-216c0 -31 -23 -50 -56 -50s-56 19 -56 50v209c0 88 -37 136 -108 136c-75 0 -148 -70 -179 -162v-183z" />
    <glyph glyph-name="ncaron" unicode="&#x148;" horiz-adv-x="685" 
d="M458 713c13 12 24 21 41 21c30 0 54 -33 23 -62c-37 -35 -73 -74 -103 -107c-13 -16 -26 -28 -52 -28s-37 12 -51 28c-30 33 -67 72 -104 107c-30 29 -5 62 23 62c17 0 28 -10 40 -21l92 -77zM208 44c0 -31 -23 -50 -56 -50s-56 19 -56 50v62c0 163 -7 234 -31 301
c-18 48 14 76 50 76c26 0 40 -14 51 -37c11 -24 19 -59 26 -108h1c50 94 125 153 218 153c122 0 196 -81 196 -231v-216c0 -31 -23 -50 -56 -50s-56 19 -56 50v209c0 88 -37 136 -108 136c-75 0 -148 -70 -179 -162v-183z" />
    <glyph glyph-name="uni0146" unicode="&#x146;" horiz-adv-x="685" 
d="M208 44c0 -31 -23 -50 -56 -50s-56 19 -56 50v62c0 163 -7 234 -31 301c-18 48 14 76 50 76c26 0 40 -14 51 -37c11 -24 19 -59 26 -108h1c50 94 125 153 218 153c122 0 196 -81 196 -231v-216c0 -31 -23 -50 -56 -50s-56 19 -56 50v209c0 88 -37 136 -108 136
c-75 0 -148 -70 -179 -162v-183zM367 -221c-31 -5 -74 16 -74 63c0 42 33 70 74 70c42 0 80 -31 80 -90c0 -55 -34 -129 -90 -161c-13 -8 -26 -11 -37 -11c-20 0 -31 13 -31 26c-1 10 5 21 18 27c33 15 53 39 60 76z" />
    <glyph glyph-name="eng" unicode="&#x14b;" horiz-adv-x="685" 
d="M495 253c0 88 -37 136 -108 136c-75 0 -148 -70 -179 -162v-183c0 -31 -23 -50 -56 -50s-56 19 -56 50v62c0 163 -7 234 -32 302c-17 47 15 75 54 75c23 0 37 -14 48 -37s19 -59 26 -108h1c50 94 125 153 218 153c122 0 196 -81 196 -231v-256c0 -146 -81 -212 -193 -212
c-56 0 -113 21 -140 36c-25 14 -36 29 -36 51c0 28 21 50 47 50c13 0 24 -5 36 -11c19 -8 56 -25 88 -25c55 0 86 30 86 117v243z" />
    <glyph glyph-name="ntilde" unicode="&#xf1;" horiz-adv-x="685" 
d="M426 630c18 0 24 15 30 29c7 16 18 23 36 23c19 0 38 -12 38 -41c0 -45 -33 -91 -89 -91c-58 0 -99 50 -135 50c-18 0 -24 -14 -30 -28c-7 -16 -18 -24 -36 -24c-19 0 -38 12 -38 41c0 45 33 92 89 92c59 0 99 -51 135 -51zM208 44c0 -31 -23 -50 -56 -50s-56 19 -56 50
v62c0 163 -7 234 -31 301c-18 48 14 76 50 76c26 0 40 -14 51 -37c11 -24 19 -59 26 -108h1c50 94 125 153 218 153c122 0 196 -81 196 -231v-216c0 -31 -23 -50 -56 -50s-56 19 -56 50v209c0 88 -37 136 -108 136c-75 0 -148 -70 -179 -162v-183z" />
    <glyph glyph-name="oacute" unicode="&#xf3;" horiz-adv-x="627" 
d="M275 540c-21 -14 -48 -11 -60 5c-10 14 -10 37 12 55l132 112c12 10 25 16 38 16c29 0 51 -22 51 -49c0 -15 -9 -29 -27 -41zM313 -14c-155 0 -265 111 -265 252c0 142 110 253 265 253s266 -111 266 -253c0 -141 -111 -252 -266 -252zM313 87c87 0 153 61 153 151
s-67 152 -153 152s-152 -62 -152 -152s68 -151 152 -151z" />
    <glyph glyph-name="ocircumflex" unicode="&#xf4;" horiz-adv-x="627" 
d="M313 728c26 0 39 -12 52 -28c30 -33 66 -72 103 -107c31 -29 7 -62 -23 -62c-17 0 -28 9 -41 21l-91 78l-92 -78c-12 -11 -23 -21 -40 -21c-28 0 -53 33 -23 62c37 35 74 74 104 107c14 16 25 28 51 28zM313 -14c-155 0 -265 111 -265 252c0 142 110 253 265 253
s266 -111 266 -253c0 -141 -111 -252 -266 -252zM313 87c87 0 153 61 153 151s-67 152 -153 152s-152 -62 -152 -152s68 -151 152 -151z" />
    <glyph glyph-name="odieresis" unicode="&#xf6;" horiz-adv-x="627" 
d="M216 553c-33 0 -60 27 -60 60c0 34 27 62 60 62c34 0 62 -28 62 -62c0 -33 -28 -60 -62 -60zM409 553c-33 0 -60 27 -60 60c0 34 27 62 60 62c35 0 62 -28 62 -62c0 -33 -27 -60 -62 -60zM313 -14c-155 0 -265 111 -265 252c0 142 110 253 265 253s266 -111 266 -253
c0 -141 -111 -252 -266 -252zM313 87c87 0 153 61 153 151s-67 152 -153 152s-152 -62 -152 -152s68 -151 152 -151z" />
    <glyph glyph-name="ograve" unicode="&#xf2;" horiz-adv-x="627" 
d="M398 600c22 -18 22 -41 12 -55c-12 -16 -38 -19 -59 -5l-147 98c-18 12 -26 26 -26 41c-1 27 21 49 50 49c13 0 26 -6 38 -16zM313 -14c-155 0 -265 111 -265 252c0 142 110 253 265 253s266 -111 266 -253c0 -141 -111 -252 -266 -252zM313 87c87 0 153 61 153 151
s-67 152 -153 152s-152 -62 -152 -152s68 -151 152 -151z" />
    <glyph glyph-name="ohungarumlaut" unicode="&#x151;" horiz-adv-x="627" 
d="M235 542c-22 -20 -50 -16 -62 1c-10 14 -8 32 4 47l100 125c10 12 22 19 36 19c26 0 52 -20 51 -47c0 -15 -9 -29 -24 -44zM425 542c-21 -20 -50 -16 -62 1c-10 14 -7 32 5 47l99 125c10 12 23 19 36 19c27 0 52 -20 52 -47c0 -15 -9 -29 -25 -44zM313 -14
c-155 0 -265 111 -265 252c0 142 110 253 265 253s266 -111 266 -253c0 -141 -111 -252 -266 -252zM313 87c87 0 153 61 153 151s-67 152 -153 152s-152 -62 -152 -152s68 -151 152 -151z" />
    <glyph glyph-name="omacron" unicode="&#x14d;" horiz-adv-x="627" 
d="M192 567c-29 0 -50 18 -50 46c0 27 21 46 50 46h243c29 0 50 -19 50 -46c0 -28 -21 -46 -50 -46h-243zM313 -14c-155 0 -265 111 -265 252c0 142 110 253 265 253s266 -111 266 -253c0 -141 -111 -252 -266 -252zM313 87c87 0 153 61 153 151s-67 152 -153 152
s-152 -62 -152 -152s68 -151 152 -151z" />
    <glyph glyph-name="oslash" unicode="&#xf8;" horiz-adv-x="627" 
d="M540 521c26 0 54 -28 54 -54c0 -11 -4 -21 -14 -30l-51 -48c32 -42 50 -94 50 -151c0 -141 -111 -252 -266 -252c-58 0 -109 16 -150 43l-54 -56c-9 -8 -19 -13 -29 -13c-26 0 -54 28 -54 54c0 11 5 21 14 30l53 49c-29 41 -45 91 -45 145c0 142 110 253 265 253
c54 0 104 -15 144 -39l54 55c8 9 19 14 29 14zM313 396c-89 0 -158 -65 -158 -158c0 -28 7 -54 19 -75l216 213c-22 13 -48 20 -77 20zM449 320l-219 -214c24 -16 52 -25 83 -25c90 0 159 64 159 157c0 31 -9 59 -23 82z" />
    <glyph glyph-name="otilde" unicode="&#xf5;" horiz-adv-x="627" 
d="M372 630c18 0 24 15 30 29c7 16 18 23 36 23c19 0 38 -12 38 -41c0 -45 -33 -91 -89 -91c-58 0 -99 50 -135 50c-18 0 -24 -14 -30 -28c-7 -16 -18 -24 -36 -24c-19 0 -38 12 -38 41c0 45 33 92 89 92c59 0 99 -51 135 -51zM313 -14c-155 0 -265 111 -265 252
c0 142 110 253 265 253s266 -111 266 -253c0 -141 -111 -252 -266 -252zM313 87c87 0 153 61 153 151s-67 152 -153 152s-152 -62 -152 -152s68 -151 152 -151z" />
    <glyph glyph-name="oe" unicode="&#x153;" horiz-adv-x="1004" 
d="M935 290c0 -44 -20 -73 -70 -73h-299c7 -89 87 -134 169 -134c62 0 110 20 153 51c11 8 21 14 35 14c26 0 47 -22 47 -48c0 -14 -7 -28 -24 -41c-49 -42 -132 -73 -211 -73c-98 0 -175 37 -221 99c-43 -60 -115 -99 -204 -99c-153 0 -262 111 -262 252
c0 142 109 253 262 253c88 0 160 -39 204 -99c42 61 114 99 197 99c135 0 224 -87 224 -201zM825 295c4 0 7 2 7 8c0 52 -47 99 -121 99c-71 0 -123 -41 -140 -107h254zM310 87c85 0 149 61 149 151s-65 152 -149 152s-149 -62 -149 -152s66 -151 149 -151z" />
    <glyph glyph-name="thorn" unicode="&#xfe;" horiz-adv-x="700" 
d="M147 694c34 0 57 -20 57 -50c0 -89 -2 -186 -7 -275h2c45 69 118 125 219 125c125 0 234 -106 234 -252s-108 -256 -235 -256c-101 0 -170 54 -216 123h-2c5 -79 4 -173 5 -261c0 -31 -23 -50 -57 -50c-32 0 -56 19 -56 50v796c0 30 24 50 56 50zM395 389
c-80 0 -160 -63 -194 -150c37 -91 118 -151 197 -151c82 0 144 63 144 151s-64 150 -147 150z" />
    <glyph glyph-name="racute" unicode="&#x155;" horiz-adv-x="480" 
d="M214 540c-21 -14 -48 -11 -60 5c-10 14 -10 37 12 55l132 112c12 10 25 16 38 16c29 0 51 -22 51 -49c0 -15 -9 -29 -27 -41zM191 334c47 94 125 157 206 157c38 0 65 -22 65 -58c0 -26 -18 -55 -60 -55h-9c-78 0 -158 -60 -190 -155v-179c0 -31 -23 -50 -56 -50
s-56 19 -56 50v153c0 95 -6 150 -27 216c-15 44 15 70 53 70c25 0 41 -16 51 -42c10 -24 17 -59 21 -107h2z" />
    <glyph glyph-name="rcaron" unicode="&#x159;" horiz-adv-x="480" 
d="M343 713c13 12 24 21 41 21c30 0 54 -33 23 -62c-37 -35 -73 -74 -103 -107c-13 -16 -26 -28 -52 -28s-37 12 -51 28c-30 33 -67 72 -104 107c-30 29 -5 62 23 62c17 0 28 -10 40 -21l92 -77zM191 334c47 94 125 157 206 157c38 0 65 -22 65 -58c0 -26 -18 -55 -60 -55
h-9c-78 0 -158 -60 -190 -155v-179c0 -31 -23 -50 -56 -50s-56 19 -56 50v153c0 95 -6 150 -27 216c-15 44 15 70 53 70c25 0 41 -16 51 -42c10 -24 17 -59 21 -107h2z" />
    <glyph glyph-name="uni0157" unicode="&#x157;" horiz-adv-x="480" 
d="M191 334c47 94 125 157 206 157c38 0 65 -22 65 -58c0 -26 -18 -55 -60 -55h-9c-78 0 -158 -60 -190 -155v-179c0 -31 -23 -50 -56 -50s-56 19 -56 50v153c0 95 -6 150 -27 216c-15 44 15 70 53 70c25 0 41 -16 51 -42c10 -24 17 -59 21 -107h2zM147 -221
c-31 -5 -74 16 -74 63c0 42 33 70 74 70c42 0 80 -31 80 -90c0 -55 -34 -129 -90 -161c-13 -8 -26 -11 -37 -11c-20 0 -31 13 -31 26c-1 10 5 21 18 27c33 15 53 39 60 76z" />
    <glyph glyph-name="sacute" unicode="&#x15b;" horiz-adv-x="552" 
d="M256 540c-21 -14 -48 -11 -60 5c-10 14 -10 37 12 55l132 112c12 10 25 16 38 16c29 0 51 -22 51 -49c0 -15 -9 -29 -27 -41zM517 141c0 -92 -84 -155 -228 -155c-67 0 -155 18 -209 43c-24 11 -37 25 -37 48c0 24 19 49 48 49c14 0 26 -5 37 -9c63 -28 113 -37 174 -37
c74 0 105 25 105 57c0 36 -48 47 -154 64c-108 17 -196 42 -196 139c0 86 87 151 224 151c75 0 142 -20 182 -39c24 -11 34 -27 34 -45c0 -25 -19 -48 -46 -48c-11 0 -23 4 -43 10c-35 13 -84 28 -139 28c-74 0 -102 -29 -102 -53c0 -34 41 -43 153 -61
c103 -18 197 -46 197 -142z" />
    <glyph glyph-name="scaron" unicode="&#x161;" horiz-adv-x="552" 
d="M385 713c13 12 24 21 41 21c30 0 54 -33 23 -62c-37 -35 -73 -74 -103 -107c-13 -16 -26 -28 -52 -28s-37 12 -51 28c-30 33 -67 72 -104 107c-30 29 -5 62 23 62c17 0 28 -10 40 -21l92 -77zM517 141c0 -92 -84 -155 -228 -155c-67 0 -155 18 -209 43
c-24 11 -37 25 -37 48c0 24 19 49 48 49c14 0 26 -5 37 -9c63 -28 113 -37 174 -37c74 0 105 25 105 57c0 36 -48 47 -154 64c-108 17 -196 42 -196 139c0 86 87 151 224 151c75 0 142 -20 182 -39c24 -11 34 -27 34 -45c0 -25 -19 -48 -46 -48c-11 0 -23 4 -43 10
c-35 13 -84 28 -139 28c-74 0 -102 -29 -102 -53c0 -34 41 -43 153 -61c103 -18 197 -46 197 -142z" />
    <glyph glyph-name="uni015F" unicode="&#x15f;" horiz-adv-x="552" 
d="M279 491c75 0 144 -20 184 -39c24 -12 34 -27 34 -46c0 -25 -19 -47 -46 -47c-11 0 -23 3 -43 10c-35 12 -84 28 -139 28c-74 0 -102 -29 -102 -53c0 -34 41 -43 153 -61c103 -18 197 -46 197 -142c0 -89 -77 -149 -210 -154l-10 -35c83 -7 108 -43 108 -81
c0 -69 -68 -115 -151 -115c-32 0 -62 4 -83 14c-15 7 -22 20 -22 32c0 17 14 32 31 32c21 0 42 -11 82 -11c38 0 65 16 65 40c0 22 -28 33 -75 33h-14c-27 0 -32 24 -23 44l21 49c-56 6 -116 22 -156 41c-24 11 -37 25 -37 47c0 25 19 49 48 49c14 0 26 -4 37 -9
c63 -27 113 -37 174 -37c74 0 105 25 105 57c0 36 -48 47 -154 64c-108 17 -196 42 -196 139c0 86 85 151 222 151z" />
    <glyph glyph-name="uni0219" unicode="&#x219;" horiz-adv-x="552" 
d="M517 141c0 -92 -84 -155 -228 -155c-67 0 -155 18 -209 43c-24 11 -37 25 -37 48c0 24 19 49 48 49c14 0 26 -5 37 -9c63 -28 113 -37 174 -37c74 0 105 25 105 57c0 36 -48 47 -154 64c-108 17 -196 42 -196 139c0 86 87 151 224 151c75 0 142 -20 182 -39
c24 -11 34 -27 34 -45c0 -25 -19 -48 -46 -48c-11 0 -23 4 -43 10c-35 13 -84 28 -139 28c-74 0 -102 -29 -102 -53c0 -34 41 -43 153 -61c103 -18 197 -46 197 -142zM282 -221c-31 -5 -74 16 -74 63c0 42 33 70 74 70c42 0 80 -31 80 -90c0 -55 -34 -129 -90 -161
c-13 -8 -26 -11 -37 -11c-20 0 -31 13 -31 26c-1 10 5 21 18 27c33 15 53 39 60 76z" />
    <glyph glyph-name="germandbls" unicode="&#xdf;" horiz-adv-x="690" 
d="M655 139c0 -92 -84 -153 -198 -153c-61 0 -128 15 -165 40c-17 12 -29 27 -29 50s21 48 49 48c13 0 24 -5 35 -12c30 -19 71 -32 112 -32c50 0 83 22 83 52c0 34 -39 49 -113 68c-94 25 -145 51 -145 114c0 106 139 97 139 204c0 44 -37 84 -102 84
c-69 0 -115 -41 -115 -116v-442c0 -30 -24 -50 -57 -50s-56 20 -56 50v445c0 131 93 213 231 213c119 0 212 -70 212 -168c0 -132 -150 -143 -150 -201c0 -25 26 -32 92 -50c86 -24 177 -48 177 -144z" />
    <glyph glyph-name="tbar" unicode="&#x167;" horiz-adv-x="579" 
d="M239 379v-85h89c29 0 50 -18 50 -46c0 -27 -21 -45 -50 -45h-87v-17c0 -67 39 -99 92 -99c59 0 104 32 144 88c10 13 21 19 36 19c24 0 48 -20 48 -46c0 -13 -4 -25 -14 -37c-55 -74 -127 -125 -221 -125c-135 0 -199 93 -199 193v24h-66c-29 0 -50 18 -50 45
c0 28 20 46 50 46h66v85h-71c-27 0 -49 20 -49 49c0 30 22 49 49 49h71v119c0 31 23 50 56 50s56 -20 56 -50v-119h199c26 0 48 -20 48 -49s-22 -49 -48 -49h-199z" />
    <glyph glyph-name="tcaron" unicode="&#x165;" horiz-adv-x="574" 
d="M358 556c0 29 4 95 1 138c-2 30 16 52 50 52c33 0 49 -18 49 -44s-17 -109 -28 -145c-6 -19 -17 -34 -38 -34s-34 14 -34 33zM239 379v-179c0 -83 41 -113 89 -113c57 0 102 31 141 83c12 14 23 22 41 22c22 0 46 -18 46 -45c0 -13 -4 -26 -14 -38
c-54 -74 -129 -123 -224 -123c-114 0 -191 74 -191 205v188h-71c-27 0 -49 20 -49 49c0 30 22 49 49 49h71v125c0 30 23 50 56 50s56 -20 56 -50v-125h203c27 0 49 -20 49 -49c0 -30 -22 -50 -49 -50z" />
    <glyph glyph-name="uni0163" unicode="&#x163;" horiz-adv-x="579" 
d="M239 379v-170c0 -92 43 -122 94 -122c59 0 104 32 144 88c10 13 21 19 36 19c23 0 48 -19 48 -46c0 -13 -4 -25 -14 -37c-49 -66 -111 -113 -195 -123l-12 -36c76 -2 112 -40 112 -84c0 -66 -62 -112 -149 -112c-33 0 -72 6 -87 15c-16 9 -19 22 -19 31c0 17 14 32 31 32
c20 0 41 -11 81 -11c38 0 65 16 65 40c0 22 -28 33 -67 33c-9 0 -15 -1 -21 -1c-23 0 -32 21 -24 42l21 52c-94 14 -156 86 -156 202v188h-71c-27 0 -49 20 -49 49c0 30 22 49 49 49h71v119c0 30 23 50 56 50s56 -20 56 -50v-119h199c26 0 48 -19 48 -49
c0 -29 -22 -49 -48 -49h-199z" />
    <glyph glyph-name="uni021B" unicode="&#x21b;" horiz-adv-x="574" 
d="M239 379v-179c0 -83 41 -113 89 -113c57 0 102 31 141 83c12 14 23 22 41 22c22 0 46 -18 46 -45c0 -13 -4 -26 -14 -38c-54 -74 -129 -123 -224 -123c-114 0 -191 74 -191 205v188h-71c-27 0 -49 20 -49 49c0 30 22 49 49 49h71v125c0 30 23 50 56 50s56 -20 56 -50
v-125h203c27 0 49 -20 49 -49c0 -30 -22 -50 -49 -50zM319 -221c-31 -5 -74 16 -74 63c0 42 33 70 74 70c42 0 80 -31 80 -90c0 -55 -34 -129 -90 -161c-13 -8 -26 -11 -37 -11c-20 0 -31 13 -31 26c-1 10 5 21 18 27c33 15 53 39 60 76z" />
    <glyph glyph-name="uacute" unicode="&#xfa;" horiz-adv-x="683" 
d="M298 541c-21 -14 -48 -11 -60 5c-10 14 -10 37 12 55l132 112c12 10 25 16 38 16c29 0 51 -22 51 -49c0 -15 -9 -29 -27 -41zM475 434c0 31 23 49 56 49s56 -18 56 -49v-62c0 -163 7 -235 32 -303c17 -46 -15 -75 -54 -75c-24 0 -39 16 -50 42c-10 23 -18 57 -24 104h-1
c-50 -94 -125 -154 -218 -154c-122 0 -196 81 -196 232v216c0 31 23 49 56 49s56 -18 56 -49v-209c0 -89 37 -137 108 -137c75 0 148 70 179 163v183z" />
    <glyph glyph-name="ucircumflex" unicode="&#xfb;" horiz-adv-x="683" 
d="M336 729c26 0 39 -12 52 -28c30 -33 66 -72 103 -107c31 -29 7 -62 -23 -62c-17 0 -28 9 -41 21l-91 78l-92 -78c-12 -11 -23 -21 -40 -21c-28 0 -53 33 -23 62c37 35 74 74 104 107c14 16 25 28 51 28zM475 434c0 31 23 49 56 49s56 -18 56 -49v-62
c0 -163 7 -235 32 -303c17 -46 -15 -75 -54 -75c-24 0 -39 16 -50 42c-10 23 -18 57 -24 104h-1c-50 -94 -125 -154 -218 -154c-122 0 -196 81 -196 232v216c0 31 23 49 56 49s56 -18 56 -49v-209c0 -89 37 -137 108 -137c75 0 148 70 179 163v183z" />
    <glyph glyph-name="udieresis" unicode="&#xfc;" horiz-adv-x="683" 
d="M239 554c-33 0 -60 27 -60 60c0 34 27 62 60 62c34 0 62 -28 62 -62c0 -33 -28 -60 -62 -60zM432 554c-33 0 -60 27 -60 60c0 34 27 62 60 62c35 0 62 -28 62 -62c0 -33 -27 -60 -62 -60zM475 434c0 31 23 49 56 49s56 -18 56 -49v-62c0 -163 7 -235 32 -303
c17 -46 -15 -75 -54 -75c-24 0 -39 16 -50 42c-10 23 -18 57 -24 104h-1c-50 -94 -125 -154 -218 -154c-122 0 -196 81 -196 232v216c0 31 23 49 56 49s56 -18 56 -49v-209c0 -89 37 -137 108 -137c75 0 148 70 179 163v183z" />
    <glyph glyph-name="ugrave" unicode="&#xf9;" horiz-adv-x="683" 
d="M421 601c22 -18 22 -41 12 -55c-12 -16 -38 -19 -59 -5l-147 98c-18 12 -26 26 -26 41c-1 27 21 49 50 49c13 0 26 -6 38 -16zM475 434c0 31 23 49 56 49s56 -18 56 -49v-62c0 -163 7 -235 32 -303c17 -46 -15 -75 -54 -75c-24 0 -39 16 -50 42c-10 23 -18 57 -24 104h-1
c-50 -94 -125 -154 -218 -154c-122 0 -196 81 -196 232v216c0 31 23 49 56 49s56 -18 56 -49v-209c0 -89 37 -137 108 -137c75 0 148 70 179 163v183z" />
    <glyph glyph-name="uhungarumlaut" unicode="&#x171;" horiz-adv-x="683" 
d="M258 543c-22 -20 -50 -16 -62 1c-10 14 -8 32 4 47l100 125c10 12 22 19 36 19c26 0 52 -20 51 -47c0 -15 -9 -29 -24 -44zM448 543c-21 -20 -50 -16 -62 1c-10 14 -7 32 5 47l99 125c10 12 23 19 36 19c27 0 52 -20 52 -47c0 -15 -9 -29 -25 -44zM475 434
c0 31 23 49 56 49s56 -18 56 -49v-62c0 -163 7 -235 32 -303c17 -46 -15 -75 -54 -75c-24 0 -39 16 -50 42c-10 23 -18 57 -24 104h-1c-50 -94 -125 -154 -218 -154c-122 0 -196 81 -196 232v216c0 31 23 49 56 49s56 -18 56 -49v-209c0 -89 37 -137 108 -137
c75 0 148 70 179 163v183z" />
    <glyph glyph-name="umacron" unicode="&#x16b;" horiz-adv-x="683" 
d="M215 568c-29 0 -50 18 -50 46c0 27 21 46 50 46h243c29 0 50 -19 50 -46c0 -28 -21 -46 -50 -46h-243zM475 434c0 31 23 49 56 49s56 -18 56 -49v-62c0 -163 7 -235 32 -303c17 -46 -15 -75 -54 -75c-24 0 -39 16 -50 42c-10 23 -18 57 -24 104h-1
c-50 -94 -125 -154 -218 -154c-122 0 -196 81 -196 232v216c0 31 23 49 56 49s56 -18 56 -49v-209c0 -89 37 -137 108 -137c75 0 148 70 179 163v183z" />
    <glyph glyph-name="uogonek" unicode="&#x173;" horiz-adv-x="683" 
d="M531 483c33 0 56 -18 56 -49v-62c0 -163 7 -234 32 -302c17 -45 -13 -66 -37 -72c-77 -21 -135 -46 -135 -85c0 -25 30 -40 60 -40c24 0 43 10 59 20c5 4 12 9 21 9c20 0 36 -18 36 -37c0 -9 -4 -19 -13 -28c-16 -17 -52 -43 -120 -43c-78 0 -144 38 -144 103
s65 110 168 141c-10 24 -17 58 -23 102h-1c-50 -94 -125 -154 -218 -154c-122 0 -196 81 -196 232v216c0 31 23 49 56 49s56 -18 56 -49v-209c0 -89 37 -137 108 -137c75 0 148 70 179 163v183c0 31 23 49 56 49z" />
    <glyph glyph-name="uring" unicode="&#x16f;" horiz-adv-x="683" 
d="M447 636c0 -58 -50 -103 -111 -103c-60 0 -109 45 -109 103s50 102 110 102c61 0 110 -44 110 -102zM337 586c28 0 49 21 49 50c0 28 -21 50 -49 50c-29 0 -50 -22 -50 -50c0 -29 21 -50 50 -50zM475 434c0 31 23 49 56 49s56 -18 56 -49v-62c0 -163 7 -235 32 -303
c17 -46 -15 -75 -54 -75c-24 0 -39 16 -50 42c-10 23 -18 57 -24 104h-1c-50 -94 -125 -154 -218 -154c-122 0 -196 81 -196 232v216c0 31 23 49 56 49s56 -18 56 -49v-209c0 -89 37 -137 108 -137c75 0 148 70 179 163v183z" />
    <glyph glyph-name="wacute" unicode="&#x1e83;" horiz-adv-x="802" 
d="M367 540c-21 -14 -48 -11 -60 5c-10 14 -10 37 12 55l132 112c12 10 25 16 38 16c29 0 51 -22 51 -49c0 -15 -9 -29 -27 -41zM566 107l87 331c8 30 24 46 52 46c38 0 66 -29 51 -74l-111 -357c-12 -37 -44 -59 -82 -59c-40 0 -65 21 -76 61l-86 298l-90 -298
c-11 -39 -42 -61 -79 -61c-41 0 -66 22 -78 60l-108 352c-16 48 14 78 54 78c28 0 47 -17 54 -47l83 -330h2l92 319c11 39 40 58 74 58c33 0 60 -19 71 -59l88 -318h2z" />
    <glyph glyph-name="wcircumflex" unicode="&#x175;" horiz-adv-x="802" 
d="M405 728c26 0 39 -12 52 -28c30 -33 66 -72 103 -107c31 -29 7 -62 -23 -62c-17 0 -28 9 -41 21l-91 78l-92 -78c-12 -11 -23 -21 -40 -21c-28 0 -53 33 -23 62c37 35 74 74 104 107c14 16 25 28 51 28zM566 107l87 331c8 30 24 46 52 46c38 0 66 -29 51 -74l-111 -357
c-12 -37 -44 -59 -82 -59c-40 0 -65 21 -76 61l-86 298l-90 -298c-11 -39 -42 -61 -79 -61c-41 0 -66 22 -78 60l-108 352c-16 48 14 78 54 78c28 0 47 -17 54 -47l83 -330h2l92 319c11 39 40 58 74 58c33 0 60 -19 71 -59l88 -318h2z" />
    <glyph glyph-name="wdieresis" unicode="&#x1e85;" horiz-adv-x="802" 
d="M308 553c-33 0 -60 27 -60 60c0 34 27 62 60 62c34 0 62 -28 62 -62c0 -33 -28 -60 -62 -60zM501 553c-33 0 -60 27 -60 60c0 34 27 62 60 62c35 0 62 -28 62 -62c0 -33 -27 -60 -62 -60zM566 107l87 331c8 30 24 46 52 46c38 0 66 -29 51 -74l-111 -357
c-12 -37 -44 -59 -82 -59c-40 0 -65 21 -76 61l-86 298l-90 -298c-11 -39 -42 -61 -79 -61c-41 0 -66 22 -78 60l-108 352c-16 48 14 78 54 78c28 0 47 -17 54 -47l83 -330h2l92 319c11 39 40 58 74 58c33 0 60 -19 71 -59l88 -318h2z" />
    <glyph glyph-name="wgrave" unicode="&#x1e81;" horiz-adv-x="802" 
d="M490 600c22 -18 22 -41 12 -55c-12 -16 -38 -19 -59 -5l-147 98c-18 12 -26 26 -26 41c-1 27 21 49 50 49c13 0 26 -6 38 -16zM566 107l87 331c8 30 24 46 52 46c38 0 66 -29 51 -74l-111 -357c-12 -37 -44 -59 -82 -59c-40 0 -65 21 -76 61l-86 298l-90 -298
c-11 -39 -42 -61 -79 -61c-41 0 -66 22 -78 60l-108 352c-16 48 14 78 54 78c28 0 47 -17 54 -47l83 -330h2l92 319c11 39 40 58 74 58c33 0 60 -19 71 -59l88 -318h2z" />
    <glyph glyph-name="yacute" unicode="&#xfd;" horiz-adv-x="595" 
d="M263 540c-21 -14 -48 -11 -60 5c-10 14 -10 37 12 55l132 112c12 10 25 16 38 16c29 0 51 -22 51 -49c0 -15 -9 -29 -27 -41zM308 98l162 350c10 24 24 37 48 37c29 0 57 -19 58 -51c0 -11 -3 -22 -8 -34l-263 -560c-15 -32 -30 -43 -55 -43c-32 0 -54 22 -54 50
c0 9 2 18 7 28l58 124c-17 8 -32 23 -45 46l-188 356c-5 11 -9 21 -9 33c0 31 30 51 59 51c25 0 41 -13 53 -37z" />
    <glyph glyph-name="ycircumflex" unicode="&#x177;" horiz-adv-x="595" 
d="M301 728c26 0 39 -12 52 -28c30 -33 66 -72 103 -107c31 -29 7 -62 -23 -62c-17 0 -28 9 -41 21l-91 78l-92 -78c-12 -11 -23 -21 -40 -21c-28 0 -53 33 -23 62c37 35 74 74 104 107c14 16 25 28 51 28zM308 98l162 350c10 24 24 37 48 37c29 0 57 -19 58 -51
c0 -11 -3 -22 -8 -34l-263 -560c-15 -32 -30 -43 -55 -43c-32 0 -54 22 -54 50c0 9 2 18 7 28l58 124c-17 8 -32 23 -45 46l-188 356c-5 11 -9 21 -9 33c0 31 30 51 59 51c25 0 41 -13 53 -37z" />
    <glyph glyph-name="ydieresis" unicode="&#xff;" horiz-adv-x="595" 
d="M204 553c-33 0 -60 27 -60 60c0 34 27 62 60 62c34 0 62 -28 62 -62c0 -33 -28 -60 -62 -60zM397 553c-33 0 -60 27 -60 60c0 34 27 62 60 62c35 0 62 -28 62 -62c0 -33 -27 -60 -62 -60zM308 98l162 350c10 24 24 37 48 37c29 0 57 -19 58 -51c0 -11 -3 -22 -8 -34
l-263 -560c-15 -32 -30 -43 -55 -43c-32 0 -54 22 -54 50c0 9 2 18 7 28l58 124c-17 8 -32 23 -45 46l-188 356c-5 11 -9 21 -9 33c0 31 30 51 59 51c25 0 41 -13 53 -37z" />
    <glyph glyph-name="ygrave" unicode="&#x1ef3;" horiz-adv-x="595" 
d="M386 600c22 -18 22 -41 12 -55c-12 -16 -38 -19 -59 -5l-147 98c-18 12 -26 26 -26 41c-1 27 21 49 50 49c13 0 26 -6 38 -16zM308 98l162 350c10 24 24 37 48 37c29 0 57 -19 58 -51c0 -11 -3 -22 -8 -34l-263 -560c-15 -32 -30 -43 -55 -43c-32 0 -54 22 -54 50
c0 9 2 18 7 28l58 124c-17 8 -32 23 -45 46l-188 356c-5 11 -9 21 -9 33c0 31 30 51 59 51c25 0 41 -13 53 -37z" />
    <glyph glyph-name="zacute" unicode="&#x17a;" horiz-adv-x="543" 
d="M244 540c-21 -14 -48 -11 -60 5c-10 14 -10 37 12 55l132 112c12 10 25 16 38 16c29 0 51 -22 51 -49c0 -15 -9 -29 -27 -41zM464 99c29 0 54 -17 54 -50c0 -32 -25 -49 -54 -49h-376c-28 0 -46 24 -46 49c0 13 5 28 18 40l287 294v2c-84 -4 -168 -6 -242 -6
c-26 0 -48 20 -48 49c0 30 22 49 48 49h347c28 0 48 -24 48 -48c0 -14 -5 -28 -17 -41l-287 -293v-2c84 4 188 6 268 6z" />
    <glyph glyph-name="zcaron" unicode="&#x17e;" horiz-adv-x="543" 
d="M373 713c13 12 24 21 41 21c30 0 54 -33 23 -62c-37 -35 -73 -74 -103 -107c-13 -16 -26 -28 -52 -28s-37 12 -51 28c-30 33 -67 72 -104 107c-30 29 -5 62 23 62c17 0 28 -10 40 -21l92 -77zM464 99c29 0 54 -17 54 -50c0 -32 -25 -49 -54 -49h-376c-28 0 -46 24 -46 49
c0 13 5 28 18 40l287 294v2c-84 -4 -168 -6 -242 -6c-26 0 -48 20 -48 49c0 30 22 49 48 49h347c28 0 48 -24 48 -48c0 -14 -5 -28 -17 -41l-287 -293v-2c84 4 188 6 268 6z" />
    <glyph glyph-name="zdotaccent" unicode="&#x17c;" horiz-adv-x="543" 
d="M282 555c-42 0 -76 33 -76 75c0 41 34 75 76 75s76 -34 76 -75c0 -42 -34 -75 -76 -75zM464 99c29 0 54 -17 54 -50c0 -32 -25 -49 -54 -49h-376c-28 0 -46 24 -46 49c0 13 5 28 18 40l287 294v2c-84 -4 -168 -6 -242 -6c-26 0 -48 20 -48 49c0 30 22 49 48 49h347
c28 0 48 -24 48 -48c0 -14 -5 -28 -17 -41l-287 -293v-2c84 4 188 6 268 6z" />
    <glyph glyph-name="a.alt" horiz-adv-x="697" 
d="M48 239c0 146 105 252 232 252c111 0 172 -59 219 -138h2c-1 30 2 63 4 84c4 31 24 46 57 46c36 0 59 -22 56 -56c-8 -80 -12 -123 -12 -161c0 -74 8 -136 41 -193c20 -34 -5 -78 -53 -78c-21 0 -36 9 -48 29c-12 18 -29 60 -36 113h-2c-55 -88 -118 -151 -226 -151
c-128 0 -234 106 -234 253zM489 239c-34 89 -109 151 -187 151c-81 0 -142 -62 -142 -150s61 -153 144 -153c76 0 151 64 185 152z" />
    <glyph glyph-name="aacute.alt" horiz-adv-x="697" 
d="M294 541c-21 -14 -48 -11 -60 5c-10 14 -10 37 12 55l132 112c12 10 25 16 38 16c29 0 51 -22 51 -49c0 -15 -9 -29 -27 -41zM48 239c0 146 105 252 232 252c111 0 172 -59 219 -138h2c-1 30 2 63 4 84c4 31 24 46 57 46c36 0 59 -22 56 -56c-8 -80 -12 -123 -12 -161
c0 -74 8 -136 41 -193c20 -34 -5 -78 -53 -78c-21 0 -36 9 -48 29c-12 18 -29 60 -36 113h-2c-55 -88 -118 -151 -226 -151c-128 0 -234 106 -234 253zM489 239c-34 89 -109 151 -187 151c-81 0 -142 -62 -142 -150s61 -153 144 -153c76 0 151 64 185 152z" />
    <glyph glyph-name="abreve.alt" horiz-adv-x="697" 
d="M332 550c-113 0 -177 83 -177 142c0 24 19 37 43 37c19 0 31 -12 35 -23c19 -51 51 -73 99 -73c47 0 79 22 98 73c5 11 17 23 36 23c23 0 43 -13 43 -37c0 -59 -65 -142 -177 -142zM48 239c0 146 105 252 232 252c111 0 172 -59 219 -138h2c-1 30 2 63 4 84
c4 31 24 46 57 46c36 0 59 -22 56 -56c-8 -80 -12 -123 -12 -161c0 -74 8 -136 41 -193c20 -34 -5 -78 -53 -78c-21 0 -36 9 -48 29c-12 18 -29 60 -36 113h-2c-55 -88 -118 -151 -226 -151c-128 0 -234 106 -234 253zM489 239c-34 89 -109 151 -187 151
c-81 0 -142 -62 -142 -150s61 -153 144 -153c76 0 151 64 185 152z" />
    <glyph glyph-name="acircumflex.alt" horiz-adv-x="697" 
d="M332 729c26 0 39 -12 52 -28c30 -33 66 -72 103 -107c31 -29 7 -62 -23 -62c-17 0 -28 9 -41 21l-91 78l-92 -78c-12 -11 -23 -21 -40 -21c-28 0 -53 33 -23 62c37 35 74 74 104 107c14 16 25 28 51 28zM48 239c0 146 105 252 232 252c111 0 172 -59 219 -138h2
c-1 30 2 63 4 84c4 31 24 46 57 46c36 0 59 -22 56 -56c-8 -80 -12 -123 -12 -161c0 -74 8 -136 41 -193c20 -34 -5 -78 -53 -78c-21 0 -36 9 -48 29c-12 18 -29 60 -36 113h-2c-55 -88 -118 -151 -226 -151c-128 0 -234 106 -234 253zM489 239c-34 89 -109 151 -187 151
c-81 0 -142 -62 -142 -150s61 -153 144 -153c76 0 151 64 185 152z" />
    <glyph glyph-name="adieresis.alt" horiz-adv-x="697" 
d="M235 554c-33 0 -60 27 -60 60c0 34 27 62 60 62c34 0 62 -28 62 -62c0 -33 -28 -60 -62 -60zM428 554c-33 0 -60 27 -60 60c0 34 27 62 60 62c35 0 62 -28 62 -62c0 -33 -27 -60 -62 -60zM48 239c0 146 105 252 232 252c111 0 172 -59 219 -138h2c-1 30 2 63 4 84
c4 31 24 46 57 46c36 0 59 -22 56 -56c-8 -80 -12 -123 -12 -161c0 -74 8 -136 41 -193c20 -34 -5 -78 -53 -78c-21 0 -36 9 -48 29c-12 18 -29 60 -36 113h-2c-55 -88 -118 -151 -226 -151c-128 0 -234 106 -234 253zM489 239c-34 89 -109 151 -187 151
c-81 0 -142 -62 -142 -150s61 -153 144 -153c76 0 151 64 185 152z" />
    <glyph glyph-name="agrave.alt" horiz-adv-x="697" 
d="M417 601c22 -18 22 -41 12 -55c-12 -16 -38 -19 -59 -5l-147 98c-18 12 -26 26 -26 41c-1 27 21 49 50 49c13 0 26 -6 38 -16zM48 239c0 146 105 252 232 252c111 0 172 -59 219 -138h2c-1 30 2 63 4 84c4 31 24 46 57 46c36 0 59 -22 56 -56c-8 -80 -12 -123 -12 -161
c0 -74 8 -136 41 -193c20 -34 -5 -78 -53 -78c-21 0 -36 9 -48 29c-12 18 -29 60 -36 113h-2c-55 -88 -118 -151 -226 -151c-128 0 -234 106 -234 253zM489 239c-34 89 -109 151 -187 151c-81 0 -142 -62 -142 -150s61 -153 144 -153c76 0 151 64 185 152z" />
    <glyph glyph-name="amacron.alt" horiz-adv-x="697" 
d="M211 568c-29 0 -50 18 -50 46c0 27 21 46 50 46h243c29 0 50 -19 50 -46c0 -28 -21 -46 -50 -46h-243zM48 239c0 146 105 252 232 252c111 0 172 -59 219 -138h2c-1 30 2 63 4 84c4 31 24 46 57 46c36 0 59 -22 56 -56c-8 -80 -12 -123 -12 -161c0 -74 8 -136 41 -193
c20 -34 -5 -78 -53 -78c-21 0 -36 9 -48 29c-12 18 -29 60 -36 113h-2c-55 -88 -118 -151 -226 -151c-128 0 -234 106 -234 253zM489 239c-34 89 -109 151 -187 151c-81 0 -142 -62 -142 -150s61 -153 144 -153c76 0 151 64 185 152z" />
    <glyph glyph-name="aogonek.alt" horiz-adv-x="717" 
d="M615 -97c20 0 36 -18 36 -35c0 -10 -4 -20 -11 -29c-11 -14 -47 -44 -119 -44c-76 0 -147 38 -147 102s56 101 166 138c-11 21 -24 57 -30 102h-2c-55 -88 -118 -151 -226 -151c-128 0 -234 106 -234 253c0 146 105 252 232 252c111 0 172 -59 219 -138h2
c-1 30 2 63 4 84c4 31 24 46 57 46c36 0 59 -22 56 -56c-8 -80 -12 -123 -12 -161c0 -74 6 -135 39 -189c5 -8 9 -17 9 -27c0 -26 -16 -49 -64 -61c-65 -17 -115 -37 -115 -75c0 -26 30 -40 62 -40c21 0 42 8 57 19c6 4 12 10 21 10zM489 239c-34 89 -109 151 -187 151
c-81 0 -142 -62 -142 -150s61 -153 144 -153c76 0 151 64 185 152z" />
    <glyph glyph-name="aring.alt" horiz-adv-x="697" 
d="M443 636c0 -58 -50 -103 -111 -103c-60 0 -109 45 -109 103s50 102 110 102c61 0 110 -44 110 -102zM333 586c28 0 49 21 49 50c0 28 -21 50 -49 50c-29 0 -50 -22 -50 -50c0 -29 21 -50 50 -50zM48 239c0 146 105 252 232 252c111 0 172 -59 219 -138h2c-1 30 2 63 4 84
c4 31 24 46 57 46c36 0 59 -22 56 -56c-8 -80 -12 -123 -12 -161c0 -74 8 -136 41 -193c20 -34 -5 -78 -53 -78c-21 0 -36 9 -48 29c-12 18 -29 60 -36 113h-2c-55 -88 -118 -151 -226 -151c-128 0 -234 106 -234 253zM489 239c-34 89 -109 151 -187 151
c-81 0 -142 -62 -142 -150s61 -153 144 -153c76 0 151 64 185 152z" />
    <glyph glyph-name="atilde.alt" horiz-adv-x="697" 
d="M391 631c18 0 24 15 30 29c7 16 18 23 36 23c19 0 38 -12 38 -41c0 -45 -33 -91 -89 -91c-58 0 -99 50 -135 50c-18 0 -24 -14 -30 -28c-7 -16 -18 -24 -36 -24c-19 0 -38 12 -38 41c0 45 33 92 89 92c59 0 99 -51 135 -51zM48 239c0 146 105 252 232 252
c111 0 172 -59 219 -138h2c-1 30 2 63 4 84c4 31 24 46 57 46c36 0 59 -22 56 -56c-8 -80 -12 -123 -12 -161c0 -74 8 -136 41 -193c20 -34 -5 -78 -53 -78c-21 0 -36 9 -48 29c-12 18 -29 60 -36 113h-2c-55 -88 -118 -151 -226 -151c-128 0 -234 106 -234 253zM489 239
c-34 89 -109 151 -187 151c-81 0 -142 -62 -142 -150s61 -153 144 -153c76 0 151 64 185 152z" />
    <glyph glyph-name="ae.alt" horiz-adv-x="1025" 
d="M48 230c0 146 109 261 284 261c77 0 156 -15 244 -52c43 32 97 52 156 52c134 0 223 -87 223 -201c0 -44 -20 -73 -70 -73h-306c7 -89 90 -134 174 -134c63 0 112 20 156 51c11 8 21 14 35 14c26 0 47 -22 47 -48c0 -14 -7 -28 -24 -41c-50 -42 -135 -73 -211 -73
c-118 0 -212 57 -251 154c-60 -103 -134 -154 -224 -154c-140 0 -233 99 -233 244zM845 295c5 0 7 3 7 8c0 52 -48 99 -125 99c-73 0 -125 -39 -145 -107h263zM506 362c-52 24 -106 32 -164 32c-117 0 -182 -72 -182 -163c0 -81 50 -144 133 -144c85 0 159 79 213 275z" />
    <glyph glyph-name="g.alt" horiz-adv-x="593" 
d="M287 138c-26 0 -49 3 -71 8c-15 -4 -32 -19 -32 -34c0 -17 15 -28 49 -31c59 -6 147 -2 206 -7c105 -9 149 -64 149 -123c0 -104 -110 -182 -309 -182c-164 0 -264 64 -264 149c0 47 35 91 88 117c-18 15 -28 35 -28 57c0 34 27 61 68 81c-54 32 -86 83 -86 143
c0 99 94 176 230 176c45 0 85 -9 120 -24c48 36 80 57 106 65c29 9 59 1 68 -30c10 -32 -8 -61 -49 -65l-65 -14c30 -30 49 -66 49 -109c0 -98 -93 -177 -229 -177zM398 314c0 50 -45 93 -116 93c-68 0 -113 -42 -113 -91c0 -50 47 -93 115 -93c69 0 114 42 114 91zM228 -8
c-29 1 -45 4 -62 8c-23 -12 -42 -35 -42 -60c0 -50 59 -81 171 -81c114 0 176 36 176 80c0 25 -22 45 -78 45z" />
    <glyph glyph-name="gbreve.alt" horiz-adv-x="593" 
d="M294 550c-113 0 -177 83 -177 142c0 24 19 37 43 37c19 0 31 -12 35 -23c19 -51 51 -73 99 -73c47 0 79 22 98 73c5 11 17 23 36 23c23 0 43 -13 43 -37c0 -59 -65 -142 -177 -142zM287 138c-26 0 -49 3 -71 8c-15 -4 -32 -19 -32 -34c0 -17 15 -28 49 -31
c59 -6 147 -2 206 -7c105 -9 149 -64 149 -123c0 -104 -110 -182 -309 -182c-164 0 -264 64 -264 149c0 47 35 91 88 117c-18 15 -28 35 -28 57c0 34 27 61 68 81c-54 32 -86 83 -86 143c0 99 94 176 230 176c45 0 85 -9 120 -24c48 36 80 57 106 65c29 9 59 1 68 -30
c10 -32 -8 -61 -49 -65l-65 -14c30 -30 49 -66 49 -109c0 -98 -93 -177 -229 -177zM398 314c0 50 -45 93 -116 93c-68 0 -113 -42 -113 -91c0 -50 47 -93 115 -93c69 0 114 42 114 91zM228 -8c-29 1 -45 4 -62 8c-23 -12 -42 -35 -42 -60c0 -50 59 -81 171 -81
c114 0 176 36 176 80c0 25 -22 45 -78 45z" />
    <glyph glyph-name="gcommaaccent.alt" horiz-adv-x="593" 
d="M289 691c32 4 74 -17 74 -63c0 -42 -33 -70 -74 -70c-42 0 -79 30 -79 90c0 55 33 128 90 161c13 7 25 10 37 10c19 0 30 -12 31 -26c0 -10 -5 -21 -19 -27c-33 -14 -52 -39 -60 -75zM287 138c-26 0 -49 3 -71 8c-15 -4 -32 -19 -32 -34c0 -17 15 -28 49 -31
c59 -6 147 -2 206 -7c105 -9 149 -64 149 -123c0 -104 -110 -182 -309 -182c-164 0 -264 64 -264 149c0 47 35 91 88 117c-18 15 -28 35 -28 57c0 34 27 61 68 81c-54 32 -86 83 -86 143c0 99 94 176 230 176c45 0 85 -9 120 -24c48 36 80 57 106 65c29 9 59 1 68 -30
c10 -32 -8 -61 -49 -65l-65 -14c30 -30 49 -66 49 -109c0 -98 -93 -177 -229 -177zM398 314c0 50 -45 93 -116 93c-68 0 -113 -42 -113 -91c0 -50 47 -93 115 -93c69 0 114 42 114 91zM228 -8c-29 1 -45 4 -62 8c-23 -12 -42 -35 -42 -60c0 -50 59 -81 171 -81
c114 0 176 36 176 80c0 25 -22 45 -78 45z" />
    <glyph glyph-name="gdotaccent.alt" horiz-adv-x="593" 
d="M294 556c-42 0 -76 33 -76 75c0 41 34 75 76 75s76 -34 76 -75c0 -42 -34 -75 -76 -75zM287 138c-26 0 -49 3 -71 8c-15 -4 -32 -19 -32 -34c0 -17 15 -28 49 -31c59 -6 147 -2 206 -7c105 -9 149 -64 149 -123c0 -104 -110 -182 -309 -182c-164 0 -264 64 -264 149
c0 47 35 91 88 117c-18 15 -28 35 -28 57c0 34 27 61 68 81c-54 32 -86 83 -86 143c0 99 94 176 230 176c45 0 85 -9 120 -24c48 36 80 57 106 65c29 9 59 1 68 -30c10 -32 -8 -61 -49 -65l-65 -14c30 -30 49 -66 49 -109c0 -98 -93 -177 -229 -177zM398 314
c0 50 -45 93 -116 93c-68 0 -113 -42 -113 -91c0 -50 47 -93 115 -93c69 0 114 42 114 91zM228 -8c-29 1 -45 4 -62 8c-23 -12 -42 -35 -42 -60c0 -50 59 -81 171 -81c114 0 176 36 176 80c0 25 -22 45 -78 45z" />
    <glyph glyph-name="g.alt2" horiz-adv-x="703" 
d="M501 55v73l-2 1c-44 -61 -111 -109 -218 -109c-124 0 -233 100 -233 235s109 236 233 236c112 0 178 -55 219 -117l2 1v61c0 30 20 48 53 48c29 0 55 -18 55 -47v-381c0 -138 -96 -256 -275 -256c-80 0 -157 16 -225 49c-25 12 -39 29 -39 53c0 29 20 51 48 51
c16 0 30 -6 41 -11c51 -23 115 -41 171 -41c107 0 170 64 170 154zM500 255c-34 76 -120 135 -196 135c-81 0 -144 -56 -144 -135s63 -135 144 -135c76 0 162 58 196 135z" />
    <glyph glyph-name="gbreve.alt2" horiz-adv-x="703" 
d="M327 550c-113 0 -177 83 -177 142c0 24 19 37 43 37c19 0 31 -12 35 -23c19 -51 51 -73 99 -73c47 0 79 22 98 73c5 11 17 23 36 23c23 0 43 -13 43 -37c0 -59 -65 -142 -177 -142zM501 55v73l-2 1c-44 -61 -111 -109 -218 -109c-124 0 -233 100 -233 235
s109 236 233 236c112 0 178 -55 219 -117l2 1v61c0 30 20 48 53 48c29 0 55 -18 55 -47v-381c0 -138 -96 -256 -275 -256c-80 0 -157 16 -225 49c-25 12 -39 29 -39 53c0 29 20 51 48 51c16 0 30 -6 41 -11c51 -23 115 -41 171 -41c107 0 170 64 170 154zM500 255
c-34 76 -120 135 -196 135c-81 0 -144 -56 -144 -135s63 -135 144 -135c76 0 162 58 196 135z" />
    <glyph glyph-name="gcommaaccent.alt2" horiz-adv-x="703" 
d="M327 691c32 4 74 -17 74 -63c0 -42 -33 -70 -74 -70c-42 0 -79 30 -79 90c0 55 33 128 90 161c13 7 25 10 37 10c19 0 30 -12 31 -26c0 -10 -5 -21 -19 -27c-33 -14 -52 -39 -60 -75zM501 55v73l-2 1c-44 -61 -111 -109 -218 -109c-124 0 -233 100 -233 235
s109 236 233 236c112 0 178 -55 219 -117l2 1v61c0 30 20 48 53 48c29 0 55 -18 55 -47v-381c0 -138 -96 -256 -275 -256c-80 0 -157 16 -225 49c-25 12 -39 29 -39 53c0 29 20 51 48 51c16 0 30 -6 41 -11c51 -23 115 -41 171 -41c107 0 170 64 170 154zM500 255
c-34 76 -120 135 -196 135c-81 0 -144 -56 -144 -135s63 -135 144 -135c76 0 162 58 196 135z" />
    <glyph glyph-name="gdotaccent.alt2" horiz-adv-x="703" 
d="M327 556c-42 0 -76 33 -76 75c0 41 34 75 76 75s76 -34 76 -75c0 -42 -34 -75 -76 -75zM501 55v73l-2 1c-44 -61 -111 -109 -218 -109c-124 0 -233 100 -233 235s109 236 233 236c112 0 178 -55 219 -117l2 1v61c0 30 20 48 53 48c29 0 55 -18 55 -47v-381
c0 -138 -96 -256 -275 -256c-80 0 -157 16 -225 49c-25 12 -39 29 -39 53c0 29 20 51 48 51c16 0 30 -6 41 -11c51 -23 115 -41 171 -41c107 0 170 64 170 154zM500 255c-34 76 -120 135 -196 135c-81 0 -144 -56 -144 -135s63 -135 144 -135c76 0 162 58 196 135z" />
    <glyph glyph-name="l.alt" horiz-adv-x="306" 
d="M93 644c0 30 23 50 56 50s57 -20 57 -50l-1 -358c0 -110 11 -155 33 -216c17 -44 -17 -77 -56 -77c-29 0 -49 29 -60 57c-17 48 -29 112 -29 204v390z" />
    <glyph glyph-name="lacute.alt" horiz-adv-x="306" 
d="M112 766c-21 -14 -48 -11 -60 5c-10 14 -10 37 12 55l132 112c12 10 25 16 38 16c29 0 51 -22 51 -49c0 -15 -9 -29 -27 -41zM93 644c0 30 23 50 56 50s57 -20 57 -50l-1 -358c0 -110 11 -155 33 -216c17 -44 -17 -77 -56 -77c-29 0 -49 29 -60 57
c-17 48 -29 112 -29 204v390z" />
    <glyph glyph-name="lcaron.alt" horiz-adv-x="318" 
d="M93 644c0 30 23 50 56 50s57 -20 57 -50l-1 -358c0 -110 11 -155 33 -216c17 -44 -17 -77 -56 -77c-29 0 -49 29 -60 57c-17 48 -29 112 -29 204v390zM270 504c0 29 4 95 1 138c-2 30 16 52 50 52c33 0 49 -18 49 -44s-17 -109 -28 -145c-6 -19 -17 -34 -38 -34
s-34 14 -34 33z" />
    <glyph glyph-name="lcommaaccent.alt" horiz-adv-x="306" 
d="M93 644c0 30 23 50 56 50s57 -20 57 -50l-1 -358c0 -110 11 -155 33 -216c17 -44 -17 -77 -56 -77c-29 0 -49 29 -60 57c-17 48 -29 112 -29 204v390zM177 -221c-31 -5 -74 16 -74 63c0 42 33 70 74 70c42 0 80 -31 80 -90c0 -55 -34 -129 -90 -161
c-13 -8 -26 -11 -37 -11c-20 0 -31 13 -31 26c-1 10 5 21 18 27c33 15 53 39 60 76z" />
    <glyph glyph-name="ldot.alt" horiz-adv-x="366" 
d="M93 644c0 30 23 50 56 50s57 -20 57 -50l-1 -358c0 -110 11 -155 33 -216c17 -44 -17 -77 -56 -77c-29 0 -49 29 -60 57c-17 48 -29 112 -29 204v390zM339 265c-42 0 -76 33 -76 75c0 41 34 75 76 75s76 -34 76 -75c0 -42 -34 -75 -76 -75z" />
    <glyph glyph-name="lslash.alt" horiz-adv-x="398" 
d="M252 397l58 26c25 11 53 2 64 -25c12 -27 0 -54 -24 -65l-98 -44v-18c1 -100 11 -143 33 -201c16 -44 -18 -77 -56 -77c-29 0 -49 29 -60 57c-16 43 -28 95 -28 176v14l-52 -22c-25 -11 -53 -1 -65 26s0 53 25 64l91 40v296c0 30 23 50 56 50s56 -20 56 -50v-247z" />
    <glyph glyph-name="ordmasculine" unicode="&#xba;" horiz-adv-x="504" 
d="M252 264c-125 0 -214 87 -214 200s89 200 214 200s214 -87 214 -200s-89 -200 -214 -200zM252 355c63 0 111 44 111 109c0 64 -49 109 -111 109c-63 0 -111 -45 -111 -109c0 -65 49 -109 111 -109z" />
    <glyph glyph-name="ordfeminine" unicode="&#xaa;" horiz-adv-x="491" 
d="M338 344c-35 -46 -100 -79 -162 -79c-78 0 -140 52 -140 124c0 71 58 125 145 125c49 0 103 -16 149 -47v53c0 43 -34 60 -81 60c-37 0 -68 -6 -105 -17c-8 -2 -17 -5 -30 -5c-20 0 -38 16 -38 41c0 17 12 33 31 40c38 14 84 25 144 25c110 0 174 -44 174 -145v-85
c0 -46 9 -74 15 -97c11 -33 -2 -65 -42 -65c-34 0 -48 24 -59 72h-1zM330 408c-38 25 -84 39 -125 39c-47 0 -74 -22 -74 -52c0 -33 31 -52 75 -52c48 0 97 29 124 65z" />
    <glyph glyph-name="ampersand" unicode="&#x26;" horiz-adv-x="724" 
d="M53 144c0 71 53 115 145 158c-84 67 -113 115 -113 180c0 97 84 190 224 190c127 0 214 -75 214 -185c0 -92 -65 -144 -156 -192l144 -107c26 34 39 72 48 106c8 30 12 69 53 69c25 0 53 -17 53 -52c0 -41 -31 -116 -78 -177l60 -44c13 -9 29 -23 29 -46
c0 -27 -22 -54 -53 -54c-20 0 -34 11 -53 26l-59 44c-56 -43 -131 -72 -227 -72c-142 0 -231 63 -231 156zM196 477c0 -42 26 -72 100 -130c75 38 124 72 124 133c0 58 -47 96 -111 96s-113 -44 -113 -99zM297 81c54 0 100 16 137 39l-165 127c-64 -31 -102 -55 -102 -92
c0 -45 56 -74 130 -74z" />
    <glyph glyph-name="ampersand.alt" horiz-adv-x="762" 
d="M56 167c0 77 53 151 157 171c-59 44 -83 98 -83 150c0 93 78 184 209 184c118 0 201 -72 201 -183c0 -62 -36 -130 -85 -174c31 -15 62 -36 92 -62c23 49 35 95 47 138c8 21 22 34 46 34c29 0 57 -16 54 -57c-6 -59 -32 -122 -70 -185c26 -32 51 -67 75 -109
c6 -11 10 -21 10 -33c0 -27 -21 -50 -54 -50c-19 0 -35 7 -46 25c-19 28 -36 56 -54 80c-64 -67 -157 -110 -254 -110c-141 0 -245 75 -245 181zM240 488c0 -60 40 -105 129 -139c42 34 63 86 63 133c0 56 -37 99 -96 99c-57 0 -96 -43 -96 -93zM311 82c73 0 136 33 182 86
c-66 68 -132 102 -198 102c-78 0 -123 -40 -123 -91c0 -54 53 -97 139 -97z" />
    <glyph glyph-name="period" unicode="." horiz-adv-x="305" 
d="M152 -8c-44 0 -80 36 -80 80c0 45 36 81 80 81c45 0 81 -36 81 -81c0 -44 -36 -80 -81 -80z" />
    <glyph glyph-name="comma" unicode="," horiz-adv-x="305" 
d="M150 4c-37 -5 -80 19 -80 68c0 42 33 73 79 73c48 0 88 -31 88 -96c0 -59 -36 -133 -99 -167c-14 -8 -29 -12 -41 -12c-22 0 -34 13 -34 27c0 12 5 22 20 29c38 17 58 40 67 78z" />
    <glyph glyph-name="colon" unicode=":" horiz-adv-x="305" 
d="M152 323c-44 0 -80 36 -80 80s36 80 80 80c45 0 81 -36 81 -80s-36 -80 -81 -80zM152 -8c-44 0 -80 36 -80 80c0 45 36 81 80 81c45 0 81 -36 81 -81c0 -44 -36 -80 -81 -80z" />
    <glyph glyph-name="semicolon" unicode=";" horiz-adv-x="305" 
d="M152 323c-44 0 -80 36 -80 80s36 80 80 80c45 0 81 -36 81 -80s-36 -80 -81 -80zM150 4c-37 -5 -80 19 -80 68c0 42 33 73 79 73c48 0 88 -31 88 -96c0 -59 -36 -133 -99 -167c-14 -8 -29 -12 -41 -12c-22 0 -34 13 -34 27c0 12 5 22 20 29c38 17 58 40 67 78z" />
    <glyph glyph-name="ellipsis" unicode="&#x2026;" horiz-adv-x="914" 
d="M152 -8c-44 0 -80 36 -80 80c0 45 36 81 80 81c45 0 81 -36 81 -81c0 -44 -36 -80 -81 -80zM457 -8c-45 0 -81 36 -81 80c0 45 36 81 81 81s81 -36 81 -81c0 -44 -36 -80 -81 -80zM761 -8c-44 0 -80 36 -80 80c0 45 36 81 80 81c45 0 81 -36 81 -81
c0 -44 -36 -80 -81 -80z" />
    <glyph glyph-name="exclam" unicode="!" horiz-adv-x="321" 
d="M200 243c-1 -19 -17 -34 -40 -34c-22 0 -38 15 -39 34l-23 361c-2 36 28 61 62 61c35 0 65 -25 63 -61zM160 -8c-44 0 -80 36 -80 80c0 45 36 81 80 81c45 0 81 -36 81 -81c0 -44 -36 -80 -81 -80z" />
    <glyph glyph-name="exclamdown" unicode="&#xa1;" horiz-adv-x="321" 
d="M160 666c45 0 81 -36 81 -80c0 -45 -36 -81 -81 -81c-44 0 -80 36 -80 81c0 44 36 80 80 80zM200 415l23 -361c2 -36 -28 -61 -63 -61c-34 0 -64 25 -62 61l23 361c1 19 17 34 39 34c23 0 39 -15 40 -34z" />
    <glyph glyph-name="question" unicode="?" horiz-adv-x="586" 
d="M315 234c-2 -24 -26 -35 -49 -35c-29 0 -56 17 -56 55c0 107 205 119 205 227c0 51 -43 91 -124 91c-90 0 -127 -45 -127 -82c0 -22 6 -36 18 -49c6 -9 11 -16 11 -29c0 -22 -22 -42 -52 -42c-49 0 -95 54 -95 125c-1 89 87 176 250 176c148 0 241 -73 241 -177
c0 -169 -218 -188 -222 -260zM267 -8c-45 0 -81 36 -81 80c0 45 36 81 81 81s81 -36 81 -81c0 -44 -36 -80 -81 -80z" />
    <glyph glyph-name="questiondown" unicode="&#xbf;" horiz-adv-x="586" 
d="M319 667c45 0 81 -36 81 -80c0 -45 -36 -81 -81 -81s-81 36 -81 81c0 44 36 80 81 80zM271 425c2 24 26 35 49 35c29 0 56 -17 56 -55c0 -107 -205 -119 -205 -227c0 -51 43 -91 124 -91c90 0 127 45 127 82c0 22 -6 36 -18 49c-6 9 -11 16 -11 29c0 22 22 42 52 42
c49 0 95 -54 95 -125c1 -89 -87 -176 -250 -176c-148 0 -241 73 -241 177c0 169 218 188 222 260z" />
    <glyph glyph-name="quotesingle" unicode="'" horiz-adv-x="223" 
d="M60 602c-3 36 16 59 51 59s55 -23 52 -59l-15 -180c-2 -19 -15 -33 -37 -33s-35 14 -37 33z" />
    <glyph glyph-name="quotedbl" unicode="&#x22;" horiz-adv-x="400" 
d="M60 602c-3 36 16 59 51 59s55 -23 52 -59l-15 -180c-2 -19 -15 -33 -37 -33s-35 14 -37 33zM237 602c-3 36 16 59 51 59s55 -23 52 -59l-15 -180c-2 -19 -15 -33 -37 -33s-35 14 -37 33z" />
    <glyph glyph-name="quoteleft" unicode="&#x2018;" horiz-adv-x="300" 
d="M149 536c37 4 80 -19 80 -68c0 -42 -33 -73 -79 -73c-48 0 -88 31 -88 96c0 59 36 133 99 167c14 7 29 11 41 11c22 0 34 -13 34 -27c0 -11 -5 -22 -20 -28c-38 -17 -58 -40 -67 -78z" />
    <glyph glyph-name="quoteright" unicode="&#x2019;" horiz-adv-x="300" 
d="M150 530c-37 -5 -80 19 -80 68c0 42 33 73 79 73c48 0 88 -31 88 -96c0 -59 -36 -133 -99 -167c-14 -8 -29 -12 -41 -12c-22 0 -34 13 -34 27c0 12 5 22 20 29c38 17 58 40 67 78z" />
    <glyph glyph-name="quotedblleft" unicode="&#x201c;" horiz-adv-x="525" 
d="M149 536c37 4 80 -19 80 -68c0 -42 -33 -73 -79 -73c-48 0 -88 31 -88 96c0 59 36 133 99 167c14 7 29 11 41 11c22 0 34 -13 34 -27c0 -11 -5 -22 -20 -28c-38 -17 -58 -40 -67 -78zM374 536c37 4 80 -19 80 -68c0 -42 -33 -73 -79 -73c-48 0 -88 31 -88 96
c0 59 36 133 99 167c14 7 29 11 41 11c22 0 34 -13 34 -27c0 -11 -5 -22 -20 -28c-38 -17 -58 -40 -67 -78z" />
    <glyph glyph-name="quotedblright" unicode="&#x201d;" horiz-adv-x="525" 
d="M150 530c-37 -5 -80 19 -80 68c0 42 33 73 79 73c48 0 88 -31 88 -96c0 -59 -36 -133 -99 -167c-14 -8 -29 -12 -41 -12c-22 0 -34 13 -34 27c0 12 5 22 20 29c38 17 58 40 67 78zM375 530c-37 -5 -80 19 -80 68c0 42 33 73 79 73c48 0 88 -31 88 -96
c0 -59 -36 -133 -99 -167c-14 -8 -29 -12 -41 -12c-22 0 -34 13 -34 27c0 12 5 22 20 29c38 17 58 40 67 78z" />
    <glyph glyph-name="quotesinglbase" unicode="&#x201a;" horiz-adv-x="305" 
d="M150 4c-37 -5 -80 19 -80 68c0 42 33 73 79 73c48 0 88 -31 88 -96c0 -59 -36 -133 -99 -167c-14 -8 -29 -12 -41 -12c-22 0 -34 13 -34 27c0 12 5 22 20 29c38 17 58 40 67 78z" />
    <glyph glyph-name="quotedblbase" unicode="&#x201e;" horiz-adv-x="533" 
d="M150 4c-37 -5 -80 19 -80 68c0 42 33 73 79 73c48 0 88 -31 88 -96c0 -59 -36 -133 -99 -167c-14 -8 -29 -12 -41 -12c-22 0 -34 13 -34 27c0 12 5 22 20 29c38 17 58 40 67 78zM378 4c-37 -5 -80 19 -80 68c0 42 33 73 79 73c48 0 88 -31 88 -96
c0 -59 -36 -133 -99 -167c-14 -8 -29 -12 -41 -12c-22 0 -34 13 -34 27c0 12 5 22 20 29c38 17 58 40 67 78z" />
    <glyph glyph-name="guilsinglleft" unicode="&#x2039;" horiz-adv-x="430" 
d="M80 195c-14 14 -23 26 -23 43c0 18 9 30 23 43l200 189c37 36 76 6 76 -22c0 -20 -12 -34 -34 -59l-141 -151l141 -150c22 -26 34 -40 34 -59c0 -29 -39 -59 -76 -23z" />
    <glyph glyph-name="guilsinglright" unicode="&#x203a;" horiz-adv-x="430" 
d="M351 281c14 -13 22 -26 22 -43s-9 -30 -22 -43l-200 -189c-37 -36 -76 -6 -76 23c0 19 12 33 33 59l141 150l-141 151c-21 25 -33 39 -33 59c0 28 39 58 76 22z" />
    <glyph glyph-name="guillemotleft" unicode="&#xab;" horiz-adv-x="706" 
d="M84 195c-14 14 -22 26 -22 43c0 18 9 30 22 43l200 189c37 36 76 6 76 -22c0 -20 -12 -34 -33 -59l-141 -151l141 -150c21 -26 33 -40 33 -59c0 -29 -39 -59 -76 -23zM356 195c-14 14 -23 26 -23 43c0 18 9 30 23 43l200 189c37 36 76 6 76 -22c0 -20 -12 -34 -34 -59
l-141 -151l141 -150c22 -26 34 -40 34 -59c0 -29 -39 -59 -76 -23z" />
    <glyph glyph-name="guillemotright" unicode="&#xbb;" horiz-adv-x="706" 
d="M360 281c14 -13 22 -26 22 -43s-9 -30 -22 -43l-200 -189c-37 -36 -76 -6 -76 23c0 19 12 33 33 59l141 150l-141 151c-21 25 -33 39 -33 59c0 28 39 58 76 22zM631 281c14 -13 23 -26 23 -43s-9 -30 -23 -43l-200 -189c-37 -36 -76 -6 -76 23c0 19 12 33 34 59l141 150
l-141 151c-22 25 -34 39 -34 59c0 28 39 58 76 22z" />
    <glyph glyph-name="hyphen" unicode="-" horiz-adv-x="496" 
d="M105 205c-27 0 -49 20 -49 49c0 30 22 49 49 49h286c27 0 49 -19 49 -49c0 -29 -22 -49 -49 -49h-286z" />
    <glyph glyph-name="uni00AD" unicode="&#xad;" horiz-adv-x="496" 
d="M105 205c-27 0 -49 20 -49 49c0 30 22 49 49 49h286c27 0 49 -19 49 -49c0 -29 -22 -49 -49 -49h-286z" />
    <glyph glyph-name="endash" unicode="&#x2013;" horiz-adv-x="756" 
d="M127 205c-27 0 -49 20 -49 49c0 30 22 49 49 49h503c26 0 48 -19 48 -49c0 -29 -22 -49 -48 -49h-503z" />
    <glyph glyph-name="emdash" unicode="&#x2014;" horiz-adv-x="1007" 
d="M127 205c-27 0 -49 20 -49 49c0 30 22 49 49 49h753c27 0 49 -19 49 -49c0 -29 -22 -49 -49 -49h-753z" />
    <glyph glyph-name="periodcentered" unicode="&#xb7;" horiz-adv-x="305" 
d="M152 180c-44 0 -80 35 -80 79c0 45 36 81 80 81c45 0 81 -36 81 -81c0 -44 -36 -79 -81 -79z" />
    <glyph glyph-name="bullet" unicode="&#x2022;" horiz-adv-x="426" 
d="M214 114c-79 0 -143 64 -143 143c0 78 64 142 143 142c78 0 142 -64 142 -142c0 -79 -64 -143 -142 -143z" />
    <glyph glyph-name="underscore" unicode="_" horiz-adv-x="441" 
d="M0 -166c-27 0 -49 20 -49 50c0 29 22 49 49 49h441c27 0 49 -20 49 -49c0 -30 -22 -50 -49 -50h-441z" />
    <glyph glyph-name="slash" unicode="/" horiz-adv-x="433" 
d="M131 -69c-10 -28 -36 -41 -68 -31c-32 9 -44 33 -34 62l273 762c10 29 36 41 68 32c32 -10 44 -34 34 -62z" />
    <glyph glyph-name="backslash" unicode="\" horiz-adv-x="433" 
d="M29 694c-10 28 2 52 34 62c32 9 58 -3 68 -32l273 -762c10 -29 -2 -53 -34 -62c-32 -10 -58 3 -68 31z" />
    <glyph glyph-name="fraction" unicode="&#x2044;" horiz-adv-x="273" 
d="M304 643c9 13 18 21 34 21c32 0 48 -31 31 -57l-400 -591c-9 -14 -18 -22 -34 -22c-32 0 -48 32 -31 57z" />
    <glyph glyph-name="bar" unicode="|" horiz-adv-x="433" 
d="M163 811c0 31 20 49 53 49c34 0 54 -18 54 -49v-964c0 -31 -20 -49 -54 -49c-33 0 -53 18 -53 49v964z" />
    <glyph glyph-name="brokenbar" unicode="&#xa6;" horiz-adv-x="433" 
d="M163 811c0 31 20 49 53 49c34 0 54 -18 54 -49v-333c0 -31 -20 -50 -54 -50c-33 0 -53 19 -53 50v333zM163 182c0 31 20 48 53 48c34 0 54 -17 54 -48v-335c0 -31 -20 -49 -54 -49c-33 0 -53 18 -53 49v335z" />
    <glyph glyph-name="parenleft" unicode="(" horiz-adv-x="400" 
d="M177 298c0 -154 68 -271 175 -337c21 -14 35 -25 35 -48c0 -21 -19 -45 -47 -45c-14 0 -24 4 -39 11c-111 57 -232 208 -232 419c0 212 121 363 232 420c15 7 25 11 39 11c28 0 47 -24 47 -45c0 -23 -14 -34 -35 -48c-107 -65 -175 -182 -175 -338z" />
    <glyph glyph-name="parenright" unicode=")" horiz-adv-x="400" 
d="M223 299c0 155 -68 272 -175 337c-21 14 -35 25 -35 48c0 21 19 45 47 45c14 0 24 -4 39 -11c111 -57 232 -208 232 -419c0 -212 -121 -363 -232 -420c-15 -7 -25 -11 -39 -11c-28 0 -47 24 -47 45c0 23 14 34 35 48c107 66 175 183 175 338z" />
    <glyph glyph-name="bracketleft" unicode="[" horiz-adv-x="400" 
d="M326 -36c32 0 50 -21 50 -46s-18 -47 -50 -47h-159c-33 0 -54 18 -54 50v754c0 32 21 51 54 51h159c32 0 50 -22 50 -47s-18 -46 -50 -46h-86c-15 0 -21 -5 -21 -23v-623c0 -18 6 -23 21 -23h86z" />
    <glyph glyph-name="bracketright" unicode="]" horiz-adv-x="400" 
d="M163 -36c15 0 21 5 21 23v623c0 18 -6 23 -21 23h-86c-32 0 -50 21 -50 46s18 47 50 47h159c33 0 54 -19 54 -51v-754c0 -32 -21 -50 -54 -50h-159c-32 0 -50 22 -50 47s18 46 50 46h86z" />
    <glyph glyph-name="braceleft" unicode="{" horiz-adv-x="400" 
d="M182 298c43 -14 79 -50 79 -103c0 -50 -36 -101 -36 -146c0 -38 25 -82 119 -87c34 -3 51 -20 51 -48s-21 -46 -60 -46c-130 0 -216 65 -216 157c0 59 41 114 41 162c0 50 -50 66 -96 73c-20 4 -30 20 -29 38c0 18 9 35 29 39c46 7 96 23 96 73c0 49 -41 104 -41 163
c0 91 86 156 216 156c39 0 60 -18 60 -46s-17 -45 -51 -48c-94 -5 -119 -48 -119 -86c0 -45 36 -96 36 -147c0 -53 -36 -88 -79 -103v-1z" />
    <glyph glyph-name="braceright" unicode="}" horiz-adv-x="400" 
d="M64 729c130 0 216 -65 216 -156c0 -59 -41 -114 -41 -163c0 -50 50 -65 96 -73c20 -4 30 -20 30 -38s-10 -34 -30 -39c-46 -7 -96 -23 -96 -73c0 -48 41 -103 41 -162c0 -92 -86 -157 -216 -157c-39 0 -60 18 -60 46s17 45 51 48c94 5 119 49 119 87c0 45 -36 96 -36 146
c0 53 36 89 79 103v1c-43 15 -79 50 -79 103c0 51 36 102 36 147c0 38 -25 81 -119 86c-34 3 -51 20 -51 48s21 46 60 46z" />
    <glyph glyph-name="asterisk" unicode="*" horiz-adv-x="538" 
d="M269 704c35 0 56 -23 52 -59l-14 -122l113 51c33 15 61 2 72 -32c11 -33 -5 -58 -41 -66l-120 -26l83 -91c24 -26 21 -58 -8 -78c-28 -21 -56 -13 -75 18l-62 107l-62 -107c-18 -31 -47 -39 -75 -18c-28 20 -32 52 -8 78l83 92l-120 25c-35 8 -51 33 -40 66
c10 34 39 47 72 32l113 -52l-13 123c-4 36 15 59 50 59z" />
    <glyph glyph-name="dagger" unicode="&#x2020;" horiz-adv-x="535" 
d="M268 694c35 0 56 -23 52 -59l-12 -161l136 13c36 4 59 -17 59 -52s-23 -54 -59 -51l-134 11l11 -126l-16 -362c-1 -20 -15 -34 -37 -34s-36 14 -37 34l-15 362l10 127l-134 -12c-36 -3 -59 16 -59 51s23 56 59 52l137 -13l-12 161c-4 36 16 59 51 59z" />
    <glyph glyph-name="daggerdbl" unicode="&#x2021;" horiz-adv-x="535" 
d="M221 172l-5 120l10 104l-134 -11c-36 -6 -59 15 -59 50s23 56 59 52l137 -12l-12 160c-3 36 16 59 51 59s56 -23 52 -59l-12 -160l136 12c36 4 59 -17 59 -52s-23 -54 -59 -50l-134 11l11 -104l-5 -120l128 11c36 4 59 -15 59 -50s-23 -56 -59 -52l-132 11l-7 -185
c-1 -20 -15 -34 -37 -34s-36 14 -37 34l-7 185l-132 -11c-36 -4 -59 17 -59 52s23 54 59 50z" />
    <glyph glyph-name="section" unicode="&#xa7;" horiz-adv-x="606" 
d="M315 711c67 0 157 -15 187 -35c14 -9 20 -23 20 -37c0 -26 -19 -52 -47 -52c-7 0 -16 2 -27 5c-29 8 -74 23 -137 23c-68 0 -105 -18 -105 -53c0 -14 6 -39 91 -55l69 -14c137 -26 175 -77 175 -138c0 -52 -26 -90 -77 -119c52 -25 72 -61 72 -102
c0 -85 -81 -150 -245 -150c-87 0 -170 20 -197 41c-12 9 -18 22 -18 35c0 23 17 47 46 47c12 0 28 -6 46 -12c31 -10 75 -24 138 -24c83 0 118 26 118 53c0 25 -26 41 -99 56l-78 15c-136 26 -179 71 -179 136c0 60 40 100 94 122c-54 29 -68 71 -68 106
c0 77 70 152 221 152zM256 423c-54 -8 -85 -38 -85 -70c0 -34 36 -56 106 -69l98 -19c41 11 65 39 65 68c0 31 -27 60 -106 76z" />
    <glyph glyph-name="paragraph" unicode="&#xb6;" horiz-adv-x="799" 
d="M564 557h-67v-497c0 -124 -69 -194 -177 -194c-90 0 -166 53 -166 141c0 69 55 121 110 121c29 0 45 -18 45 -40c0 -16 -8 -28 -23 -35c-22 -8 -33 -24 -33 -45c0 -30 26 -54 68 -54c41 0 78 28 78 94v159h-95c-158 0 -258 95 -258 223c0 127 104 228 260 228h422
c34 0 53 -20 53 -51c0 -30 -19 -50 -53 -50h-46c-14 0 -20 -6 -20 -23v-497c0 -28 -20 -44 -49 -44c-30 0 -49 16 -49 44v520zM155 431c0 -77 52 -127 154 -127h90v253h-90c-101 0 -154 -50 -154 -126z" />
    <glyph glyph-name="copyright" unicode="&#xa9;" horiz-adv-x="802" 
d="M401 665c194 0 346 -142 346 -338s-152 -339 -346 -339c-193 0 -345 143 -345 339s152 338 345 338zM400 611c-157 0 -284 -121 -284 -284c0 -164 128 -285 285 -285c158 0 286 121 286 285c0 163 -129 284 -287 284zM402 514c45 0 90 -14 115 -31c17 -10 30 -22 30 -42
c0 -21 -14 -46 -41 -46c-13 0 -25 5 -37 11c-18 10 -41 18 -64 18c-53 0 -95 -37 -95 -96c0 -60 43 -103 108 -103c39 0 66 14 92 32c10 7 21 14 35 14c25 0 40 -24 40 -46c0 -14 -6 -26 -19 -37c-35 -30 -94 -53 -161 -53c-115 0 -199 80 -199 189c0 110 81 190 196 190z
" />
    <glyph glyph-name="registered" unicode="&#xae;" horiz-adv-x="495" 
d="M248 663c118 0 207 -90 207 -201s-89 -200 -207 -200c-119 0 -208 89 -208 200s89 201 208 201zM248 620c-88 0 -160 -61 -160 -157c0 -97 72 -158 160 -158c87 0 159 61 159 158c0 96 -72 157 -159 157zM250 578c66 0 94 -35 94 -72c0 -28 -14 -57 -48 -71l36 -37
c6 -6 10 -12 10 -20c0 -16 -13 -28 -29 -28c-11 0 -16 4 -23 11l-59 65h-18v-50c0 -16 -12 -26 -29 -26c-16 0 -29 8 -29 26v168c0 20 5 34 27 34h68zM247 526h-28c-4 0 -6 -2 -6 -6v-49h34c27 0 38 13 38 28s-11 27 -38 27z" />
    <glyph glyph-name="trademark" unicode="&#x2122;" horiz-adv-x="834" 
d="M696 662c22 0 38 -16 38 -39v-244c0 -20 -14 -32 -35 -32s-35 12 -35 32v161h-3l-42 -65c-14 -19 -24 -27 -42 -27c-16 0 -26 8 -40 27l-43 65h-2v-161c0 -20 -15 -32 -36 -32c-20 0 -35 12 -35 32v244c0 23 17 39 39 39h4c22 0 36 -13 49 -31l68 -93h1l61 93
c12 18 26 31 49 31h4zM322 658c23 0 37 -13 37 -34c0 -22 -14 -35 -36 -35h-82v-209c0 -20 -16 -33 -38 -33s-37 13 -37 33v209h-82c-23 0 -37 13 -37 34c0 22 14 35 37 35h238z" />
    <glyph glyph-name="at" unicode="@" horiz-adv-x="922" 
d="M520 617c208 0 353 -123 353 -286s-128 -275 -219 -275c-66 0 -76 55 -77 106h-1c-42 -64 -94 -111 -166 -111c-88 0 -154 69 -154 168c0 113 86 211 197 211c74 0 121 -47 143 -104h1c3 24 8 45 13 60c8 25 22 37 48 37c33 0 46 -18 39 -45c-8 -32 -34 -114 -34 -186
c0 -44 12 -58 23 -58c31 0 90 71 90 169c0 158 -136 223 -270 223c-192 0 -344 -134 -344 -315c0 -161 118 -256 281 -256c72 0 120 20 144 27c28 6 47 -20 48 -45c0 -15 -6 -30 -22 -38c-44 -22 -114 -34 -177 -34c-219 0 -381 133 -381 336c0 233 197 416 465 416z
M462 350c-61 0 -112 -50 -112 -120c0 -59 36 -100 85 -100c54 0 106 47 137 110c-13 62 -53 110 -110 110z" />
    <glyph glyph-name="numbersign" unicode="#" horiz-adv-x="774" 
d="M517 138l-45 -155c-9 -29 -33 -42 -64 -35c-32 8 -43 30 -35 59l38 131h-146l-45 -155c-8 -29 -32 -42 -64 -35c-32 8 -43 30 -34 59l38 131h-80c-27 0 -49 18 -49 48c0 29 22 48 49 48h108l42 143h-83c-26 0 -48 19 -48 48c0 30 22 48 48 48h111l46 157
c8 29 32 42 64 35c32 -8 43 -30 34 -59l-38 -133h145l46 157c9 29 33 42 64 35c32 -8 43 -30 35 -59l-39 -133h80c26 0 48 -18 48 -48c0 -29 -22 -48 -48 -48h-108l-42 -143h82c26 0 48 -19 48 -48c0 -30 -22 -48 -48 -48h-110zM293 234h146l42 143h-145z" />
    <glyph glyph-name="zero" unicode="0" horiz-adv-x="682" 
d="M338 669c149 0 281 -122 281 -341s-132 -341 -281 -341s-278 122 -278 341s130 341 278 341zM338 561c-91 0 -157 -84 -157 -233c0 -147 66 -232 157 -232c90 0 160 85 160 232c0 148 -70 233 -160 233z" />
    <glyph glyph-name="one" unicode="1" horiz-adv-x="453" 
d="M231 534c0 17 -6 23 -21 23h-114c-32 0 -52 19 -52 50c0 32 20 51 53 51h195c33 0 51 -18 51 -47v-569c0 -29 -24 -49 -56 -49s-56 20 -56 49v492z" />
    <glyph glyph-name="two" unicode="2" horiz-adv-x="640" 
d="M142 0c-36 0 -61 23 -61 58c0 28 19 48 53 67c191 113 317 192 317 313c0 70 -51 125 -137 125c-87 0 -137 -53 -137 -116c0 -44 16 -69 28 -88c7 -10 12 -22 12 -33c0 -29 -22 -51 -52 -51c-21 0 -39 9 -56 27c-28 31 -50 80 -50 136c-1 124 101 231 260 231
c155 0 255 -97 255 -224c0 -151 -137 -256 -322 -345l1 -3c34 6 134 7 297 7c29 0 51 -18 51 -52c0 -31 -22 -52 -50 -52h-409z" />
    <glyph glyph-name="three" unicode="3" horiz-adv-x="613" 
d="M108 557c-32 0 -52 19 -52 50c0 32 20 51 53 51h362c34 0 56 -23 56 -51c0 -20 -10 -38 -24 -51l-166 -159v-2c128 2 229 -58 229 -178c0 -136 -119 -230 -306 -230c-62 0 -131 11 -175 29c-33 13 -41 33 -41 51c0 29 22 53 50 53c13 0 21 -2 39 -8
c40 -13 91 -22 136 -22c118 0 180 57 180 127c0 59 -44 92 -122 92c-20 0 -67 -2 -85 -2c-32 0 -50 21 -50 48c0 16 9 30 25 45l163 158l-2 2c-25 -3 -87 -3 -270 -3z" />
    <glyph glyph-name="four" unicode="4" horiz-adv-x="639" 
d="M450 387c0 35 26 55 54 55s54 -20 54 -55v-343c0 -31 -22 -50 -54 -50s-54 19 -54 49v109h-352c-37 0 -62 27 -62 62c0 20 4 45 37 68c110 83 165 176 169 284c1 9 1 19 1 28c3 52 33 70 64 70c32 0 61 -23 61 -72v-23c0 -100 -76 -229 -199 -313l1 -3h280v134z" />
    <glyph glyph-name="five" unicode="5" horiz-adv-x="627" 
d="M511 658c33 0 53 -19 53 -51c0 -31 -20 -50 -53 -50h-288l-23 -170c36 15 85 26 144 26c140 0 226 -82 226 -192c0 -144 -131 -234 -328 -234c-51 0 -122 6 -183 29c-32 12 -39 34 -39 53c0 29 21 52 51 52c36 0 92 -29 173 -29c129 0 209 54 209 129
c0 74 -62 102 -137 102c-78 0 -132 -30 -165 -30c-35 0 -60 23 -53 68l34 247c4 31 19 50 55 50h324z" />
    <glyph glyph-name="six" unicode="6" horiz-adv-x="626" 
d="M446 571c-128 -40 -202 -95 -242 -158c42 37 88 54 139 54c132 0 243 -99 243 -232c0 -144 -115 -249 -269 -249c-146 0 -269 117 -269 268c0 147 94 317 325 398c32 12 68 24 91 2c19 -18 27 -69 -18 -83zM319 383c-65 0 -134 -38 -159 -117v-17c0 -91 77 -162 161 -162
c82 0 152 60 152 148c0 85 -65 148 -154 148z" />
    <glyph glyph-name="seven" unicode="7" horiz-adv-x="610" 
d="M540 658c35 0 51 -21 51 -51c0 -10 -2 -24 -12 -42c-21 -40 -64 -82 -134 -172c-91 -119 -103 -213 -103 -290v-40c0 -51 -34 -71 -66 -71s-61 22 -61 72v33c0 92 24 190 140 331c52 64 82 97 102 130l-1 3c-33 -6 -234 -4 -366 -4c-32 0 -53 19 -53 50c0 32 21 51 53 51
h450z" />
    <glyph glyph-name="eight" unicode="8" horiz-adv-x="648" 
d="M451 340c82 -24 140 -81 140 -165c0 -103 -91 -188 -267 -188s-267 85 -267 188c0 84 58 141 141 165c-61 21 -118 72 -118 150c0 88 79 179 244 179c167 0 245 -91 245 -179c0 -78 -58 -129 -118 -150zM324 370c71 20 128 49 128 106c0 55 -53 93 -128 93
c-73 0 -127 -38 -127 -93c0 -57 57 -86 127 -106zM324 89c81 0 147 37 147 98c0 56 -50 93 -147 113c-96 -20 -146 -57 -146 -113c0 -61 65 -98 146 -98z" />
    <glyph glyph-name="nine" unicode="9" horiz-adv-x="629" 
d="M181 83c129 41 204 96 244 160c-42 -38 -88 -55 -139 -55c-132 0 -242 100 -242 233c0 144 114 248 268 248c147 0 269 -117 269 -268c0 -146 -93 -317 -325 -398c-32 -12 -68 -24 -91 -2c-18 18 -27 69 16 82zM310 273c65 0 135 37 159 116v18c0 91 -77 162 -160 162
c-82 0 -153 -61 -153 -149c0 -84 65 -147 154 -147z" />
    <glyph glyph-name="one.alt" horiz-adv-x="560" 
d="M362 125c1 -17 6 -23 20 -23h110c32 0 52 -21 52 -51s-20 -51 -52 -51h-378c-32 0 -52 21 -52 51s20 51 52 51h115c14 0 20 6 20 23v408c0 18 -6 24 -20 24h-115c-32 0 -52 20 -52 50c0 31 20 51 52 51h182c48 0 66 -22 66 -69v-464z" />
    <glyph glyph-name="zero.osf" horiz-adv-x="633" 
d="M316 589c140 0 264 -108 264 -300s-124 -300 -264 -300c-141 0 -263 108 -263 300s123 300 263 300zM316 481c-83 0 -142 -69 -142 -192c0 -122 59 -192 142 -192c81 0 143 70 143 192s-62 192 -143 192z" />
    <glyph glyph-name="one.osf" horiz-adv-x="435" 
d="M215 453c0 18 -6 23 -20 23h-98c-32 0 -53 19 -53 51c0 31 21 51 53 51h178c32 0 50 -18 50 -48v-489c0 -29 -23 -49 -55 -49s-55 20 -55 49v412z" />
    <glyph glyph-name="two.osf" horiz-adv-x="602" 
d="M137 0c-36 0 -61 23 -61 58c0 28 18 47 53 65c178 95 290 152 290 253c0 59 -45 108 -122 108s-122 -48 -122 -95c0 -32 10 -48 21 -65c7 -12 12 -22 12 -33c0 -28 -23 -49 -52 -49c-21 0 -41 8 -58 27c-24 26 -42 64 -42 114c-1 110 98 206 248 206
c143 0 237 -91 237 -202c0 -136 -124 -217 -291 -290l1 -3c31 6 119 8 266 8c28 0 49 -18 49 -51c0 -31 -21 -51 -49 -51h-380z" />
    <glyph glyph-name="three.osf" horiz-adv-x="581" 
d="M504 526c0 -19 -9 -35 -25 -50l-165 -160v-2c128 2 229 -60 229 -179c0 -133 -112 -227 -294 -227c-49 0 -129 10 -171 30c-31 14 -42 34 -42 53c0 31 21 51 53 51c11 0 20 -3 37 -8c35 -13 76 -23 128 -23c111 0 172 52 172 122c0 63 -46 95 -124 95l-83 -1
c-32 0 -50 20 -50 47c0 16 9 31 25 46l163 157l-2 3c-25 -3 -81 -4 -264 -4c-32 0 -52 19 -52 51c0 31 20 51 53 51h356c34 0 56 -24 56 -52z" />
    <glyph glyph-name="four.osf" horiz-adv-x="611" 
d="M429 308c0 35 26 54 54 54s54 -19 54 -54v-343c0 -31 -22 -50 -54 -50c-33 0 -54 19 -54 49v108h-337c-37 0 -63 27 -63 62c0 21 5 45 36 69c105 81 157 175 162 283c0 10 0 19 1 28c2 52 32 70 64 70s60 -23 60 -72v-23c0 -99 -72 -228 -190 -313v-2h267v134z" />
    <glyph glyph-name="five.osf" 
d="M494 578c33 0 53 -20 53 -51c0 -32 -20 -51 -53 -51h-288l-24 -169l1 -1c39 13 88 26 144 26c139 0 225 -78 225 -192c0 -142 -132 -232 -315 -232c-51 0 -132 7 -182 28c-29 12 -40 30 -40 52c0 32 21 54 51 54c13 0 21 -3 37 -7c44 -13 81 -23 134 -23
c126 0 198 54 198 131c0 71 -63 99 -137 99c-77 0 -131 -30 -166 -30c-31 0 -58 23 -51 68l34 247c4 32 19 51 55 51h324z" />
    <glyph glyph-name="six.osf" horiz-adv-x="613" 
d="M454 576c-67 -33 -119 -67 -160 -102c170 -11 280 -106 280 -245c0 -138 -108 -241 -260 -241c-149 0 -265 106 -265 257c0 143 112 296 338 415c23 12 59 17 79 -7c21 -24 17 -62 -12 -77zM390 355c-41 26 -100 41 -172 42c-38 -51 -53 -103 -53 -151
c0 -100 73 -157 155 -157c80 0 140 56 140 140c0 53 -24 97 -70 126z" />
    <glyph glyph-name="seven.osf" horiz-adv-x="589" 
d="M442 481c-33 -6 -231 -5 -363 -5c-32 0 -52 19 -52 51c0 31 20 51 53 51h446c34 0 49 -21 49 -51c0 -11 -2 -24 -13 -45c-18 -36 -61 -79 -128 -169c-86 -119 -99 -210 -99 -291v-42c0 -51 -34 -71 -66 -71s-61 22 -61 72v34c0 93 26 191 136 333c51 64 80 97 99 130z
" />
    <glyph glyph-name="eight.osf" horiz-adv-x="619" 
d="M431 339c79 -25 138 -81 138 -163c0 -102 -90 -189 -260 -189s-259 86 -259 188c0 82 59 139 139 164c-59 23 -117 74 -117 150c0 88 80 182 238 182c160 0 237 -93 237 -181c0 -76 -58 -128 -116 -151zM310 370c66 19 121 50 121 106c0 52 -49 90 -121 90
c-71 0 -121 -38 -121 -90c0 -56 54 -87 121 -106zM310 93c78 0 138 35 138 95c0 55 -48 92 -138 112c-91 -20 -139 -57 -139 -112c0 -60 60 -95 139 -95z" />
    <glyph glyph-name="nine.osf" horiz-adv-x="623" 
d="M141 9c63 26 119 58 166 95c-156 21 -256 114 -256 242c0 134 110 243 263 243c141 0 261 -92 261 -237c0 -157 -140 -320 -364 -432c-32 -16 -73 -18 -92 8c-17 21 -16 65 22 81zM223 230c39 -30 97 -47 167 -50c43 52 68 108 69 163c2 92 -66 145 -147 145
c-87 0 -147 -59 -147 -138c0 -45 19 -89 58 -120z" />
    <glyph glyph-name="one.osf.alt" horiz-adv-x="513" 
d="M339 125c0 -17 6 -23 20 -23h84c32 0 52 -21 52 -51s-20 -51 -52 -51h-333c-32 0 -52 21 -52 51s20 51 52 51h99c14 0 20 6 20 23v328c0 17 -6 23 -20 23h-98c-32 0 -52 21 -52 51s20 51 52 51h162c48 0 66 -23 66 -70v-383z" />
    <glyph glyph-name="zero.tf" horiz-adv-x="610" 
d="M303 670c136 0 258 -122 258 -342c0 -219 -121 -341 -258 -341s-257 122 -257 341c0 220 120 342 257 342zM303 561c-81 0 -140 -83 -140 -233c0 -147 59 -232 140 -232c80 0 142 85 142 232c0 149 -62 233 -142 233z" />
    <glyph glyph-name="one.tf" horiz-adv-x="610" 
d="M391 125c0 -17 6 -23 20 -23h122c33 0 53 -21 53 -51s-20 -51 -53 -51h-406c-33 0 -53 21 -53 51s20 51 53 51h128c14 0 20 6 20 23v409c0 17 -6 23 -20 23h-128c-33 0 -53 21 -53 51s20 51 53 51h195c50 0 69 -23 69 -70v-464z" />
    <glyph glyph-name="two.tf" horiz-adv-x="610" 
d="M134 0c-36 0 -60 23 -60 58c0 28 18 47 52 67c182 113 303 192 303 313c0 71 -47 126 -130 126s-130 -54 -130 -116c0 -44 15 -69 26 -88c7 -11 12 -23 12 -34c0 -29 -22 -51 -52 -51c-19 0 -38 10 -54 28c-27 30 -48 80 -49 135c-1 124 99 232 252 232
c150 0 246 -98 246 -225c0 -151 -130 -256 -307 -345l1 -3c32 6 127 7 283 7c28 0 50 -18 50 -52c0 -31 -22 -52 -50 -52h-393z" />
    <glyph glyph-name="three.tf" horiz-adv-x="610" 
d="M107 557c-31 0 -52 19 -52 51c0 31 21 51 53 51h361c34 0 56 -24 56 -52c0 -19 -10 -37 -24 -50l-166 -160v-2c128 2 229 -57 229 -178c0 -136 -119 -230 -305 -230c-62 0 -130 11 -175 29c-32 13 -40 33 -40 51c0 29 21 53 50 53c12 0 20 -2 38 -8
c40 -13 90 -22 136 -22c117 0 179 57 179 127c0 59 -44 92 -122 92l-84 -1c-32 0 -49 20 -49 48c0 15 8 30 24 45l163 157l-2 3c-27 -3 -88 -4 -270 -4z" />
    <glyph glyph-name="four.tf" horiz-adv-x="610" 
d="M430 388c0 35 26 55 53 55c28 0 53 -20 53 -55v-344c0 -31 -21 -50 -53 -50s-53 19 -53 49v109h-338c-36 0 -61 27 -61 62c0 20 5 45 36 69c105 82 156 176 162 284c1 9 1 19 1 28c3 52 32 70 63 70c32 0 60 -23 60 -72v-23c0 -100 -72 -230 -191 -314l1 -3h267v135z" />
    <glyph glyph-name="five.tf" horiz-adv-x="610" 
d="M499 659c32 0 53 -20 53 -51c0 -32 -21 -51 -52 -51h-283l-23 -169l1 -1c35 15 83 27 140 27c138 0 222 -83 222 -193c0 -144 -128 -234 -322 -234c-50 0 -119 6 -179 29c-32 12 -39 34 -39 53c0 29 21 52 50 52c36 0 91 -29 171 -29c125 0 204 54 204 129
c0 74 -61 103 -134 103c-77 0 -130 -30 -162 -30c-35 0 -58 22 -52 67l33 247c4 32 19 51 54 51h318z" />
    <glyph glyph-name="six.tf" horiz-adv-x="610" 
d="M435 572c-124 -40 -196 -95 -235 -158c40 37 85 54 135 54c130 0 238 -99 238 -233c0 -144 -112 -249 -264 -249c-144 0 -264 117 -264 268c0 148 92 318 318 399c32 12 68 24 90 2c19 -18 27 -68 -18 -83zM311 384c-64 0 -131 -38 -155 -118v-17c0 -91 75 -162 156 -162
s149 60 149 148c0 85 -63 149 -150 149z" />
    <glyph glyph-name="seven.tf" horiz-adv-x="610" 
d="M540 659c35 0 51 -21 51 -51c0 -11 -1 -24 -12 -43c-21 -39 -65 -81 -134 -171c-91 -120 -104 -214 -104 -291v-40c0 -51 -34 -71 -65 -71c-33 0 -61 22 -61 72v33c0 92 23 191 139 331c53 64 84 98 104 131l-2 3c-35 -6 -234 -5 -367 -5c-31 0 -52 19 -52 51
c0 31 21 51 53 51h450z" />
    <glyph glyph-name="eight.tf" horiz-adv-x="610" 
d="M427 340c79 -24 134 -81 134 -165c0 -103 -87 -188 -256 -188s-255 85 -255 188c0 84 54 141 134 165c-59 22 -113 73 -113 150c0 89 75 180 234 180c161 0 235 -91 235 -180c0 -77 -55 -128 -113 -150zM305 370c66 20 121 50 121 106c0 55 -51 94 -121 94
c-68 0 -120 -39 -120 -94c0 -56 55 -86 120 -106zM305 89c76 0 138 37 138 98c0 56 -47 93 -138 113c-90 -20 -137 -57 -137 -113c0 -61 61 -98 137 -98z" />
    <glyph glyph-name="nine.tf" horiz-adv-x="610" 
d="M174 83c125 41 199 96 238 160c-41 -38 -85 -55 -135 -55c-128 0 -237 100 -237 233c0 144 112 249 263 249c143 0 264 -117 264 -268c0 -147 -93 -317 -318 -399c-32 -12 -68 -25 -91 -2c-17 18 -25 68 16 82zM301 273c63 0 131 37 154 116c1 7 1 12 1 18
c0 91 -75 162 -156 162c-80 0 -149 -60 -149 -148c0 -85 64 -148 150 -148z" />
    <glyph glyph-name="zero.dnom" horiz-adv-x="456" 
d="M228 445c103 0 193 -81 193 -227c0 -145 -90 -228 -193 -228s-192 83 -192 228c0 146 89 227 192 227zM228 359c-55 0 -93 -51 -93 -141c0 -89 38 -141 93 -141c54 0 94 52 94 141c0 90 -40 141 -94 141z" />
    <glyph glyph-name="one.dnom" horiz-adv-x="301" 
d="M146 339c0 14 -5 17 -15 17h-66c-24 0 -41 16 -41 41s17 41 41 41h131c26 0 40 -14 40 -38v-367c0 -23 -19 -39 -45 -39c-25 0 -45 16 -45 39v306z" />
    <glyph glyph-name="two.dnom" horiz-adv-x="422" 
d="M94 0c-29 0 -49 20 -49 47c0 24 15 39 43 53c118 66 196 116 196 189c0 41 -28 73 -78 73c-49 0 -77 -32 -77 -67c0 -22 7 -36 15 -48c4 -7 7 -15 7 -23c0 -22 -19 -41 -42 -41c-16 0 -31 5 -44 20c-18 20 -32 51 -32 87c-1 85 69 156 176 156s175 -65 175 -152
c0 -98 -83 -164 -201 -215l1 -4c22 6 84 7 179 7c22 0 39 -14 39 -41c0 -25 -17 -41 -39 -41h-269z" />
    <glyph glyph-name="three.dnom" horiz-adv-x="400" 
d="M64 355c-24 0 -41 16 -41 41s17 41 41 41h239c28 0 45 -19 45 -42c0 -17 -8 -29 -19 -39l-99 -93v-1c80 -2 142 -39 142 -118c0 -93 -82 -153 -207 -153c-42 0 -88 7 -116 18s-32 29 -32 42c0 23 16 42 40 42c11 0 17 -2 31 -6c22 -7 54 -14 84 -14c67 0 103 30 103 70
c0 33 -23 50 -66 50l-57 -1c-26 0 -39 16 -39 39c0 11 6 22 18 33l101 92l-2 3c-21 -3 -60 -4 -166 -4z" />
    <glyph glyph-name="four.dnom" horiz-adv-x="427" 
d="M288 254c0 28 22 43 44 43c23 0 43 -15 43 -43v-218c0 -24 -16 -39 -43 -39s-44 15 -44 39v59h-222c-30 0 -51 21 -51 50c0 17 7 35 30 53c61 46 95 97 99 171c1 6 1 12 1 18c3 41 27 55 53 55c27 0 50 -17 50 -56v-11c0 -59 -47 -143 -126 -197l1 -2h165v78z" />
    <glyph glyph-name="five.dnom" horiz-adv-x="416" 
d="M339 437c23 0 41 -15 41 -41c0 -25 -17 -41 -41 -41h-189l-14 -97c26 10 57 18 98 18c95 0 152 -56 152 -128c0 -100 -91 -157 -226 -157c-42 0 -87 4 -124 19c-27 10 -31 29 -31 43c0 23 18 41 41 41c27 0 52 -19 120 -19c73 0 125 27 125 74c0 43 -38 57 -81 57
c-55 0 -90 -22 -114 -22c-27 0 -47 16 -42 53l20 152c4 31 19 48 51 48h214z" />
    <glyph glyph-name="six.dnom" horiz-adv-x="421" 
d="M290 444c23 0 39 -16 39 -42c0 -14 -7 -28 -26 -34c-79 -24 -125 -55 -151 -92c25 22 55 30 85 30c83 0 159 -61 159 -150c0 -95 -75 -166 -182 -166c-100 0 -184 77 -184 181c0 99 68 210 210 261c17 6 35 12 50 12zM215 242c-39 0 -78 -22 -93 -67v-8
c0 -58 45 -98 95 -98c49 0 88 36 88 87c0 49 -38 86 -90 86z" />
    <glyph glyph-name="seven.dnom" horiz-adv-x="390" 
d="M338 437c28 0 41 -18 41 -41c0 -7 -1 -17 -7 -27c-13 -28 -44 -55 -92 -115c-54 -68 -65 -130 -65 -181v-23c0 -41 -26 -58 -53 -58c-28 0 -51 18 -51 58v17c0 54 16 117 84 199c34 42 59 67 75 90l-1 3c-21 -5 -144 -4 -228 -4c-24 0 -41 16 -41 41s17 41 41 41h297z
" />
    <glyph glyph-name="eight.dnom" horiz-adv-x="435" 
d="M309 225c54 -17 93 -55 93 -110c0 -68 -59 -125 -184 -125c-126 0 -184 57 -184 125c0 55 38 93 93 110c-39 15 -78 48 -78 99c0 58 51 122 169 122s169 -64 169 -122c0 -51 -39 -84 -78 -99zM218 247c42 14 76 34 76 67c0 32 -31 55 -76 55s-76 -23 -76 -55
c0 -33 33 -53 76 -67zM218 68c50 0 86 22 86 58c0 32 -29 56 -86 70c-57 -14 -86 -38 -86 -70c0 -36 35 -58 86 -58z" />
    <glyph glyph-name="nine.dnom" horiz-adv-x="425" 
d="M212 447c99 0 184 -77 184 -181c0 -101 -65 -208 -211 -261c-16 -6 -34 -13 -49 -13c-23 0 -39 17 -39 41c0 15 7 30 27 36c73 23 118 52 144 87c-25 -19 -52 -27 -79 -27c-86 0 -160 60 -160 152c0 94 76 166 183 166zM210 367c-51 0 -89 -35 -89 -86
c0 -49 39 -87 89 -87c37 0 78 20 93 66v9c0 56 -42 98 -93 98z" />
    <glyph glyph-name="one.dnom.alt" horiz-adv-x="362" 
d="M72 357c-25 0 -42 16 -42 40c0 25 17 41 42 41h130c24 0 42 -14 42 -41v-302c0 -8 3 -14 14 -14h63c25 0 41 -14 41 -41c0 -23 -15 -40 -40 -40h-250c-25 0 -42 16 -42 40c0 25 17 41 42 41h65c11 0 15 6 15 14v248c0 8 -4 14 -15 14h-65z" />
    <glyph glyph-name="zero.numr" horiz-adv-x="456" 
d="M228 668c103 0 193 -81 193 -227c0 -145 -90 -228 -193 -228s-192 83 -192 228c0 146 89 227 192 227zM228 582c-55 0 -93 -51 -93 -141c0 -89 38 -141 93 -141c54 0 94 52 94 141c0 90 -40 141 -94 141z" />
    <glyph glyph-name="one.numr" horiz-adv-x="301" 
d="M146 572c0 14 -5 17 -15 17h-66c-24 0 -41 16 -41 41s17 41 41 41h131c26 0 40 -14 40 -38v-367c0 -23 -19 -39 -45 -39c-25 0 -45 16 -45 39v306z" />
    <glyph glyph-name="two.numr" horiz-adv-x="422" 
d="M94 233c-29 0 -49 20 -49 47c0 24 15 39 43 53c118 66 196 116 196 189c0 41 -28 73 -78 73c-49 0 -77 -32 -77 -67c0 -22 7 -36 15 -48c4 -7 7 -15 7 -23c0 -22 -19 -41 -42 -41c-16 0 -31 5 -44 20c-18 20 -32 51 -32 87c-1 85 69 156 176 156s175 -65 175 -152
c0 -98 -83 -164 -201 -215l1 -4c22 6 84 7 179 7c22 0 39 -14 39 -41c0 -25 -17 -41 -39 -41h-269z" />
    <glyph glyph-name="three.numr" horiz-adv-x="400" 
d="M64 588c-24 0 -41 16 -41 41s17 41 41 41h239c28 0 45 -19 45 -42c0 -17 -8 -29 -19 -39l-99 -93v-1c80 -2 142 -39 142 -118c0 -93 -82 -153 -207 -153c-42 0 -88 7 -116 18s-32 29 -32 42c0 23 16 42 40 42c11 0 17 -2 31 -6c22 -7 54 -14 84 -14c67 0 103 30 103 70
c0 33 -23 50 -66 50l-57 -1c-26 0 -39 16 -39 39c0 11 6 22 18 33l101 92l-2 3c-21 -3 -60 -4 -166 -4z" />
    <glyph glyph-name="four.numr" horiz-adv-x="427" 
d="M288 476c0 28 22 43 44 43c23 0 43 -15 43 -43v-218c0 -24 -16 -39 -43 -39s-44 15 -44 39v59h-222c-30 0 -51 21 -51 50c0 17 7 35 30 53c61 46 95 97 99 171c1 6 1 12 1 18c3 41 27 55 53 55c27 0 50 -17 50 -56v-11c0 -59 -47 -143 -126 -197l1 -2h165v78z" />
    <glyph glyph-name="five.numr" horiz-adv-x="416" 
d="M339 660c23 0 41 -15 41 -41c0 -25 -17 -41 -41 -41h-189l-14 -97c26 10 57 18 98 18c95 0 152 -56 152 -128c0 -100 -91 -157 -226 -157c-42 0 -87 4 -124 19c-27 10 -31 29 -31 43c0 23 18 41 41 41c27 0 52 -19 120 -19c73 0 125 27 125 74c0 43 -38 57 -81 57
c-55 0 -90 -22 -114 -22c-27 0 -47 16 -42 53l20 152c4 31 19 48 51 48h214z" />
    <glyph glyph-name="six.numr" horiz-adv-x="421" 
d="M290 667c23 0 39 -16 39 -42c0 -14 -7 -28 -26 -34c-79 -24 -125 -55 -151 -92c25 22 55 30 85 30c83 0 159 -61 159 -150c0 -95 -75 -166 -182 -166c-100 0 -184 77 -184 181c0 99 68 210 210 261c17 6 35 12 50 12zM215 465c-39 0 -78 -22 -93 -67v-8
c0 -58 45 -98 95 -98c49 0 88 36 88 87c0 49 -38 86 -90 86z" />
    <glyph glyph-name="seven.numr" horiz-adv-x="390" 
d="M338 660c28 0 41 -18 41 -41c0 -7 -1 -17 -7 -27c-13 -28 -44 -55 -92 -115c-54 -68 -65 -130 -65 -181v-23c0 -41 -26 -58 -53 -58c-28 0 -51 18 -51 58v17c0 54 16 117 84 199c34 42 59 67 75 90l-1 3c-21 -5 -144 -4 -228 -4c-24 0 -41 16 -41 41s17 41 41 41h297z
" />
    <glyph glyph-name="eight.numr" horiz-adv-x="435" 
d="M309 448c54 -17 93 -55 93 -110c0 -68 -59 -125 -184 -125c-126 0 -184 57 -184 125c0 55 38 93 93 110c-39 15 -78 48 -78 99c0 58 51 122 169 122s169 -64 169 -122c0 -51 -39 -84 -78 -99zM218 470c42 14 76 34 76 67c0 32 -31 55 -76 55s-76 -23 -76 -55
c0 -33 33 -53 76 -67zM218 291c50 0 86 22 86 58c0 32 -29 56 -86 70c-57 -14 -86 -38 -86 -70c0 -36 35 -58 86 -58z" />
    <glyph glyph-name="nine.numr" horiz-adv-x="425" 
d="M212 672c99 0 184 -77 184 -181c0 -101 -65 -208 -211 -261c-16 -6 -34 -13 -49 -13c-23 0 -39 17 -39 41c0 15 7 30 27 36c73 23 118 52 144 87c-25 -19 -52 -27 -79 -27c-86 0 -160 60 -160 152c0 94 76 166 183 166zM210 592c-51 0 -89 -35 -89 -86
c0 -49 39 -87 89 -87c37 0 78 20 93 66v9c0 56 -42 98 -93 98z" />
    <glyph glyph-name="one.numr.alt" horiz-adv-x="362" 
d="M72 590c-25 0 -42 16 -42 40c0 25 17 41 42 41h130c24 0 42 -14 42 -41v-302c0 -8 3 -14 14 -14h63c25 0 41 -14 41 -41c0 -23 -15 -40 -40 -40h-250c-25 0 -42 16 -42 40c0 25 17 41 42 41h65c11 0 15 6 15 14v248c0 8 -4 14 -15 14h-65z" />
    <glyph glyph-name="uni00B9" unicode="&#xb9;" horiz-adv-x="301" 
d="M146 561c0 14 -5 17 -15 17h-66c-24 0 -41 16 -41 41s17 41 41 41h131c26 0 40 -14 40 -38v-367c0 -23 -19 -39 -45 -39c-25 0 -45 16 -45 39v306z" />
    <glyph glyph-name="uni00B9.alt" horiz-adv-x="362" 
d="M72 579c-25 0 -42 16 -42 40c0 25 17 41 42 41h130c24 0 42 -14 42 -41v-302c0 -8 3 -14 14 -14h63c25 0 41 -14 41 -41c0 -23 -15 -40 -40 -40h-250c-25 0 -42 16 -42 40c0 25 17 41 42 41h65c11 0 15 6 15 14v248c0 8 -4 14 -15 14h-65z" />
    <glyph glyph-name="uni00B2" unicode="&#xb2;" horiz-adv-x="422" 
d="M94 222c-29 0 -49 20 -49 47c0 24 15 39 43 53c118 66 196 116 196 189c0 41 -28 73 -78 73c-49 0 -77 -32 -77 -67c0 -22 7 -36 15 -48c4 -7 7 -15 7 -23c0 -22 -19 -41 -42 -41c-16 0 -31 5 -44 20c-18 20 -32 51 -32 87c-1 85 69 156 176 156s175 -65 175 -152
c0 -98 -83 -164 -201 -215l1 -4c22 6 84 7 179 7c22 0 39 -14 39 -41c0 -25 -17 -41 -39 -41h-269z" />
    <glyph glyph-name="uni00B3" unicode="&#xb3;" horiz-adv-x="400" 
d="M64 578c-24 0 -41 16 -41 41s17 41 41 41h239c28 0 45 -19 45 -42c0 -17 -8 -29 -19 -39l-99 -93v-1c80 -2 142 -39 142 -118c0 -93 -82 -153 -207 -153c-42 0 -88 7 -116 18s-32 29 -32 42c0 23 16 42 40 42c11 0 17 -2 31 -6c22 -7 54 -14 84 -14c67 0 103 30 103 70
c0 33 -23 50 -66 50l-57 -1c-26 0 -39 16 -39 39c0 11 6 22 18 33l101 92l-2 3c-21 -3 -60 -4 -166 -4z" />
    <glyph glyph-name="onequarter" unicode="&#xbc;" horiz-adv-x="966" 
d="M146 572c0 14 -5 17 -15 17h-66c-24 0 -41 16 -41 41s17 41 41 41h131c26 0 40 -14 40 -38v-367c0 -23 -19 -39 -45 -39c-25 0 -45 16 -45 39v306zM605 643c9 13 18 21 34 21c32 0 48 -31 31 -57l-400 -591c-9 -14 -18 -22 -34 -22c-32 0 -48 32 -31 57zM827 254
c0 28 22 43 44 43c23 0 43 -15 43 -43v-218c0 -24 -16 -39 -43 -39s-44 15 -44 39v59h-222c-30 0 -51 21 -51 50c0 17 7 35 30 53c61 46 95 97 99 171c1 6 1 12 1 18c3 41 27 55 53 55c27 0 50 -17 50 -56v-11c0 -59 -47 -143 -126 -197l1 -2h165v78z" />
    <glyph glyph-name="onequarter.alt" horiz-adv-x="1100" 
d="M739 643c9 13 18 21 34 21c32 0 48 -31 31 -57l-400 -591c-9 -14 -18 -22 -34 -22c-32 0 -48 32 -31 57zM72 579c-25 0 -42 16 -42 40c0 25 17 41 42 41h130c24 0 42 -14 42 -41v-302c0 -8 3 -14 14 -14h63c25 0 41 -14 41 -41c0 -23 -15 -40 -40 -40h-250
c-25 0 -42 16 -42 40c0 25 17 41 42 41h65c11 0 15 6 15 14v248c0 8 -4 14 -15 14h-65zM961 254c0 28 22 43 44 43c23 0 43 -15 43 -43v-218c0 -24 -16 -39 -43 -39s-44 15 -44 39v59h-222c-30 0 -51 21 -51 50c0 17 7 35 30 53c61 46 95 97 99 171c1 6 1 12 1 18
c3 41 27 55 53 55c27 0 50 -17 50 -56v-11c0 -59 -47 -143 -126 -197l1 -2h165v78z" />
    <glyph glyph-name="onehalf" unicode="&#xbd;" horiz-adv-x="1006" 
d="M146 572c0 14 -5 17 -15 17h-66c-24 0 -41 16 -41 41s17 41 41 41h131c26 0 40 -14 40 -38v-367c0 -23 -19 -39 -45 -39c-25 0 -45 16 -45 39v306zM605 643c9 13 18 21 34 21c32 0 48 -31 31 -57l-400 -591c-9 -14 -18 -22 -34 -22c-32 0 -48 32 -31 57zM678 0
c-29 0 -49 20 -49 47c0 24 15 39 43 53c118 66 196 116 196 189c0 41 -28 73 -78 73c-49 0 -77 -32 -77 -67c0 -22 7 -36 15 -48c4 -7 7 -15 7 -23c0 -22 -19 -41 -42 -41c-16 0 -31 5 -44 20c-18 20 -32 51 -32 87c-1 85 69 156 176 156s175 -65 175 -152
c0 -98 -83 -164 -201 -215l1 -4c22 6 84 7 179 7c22 0 39 -14 39 -41c0 -25 -17 -41 -39 -41h-269z" />
    <glyph glyph-name="onehalf.alt" horiz-adv-x="1140" 
d="M739 643c9 13 18 21 34 21c32 0 48 -31 31 -57l-400 -591c-9 -14 -18 -22 -34 -22c-32 0 -48 32 -31 57zM72 579c-25 0 -42 16 -42 40c0 25 17 41 42 41h130c24 0 42 -14 42 -41v-302c0 -8 3 -14 14 -14h63c25 0 41 -14 41 -41c0 -23 -15 -40 -40 -40h-250
c-25 0 -42 16 -42 40c0 25 17 41 42 41h65c11 0 15 6 15 14v248c0 8 -4 14 -15 14h-65zM812 0c-29 0 -49 20 -49 47c0 24 15 39 43 53c118 66 196 116 196 189c0 41 -28 73 -78 73c-49 0 -77 -32 -77 -67c0 -22 7 -36 15 -48c4 -7 7 -15 7 -23c0 -22 -19 -41 -42 -41
c-16 0 -31 5 -44 20c-18 20 -32 51 -32 87c-1 85 69 156 176 156s175 -65 175 -152c0 -98 -83 -164 -201 -215l1 -4c22 6 84 7 179 7c22 0 39 -14 39 -41c0 -25 -17 -41 -39 -41h-269z" />
    <glyph glyph-name="threequarters" unicode="&#xbe;" horiz-adv-x="1065" 
d="M64 588c-24 0 -41 16 -41 41s17 41 41 41h239c28 0 45 -19 45 -42c0 -17 -8 -29 -19 -39l-99 -93v-1c80 -2 142 -39 142 -118c0 -93 -82 -153 -207 -153c-42 0 -88 7 -116 18s-32 29 -32 42c0 23 16 42 40 42c11 0 17 -2 31 -6c22 -7 54 -14 84 -14c67 0 103 30 103 70
c0 33 -23 50 -66 50l-57 -1c-26 0 -39 16 -39 39c0 11 6 22 18 33l101 92l-2 3c-21 -3 -60 -4 -166 -4zM704 643c9 13 18 21 34 21c32 0 48 -31 31 -57l-400 -591c-9 -14 -18 -22 -34 -22c-32 0 -48 32 -31 57zM926 254c0 28 22 43 44 43c23 0 43 -15 43 -43v-218
c0 -24 -16 -39 -43 -39s-44 15 -44 39v59h-222c-30 0 -51 21 -51 50c0 17 7 35 30 53c61 46 95 97 99 171c1 6 1 12 1 18c3 41 27 55 53 55c27 0 50 -17 50 -56v-11c0 -59 -47 -143 -126 -197l1 -2h165v78z" />
    <glyph glyph-name="uni2153" unicode="&#x2153;" horiz-adv-x="1032" 
d="M146 572c0 14 -5 17 -15 17h-66c-24 0 -41 16 -41 41s17 41 41 41h131c26 0 40 -14 40 -38v-367c0 -23 -19 -39 -45 -39c-25 0 -45 16 -45 39v306zM605 643c9 13 18 21 34 21c32 0 48 -31 31 -57l-400 -591c-9 -14 -18 -22 -34 -22c-32 0 -48 32 -31 57zM696 355
c-24 0 -41 16 -41 41s17 41 41 41h239c28 0 45 -19 45 -42c0 -17 -8 -29 -19 -39l-99 -93v-1c80 -2 142 -39 142 -118c0 -93 -82 -153 -207 -153c-42 0 -88 7 -116 18s-32 29 -32 42c0 23 16 42 40 42c11 0 17 -2 31 -6c22 -7 54 -14 84 -14c67 0 103 30 103 70
c0 33 -23 50 -66 50l-57 -1c-26 0 -39 16 -39 39c0 11 6 22 18 33l101 92l-2 3c-21 -3 -60 -4 -166 -4z" />
    <glyph glyph-name="uni2154" unicode="&#x2154;" horiz-adv-x="1153" 
d="M94 233c-29 0 -49 20 -49 47c0 24 15 39 43 53c118 66 196 116 196 189c0 41 -28 73 -78 73c-49 0 -77 -32 -77 -67c0 -22 7 -36 15 -48c4 -7 7 -15 7 -23c0 -22 -19 -41 -42 -41c-16 0 -31 5 -44 20c-18 20 -32 51 -32 87c-1 85 69 156 176 156s175 -65 175 -152
c0 -98 -83 -164 -201 -215l1 -4c22 6 84 7 179 7c22 0 39 -14 39 -41c0 -25 -17 -41 -39 -41h-269zM726 643c9 13 18 21 34 21c32 0 48 -31 31 -57l-400 -591c-9 -14 -18 -22 -34 -22c-32 0 -48 32 -31 57zM817 355c-24 0 -41 16 -41 41s17 41 41 41h239c28 0 45 -19 45 -42
c0 -17 -8 -29 -19 -39l-99 -93v-1c80 -2 142 -39 142 -118c0 -93 -82 -153 -207 -153c-42 0 -88 7 -116 18s-32 29 -32 42c0 23 16 42 40 42c11 0 17 -2 31 -6c22 -7 54 -14 84 -14c67 0 103 30 103 70c0 33 -23 50 -66 50l-57 -1c-26 0 -39 16 -39 39c0 11 6 22 18 33
l101 92l-2 3c-21 -3 -60 -4 -166 -4z" />
    <glyph glyph-name="uni2155" unicode="&#x2155;" horiz-adv-x="1008" 
d="M146 572c0 14 -5 17 -15 17h-66c-24 0 -41 16 -41 41s17 41 41 41h131c26 0 40 -14 40 -38v-367c0 -23 -19 -39 -45 -39c-25 0 -45 16 -45 39v306zM605 643c9 13 18 21 34 21c32 0 48 -31 31 -57l-400 -591c-9 -14 -18 -22 -34 -22c-32 0 -48 32 -31 57zM931 437
c23 0 41 -15 41 -41c0 -25 -17 -41 -41 -41h-189l-14 -97c26 10 57 18 98 18c95 0 152 -56 152 -128c0 -100 -91 -157 -226 -157c-42 0 -87 4 -124 19c-27 10 -31 29 -31 43c0 23 18 41 41 41c27 0 52 -19 120 -19c73 0 125 27 125 74c0 43 -38 57 -81 57
c-55 0 -90 -22 -114 -22c-27 0 -47 16 -42 53l20 152c4 31 19 48 51 48h214z" />
    <glyph glyph-name="uni2156" unicode="&#x2156;" horiz-adv-x="1129" 
d="M94 233c-29 0 -49 20 -49 47c0 24 15 39 43 53c118 66 196 116 196 189c0 41 -28 73 -78 73c-49 0 -77 -32 -77 -67c0 -22 7 -36 15 -48c4 -7 7 -15 7 -23c0 -22 -19 -41 -42 -41c-16 0 -31 5 -44 20c-18 20 -32 51 -32 87c-1 85 69 156 176 156s175 -65 175 -152
c0 -98 -83 -164 -201 -215l1 -4c22 6 84 7 179 7c22 0 39 -14 39 -41c0 -25 -17 -41 -39 -41h-269zM726 643c9 13 18 21 34 21c32 0 48 -31 31 -57l-400 -591c-9 -14 -18 -22 -34 -22c-32 0 -48 32 -31 57zM1052 437c23 0 41 -15 41 -41c0 -25 -17 -41 -41 -41h-189l-14 -97
c26 10 57 18 98 18c95 0 152 -56 152 -128c0 -100 -91 -157 -226 -157c-42 0 -87 4 -124 19c-27 10 -31 29 -31 43c0 23 18 41 41 41c27 0 52 -19 120 -19c73 0 125 27 125 74c0 43 -38 57 -81 57c-55 0 -90 -22 -114 -22c-27 0 -47 16 -42 53l20 152c4 31 19 48 51 48h214z
" />
    <glyph glyph-name="uni2157" unicode="&#x2157;" horiz-adv-x="1107" 
d="M64 588c-24 0 -41 16 -41 41s17 41 41 41h239c28 0 45 -19 45 -42c0 -17 -8 -29 -19 -39l-99 -93v-1c80 -2 142 -39 142 -118c0 -93 -82 -153 -207 -153c-42 0 -88 7 -116 18s-32 29 -32 42c0 23 16 42 40 42c11 0 17 -2 31 -6c22 -7 54 -14 84 -14c67 0 103 30 103 70
c0 33 -23 50 -66 50l-57 -1c-26 0 -39 16 -39 39c0 11 6 22 18 33l101 92l-2 3c-21 -3 -60 -4 -166 -4zM704 643c9 13 18 21 34 21c32 0 48 -31 31 -57l-400 -591c-9 -14 -18 -22 -34 -22c-32 0 -48 32 -31 57zM1030 437c23 0 41 -15 41 -41c0 -25 -17 -41 -41 -41h-189
l-14 -97c26 10 57 18 98 18c95 0 152 -56 152 -128c0 -100 -91 -157 -226 -157c-42 0 -87 4 -124 19c-27 10 -31 29 -31 43c0 23 18 41 41 41c27 0 52 -19 120 -19c73 0 125 27 125 74c0 43 -38 57 -81 57c-55 0 -90 -22 -114 -22c-27 0 -47 16 -42 53l20 152
c4 31 19 48 51 48h214z" />
    <glyph glyph-name="uni2158" unicode="&#x2158;" horiz-adv-x="1170" 
d="M288 476c0 28 22 43 44 43c23 0 43 -15 43 -43v-218c0 -24 -16 -39 -43 -39s-44 15 -44 39v59h-222c-30 0 -51 21 -51 50c0 17 7 35 30 53c61 46 95 97 99 171c1 6 1 12 1 18c3 41 27 55 53 55c27 0 50 -17 50 -56v-11c0 -59 -47 -143 -126 -197l1 -2h165v78zM767 643
c9 13 18 21 34 21c32 0 48 -31 31 -57l-400 -591c-9 -14 -18 -22 -34 -22c-32 0 -48 32 -31 57zM1093 437c23 0 41 -15 41 -41c0 -25 -17 -41 -41 -41h-189l-14 -97c26 10 57 18 98 18c95 0 152 -56 152 -128c0 -100 -91 -157 -226 -157c-42 0 -87 4 -124 19
c-27 10 -31 29 -31 43c0 23 18 41 41 41c27 0 52 -19 120 -19c73 0 125 27 125 74c0 43 -38 57 -81 57c-55 0 -90 -22 -114 -22c-27 0 -47 16 -42 53l20 152c4 31 19 48 51 48h214z" />
    <glyph glyph-name="uni2159" unicode="&#x2159;" horiz-adv-x="975" 
d="M146 572c0 14 -5 17 -15 17h-66c-24 0 -41 16 -41 41s17 41 41 41h131c26 0 40 -14 40 -38v-367c0 -23 -19 -39 -45 -39c-25 0 -45 16 -45 39v306zM605 643c9 13 18 21 34 21c32 0 48 -31 31 -57l-400 -591c-9 -14 -18 -22 -34 -22c-32 0 -48 32 -31 57zM844 444
c23 0 39 -16 39 -42c0 -14 -7 -28 -26 -34c-79 -24 -125 -55 -151 -92c25 22 55 30 85 30c83 0 159 -61 159 -150c0 -95 -75 -166 -182 -166c-100 0 -184 77 -184 181c0 99 68 210 210 261c17 6 35 12 50 12zM769 242c-39 0 -78 -22 -93 -67v-8c0 -58 45 -98 95 -98
c49 0 88 36 88 87c0 49 -38 86 -90 86z" />
    <glyph glyph-name="uni215A" unicode="&#x215a;" horiz-adv-x="1096" 
d="M726 643c9 13 18 21 34 21c32 0 48 -31 31 -57l-400 -591c-9 -14 -18 -22 -34 -22c-32 0 -48 32 -31 57zM339 660c23 0 41 -15 41 -41c0 -25 -17 -41 -41 -41h-189l-14 -97c26 10 57 18 98 18c95 0 152 -56 152 -128c0 -100 -91 -157 -226 -157c-42 0 -87 4 -124 19
c-27 10 -31 29 -31 43c0 23 18 41 41 41c27 0 52 -19 120 -19c73 0 125 27 125 74c0 43 -38 57 -81 57c-55 0 -90 -22 -114 -22c-27 0 -47 16 -42 53l20 152c4 31 19 48 51 48h214zM965 444c23 0 39 -16 39 -42c0 -14 -7 -28 -26 -34c-79 -24 -125 -55 -151 -92
c25 22 55 30 85 30c83 0 159 -61 159 -150c0 -95 -75 -166 -182 -166c-100 0 -184 77 -184 181c0 99 68 210 210 261c17 6 35 12 50 12zM890 242c-39 0 -78 -22 -93 -67v-8c0 -58 45 -98 95 -98c49 0 88 36 88 87c0 49 -38 86 -90 86z" />
    <glyph glyph-name="uni2150" unicode="&#x2150;" horiz-adv-x="1044" 
d="M146 572c0 14 -5 17 -15 17h-66c-24 0 -41 16 -41 41s17 41 41 41h131c26 0 40 -14 40 -38v-367c0 -23 -19 -39 -45 -39c-25 0 -45 16 -45 39v306zM605 643c9 13 18 21 34 21c32 0 48 -31 31 -57l-400 -591c-9 -14 -18 -22 -34 -22c-32 0 -48 32 -31 57zM992 437
c28 0 41 -18 41 -41c0 -7 -1 -17 -7 -27c-13 -28 -44 -55 -92 -115c-54 -68 -65 -130 -65 -181v-23c0 -41 -26 -58 -53 -58c-28 0 -51 18 -51 58v17c0 54 16 117 84 199c34 42 59 67 75 90l-1 3c-21 -5 -144 -4 -228 -4c-24 0 -41 16 -41 41s17 41 41 41h297z" />
    <glyph glyph-name="uni215B" unicode="&#x215b;" horiz-adv-x="1022" 
d="M146 572c0 14 -5 17 -15 17h-66c-24 0 -41 16 -41 41s17 41 41 41h131c26 0 40 -14 40 -38v-367c0 -23 -19 -39 -45 -39c-25 0 -45 16 -45 39v306zM605 643c9 13 18 21 34 21c32 0 48 -31 31 -57l-400 -591c-9 -14 -18 -22 -34 -22c-32 0 -48 32 -31 57zM896 225
c54 -17 93 -55 93 -110c0 -68 -59 -125 -184 -125c-126 0 -184 57 -184 125c0 55 38 93 93 110c-39 15 -78 48 -78 99c0 58 51 122 169 122s169 -64 169 -122c0 -51 -39 -84 -78 -99zM805 247c42 14 76 34 76 67c0 32 -31 55 -76 55s-76 -23 -76 -55c0 -33 33 -53 76 -67z
M805 68c50 0 86 22 86 58c0 32 -29 56 -86 70c-57 -14 -86 -38 -86 -70c0 -36 35 -58 86 -58z" />
    <glyph glyph-name="uni215C" unicode="&#x215c;" horiz-adv-x="1121" 
d="M64 588c-24 0 -41 16 -41 41s17 41 41 41h239c28 0 45 -19 45 -42c0 -17 -8 -29 -19 -39l-99 -93v-1c80 -2 142 -39 142 -118c0 -93 -82 -153 -207 -153c-42 0 -88 7 -116 18s-32 29 -32 42c0 23 16 42 40 42c11 0 17 -2 31 -6c22 -7 54 -14 84 -14c67 0 103 30 103 70
c0 33 -23 50 -66 50l-57 -1c-26 0 -39 16 -39 39c0 11 6 22 18 33l101 92l-2 3c-21 -3 -60 -4 -166 -4zM704 643c9 13 18 21 34 21c32 0 48 -31 31 -57l-400 -591c-9 -14 -18 -22 -34 -22c-32 0 -48 32 -31 57zM995 225c54 -17 93 -55 93 -110c0 -68 -59 -125 -184 -125
c-126 0 -184 57 -184 125c0 55 38 93 93 110c-39 15 -78 48 -78 99c0 58 51 122 169 122s169 -64 169 -122c0 -51 -39 -84 -78 -99zM904 247c42 14 76 34 76 67c0 32 -31 55 -76 55s-76 -23 -76 -55c0 -33 33 -53 76 -67zM904 68c50 0 86 22 86 58c0 32 -29 56 -86 70
c-57 -14 -86 -38 -86 -70c0 -36 35 -58 86 -58z" />
    <glyph glyph-name="uni215D" unicode="&#x215d;" horiz-adv-x="1143" 
d="M726 643c9 13 18 21 34 21c32 0 48 -31 31 -57l-400 -591c-9 -14 -18 -22 -34 -22c-32 0 -48 32 -31 57zM339 660c23 0 41 -15 41 -41c0 -25 -17 -41 -41 -41h-189l-14 -97c26 10 57 18 98 18c95 0 152 -56 152 -128c0 -100 -91 -157 -226 -157c-42 0 -87 4 -124 19
c-27 10 -31 29 -31 43c0 23 18 41 41 41c27 0 52 -19 120 -19c73 0 125 27 125 74c0 43 -38 57 -81 57c-55 0 -90 -22 -114 -22c-27 0 -47 16 -42 53l20 152c4 31 19 48 51 48h214zM1017 225c54 -17 93 -55 93 -110c0 -68 -59 -125 -184 -125c-126 0 -184 57 -184 125
c0 55 38 93 93 110c-39 15 -78 48 -78 99c0 58 51 122 169 122s169 -64 169 -122c0 -51 -39 -84 -78 -99zM926 247c42 14 76 34 76 67c0 32 -31 55 -76 55s-76 -23 -76 -55c0 -33 33 -53 76 -67zM926 68c50 0 86 22 86 58c0 32 -29 56 -86 70c-57 -14 -86 -38 -86 -70
c0 -36 35 -58 86 -58z" />
    <glyph glyph-name="uni215E" unicode="&#x215e;" horiz-adv-x="1058" 
d="M641 643c9 13 18 21 34 21c32 0 48 -31 31 -57l-400 -591c-9 -14 -18 -22 -34 -22c-32 0 -48 32 -31 57zM338 660c28 0 41 -18 41 -41c0 -7 -1 -17 -7 -27c-13 -28 -44 -55 -92 -115c-54 -68 -65 -130 -65 -181v-23c0 -41 -26 -58 -53 -58c-28 0 -51 18 -51 58v17
c0 54 16 117 84 199c34 42 59 67 75 90l-1 3c-21 -5 -144 -4 -228 -4c-24 0 -41 16 -41 41s17 41 41 41h297zM932 225c54 -17 93 -55 93 -110c0 -68 -59 -125 -184 -125c-126 0 -184 57 -184 125c0 55 38 93 93 110c-39 15 -78 48 -78 99c0 58 51 122 169 122
s169 -64 169 -122c0 -51 -39 -84 -78 -99zM841 247c42 14 76 34 76 67c0 32 -31 55 -76 55s-76 -23 -76 -55c0 -33 33 -53 76 -67zM841 68c50 0 86 22 86 58c0 32 -29 56 -86 70c-57 -14 -86 -38 -86 -70c0 -36 35 -58 86 -58z" />
    <glyph glyph-name="uni2151" unicode="&#x2151;" horiz-adv-x="1019" 
d="M146 572c0 14 -5 17 -15 17h-66c-24 0 -41 16 -41 41s17 41 41 41h131c26 0 40 -14 40 -38v-367c0 -23 -19 -39 -45 -39c-25 0 -45 16 -45 39v306zM605 643c9 13 18 21 34 21c32 0 48 -31 31 -57l-400 -591c-9 -14 -18 -22 -34 -22c-32 0 -48 32 -31 57zM806 447
c99 0 184 -77 184 -181c0 -101 -65 -208 -211 -261c-16 -6 -34 -13 -49 -13c-23 0 -39 17 -39 41c0 15 7 30 27 36c73 23 118 52 144 87c-25 -19 -52 -27 -79 -27c-86 0 -160 60 -160 152c0 94 76 166 183 166zM804 367c-51 0 -89 -35 -89 -86c0 -49 39 -87 89 -87
c37 0 78 20 93 66v9c0 56 -42 98 -93 98z" />
    <glyph glyph-name="uni2152" unicode="&#x2152;" horiz-adv-x="1389" 
d="M146 572c0 14 -5 17 -15 17h-66c-24 0 -41 16 -41 41s17 41 41 41h131c26 0 40 -14 40 -38v-367c0 -23 -19 -39 -45 -39c-25 0 -45 16 -45 39v306zM605 643c9 13 18 21 34 21c32 0 48 -31 31 -57l-400 -591c-9 -14 -18 -22 -34 -22c-32 0 -48 32 -31 57zM1161 445
c103 0 193 -81 193 -227c0 -145 -90 -228 -193 -228s-192 83 -192 228c0 146 89 227 192 227zM778 339c0 14 -5 17 -15 17h-66c-24 0 -41 16 -41 41s17 41 41 41h131c26 0 40 -14 40 -38v-367c0 -23 -19 -39 -45 -39c-25 0 -45 16 -45 39v306zM1161 359
c-55 0 -93 -51 -93 -141c0 -89 38 -141 93 -141c54 0 94 52 94 141c0 90 -40 141 -94 141z" />
    <glyph glyph-name="dollar" unicode="$" horiz-adv-x="661" 
d="M342 785c29 0 50 -16 49 -44l-2 -80c128 -11 200 -76 200 -170c0 -25 -6 -53 -18 -72c-11 -16 -25 -26 -45 -26c-29 0 -47 19 -47 41c0 7 3 14 6 24c2 6 4 15 4 20c0 46 -33 81 -103 90v-222l21 -4c163 -33 194 -97 194 -168c0 -89 -72 -161 -212 -177l2 -80
c1 -28 -20 -44 -49 -44c-30 0 -50 16 -49 44l1 79c-71 5 -145 24 -191 51c-28 16 -45 35 -45 57c0 31 25 54 52 54c14 0 29 -6 44 -15c41 -25 90 -44 144 -51v175l-29 6c-165 35 -197 117 -197 188c0 84 68 181 223 199l-2 81c-1 28 20 44 49 44zM298 568
c-78 -12 -116 -54 -116 -101c0 -42 26 -86 116 -103v204zM386 249v-160c66 5 105 31 105 76c0 39 -21 63 -105 84z" />
    <glyph glyph-name="cent" unicode="&#xa2;" horiz-adv-x="563" 
d="M525 60c-36 -32 -98 -60 -167 -68l2 -76c0 -28 -20 -44 -49 -44c-30 0 -50 16 -49 44l1 75c-124 18 -215 115 -215 247c0 131 88 232 216 249l-2 78c-1 28 19 44 49 44c29 0 50 -16 49 -44l-2 -80c44 -7 83 -23 104 -39c19 -14 32 -27 32 -48c0 -24 -16 -49 -46 -49
c-16 0 -29 7 -44 15c-16 10 -32 17 -49 20v-297c44 6 76 25 109 48c11 7 23 15 38 15c29 0 45 -24 45 -48c0 -16 -8 -30 -22 -42zM160 243c0 -75 42 -130 107 -150v294c-65 -15 -107 -69 -107 -144z" />
    <glyph glyph-name="sterling" unicode="&#xa3;" horiz-adv-x="658" 
d="M257 245c-2 -28 -8 -55 -16 -81c47 -31 107 -69 167 -69c64 0 88 38 92 78c4 34 18 55 50 55c45 0 60 -31 60 -68c0 -97 -70 -166 -184 -166c-91 0 -156 40 -224 80c-12 -21 -23 -39 -33 -52c-14 -18 -30 -29 -53 -29c-25 0 -48 17 -48 44c0 11 3 21 11 33
c27 42 67 95 72 175h-66c-28 0 -51 20 -51 49s23 49 51 49h53c-10 43 -26 81 -26 125c0 112 96 204 244 204c138 0 219 -76 219 -182c0 -23 -5 -47 -13 -66c-10 -24 -25 -38 -51 -38c-27 0 -47 17 -47 43c0 14 9 25 9 49c0 55 -46 92 -121 92c-78 0 -127 -45 -127 -119
c0 -37 13 -70 20 -108h103c28 0 51 -20 51 -49s-23 -49 -51 -49h-91z" />
    <glyph glyph-name="currency" unicode="&#xa4;" 
d="M133 480l66 -67c29 18 63 29 100 29s72 -11 101 -29l66 66c18 17 43 10 60 -6c16 -16 23 -41 5 -59l-66 -67c19 -28 29 -63 29 -100s-10 -71 -29 -100l66 -65c19 -19 12 -45 -5 -61c-16 -16 -42 -24 -60 -6l-67 66c-29 -18 -63 -28 -100 -28s-71 10 -100 28l-67 -67
c-18 -18 -42 -11 -58 5c-17 16 -25 43 -7 61l66 66c-18 30 -29 64 -29 101s11 71 29 100l-66 67c-18 18 -10 43 5 59c17 18 43 25 61 7zM299 357c-60 0 -110 -49 -110 -110s50 -109 110 -109c61 0 110 48 110 109s-49 110 -110 110z" />
    <glyph glyph-name="yen" unicode="&#xa5;" horiz-adv-x="674" 
d="M572 665c27 0 49 -21 54 -44c4 -15 2 -31 -8 -45l-79 -113h52c26 0 48 -19 48 -49c0 -27 -19 -49 -48 -49h-124l-72 -102h196c26 0 48 -19 48 -49s-22 -49 -48 -49h-200v-124c0 -32 -29 -49 -55 -49c-31 0 -55 19 -55 49v124h-197c-27 0 -49 19 -49 49s22 49 49 49h192
l-72 102h-120c-27 0 -49 19 -49 49s22 49 49 49h50l-78 112c-11 15 -14 31 -11 46c5 23 28 44 56 44c24 0 39 -12 54 -33l182 -276l181 275c14 22 29 34 54 34z" />
    <glyph glyph-name="Euro" unicode="&#x20ac;" horiz-adv-x="734" 
d="M438 671c71 0 140 -25 187 -70c9 -9 21 -25 21 -42c0 -27 -19 -54 -50 -54c-17 0 -28 6 -42 17c-35 28 -71 44 -120 44c-84 0 -141 -42 -166 -123h213c25 0 43 -15 43 -42s-18 -43 -43 -43h-229v-29c0 -10 0 -20 1 -30h185c26 0 40 -15 40 -42s-18 -43 -43 -43h-163
c27 -77 85 -119 169 -119c74 0 126 25 187 84c9 8 21 17 41 17c28 0 51 -23 51 -50c0 -16 -6 -32 -22 -47c-68 -64 -153 -110 -257 -110c-142 0 -254 81 -292 225h-70c-26 0 -43 16 -43 43s17 42 43 42h56c-1 10 -1 20 -1 30s0 19 1 29h-56c-26 0 -43 16 -43 43s17 42 43 42
h69c38 147 151 228 290 228z" />
    <glyph glyph-name="florin" unicode="&#x192;" horiz-adv-x="556" 
d="M170 379h-55c-26 0 -48 20 -48 49c0 30 22 49 48 49h71l4 21c25 150 125 213 267 213c56 0 107 -12 142 -32c17 -10 25 -22 25 -38c0 -33 -25 -57 -52 -57c-12 0 -22 4 -32 7c-37 14 -65 19 -103 19c-79 0 -122 -38 -135 -115l-3 -18h146c27 0 49 -19 49 -49
c0 -29 -22 -49 -49 -49h-163l-66 -396c-25 -150 -105 -214 -239 -214c-34 0 -80 12 -107 27c-23 13 -31 26 -31 43c0 32 24 56 52 56c12 0 21 -4 31 -7c25 -9 46 -18 75 -18c66 0 94 39 107 115z" />
    <glyph glyph-name="uni20B9" unicode="&#x20b9;" horiz-adv-x="648" 
d="M545 480c30 0 47 -16 47 -43c0 -28 -17 -44 -47 -44h-83c-18 -82 -84 -157 -214 -163l184 -145c13 -10 19 -24 19 -39c0 -26 -24 -53 -56 -53c-19 0 -29 10 -43 21l-251 217c-10 8 -13 21 -13 36c0 32 19 49 52 49h62c84 0 124 32 139 77h-221c-30 0 -47 16 -47 44
c0 27 17 43 47 43h220c-15 44 -58 77 -143 77h-71c-33 0 -53 19 -53 50c0 32 20 51 53 51h419c30 0 47 -16 47 -43c0 -28 -17 -44 -47 -44h-136c28 -25 46 -57 53 -91h83z" />
    <glyph glyph-name="uni20BD" unicode="&#x20bd;" horiz-adv-x="650" 
d="M360 241h-153v-59h125c31 0 48 -16 48 -43c0 -28 -17 -44 -47 -44h-126v-53c0 -30 -23 -49 -55 -49s-55 19 -55 49v53h-38c-30 0 -47 16 -47 44c0 27 17 43 48 43h37v429c0 29 18 47 50 47h215c161 0 244 -95 244 -211c0 -122 -84 -206 -246 -206zM207 534v-205h142
c102 0 139 47 139 115c0 63 -36 113 -137 113h-124c-14 0 -20 -6 -20 -23z" />
    <glyph glyph-name="uni20BA" unicode="&#x20ba;" horiz-adv-x="682" 
d="M267 389v-67l79 37c24 11 52 1 64 -26s0 -55 -25 -65l-118 -50v-93c0 -18 6 -23 21 -23h22c138 0 250 77 222 196c-8 34 3 57 33 65c31 8 57 -7 66 -39c40 -149 -77 -324 -310 -324h-110c-33 0 -54 18 -54 51v118l-51 -24c-24 -11 -53 -1 -65 26s1 55 25 65l91 38v65
l-51 -23c-24 -11 -53 -1 -65 26s1 54 25 64l91 38v172c0 29 23 48 55 48s55 -19 55 -48v-123l79 36c24 11 52 2 64 -25s0 -55 -25 -65z" />
    <glyph glyph-name="percent" unicode="%" horiz-adv-x="836" 
d="M202 667c86 0 163 -69 163 -186c0 -118 -77 -185 -163 -185c-85 0 -163 67 -163 185c0 117 78 186 163 186zM585 643c9 13 19 21 34 21c32 0 49 -31 31 -57l-399 -591c-9 -14 -18 -22 -34 -22c-32 0 -48 32 -31 57zM202 580c-37 0 -63 -37 -63 -99c0 -63 26 -100 63 -100
s64 37 64 100c0 62 -27 99 -64 99zM634 363c86 0 163 -69 163 -186c0 -118 -77 -186 -163 -186c-85 0 -163 68 -163 186c0 117 78 186 163 186zM634 276c-37 0 -63 -37 -63 -99c0 -63 26 -100 63 -100s64 37 64 100c0 62 -27 99 -64 99z" />
    <glyph glyph-name="perthousand" unicode="&#x2030;" horiz-adv-x="1221" 
d="M202 667c86 0 163 -69 163 -186c0 -118 -77 -185 -163 -185c-85 0 -163 67 -163 185c0 117 78 186 163 186zM585 642c9 13 19 21 34 21c32 0 49 -31 31 -57l-399 -590c-9 -13 -18 -21 -34 -21c-32 0 -48 31 -31 57zM202 580c-37 0 -63 -37 -63 -99c0 -63 26 -100 63 -100
s64 37 64 100c0 62 -27 99 -64 99zM634 363c86 0 163 -69 163 -186c0 -118 -77 -186 -163 -186c-85 0 -163 68 -163 186c0 117 78 186 163 186zM1019 363c85 0 163 -69 163 -186c0 -118 -78 -186 -163 -186s-163 68 -163 186c0 117 77 186 163 186zM634 276
c-37 0 -63 -37 -63 -99c0 -63 26 -100 63 -100s64 37 64 100c0 62 -27 99 -64 99zM1019 276c-37 0 -64 -37 -64 -99c0 -63 27 -100 64 -100c36 0 64 37 64 100c0 62 -28 99 -64 99z" />
    <glyph glyph-name="plus" unicode="+" 
d="M355 198v-144c0 -31 -23 -50 -56 -50c-34 0 -56 19 -56 50v144h-151c-28 0 -51 20 -51 49c0 30 23 50 51 50h151v145c0 30 22 50 56 50c33 0 56 -20 56 -50v-145h151c28 0 51 -20 51 -49c0 -30 -23 -50 -51 -50h-151z" />
    <glyph glyph-name="minus" unicode="&#x2212;" 
d="M92 198c-28 0 -51 20 -51 49c0 30 23 50 51 50h414c28 0 51 -20 51 -49c0 -30 -23 -50 -51 -50h-414z" />
    <glyph glyph-name="plusminus" unicode="&#xb1;" 
d="M355 364v-144c0 -31 -23 -50 -56 -50c-34 0 -56 19 -56 50v144h-151c-28 0 -51 20 -51 49c0 30 23 50 51 50h151v145c0 30 22 50 56 50c33 0 56 -20 56 -50v-145h151c28 0 51 -20 51 -49c0 -30 -23 -50 -51 -50h-151zM92 0c-28 0 -51 20 -51 49c0 30 23 50 51 50h414
c28 0 51 -20 51 -49c0 -30 -23 -50 -51 -50h-414z" />
    <glyph glyph-name="divide" unicode="&#xf7;" 
d="M298 493c35 0 62 -27 62 -62c0 -33 -27 -62 -62 -62c-33 0 -62 29 -62 62c0 35 29 62 62 62zM506 297c28 0 51 -20 51 -49c0 -30 -23 -50 -51 -50h-414c-28 0 -51 20 -51 49c0 30 23 50 51 50h414zM301 126c35 0 63 -28 63 -62s-28 -62 -63 -62c-33 0 -61 28 -61 62
s28 62 61 62z" />
    <glyph glyph-name="multiply" unicode="&#xd7;" 
d="M461 464c29 0 53 -26 53 -53c0 -12 -5 -24 -16 -34l-129 -130l128 -126c10 -9 15 -22 15 -35c0 -28 -25 -50 -51 -50c-13 0 -25 4 -35 14l-129 126l-127 -126c-10 -11 -22 -17 -35 -17c-27 0 -52 26 -52 53c0 12 6 24 16 34l127 127l-126 125c-10 9 -15 22 -15 35
c0 26 25 50 51 50c13 0 25 -5 35 -14l126 -125l130 130c11 11 23 16 34 16z" />
    <glyph glyph-name="equal" unicode="=" 
d="M92 301c-28 0 -51 20 -51 49c0 30 23 50 51 50h414c28 0 51 -20 51 -49c0 -30 -23 -50 -51 -50h-414zM92 95c-28 0 -51 20 -51 49c0 30 23 50 51 50h414c28 0 51 -20 51 -49c0 -30 -23 -50 -51 -50h-414z" />
    <glyph glyph-name="less" unicode="&#x3c;" 
d="M89 204c-17 9 -26 26 -26 43c0 18 9 34 26 43l366 199c35 18 66 -5 66 -39c0 -23 -13 -38 -36 -50l-290 -153l290 -152c23 -12 36 -28 36 -51c0 -34 -31 -57 -66 -38z" />
    <glyph glyph-name="greater" unicode="&#x3e;" 
d="M143 489l366 -199c17 -9 26 -25 26 -43c0 -17 -9 -34 -26 -43l-366 -198c-35 -19 -66 4 -66 38c0 23 13 39 36 51l290 152l-290 153c-23 12 -36 27 -36 50c0 34 31 57 66 39z" />
    <glyph glyph-name="lessequal" unicode="&#x2264;" 
d="M92 373c-17 9 -25 26 -25 43c0 18 8 34 25 43l366 192c9 5 18 7 26 7c25 0 44 -22 44 -48c0 -23 -10 -37 -33 -48l-291 -146l291 -146c23 -10 33 -25 33 -47c0 -26 -19 -48 -44 -48c-8 0 -17 1 -26 6zM116 0c-28 0 -49 19 -49 48s21 48 49 48h363c28 0 49 -19 49 -48
s-21 -48 -49 -48h-363z" />
    <glyph glyph-name="greaterequal" unicode="&#x2265;" 
d="M508 373l-366 -192c-9 -5 -18 -6 -26 -6c-25 0 -44 22 -44 48c0 22 10 37 33 47l291 146l-291 146c-23 11 -33 25 -33 48c0 26 19 48 44 48c8 0 17 -2 26 -7l366 -192c17 -9 25 -25 25 -43c0 -17 -8 -34 -25 -43zM484 0h-363c-28 0 -49 19 -49 48s21 48 49 48h363
c28 0 49 -19 49 -48s-21 -48 -49 -48z" />
    <glyph glyph-name="approxequal" unicode="&#x2248;" 
d="M419 264c-91 0 -166 83 -226 83c-37 0 -48 -24 -59 -46c-10 -19 -19 -38 -46 -38c-23 0 -43 15 -43 45c0 53 50 131 132 131c91 0 166 -83 226 -83c36 0 47 23 58 45c10 20 19 40 47 40c23 0 43 -16 43 -46c0 -52 -50 -131 -132 -131zM419 56c-91 0 -166 83 -226 83
c-37 0 -48 -24 -59 -46c-10 -19 -19 -38 -46 -38c-23 0 -43 15 -43 45c0 53 50 131 132 131c91 0 166 -83 226 -83c36 0 47 23 58 45c10 20 19 40 47 40c23 0 43 -16 43 -46c0 -52 -50 -131 -132 -131z" />
    <glyph glyph-name="notequal" unicode="&#x2260;" 
d="M506 194c28 0 51 -20 51 -49c0 -30 -23 -50 -51 -50h-206l-26 -71c-10 -29 -36 -42 -67 -32c-32 10 -45 34 -35 63l15 40h-95c-28 0 -51 20 -51 49c0 30 23 50 51 50h130l39 107h-169c-28 0 -51 20 -51 49c0 30 23 50 51 50h205l27 74c11 29 36 41 68 32
c32 -10 45 -34 34 -62l-16 -44h96c28 0 51 -20 51 -49c0 -30 -23 -50 -51 -50h-132l-38 -107h170z" />
    <glyph glyph-name="logicalnot" unicode="&#xac;" 
d="M444 198h-352c-28 0 -51 20 -51 49c0 30 23 50 51 50h414c28 0 51 -20 51 -49v-194c0 -31 -23 -50 -57 -50c-33 0 -56 19 -56 50v144z" />
    <glyph glyph-name="partialdiff" unicode="&#x2202;" 
d="M449 380c0 151 -88 233 -172 233c-60 0 -112 -20 -155 -51c-12 -8 -21 -14 -36 -14c-26 0 -47 22 -47 48c0 14 7 28 24 41c50 41 133 72 214 72c169 0 289 -111 289 -359c0 -249 -114 -364 -278 -364c-147 0 -254 104 -254 240c0 131 99 229 233 229
c56 0 132 -21 182 -75zM296 87c91 0 140 72 149 168c3 9 4 20 5 31c-46 61 -109 79 -157 79c-70 0 -146 -45 -146 -138c0 -91 71 -140 149 -140z" />
    <glyph glyph-name="emptyset" unicode="&#x2205;" horiz-adv-x="610" 
d="M600 580c0 -9 -4 -19 -13 -28l-54 -55c33 -45 53 -102 53 -165c0 -157 -121 -269 -279 -269c-59 0 -113 16 -157 44l-56 -57c-8 -9 -18 -14 -28 -13c-23 0 -51 26 -51 51c0 9 4 19 13 28l53 54c-33 44 -52 99 -52 162c0 160 120 273 278 273c59 0 113 -16 157 -45l57 58
c8 9 18 13 28 13c24 1 51 -27 51 -51zM134 332c0 -32 8 -61 21 -86l238 241c-25 14 -55 22 -86 22c-91 0 -173 -66 -173 -177zM481 332c0 33 -8 64 -22 89l-237 -241c25 -13 54 -20 85 -20c92 0 174 64 174 172z" />
    <glyph glyph-name="product" unicode="&#x220f;" 
d="M528 694c31 0 50 -23 50 -56s-19 -57 -50 -57h-17v-630c0 -30 -23 -50 -56 -50s-56 20 -56 50v630h-200v-630c0 -30 -23 -50 -56 -50s-56 20 -56 50v630h-17c-31 0 -50 24 -50 57c-1 33 19 56 50 56h458z" />
    <glyph glyph-name="summation" unicode="&#x2211;" 
d="M508 16c29 0 52 -19 52 -54c0 -32 -23 -52 -52 -52h-403c-38 0 -62 27 -62 60c0 23 12 42 29 66l168 251l-150 244c-15 23 -32 41 -32 67c0 35 23 60 64 60h374c29 0 51 -20 51 -52c0 -35 -22 -53 -51 -53h-290l146 -235c13 -20 13 -42 -1 -61l-165 -241h322z" />
    <glyph glyph-name="radical" unicode="&#x221a;" 
d="M47 285l22 82c11 39 41 58 74 58s61 -19 71 -59l70 -259h2l149 547c8 31 24 46 52 46c38 0 65 -29 51 -73l-173 -574c-12 -37 -44 -59 -82 -59c-40 0 -65 21 -76 61l-67 239l-11 -33c-6 -21 -23 -30 -40 -30c-25 0 -52 19 -42 54z" />
    <glyph glyph-name="infinity" unicode="&#x221e;" 
d="M299 214c-26 -68 -75 -107 -135 -107c-93 0 -145 79 -145 219s54 219 149 219c57 0 104 -39 131 -108c26 69 73 108 131 108c95 0 149 -79 149 -219s-52 -219 -145 -219c-60 0 -109 39 -135 107zM266 326c-21 80 -52 125 -85 125c-40 0 -63 -45 -63 -125s21 -125 59 -125
c36 0 68 45 89 125zM337 326c21 -80 51 -125 85 -125c37 0 58 45 58 125s-23 125 -63 125c-30 0 -59 -45 -80 -125z" />
    <glyph glyph-name="integral" unicode="&#x222b;" 
d="M532 690c20 -11 32 -24 32 -45c0 -29 -22 -49 -46 -49c-12 0 -21 3 -33 7c-10 3 -28 7 -45 7c-47 0 -81 -38 -81 -115v-491c0 -149 -76 -214 -192 -214c-35 0 -67 6 -93 21c-20 11 -32 24 -32 45c0 29 22 49 46 49c12 0 21 -3 33 -7c10 -3 28 -7 45 -7c47 0 81 38 81 115
v492c0 148 76 213 192 213c35 0 67 -6 93 -21z" />
    <glyph glyph-name="asciicircum" unicode="^" 
d="M299 561l-147 -176c-12 -14 -24 -22 -40 -22c-27 0 -52 32 -26 65l162 207c10 14 25 27 51 27s40 -13 51 -27l162 -207c25 -33 2 -65 -27 -65c-17 0 -29 8 -41 22z" />
    <glyph glyph-name="asciitilde" unicode="~" 
d="M423 159c-91 0 -166 83 -226 83c-37 0 -48 -24 -59 -46c-10 -19 -19 -38 -46 -38c-23 0 -43 15 -43 45c0 53 50 131 132 131c91 0 166 -83 226 -83c36 0 47 23 58 45c10 20 19 40 47 40c23 0 43 -16 43 -46c0 -52 -50 -131 -132 -131z" />
    <glyph glyph-name="degree" unicode="&#xb0;" horiz-adv-x="398" 
d="M199 343c-88 0 -160 72 -160 160c0 89 72 160 160 160c89 0 160 -71 160 -160c0 -88 -71 -160 -160 -160zM292 503c0 51 -42 93 -93 93s-93 -42 -93 -93s42 -93 93 -93s93 42 93 93z" />
    <glyph glyph-name="uni0394" unicode="&#x394;" 
d="M559 85c4 -13 8 -24 8 -32c0 -31 -25 -53 -58 -53h-415c-32 0 -54 21 -56 50c-1 13 5 25 9 39l155 498c17 58 52 77 97 77h7c46 0 80 -19 98 -77zM301 554l-135 -454h271l-133 454h-3z" />
    <glyph glyph-name="uni03A9" unicode="&#x3a9;" 
d="M535 102c33 0 53 -20 53 -51s-20 -51 -53 -51h-159c-32 0 -52 20 -52 51c0 23 13 35 34 46c64 34 98 125 98 251c0 130 -58 213 -156 213c-97 0 -155 -83 -155 -213c0 -126 30 -216 95 -251c21 -10 34 -23 34 -46c0 -31 -20 -51 -52 -51h-159c-33 0 -53 20 -53 51
s20 51 53 51h52c-53 50 -90 125 -90 260c0 165 87 307 275 307s276 -142 276 -307c0 -136 -39 -211 -93 -260h52z" />
    <glyph glyph-name="pi" unicode="&#x3c0;" 
d="M518 378h-28v-6c0 -163 7 -234 31 -301c18 -48 -14 -77 -50 -77c-26 0 -41 14 -51 38c-35 78 -42 151 -42 328v18l-170 1v-335c0 -30 -23 -50 -56 -50s-56 20 -56 50v335h-28c-26 0 -48 20 -48 49c0 30 22 49 48 49h450c27 0 49 -20 49 -49c0 -30 -22 -50 -49 -50z" />
    <glyph glyph-name="uni00B5" unicode="&#xb5;" horiz-adv-x="668" 
d="M206 190c0 -80 44 -104 85 -104c63 0 127 65 164 167v180c0 31 23 50 56 50s57 -19 57 -50v-59c0 -163 6 -236 32 -304c17 -46 -15 -76 -50 -76c-30 0 -47 22 -58 51c-9 21 -15 53 -20 97h-1c-45 -94 -104 -156 -185 -156c-29 0 -55 9 -75 24c5 -67 16 -110 30 -156
c11 -38 -20 -67 -57 -67c-40 0 -52 33 -61 77c-19 66 -30 189 -30 312v258c0 30 23 49 56 49s57 -19 57 -49v-244z" />
    <glyph glyph-name="lozenge" unicode="&#x25ca;" 
d="M45 201c-25 26 -26 54 -2 78l216 216c25 26 54 25 80 0l212 -213c26 -25 27 -54 3 -78l-216 -216c-26 -26 -55 -25 -80 0zM298 80l162 162l-162 162l-162 -162z" />
    <glyph glyph-name="grave" unicode="`" horiz-adv-x="282" 
d="M242 600c22 -18 22 -41 12 -55c-12 -16 -38 -19 -59 -5l-147 98c-18 12 -26 26 -26 41c-1 27 21 49 50 49c13 0 26 -6 38 -16z" />
    <glyph glyph-name="acute" unicode="&#xb4;" horiz-adv-x="282" 
d="M88 540c-21 -14 -48 -11 -60 5c-10 14 -10 37 12 55l132 112c12 10 25 16 38 16c29 0 51 -22 51 -49c0 -15 -9 -29 -27 -41z" />
    <glyph glyph-name="circumflex" unicode="&#x2c6;" horiz-adv-x="459" 
d="M229 728c26 0 39 -12 52 -28c30 -33 66 -72 103 -107c31 -29 7 -62 -23 -62c-17 0 -28 9 -41 21l-91 78l-92 -78c-12 -11 -23 -21 -40 -21c-28 0 -53 33 -23 62c37 35 74 74 104 107c14 16 25 28 51 28z" />
    <glyph glyph-name="caron" unicode="&#x2c7;" horiz-adv-x="459" 
d="M320 713c13 12 24 21 41 21c30 0 54 -33 23 -62c-37 -35 -73 -74 -103 -107c-13 -16 -26 -28 -52 -28s-37 12 -51 28c-30 33 -67 72 -104 107c-30 29 -5 62 23 62c17 0 28 -10 40 -21l92 -77z" />
    <glyph glyph-name="tilde" unicode="&#x2dc;" horiz-adv-x="433" 
d="M278 630c18 0 24 15 30 29c7 16 18 23 36 23c19 0 38 -12 38 -41c0 -45 -33 -91 -89 -91c-58 0 -99 50 -135 50c-18 0 -24 -14 -30 -28c-7 -16 -18 -24 -36 -24c-19 0 -38 12 -38 41c0 45 33 92 89 92c59 0 99 -51 135 -51z" />
    <glyph glyph-name="dieresis" unicode="&#xa8;" horiz-adv-x="467" 
d="M143 553c-33 0 -60 27 -60 60c0 34 27 62 60 62c34 0 62 -28 62 -62c0 -33 -28 -60 -62 -60zM336 553c-33 0 -60 27 -60 60c0 34 27 62 60 62c35 0 62 -28 62 -62c0 -33 -27 -60 -62 -60z" />
    <glyph glyph-name="ring" unicode="&#x2da;" horiz-adv-x="261" 
d="M241 635c0 -58 -50 -103 -111 -103c-60 0 -109 45 -109 103s50 102 110 102c61 0 110 -44 110 -102zM131 585c28 0 49 21 49 50c0 28 -21 50 -49 50c-29 0 -50 -22 -50 -50c0 -29 21 -50 50 -50z" />
    <glyph glyph-name="macron" unicode="&#xaf;" horiz-adv-x="423" 
d="M90 567c-29 0 -50 18 -50 46c0 27 21 46 50 46h243c29 0 50 -19 50 -46c0 -28 -21 -46 -50 -46h-243z" />
    <glyph glyph-name="breve" unicode="&#x2d8;" horiz-adv-x="419" 
d="M210 549c-113 0 -177 83 -177 142c0 24 19 37 43 37c19 0 31 -12 35 -23c19 -51 51 -73 99 -73c47 0 79 22 98 73c5 11 17 23 36 23c23 0 43 -13 43 -37c0 -59 -65 -142 -177 -142z" />
    <glyph glyph-name="dotaccent" unicode="&#x2d9;" horiz-adv-x="402" 
d="M201 555c-42 0 -76 33 -76 75c0 41 34 75 76 75s76 -34 76 -75c0 -42 -34 -75 -76 -75z" />
    <glyph glyph-name="hungarumlaut" unicode="&#x2dd;" horiz-adv-x="469" 
d="M111 542c-22 -20 -50 -16 -62 1c-10 14 -8 32 4 47l100 125c10 12 22 19 36 19c26 0 52 -20 51 -47c0 -15 -9 -29 -24 -44zM301 542c-21 -20 -50 -16 -62 1c-10 14 -7 32 5 47l99 125c10 12 23 19 36 19c27 0 52 -20 52 -47c0 -15 -9 -29 -25 -44z" />
    <glyph glyph-name="cedilla" unicode="&#xb8;" horiz-adv-x="340" 
d="M195 0l-16 -48c76 -2 112 -40 112 -84c0 -66 -62 -112 -149 -112c-32 0 -70 5 -90 17c-11 6 -16 17 -16 29c0 17 14 32 31 32c20 0 41 -11 81 -11c38 0 65 16 65 40c0 22 -28 33 -67 33c-9 0 -15 -1 -21 -1c-23 0 -32 21 -24 42l26 63h68z" />
    <glyph glyph-name="ogonek" unicode="&#x2db;" horiz-adv-x="364" 
d="M137 -87c0 -25 27 -39 57 -39c22 0 44 10 60 20c6 4 14 9 23 9c20 0 36 -17 36 -37c0 -9 -5 -19 -14 -29c-16 -17 -54 -43 -121 -43c-83 0 -147 43 -147 112s74 139 218 197c32 12 65 -9 65 -42c0 -15 -7 -29 -23 -37c-67 -33 -154 -64 -154 -111z" />
    <glyph glyph-name="caron.alt" horiz-adv-x="224" 
d="M71 556c1 29 4 95 2 138c-2 30 16 52 50 52c33 0 49 -18 49 -44s-17 -109 -28 -145c-7 -19 -18 -34 -39 -34c-20 0 -34 14 -34 33z" />
    <glyph glyph-name="gravecomb" unicode="&#x300;" horiz-adv-x="0" 
d="M-40 600c22 -18 22 -41 12 -55c-12 -16 -38 -19 -59 -5l-147 98c-18 12 -26 26 -26 41c-1 27 21 49 50 49c13 0 26 -6 38 -16z" />
    <glyph glyph-name="acutecomb" unicode="&#x301;" horiz-adv-x="0" 
d="M-194 540c-21 -14 -48 -11 -60 5c-10 14 -10 37 12 55l132 112c12 10 25 16 38 16c29 0 51 -22 51 -49c0 -15 -9 -29 -27 -41z" />
    <glyph glyph-name="uni0302" unicode="&#x302;" horiz-adv-x="0" 
d="M-230 728c26 0 39 -12 52 -28c30 -33 66 -72 103 -107c31 -29 7 -62 -23 -62c-17 0 -28 9 -41 21l-91 78l-92 -78c-12 -11 -23 -21 -40 -21c-28 0 -53 33 -23 62c37 35 74 74 104 107c14 16 25 28 51 28z" />
    <glyph glyph-name="uni030C" unicode="&#x30c;" horiz-adv-x="0" 
d="M-139 713c13 12 24 21 41 21c30 0 54 -33 23 -62c-37 -35 -73 -74 -103 -107c-13 -16 -26 -28 -52 -28s-37 12 -51 28c-30 33 -67 72 -104 107c-30 29 -5 62 23 62c17 0 28 -10 40 -21l92 -77z" />
    <glyph glyph-name="tildecomb" unicode="&#x303;" horiz-adv-x="0" 
d="M-155 630c18 0 24 15 30 29c7 16 18 23 36 23c19 0 38 -12 38 -41c0 -45 -33 -91 -89 -91c-58 0 -99 50 -135 50c-18 0 -24 -14 -30 -28c-7 -16 -18 -24 -36 -24c-19 0 -38 12 -38 41c0 45 33 92 89 92c59 0 99 -51 135 -51z" />
    <glyph glyph-name="uni0308" unicode="&#x308;" horiz-adv-x="0" 
d="M-324 553c-33 0 -60 27 -60 60c0 34 27 62 60 62c34 0 62 -28 62 -62c0 -33 -28 -60 -62 -60zM-131 553c-33 0 -60 27 -60 60c0 34 27 62 60 62c35 0 62 -28 62 -62c0 -33 -27 -60 -62 -60z" />
    <glyph glyph-name="uni030A" unicode="&#x30a;" horiz-adv-x="0" 
d="M-20 635c0 -58 -50 -103 -111 -103c-60 0 -109 45 -109 103s50 102 110 102c61 0 110 -44 110 -102zM-130 585c28 0 49 21 49 50c0 28 -21 50 -49 50c-29 0 -50 -22 -50 -50c0 -29 21 -50 50 -50z" />
    <glyph glyph-name="uni0304" unicode="&#x304;" horiz-adv-x="0" 
d="M-333 567c-29 0 -50 18 -50 46c0 27 21 46 50 46h243c29 0 50 -19 50 -46c0 -28 -21 -46 -50 -46h-243z" />
    <glyph glyph-name="uni0306" unicode="&#x306;" horiz-adv-x="0" 
d="M-209 549c-113 0 -177 83 -177 142c0 24 19 37 43 37c19 0 31 -12 35 -23c19 -51 51 -73 99 -73c47 0 79 22 98 73c5 11 17 23 36 23c23 0 43 -13 43 -37c0 -59 -65 -142 -177 -142z" />
    <glyph glyph-name="uni0307" unicode="&#x307;" horiz-adv-x="0" 
d="M-201 555c-42 0 -76 33 -76 75c0 41 34 75 76 75s76 -34 76 -75c0 -42 -34 -75 -76 -75z" />
    <glyph glyph-name="uni030B" unicode="&#x30b;" horiz-adv-x="0" 
d="M-358 542c-22 -20 -50 -16 -62 1c-10 14 -8 32 4 47l100 125c10 12 22 19 36 19c26 0 52 -20 51 -47c0 -15 -9 -29 -24 -44zM-168 542c-21 -20 -50 -16 -62 1c-10 14 -7 32 5 47l99 125c10 12 23 19 36 19c27 0 52 -20 52 -47c0 -15 -9 -29 -25 -44z" />
    <glyph glyph-name="uni0327" unicode="&#x327;" horiz-adv-x="0" 
d="M-145 0l-16 -48c76 -2 112 -40 112 -84c0 -66 -62 -112 -149 -112c-32 0 -70 5 -90 17c-11 6 -16 17 -16 29c0 17 14 32 31 32c20 0 41 -11 81 -11c38 0 65 16 65 40c0 22 -28 33 -67 33c-9 0 -15 -1 -21 -1c-23 0 -32 21 -24 42l26 63h68z" />
    <glyph glyph-name="uni0328" unicode="&#x328;" horiz-adv-x="0" 
d="M-227 -87c0 -25 27 -39 57 -39c22 0 44 10 60 20c6 4 14 9 23 9c20 0 36 -17 36 -37c0 -9 -5 -19 -14 -29c-16 -17 -54 -43 -121 -43c-83 0 -147 43 -147 112s74 139 218 197c32 12 65 -9 65 -42c0 -15 -7 -29 -23 -37c-67 -33 -154 -64 -154 -111z" />
    <glyph glyph-name="uni0326" unicode="&#x326;" horiz-adv-x="0" 
d="M-129 -221c-31 -5 -74 16 -74 63c0 42 33 70 74 70c42 0 80 -31 80 -90c0 -55 -34 -129 -90 -161c-13 -8 -26 -11 -37 -11c-20 0 -31 13 -31 26c-1 10 5 21 18 27c33 15 53 39 60 76z" />
    <glyph glyph-name="f_f_l.alt" horiz-adv-x="1285" 
d="M622 477v21c0 148 98 213 239 213c55 0 104 -11 140 -28c23 -11 33 -25 33 -46c0 -29 -22 -50 -47 -50c-12 0 -22 4 -33 7c-34 10 -60 16 -99 16c-77 0 -120 -38 -120 -115v-18h162c27 0 49 -19 49 -49c0 -29 -22 -49 -49 -49h-162v-335c0 -31 -24 -50 -57 -50
s-56 19 -56 50v335h-72c-26 0 -48 20 -48 49c0 30 22 49 48 49h72zM133 477v19c0 148 97 213 238 213c56 0 99 -10 135 -28c25 -12 33 -25 33 -47c0 -28 -21 -49 -45 -49c-12 0 -22 4 -35 8c-29 10 -55 15 -93 15c-78 0 -121 -38 -121 -115v-16h163c26 0 48 -19 48 -49
c0 -29 -22 -49 -48 -49h-163v-335c0 -31 -23 -50 -56 -50s-56 19 -56 50v335h-72c-27 0 -49 20 -49 49c0 30 22 49 49 49h72zM1072 644c0 30 23 50 56 50s57 -20 57 -50l-1 -358c0 -110 11 -155 33 -216c17 -44 -17 -77 -56 -77c-29 0 -49 29 -60 57c-17 48 -29 112 -29 204
v390z" />
    <glyph glyph-name="fl.alt" horiz-adv-x="795" 
d="M133 477v21c0 148 97 213 238 213c56 0 91 -8 124 -23c26 -12 34 -25 34 -47c0 -28 -21 -50 -46 -50c-12 0 -22 4 -35 8c-23 6 -44 11 -82 11c-78 0 -121 -38 -121 -115v-18h163c26 0 48 -19 48 -49c0 -29 -22 -49 -48 -49h-163v-335c0 -31 -23 -50 -56 -50
s-56 19 -56 50v335h-72c-27 0 -49 20 -49 49c0 30 22 49 49 49h72zM583 644c0 30 23 50 56 50s57 -20 57 -50l-1 -358c0 -110 11 -155 33 -216c17 -44 -17 -77 -56 -77c-29 0 -49 29 -60 57c-17 48 -29 112 -29 204v390z" />
    </font>
</defs>
</svg>
