<svg xmlns="http://www.w3.org/2000/svg" width="1440" height="207.541" viewBox="0 0 1440 207.541">
  <path id="Path_565" data-name="Path 565" d="M-713.98-203.29h57.844l59.007,119.176,58.716-119.176h57.844V.473h-47.089l-.291-129.059L-579.979-19.875h-34.3L-666.6-128.587V.473h-47.38Zm272.943,0h53.193V.473h-53.193Zm78.773,0h61.914l38.078,57.844L-223.9-203.29h62.786l-67.146,97.376L-155.3.473h-63.658L-262.272-62.6-304.711.473h-62.2L-294.537-103.3Zm293,0h53.193V.473H-69.265Zm74.994,0h174.7V-159.4H119.383V.473H66.19V-159.4H5.729ZM316.169-83.532q0,19.184,11.336,30.811t28.777,11.627q17.15,0,27.759-11.482t10.61-30.957V-203.29h53.193V-83.532q0,26.451-11.191,46.363A75.731,75.731,0,0,1,404.68-6.5Q383.9,4.251,355.992,4.251T307.013-6.5A77.178,77.178,0,0,1,274.458-37.17q-11.482-19.911-11.482-46.363V-203.29h53.193ZM573.707-203.29q38.95,0,60.46,18.748t21.51,52.757q0,36.044-21.51,55.955t-60.46,19.911H537.373V.473H484.179V-203.29ZM571.091-98.357q16.278,0,25.143-8.139T605.1-130.04q0-14.824-8.866-22.818t-25.143-7.994H537.373v62.495ZM676.9-202.127H726.02V-150.1l-9.011,79.935h-31.1L676.9-150.1ZM700.441-47.489q11.046,0,18.022,6.976t6.976,18.022q0,11.046-6.976,18.167T700.441,2.8q-10.755,0-17.731-7.122t-6.976-18.167q0-11.046,6.831-18.022T700.441-47.489Z" transform="translate(713.98 203.29)" fill="#41cef0"/>
</svg>
