<svg id="Group_1111" data-name="Group 1111" xmlns="http://www.w3.org/2000/svg" width="48.433" height="45.572" viewBox="0 0 48.433 45.572">
  <path id="Path_3054" data-name="Path 3054" d="M50.144,69.764a3.8,3.8,0,1,1,3.8-3.8A3.806,3.806,0,0,1,50.144,69.764Zm-3.061-21.88h4.233a6.722,6.722,0,0,1,6.706,6.706V69.759a6.724,6.724,0,0,1-6.243,6.69l.632,1.511a1.19,1.19,0,0,1-1.094,1.64L16.3,79.6a1.186,1.186,0,0,1-1.065-1.713l.6-1.44a6.724,6.724,0,0,1-6.243-6.69V54.591A6.722,6.722,0,0,1,16.3,47.885h4.233V35.217a1.187,1.187,0,0,1,1.187-1.187H45.9a1.188,1.188,0,0,1,1.188,1.187V47.885Zm-8.49,16.892a1.187,1.187,0,0,1,0,2.374h-.98a1.187,1.187,0,0,1,0-2.374Zm4.958,0a1.187,1.187,0,0,1,0,2.374h-.98a1.187,1.187,0,0,1,0-2.374ZM18.22,59.015a1.187,1.187,0,0,1,0-2.375h2.309V50.259H16.3a4.348,4.348,0,0,0-4.332,4.332V69.759A4.348,4.348,0,0,0,16.3,74.09h.523l1.006-2.4a1.185,1.185,0,0,1,1.094-.731l29.775,0a1.188,1.188,0,0,1,1.122.8l.977,2.337h.524a4.348,4.348,0,0,0,4.332-4.332V54.59a4.348,4.348,0,0,0-4.332-4.332H47.083v6.382h2.308a1.187,1.187,0,0,1,0,2.375ZM44.709,36.4H22.9V56.641H44.709Zm4.232,39.4-1.035-2.476h-28.2l-1.63,3.9h31.46Zm1.2-8.413a1.427,1.427,0,1,0-1.427-1.427A1.424,1.424,0,0,0,50.144,67.39Z" transform="translate(-9.59 -34.03)" fill="#bd9c7c"/>
</svg>
