<svg id="breakfast" xmlns="http://www.w3.org/2000/svg" width="51.136" height="44.538" viewBox="0 0 51.136 44.538">
  <path id="Path_3002" data-name="Path 3002" d="M48.661,16.5H39.106l11.1-11.1A3.157,3.157,0,0,0,47.978,0a3.135,3.135,0,0,0-2.233.925L30.175,16.5H2.474a2.474,2.474,0,1,0,0,4.949H3.3v2.474A17.338,17.338,0,0,0,13.68,39.777a4.116,4.116,0,0,0-2.958,3.936v.825H40.414v-.825a4.116,4.116,0,0,0-2.958-3.936A17.338,17.338,0,0,0,47.837,23.918V21.444h.825a2.474,2.474,0,0,0,0-4.949Zm-1.75-14.4a1.508,1.508,0,1,1,2.133,2.133L36.773,16.5H32.508ZM25.226,21.444l-.938.938a2.338,2.338,0,0,1-1.725.723,8.709,8.709,0,0,0-5.586,1.919,17.321,17.321,0,0,0-2.957-.281c-4.18,0-7.209.836-8.75,2.344a15.649,15.649,0,0,1-.323-3.169V21.444Zm1.156,7.2a7.342,7.342,0,0,1-2.3,5.336c-2.55,2.55-6.18,3.07-8.093,1.157a4.337,4.337,0,0,1-1.1-3.7,7.661,7.661,0,0,1,2.261-4.388,7.338,7.338,0,0,1,5.336-2.3,3.99,3.99,0,0,0,2.967-1.205l2.1-2.1h4.266l-4.237,4.237A3.976,3.976,0,0,0,26.383,28.648ZM13.254,31.232a7.118,7.118,0,0,0,0,1.742C10.421,32.895,8.2,32.38,6.914,31.5a15.644,15.644,0,0,1-1.05-2.353c.54-1.679,3.684-2.754,8.157-2.754.462,0,.939.027,1.424.074A9.141,9.141,0,0,0,13.254,31.232ZM36.29,41.238a2.479,2.479,0,0,1,2.333,1.65H12.512a2.479,2.479,0,0,1,2.333-1.65Zm-5.773-1.65h-9.9A15.637,15.637,0,0,1,8.662,34.024a20.334,20.334,0,0,0,5.03.609,5.4,5.4,0,0,0,1.136,1.675,5.766,5.766,0,0,0,4.158,1.622,9.062,9.062,0,0,0,6.268-2.78,9.647,9.647,0,0,0,2.506-4.283c3.341-1.455,6.5-2.825,9.355-2.825a29.242,29.242,0,0,1,8.173,1.06A15.685,15.685,0,0,1,30.516,39.589ZM46.187,23.918a15.624,15.624,0,0,1-.434,3.6,30.94,30.94,0,0,0-8.639-1.127c-2.916,0-5.927,1.2-9.09,2.562,0-.128.012-.257.006-.383a2.332,2.332,0,0,1,.723-1.725l5.4-5.4h12.03Zm2.474-4.124H2.474a.825.825,0,1,1,0-1.65H48.661a.825.825,0,0,1,0,1.65Zm0,0" fill="#bd9c7c"/>
  <path id="Path_3003" data-name="Path 3003" d="M165.762,256a5.832,5.832,0,0,0-3.931,1.823,6.1,6.1,0,0,0-1.79,3.426,2.737,2.737,0,0,0,.633,2.333,2.5,2.5,0,0,0,1.828.667,5.83,5.83,0,0,0,3.93-1.823,6.1,6.1,0,0,0,1.79-3.426,2.737,2.737,0,0,0-.633-2.333A2.5,2.5,0,0,0,165.762,256Zm.826,2.794a4.429,4.429,0,0,1-1.32,2.464,4.228,4.228,0,0,1-2.764,1.34.972.972,0,0,1-.663-.182,1.256,1.256,0,0,1-.164-.962A4.43,4.43,0,0,1,163,258.99a4.227,4.227,0,0,1,2.765-1.34.972.972,0,0,1,.662.182A1.26,1.26,0,0,1,166.588,258.794Zm0,0" transform="translate(-143.513 -229.607)" fill="#bd9c7c"/>
</svg>
