<svg id="meal" xmlns="http://www.w3.org/2000/svg" width="56.359" height="41.329" viewBox="0 0 56.359 41.329">
  <g id="Group_890" data-name="Group 890" transform="translate(0 0)">
    <g id="Group_889" data-name="Group 889">
      <path id="Path_3029" data-name="Path 3029" d="M239.45,81.521a.939.939,0,0,0,.84,1.68,4.411,4.411,0,0,0,2.4-3.659A3.346,3.346,0,0,0,241.473,77c-.46-.46-.664-.687-.664-1.215s.2-.754.664-1.215a3.347,3.347,0,0,0,1.215-2.543,4.408,4.408,0,0,0-2.4-3.658.939.939,0,0,0-.845,1.678,2.56,2.56,0,0,1,1.365,1.98c0,.528-.2.754-.664,1.215a3.269,3.269,0,0,0,0,5.085c.46.46.664.687.664,1.215A2.563,2.563,0,0,1,239.45,81.521Z" transform="translate(-212.629 -68.272)" fill="#bd9c7c"/>
      <path id="Path_3030" data-name="Path 3030" d="M172.543,126.971a2.557,2.557,0,0,1-1.365,1.98.94.94,0,0,0,.845,1.679,4.412,4.412,0,0,0,2.4-3.659,3.346,3.346,0,0,0-1.215-2.543c-.46-.46-.664-.687-.664-1.215a2.556,2.556,0,0,1,1.359-1.977.939.939,0,0,0-.84-1.68,4.408,4.408,0,0,0-2.4,3.658,3.346,3.346,0,0,0,1.215,2.543C172.339,126.216,172.543,126.443,172.543,126.971Z" transform="translate(-151.878 -113.821)" fill="#bd9c7c"/>
      <path id="Path_3031" data-name="Path 3031" d="M309.078,126.977a2.557,2.557,0,0,1-1.364,1.98.94.94,0,0,0,.844,1.679,4.409,4.409,0,0,0,2.4-3.659,3.346,3.346,0,0,0-1.215-2.543c-.46-.46-.664-.687-.664-1.215a2.556,2.556,0,0,1,1.359-1.977.939.939,0,0,0-.84-1.68,4.406,4.406,0,0,0-2.4,3.658,3.346,3.346,0,0,0,1.215,2.543C308.874,126.223,309.078,126.449,309.078,126.977Z" transform="translate(-273.384 -113.828)" fill="#bd9c7c"/>
      <path id="Path_3032" data-name="Path 3032" d="M111.877,242.688a1.87,1.87,0,0,1,1.583.879.941.941,0,0,0,1.257.314,1.838,1.838,0,0,1,2.18.247.939.939,0,0,0,1.572-.628,1.868,1.868,0,0,1,3.427-.907.974.974,0,0,0,1.566,0,1.922,1.922,0,0,1,2.938-.236.94.94,0,0,0,1.571-.314,1.872,1.872,0,0,1,3.631.622c0,.02-.013.11-.015.13a.94.94,0,0,0,1.256.955,1.773,1.773,0,0,1,2.011.486.94.94,0,0,0,1.571-.314,1.864,1.864,0,0,1,3.557.158.939.939,0,0,0,1.257.627,1.869,1.869,0,0,1,2.28.739.937.937,0,0,0,1.256.315,1.864,1.864,0,0,1,2.316.37.94.94,0,0,0,1.4-1.255,3.776,3.776,0,0,0-3.894-1.076,3.743,3.743,0,0,0-3.155-1.076,3.735,3.735,0,0,0-6.173-.515,3.708,3.708,0,0,0-1.9-.456,3.748,3.748,0,0,0-6.548-1.426,3.845,3.845,0,0,0-4.136.371,3.741,3.741,0,0,0-5.719,1.3,3.7,3.7,0,0,0-2.424-.076,3.731,3.731,0,0,0-2.659-1.109.939.939,0,0,0,0,1.878Z" transform="translate(-98.727 -220.146)" fill="#bd9c7c"/>
      <path id="Path_3033" data-name="Path 3033" d="M55.421,324.262H.941A.94.94,0,0,0,0,325.2a4.7,4.7,0,0,0,4.7,4.7H5.69a8.466,8.466,0,0,0,8.4,7.514H42.271a8.465,8.465,0,0,0,8.4-7.514h.992a4.7,4.7,0,0,0,4.7-4.7A.939.939,0,0,0,55.421,324.262Zm-3.757,3.757H49.785a.939.939,0,0,0-.939.939,6.583,6.583,0,0,1-6.575,6.575H14.092A6.585,6.585,0,0,1,7.583,329.9H46.028a.939.939,0,1,0,0-1.879H4.7a2.823,2.823,0,0,1-2.657-1.879h52.28A2.823,2.823,0,0,1,51.664,328.019Z" transform="translate(-0.002 -296.084)" fill="#bd9c7c"/>
      <path id="Path_3034" data-name="Path 3034" d="M.57,240.73l13.15,5.636a.939.939,0,1,0,.74-1.726L1.31,239a.939.939,0,0,0-.74,1.726Z" transform="translate(0 -220.142)" fill="#bd9c7c"/>
    </g>
  </g>
</svg>
