<svg id="brunch" xmlns="http://www.w3.org/2000/svg" width="47.664" height="46.361" viewBox="0 0 47.664 46.361">
  <path id="Path_3004" data-name="Path 3004" d="M46.561,10.07a16.8,16.8,0,0,0-7.513-7.235A26.192,26.192,0,0,0,26.983,0C26.1,0,25.2.043,24.309.125Q22.992,0,21.647,0A28.392,28.392,0,0,0,9.059,2.918a17.375,17.375,0,0,0-7.994,7.5,10.137,10.137,0,0,0-.985,5.761,12.022,12.022,0,0,0,2.513,5.775v4.1a.93.93,0,0,0,1.86,0V21.632a.931.931,0,0,0-.2-.579c-2.546-3.2-3.068-6.6-1.51-9.828C5.357,5.8,13.308,1.86,21.647,1.86c7.981,0,15.343,3.709,17.9,9.019,1.625,3.37,1.1,6.888-1.513,10.174a.932.932,0,0,0-.2.579V41.843A2.659,2.659,0,0,1,35.18,44.5H7.106a2.658,2.658,0,0,1-2.654-2.656V33.488a.93.93,0,1,0-1.86,0v8.356a4.521,4.521,0,0,0,4.514,4.517H40.515a4.521,4.521,0,0,0,4.514-4.517V21.952C47.9,18.188,48.446,13.98,46.561,10.07Zm-3.19,10.983a.932.932,0,0,0-.2.579V41.843A2.658,2.658,0,0,1,40.515,44.5H38.83a4.492,4.492,0,0,0,.866-2.656V21.952c2.871-3.763,3.416-7.971,1.531-11.881a16.8,16.8,0,0,0-7.514-7.236l-.306-.156L33.4,2.673c5.283,1.37,9.638,4.37,11.487,8.2C46.51,14.248,45.986,17.767,43.371,21.053Zm0,0" transform="translate(0 0)" fill="#bd9c7c"/>
  <path id="Path_3005" data-name="Path 3005" d="M112.6,161.8a2.691,2.691,0,1,0,2.632,2.691A2.665,2.665,0,0,0,112.6,161.8Zm0,3.52a.832.832,0,1,1,.772-.83A.8.8,0,0,1,112.6,165.317Zm0,0" transform="translate(-99.731 -146.735)" fill="#bd9c7c"/>
  <path id="Path_3006" data-name="Path 3006" d="M260.605,133.047a2.691,2.691,0,1,0,2.635,2.691A2.665,2.665,0,0,0,260.605,133.047Zm0,3.521a.832.832,0,1,1,.775-.83A.8.8,0,0,1,260.605,136.568Zm0,0" transform="translate(-233.957 -120.661)" fill="#bd9c7c"/>
  <path id="Path_3007" data-name="Path 3007" d="M276.652,299.773a2.634,2.634,0,1,0,2.635-2.691A2.666,2.666,0,0,0,276.652,299.773Zm3.407,0a.775.775,0,1,1-.772-.83A.8.8,0,0,1,280.059,299.773Zm0,0" transform="translate(-250.898 -269.426)" fill="#bd9c7c"/>
  <path id="Path_3008" data-name="Path 3008" d="M145.148,337.308a2.633,2.633,0,1,0,2.632-2.691A2.665,2.665,0,0,0,145.148,337.308Zm2.632-.83a.832.832,0,1,1-.772.83A.8.8,0,0,1,147.781,336.478Zm0,0" transform="translate(-131.636 -303.466)" fill="#bd9c7c"/>
  <path id="Path_3009" data-name="Path 3009" d="M28.778,311.492a.93.93,0,0,0,.931-.93v-.019a.93.93,0,0,0-1.861,0v.019A.93.93,0,0,0,28.778,311.492Zm0,0" transform="translate(-25.255 -280.79)" fill="#bd9c7c"/>
</svg>
