<svg id="snacks" xmlns="http://www.w3.org/2000/svg" width="53.322" height="38.214" viewBox="0 0 53.322 38.214">
  <path id="Path_3035" data-name="Path 3035" d="M49.1,12.8a5.155,5.155,0,0,0-.852-6.184l-4.6-4.6a5.18,5.18,0,0,0-7.325,0l-3,3-3-3a5.18,5.18,0,0,0-7.325,0l-3,3-3-3a5.18,5.18,0,0,0-7.325,0l-4.6,4.6A5.155,5.155,0,0,0,4.22,12.8l-2.7,2.7a5.18,5.18,0,0,0,0,7.325l1.67,1.67H.89a.888.888,0,0,0-.854,1.133L3.59,38.071a.889.889,0,0,0,.854.644H48.879a.889.889,0,0,0,.854-.644l3.555-12.442a.889.889,0,0,0-.854-1.133h-2.3l1.67-1.67a5.18,5.18,0,0,0,0-7.325ZM37.587,3.275a3.485,3.485,0,0,1,4.811,0l4.6,4.6a3.366,3.366,0,0,1,.774,3.593L47.21,10.9a5.18,5.18,0,0,0-7.325,0l-4.78,4.78-4.78-4.78c-.062-.062-.129-.117-.193-.178ZM24.884,24.5a5.144,5.144,0,0,0-1.517-3.662l-3.875-3.875c.057-.067.1-.139.167-.2l4.6-4.6a3.485,3.485,0,0,1,4.811,0L39,22.09a3.377,3.377,0,0,1,1,2.406ZM24.256,3.275a3.485,3.485,0,0,1,4.811,0l3,3L28.589,9.759A5.18,5.18,0,0,0,23,10.9l-4.6,4.6c-.062.062-.109.136-.168.2l-3.2-3.2Zm-18.923,7a3.375,3.375,0,0,1,1-2.406l4.6-4.6a3.485,3.485,0,0,1,4.811,0l3,3-4.964,4.964-.337-.337a5.18,5.18,0,0,0-7.325,0l-.559.559A3.406,3.406,0,0,1,5.333,10.277ZM2.775,21.569a3.4,3.4,0,0,1,0-4.811l4.6-4.6a3.485,3.485,0,0,1,4.811,0l9.928,9.928a3.377,3.377,0,0,1,1,2.406H5.7ZM48.209,36.938H5.114L2.068,26.273H51.256Zm2.34-15.368L47.623,24.5H41.77a5.144,5.144,0,0,0-1.517-3.662l-3.892-3.892,4.78-4.78a3.485,3.485,0,0,1,4.811,0l4.6,4.6A3.4,3.4,0,0,1,50.549,21.569Zm0,0" transform="translate(-0.001 -0.501)" fill="#bd9c7c"/>
  <path id="Path_3036" data-name="Path 3036" d="M80,120.5h1.777v1.777H80Zm0,0" transform="translate(-71.113 -107.17)" fill="#bd9c7c"/>
  <path id="Path_3037" data-name="Path 3037" d="M112,40.5h1.777v1.777H112Zm0,0" transform="translate(-99.558 -36.057)" fill="#bd9c7c"/>
  <path id="Path_3038" data-name="Path 3038" d="M48,168.5h1.777v1.777H48Zm0,0" transform="translate(-42.668 -149.837)" fill="#bd9c7c"/>
  <path id="Path_3039" data-name="Path 3039" d="M120,176.5h1.777v1.777H120Zm0,0" transform="translate(-106.67 -156.949)" fill="#bd9c7c"/>
  <path id="Path_3040" data-name="Path 3040" d="M216,128.5h1.777v1.777H216Zm0,0" transform="translate(-192.005 -114.281)" fill="#bd9c7c"/>
  <path id="Path_3041" data-name="Path 3041" d="M272,176.5h1.777v1.777H272Zm0,0" transform="translate(-241.784 -156.949)" fill="#bd9c7c"/>
  <path id="Path_3042" data-name="Path 3042" d="M376,144.5h1.777v1.777H376Zm0,0" transform="translate(-334.231 -128.504)" fill="#bd9c7c"/>
  <path id="Path_3043" data-name="Path 3043" d="M424,176.5h1.777v1.777H424Zm0,0" transform="translate(-376.899 -156.949)" fill="#bd9c7c"/>
  <path id="Path_3044" data-name="Path 3044" d="M240,48.5h1.777v1.777H240Zm0,0" transform="translate(-213.339 -43.168)" fill="#bd9c7c"/>
  <path id="Path_3045" data-name="Path 3045" d="M312,88.5h1.777v1.777H312Zm0,0" transform="translate(-277.341 -78.724)" fill="#bd9c7c"/>
  <path id="Path_3046" data-name="Path 3046" d="M352,48.5h1.777v1.777H352Zm0,0" transform="translate(-312.897 -43.168)" fill="#bd9c7c"/>
  <path id="Path_3047" data-name="Path 3047" d="M56.234,278.982l1.724-.431.889,3.555-1.724.431Zm0,0" transform="translate(-49.988 -247.663)" fill="#bd9c7c"/>
  <path id="Path_3048" data-name="Path 3048" d="M48.238,246.989l1.724-.431.444,1.777-1.724.431Zm0,0" transform="translate(-42.88 -219.225)" fill="#bd9c7c"/>
</svg>
