<svg id="desserts" xmlns="http://www.w3.org/2000/svg" width="52.145" height="47.979" viewBox="0 0 52.145 47.979">
  <g id="Group_852" data-name="Group 852" transform="translate(0 0)">
    <g id="Group_851" data-name="Group 851">
      <path id="Path_3010" data-name="Path 3010" d="M52.141,37.5l-.014-.7-.694-.06a3.893,3.893,0,0,1-3.5-3.215l-.146-.845-.826.23a4.909,4.909,0,0,1-6.133-5.7l.149-.743-.74-.165a3.9,3.9,0,0,1-2.921-4.782l.224-.867-.89-.1a17.677,17.677,0,0,0-1.907-.1A17.431,17.431,0,0,0,17.861,33.638q-.229-.006-.46-.006A17.4,17.4,0,1,0,34.284,55.251q.229.006.46.006a17.421,17.421,0,0,0,17.4-17.4C52.145,37.735,52.143,37.615,52.141,37.5ZM17.4,66.885A15.852,15.852,0,1,1,33.253,51.033,15.87,15.87,0,0,1,17.4,66.885ZM34.744,53.708l-.147,0A17.409,17.409,0,0,0,19.432,33.751,15.88,15.88,0,0,1,34.744,22c.3,0,.612.009.92.027q-.02.235-.02.471a5.489,5.489,0,0,0,3.565,5.111q-.025.285-.025.571A6.455,6.455,0,0,0,46.6,34.568a5.447,5.447,0,0,0,3.991,3.606A15.87,15.87,0,0,1,34.744,53.708Z" transform="translate(0 -20.455)" fill="#bd9c7c"/>
    </g>
  </g>
  <g id="Group_854" data-name="Group 854" transform="translate(30.303 5.762)">
    <g id="Group_853" data-name="Group 853">
      <path id="Path_3011" data-name="Path 3011" d="M299.875,77.035a2.339,2.339,0,1,0,2.339,2.339A2.341,2.341,0,0,0,299.875,77.035Zm0,3.129a.79.79,0,1,1,.79-.79A.791.791,0,0,1,299.875,80.164Z" transform="translate(-297.536 -77.035)" fill="#bd9c7c"/>
    </g>
  </g>
  <g id="Group_856" data-name="Group 856" transform="translate(22.648 8.945)">
    <g id="Group_855" data-name="Group 855">
      <path id="Path_3012" data-name="Path 3012" d="M223.136,108.286c-.27.36-.527.737-.762,1.121l1.32.811c.211-.343.44-.68.681-1Z" transform="translate(-222.374 -108.286)" fill="#bd9c7c"/>
    </g>
  </g>
  <g id="Group_858" data-name="Group 858" transform="translate(24.331 4.128)">
    <g id="Group_857" data-name="Group 857">
      <path id="Path_3013" data-name="Path 3013" d="M244.31,60.988A14.629,14.629,0,0,0,238.9,64.7l1.141,1.048a13.072,13.072,0,0,1,4.83-3.314Z" transform="translate(-238.904 -60.988)" fill="#bd9c7c"/>
    </g>
  </g>
  <g id="Group_860" data-name="Group 860" transform="translate(44.99 21.975)">
    <g id="Group_859" data-name="Group 859">
      <path id="Path_3014" data-name="Path 3014" d="M443.345,236.224a12.968,12.968,0,0,1-1.6,2.849l1.244.922a14.511,14.511,0,0,0,1.79-3.189Z" transform="translate(-441.745 -236.224)" fill="#bd9c7c"/>
    </g>
  </g>
  <g id="Group_862" data-name="Group 862" transform="translate(37.188 22.959)">
    <g id="Group_861" data-name="Group 861">
      <path id="Path_3015" data-name="Path 3015" d="M367.483,245.889a2.339,2.339,0,1,0,2.339,2.339A2.341,2.341,0,0,0,367.483,245.889Zm0,3.129a.79.79,0,1,1,.79-.79A.791.791,0,0,1,367.483,249.018Z" transform="translate(-365.144 -245.889)" fill="#bd9c7c"/>
    </g>
  </g>
  <g id="Group_864" data-name="Group 864" transform="translate(32.405 12.922)">
    <g id="Group_863" data-name="Group 863">
      <path id="Path_3016" data-name="Path 3016" d="M320.519,147.338a2.339,2.339,0,1,0,2.339,2.339A2.341,2.341,0,0,0,320.519,147.338Zm0,3.129a.79.79,0,1,1,.79-.79A.791.791,0,0,1,320.519,150.467Z" transform="translate(-318.18 -147.338)" fill="#bd9c7c"/>
    </g>
  </g>
  <g id="Group_866" data-name="Group 866" transform="translate(40.455 16.178)">
    <g id="Group_865" data-name="Group 865">
      <path id="Path_3017" data-name="Path 3017" d="M400.113,179.3a2.9,2.9,0,1,0,2.9,2.9A2.9,2.9,0,0,0,400.113,179.3Zm0,4.249a1.35,1.35,0,1,1,1.35-1.35A1.351,1.351,0,0,1,400.113,183.55Z" transform="translate(-397.214 -179.301)" fill="#bd9c7c"/>
    </g>
  </g>
  <g id="Group_868" data-name="Group 868" transform="translate(16.083 16.889)">
    <g id="Group_867" data-name="Group 867">
      <path id="Path_3018" data-name="Path 3018" d="M160.254,186.28a2.339,2.339,0,1,0,2.339,2.339A2.341,2.341,0,0,0,160.254,186.28Zm0,3.128a.79.79,0,1,1,.79-.79A.791.791,0,0,1,160.254,189.408Z" transform="translate(-157.915 -186.28)" fill="#bd9c7c"/>
    </g>
  </g>
  <g id="Group_870" data-name="Group 870" transform="translate(5.013 22.058)">
    <g id="Group_869" data-name="Group 869">
      <path id="Path_3019" data-name="Path 3019" d="M49.985,237.037c-.271.36-.527.737-.762,1.121l1.32.811c.21-.342.439-.679.681-1Z" transform="translate(-49.223 -237.037)" fill="#bd9c7c"/>
    </g>
  </g>
  <g id="Group_872" data-name="Group 872" transform="translate(6.697 17.241)">
    <g id="Group_871" data-name="Group 871">
      <path id="Path_3020" data-name="Path 3020" d="M71.16,189.739a14.628,14.628,0,0,0-5.406,3.709l1.141,1.048a13.07,13.07,0,0,1,4.83-3.314Z" transform="translate(-65.754 -189.739)" fill="#bd9c7c"/>
    </g>
  </g>
  <g id="Group_874" data-name="Group 874" transform="translate(27.702 35.27)">
    <g id="Group_873" data-name="Group 873">
      <path id="Path_3021" data-name="Path 3021" d="M273.6,366.761a12.973,12.973,0,0,1-1.6,2.849l1.244.922a14.509,14.509,0,0,0,1.79-3.189Z" transform="translate(-272.001 -366.761)" fill="#bd9c7c"/>
    </g>
  </g>
  <g id="Group_876" data-name="Group 876" transform="translate(5.101 36.619)">
    <g id="Group_875" data-name="Group 875">
      <path id="Path_3022" data-name="Path 3022" d="M51.44,380.006l-1.356.749a14.568,14.568,0,0,0,2.55,3.353L53.718,383A13.023,13.023,0,0,1,51.44,380.006Z" transform="translate(-50.084 -380.006)" fill="#bd9c7c"/>
    </g>
  </g>
  <g id="Group_878" data-name="Group 878" transform="translate(3.861 33.971)">
    <g id="Group_877" data-name="Group 877">
      <path id="Path_3023" data-name="Path 3023" d="M39.4,354.008l-1.493.413a14.493,14.493,0,0,0,.567,1.653l1.432-.59A12.928,12.928,0,0,1,39.4,354.008Z" transform="translate(-37.909 -354.008)" fill="#bd9c7c"/>
    </g>
  </g>
  <g id="Group_880" data-name="Group 880" transform="translate(19.845 36.136)">
    <g id="Group_879" data-name="Group 879">
      <path id="Path_3024" data-name="Path 3024" d="M197.2,375.268a2.339,2.339,0,1,0,2.339,2.339A2.341,2.341,0,0,0,197.2,375.268Zm0,3.128a.79.79,0,1,1,.79-.79A.791.791,0,0,1,197.2,378.4Z" transform="translate(-194.858 -375.268)" fill="#bd9c7c"/>
    </g>
  </g>
  <g id="Group_882" data-name="Group 882" transform="translate(4.37 26.675)">
    <g id="Group_881" data-name="Group 881">
      <path id="Path_3025" data-name="Path 3025" d="M45.243,282.367a2.339,2.339,0,1,0,2.339,2.339A2.341,2.341,0,0,0,45.243,282.367Zm0,3.129a.79.79,0,1,1,.79-.79A.791.791,0,0,1,45.243,285.5Z" transform="translate(-42.904 -282.367)" fill="#bd9c7c"/>
    </g>
  </g>
  <g id="Group_884" data-name="Group 884" transform="translate(15.062 26.099)">
    <g id="Group_883" data-name="Group 883">
      <path id="Path_3026" data-name="Path 3026" d="M150.233,276.717a2.339,2.339,0,1,0,2.339,2.339A2.341,2.341,0,0,0,150.233,276.717Zm0,3.128a.79.79,0,1,1,.79-.79A.791.791,0,0,1,150.233,279.845Z" transform="translate(-147.894 -276.717)" fill="#bd9c7c"/>
    </g>
  </g>
  <g id="Group_886" data-name="Group 886" transform="translate(25.236 27.23)">
    <g id="Group_885" data-name="Group 885">
      <path id="Path_3027" data-name="Path 3027" d="M250.684,287.822a2.9,2.9,0,1,0,2.9,2.9A2.9,2.9,0,0,0,250.684,287.822Zm0,4.249a1.35,1.35,0,1,1,1.35-1.35A1.351,1.351,0,0,1,250.684,292.07Z" transform="translate(-247.785 -287.822)" fill="#bd9c7c"/>
    </g>
  </g>
  <g id="Group_888" data-name="Group 888" transform="translate(10.276 38.361)">
    <g id="Group_887" data-name="Group 887">
      <path id="Path_3028" data-name="Path 3028" d="M103.792,397.117a2.9,2.9,0,1,0,2.9,2.9A2.9,2.9,0,0,0,103.792,397.117Zm0,4.248a1.35,1.35,0,1,1,1.35-1.35A1.351,1.351,0,0,1,103.792,401.365Z" transform="translate(-100.893 -397.117)" fill="#bd9c7c"/>
    </g>
  </g>
</svg>
