<svg xmlns="http://www.w3.org/2000/svg" width="48.571" height="34.579" viewBox="0 0 48.571 34.579">
  <g id="Group_1123" data-name="Group 1123" transform="translate(0 0)">
    <g id="Group_1122" data-name="Group 1122" transform="translate(0 0)">
      <g id="Group_1121" data-name="Group 1121" transform="translate(0 0)">
        <path id="Path_3057" data-name="Path 3057" d="M48.942,8.865a.948.948,0,0,0-.947.947v2.119a.947.947,0,0,0,1.895,0V9.812a.948.948,0,0,0-.947-.947" transform="translate(-24.657 -4.699)" fill="#bd9c7c" fill-rule="evenodd"/>
        <path id="Path_3058" data-name="Path 3058" d="M33.976,9.086,31.45,11.205a.947.947,0,1,0,1.218,1.452l2.526-2.119a.947.947,0,0,0-1.218-1.452" transform="translate(-15.983 -4.7)" fill="#bd9c7c" fill-rule="evenodd"/>
        <path id="Path_3059" data-name="Path 3059" d="M61.239,9.086a.947.947,0,0,0-1.218,1.452l2.526,2.119a.947.947,0,1,0,1.218-1.452Z" transform="translate(-30.661 -4.7)" fill="#bd9c7c" fill-rule="evenodd"/>
        <path id="Path_3060" data-name="Path 3060" d="M43.754,20.629h0a3.724,3.724,0,0,1-.838.087c-.053,0-.1-.006-.157-.008-.081,0-.162-.009-.242-.018-.056-.007-.11-.016-.165-.025-.08-.013-.159-.028-.236-.046-.046-.011-.092-.023-.138-.035-.089-.025-.177-.052-.263-.083l-.1-.035c-.107-.041-.212-.087-.313-.138l-.03-.015a3.777,3.777,0,0,1-1.661-1.688c0-.008-.008-.017-.012-.025-.051-.107-.1-.217-.138-.328-.008-.021-.015-.042-.023-.063-.035-.1-.065-.2-.092-.308-.007-.03-.016-.06-.023-.09-.022-.1-.039-.2-.053-.306-.005-.033-.011-.066-.015-.1A3.507,3.507,0,0,1,39.236,17a.947.947,0,0,0-1.895,0A3.721,3.721,0,1,1,29.9,17a.947.947,0,0,0-1.895,0,3.721,3.721,0,1,1-7.441,0,.947.947,0,0,0-1.895,0,3.72,3.72,0,1,1-7.44,0,.947.947,0,0,0-1.895,0,3.725,3.725,0,0,1-3.72,3.721,3.486,3.486,0,0,1-.435-.028l-.014,0a4.165,4.165,0,0,1-.442-.083h0a3.718,3.718,0,0,1,.592-7.315.947.947,0,0,0,.745-.471C9.025,7.668,16.416,2.194,24.269,2.194c7.793,0,15.137,5.4,18.147,10.512a.948.948,0,0,0,.808.58,3.72,3.72,0,0,1,.53,7.343Zm-2.56,9.634a3.667,3.667,0,0,1-3.54,2.72H10.805a3.658,3.658,0,0,1-3.528-2.668l-1.588-7.7c.113,0,.224-.018.335-.025s.228-.011.34-.026.242-.046.362-.07.217-.037.322-.065.234-.075.35-.114c.1-.035.2-.063.3-.1.116-.046.225-.1.336-.158.093-.044.188-.084.278-.133.112-.062.217-.135.325-.2.081-.052.167-.1.246-.156.111-.08.213-.17.318-.258.068-.056.14-.107.2-.167.113-.1.216-.217.32-.33.048-.052.1-.1.148-.153a5.694,5.694,0,0,0,.407-.536,5.611,5.611,0,0,0,9.335,0,5.611,5.611,0,0,0,9.336,0,5.611,5.611,0,0,0,9.336,0,5.7,5.7,0,0,0,.4.53c.049.056.1.105.153.16.1.109.2.219.309.319.064.059.135.111.2.167.1.087.205.176.315.255.075.054.155.1.233.151.11.071.217.145.332.208.084.047.173.085.26.128.114.057.228.114.347.163.092.038.188.067.282.1.119.041.238.084.361.117.1.027.2.045.3.067.123.027.245.054.371.071.107.015.216.021.325.031s.188.023.284.027ZM48.571,17a5.634,5.634,0,0,0-4.7-5.539C40.429,5.846,32.715.3,24.269.3S8.1,5.849,4.659,11.464a5.611,5.611,0,0,0-.976,10.8l1.751,8.489a5.566,5.566,0,0,0,5.371,4.127H37.655a5.576,5.576,0,0,0,5.382-4.18l1.73-8.392a5.621,5.621,0,0,0,3.8-5.31Z" transform="translate(0 -0.299)" fill="#bd9c7c" fill-rule="evenodd"/>
      </g>
    </g>
  </g>
</svg>
