<?xml version="1.0" standalone="no"?>
<!DOCTYPE svg PUBLIC "-//W3C//DTD SVG 1.1//EN" "http://www.w3.org/Graphics/SVG/1.1/DTD/svg11.dtd" >
<svg xmlns="http://www.w3.org/2000/svg" xmlns:xlink="http://www.w3.org/1999/xlink" version="1.1">
<metadata>
Created by FontForge 20190801 at Thu Jul 20 18:45:49 2017
 By Jimmy Wärting
Copyright (c) 2016 by Yellow Design Studio. All rights reserved.
</metadata>
<defs>
<font id="VeneerClean-Reg" horiz-adv-x="866" >
  <font-face 
    font-family="Veneer Clean Reg"
    font-weight="250"
    font-stretch="normal"
    units-per-em="2048"
    panose-1="3 1 2 0 4 3 2 0 2 4"
    ascent="1638"
    descent="-410"
    x-height="1479"
    cap-height="1479"
    bbox="-86 -469 1665 1970"
    underline-thickness="102"
    underline-position="-714"
    unicode-range="U+000D-FB02"
  />
<missing-glyph horiz-adv-x="748" 
d="M68 0v1365h544v-1365h-544zM136 68h408v1229h-408v-1229z" />
    <glyph glyph-name=".notdef" horiz-adv-x="748" 
d="M68 0v1365h544v-1365h-544zM136 68h408v1229h-408v-1229z" />
    <glyph glyph-name="glyph1" horiz-adv-x="0" 
 />
    <glyph glyph-name="glyph1" horiz-adv-x="0" 
 />
    <glyph glyph-name="glyph2" horiz-adv-x="682" 
 />
    <glyph glyph-name="uni000D" unicode="&#xd;" horiz-adv-x="409" 
 />
    <glyph glyph-name="space" unicode=" " horiz-adv-x="409" 
 />
    <glyph glyph-name="exclam" unicode="!" horiz-adv-x="497" 
d="M129 1479h244l-51 -1045h-142zM145 0v252h211v-252h-211z" />
    <glyph glyph-name="quotedbl" unicode="&#x22;" horiz-adv-x="628" 
d="M63 1479h189l-29 -521h-133zM381 1479h188l-28 -521h-133z" />
    <glyph glyph-name="numbersign" unicode="#" horiz-adv-x="946" 
d="M0 426v137h201l47 352h-195v138h215l56 426h153l-55 -426h196l58 426h151l-55 -426h176v-138h-194l-49 -352h190v-137h-209l-55 -426h-156l57 426h-196l-55 -426h-156l57 426h-182zM356 563h195l49 352h-197z" />
    <glyph glyph-name="dollar" unicode="$" horiz-adv-x="786" 
d="M72 369v141h204v-96q0 -103 29 -151t94 -48q49 0 84 32.5t35 102.5q0 36 -12 72t-26 61.5t-47.5 64t-53 58t-66.5 64.5q-53 52 -87 91t-71 94t-55 116t-18 129q0 128 64 212.5t180 106.5v150h149v-148q134 -35 185 -127t51 -262v-61h-203v57q0 103 -22.5 154t-86.5 51
q-53 0 -79.5 -34.5t-26.5 -90.5q0 -72 44.5 -135t147.5 -166q62 -62 97 -101.5t73.5 -96.5t56 -116.5t17.5 -127.5q0 -79 -24 -142t-64 -101t-81 -59.5t-85 -29.5v-150h-149v148q-127 22 -190.5 115t-63.5 223z" />
    <glyph glyph-name="percent" unicode="%" horiz-adv-x="1380" 
d="M82 1083v150q0 268 276 268q277 0 277 -268v-150q0 -268 -277 -268q-276 0 -276 268zM205 0l811 1479h158l-809 -1479h-160zM250 1055q0 -92 108 -92q109 0 109 92v207q0 92 -109 92q-108 0 -108 -92v-207zM745 244v149q0 269 277 269q276 0 276 -269v-149
q0 -269 -276 -269q-277 0 -277 269zM913 215q0 -92 109 -92q108 0 108 92v207q0 92 -108 92q-109 0 -109 -92v-207z" />
    <glyph glyph-name="ampersand" unicode="&#x26;" horiz-adv-x="1202" 
d="M84 336q0 237 217 440q-94 226 -94 377q0 156 83 253t228 97q134 0 208.5 -85t74.5 -220q0 -126 -64.5 -228t-191.5 -220q84 -213 153 -336q30 65 50 155.5t20 182.5h186q0 -140 -37 -274t-100 -240q48 -64 96 -64q26 0 41 20.5t15 55.5v92h153v-123q0 -112 -64.5 -175.5
t-152.5 -63.5q-115 0 -217 102q-117 -102 -260 -102q-157 0 -250.5 99t-93.5 257zM309 369q0 -84 40.5 -131.5t111.5 -47.5q57 0 100 43q-99 144 -174 340q-78 -97 -78 -204zM414 1180q0 -99 55 -258q129 138 129 276q0 61 -22 96t-64 35q-46 0 -72 -39.5t-26 -109.5z" />
    <glyph glyph-name="quotesingle" unicode="'" horiz-adv-x="409" 
d="M111 1479h188l-27 -521h-133z" />
    <glyph glyph-name="parenleft" unicode="(" horiz-adv-x="507" 
d="M63 168v1145q0 68 9.5 121.5t23 91.5t45 80t58.5 70t80 79l122 -125q-48 -45 -72 -72t-46 -66t-29.5 -83.5t-7.5 -110.5v-1116q0 -66 7.5 -110.5t29.5 -83.5t46 -66t72 -72l-122 -124q-53 51 -80 79t-58.5 70t-45 80t-23 91.5t-9.5 121.5z" />
    <glyph glyph-name="parenright" unicode=")" horiz-adv-x="507" 
d="M109 -150q48 45 72 72t46 66t29.5 83.5t7.5 110.5v1116q0 66 -7.5 110.5t-29.5 83.5t-46 66t-72 72l122 125q53 -51 80 -79.5t58 -70t44.5 -79.5t23 -91.5t9.5 -121.5v-1145q0 -68 -9.5 -121.5t-23 -91.5t-44.5 -79.5t-58 -70t-80 -79.5z" />
    <glyph glyph-name="asterisk" unicode="*" horiz-adv-x="868" 
d="M63 1139l62 182l260 -137l-49 295h192l-49 -295l260 137l62 -182l-309 -35l227 -219l-162 -113l-125 287l-125 -287l-162 113l228 219z" />
    <glyph glyph-name="plus" unicode="+" horiz-adv-x="1089" 
d="M76 645v193h377v399h182v-399h379v-193h-379v-399h-182v399h-377z" />
    <glyph glyph-name="comma" unicode="," horiz-adv-x="385" 
d="M78 -225q11 15 27.5 40t44.5 85t28 100h-90v252h213v-158q0 -59 -12 -113.5t-28.5 -90.5t-33.5 -63t-29 -39l-12 -13h-108z" />
    <glyph glyph-name="hyphen" unicode="-" horiz-adv-x="653" 
d="M102 659v158h449v-158h-449z" />
    <glyph glyph-name="period" unicode="." horiz-adv-x="385" 
d="M84 0v252h213v-252h-213z" />
    <glyph glyph-name="slash" unicode="/" horiz-adv-x="497" 
d="M-63 -141l473 1759h151l-473 -1759h-151z" />
    <glyph glyph-name="zero" unicode="0" horiz-adv-x="837" 
d="M72 346v787q0 175 88 272.5t260 97.5t260 -97.5t88 -272.5v-787q0 -175 -88.5 -273t-259.5 -98t-259.5 98t-88.5 273zM303 305q0 -58 30.5 -91.5t86.5 -33.5t86.5 33.5t30.5 91.5v869q0 58 -30.5 91t-86.5 33t-86.5 -33t-30.5 -91v-869z" />
    <glyph glyph-name="one" unicode="1" horiz-adv-x="563" 
d="M31 1071v219q192 101 293 189h127v-1479h-226v1161q-73 -42 -194 -90z" />
    <glyph glyph-name="two" unicode="2" horiz-adv-x="817" 
d="M68 0v66q0 118 59 256.5t213 398.5q9 15 42.5 72.5t42 72t32.5 59t30.5 63.5t19 53t16 61t3.5 55q0 141 -116 141q-119 0 -119 -127v-145h-219v160q0 129 92.5 223t247.5 94q157 0 245 -98t88 -244q0 -36 -4.5 -69.5t-19.5 -75.5t-24 -67.5t-38 -79.5t-40.5 -75.5
t-52.5 -92t-54 -93.5q-64 -111 -87.5 -153.5t-55.5 -110t-54 -131.5h412v-213h-659z" />
    <glyph glyph-name="three" unicode="3" horiz-adv-x="796" 
d="M68 309v127h215v-123q0 -135 110 -135q115 0 115 144v202q0 47 -15 77.5t-45.5 45t-62.5 19t-80 4.5v186q33 0 54 1t50.5 7t46.5 17t29.5 32.5t12.5 51.5v233q0 102 -103 102q-108 0 -108 -137v-102h-215v115q0 142 85.5 234.5t237.5 92.5q137 0 227 -76t91 -194l2 -268
q0 -61 -39.5 -116t-104.5 -81q75 -34 114.5 -96t39.5 -144v-217q0 -157 -96.5 -246.5t-245.5 -89.5q-148 0 -231.5 89.5t-83.5 244.5z" />
    <glyph glyph-name="four" unicode="4" horiz-adv-x="811" 
d="M31 330v178l418 969h215v-959h116v-188h-116v-330h-220v330h-413zM229 518h217v526z" />
    <glyph glyph-name="five" unicode="5" horiz-adv-x="811" 
d="M74 291v137h213v-121q0 -73 32.5 -101t77.5 -28q62 0 89.5 40.5t27.5 103.5v348q0 127 -100 127q-50 0 -80.5 -31.5t-42.5 -77.5l-199 14l29 775v2h598l-37 -207h-367l-18 -385q72 96 197 96q119 0 183 -77.5t64 -227.5v-307q0 -396 -329 -396q-154 0 -246 82.5
t-92 233.5z" />
    <glyph glyph-name="six" unicode="6" horiz-adv-x="827" 
d="M74 346v784q0 177 86.5 275t249.5 98q161 0 244 -91t83 -228v-119h-209v104q0 131 -110 131q-115 0 -115 -131v-360q47 51 93 73.5t110 22.5q122 0 187 -73.5t65 -196.5v-266q0 -394 -342 -394q-171 0 -256.5 97.5t-85.5 273.5zM303 305q0 -59 29 -93t86 -34
q55 0 83.5 32.5t28.5 90.5v297q0 57 -25.5 89t-76.5 32q-87 0 -125 -84v-330z" />
    <glyph glyph-name="seven" unicode="7" horiz-adv-x="716" 
d="M31 1270v209h655v-142q-134 -426 -188 -655q-74 -312 -121 -682h-240q50 336 133 659q78 305 183 609v2h-422z" />
    <glyph glyph-name="eight" unicode="8" horiz-adv-x="792" 
d="M55 324v204q0 77 35 139.5t96 98.5q-50 30 -85 92.5t-35 142.5v146q0 176 90 266t239 90t239.5 -90t90.5 -266v-146q0 -79 -35.5 -141.5t-85.5 -93.5q60 -36 95.5 -99t35.5 -139v-204q0 -162 -93.5 -255.5t-246.5 -93.5t-246.5 93.5t-93.5 255.5zM279 322
q0 -79 30.5 -111.5t85.5 -32.5q117 0 117 144v233q0 47 -33.5 82t-83.5 35t-83 -35t-33 -82v-233zM287 965q0 -51 30.5 -82t77.5 -31q46 0 77.5 31t31.5 82v213q0 55 -31 88.5t-78 33.5t-77.5 -33.5t-30.5 -88.5v-213z" />
    <glyph glyph-name="nine" unicode="9" horiz-adv-x="808" 
d="M63 844v266q0 393 343 393q171 0 256.5 -97t85.5 -273v-785q0 -177 -86.5 -275t-249.5 -98q-161 0 -244.5 91.5t-83.5 228.5v119h209v-105q0 -131 110 -131q115 0 115 131v361q-48 -51 -93.5 -74t-109.5 -23q-121 0 -186.5 74t-65.5 197zM291 881q0 -57 25.5 -89
t76.5 -32q87 0 125 84v330q0 59 -29 92.5t-86 33.5q-55 0 -83.5 -32t-28.5 -90v-297z" />
    <glyph glyph-name="colon" unicode=":" horiz-adv-x="385" 
d="M86 0v252h213v-252h-213zM86 633v252h213v-252h-213z" />
    <glyph glyph-name="semicolon" unicode=";" horiz-adv-x="385" 
d="M76 -225q11 15 27.5 40t43.5 85t27 100h-88v252h213v-158q0 -59 -12 -113.5t-28.5 -90.5t-33.5 -63t-29 -39l-12 -13h-108zM86 633v252h213v-252h-213z" />
    <glyph glyph-name="less" unicode="&#x3c;" horiz-adv-x="1142" 
d="M102 657v166l938 414v-205l-675 -293l675 -290v-205z" />
    <glyph glyph-name="equal" unicode="=" horiz-adv-x="1142" 
d="M102 436v193h938v-193h-938zM102 844v192h938v-192h-938z" />
    <glyph glyph-name="greater" unicode="&#x3e;" horiz-adv-x="1142" 
d="M102 244v205l676 290l-676 293v205l938 -414v-166z" />
    <glyph glyph-name="question" unicode="?" horiz-adv-x="700" 
d="M41 1044v144q0 131 84 222t227 91q140 0 223.5 -88t83.5 -225q0 -147 -112 -322q-5 -7 -31.5 -47.5t-34.5 -54t-28 -50.5t-28.5 -60.5t-17.5 -59t-12 -70.5q-4 -28 -4 -102h-174q0 136 12 182q6 55 24 112t36 94t57 112q88 166 88 262q0 57 -24.5 89t-65.5 32
q-50 0 -78 -44.5t-28 -89.5v-127h-197zM197 0v242h211v-242h-211z" />
    <glyph glyph-name="at" unicode="@" horiz-adv-x="1306" 
d="M61 612q0 187 83.5 338t228 235.5t319.5 84.5q107 0 199 -33.5t155.5 -89t109.5 -127.5t67.5 -149.5t21.5 -155.5q0 -110 -41.5 -208t-120.5 -161t-178 -63q-87 0 -130.5 47.5t-41.5 122.5q-29 -61 -81.5 -99.5t-116.5 -38.5q-75 0 -122.5 55t-47.5 150q0 90 40 183
t113.5 157t157.5 64q56 0 88.5 -28.5t38.5 -76.5l31 90h151l-119 -374q-45 -140 64 -140q88 0 141 87t53 223q0 139 -58 241.5t-155 153.5t-219 51q-217 0 -357 -154.5t-140 -384.5q0 -229 138 -373.5t355 -144.5q190 0 307 111l74 -88q-155 -142 -387 -142
q-169 0 -309.5 77.5t-226 224.5t-85.5 335zM512 528q0 -52 21 -80t59 -28q45 0 79 39.5t54 105.5l49 172q0 90 -69 90q-53 0 -99 -51.5t-70 -119.5t-24 -128z" />
    <glyph glyph-name="A" unicode="A" 
d="M31 0l258 1479h289l258 -1479h-236l-43 307h-248l-43 -307h-235zM342 518h182l-90 610z" />
    <glyph glyph-name="B" unicode="B" horiz-adv-x="876" 
d="M102 0v1479h381q183 0 259.5 -99t76.5 -307q0 -127 -32.5 -197t-124.5 -108v-4q102 -39 138 -117.5t36 -222.5q0 -110 -16.5 -185.5t-58 -131t-113.5 -81.5t-181 -26h-365zM348 205h86q98 0 130 47.5t32 175.5q0 124 -32 179t-130 55h-86v-457zM348 854h96
q77 0 106.5 49.5t29.5 163.5q0 113 -29 160t-107 47h-96v-420z" />
    <glyph glyph-name="C" unicode="C" horiz-adv-x="851" 
d="M63 340v799q0 165 102.5 264.5t270.5 99.5q165 0 261 -96.5t96 -261.5v-217h-238v223q0 135 -117 135q-129 0 -129 -141v-811q0 -141 129 -141q117 0 117 135v239h238v-233q0 -165 -96 -262t-261 -97q-168 0 -270.5 100t-102.5 265z" />
    <glyph glyph-name="D" unicode="D" horiz-adv-x="901" 
d="M102 0v1479h351q387 0 387 -400v-680q0 -399 -387 -399h-351zM346 209h98q86 0 118 41t32 133v713q0 92 -32 133t-118 41h-98v-1061z" />
    <glyph glyph-name="E" unicode="E" horiz-adv-x="802" 
d="M102 0v1479h633v-215h-389v-396h287v-206h-287v-443h406v-219h-650z" />
    <glyph glyph-name="F" unicode="F" horiz-adv-x="813" 
d="M104 0v1479h644v-213h-398v-404h297v-211h-297v-651h-246z" />
    <glyph glyph-name="G" unicode="G" horiz-adv-x="899" 
d="M61 348v791q0 165 101.5 264.5t267.5 99.5q164 0 259 -96.5t95 -261.5v-182h-237v188q0 135 -117 135q-123 0 -123 -141v-807q0 -141 125 -141q131 0 131 155v203h-145v190h379v-745h-111l-39 104q-93 -129 -252 -129q-161 0 -247.5 104t-86.5 269z" />
    <glyph glyph-name="H" unicode="H" horiz-adv-x="952" 
d="M102 0v1479h244v-623h260v623h244v-1479h-244v639h-260v-639h-244z" />
    <glyph glyph-name="I" unicode="I" horiz-adv-x="448" 
d="M102 0v1479h244v-1479h-244z" />
    <glyph glyph-name="J" unicode="J" horiz-adv-x="856" 
d="M61 338v283h232v-289q0 -139 108 -139q57 0 84 38t27 101v1147h242v-1141q0 -162 -95 -262.5t-251 -100.5q-159 0 -253 102.5t-94 260.5z" />
    <glyph glyph-name="K" unicode="K" horiz-adv-x="888" 
d="M100 0v1479h244v-625l260 625h242l-256 -590l276 -889h-250l-184 655l-88 -190v-465h-244z" />
    <glyph glyph-name="L" unicode="L" horiz-adv-x="757" 
d="M102 0v1479h244v-1262h371v-217h-615z" />
    <glyph glyph-name="M" unicode="M" horiz-adv-x="1206" 
d="M102 0v1479h328l174 -926l176 926h324v-1479h-221v1116l-211 -1116h-150l-205 1114v-1114h-215z" />
    <glyph glyph-name="N" unicode="N" horiz-adv-x="956" 
d="M104 0v1479h222l309 -873v873h221v-1479h-201l-329 909v-909h-222z" />
    <glyph glyph-name="O" unicode="O" horiz-adv-x="864" 
d="M63 340v799q0 166 100.5 265t270.5 99t270.5 -99t100.5 -265v-799q0 -166 -100.5 -265.5t-270.5 -99.5t-270.5 99.5t-100.5 265.5zM309 334q0 -144 125 -144t125 144v811q0 143 -125 143t-125 -143v-811z" />
    <glyph glyph-name="P" unicode="P" horiz-adv-x="899" 
d="M102 0v1479h383q107 0 180 -32t112 -94t55 -138t16 -179q0 -82 -9.5 -145.5t-34 -121t-65 -95t-104.5 -59t-150 -21.5h-137v-594h-246zM348 799h117q87 0 114 53.5t27 185.5q0 131 -27 184.5t-114 53.5h-117v-477z" />
    <glyph glyph-name="Q" unicode="Q" horiz-adv-x="864" 
d="M61 340v799q0 166 101 265t270 99q170 0 270.5 -99.5t100.5 -266.5v-795q0 -75 -20.5 -137t-51 -99.5t-69 -64.5t-69.5 -38.5t-58 -14.5q11 -107 135 -107h57v-200h-51q-176 0 -267.5 87t-91.5 222q-22 3 -51 14t-66 38t-67 64.5t-51 98.5t-21 135zM307 334
q0 -144 125 -144t125 146v809q0 143 -125 143t-125 -143v-811z" />
    <glyph glyph-name="R" unicode="R" horiz-adv-x="901" 
d="M102 0v1479h383q104 0 174 -32.5t106 -96t50 -137.5t14 -177q0 -177 -40 -259t-138 -128l193 -649h-240l-168 614h-88v-614h-246zM348 811h96q83 0 113.5 48t30.5 183t-30.5 183.5t-113.5 48.5h-96v-463z" />
    <glyph glyph-name="S" unicode="S" horiz-adv-x="843" 
d="M70 352v154h227v-135q0 -181 135 -181q57 0 94 32.5t37 109.5q0 29 -7.5 57.5t-14.5 49.5t-29.5 51.5t-32.5 44.5t-45 49l-45 45t-53 51q-47 45 -75 74.5t-67 79t-60.5 92t-37.5 100.5t-16 119q0 73 20.5 136t62 113.5t111 79.5t160.5 29q166 0 256 -99.5t90 -301.5v-94
h-227v82q0 109 -29 155.5t-90 46.5q-59 0 -89 -38t-30 -99q0 -34 11.5 -67.5t25.5 -59t48 -64.5t56.5 -62t73.5 -73q54 -54 87 -89t72 -85t60 -93t35.5 -98t14.5 -114q0 -170 -101 -272.5t-264 -102.5q-166 0 -265 105t-99 272z" />
    <glyph glyph-name="T" unicode="T" horiz-adv-x="800" 
d="M20 1260v219h760v-219h-256v-1260h-243v1260h-261z" />
    <glyph glyph-name="U" unicode="U" horiz-adv-x="937" 
d="M96 340v1139h246v-1145q0 -144 125 -144t125 144v1145h246v-1139q0 -166 -100.5 -265.5t-270.5 -99.5t-270.5 99.5t-100.5 265.5z" />
    <glyph glyph-name="V" unicode="V" horiz-adv-x="860" 
d="M18 1479h246l164 -1037l164 1037h246l-287 -1479h-246z" />
    <glyph glyph-name="W" unicode="W" horiz-adv-x="1265" 
d="M20 1479h234l129 -971l145 971h209l146 -971l129 971h233l-248 -1479h-209l-155 934l-156 -934h-209z" />
    <glyph glyph-name="X" unicode="X" horiz-adv-x="819" 
d="M-2 0l272 756l-254 723h248l146 -502l145 502h248l-254 -723l272 -756h-239l-172 530l-172 -530h-240z" />
    <glyph glyph-name="Y" unicode="Y" 
d="M18 1479h248l166 -596l166 596h248l-287 -875v-604h-254v604z" />
    <glyph glyph-name="Z" unicode="Z" horiz-adv-x="813" 
d="M61 0v162l437 1100h-398v217h662v-162l-432 -1100h422v-217h-691z" />
    <glyph glyph-name="bracketleft" unicode="[" horiz-adv-x="550" 
d="M63 -229v1939h388v-162h-205v-1618h205v-159h-388z" />
    <glyph glyph-name="backslash" unicode="\" horiz-adv-x="497" 
d="M-63 1618h151l473 -1759h-151z" />
    <glyph glyph-name="bracketright" unicode="]" horiz-adv-x="550" 
d="M100 -70h205v1618h-205v162h387v-1939h-387v159z" />
    <glyph glyph-name="asciicircum" unicode="^" horiz-adv-x="1110" 
d="M94 631l365 848h192l365 -848h-223l-238 590l-238 -590h-223z" />
    <glyph glyph-name="underscore" unicode="_" horiz-adv-x="800" 
d="M-18 -154h841v-135h-841v135z" />
    <glyph glyph-name="grave" unicode="`" horiz-adv-x="327" 
d="M-86 1894h233l119 -292h-141z" />
    <glyph glyph-name="a" unicode="a" 
d="M31 0l258 1479h289l258 -1479h-236l-43 307h-248l-43 -307h-235zM342 518h182l-90 610z" />
    <glyph glyph-name="b" unicode="b" horiz-adv-x="876" 
d="M102 0v1479h381q183 0 259.5 -99t76.5 -307q0 -127 -32.5 -197t-124.5 -108v-4q102 -39 138 -117.5t36 -222.5q0 -110 -16.5 -185.5t-58 -131t-113.5 -81.5t-181 -26h-365zM348 205h86q98 0 130 47.5t32 175.5q0 124 -32 179t-130 55h-86v-457zM348 854h96
q77 0 106.5 49.5t29.5 163.5q0 113 -29 160t-107 47h-96v-420z" />
    <glyph glyph-name="c" unicode="c" horiz-adv-x="851" 
d="M63 340v799q0 165 102.5 264.5t270.5 99.5q165 0 261 -96.5t96 -261.5v-217h-238v223q0 135 -117 135q-129 0 -129 -141v-811q0 -141 129 -141q117 0 117 135v239h238v-233q0 -165 -96 -262t-261 -97q-168 0 -270.5 100t-102.5 265z" />
    <glyph glyph-name="d" unicode="d" horiz-adv-x="901" 
d="M102 0v1479h351q387 0 387 -400v-680q0 -399 -387 -399h-351zM346 209h98q86 0 118 41t32 133v713q0 92 -32 133t-118 41h-98v-1061z" />
    <glyph glyph-name="e" unicode="e" horiz-adv-x="802" 
d="M102 0v1479h633v-215h-389v-396h287v-206h-287v-443h406v-219h-650z" />
    <glyph glyph-name="f" unicode="f" horiz-adv-x="813" 
d="M104 0v1479h644v-213h-398v-404h297v-211h-297v-651h-246z" />
    <glyph glyph-name="g" unicode="g" horiz-adv-x="899" 
d="M61 348v791q0 165 101.5 264.5t267.5 99.5q164 0 259 -96.5t95 -261.5v-182h-237v188q0 135 -117 135q-123 0 -123 -141v-807q0 -141 125 -141q131 0 131 155v203h-145v190h379v-745h-111l-39 104q-93 -129 -252 -129q-161 0 -247.5 104t-86.5 269z" />
    <glyph glyph-name="h" unicode="h" horiz-adv-x="952" 
d="M102 0v1479h244v-623h260v623h244v-1479h-244v639h-260v-639h-244z" />
    <glyph glyph-name="i" unicode="i" horiz-adv-x="448" 
d="M102 0v1479h244v-1479h-244z" />
    <glyph glyph-name="j" unicode="j" horiz-adv-x="856" 
d="M61 338v283h232v-289q0 -139 108 -139q57 0 84 38t27 101v1147h242v-1141q0 -162 -95 -262.5t-251 -100.5q-159 0 -253 102.5t-94 260.5z" />
    <glyph glyph-name="k" unicode="k" horiz-adv-x="888" 
d="M100 0v1479h244v-625l260 625h242l-256 -590l276 -889h-250l-184 655l-88 -190v-465h-244z" />
    <glyph glyph-name="l" unicode="l" horiz-adv-x="757" 
d="M102 0v1479h244v-1262h371v-217h-615z" />
    <glyph glyph-name="m" unicode="m" horiz-adv-x="1206" 
d="M102 0v1479h328l174 -926l176 926h324v-1479h-221v1116l-211 -1116h-150l-205 1114v-1114h-215z" />
    <glyph glyph-name="n" unicode="n" horiz-adv-x="956" 
d="M104 0v1479h222l309 -873v873h221v-1479h-201l-329 909v-909h-222z" />
    <glyph glyph-name="o" unicode="o" horiz-adv-x="864" 
d="M63 340v799q0 166 100.5 265t270.5 99t270.5 -99t100.5 -265v-799q0 -166 -100.5 -265.5t-270.5 -99.5t-270.5 99.5t-100.5 265.5zM309 334q0 -144 125 -144t125 144v811q0 143 -125 143t-125 -143v-811z" />
    <glyph glyph-name="p" unicode="p" horiz-adv-x="899" 
d="M102 0v1479h383q107 0 180 -32t112 -94t55 -138t16 -179q0 -82 -9.5 -145.5t-34 -121t-65 -95t-104.5 -59t-150 -21.5h-137v-594h-246zM348 799h117q87 0 114 53.5t27 185.5q0 131 -27 184.5t-114 53.5h-117v-477z" />
    <glyph glyph-name="q" unicode="q" horiz-adv-x="864" 
d="M61 340v799q0 166 101 265t270 99q170 0 270.5 -99.5t100.5 -266.5v-795q0 -75 -20.5 -137t-51 -99.5t-69 -64.5t-69.5 -38.5t-58 -14.5q11 -107 135 -107h57v-200h-51q-176 0 -267.5 87t-91.5 222q-22 3 -51 14t-66 38t-67 64.5t-51 98.5t-21 135zM307 334
q0 -144 125 -144t125 146v809q0 143 -125 143t-125 -143v-811z" />
    <glyph glyph-name="r" unicode="r" horiz-adv-x="901" 
d="M102 0v1479h383q104 0 174 -32.5t106 -96t50 -137.5t14 -177q0 -177 -40 -259t-138 -128l193 -649h-240l-168 614h-88v-614h-246zM348 811h96q83 0 113.5 48t30.5 183t-30.5 183.5t-113.5 48.5h-96v-463z" />
    <glyph glyph-name="s" unicode="s" horiz-adv-x="843" 
d="M70 352v154h227v-135q0 -181 135 -181q57 0 94 32.5t37 109.5q0 29 -7.5 57.5t-14.5 49.5t-29.5 51.5t-32.5 44.5t-45 49l-45 45t-53 51q-47 45 -75 74.5t-67 79t-60.5 92t-37.5 100.5t-16 119q0 73 20.5 136t62 113.5t111 79.5t160.5 29q166 0 256 -99.5t90 -301.5v-94
h-227v82q0 109 -29 155.5t-90 46.5q-59 0 -89 -38t-30 -99q0 -34 11.5 -67.5t25.5 -59t48 -64.5t56.5 -62t73.5 -73q54 -54 87 -89t72 -85t60 -93t35.5 -98t14.5 -114q0 -170 -101 -272.5t-264 -102.5q-166 0 -265 105t-99 272z" />
    <glyph glyph-name="t" unicode="t" horiz-adv-x="800" 
d="M20 1260v219h760v-219h-256v-1260h-243v1260h-261z" />
    <glyph glyph-name="u" unicode="u" horiz-adv-x="937" 
d="M96 340v1139h246v-1145q0 -144 125 -144t125 144v1145h246v-1139q0 -166 -100.5 -265.5t-270.5 -99.5t-270.5 99.5t-100.5 265.5z" />
    <glyph glyph-name="v" unicode="v" horiz-adv-x="860" 
d="M18 1479h246l164 -1037l164 1037h246l-287 -1479h-246z" />
    <glyph glyph-name="w" unicode="w" horiz-adv-x="1265" 
d="M20 1479h234l129 -971l145 971h209l146 -971l129 971h233l-248 -1479h-209l-155 934l-156 -934h-209z" />
    <glyph glyph-name="x" unicode="x" horiz-adv-x="819" 
d="M-2 0l272 756l-254 723h248l146 -502l145 502h248l-254 -723l272 -756h-239l-172 530l-172 -530h-240z" />
    <glyph glyph-name="y" unicode="y" 
d="M18 1479h248l166 -596l166 596h248l-287 -875v-604h-254v604z" />
    <glyph glyph-name="z" unicode="z" horiz-adv-x="813" 
d="M61 0v162l437 1100h-398v217h662v-162l-432 -1100h422v-217h-691z" />
    <glyph glyph-name="braceleft" unicode="{" horiz-adv-x="573" 
d="M-18 672v137h67q62 0 95.5 31.5t33.5 79.5q0 36 -40 228t-40 271q0 127 78 209t213 82h84v-145h-61q-60 0 -95.5 -43.5t-35.5 -112.5q0 -53 31.5 -233t31.5 -228q0 -72 -42 -131.5t-118 -77.5q73 -15 116.5 -74t43.5 -133q0 -48 -31.5 -227.5t-31.5 -232.5
q0 -69 35.5 -112.5t95.5 -43.5h61v-145h-84q-135 0 -213 81.5t-78 208.5q0 79 40 271.5t40 228.5q0 48 -33.5 79.5t-95.5 31.5h-67z" />
    <glyph glyph-name="bar" unicode="|" horiz-adv-x="405" 
d="M123 -82v1761h160v-1761h-160z" />
    <glyph glyph-name="braceright" unicode="}" horiz-adv-x="573" 
d="M102 -84h62q60 0 95.5 43.5t35.5 112.5q0 53 -32 232.5t-32 227.5q0 74 43.5 133t116.5 74q-76 18 -118 77.5t-42 131.5q0 48 32 228t32 233q0 69 -35.5 112.5t-95.5 43.5h-62v145h84q135 0 213 -82t78 -209q0 -79 -40 -271t-40 -228q0 -48 33.5 -79.5t95.5 -31.5h68
v-137h-68q-62 0 -95.5 -31.5t-33.5 -79.5q0 -36 40 -228.5t40 -271.5q0 -127 -78 -208.5t-213 -81.5h-84v145z" />
    <glyph glyph-name="asciitilde" unicode="~" horiz-adv-x="1161" 
d="M104 739q62 79 128.5 112.5t146.5 33.5q42 0 84.5 -10.5t68 -21t78.5 -34.5q48 -23 69.5 -32t52 -16t65.5 -7q54 0 92.5 18t75.5 70l94 -123q-61 -79 -128 -112t-147 -33q-42 0 -84 10t-69 20.5t-78 34.5q-52 24 -70 32t-50 16t-66 8q-54 0 -92.5 -18.5t-75.5 -70.5z" />
    <glyph glyph-name="uni00A0" unicode="&#xa0;" horiz-adv-x="409" 
 />
    <glyph glyph-name="exclamdown" unicode="&#xa1;" horiz-adv-x="497" 
d="M127 0l51 1044h141l52 -1044h-244zM143 1227v252h211v-252h-211z" />
    <glyph glyph-name="cent" unicode="&#xa2;" horiz-adv-x="753" 
d="M102 279v565q0 103 50.5 176t146.5 90v190h158v-188q98 -16 146 -90t48 -182v-146h-182v150q0 47 -22 76.5t-68 29.5q-41 0 -63.5 -26.5t-22.5 -73.5v-578q0 -47 22.5 -73.5t63.5 -26.5q46 0 68 30t22 77v161h182v-157q0 -108 -48 -182.5t-146 -90.5v-188h-158v190
q-96 17 -146.5 90.5t-50.5 176.5z" />
    <glyph glyph-name="sterling" unicode="&#xa3;" horiz-adv-x="944" 
d="M63 651v168h148q-5 20 -24.5 85t-30.5 120.5t-11 110.5q0 156 90.5 263t245.5 107q100 0 174 -47.5t109 -120t35 -157.5v-142h-199v127q0 57 -32.5 90t-86.5 33q-51 0 -81.5 -33.5t-30.5 -105.5q0 -49 13 -110t35 -134.5t25 -85.5h236v-168h-199q23 -125 -3 -239
t-87 -174q31 -22 75 -36t81 -14q23 0 40.5 6.5t29 15.5t19 27t11.5 32t5.5 40t1.5 41.5t-0.5 46.5t-0.5 45h191v-155q0 -146 -64.5 -226.5t-185.5 -80.5q-65 0 -153.5 34.5t-139.5 34.5q-34 0 -73.5 -11t-66 -22.5t-77.5 -35.5v219q50 17 92.5 53.5t73.5 94.5t37 134
t-17 170h-205z" />
    <glyph glyph-name="currency" unicode="&#xa4;" horiz-adv-x="944" 
d="M41 397l117 117q-15 50 -15 111v231q0 62 15 111l-117 116l90 88l98 -98q38 24 108.5 37.5t131.5 13.5t134 -13.5t114 -37.5l98 98l88 -88l-117 -116q15 -49 15 -111v-231q0 -61 -15 -111l117 -117l-88 -88l-98 99q-41 -24 -114 -38t-134 -14t-131.5 14t-108.5 38
l-98 -99zM309 594q0 -45 25 -64q35 -26 135 -26q104 0 141 26q25 18 25 64v293q0 45 -25 63q-39 27 -141 27q-99 0 -135 -27q-25 -19 -25 -63v-293z" />
    <glyph glyph-name="yen" unicode="&#xa5;" horiz-adv-x="946" 
d="M76 1479h229l168 -594l168 594h229l-170 -518h168v-170h-225l-55 -175h280v-170h-284v-446h-222v446h-284v170h280l-55 175h-225v170h168z" />
    <glyph glyph-name="brokenbar" unicode="&#xa6;" horiz-adv-x="405" 
d="M125 -80v733h160v-733h-160zM125 946v733h160v-733h-160z" />
    <glyph glyph-name="section" unicode="&#xa7;" horiz-adv-x="897" 
d="M96 647q0 84 36 155t99 118q-59 68 -89.5 128t-30.5 138q0 129 84 222t237 93q152 0 243 -93t91 -228v-113h-213v113q0 58 -29 92.5t-86 34.5q-52 0 -82 -31t-30 -88q0 -21 3.5 -38t15 -36t20.5 -31.5t33.5 -35t40.5 -36.5t54 -45.5t62 -52.5q124 -107 181 -189.5
t57 -188.5q0 -172 -138 -275q62 -69 92.5 -128.5t30.5 -133.5q0 -82 -34 -152.5t-109.5 -117.5t-179.5 -47q-152 0 -243 92.5t-91 226.5v115h213v-115q0 -55 30 -90t85 -35q49 0 81.5 29.5t32.5 87.5q0 31 -8.5 56t-33.5 53t-43.5 45.5t-67 57.5t-76.5 64q-60 52 -97 90
t-72.5 85t-52 97t-16.5 107zM289 670q0 -24 7.5 -46t16 -37.5t33 -40.5t39 -38t55 -47.5t60.5 -52.5l35 -31q63 45 63 131q0 46 -28 90.5t-53.5 68t-101.5 85.5q-17 15 -26 22l-35 29q-65 -46 -65 -133z" />
    <glyph glyph-name="dieresis" unicode="&#xa8;" horiz-adv-x="434" 
d="M-20 1602v213h188v-213h-188zM266 1602v213h189v-213h-189z" />
    <glyph glyph-name="copyright" unicode="&#xa9;" horiz-adv-x="1474" 
d="M41 797q0 192 89.5 352.5t249.5 255t355 94.5t355.5 -94.5t251 -255.5t90.5 -352q0 -143 -53.5 -272.5t-145.5 -223.5t-222 -149.5t-276 -55.5q-147 0 -276.5 55.5t-220.5 149.5t-144 223.5t-53 272.5zM150 797q0 -123 43 -233t119 -191t186 -128.5t237 -47.5
q170 0 305.5 81t209 218t73.5 301q0 124 -43.5 234.5t-119.5 191t-186.5 127.5t-238.5 47q-127 0 -237 -47t-186 -127.5t-119 -191t-43 -234.5zM492 610v375q0 77 47.5 124.5t126.5 47.5h149q78 0 122 -47.5t44 -126.5v-96h-111v98q0 30 -14.5 50t-40.5 20h-149
q-60 0 -60 -66v-383q0 -65 60 -65h149q26 0 40.5 19.5t14.5 49.5v109h111v-107q0 -79 -44 -126.5t-122 -47.5h-149q-79 0 -126.5 47.5t-47.5 124.5z" />
    <glyph glyph-name="ordfeminine" unicode="&#xaa;" horiz-adv-x="753" 
d="M39 645q0 157 95 256.5t323 188.5v118q0 113 -95 113q-19 0 -33.5 -5t-24.5 -11t-17 -19t-11 -21.5t-6.5 -27t-3 -27.5t-1.5 -30t-1 -27h-203q-6 155 76.5 252.5t241.5 97.5q137 0 212 -77.5t75 -217.5v-626q0 -56 51 -56v-149h-74q-132 0 -158 112q-94 -110 -225 -110
q-106 0 -163.5 68t-57.5 198zM246 666q0 -59 20 -86t62 -27q48 0 80.5 28t48.5 76v273q-117 -60 -164 -118.5t-47 -145.5z" />
    <glyph glyph-name="guillemotleft" unicode="&#xab;" horiz-adv-x="888" 
d="M102 692v90q53 34 136 145.5t112 182.5h119q-36 -177 -172 -373q137 -197 172 -372h-119q-29 71 -112 182t-136 145zM440 692v90q53 34 136 145.5t112 182.5h119q-36 -177 -172 -373q137 -197 172 -372h-119q-29 71 -112 182t-136 145z" />
    <glyph glyph-name="logicalnot" unicode="&#xac;" horiz-adv-x="1064" 
d="M61 844v192h938v-602h-180v410h-758z" />
    <glyph glyph-name="uni00AD" unicode="&#xad;" horiz-adv-x="653" 
d="M102 659v158h449v-158h-449z" />
    <glyph glyph-name="registered" unicode="&#xae;" horiz-adv-x="1474" 
d="M39 797q0 192 90 352.5t249.5 255t354.5 94.5q196 0 357 -94.5t251.5 -255.5t90.5 -352q0 -142 -53.5 -271t-146 -223t-222.5 -149.5t-277 -55.5q-195 0 -354.5 94t-249.5 254t-90 351zM147 799q0 -165 73.5 -302.5t209 -218.5t305.5 -81q169 0 304.5 81t209.5 218.5
t74 302.5t-74.5 301.5t-210 216.5t-303.5 80q-169 0 -304.5 -80t-209.5 -216.5t-74 -301.5zM508 451v696h328q92 0 126.5 -53.5t34.5 -159.5q0 -76 -17.5 -115t-66.5 -63l91 -305h-113l-78 288h-190v-288h-115zM623 831h186q47 0 61.5 21t14.5 90q0 68 -13.5 88.5
t-56.5 20.5h-192v-220z" />
    <glyph glyph-name="macron" unicode="&#xaf;" horiz-adv-x="473" 
d="M-18 1602v131h514v-131h-514z" />
    <glyph glyph-name="degree" unicode="&#xb0;" horiz-adv-x="735" 
d="M104 1237q0 109 76.5 185.5t190.5 76.5q113 0 188.5 -76.5t75.5 -185.5t-75.5 -185.5t-188.5 -76.5q-114 0 -190.5 76.5t-76.5 185.5zM229 1237q0 -66 39.5 -110t102.5 -44t102 44t39 110t-39 110t-102 44t-102.5 -44t-39.5 -110z" />
    <glyph glyph-name="plusminus" unicode="&#xb1;" horiz-adv-x="1142" 
d="M100 0v193h938v-193h-938zM100 592v192h379v299h180v-299h379v-192h-379v-299h-180v299h-379z" />
    <glyph glyph-name="uni00B2" unicode="&#xb2;" horiz-adv-x="602" 
d="M41 600v37q0 48 8 84t33 78t53.5 78t86.5 105q15 17 22 26q85 104 105.5 139.5t21.5 89.5q0 18 -1 27.5t-7 27t-22 26.5t-42 9q-78 0 -78 -90v-59h-178v90q0 39 14.5 77t44 74t83 58t122.5 22q128 0 191 -70t63 -176q0 -77 -34 -146.5t-113 -164.5q-19 -23 -47 -54.5
t-46.5 -55.5t-44.5 -64h283v-168h-518z" />
    <glyph glyph-name="uni00B3" unicode="&#xb3;" horiz-adv-x="600" 
d="M41 768v106h174v-61q0 -38 22 -67t66 -29q78 0 78 102v51q0 54 -17.5 73.5t-68.5 25.5q-27 4 -51 4v129q33 0 49 4q46 7 64 29t18 63v51q0 76 -70 76q-42 0 -65 -24t-23 -66v-57h-174v92q0 88 75 158.5t193 70.5q110 0 174 -63t64 -146v-121q0 -38 -23.5 -71.5
t-62.5 -48.5q94 -45 94 -148v-110q0 -99 -73 -163.5t-185 -64.5q-105 0 -181.5 56.5t-76.5 148.5z" />
    <glyph glyph-name="acute" unicode="&#xb4;" horiz-adv-x="329" 
d="M61 1602l121 292h234l-211 -292h-144z" />
    <glyph glyph-name="mu" unicode="&#xb5;" horiz-adv-x="829" 
d="M102 -311v1394h215v-837q0 -40 22 -63t58 -23q61 0 117 94v829h213v-1083h-192l-7 119q-48 -67 -96.5 -100t-114.5 -37v-293h-215z" />
    <glyph glyph-name="paragraph" unicode="&#xb6;" horiz-adv-x="1042" 
d="M39 991v31q0 204 107.5 330.5t269.5 126.5h522v-1696h-152v1528h-149v-1528h-152v754h-69q-162 0 -269.5 126t-107.5 328z" />
    <glyph glyph-name="periodcentered" unicode="&#xb7;" horiz-adv-x="479" 
d="M102 739q0 57 40.5 97.5t97.5 40.5t97 -40.5t40 -97.5t-40 -97t-97 -40t-97.5 40t-40.5 97z" />
    <glyph glyph-name="cedilla" unicode="&#xb8;" horiz-adv-x="436" 
d="M37 -188l133 188h98l-94 -133q15 10 53 10q71 0 120.5 -42t49.5 -118q0 -81 -59 -133.5t-154 -52.5q-80 0 -135 33l17 86q42 -16 88 -19q100 -6 100 84q0 78 -78 78q-46 0 -82 -18z" />
    <glyph glyph-name="uni00B9" unicode="&#xb9;" horiz-adv-x="512" 
d="M68 1118v193q131 68 245 168h105v-865h-191v584q-90 -51 -159 -80z" />
    <glyph glyph-name="ordmasculine" unicode="&#xba;" horiz-adv-x="747" 
d="M61 737v404q0 166 80.5 262t233.5 96t232 -96t79 -262v-404q0 -166 -79 -262t-232 -96t-233.5 96t-80.5 262zM272 698q0 -139 103 -139q50 0 77 35.5t27 103.5v482q0 68 -27 103.5t-77 35.5q-103 0 -103 -139v-482z" />
    <glyph glyph-name="guillemotright" unicode="&#xbb;" horiz-adv-x="888" 
d="M102 365q36 176 172 372q-137 197 -172 373h119q29 -71 112 -182.5t136 -145.5v-90q-53 -34 -136 -145t-112 -182h-119zM440 365q36 176 172 372q-137 197 -172 373h119q29 -71 112 -182.5t136 -145.5v-90q-53 -34 -136 -145t-112 -182h-119z" />
    <glyph glyph-name="onequarter" unicode="&#xbc;" horiz-adv-x="1425" 
d="M78 1118v193q133 69 246 168h104v-865h-190v584q-87 -49 -160 -80zM240 0l809 1479h159l-811 -1479h-157zM805 195v149l248 518h227v-512h98v-155h-98v-195h-180v195h-295zM965 350h135v283z" />
    <glyph glyph-name="onehalf" unicode="&#xbd;" horiz-adv-x="1470" 
d="M76 1118v193q133 69 246 168h104v-865h-190v584q-87 -49 -160 -80zM238 0l811 1479h157l-809 -1479h-159zM905 0v37q0 48 8 84t33 78t53.5 78t86.5 105q15 17 22 26q85 104 105.5 139.5t21.5 89.5q0 18 -1 27.5t-7 27t-22 26.5t-42 9q-78 0 -78 -90v-59h-178v90
q0 39 14.5 77t44 74t83 58t122.5 22q128 0 191 -70t63 -176q0 -77 -34 -146.5t-113 -164.5q-18 -22 -46.5 -54.5t-46.5 -56t-44 -63.5h282v-168h-518z" />
    <glyph glyph-name="threequarters" unicode="&#xbe;" horiz-adv-x="1464" 
d="M39 768v106h174v-61q0 -38 22 -67t66 -29q78 0 78 102v51q0 54 -17.5 73.5t-68.5 25.5q-27 4 -51 4v129q33 0 49 4q46 7 64 29t18 63v51q0 76 -70 76q-42 0 -65 -24t-23 -66v-57h-174v92q0 88 75 158.5t193 70.5q110 0 174 -63t64 -146v-121q0 -38 -23.5 -71.5
t-62.5 -48.5q94 -45 94 -148v-110q0 -99 -73 -163.5t-185 -64.5q-105 0 -181.5 56.5t-76.5 148.5zM285 0l809 1479h159l-811 -1479h-157zM850 195v149l248 518h227v-512h98v-155h-98v-195h-180v195h-295zM1010 350h135v283z" />
    <glyph glyph-name="questiondown" unicode="&#xbf;" horiz-adv-x="700" 
d="M43 291q0 145 113 321q6 10 27 41.5t29 45t25.5 42.5t25.5 49.5t19 48.5t17 56.5t8 58.5q4 28 4 103h174q0 -137 -12 -183q-6 -55 -24.5 -112t-35.5 -93t-57 -112q-88 -166 -88 -262q0 -57 24.5 -89t65.5 -32q50 0 78.5 44t28.5 89v127h197v-143q0 -131 -84.5 -222.5
t-227.5 -91.5q-140 0 -223.5 88t-83.5 226zM295 1237v242h211v-242h-211z" />
    <glyph glyph-name="Agrave" unicode="&#xc0;" 
d="M31 0l258 1479h289l258 -1479h-236l-43 307h-248l-43 -307h-235zM207 1894h233l119 -292h-141zM342 518h182l-90 610z" />
    <glyph glyph-name="Aacute" unicode="&#xc1;" 
d="M31 0l258 1479h289l258 -1479h-236l-43 307h-248l-43 -307h-235zM307 1602l121 292h234l-211 -292h-144zM342 518h182l-90 610z" />
    <glyph glyph-name="Acircumflex" unicode="&#xc2;" 
d="M31 0l258 1479h289l258 -1479h-236l-43 307h-248l-43 -307h-235zM160 1602v120q61 26 123.5 87.5t103.5 123.5h90q40 -62 103.5 -123.5t124.5 -87.5v-120q-55 12 -99.5 31.5t-69 35.5t-104.5 70q-118 -80 -155 -98q-49 -24 -117 -39zM342 518h182l-90 610z" />
    <glyph glyph-name="Atilde" unicode="&#xc3;" 
d="M31 0l258 1479h289l258 -1479h-236l-43 307h-248l-43 -307h-235zM154 1659q0 81 40.5 133.5t116.5 52.5q48 0 94.5 -23.5t86 -47t71.5 -23.5q55 0 55 55v33h97q4 -23 4 -47q0 -82 -41 -134t-117 -52q-39 0 -77 14.5t-63 32.5t-55.5 32.5t-56.5 14.5q-55 0 -55 -55v-33
h-96q-4 20 -4 47zM342 518h182l-90 610z" />
    <glyph glyph-name="Adieresis" unicode="&#xc4;" 
d="M31 0l258 1479h289l258 -1479h-236l-43 307h-248l-43 -307h-235zM195 1602v213h188v-213h-188zM342 518h182l-90 610zM481 1602v213h189v-213h-189z" />
    <glyph glyph-name="Aring" unicode="&#xc5;" 
d="M31 0l258 1479h289l258 -1479h-236l-43 307h-248l-43 -307h-235zM252 1786q0 76 52 130t126 54q76 0 128 -54t52 -130t-52 -130t-128 -54q-74 0 -126 54t-52 130zM342 518h182l-90 610zM342 1786q0 -43 25 -71.5t63 -28.5q40 0 66 28.5t26 71.5t-26 70.5t-66 27.5
q-38 0 -63 -27.5t-25 -70.5z" />
    <glyph glyph-name="AE" unicode="&#xc6;" horiz-adv-x="1294" 
d="M12 0l432 1479h787v-215h-395v-394h292v-208h-292v-443h409v-219h-653v319h-248l-90 -319h-242zM406 528h186v686l-2 -2z" />
    <glyph glyph-name="Ccedilla" unicode="&#xc7;" horiz-adv-x="851" 
d="M61 340v799q0 165 102.5 264.5t270.5 99.5q165 0 261 -96.5t96 -261.5v-217h-238v223q0 135 -117 135q-129 0 -129 -141v-811q0 -141 129 -141q117 0 117 135v239h238v-233q0 -148 -77 -241.5t-214 -112.5l-80 -113q15 10 53 10q71 0 120.5 -42t49.5 -118
q0 -81 -59 -133.5t-154 -52.5q-80 0 -135 33l16 86q42 -16 88 -19q101 -6 101 84q0 78 -78 78q-46 0 -82 -18l-57 37l116 165q-155 11 -246.5 108.5t-91.5 254.5z" />
    <glyph glyph-name="Egrave" unicode="&#xc8;" horiz-adv-x="802" 
d="M102 0v1479h633v-215h-389v-396h287v-206h-287v-443h406v-219h-650zM162 1894h233l119 -292h-141z" />
    <glyph glyph-name="Eacute" unicode="&#xc9;" horiz-adv-x="802" 
d="M102 0v1479h633v-215h-389v-396h287v-206h-287v-443h406v-219h-650zM337 1602l121 292h234l-211 -292h-144z" />
    <glyph glyph-name="Ecircumflex" unicode="&#xca;" horiz-adv-x="802" 
d="M102 0v1479h633v-215h-389v-396h287v-206h-287v-443h406v-219h-650zM154 1602v120q61 26 123.5 87.5t103.5 123.5h90q41 -62 103.5 -123.5t123.5 -87.5v-120q-105 23 -246 120q-17 11 -26 17q-118 -80 -155 -98q-49 -24 -117 -39z" />
    <glyph glyph-name="Edieresis" unicode="&#xcb;" horiz-adv-x="802" 
d="M102 0v1479h633v-215h-389v-396h287v-206h-287v-443h406v-219h-650zM182 1602v213h189v-213h-189zM469 1602v213h188v-213h-188z" />
    <glyph glyph-name="Igrave" unicode="&#xcc;" horiz-adv-x="448" 
d="M-6 1894h233l119 -292h-141zM102 0v1479h244v-1479h-244z" />
    <glyph glyph-name="Iacute" unicode="&#xcd;" horiz-adv-x="448" 
d="M102 0v1479h244v-1479h-244zM102 1602l121 292h234l-211 -292h-144z" />
    <glyph glyph-name="Icircumflex" unicode="&#xce;" horiz-adv-x="448" 
d="M-47 1602v120q61 26 123.5 87.5t103.5 123.5h90q40 -62 103.5 -123.5t124.5 -87.5v-120q-55 12 -99.5 31.5t-69 35.5t-104.5 70q-118 -80 -155 -98q-49 -24 -117 -39zM102 0v1479h244v-1479h-244z" />
    <glyph glyph-name="Idieresis" unicode="&#xcf;" horiz-adv-x="448" 
d="M-12 1602v213h188v-213h-188zM102 0v1479h244v-1479h-244zM274 1602v213h189v-213h-189z" />
    <glyph glyph-name="Eth" unicode="&#xd0;" horiz-adv-x="925" 
d="M20 655v193h107v631h350q387 0 387 -400v-680q0 -399 -387 -399h-350v655h-107zM371 209h98q86 0 117.5 41t31.5 133v713q0 92 -31.5 133t-117.5 41h-98v-422h133v-193h-133v-446z" />
    <glyph glyph-name="Ntilde" unicode="&#xd1;" horiz-adv-x="956" 
d="M104 0v1479h222l309 -873v873h221v-1479h-201l-329 909v-909h-222zM199 1659q0 81 40.5 133.5t116.5 52.5q48 0 94.5 -23.5t86 -47t71.5 -23.5q55 0 55 55v33h97q4 -23 4 -47q0 -82 -41 -134t-117 -52q-39 0 -77 14.5t-63 32.5t-55.5 32.5t-56.5 14.5q-55 0 -55 -55v-33
h-96q-4 20 -4 47z" />
    <glyph glyph-name="Ograve" unicode="&#xd2;" horiz-adv-x="864" 
d="M63 340v799q0 166 100.5 265t270.5 99t270.5 -99t100.5 -265v-799q0 -166 -100.5 -265.5t-270.5 -99.5t-270.5 99.5t-100.5 265.5zM205 1894h233l119 -292h-141zM309 334q0 -144 125 -144t125 144v811q0 143 -125 143t-125 -143v-811z" />
    <glyph glyph-name="Oacute" unicode="&#xd3;" horiz-adv-x="864" 
d="M63 340v799q0 166 100.5 265t270.5 99t270.5 -99t100.5 -265v-799q0 -166 -100.5 -265.5t-270.5 -99.5t-270.5 99.5t-100.5 265.5zM307 1602l121 292h234l-211 -292h-144zM309 334q0 -144 125 -144t125 144v811q0 143 -125 143t-125 -143v-811z" />
    <glyph glyph-name="Ocircumflex" unicode="&#xd4;" horiz-adv-x="864" 
d="M63 340v799q0 166 100.5 265t270.5 99t270.5 -99t100.5 -265v-799q0 -166 -100.5 -265.5t-270.5 -99.5t-270.5 99.5t-100.5 265.5zM160 1602v120q61 26 123.5 87.5t103.5 123.5h90q40 -62 103.5 -123.5t124.5 -87.5v-120q-55 12 -99.5 31.5t-69 35.5t-104.5 70
q-118 -80 -155 -98q-49 -24 -117 -39zM309 334q0 -144 125 -144t125 144v811q0 143 -125 143t-125 -143v-811z" />
    <glyph glyph-name="Otilde" unicode="&#xd5;" horiz-adv-x="864" 
d="M63 340v799q0 166 100.5 265t270.5 99t270.5 -99t100.5 -265v-799q0 -166 -100.5 -265.5t-270.5 -99.5t-270.5 99.5t-100.5 265.5zM152 1659q0 81 40.5 133.5t116.5 52.5q48 0 94.5 -23.5t86 -47t71.5 -23.5q55 0 55 55v33h97q4 -23 4 -47q0 -82 -41 -134t-117 -52
q-39 0 -77 14.5t-63 32.5t-55.5 32.5t-56.5 14.5q-55 0 -55 -55v-33h-96q-4 20 -4 47zM309 334q0 -144 125 -144t125 144v811q0 143 -125 143t-125 -143v-811z" />
    <glyph glyph-name="Odieresis" unicode="&#xd6;" horiz-adv-x="864" 
d="M63 340v799q0 166 100.5 265t270.5 99t270.5 -99t100.5 -265v-799q0 -166 -100.5 -265.5t-270.5 -99.5t-270.5 99.5t-100.5 265.5zM195 1602v213h188v-213h-188zM309 334q0 -144 125 -144t125 144v811q0 143 -125 143t-125 -143v-811zM481 1602v213h189v-213h-189z" />
    <glyph glyph-name="multiply" unicode="&#xd7;" horiz-adv-x="1142" 
d="M98 377l340 358l-340 361l127 135l342 -361l340 361l129 -135l-340 -361l340 -358l-129 -137l-340 360l-342 -360z" />
    <glyph glyph-name="Oslash" unicode="&#xd8;" horiz-adv-x="946" 
d="M55 -106l101 239q-54 88 -54 207v799q0 166 100.5 265t270.5 99q134 0 225 -63l62 149h133l-102 -246q53 -83 53 -204v-799q0 -166 -100.5 -265.5t-270.5 -99.5q-131 0 -225 62l-60 -143h-133zM348 598l246 594q-17 96 -121 96q-125 0 -125 -143v-547zM350 287
q18 -97 123 -97q125 0 125 144v547z" />
    <glyph glyph-name="Ugrave" unicode="&#xd9;" horiz-adv-x="937" 
d="M96 340v1139h246v-1145q0 -144 125 -144t125 144v1145h246v-1139q0 -166 -100.5 -265.5t-270.5 -99.5t-270.5 99.5t-100.5 265.5zM244 1894h233l119 -292h-141z" />
    <glyph glyph-name="Uacute" unicode="&#xda;" horiz-adv-x="937" 
d="M96 340v1139h246v-1145q0 -144 125 -144t125 144v1145h246v-1139q0 -166 -100.5 -265.5t-270.5 -99.5t-270.5 99.5t-100.5 265.5zM348 1602l121 292h234l-211 -292h-144z" />
    <glyph glyph-name="Ucircumflex" unicode="&#xdb;" horiz-adv-x="937" 
d="M96 340v1139h246v-1145q0 -144 125 -144t125 144v1145h246v-1139q0 -166 -100.5 -265.5t-270.5 -99.5t-270.5 99.5t-100.5 265.5zM201 1602v120q61 26 123.5 87.5t103.5 123.5h90q41 -62 103.5 -123.5t123.5 -87.5v-120q-105 23 -246 120q-17 11 -26 17
q-118 -80 -155 -98q-49 -24 -117 -39z" />
    <glyph glyph-name="Udieresis" unicode="&#xdc;" horiz-adv-x="937" 
d="M96 340v1139h246v-1145q0 -144 125 -144t125 144v1145h246v-1139q0 -166 -100.5 -265.5t-270.5 -99.5t-270.5 99.5t-100.5 265.5zM236 1602v213h188v-213h-188zM522 1602v213h189v-213h-189z" />
    <glyph glyph-name="Yacute" unicode="&#xdd;" 
d="M18 1479h248l166 -596l166 596h248l-287 -875v-604h-254v604zM315 1602l121 292h234l-211 -292h-144z" />
    <glyph glyph-name="Thorn" unicode="&#xde;" horiz-adv-x="888" 
d="M102 0v1479h226v-322q53 6 125 6q102 0 169 -17.5t115 -62.5t69 -124t21 -201t-21 -201.5t-68.5 -125.5t-114 -64.5t-166.5 -18.5q-36 0 -68 2t-47 4l-14 2v-356h-226zM328 537q37 -9 100 -9q54 0 85.5 8.5t53 35t29.5 71t8 119.5q0 136 -34 178.5t-140 42.5l-102 -6
v-440z" />
    <glyph glyph-name="germandbls" unicode="&#xdf;" horiz-adv-x="798" 
d="M92 0v1145q0 173 79 265.5t230 92.5q138 0 218.5 -73.5t80.5 -198.5v-172q0 -106 -26.5 -165.5t-91.5 -80.5q147 -58 147 -223v-367q0 -125 -62 -186.5t-155 -61.5q-25 0 -67.5 3.5t-47.5 7.5v149q44 0 62 6t28.5 13.5t19.5 32.5t9 67v332q0 133 -113 133v172
q58 4 79.5 32t21.5 95v180q0 125 -96 125q-103 0 -103 -135v-1188h-213z" />
    <glyph glyph-name="agrave" unicode="&#xe0;" 
d="M31 0l258 1479h289l258 -1479h-236l-43 307h-248l-43 -307h-235zM207 1894h233l119 -292h-141zM342 518h182l-90 610z" />
    <glyph glyph-name="aacute" unicode="&#xe1;" 
d="M31 0l258 1479h289l258 -1479h-236l-43 307h-248l-43 -307h-235zM307 1602l121 292h234l-211 -292h-144zM342 518h182l-90 610z" />
    <glyph glyph-name="acircumflex" unicode="&#xe2;" 
d="M31 0l258 1479h289l258 -1479h-236l-43 307h-248l-43 -307h-235zM160 1602v120q61 26 123.5 87.5t103.5 123.5h90q41 -62 103.5 -123.5t123.5 -87.5v-120q-105 23 -246 120q-17 11 -26 17q-118 -80 -155 -98q-49 -24 -117 -39zM342 518h182l-90 610z" />
    <glyph glyph-name="atilde" unicode="&#xe3;" 
d="M31 0l258 1479h289l258 -1479h-236l-43 307h-248l-43 -307h-235zM154 1659q0 81 40.5 133.5t116.5 52.5q48 0 94.5 -23.5t86 -47t71.5 -23.5q55 0 55 55v33h97q4 -23 4 -47q0 -82 -41 -134t-117 -52q-39 0 -77 14.5t-63 32.5t-55.5 32.5t-56.5 14.5q-55 0 -55 -55v-33
h-96q-4 20 -4 47zM342 518h182l-90 610z" />
    <glyph glyph-name="adieresis" unicode="&#xe4;" 
d="M31 0l258 1479h289l258 -1479h-236l-43 307h-248l-43 -307h-235zM195 1602v213h188v-213h-188zM342 518h182l-90 610zM481 1602v213h189v-213h-189z" />
    <glyph glyph-name="aring" unicode="&#xe5;" 
d="M31 0l258 1479h289l258 -1479h-236l-43 307h-248l-43 -307h-235zM252 1786q0 76 52 130t126 54q76 0 128 -54t52 -130t-52 -130t-128 -54q-74 0 -126 54t-52 130zM342 518h182l-90 610zM342 1786q0 -43 25 -71.5t63 -28.5q40 0 66 28.5t26 71.5t-26 70.5t-66 27.5
q-38 0 -63 -27.5t-25 -70.5z" />
    <glyph glyph-name="ae" unicode="&#xe6;" horiz-adv-x="1294" 
d="M12 0l432 1479h787v-215h-395v-394h292v-208h-292v-443h409v-219h-653v319h-248l-90 -319h-242zM406 528h186v686l-2 -2z" />
    <glyph glyph-name="ccedilla" unicode="&#xe7;" horiz-adv-x="851" 
d="M61 340v799q0 165 102.5 264.5t270.5 99.5q165 0 261 -96.5t96 -261.5v-217h-238v223q0 135 -117 135q-129 0 -129 -141v-811q0 -141 129 -141q117 0 117 135v239h238v-233q0 -148 -77 -241.5t-214 -112.5l-80 -113q15 10 53 10q71 0 120.5 -42t49.5 -118
q0 -81 -59 -133.5t-154 -52.5q-80 0 -135 33l16 86q42 -16 88 -19q101 -6 101 84q0 78 -78 78q-46 0 -82 -18l-57 37l116 165q-155 11 -246.5 108.5t-91.5 254.5z" />
    <glyph glyph-name="egrave" unicode="&#xe8;" horiz-adv-x="802" 
d="M102 0v1479h633v-215h-389v-396h287v-206h-287v-443h406v-219h-650zM162 1894h233l119 -292h-141z" />
    <glyph glyph-name="eacute" unicode="&#xe9;" horiz-adv-x="802" 
d="M102 0v1479h633v-215h-389v-396h287v-206h-287v-443h406v-219h-650zM337 1602l121 292h234l-211 -292h-144z" />
    <glyph glyph-name="ecircumflex" unicode="&#xea;" horiz-adv-x="802" 
d="M102 0v1479h633v-215h-389v-396h287v-206h-287v-443h406v-219h-650zM154 1602v120q61 26 123.5 87.5t103.5 123.5h90q41 -62 103.5 -123.5t123.5 -87.5v-120q-105 23 -246 120q-17 11 -26 17q-118 -80 -155 -98q-49 -24 -117 -39z" />
    <glyph glyph-name="edieresis" unicode="&#xeb;" horiz-adv-x="802" 
d="M102 0v1479h633v-215h-389v-396h287v-206h-287v-443h406v-219h-650zM182 1602v213h189v-213h-189zM469 1602v213h188v-213h-188z" />
    <glyph glyph-name="igrave" unicode="&#xec;" horiz-adv-x="448" 
d="M-6 1894h233l119 -292h-141zM102 0v1479h244v-1479h-244z" />
    <glyph glyph-name="iacute" unicode="&#xed;" horiz-adv-x="448" 
d="M102 0v1479h244v-1479h-244zM102 1602l121 292h234l-211 -292h-144z" />
    <glyph glyph-name="icircumflex" unicode="&#xee;" horiz-adv-x="448" 
d="M-47 1602v120q61 26 123.5 87.5t103.5 123.5h90q40 -62 103.5 -123.5t124.5 -87.5v-120q-55 12 -99.5 31.5t-69 35.5t-104.5 70q-118 -80 -155 -98q-49 -24 -117 -39zM102 0v1479h244v-1479h-244z" />
    <glyph glyph-name="idieresis" unicode="&#xef;" horiz-adv-x="448" 
d="M-12 1602v213h188v-213h-188zM102 0v1479h244v-1479h-244zM274 1602v213h189v-213h-189z" />
    <glyph glyph-name="eth" unicode="&#xf0;" horiz-adv-x="925" 
d="M20 655v193h107v631h350q387 0 387 -400v-680q0 -399 -387 -399h-350v655h-107zM371 209h98q86 0 117.5 41t31.5 133v713q0 92 -31.5 133t-117.5 41h-98v-422h133v-193h-133v-446z" />
    <glyph glyph-name="ntilde" unicode="&#xf1;" horiz-adv-x="956" 
d="M104 0v1479h222l309 -873v873h221v-1479h-201l-329 909v-909h-222zM199 1659q0 81 40.5 133.5t116.5 52.5q48 0 94.5 -23.5t86 -47t71.5 -23.5q55 0 55 55v33h97q4 -23 4 -47q0 -82 -41 -134t-117 -52q-39 0 -77 14.5t-63 32.5t-55.5 32.5t-56.5 14.5q-55 0 -55 -55v-33
h-96q-4 20 -4 47z" />
    <glyph glyph-name="ograve" unicode="&#xf2;" horiz-adv-x="864" 
d="M63 340v799q0 166 100.5 265t270.5 99t270.5 -99t100.5 -265v-799q0 -166 -100.5 -265.5t-270.5 -99.5t-270.5 99.5t-100.5 265.5zM205 1894h233l119 -292h-141zM309 334q0 -144 125 -144t125 144v811q0 143 -125 143t-125 -143v-811z" />
    <glyph glyph-name="oacute" unicode="&#xf3;" horiz-adv-x="864" 
d="M63 340v799q0 166 100.5 265t270.5 99t270.5 -99t100.5 -265v-799q0 -166 -100.5 -265.5t-270.5 -99.5t-270.5 99.5t-100.5 265.5zM307 1602l121 292h234l-211 -292h-144zM309 334q0 -144 125 -144t125 144v811q0 143 -125 143t-125 -143v-811z" />
    <glyph glyph-name="ocircumflex" unicode="&#xf4;" horiz-adv-x="864" 
d="M63 340v799q0 166 100.5 265t270.5 99t270.5 -99t100.5 -265v-799q0 -166 -100.5 -265.5t-270.5 -99.5t-270.5 99.5t-100.5 265.5zM160 1602v120q61 26 123.5 87.5t103.5 123.5h90q40 -62 103.5 -123.5t124.5 -87.5v-120q-55 12 -99.5 31.5t-69 35.5t-104.5 70
q-118 -80 -155 -98q-49 -24 -117 -39zM309 334q0 -144 125 -144t125 144v811q0 143 -125 143t-125 -143v-811z" />
    <glyph glyph-name="otilde" unicode="&#xf5;" horiz-adv-x="864" 
d="M63 340v799q0 166 100.5 265t270.5 99t270.5 -99t100.5 -265v-799q0 -166 -100.5 -265.5t-270.5 -99.5t-270.5 99.5t-100.5 265.5zM152 1659q0 81 40.5 133.5t116.5 52.5q48 0 94.5 -23.5t86 -47t71.5 -23.5q55 0 55 55v33h97q4 -23 4 -47q0 -82 -41 -134t-117 -52
q-39 0 -77 14.5t-63 32.5t-55.5 32.5t-56.5 14.5q-55 0 -55 -55v-33h-96q-4 20 -4 47zM309 334q0 -144 125 -144t125 144v811q0 143 -125 143t-125 -143v-811z" />
    <glyph glyph-name="odieresis" unicode="&#xf6;" horiz-adv-x="864" 
d="M63 340v799q0 166 100.5 265t270.5 99t270.5 -99t100.5 -265v-799q0 -166 -100.5 -265.5t-270.5 -99.5t-270.5 99.5t-100.5 265.5zM195 1602v213h188v-213h-188zM309 334q0 -144 125 -144t125 144v811q0 143 -125 143t-125 -143v-811zM481 1602v213h189v-213h-189z" />
    <glyph glyph-name="divide" unicode="&#xf7;" horiz-adv-x="1142" 
d="M102 639v192h938v-192h-938zM422 336q0 62 43 105.5t104 43.5q62 0 106 -44t44 -105t-44 -104.5t-106 -43.5q-61 0 -104 43t-43 105zM422 1133q0 62 43 105.5t104 43.5q62 0 106 -44t44 -105t-44 -104.5t-106 -43.5q-61 0 -104 43t-43 105z" />
    <glyph glyph-name="oslash" unicode="&#xf8;" horiz-adv-x="946" 
d="M55 -106l101 239q-54 88 -54 207v799q0 166 100.5 265t270.5 99q134 0 225 -63l62 149h133l-102 -246q53 -83 53 -204v-799q0 -166 -100.5 -265.5t-270.5 -99.5q-131 0 -225 62l-60 -143h-133zM348 598l246 594q-17 96 -121 96q-125 0 -125 -143v-547zM350 287
q18 -97 123 -97q125 0 125 144v547z" />
    <glyph glyph-name="ugrave" unicode="&#xf9;" horiz-adv-x="937" 
d="M96 340v1139h246v-1145q0 -144 125 -144t125 144v1145h246v-1139q0 -166 -100.5 -265.5t-270.5 -99.5t-270.5 99.5t-100.5 265.5zM244 1894h233l119 -292h-141z" />
    <glyph glyph-name="uacute" unicode="&#xfa;" horiz-adv-x="937" 
d="M96 340v1139h246v-1145q0 -144 125 -144t125 144v1145h246v-1139q0 -166 -100.5 -265.5t-270.5 -99.5t-270.5 99.5t-100.5 265.5zM348 1602l121 292h234l-211 -292h-144z" />
    <glyph glyph-name="ucircumflex" unicode="&#xfb;" horiz-adv-x="937" 
d="M96 340v1139h246v-1145q0 -144 125 -144t125 144v1145h246v-1139q0 -166 -100.5 -265.5t-270.5 -99.5t-270.5 99.5t-100.5 265.5zM201 1602v120q61 26 123.5 87.5t103.5 123.5h90q41 -62 103.5 -123.5t123.5 -87.5v-120q-105 23 -246 120q-17 11 -26 17
q-118 -80 -155 -98q-49 -24 -117 -39z" />
    <glyph glyph-name="udieresis" unicode="&#xfc;" horiz-adv-x="937" 
d="M96 340v1139h246v-1145q0 -144 125 -144t125 144v1145h246v-1139q0 -166 -100.5 -265.5t-270.5 -99.5t-270.5 99.5t-100.5 265.5zM236 1602v213h188v-213h-188zM522 1602v213h189v-213h-189z" />
    <glyph glyph-name="yacute" unicode="&#xfd;" 
d="M18 1479h248l166 -596l166 596h248l-287 -875v-604h-254v604zM315 1602l121 292h234l-211 -292h-144z" />
    <glyph glyph-name="thorn" unicode="&#xfe;" horiz-adv-x="888" 
d="M102 0v1479h226v-322q53 6 125 6q102 0 169 -17.5t115 -62.5t69 -124t21 -201t-21 -201.5t-68.5 -125.5t-114 -64.5t-166.5 -18.5q-36 0 -68 2t-47 4l-14 2v-356h-226zM328 537q37 -9 100 -9q54 0 85.5 8.5t53 35t29.5 71t8 119.5q0 136 -34 178.5t-140 42.5l-102 -6
v-440z" />
    <glyph glyph-name="ydieresis" unicode="&#xff;" 
d="M18 1479h248l166 -596l166 596h248l-287 -875v-604h-254v604zM201 1602v213h188v-213h-188zM487 1602v213h189v-213h-189z" />
    <glyph glyph-name="OE" unicode="&#x152;" horiz-adv-x="1234" 
d="M61 365v749q0 164 103 264.5t270 100.5h742v-215h-392v-396h287v-206h-287v-443h406v-219h-756q-167 0 -270 100.5t-103 264.5zM307 358q0 -141 127 -141h107v1045h-107q-127 0 -127 -142v-762z" />
    <glyph glyph-name="oe" unicode="&#x153;" horiz-adv-x="1234" 
d="M61 365v749q0 164 103 264.5t270 100.5h742v-215h-392v-396h287v-206h-287v-443h406v-219h-756q-167 0 -270 100.5t-103 264.5zM307 358q0 -141 127 -141h107v1045h-107q-127 0 -127 -142v-762z" />
    <glyph glyph-name="Ydieresis" unicode="&#x178;" 
d="M18 1479h248l166 -596l166 596h248l-287 -875v-604h-254v604zM201 1602v213h188v-213h-188zM487 1602v213h189v-213h-189z" />
    <glyph glyph-name="circumflex" unicode="&#x2c6;" horiz-adv-x="505" 
d="M-18 1602v120q61 26 123.5 87.5t103.5 123.5h90q41 -62 103.5 -123.5t123.5 -87.5v-120q-105 23 -246 120q-17 11 -26 17q-118 -80 -155 -98q-49 -24 -117 -39z" />
    <glyph glyph-name="tilde" unicode="&#x2dc;" horiz-adv-x="524" 
d="M-18 1659q0 81 40.5 133.5t116.5 52.5q48 0 94.5 -23.5t86 -47t71.5 -23.5q55 0 55 55v33h97q4 -23 4 -47q0 -82 -41 -134t-117 -52q-39 0 -77 14.5t-63 32.5t-55.5 32.5t-56.5 14.5q-55 0 -55 -55v-33h-96q-4 20 -4 47z" />
    <glyph glyph-name="uni2000" unicode="&#x2000;" horiz-adv-x="985" 
 />
    <glyph glyph-name="uni2001" unicode="&#x2001;" horiz-adv-x="1970" 
 />
    <glyph glyph-name="uni2002" unicode="&#x2002;" horiz-adv-x="985" 
 />
    <glyph glyph-name="uni2003" unicode="&#x2003;" horiz-adv-x="1970" 
 />
    <glyph glyph-name="uni2004" unicode="&#x2004;" horiz-adv-x="656" 
 />
    <glyph glyph-name="uni2005" unicode="&#x2005;" horiz-adv-x="492" 
 />
    <glyph glyph-name="uni2006" unicode="&#x2006;" horiz-adv-x="328" 
 />
    <glyph glyph-name="uni2007" unicode="&#x2007;" horiz-adv-x="328" 
 />
    <glyph glyph-name="uni2008" unicode="&#x2008;" horiz-adv-x="246" 
 />
    <glyph glyph-name="uni2009" unicode="&#x2009;" horiz-adv-x="394" 
 />
    <glyph glyph-name="uni200A" unicode="&#x200a;" horiz-adv-x="109" 
 />
    <glyph glyph-name="uni2010" unicode="&#x2010;" horiz-adv-x="653" 
d="M102 659v158h449v-158h-449z" />
    <glyph glyph-name="uni2011" unicode="&#x2011;" horiz-adv-x="653" 
d="M102 659v158h449v-158h-449z" />
    <glyph glyph-name="figuredash" unicode="&#x2012;" horiz-adv-x="653" 
d="M102 659v158h449v-158h-449z" />
    <glyph glyph-name="endash" unicode="&#x2013;" horiz-adv-x="1077" 
d="M102 659v158h873v-158h-873z" />
    <glyph glyph-name="emdash" unicode="&#x2014;" horiz-adv-x="1769" 
d="M100 659v158h1565v-158h-1565z" />
    <glyph glyph-name="quoteleft" unicode="&#x2018;" horiz-adv-x="458" 
d="M123 1001v158q0 59 12 113.5t28.5 90.5t33.5 63.5t29 39.5l12 13h108q-11 -15 -27.5 -40t-44.5 -85.5t-28 -100.5h90v-252h-213z" />
    <glyph glyph-name="quoteright" unicode="&#x2019;" horiz-adv-x="458" 
d="M113 1001q11 15 27.5 40t44.5 85.5t28 100.5h-90v252h213v-158q0 -59 -12 -113.5t-29 -90.5t-33.5 -63.5t-28.5 -39.5l-12 -13h-108z" />
    <glyph glyph-name="quotesinglbase" unicode="&#x201a;" horiz-adv-x="458" 
d="M92 -225q11 15 28 40t45 85t28 100h-91v252h213v-158q0 -59 -11.5 -113.5t-28.5 -90.5t-34 -63t-29 -39l-11 -13h-109z" />
    <glyph glyph-name="quotedblleft" unicode="&#x201c;" horiz-adv-x="743" 
d="M123 1001v158q0 59 12 113.5t28.5 90.5t33.5 63.5t29 39.5l12 13h108q-11 -15 -27.5 -40t-44.5 -85.5t-28 -100.5h90v-252h-213zM408 1001v158q0 59 11.5 113.5t28.5 90.5t34 63.5t28 39.5l12 13h109q-11 -15 -28 -40t-45 -85.5t-28 -100.5h91v-252h-213z" />
    <glyph glyph-name="quotedblright" unicode="&#x201d;" horiz-adv-x="743" 
d="M113 1001q11 15 27.5 40t44.5 85.5t28 100.5h-90v252h213v-158q0 -59 -12 -113.5t-29 -90.5t-33.5 -63.5t-28.5 -39.5l-12 -13h-108zM397 1001q11 15 28 40t45 85.5t28 100.5h-90v252h213v-158q0 -59 -12 -113.5t-28.5 -90.5t-33.5 -63.5t-29 -39.5l-12 -13h-109z" />
    <glyph glyph-name="quotedblbase" unicode="&#x201e;" horiz-adv-x="743" 
d="M92 -225q11 15 28 40t45 85t28 100h-91v252h213v-158q0 -59 -11.5 -113.5t-28.5 -90.5t-34 -63t-29 -39l-11 -13h-109zM377 -225q11 15 27.5 40t44.5 85t28 100h-90v252h213v-158q0 -59 -12 -113.5t-29 -90.5t-33.5 -63t-28.5 -39l-12 -13h-108z" />
    <glyph glyph-name="bullet" unicode="&#x2022;" horiz-adv-x="843" 
d="M119 739q0 125 87.5 213t211.5 88t212.5 -88t88.5 -213q0 -124 -88 -211.5t-213 -87.5q-124 0 -211.5 87t-87.5 212z" />
    <glyph glyph-name="ellipsis" unicode="&#x2026;" horiz-adv-x="1581" 
d="M184 0v252h213v-252h-213zM682 0v252h213v-252h-213zM1182 0v252h213v-252h-213z" />
    <glyph glyph-name="uni202F" unicode="&#x202f;" horiz-adv-x="394" 
 />
    <glyph glyph-name="guilsinglleft" unicode="&#x2039;" horiz-adv-x="571" 
d="M100 692v90q53 34 136 145.5t112 182.5h119q-36 -177 -172 -373q137 -197 172 -372h-119q-29 71 -112 182t-136 145z" />
    <glyph glyph-name="guilsinglright" unicode="&#x203a;" horiz-adv-x="571" 
d="M102 365q36 176 172 372q-137 197 -172 373h119q29 -71 112 -182.5t136 -145.5v-90q-53 -34 -136 -145t-112 -182h-119z" />
    <glyph glyph-name="uni205F" unicode="&#x205f;" horiz-adv-x="492" 
 />
    <glyph glyph-name="Euro" unicode="&#x20ac;" horiz-adv-x="933" 
d="M43 526v158h102v129h-102v158h102v168q0 165 102.5 264.5t270.5 99.5q165 0 260.5 -96.5t95.5 -261.5v-41h-237v47q0 135 -117 135q-129 0 -129 -141v-174h246v-158h-246v-129h246v-158h-246v-192q0 -141 129 -141q117 0 117 135v65h237v-59q0 -165 -95.5 -262
t-260.5 -97q-168 0 -270.5 100t-102.5 265v186h-102z" />
    <glyph glyph-name="trademark" unicode="&#x2122;" horiz-adv-x="1511" 
d="M43 1360v119h532v-119h-192v-553h-147v553h-193zM674 807v672h207l161 -473l162 473h207v-672h-139v500l-172 -500h-115l-172 500v-500h-139z" />
    <glyph glyph-name="uni25FC" unicode="&#x25fc;" horiz-adv-x="1474" 
d="M0 0v1475h1475v-1475h-1475z" />
    <glyph glyph-name="uniFB01" unicode="&#xfb01;" horiz-adv-x="1261" 
d="M104 0v1479h644v-213h-398v-404h297v-211h-297v-651h-246zM915 0v1479h244v-1479h-244z" />
    <glyph glyph-name="uniFB02" unicode="&#xfb02;" horiz-adv-x="1570" 
d="M104 0v1479h644v-213h-398v-404h297v-211h-297v-651h-246zM915 0v1479h244v-1262h371v-217h-615z" />
    </font>
</defs>
</svg>
