<svg xmlns="http://www.w3.org/2000/svg" width="55" height="27" viewBox="0 0 33.848 16.247">
  <g id="Group_1143" data-name="Group 1143" transform="translate(-651.283 -390)">
    <g id="Group_1118" data-name="Group 1118" transform="translate(0 39)">
      <g id="Group_1108" data-name="Group 1108">
        <path id="Path_1033" data-name="Path 1033" d="M67.549,39.734H60.715c.867-1.852.809-4.278.9-6.611h0c-.094-2.333-.035-4.759-.9-6.611H74.383c-.856,1.852-.809,4.278-.9,6.611h0c.094,2.333.047,4.759.9,6.611Zm0-13.4H60.715V25a.72.72,0,0,0,.973,0,.72.72,0,0,0,.973,0,.736.736,0,0,0,.985,0,.721.721,0,0,0,.973,0,.72.72,0,0,0,.973,0,.736.736,0,0,0,.985,0,.72.72,0,0,0,.973,0,.72.72,0,0,0,.973,0,.736.736,0,0,0,.985,0,.72.72,0,0,0,.973,0,.72.72,0,0,0,.973,0,.736.736,0,0,0,.985,0,.721.721,0,0,0,.973,0,.72.72,0,0,0,.973,0v1.336H67.549Zm0,13.574H60.715v1.336a.72.72,0,0,1,.973,0,.72.72,0,0,1,.973,0,.736.736,0,0,1,.985,0,.721.721,0,0,1,.973,0,.72.72,0,0,1,.973,0,.736.736,0,0,1,.985,0,.721.721,0,0,1,.973,0,.72.72,0,0,1,.973,0,.736.736,0,0,1,.985,0,.72.72,0,0,1,.973,0,.72.72,0,0,1,.973,0,.736.736,0,0,1,.985,0,.721.721,0,0,1,.973,0,.72.72,0,0,1,.973,0V39.91H67.549Zm0-11.156a4.369,4.369,0,1,1-4.369,4.369,4.364,4.364,0,0,1,4.369-4.369Zm2.384,2.528c-1.008.128-1.2.672-1.872.8a1.637,1.637,0,0,1-.56-.016c-.768-.16-3.5-1.856-3.456.736.016,1.888,2.848,2.96,4.08,1.456.736-.864.88-2.288,1.808-2.976Zm-1.488,2.768a2.3,2.3,0,0,0,2.432-1.072c.416-.848.16-1.76-.8-1.7-.848.624-1.04,1.888-1.632,2.768Z" transform="translate(600.333 326)" fill="#1e5aa5" fill-rule="evenodd" opacity="0.15"/>
        <path id="Path_1046" data-name="Path 1046" d="M-14.3,0l-1.375-4.48h-.035q.074,1.367.074,1.824V0h-1.082V-5.711h1.648l1.352,4.367h.023l1.434-4.367h1.648V0H-11.74V-2.7q0-.191.006-.441t.053-1.328h-.035L-13.189,0Zm7.8,0-.23-.594h-.031a1.76,1.76,0,0,1-.619.525,2,2,0,0,1-.83.146A1.342,1.342,0,0,1-9.2-.281,1.38,1.38,0,0,1-9.557-1.3,1.152,1.152,0,0,1-9.07-2.33,2.818,2.818,0,0,1-7.6-2.7l.758-.023V-2.91a.594.594,0,0,0-.68-.664,3.1,3.1,0,0,0-1.23.316l-.395-.8a3.55,3.55,0,0,1,1.672-.395,2.083,2.083,0,0,1,1.348.383A1.415,1.415,0,0,1-5.662-2.91V0Zm-.352-2.023-.461.016a1.476,1.476,0,0,0-.773.188.589.589,0,0,0-.254.523q0,.5.578.5a.916.916,0,0,0,.662-.238.837.837,0,0,0,.248-.633ZM-2-4.449a1.921,1.921,0,0,1,.4.035L-1.686-3.3a1.365,1.365,0,0,0-.352-.039,1.263,1.263,0,0,0-.889.293,1.059,1.059,0,0,0-.318.82V0H-4.436V-4.367h.9l.176.734H-3.3a1.642,1.642,0,0,1,.549-.592A1.353,1.353,0,0,1-2-4.449ZM.846-.855a.805.805,0,0,0,.664-.26,1.55,1.55,0,0,0,.23-.908v-.145a1.786,1.786,0,0,0-.217-1.008.8.8,0,0,0-.7-.3q-.84,0-.84,1.32A1.836,1.836,0,0,0,.2-1.18.719.719,0,0,0,.846-.855ZM.42.078a1.419,1.419,0,0,1-1.211-.6,2.755,2.755,0,0,1-.437-1.658A2.752,2.752,0,0,1-.781-3.848a1.443,1.443,0,0,1,1.225-.6,1.58,1.58,0,0,1,.723.156,1.51,1.51,0,0,1,.543.484H1.74l.105-.559H2.854V1.922h-1.2V.09a5.783,5.783,0,0,1,.051-.656H1.658a1.268,1.268,0,0,1-.508.48A1.565,1.565,0,0,1,.42.078ZM7.193,0l-.16-.559H6.971a1.257,1.257,0,0,1-.543.471,1.854,1.854,0,0,1-.8.166,1.525,1.525,0,0,1-1.16-.412A1.658,1.658,0,0,1,4.076-1.52V-4.367H5.268v2.551a1.225,1.225,0,0,0,.168.709.611.611,0,0,0,.535.236.8.8,0,0,0,.723-.334,2.071,2.071,0,0,0,.223-1.107V-4.367H8.107V0Zm3.973-3.6a.756.756,0,0,0-.594.24,1.112,1.112,0,0,0-.246.682H12a.993.993,0,0,0-.23-.682A.78.78,0,0,0,11.166-3.6Zm.168,3.68A2.254,2.254,0,0,1,9.686-.5a2.2,2.2,0,0,1-.594-1.648,2.424,2.424,0,0,1,.549-1.7,1.954,1.954,0,0,1,1.518-.6,1.924,1.924,0,0,1,1.441.527,2,2,0,0,1,.516,1.457v.578H10.3a1.147,1.147,0,0,0,.3.793,1.058,1.058,0,0,0,.789.285,3.276,3.276,0,0,0,.746-.082,3.733,3.733,0,0,0,.734-.262V-.23A2.8,2.8,0,0,1,12.2,0,4.212,4.212,0,0,1,11.334.078Zm5.8-1.375a1.2,1.2,0,0,1-.467,1.023,2.306,2.306,0,0,1-1.4.352,4.386,4.386,0,0,1-.812-.064,3.073,3.073,0,0,1-.629-.189V-1.16a4.153,4.153,0,0,0,.748.262,3.029,3.029,0,0,0,.732.105q.648,0,.648-.375a.313.313,0,0,0-.086-.229,1.246,1.246,0,0,0-.3-.2q-.211-.111-.562-.26a3.534,3.534,0,0,1-.74-.391,1.1,1.1,0,0,1-.344-.412,1.36,1.36,0,0,1-.107-.572,1.037,1.037,0,0,1,.451-.9,2.2,2.2,0,0,1,1.279-.318,3.631,3.631,0,0,1,1.535.344l-.359.859q-.328-.141-.613-.23a1.926,1.926,0,0,0-.582-.09q-.527,0-.527.285a.335.335,0,0,0,.17.277,4.621,4.621,0,0,0,.744.348,3.457,3.457,0,0,1,.75.387,1.144,1.144,0,0,1,.352.414A1.272,1.272,0,0,1,17.131-1.3Z" transform="translate(668 362)" fill="#1e5aa5"/>
      </g>
    </g>
  </g>
</svg>
