<svg xmlns="http://www.w3.org/2000/svg" width="55" height="25" viewBox="0 0 36.473 16.247">
  <g id="Group_1145" data-name="Group 1145" transform="translate(-739.844 -390)">
    <g id="Group_1115" data-name="Group 1115" transform="translate(21 39)">
      <g id="Group_1109" data-name="Group 1109">
        <g id="Group_1106" data-name="Group 1106" transform="translate(666.429 319)" opacity="0.15">
          <path id="Path_999" data-name="Path 999" d="M171.191,78.383A3.191,3.191,0,1,0,168,75.191,3.195,3.195,0,0,0,171.191,78.383Zm-.611-3.834.611-1.238.611,1.238,1.366.2-.988.963.233,1.36-1.222-.642-1.222.642.233-1.36-.988-.963Z" transform="translate(-100.228 -38.549)" fill="#1e5aa5"/>
          <path id="Path_1000" data-name="Path 1000" d="M70.963,256.016a5.21,5.21,0,0,1-3.95-1.806L64,259.5h3.481l1.741,2.9,1.741-3.837,1.22-2.689A5.233,5.233,0,0,1,70.963,256.016Z" transform="translate(0 -214.152)" fill="#1e5aa5"/>
          <path id="Path_1001" data-name="Path 1001" d="M132.642,41.284A4.642,4.642,0,1,0,128,36.642,4.642,4.642,0,0,0,132.642,41.284Zm0-8.123a3.481,3.481,0,1,1-3.481,3.481A3.481,3.481,0,0,1,132.642,33.16Z" transform="translate(-61.679)" fill="#1e5aa5"/>
          <path id="Path_1002" data-name="Path 1002" d="M267.768,254.211a5.235,5.235,0,0,1-2.032,1.442l-1.623,3.557,1.446,3.189,1.741-2.9h3.481Z" transform="translate(-192.856 -214.153)" fill="#1e5aa5"/>
        </g>
        <path id="Path_1048" data-name="Path 1048" d="M-15.477-4.785a1.234,1.234,0,0,0-1.059.514A2.39,2.39,0,0,0-16.91-2.84q0,1.91,1.434,1.91a4.532,4.532,0,0,0,1.457-.3V-.215a4.046,4.046,0,0,1-1.57.293A2.4,2.4,0,0,1-17.5-.678a3.2,3.2,0,0,1-.66-2.17,3.543,3.543,0,0,1,.324-1.561A2.343,2.343,0,0,1-16.9-5.436a2.756,2.756,0,0,1,1.424-.357,3.843,3.843,0,0,1,1.672.4l-.391.984a6.466,6.466,0,0,0-.645-.266A1.923,1.923,0,0,0-15.477-4.785Zm3.527,2.594a1.833,1.833,0,0,0,.213.98.761.761,0,0,0,.693.332.749.749,0,0,0,.686-.33,1.859,1.859,0,0,0,.209-.982,1.8,1.8,0,0,0-.211-.973.763.763,0,0,0-.691-.324.76.76,0,0,0-.687.322A1.8,1.8,0,0,0-11.949-2.191Zm3.02,0A2.347,2.347,0,0,1-9.492-.523a2.04,2.04,0,0,1-1.566.6A2.191,2.191,0,0,1-12.168-.2a1.832,1.832,0,0,1-.738-.791,2.658,2.658,0,0,1-.258-1.2,2.334,2.334,0,0,1,.559-1.664,2.051,2.051,0,0,1,1.57-.594,2.2,2.2,0,0,1,1.109.273,1.825,1.825,0,0,1,.738.785A2.633,2.633,0,0,1-8.93-2.191ZM-3.914,0H-5.105V-2.551a1.225,1.225,0,0,0-.168-.709A.611.611,0,0,0-5.809-3.5a.8.8,0,0,0-.723.334,2.071,2.071,0,0,0-.223,1.107V0H-7.945V-4.367h.91l.16.559h.066a1.259,1.259,0,0,1,.549-.479,1.869,1.869,0,0,1,.795-.162,1.527,1.527,0,0,1,1.156.412,1.654,1.654,0,0,1,.395,1.189Zm3,.078q-2.039,0-2.039-2.238a2.388,2.388,0,0,1,.555-1.7,2.081,2.081,0,0,1,1.59-.588,3.031,3.031,0,0,1,1.359.3L.2-3.23q-.281-.113-.523-.186a1.687,1.687,0,0,0-.484-.072q-.93,0-.93,1.32,0,1.281.93,1.281A2.12,2.12,0,0,0-.172-.979a2.3,2.3,0,0,0,.586-.287v1.02A1.92,1.92,0,0,1-.17.008,3.284,3.284,0,0,1-.914.078Zm3.289-2.27a1.833,1.833,0,0,0,.213.98.761.761,0,0,0,.693.332.749.749,0,0,0,.686-.33,1.859,1.859,0,0,0,.209-.982,1.8,1.8,0,0,0-.211-.973.763.763,0,0,0-.691-.324.76.76,0,0,0-.687.322A1.8,1.8,0,0,0,2.375-2.191Zm3.02,0A2.347,2.347,0,0,1,4.832-.523a2.04,2.04,0,0,1-1.566.6A2.191,2.191,0,0,1,2.156-.2a1.832,1.832,0,0,1-.738-.791,2.658,2.658,0,0,1-.258-1.2,2.334,2.334,0,0,1,.559-1.664,2.051,2.051,0,0,1,1.57-.594A2.2,2.2,0,0,1,4.4-4.176a1.825,1.825,0,0,1,.738.785A2.633,2.633,0,0,1,5.395-2.191ZM9.473,0l-.16-.559H9.25a1.257,1.257,0,0,1-.543.471,1.854,1.854,0,0,1-.8.166,1.525,1.525,0,0,1-1.16-.412A1.658,1.658,0,0,1,6.355-1.52V-4.367H7.547v2.551a1.225,1.225,0,0,0,.168.709.611.611,0,0,0,.535.236.8.8,0,0,0,.723-.334A2.071,2.071,0,0,0,9.2-2.312V-4.367h1.191V0Zm4.6-4.449a1.921,1.921,0,0,1,.4.035L14.387-3.3a1.365,1.365,0,0,0-.352-.039,1.263,1.263,0,0,0-.889.293,1.059,1.059,0,0,0-.318.82V0H11.637V-4.367h.9l.176.734h.059a1.642,1.642,0,0,1,.549-.592A1.353,1.353,0,0,1,14.074-4.449ZM18.316-1.3A1.2,1.2,0,0,1,17.85-.273a2.306,2.306,0,0,1-1.4.352,4.386,4.386,0,0,1-.812-.064,3.073,3.073,0,0,1-.629-.189V-1.16A4.153,4.153,0,0,0,15.76-.9a3.029,3.029,0,0,0,.732.105q.648,0,.648-.375a.313.313,0,0,0-.086-.229,1.246,1.246,0,0,0-.3-.2q-.211-.111-.562-.26a3.534,3.534,0,0,1-.74-.391,1.1,1.1,0,0,1-.344-.412A1.36,1.36,0,0,1,15-3.23a1.037,1.037,0,0,1,.451-.9,2.2,2.2,0,0,1,1.279-.318,3.631,3.631,0,0,1,1.535.344l-.359.859q-.328-.141-.613-.23a1.926,1.926,0,0,0-.582-.09q-.527,0-.527.285a.335.335,0,0,0,.17.277,4.621,4.621,0,0,0,.744.348,3.457,3.457,0,0,1,.75.387,1.144,1.144,0,0,1,.352.414A1.272,1.272,0,0,1,18.316-1.3Z" transform="translate(737 362)" fill="#1e5aa5"/>
      </g>
    </g>
  </g>
</svg>
