<svg id="Group_1352" data-name="Group 1352" xmlns="http://www.w3.org/2000/svg" width="89.903" height="103.774" viewBox="0 0 89.903 103.774">
  <path id="Path_1135" data-name="Path 1135" d="M117.576,51.867c-23.757,0-43.157-12.7-44.792-27.7a18.156,18.156,0,0,0-.161,2.03c0,15.869,20.125,29.887,44.953,29.887s44.95-14.018,44.95-29.887a18.787,18.787,0,0,0-.161-2.03c-1.636,15-21.035,27.7-44.79,27.7" transform="translate(-72.623 28.079)" fill="#1a1818"/>
  <path id="Path_1136" data-name="Path 1136" d="M117.576,15.86c23.754,0,43.154,13.186,44.79,28.762a20.306,20.306,0,0,0,.161-2.107c0-16.476-20.125-31.033-44.95-31.033S72.623,26.039,72.623,42.515a19.622,19.622,0,0,0,.161,2.107C74.419,29.046,93.819,15.86,117.576,15.86" transform="translate(-72.623 7.885)" fill="#1a1818"/>
  <path id="Path_1137" data-name="Path 1137" d="M99.524,40.965a1.084,1.084,0,0,1,1.076,1.1c0,.982-1.672,2.7-4.057,4.132a16.122,16.122,0,0,1-8.2,2.245c-8.119,0-14.166-6.25-14.166-14.589A15.65,15.65,0,0,1,90.254,17.913c3.9,0,8.155,1.475,9.985,3.435a2.792,2.792,0,0,1,.638,1.677,5.773,5.773,0,0,1-1.428,3.025c-.92,1.226-1.949,2.04-2.548,2.04a.778.778,0,0,1-.638-.285,1.066,1.066,0,0,1-.438-.938.834.834,0,0,1,.08-.412l.238-.772a.676.676,0,0,0,.119-.451c0-2-3.183-3.678-7.045-3.678-5.809,0-9.749,4.212-9.749,10.462,0,6.742,4.974,12.056,11.465,12.056a11.375,11.375,0,0,0,5.052-1.1l3.144-1.877a.655.655,0,0,1,.394-.124" transform="translate(-70.147 18.125)" fill="#1a1818"/>
  <path id="Path_1138" data-name="Path 1138" d="M97.62,44.282c-7.24,0-12.492-5.316-12.492-12.644,0-7.271,5.166-12.546,12.287-12.546,7.139,0,12.318,5.332,12.318,12.678,0,7.25-5.094,12.512-12.113,12.512m-.342-22.111A5.3,5.3,0,0,0,92.614,24.7a14.429,14.429,0,0,0-1.742,6.846c0,5.638,2.794,9.728,6.644,9.728,3.87,0,6.47-3.673,6.47-9.14,0-6.143-2.569-9.959-6.708-9.959" transform="translate(-52.713 20.002)" fill="#1a1818"/>
  <path id="Path_1139" data-name="Path 1139" d="M114.682,36.188c.754,1.187,1.395,2.209,1.91,3.069,1.4,2.162,2.232,3.393,2.429,3.8a4.555,4.555,0,0,0,1.4,1.636l1.636.858a1.172,1.172,0,0,1,.715,1.141c0,.944-.715,1.351-2.431,1.351a11.911,11.911,0,0,1-3.984-.734c-1.351-.534-2.354-1.555-3.665-3.924L109.14,37.09a8.29,8.29,0,0,0-1.039-1.433,7.606,7.606,0,0,0-.754-.858,3.6,3.6,0,0,0-2.232-.772c-.233,0-.638.041-1.115.078v7.03c0,2.33.435,3.435,1.555,3.839l1.636.578a1.232,1.232,0,0,1,.876,1.141c0,.9-.679,1.351-1.874,1.351-.441,0-.915-.041-1.351-.083a20.935,20.935,0,0,0-3.51-.285,31.729,31.729,0,0,0-3.227.166c-.6.039-1.115.119-1.594.119-1.516,0-2.154-.41-2.154-1.268,0-.568.358-.9,1.076-1.185.8-.285,1.275-.49,1.436-.534a2.771,2.771,0,0,0,.876-.731c.48-.573.679-1.431.679-3.4v-16.3A13.65,13.65,0,0,0,98.3,22.7c-.078-.692.187-1.389-.687-1.675l-1.353-.49a1.324,1.324,0,0,1-1.039-1.268c0-.9.677-1.265,2.113-1.265a6.264,6.264,0,0,1,.728.08,33.4,33.4,0,0,0,3.906.246c1.034,0,2.431-.083,4.1-.2,1.514-.124,2.709-.166,3.707-.166,5.5,0,9.285,3.144,9.285,7.888a6.818,6.818,0,0,1-2.512,5.438,9.655,9.655,0,0,1-5.057,2.162,5.081,5.081,0,0,1,3.188,2.737m-10.641-5.024,1.236.041c.521.036.957.036,1.392.036,2.434,0,3.7-.407,4.824-1.548a5.128,5.128,0,0,0,1.514-3.722,4.993,4.993,0,0,0-5.143-5.148c-2.792,0-3.823,1.351-3.823,5.026Z" transform="translate(-38.019 18.204)" fill="#1a1818"/>
  <path id="Path_1140" data-name="Path 1140" d="M89.348,16.685v8.137h1.726V15.713a1.327,1.327,0,0,0-.3-.85.674.674,0,0,0-.575-.34H86.792a3.293,3.293,0,0,1-.817-.277,2.02,2.02,0,0,1-.337-.189l-.518,2.128a1.1,1.1,0,0,0,.35.332.936.936,0,0,0,.537.171c.031,0,.06,0,.111,0Z" transform="translate(-52.726 11.985)" fill="#1a1818"/>
  <path id="Path_1141" data-name="Path 1141" d="M88.6,16.561l1.444,8.6a8.665,8.665,0,0,0,5.736-2.958,16.521,16.521,0,0,0,2.857-6.561l-2.081-1.5-.747,1.939.892.55-.049.2a8.952,8.952,0,0,1-1.905,3.844,6.412,6.412,0,0,1-3.331,2.338l-.283.088-1.332-8-1.376-1.024-.651,1.667Zm3.912,3.766a9.11,9.11,0,0,0,1.268-2.061,11.175,11.175,0,0,0,.894-2.45l-2.087-1.729-.842,1.737,1.016.853-1.382,2.551Z" transform="translate(-48.502 12.035)" fill="#1a1818"/>
  <path id="Path_1142" data-name="Path 1142" d="M96.46,16.814c.228.161.2,1.244.207,2.39a8.191,8.191,0,0,1-.137,2.768,2.183,2.183,0,0,1-1.234.6,18.927,18.927,0,0,1-3.129.485l.319,1.962s3.945-1.006,4.448-1.141a2.121,2.121,0,0,0,1.008-.433c.184-.241.259-.3.29-.964s-.062-6.654-.062-6.654a1.388,1.388,0,0,0-.389-.982c-.29-.314-.69-.334-1.382-.358s-2.115-.023-2.115-.023A1.857,1.857,0,0,1,93.7,14.3a3.189,3.189,0,0,1-.28-.166l-.9,1.926a2.221,2.221,0,0,0,.568.386,5.351,5.351,0,0,0,1.288.166c.635.039,1.511-.2,2.084.2" transform="translate(-41.506 12.111)" fill="#1a1818"/>
  <path id="Path_1143" data-name="Path 1143" d="M84.055,4.905l6.41-.658c3.847-.394,7,1.851,7.535,7.045.467,4.534-1.392,8.137-5.928,8.6l-6.408.658Zm4.58,12.419,2.914-.3c1.892-.194,3.577-1.607,3.219-5.07C94.444,8.8,93.2,6.891,89.952,7.225l-2.333.236Z" transform="translate(-54.422 -3.704)" fill="#1a1818"/>
  <path id="Path_1144" data-name="Path 1144" d="M92.183,4.01l11.131,1.12-.29,2.891L95.161,7.23l-.337,3.354,7.211.723-.27,2.675-7.211-.726-.389,3.837,8.025.8-.293,2.9L90.6,19.654Z" transform="translate(-43.999 -4.01)" fill="#1a1818"/>
  <path id="Path_1145" data-name="Path 1145" d="M86.563,37.714l11.151.7-.179,2.9-7.872-.495-.207,3.367,7.227.451-.163,2.683L89.3,46.867l-.236,3.852,8.038.5-.176,2.9-11.32-.7Z" transform="translate(-51.96 49.651)" fill="#1a1818"/>
  <path id="Path_1146" data-name="Path 1146" d="M91.165,38.137l3.269-.334,1.312,12.753,7.24-.744.3,2.893L92.774,53.783Z" transform="translate(-43.102 49.791)" fill="#1a1818"/>
  <path id="Path_1147" data-name="Path 1147" d="M85.107,40.369a4.889,4.889,0,0,1,1.483-3.507,18.983,18.983,0,0,1,2.476-1.84c.723-.531,1.239-1.045,1.239-1.752a1.188,1.188,0,0,0-1.226-1.317c-1.221,0-1.563.982-1.576,2.131H85.338C85.2,31.467,86.7,29.7,89.065,29.7a3.253,3.253,0,0,1,3.551,3.339c0,2.024-1.3,2.779-2.693,3.73a8.582,8.582,0,0,0-1.716,1.42h4.508v2.177Z" transform="translate(-52.747 36.894)" fill="#1a1818"/>
  <path id="Path_1148" data-name="Path 1148" d="M96.11,35.766v2.177H94.871v2.341H92.559V37.944h-4.15v-2.4l4.246-5.786h2.216v6.011Zm-3.484,0v-3.4H92.6l-2.4,3.4Z" transform="translate(-47.489 36.979)" fill="#1a1818"/>
  <path id="Path_1149" data-name="Path 1149" d="M93.527,34.78v-.031A2.08,2.08,0,0,1,92.112,32.6c0-2.087,1.931-2.9,3.523-2.9,1.62,0,3.484.814,3.484,2.916a2.121,2.121,0,0,1-1.4,2.131v.031A2.337,2.337,0,0,1,99.5,37.271c0,2.328-2,3.235-3.878,3.235S91.7,39.734,91.7,37.271a2.424,2.424,0,0,1,1.822-2.491m.49,2.356a1.589,1.589,0,0,0,3.17,0,1.457,1.457,0,0,0-1.563-1.511,1.476,1.476,0,0,0-1.607,1.511m.15-4.337c0,.936.734,1.239,1.444,1.239A1.288,1.288,0,0,0,97.066,32.8c0-.863-.708-1.211-1.454-1.211-.765,0-1.444.332-1.444,1.211" transform="translate(-42.242 36.894)" fill="#1a1818"/>
</svg>
