<svg id="Group_1351" data-name="Group 1351" xmlns="http://www.w3.org/2000/svg" width="89.903" height="103.481" viewBox="0 0 89.903 103.481">
  <g id="Group_1350" data-name="Group 1350" transform="translate(0 0)">
    <path id="Path_1115" data-name="Path 1115" d="M178.347,51.892c-23.757,0-43.157-12.7-44.792-27.7a18.259,18.259,0,0,0-.161,2.03c0,15.872,20.125,29.89,44.953,29.89S223.3,42.091,223.3,26.22a18.9,18.9,0,0,0-.161-2.03c-1.636,15-21.035,27.7-44.79,27.7" transform="translate(-133.394 27.972)" fill="#fff"/>
    <path id="Path_1116" data-name="Path 1116" d="M178.347,15.884c23.754,0,43.154,13.189,44.79,28.762a20.319,20.319,0,0,0,.161-2.107c0-16.476-20.125-31.033-44.95-31.033s-44.953,14.557-44.953,31.033a19.627,19.627,0,0,0,.161,2.107c1.636-15.574,21.035-28.762,44.792-28.762" transform="translate(-133.394 7.778)" fill="#fff"/>
    <path id="Path_1117" data-name="Path 1117" d="M160.294,40.99a1.084,1.084,0,0,1,1.076,1.1c0,.982-1.672,2.7-4.057,4.132a16.122,16.122,0,0,1-8.2,2.245c-8.119,0-14.166-6.25-14.166-14.589a15.65,15.65,0,0,1,16.076-15.942c3.9,0,8.155,1.475,9.985,3.435a2.792,2.792,0,0,1,.638,1.677,5.773,5.773,0,0,1-1.428,3.025c-.92,1.226-1.949,2.04-2.548,2.04a.778.778,0,0,1-.638-.285,1.066,1.066,0,0,1-.438-.938.834.834,0,0,1,.08-.412l.238-.772a.676.676,0,0,0,.119-.451c0-2-3.183-3.678-7.045-3.678-5.809,0-9.749,4.212-9.749,10.462,0,6.742,4.974,12.056,11.465,12.056a11.375,11.375,0,0,0,5.052-1.1l3.144-1.877a.655.655,0,0,1,.394-.124" transform="translate(-130.92 18.018)" fill="#fff"/>
    <path id="Path_1118" data-name="Path 1118" d="M158.39,44.307c-7.24,0-12.492-5.316-12.492-12.644,0-7.271,5.166-12.546,12.287-12.546,7.136,0,12.318,5.332,12.318,12.678,0,7.25-5.1,12.512-12.113,12.512M158.047,22.2a5.3,5.3,0,0,0-4.663,2.525,14.43,14.43,0,0,0-1.742,6.846c0,5.638,2.794,9.728,6.644,9.728,3.87,0,6.47-3.673,6.47-9.14,0-6.143-2.571-9.959-6.708-9.959" transform="translate(-113.486 19.896)" fill="#fff"/>
    <path id="Path_1119" data-name="Path 1119" d="M175.453,36.213c.754,1.187,1.395,2.209,1.91,3.069,1.4,2.162,2.232,3.393,2.429,3.8a4.554,4.554,0,0,0,1.4,1.636l1.636.858a1.172,1.172,0,0,1,.715,1.141c0,.944-.715,1.351-2.431,1.351a11.911,11.911,0,0,1-3.984-.734c-1.35-.534-2.354-1.555-3.665-3.924l-3.549-6.294a8.29,8.29,0,0,0-1.039-1.433,7.614,7.614,0,0,0-.754-.858,3.6,3.6,0,0,0-2.232-.772c-.233,0-.638.041-1.115.078v7.03c0,2.33.435,3.435,1.555,3.839l1.636.578a1.232,1.232,0,0,1,.876,1.141c0,.9-.679,1.351-1.874,1.351-.441,0-.915-.041-1.35-.083a20.935,20.935,0,0,0-3.51-.285,31.725,31.725,0,0,0-3.227.166c-.6.039-1.115.119-1.594.119-1.516,0-2.154-.41-2.154-1.268,0-.568.358-.9,1.076-1.185.8-.285,1.275-.49,1.436-.534a2.771,2.771,0,0,0,.876-.731c.48-.573.679-1.431.679-3.4v-16.3a13.651,13.651,0,0,0-.122-1.843c-.078-.692.187-1.389-.687-1.675l-1.353-.49a1.324,1.324,0,0,1-1.039-1.268c0-.9.677-1.265,2.113-1.265a6.262,6.262,0,0,1,.728.08,33.4,33.4,0,0,0,3.906.246c1.034,0,2.431-.083,4.1-.2,1.514-.124,2.709-.166,3.707-.166,5.5,0,9.285,3.144,9.285,7.888a6.818,6.818,0,0,1-2.512,5.438,9.654,9.654,0,0,1-5.057,2.162,5.081,5.081,0,0,1,3.188,2.737M164.812,31.19l1.236.041c.521.036.957.036,1.392.036,2.434,0,3.7-.407,4.824-1.548A5.128,5.128,0,0,0,173.778,26a4.993,4.993,0,0,0-5.143-5.148c-2.792,0-3.823,1.351-3.823,5.026Z" transform="translate(-98.79 18.098)" fill="#fff"/>
    <path id="Path_1120" data-name="Path 1120" d="M150.118,16.71v8.137h1.726V15.738a1.327,1.327,0,0,0-.3-.85.674.674,0,0,0-.575-.34h-3.409a3.291,3.291,0,0,1-.817-.277,2.02,2.02,0,0,1-.337-.189l-.518,2.128a1.1,1.1,0,0,0,.35.332.936.936,0,0,0,.537.171c.031,0,.06,0,.111,0Z" transform="translate(-113.499 11.879)" fill="#fff"/>
    <path id="Path_1121" data-name="Path 1121" d="M149.371,16.586l1.444,8.6a8.665,8.665,0,0,0,5.736-2.958,16.521,16.521,0,0,0,2.857-6.561l-2.081-1.5-.747,1.939.892.55-.049.2a8.952,8.952,0,0,1-1.905,3.844,6.412,6.412,0,0,1-3.331,2.338l-.283.088-1.332-8-1.376-1.024-.651,1.667Zm3.911,3.766a9.108,9.108,0,0,0,1.268-2.061,11.171,11.171,0,0,0,.894-2.45l-2.087-1.729-.842,1.737,1.016.853-1.382,2.551Z" transform="translate(-109.273 11.928)" fill="#fff"/>
    <path id="Path_1122" data-name="Path 1122" d="M157.23,16.838c.228.161.2,1.247.207,2.393A8.2,8.2,0,0,1,157.3,22a2.179,2.179,0,0,1-1.234.6,18.928,18.928,0,0,1-3.129.485l.319,1.965s3.945-1.008,4.448-1.143a2.121,2.121,0,0,0,1.008-.433c.184-.241.259-.3.29-.962s-.062-6.654-.062-6.654a1.39,1.39,0,0,0-.389-.985c-.29-.311-.689-.334-1.382-.358s-2.115-.021-2.115-.021a1.86,1.86,0,0,1-.581-.168,2.661,2.661,0,0,1-.28-.166l-.9,1.929a2.279,2.279,0,0,0,.568.384,5.187,5.187,0,0,0,1.288.168c.635.039,1.511-.2,2.084.2" transform="translate(-102.279 12.003)" fill="#fff"/>
    <path id="Path_1123" data-name="Path 1123" d="M143.393,6.29a7.374,7.374,0,0,1,2.688-.49,5.833,5.833,0,0,1,2.527.607,6.736,6.736,0,0,1,2.185,1.768,10.33,10.33,0,0,1,1.682,3.017,11.45,11.45,0,0,1,.721,3.118,7.165,7.165,0,0,1-.3,2.8,5.986,5.986,0,0,1-1.395,2.3,6.852,6.852,0,0,1-2.579,1.615l-6.04,2.266L137.359,8.556Zm4.287,12.087a3.866,3.866,0,0,0,1.208-.71,3.052,3.052,0,0,0,.835-1.174A4.12,4.12,0,0,0,150,14.831a6.858,6.858,0,0,0-.482-2.175,9.562,9.562,0,0,0-.959-1.936A4.421,4.421,0,0,0,147.3,9.437a3.284,3.284,0,0,0-1.615-.511,5.077,5.077,0,0,0-2.037.373l-2.193.824,3.479,9.285Z" transform="translate(-127.081 -1.307)" fill="#fff"/>
    <path id="Path_1124" data-name="Path 1124" d="M151.426,4.25l7.525,14.9-3.383.43L154,16.249l-5.545.705-.721,3.624-3.282.415,3.626-16.318Zm1.4,9.552-2.595-5.49-.041.005-1.2,5.97Z" transform="translate(-115.779 -3.775)" fill="#fff"/>
    <rect id="Rectangle_831" data-name="Rectangle 831" width="15.731" height="3.286" transform="translate(44.593 15.728) rotate(-88.848)" fill="#fff"/>
    <path id="Path_1125" data-name="Path 1125" d="M163.727,5.57a4.653,4.653,0,0,1,1.724.651,4.162,4.162,0,0,1,1.195,1.164,4.116,4.116,0,0,1,.625,1.509,4.64,4.64,0,0,1,.005,1.713,4.961,4.961,0,0,1-.967,2.268,3.542,3.542,0,0,1-2.053,1.2l-.008.044a2.557,2.557,0,0,1,.9.705,3.076,3.076,0,0,1,.487.959,4.249,4.249,0,0,1,.171,1.141,10.227,10.227,0,0,1-.054,1.2c-.031.246-.067.542-.114.876s-.08.677-.109,1.032a7.027,7.027,0,0,0-.01,1.016,2.343,2.343,0,0,0,.2.853l-3.235-.575a6.267,6.267,0,0,1-.018-1.814c.08-.69.132-1.351.161-1.988a3.184,3.184,0,0,0-.384-1.9,2.376,2.376,0,0,0-1.651-.876l-3.235-.575-1.076,6.053-3.235-.573L155.79,4.16Zm-2.4,6.8a2.409,2.409,0,0,0,1.763-.226,2.262,2.262,0,0,0,.858-1.592,2.162,2.162,0,0,0-.267-1.737,2.436,2.436,0,0,0-1.579-.809l-3.543-.63-.775,4.363Z" transform="translate(-102.112 -3.918)" fill="#fff"/>
    <path id="Path_1126" data-name="Path 1126" d="M160.843,5.347l3.4,1.434.806,7.082,5.615-4.375,3.378,1.423-8.878,6.778-2.343,5.563-3.03-1.276,2.38-5.646Z" transform="translate(-91.374 -2.029)" fill="#fff"/>
    <path id="Path_1127" data-name="Path 1127" d="M144.257,35.644,137.9,46.777l6.322,3.614-1.441,2.525L133.6,47.672l7.8-13.658Z" transform="translate(-133.068 43.613)" fill="#fff"/>
    <path id="Path_1128" data-name="Path 1128" d="M151.42,37.588l.938,16.67-3.274-.959-.1-3.681-5.361-1.571-2.113,3.03-3.173-.928,9.845-13.508ZM148.884,46.9l-.184-6.071-.039-.013-3.494,5Z" transform="translate(-125.524 47.798)" fill="#fff"/>
    <rect id="Rectangle_832" data-name="Rectangle 832" width="15.732" height="3.286" transform="translate(30.465 102.387) rotate(-82.149)" fill="#fff"/>
    <path id="Path_1129" data-name="Path 1129" d="M147.918,40.791l.036-2.908,12.243.153-.034,2.909-4.479-.057-.158,12.821-3.287-.039.161-12.823Z" transform="translate(-110.269 49.774)" fill="#fff"/>
    <rect id="Rectangle_833" data-name="Rectangle 833" width="3.288" height="15.733" transform="translate(51.78 87.447) rotate(-6.366)" fill="#fff"/>
    <path id="Path_1130" data-name="Path 1130" d="M166.589,36.494l.721,2.818-7.647,1.955.835,3.269,7.017-1.8.666,2.605-7.017,1.791.954,3.738,7.808-2,.721,2.817L159.655,54.5l-3.9-15.242Z" transform="translate(-97.786 47.562)" fill="#fff"/>
    <path id="Path_1131" data-name="Path 1131" d="M167.714,35.177a4.641,4.641,0,0,1,1.757-.552,4.176,4.176,0,0,1,1.662.179,4.1,4.1,0,0,1,1.423.8,4.638,4.638,0,0,1,1.06,1.345,4.9,4.9,0,0,1,.64,2.38,3.516,3.516,0,0,1-.871,2.211l.021.041a2.487,2.487,0,0,1,1.141,0,2.932,2.932,0,0,1,.975.454,4.122,4.122,0,0,1,.837.788,10.53,10.53,0,0,1,.7.977c.13.213.277.467.451.757s.353.586.552.879a7.214,7.214,0,0,0,.619.809,2.313,2.313,0,0,0,.684.547l-2.9,1.545a6.444,6.444,0,0,1-1.133-1.415c-.363-.591-.728-1.146-1.1-1.662A3.192,3.192,0,0,0,172.753,44a2.36,2.36,0,0,0-1.84.329l-2.9,1.548L170.9,51.3,168,52.852l-7.4-13.883Zm2.315,6.833a2.4,2.4,0,0,0,1.244-1.265,2.255,2.255,0,0,0-.308-1.783,2.154,2.154,0,0,0-1.281-1.2,2.447,2.447,0,0,0-1.739.342l-3.175,1.7,2.081,3.906Z" transform="translate(-90.077 44.558)" fill="#fff"/>
    <path id="Path_1132" data-name="Path 1132" d="M145.877,40.394a4.889,4.889,0,0,1,1.483-3.507,18.983,18.983,0,0,1,2.476-1.84c.723-.531,1.239-1.045,1.239-1.752a1.188,1.188,0,0,0-1.226-1.317c-1.221,0-1.563.982-1.576,2.131h-2.164c-.135-2.615,1.361-4.381,3.728-4.381a3.254,3.254,0,0,1,3.551,3.339c0,2.024-1.3,2.779-2.693,3.73a8.582,8.582,0,0,0-1.716,1.42h4.508v2.177Z" transform="translate(-113.519 36.788)" fill="#fff"/>
    <path id="Path_1133" data-name="Path 1133" d="M156.88,35.791v2.177h-1.239v2.341h-2.312V37.969h-4.15v-2.4l4.246-5.786h2.216v6.011Zm-3.484,0v-3.4h-.029l-2.4,3.4Z" transform="translate(-108.262 36.873)" fill="#fff"/>
    <path id="Path_1134" data-name="Path 1134" d="M154.3,34.8v-.031a2.08,2.08,0,0,1-1.415-2.146c0-2.087,1.931-2.9,3.523-2.9,1.62,0,3.484.814,3.484,2.916a2.121,2.121,0,0,1-1.4,2.131V34.8a2.337,2.337,0,0,1,1.783,2.491c0,2.328-2,3.235-3.878,3.235s-3.919-.772-3.919-3.235A2.424,2.424,0,0,1,154.3,34.8m.49,2.356a1.589,1.589,0,0,0,3.17,0,1.457,1.457,0,0,0-1.563-1.511,1.476,1.476,0,0,0-1.607,1.511m.15-4.337c0,.936.734,1.239,1.444,1.239a1.288,1.288,0,0,0,1.454-1.239c0-.863-.708-1.211-1.454-1.211-.765,0-1.444.332-1.444,1.211" transform="translate(-103.014 36.788)" fill="#fff"/>
  </g>
</svg>
