<svg xmlns="http://www.w3.org/2000/svg" width="24" height="24" viewBox="0 0 24 24">
  <path id="Subtraction_1" data-name="Subtraction 1" d="M5167,24a12,12,0,0,1-8.485-20.485,12,12,0,1,1,16.97,16.97A11.919,11.919,0,0,1,5167,24Zm-.226-14.91a1.644,1.644,0,0,0-1.436,1.82,2.628,2.628,0,0,0,.173.95c.008.021.014.039.02.055-.045.2-.2.848-.368,1.534l-.03.125c-.185.762-.37,1.525-.417,1.74l0,.013c0,.015-.006.035-.01.057-.352,2.007-.083,2.5.2,2.562a.368.368,0,0,0,.091.012c.655,0,1.28-1.885,1.345-2.214,0-.009.228-.9.335-1.388a2.19,2.19,0,0,0,1.484.574,3.255,3.255,0,0,0,2.632-1.34,5.365,5.365,0,0,0,1.006-3.256,3.923,3.923,0,0,0-1.2-2.585A4.269,4.269,0,0,0,5167.54,6.6,4.824,4.824,0,0,0,5164,7.99a3.989,3.989,0,0,0-1.2,2.824,2.645,2.645,0,0,0,1.436,2.633.287.287,0,0,0,.191.048.4.4,0,0,0,.382-.335,1.77,1.77,0,0,0,.083-.291c.022-.094.042-.177.062-.237a.534.534,0,0,0-.144-.525,1.75,1.75,0,0,1-.382-1.149,2.859,2.859,0,0,1,2.969-2.872,2.206,2.206,0,0,1,2.489,2.25,4.921,4.921,0,0,1-.528,2.3,1.565,1.565,0,0,1-1.292.911.721.721,0,0,1-.669-.335.831.831,0,0,1-.144-.671,5.814,5.814,0,0,1,.233-.843l.006-.018c.032-.117.067-.235.1-.349l.007-.025a4.211,4.211,0,0,0,.228-1.063A1.056,1.056,0,0,0,5166.774,9.091Z" transform="translate(-5155)" fill="#fff"/>
</svg>
