<svg xmlns="http://www.w3.org/2000/svg" width="51" height="30" viewBox="0 0 33.473 18.247">
  <g id="Group_1144" data-name="Group 1144" transform="translate(-784.471 -388)">
    <g id="Group_1116" data-name="Group 1116" transform="translate(31 39)">
      <g id="Group_1110" data-name="Group 1110">
        <g id="Group_1107" data-name="Group 1107" transform="translate(729.747 318.267)" opacity="0.15">
          <path id="Path_1029" data-name="Path 1029" d="M63.239,32.313l-1.389-1.389a.657.657,0,0,0-.926,0l-2.161,2.16-.232.232-2.16,2.16a.657.657,0,0,0,0,.926l.2.2-.833.833c-1.191-.223-3.15.764-4.494,2.108a4.642,4.642,0,0,0-1.383,2.271h.507A4.442,4.442,0,0,1,51.6,39.894a6.451,6.451,0,0,1,3.8-2,7.814,7.814,0,0,0-.781.5,21.062,21.062,0,0,0-2.431,2.092,14.566,14.566,0,0,0-1.192,1.333h.629c.239-.284.536-.611.911-.986a15.726,15.726,0,0,1,3.226-2.579l.149.149a15.72,15.72,0,0,1-2.58,3.225c-.066.066-.13.129-.193.191h.694a20.715,20.715,0,0,0,1.937-2.273,7.8,7.8,0,0,0,.5-.781,5.722,5.722,0,0,1-1.345,3.054h.613a5.128,5.128,0,0,0,1.184-3.4l.833-.833.2.2a.657.657,0,0,0,.926,0l2.16-2.161.231-.231,2.161-2.161A.655.655,0,0,0,63.239,32.313Z" transform="translate(-13.413)" fill="#1e5aa5"/>
          <path id="Path_1030" data-name="Path 1030" d="M39.3,78.619a8.166,8.166,0,0,0,8.042-6.757H31.253A8.166,8.166,0,0,0,39.3,78.619Zm-1.349-1.084s-4.259-.638-5.388-4.665H34.3A5.7,5.7,0,0,0,37.946,77.535Z" transform="translate(0 -29.64)" fill="#1e5aa5"/>
        </g>
        <path id="Path_1049" data-name="Path 1049" d="M-15.318-3.176h.391a1.494,1.494,0,0,0,.848-.191.683.683,0,0,0,.273-.6.625.625,0,0,0-.279-.578,1.7,1.7,0,0,0-.865-.172h-.367Zm0,.984V0h-1.211V-5.711h1.664a2.848,2.848,0,0,1,1.723.424A1.513,1.513,0,0,1-12.584-4a1.515,1.515,0,0,1-.277.9,1.835,1.835,0,0,1-.785.615Q-12.357-.562-11.967,0h-1.344l-1.363-2.191ZM-9.533-3.6a.756.756,0,0,0-.594.24,1.112,1.112,0,0,0-.246.682H-8.7a.993.993,0,0,0-.23-.682A.78.78,0,0,0-9.533-3.6Zm.168,3.68A2.254,2.254,0,0,1-11.014-.5a2.2,2.2,0,0,1-.594-1.648,2.424,2.424,0,0,1,.549-1.7,1.954,1.954,0,0,1,1.518-.6A1.924,1.924,0,0,1-8.1-3.922a2,2,0,0,1,.516,1.457v.578H-10.4a1.147,1.147,0,0,0,.3.793,1.058,1.058,0,0,0,.789.285,3.276,3.276,0,0,0,.746-.082,3.733,3.733,0,0,0,.734-.262V-.23A2.8,2.8,0,0,1-8.5,0,4.212,4.212,0,0,1-9.365.078Zm4.523,0q-2.039,0-2.039-2.238a2.388,2.388,0,0,1,.555-1.7,2.081,2.081,0,0,1,1.59-.588,3.031,3.031,0,0,1,1.359.3l-.352.922q-.281-.113-.523-.186a1.687,1.687,0,0,0-.484-.072q-.93,0-.93,1.32,0,1.281.93,1.281A2.12,2.12,0,0,0-4.1-.979a2.3,2.3,0,0,0,.586-.287v1.02A1.92,1.92,0,0,1-4.1.008,3.284,3.284,0,0,1-4.842.078ZM-.693-3.6a.756.756,0,0,0-.594.24,1.112,1.112,0,0,0-.246.682H.139a.993.993,0,0,0-.23-.682A.78.78,0,0,0-.693-3.6ZM-.525.078A2.254,2.254,0,0,1-2.174-.5a2.2,2.2,0,0,1-.594-1.648,2.424,2.424,0,0,1,.549-1.7A1.954,1.954,0,0,1-.7-4.449,1.924,1.924,0,0,1,.74-3.922a2,2,0,0,1,.516,1.457v.578H-1.561a1.147,1.147,0,0,0,.3.793,1.058,1.058,0,0,0,.789.285A3.276,3.276,0,0,0,.275-.891a3.733,3.733,0,0,0,.734-.262V-.23A2.8,2.8,0,0,1,.342,0,4.212,4.212,0,0,1-.525.078Zm4.59-.949a2.583,2.583,0,0,0,.75-.137v.887a2.674,2.674,0,0,1-1.094.2A1.339,1.339,0,0,1,2.68-.283a1.573,1.573,0,0,1-.326-1.084V-3.473h-.57v-.5l.656-.4L2.783-5.3h.762v.93H4.768v.895H3.545v2.105a.465.465,0,0,0,.143.375A.563.563,0,0,0,4.064-.871Zm3.473,0a2.583,2.583,0,0,0,.75-.137v.887a2.674,2.674,0,0,1-1.094.2A1.339,1.339,0,0,1,6.152-.283a1.573,1.573,0,0,1-.326-1.084V-3.473h-.57v-.5l.656-.4L6.256-5.3h.762v.93H8.24v.895H7.018v2.105a.465.465,0,0,0,.143.375A.563.563,0,0,0,7.537-.871ZM10.979-3.6a.756.756,0,0,0-.594.24,1.112,1.112,0,0,0-.246.682h1.672a.993.993,0,0,0-.23-.682A.78.78,0,0,0,10.979-3.6Zm.168,3.68A2.254,2.254,0,0,1,9.5-.5,2.2,2.2,0,0,1,8.9-2.152a2.424,2.424,0,0,1,.549-1.7,1.954,1.954,0,0,1,1.518-.6,1.924,1.924,0,0,1,1.441.527,2,2,0,0,1,.516,1.457v.578H10.111a1.147,1.147,0,0,0,.3.793,1.058,1.058,0,0,0,.789.285,3.276,3.276,0,0,0,.746-.082,3.733,3.733,0,0,0,.734-.262V-.23A2.8,2.8,0,0,1,12.014,0,4.212,4.212,0,0,1,11.146.078Zm5.8-1.375a1.2,1.2,0,0,1-.467,1.023,2.306,2.306,0,0,1-1.4.352,4.386,4.386,0,0,1-.812-.064,3.073,3.073,0,0,1-.629-.189V-1.16a4.153,4.153,0,0,0,.748.262,3.029,3.029,0,0,0,.732.105q.648,0,.648-.375a.313.313,0,0,0-.086-.229,1.246,1.246,0,0,0-.3-.2q-.211-.111-.562-.26a3.534,3.534,0,0,1-.74-.391,1.1,1.1,0,0,1-.344-.412,1.36,1.36,0,0,1-.107-.572,1.037,1.037,0,0,1,.451-.9,2.2,2.2,0,0,1,1.279-.318,3.631,3.631,0,0,1,1.535.344l-.359.859q-.328-.141-.613-.23a1.926,1.926,0,0,0-.582-.09q-.527,0-.527.285a.335.335,0,0,0,.17.277,4.621,4.621,0,0,0,.744.348,3.457,3.457,0,0,1,.75.387,1.144,1.144,0,0,1,.352.414A1.272,1.272,0,0,1,16.943-1.3Z" transform="translate(770 362)" fill="#1e5aa5"/>
      </g>
    </g>
  </g>
</svg>
