<svg xmlns="http://www.w3.org/2000/svg" width="24" height="24" viewBox="0 0 24 24">
  <path id="Path_460" data-name="Path 460" d="M936,732a12,12,0,1,0,12,12A12,12,0,0,0,936,732Zm5.479,9.356c.005.118.008.237.008.356a7.783,7.783,0,0,1-7.837,7.837h0a7.8,7.8,0,0,1-4.222-1.237,5.718,5.718,0,0,0,.657.038,5.525,5.525,0,0,0,3.421-1.179,2.76,2.76,0,0,1-2.573-1.913,2.742,2.742,0,0,0,1.244-.047,2.757,2.757,0,0,1-2.21-2.7c0-.013,0-.024,0-.036a2.725,2.725,0,0,0,1.247.345,2.757,2.757,0,0,1-.852-3.677,7.824,7.824,0,0,0,5.677,2.878,2.755,2.755,0,0,1,4.693-2.512,5.51,5.51,0,0,0,1.749-.669,2.764,2.764,0,0,1-1.211,1.524,5.526,5.526,0,0,0,1.582-.434A5.6,5.6,0,0,1,941.479,741.356Z" transform="translate(-924 -732)" fill="#fff"/>
</svg>
