<?xml version="1.0" encoding="utf-8"?>
<!-- Generator: Adobe Illustrator 25.2.3, SVG Export Plug-In . SVG Version: 6.00 Build 0)  -->
<svg version="1.1" id="Layer_1" width="60" height="30" xmlns="http://www.w3.org/2000/svg" xmlns:xlink="http://www.w3.org/1999/xlink" x="0px" y="0px"
	 viewBox="0 0 46 15.8" style="enable-background:new 0 0 46 15.8;" xml:space="preserve">
<style type="text/css">
	.st0{fill:#C5CEDA;}
	.st1{enable-background:new    ;}
	.st2{fill:#1E5AA5;}
</style>
<g id="Group_1164" transform="translate(-1912 90.942)">
	<g id="Group_1162" transform="translate(1631 -104)">
		<g id="Group_1154" transform="translate(33.143 1423)">
			<g id="Group_1060" transform="translate(252.207 -1420.794)">
				<path id="Path_1031" class="st0" d="M18.7,10.9c-3.4,0-6.1,2.7-6.1,6.1c0,2.5,1.5,4.9,2.8,6.6c0.8,1,1.7,2,2.7,2.9
					c0.3,0.3,0.8,0.3,1.1,0c1-0.9,1.9-1.8,2.8-2.9c1.4-1.7,2.8-4.1,2.8-6.6C24.8,13.6,22,10.8,18.7,10.9
					C18.7,10.9,18.7,10.9,18.7,10.9z M18.7,15.2c1,0,1.7,0.8,1.8,1.8c0,1-0.8,1.8-1.8,1.8c-1,0-1.8-0.8-1.8-1.8
					C16.9,16,17.7,15.3,18.7,15.2z"/>
			</g>
		</g>
	</g>
	<g class="st1">
		<path class="st2" d="M1918.7-81.9c0,0.9-0.2,1.7-0.7,2.2s-1.1,0.8-2,0.8s-1.5-0.3-2-0.8s-0.7-1.2-0.7-2.2c0-0.9,0.2-1.7,0.7-2.2
			s1.1-0.8,2-0.8s1.5,0.3,2,0.8S1918.7-82.8,1918.7-81.9z M1914.5-81.9c0,0.6,0.1,1.1,0.4,1.4s0.6,0.5,1.1,0.5c1,0,1.4-0.6,1.4-1.9
			c0-1.3-0.5-1.9-1.4-1.9c-0.5,0-0.8,0.2-1.1,0.5S1914.5-82.5,1914.5-81.9z"/>
		<path class="st2" d="M1922.9-79l-0.2-0.6h-0.1c-0.1,0.2-0.3,0.4-0.5,0.5s-0.5,0.2-0.8,0.2c-0.5,0-0.9-0.1-1.2-0.4
			s-0.4-0.7-0.4-1.2v-2.8h1.2v2.6c0,0.3,0.1,0.6,0.2,0.7s0.3,0.2,0.5,0.2c0.3,0,0.6-0.1,0.7-0.3s0.2-0.6,0.2-1.1v-2.1h1.2v4.4
			H1922.9z M1921.6-83.8c-0.2-0.1-0.4-0.3-0.7-0.6s-0.6-0.5-0.7-0.6v-0.1h1.3c0.2,0.3,0.5,0.7,0.9,1.2v0.1H1921.6z"/>
		<path class="st2" d="M1929.9-79l-0.2-0.6h0c-0.2,0.3-0.4,0.4-0.6,0.5s-0.5,0.1-0.8,0.1c-0.4,0-0.7-0.1-1-0.4s-0.4-0.6-0.4-1
			c0-0.5,0.2-0.8,0.5-1s0.8-0.3,1.5-0.4l0.8,0v-0.2c0-0.4-0.2-0.7-0.7-0.7c-0.3,0-0.8,0.1-1.2,0.3l-0.4-0.8c0.5-0.3,1.1-0.4,1.7-0.4
			c0.6,0,1,0.1,1.3,0.4s0.5,0.6,0.5,1.2v2.9H1929.9z M1929.5-81l-0.5,0c-0.3,0-0.6,0.1-0.8,0.2s-0.3,0.3-0.3,0.5
			c0,0.3,0.2,0.5,0.6,0.5c0.3,0,0.5-0.1,0.7-0.2s0.2-0.4,0.2-0.6V-81z"/>
		<path class="st2" d="M1933.7-78.9c-1.4,0-2-0.7-2-2.2c0-0.7,0.2-1.3,0.6-1.7s0.9-0.6,1.6-0.6c0.5,0,1,0.1,1.4,0.3l-0.4,0.9
			c-0.2-0.1-0.4-0.1-0.5-0.2s-0.3-0.1-0.5-0.1c-0.6,0-0.9,0.4-0.9,1.3c0,0.9,0.3,1.3,0.9,1.3c0.2,0,0.4,0,0.6-0.1s0.4-0.2,0.6-0.3v1
			c-0.2,0.1-0.4,0.2-0.6,0.3S1934-78.9,1933.7-78.9z"/>
		<path class="st2" d="M1940.1-79h-1.2v-2.6c0-0.6-0.2-0.9-0.7-0.9c-0.3,0-0.6,0.1-0.7,0.3c-0.1,0.2-0.2,0.6-0.2,1.1v2.1h-1.2v-6.1
			h1.2v1.2c0,0.1,0,0.3,0,0.7l0,0.4h0.1c0.3-0.4,0.7-0.6,1.3-0.6c0.5,0,0.9,0.1,1.2,0.4s0.4,0.7,0.4,1.2V-79z"/>
		<path class="st2" d="M1943.3-78.9c-0.7,0-1.3-0.2-1.6-0.6c-0.4-0.4-0.6-0.9-0.6-1.6c0-0.7,0.2-1.3,0.5-1.7
			c0.4-0.4,0.9-0.6,1.5-0.6c0.6,0,1.1,0.2,1.4,0.5s0.5,0.8,0.5,1.5v0.6h-2.8c0,0.3,0.1,0.6,0.3,0.8s0.5,0.3,0.8,0.3
			c0.3,0,0.5,0,0.7-0.1s0.5-0.1,0.7-0.3v0.9c-0.2,0.1-0.4,0.2-0.7,0.2C1943.9-78.9,1943.6-78.9,1943.3-78.9z M1943.1-82.6
			c-0.3,0-0.5,0.1-0.6,0.2c-0.1,0.2-0.2,0.4-0.2,0.7h1.7c0-0.3-0.1-0.5-0.2-0.7S1943.4-82.6,1943.1-82.6z"/>
		<path class="st2" d="M1947.9-79.9c0.2,0,0.5,0,0.8-0.1v0.9c-0.3,0.1-0.7,0.2-1.1,0.2c-0.5,0-0.8-0.1-1-0.4
			c-0.2-0.2-0.3-0.6-0.3-1.1v-2.1h-0.6V-83l0.7-0.4l0.3-0.9h0.8v0.9h1.2v0.9h-1.2v2.1c0,0.2,0,0.3,0.1,0.4
			C1947.6-79.9,1947.7-79.9,1947.9-79.9z"/>
		<path class="st2" d="M1951.5-78.9c-0.7,0-1.3-0.2-1.6-0.6c-0.4-0.4-0.6-0.9-0.6-1.6c0-0.7,0.2-1.3,0.5-1.7
			c0.4-0.4,0.9-0.6,1.5-0.6c0.6,0,1.1,0.2,1.4,0.5s0.5,0.8,0.5,1.5v0.6h-2.8c0,0.3,0.1,0.6,0.3,0.8s0.5,0.3,0.8,0.3
			c0.3,0,0.5,0,0.7-0.1s0.5-0.1,0.7-0.3v0.9c-0.2,0.1-0.4,0.2-0.7,0.2C1952.1-78.9,1951.8-78.9,1951.5-78.9z M1951.3-82.6
			c-0.3,0-0.5,0.1-0.6,0.2c-0.1,0.2-0.2,0.4-0.2,0.7h1.7c0-0.3-0.1-0.5-0.2-0.7S1951.6-82.6,1951.3-82.6z"/>
		<path class="st2" d="M1956.7-83.4c0.2,0,0.3,0,0.4,0l-0.1,1.1c-0.1,0-0.2,0-0.4,0c-0.4,0-0.7,0.1-0.9,0.3
			c-0.2,0.2-0.3,0.5-0.3,0.8v2.2h-1.2v-4.4h0.9l0.2,0.7h0.1c0.1-0.2,0.3-0.4,0.5-0.6S1956.4-83.4,1956.7-83.4z"/>
	</g>
</g>
</svg>
