<svg xmlns="http://www.w3.org/2000/svg" width="71.062" height="26.306" viewBox="0 0 71.062 26.306">
  <g id="Group_1159" data-name="Group 1159" transform="translate(-1899.857 123.482)">
    <g id="Group_1158" data-name="Group 1158">
      <g id="Group_1157" data-name="Group 1157">
        <g id="Group_1156" data-name="Group 1156" transform="translate(86 1)">
          <g id="Group_1154" data-name="Group 1154" transform="translate(1574 1285.46)">
            <g id="Group_1060" data-name="Group 1060" transform="translate(264.736 -1409.942)">
              <path id="Path_1031" data-name="Path 1031" d="M18.441,7.143A10.259,10.259,0,0,0,8.2,17.372c0,4.236,2.425,8.1,4.717,10.958A37.431,37.431,0,0,0,17.5,33.114a1.466,1.466,0,0,0,1.867,0,36.3,36.3,0,0,0,4.6-4.794c2.292-2.878,4.7-6.772,4.7-11.058A10.168,10.168,0,0,0,18.441,7.143Zm0,7.307a3.048,3.048,0,0,1,2.933,2.933,3.05,3.05,0,0,1-2.933,2.922A3.049,3.049,0,0,1,15.5,17.372,3.047,3.047,0,0,1,18.441,14.45Z" transform="translate(-8.201 -7.143)" fill="#c5ceda"/>
            </g>
          </g>
          <path id="Path_1050" data-name="Path 1050" d="M-18.92,1.878h-1.805l-1.012-3.927q-.056-.21-.192-.867t-.156-.882q-.031.276-.153.887t-.189.872l-1.007,3.917h-1.8L-27.143-5.6h1.56l.956,4.081q.251,1.13.363,1.958.031-.291.141-.9t.207-.949L-22.827-5.6h1.5l1.089,4.188q.072.281.179.859t.164.992q.051-.4.164-.995t.2-.964l.951-4.081h1.56Zm8,0h-1.56V-1.461q0-1.237-.92-1.237a1.047,1.047,0,0,0-.946.445A2.717,2.717,0,0,0-14.64-.811v2.69H-16.2V-6.078h1.56v1.621q0,.189-.036.89l-.036.46h.082a1.807,1.807,0,0,1,1.657-.839,2.026,2.026,0,0,1,1.529.542,2.153,2.153,0,0,1,.522,1.555Zm3.973-4.715a.989.989,0,0,0-.777.314,1.455,1.455,0,0,0-.322.892H-5.86a1.3,1.3,0,0,0-.3-.892A1.021,1.021,0,0,0-6.949-2.836Zm.22,4.817a2.951,2.951,0,0,1-2.158-.762A2.885,2.885,0,0,1-9.665-.939a3.173,3.173,0,0,1,.718-2.222A2.558,2.558,0,0,1-6.96-3.946a2.518,2.518,0,0,1,1.887.69A2.612,2.612,0,0,1-4.4-1.348v.757H-8.085A1.5,1.5,0,0,0-7.691.447,1.385,1.385,0,0,0-6.658.82,4.288,4.288,0,0,0-5.681.713,4.887,4.887,0,0,0-4.72.37V1.577a3.662,3.662,0,0,1-.874.3A5.513,5.513,0,0,1-6.73,1.981ZM.061-3.946A2.515,2.515,0,0,1,.588-3.9L.47-2.437a1.787,1.787,0,0,0-.46-.051A1.654,1.654,0,0,0-1.153-2.1,1.386,1.386,0,0,0-1.57-1.031v2.91H-3.13V-3.838h1.181l.23.961h.077a2.149,2.149,0,0,1,.718-.775A1.772,1.772,0,0,1,.061-3.946Zm3.723,1.11a.989.989,0,0,0-.777.314,1.455,1.455,0,0,0-.322.892H4.873a1.3,1.3,0,0,0-.3-.892A1.021,1.021,0,0,0,3.784-2.836ZM4,1.981a2.951,2.951,0,0,1-2.158-.762A2.885,2.885,0,0,1,1.069-.939a3.173,3.173,0,0,1,.718-2.222,2.558,2.558,0,0,1,1.987-.785,2.518,2.518,0,0,1,1.887.69,2.612,2.612,0,0,1,.675,1.907v.757H2.649A1.5,1.5,0,0,0,3.042.447,1.385,1.385,0,0,0,4.075.82,4.288,4.288,0,0,0,5.052.713,4.887,4.887,0,0,0,6.013.37V1.577a3.662,3.662,0,0,1-.874.3A5.513,5.513,0,0,1,4,1.981Zm9.327-.1H11.746V-4.278H9.716V-5.6h5.645v1.319h-2.03ZM16.9-.99A2.4,2.4,0,0,0,17.179.293a1,1,0,0,0,.908.435.981.981,0,0,0,.9-.432A2.434,2.434,0,0,0,19.257-.99a2.361,2.361,0,0,0-.276-1.273,1,1,0,0,0-.905-.424,1,1,0,0,0-.9.422A2.359,2.359,0,0,0,16.9-.99Zm3.953,0a3.072,3.072,0,0,1-.736,2.183,2.67,2.67,0,0,1-2.051.787,2.868,2.868,0,0,1-1.452-.361A2.4,2.4,0,0,1,15.647.585,3.479,3.479,0,0,1,15.31-.99a3.055,3.055,0,0,1,.731-2.178A2.685,2.685,0,0,1,18.1-3.946a2.885,2.885,0,0,1,1.452.358,2.389,2.389,0,0,1,.966,1.028A3.447,3.447,0,0,1,20.853-.99ZM24.984-5.6h2.327a4.484,4.484,0,0,1,2.309.453,1.575,1.575,0,0,1,.718,1.439,1.814,1.814,0,0,1-.314,1.1,1.256,1.256,0,0,1-.836.516v.051a1.647,1.647,0,0,1,1.025.593A1.93,1.93,0,0,1,30.527-.29a1.9,1.9,0,0,1-.739,1.6,3.2,3.2,0,0,1-2.007.573h-2.8ZM26.57-2.637h.92a1.683,1.683,0,0,0,.933-.2.744.744,0,0,0,.289-.66.66.66,0,0,0-.314-.616A2.021,2.021,0,0,0,27.4-4.3H26.57Zm0,1.258V.569H27.6a1.532,1.532,0,0,0,.966-.251.925.925,0,0,0,.312-.767q0-.931-1.33-.931Zm9.378,3.257-.21-.731h-.082a1.646,1.646,0,0,1-.711.616,2.427,2.427,0,0,1-1.048.217,2,2,0,0,1-1.519-.539,2.171,2.171,0,0,1-.511-1.552V-3.838h1.56V-.5a1.6,1.6,0,0,0,.22.928.8.8,0,0,0,.7.309A1.053,1.053,0,0,0,35.293.3a2.712,2.712,0,0,0,.291-1.45v-2.69h1.56V1.878Zm2.015-5.717H39.67L40.749-.622a4.463,4.463,0,0,1,.189.992h.031a4.383,4.383,0,0,1,.22-.992l1.058-3.216H43.92L41.5,2.61a2.792,2.792,0,0,1-.949,1.34,2.394,2.394,0,0,1-1.439.445,3.62,3.62,0,0,1-.793-.087V3.07a2.666,2.666,0,0,0,.614.066,1.108,1.108,0,0,0,.724-.253,1.641,1.641,0,0,0,.483-.764l.092-.281Z" transform="translate(1841 -110.472)" fill="#1e5aa5"/>
        </g>
      </g>
    </g>
  </g>
</svg>
