<svg xmlns="http://www.w3.org/2000/svg" width="25" height="25" viewBox="0 0 12.264 15.766">
  <g id="Group_1060" data-name="Group 1060" transform="translate(-12.528 -10.852)">
    <path id="Path_1031" data-name="Path 1031" d="M14.338,7.143A6.148,6.148,0,0,0,8.2,13.274c0,2.539,1.453,4.853,2.827,6.568a22.433,22.433,0,0,0,2.748,2.867.879.879,0,0,0,1.119,0,21.754,21.754,0,0,0,2.754-2.873c1.374-1.725,2.817-4.058,2.817-6.627A6.094,6.094,0,0,0,14.338,7.143Zm0,4.379A1.827,1.827,0,0,1,16.1,13.28a1.759,1.759,0,0,1-3.519-.007A1.826,1.826,0,0,1,14.338,11.522Z" transform="translate(4.327 3.709)" fill="#1e5aa5"/>
  </g>
</svg>
