<?xml version="1.0" encoding="utf-8"?>
<!-- Generator: Adobe Illustrator 25.1.0, SVG Export Plug-In . SVG Version: 6.00 Build 0)  -->
<svg version="1.1" id="Layer_1" xmlns="http://www.w3.org/2000/svg" xmlns:xlink="http://www.w3.org/1999/xlink" x="0px" y="0px"
	 viewBox="0 0 103.1 101.8" style="enable-background:new 0 0 103.1 101.8;" xml:space="preserve">
<style type="text/css">
	.st0{fill:#840022;}
	.st1{fill:none;stroke:#840022;stroke-width:1.66;stroke-linecap:round;stroke-miterlimit:10;stroke-dasharray:1.2,5.5,1.2,5.5;}
	.st2{fill:none;}
</style>
<path class="st0" d="M20,52.9c0.7-0.1,0.3-0.5,0.6-0.5H21l0.4,3c0,0.4,0.1,0.7,0.3,1l-2.5,0.3l-0.1-0.3c-0.1-0.6,1.7-0.3,1.5-1.5
	l-0.1-0.8l-3.1,0.4l0,0.4c0.1,0.8,0.9,0.3,1,0.7v0.2l-2.4,0.3V56c-0.1-0.5,0.9-0.1,0.8-1v-0.4l-3,0.4c-0.7,0.1-0.3,0.5-0.6,0.5h-0.4
	l-0.3-2.2H13c0.4,0,0,0.4,0.7,0.3L20,52.9z"/>
<path class="st0" d="M15.6,58.7h-0.7c-0.2,0-0.3,0-0.5,0.1c-0.5,0.1-0.2,0.5-0.6,0.7l-0.3,0.1L13.1,58l0.3-0.1
	c0.4-0.1,0.2,0.3,1.1,0.3l5.8-0.3h0.3c0.2-0.1,0.4-0.2,0.6-0.3c0.1,0,0.1,0,0.2,0l0.6,0.5c0.1,0,0.1,0.1,0.1,0.2s0,0.1-0.1,0.2
	l-6.8,3.7c-0.5,0.3-0.2,0.5-0.5,0.6l-0.4,0.1l-0.6-2.1l0.2-0.1c0.5-0.1,0.4,0.3,0.7,0.2c0.1,0,0.3-0.1,0.4-0.2l0.9-0.5L15.6,58.7z
	 M16.8,60l2.8-1.5l0,0l-3.2,0.2L16.8,60z"/>
<path class="st0" d="M15.1,64.8l0.3-0.2c0.3-0.2,0.2,0.4,0.8,0.1l5.9-2.7c0.6-0.3,0.1-0.5,0.4-0.7l0.4-0.2l1.1,2.4
	c0.5,0.8,0.2,1.9-0.7,2.4C23.2,66,23.1,66,23,66.1c-0.8,0.5-1.9,0.3-2.4-0.5l0,0c0.4,1-0.2,2.2-1.2,2.6h-0.1c-1,0.6-2.3,0.3-2.9-0.7
	c-0.1-0.1-0.1-0.2-0.1-0.3L15.1,64.8z M16.5,66l0.2,0.5c0.4,0.8,1.1,0.8,1.9,0.5c1.1-0.5,1.5-1.2,1.2-1.9l-0.2-0.4L16.5,66z
	 M20.2,64.3l0.2,0.4c0.3,0.7,1.1,0.7,1.8,0.3c0.9-0.4,1.2-1,0.9-1.6L23,63L20.2,64.3z"/>
<path class="st0" d="M24.5,66.9c0.6-0.4,0-0.5,0.3-0.7l0.3-0.2l1.4,2c0.8,1.1,0.1,2.1-0.8,2.7s-2,0.8-2.5,0l-0.1-0.1h-0.1
	c0.2,0.5,0,0.8-0.3,1.2l-1.4,2c-0.4,0.6-0.2,0.7-0.3,0.8l-0.3,0.2L20,73.5l2.3-3c0.2-0.3,0.2-0.4,0.1-0.5L20,71.6
	c-0.6,0.4,0,0.5-0.3,0.7l-0.3,0.2l-1.2-1.8l0.3-0.2c0.3-0.2,0.2,0.3,0.8-0.1L24.5,66.9z M22.9,69.6c0.5,0.6,0.8,0.9,2,0
	s1.1-1.2,0.7-1.9L22.9,69.6z"/>
<path class="st0" d="M27.6,71c0.5-0.5,0-0.5,0.2-0.8l0.3-0.2l1.4,1.5l-0.3,0.3C29,72,29,71.5,28.5,71.9l-4.8,4.3
	c-0.5,0.5,0,0.5-0.2,0.8l-0.3,0.3l-1.4-1.6l0.3-0.2c0.3-0.2,0.3,0.3,0.8-0.2L27.6,71z"/>
<path class="st0" d="M27.4,83.2c-0.5,0.2-1.1,0.2-1.5-0.2c-1-0.9,0-2.7-0.3-3.3c-0.6-1.4,0.2-3.1,1.4-4.6c1.5-1.8,3.5-2.9,4.9-1.7
	s0.6,3.4-0.8,5.1s-3.3,2.7-4.9,1.7l0,0c0.6,0.9,0.5,2.1,0.8,2.3c0.1,0.1,0.3,0.1,0.4,0.1L27.4,83.2z M28.1,76.1
	c-1.3,1.5-2.3,3.1-1.5,3.7s2.1-0.6,3.4-2.1s2.3-3.1,1.5-3.7S29.4,74.6,28.1,76.1"/>
<path class="st0" d="M36.1,76.6L35.9,77c-0.2,0.3-0.3-0.2-0.7,0.4l-2.4,4.2c-0.6,1.1-0.9,1.9,0,2.3c0.9,0.5,1.3,0,1.9-1l2.5-4.4
	c0.3-0.6-0.2-0.5,0-0.8l0.2-0.4l1.2,0.7l-0.2,0.3c-0.2,0.3-0.3-0.2-0.7,0.4l-2.5,4.5c-0.9,1.6-1.8,2-3.2,1.2
	c-1.4-0.8-1.4-1.8-0.6-3.2l2.6-4.5c0.3-0.6-0.2-0.5,0-0.8l0.2-0.3L36.1,76.6z"/>
<path class="st0" d="M39.2,79.4c0.2-0.7-0.3-0.4-0.2-0.8l0.1-0.4l2.8,1c0.3,0.1,0.7,0.2,1,0.2l-0.9,2.4l-0.2-0.1
	c-0.6-0.2,0.5-1.7-0.7-2l-0.7-0.4l-1,3l0.3,0.1c0.8,0.3,0.7-0.7,1.1-0.6l0.2,0.1l-0.9,2.4l-0.2-0.1c-0.4-0.2,0.3-0.8-0.5-1.1
	L39.3,83l-1.2,3.3l0.8,0.3c0.5,0.2,1.1,0,1.4-0.5c0,0,0-0.1,0-0.1c0.2-0.3,0.3-0.8,0.7-0.7l0.2,0.1l-0.8,2.4l-4.1-1.4l0.1-0.3
	c0.1-0.3,0.4,0.1,0.6-0.5L39.2,79.4z M40.7,78.2l1.7-1.4c0.1-0.2,0.4-0.2,0.6-0.2c0.2,0.1,0.3,0.4,0.2,0.7c-0.1,0.3-0.3,0.4-0.5,0.5
	l-1.5,0.6L40.7,78.2z"/>
<path class="st0" d="M44,81c0.1-0.7-0.3-0.4-0.3-0.8l0.1-0.4l3,0.5c0.3,0.1,0.7,0.1,1,0l-0.5,2.5h-0.2c-0.6-0.1,0.2-1.7-1-1.9
	l-0.8-0.1l-0.6,3.1l0.3,0.1c0.8,0.2,0.5-0.8,1-0.7h0.2l-0.4,2.4h-0.2c-0.5-0.1,0.2-0.9-0.7-1l-0.3-0.1L44.1,88l0.8,0.2
	c0.6,0.2,1.1-0.2,1.3-0.7v-0.1c0.1-0.3,0.2-0.8,0.5-0.8H47L46.5,89l-4.2-0.8l0.1-0.4c0.1-0.3,0.4,0.1,0.5-0.6L44,81z"/>
<path class="st0" d="M48.6,86.2h0.2c0.7,0,0.2,2.5,1.6,2.6c0.7,0,1-0.6,1-1.5c0-2.2-2.8-1.6-2.8-4.4c0-1.3,0.8-2.4,1.8-2.4
	c0.7,0,0.9,0.4,1.1,0.5c0.1,0,0.2-0.1,0.2-0.2h0.4v2.5H52c-0.6,0-0.3-2.2-1.3-2.2c-0.5,0-0.8,0.4-0.8,1c0,1.9,2.8,1.5,2.8,4.3
	c0,1.2-0.7,2.9-2.2,2.9c-0.4-0.1-0.9-0.2-1.2-0.4c-0.1,0-0.2,0-0.2,0.2h-0.5L48.6,86.2z"/>
<path class="st0" d="M57,86.6v0.7c0,0.2,0,0.4,0,0.5c0.1,0.5,0.5,0.3,0.6,0.6l0.1,0.3L56.1,89L56,88.7c-0.1-0.4,0.3-0.1,0.4-1.1
	l0.2-5.8c0-0.1,0-0.2,0-0.3c-0.1-0.2-0.1-0.4-0.2-0.6c0-0.1,0-0.2,0.1-0.2l0.6-0.6C57,80,57,80,57.1,80s0.1,0,0.2,0.2l3.2,7
	c0.2,0.6,0.5,0.3,0.6,0.6l0.1,0.4L59,88.5v-0.2c-0.1-0.5,0.3-0.4,0.3-0.7c0-0.1-0.1-0.3-0.2-0.4l-0.4-0.9L57,86.6z M58.4,85.6
	l-1.3-3l0,0v3.2L58.4,85.6z"/>
<path class="st0" d="M61.5,78.9l0.1,0.3c0.1,0.3-0.4,0.1-0.1,0.8l1.7,4.6c0.5,1.2,0.9,1.9,1.8,1.5s0.9-1,0.4-2.1l-1.7-4.7
	c-0.2-0.7-0.5-0.2-0.6-0.5l-0.1-0.4l1.3-0.5l0.1,0.4c0.1,0.3-0.4,0.1-0.1,0.8l1.8,4.8c0.6,1.7,0.3,2.7-1.2,3.2s-2.2-0.1-2.8-1.6
	l-1.8-4.9c-0.2-0.6-0.5-0.2-0.6-0.5l-0.1-0.4L61.5,78.9z"/>
<path class="st0" d="M71.1,77.2l-0.2,0.1c-0.4,0.3-1.6-2-2.4-1.4s0,2.2,1,3.7s2.3,3.1,3.1,2.6s0.1-1.8-0.2-2.4l0.7,0.1
	c0.7,1.3,0.7,2.4-0.1,2.9c-1.5,1-3.4-0.4-4.6-2.3s-1.7-4.2-0.4-5c0.6-0.4,1.3-0.1,1.4-0.2s0-0.2,0-0.3l0.3-0.2L71.1,77.2z"/>
<path class="st0" d="M74.9,78.4l0.3,0.6c0.1,0.2,0.2,0.3,0.3,0.4c0.3,0.4,0.6-0.1,0.8,0.2l0.2,0.2l-1.2,1.1l-0.2-0.2
	c-0.3-0.3,0.2-0.3-0.3-1.1l-2.9-5c0-0.1-0.1-0.2-0.2-0.2c-0.2-0.2-0.3-0.3-0.5-0.4c-0.1-0.1-0.1-0.1,0-0.2l0.2-0.8
	c0-0.1,0-0.1,0.1-0.2h0.2l6.4,4.3c0.5,0.3,0.6-0.1,0.8,0.2l0.2,0.3l-1.6,1.5l-0.2-0.2c-0.3-0.4,0.1-0.5-0.1-0.8
	c-0.1-0.1-0.2-0.2-0.3-0.3l-0.8-0.5L74.9,78.4z M75.6,76.8l-2.6-1.8l0,0l1.6,2.8L75.6,76.8z"/>
<path class="st0" d="M80.3,70.9L80.3,70.9L77,68.3c-0.5-0.4-0.5,0.1-0.8-0.1L75.9,68l0.9-1.2l0.3,0.2c0.3,0.2-0.2,0.4,0.3,0.8l6,4.6
	L83,72.9L75.7,71l0,0l4.7,3.6c0.5,0.4,0.5-0.1,0.8,0.1l0.3,0.2l-0.9,1.2l-0.3-0.2c-0.3-0.2,0.2-0.4-0.3-0.8l-5.1-3.9
	c-0.5-0.4-0.5,0.1-0.8-0.1l-0.3-0.2l1-1.4L80.3,70.9z"/>
<path class="st0" d="M83.1,68.5l0.5,0.4c0.1,0.1,0.3,0.2,0.4,0.3c0.5,0.2,0.5-0.2,0.9-0.1l0.3,0.1l-0.7,1.4l-0.3-0.1
	c-0.3-0.2,0.1-0.3-0.6-1l-4.5-3.7c-0.1-0.1-0.2-0.1-0.2-0.2c-0.2-0.1-0.4-0.2-0.6-0.2c-0.1,0-0.1-0.1-0.1-0.2L78,64.5v-0.2
	c0-0.1,0.1-0.1,0.2,0l7.5,1.9c0.6,0.2,0.5-0.3,0.8-0.1l0.3,0.2l-1,1.9L85.6,68c-0.4-0.2-0.1-0.5-0.4-0.7c-0.1-0.1-0.3-0.1-0.4-0.1
	L83.9,67L83.1,68.5z M83.1,66.8l-3-0.8l0,0l2.5,2L83.1,66.8z"/>
<path class="st0" d="M80.6,61.7c-0.7-0.2-0.4,0.3-0.8,0.2l-0.4-0.1l0.6-2.2c0.6-2,2.6-2.3,5-1.6c2.6,0.8,3.8,2.2,3.2,4l-0.7,2.3
	l-0.4-0.1c-0.3-0.1,0.1-0.4-0.5-0.6L80.6,61.7z M87.5,62.4l0.2-0.6c0.3-1.1-0.1-1.7-3-2.5c-2.4-0.7-3.6-0.7-3.9,0.4l-0.2,0.6
	L87.5,62.4z"/>
<path class="st0" d="M87.4,56.2l0.6,0.2c0.2,0.1,0.3,0.1,0.5,0.1c0.5,0.1,0.4-0.4,0.8-0.4h0.3l-0.2,1.6h-0.3c-0.4,0,0-0.4-0.9-0.7
	l-5.5-1.9c-0.1,0-0.2-0.1-0.3-0.1c-0.2,0-0.4,0-0.7,0c-0.1,0-0.1,0-0.2-0.1l-0.4-0.7c0-0.1-0.1-0.1-0.1-0.2c0-0.1,0.1-0.1,0.2-0.1
	L89,53c0.6-0.1,0.4-0.4,0.7-0.4h0.4l-0.3,2.2h-0.2c-0.5-0.1-0.2-0.4-0.6-0.5c-0.1,0-0.3,0-0.4,0l-0.9,0.1L87.4,56.2z M86.8,54.6
	l-3.2,0.3l0,0l3,1L86.8,54.6z"/>
<path class="st1" d="M94.9,50.5c0.1,24-19.2,43.6-43.3,43.8S8,75,7.9,51C7.7,27,27.1,7.4,51.1,7.2c0,0,0,0,0,0
	C75.2,7.1,94.8,26.5,94.9,50.5z"/>
<path class="st0" d="M16.5,41.8v0.3c-0.1,0.6-2.5-0.2-2.7,0.9s1.5,1.7,3.4,2c2,0.4,3.8,0.5,4-0.6s-1.2-1.5-1.8-1.6l0.6-0.4
	c1.5,0.5,2.2,1.3,2,2.2c-0.4,2-2.7,2.5-4.9,2s-4.2-1.7-3.9-3.4c0.1-0.8,0.8-1.1,0.9-1.2s-0.1-0.2-0.2-0.2l0.1-0.4L16.5,41.8z"/>
<path class="st0" d="M15.4,39c-0.6-0.2-0.5,0.3-0.8,0.2l-0.4-0.1l1-2.5c0.3-1,1.4-1.5,2.4-1.2c0,0,0,0,0,0c0.1,0,0.2,0.1,0.3,0.1
	c1,0.4,1.8,1.2,1.4,2.2l-0.1,0.2h0.1c0.4-0.5,0.6-0.5,1.2-0.5H23c0.7,0,0.7-0.3,0.9-0.2l0.3,0.1l-0.6,1.6h-3.8c-0.3,0-0.5,0-0.5,0.2
	l2.7,1c0.6,0.2,0.5-0.3,0.8-0.2l0.4,0.1l-0.8,2.2L21.9,42c-0.3-0.1,0.2-0.4-0.5-0.7L15.4,39z M18.6,38.7c0.3-0.8,0.4-1.2-1.1-1.8
	s-1.7-0.2-2,0.6L18.6,38.7z"/>
<path class="st0" d="M23.1,34.7l0.5,0.5c0.1,0.1,0.3,0.2,0.4,0.3c0.5,0.3,0.6-0.2,0.9,0l0.3,0.2l-0.9,1.5L24,37
	c-0.3-0.2,0.1-0.4-0.5-1l-4.1-4.2c-0.1-0.1-0.1-0.1-0.2-0.2c-0.2-0.1-0.4-0.2-0.6-0.2c-0.1,0-0.1-0.1-0.1-0.2v-0.9
	c0-0.1,0-0.2,0-0.2c0,0,0.1-0.1,0.2,0l7.4,2.2c0.6,0.2,0.6-0.3,0.8-0.1l0.3,0.2l-1.3,2l-0.2-0.1c-0.4-0.3,0-0.5-0.3-0.7
	c-0.1-0.1-0.3-0.1-0.4-0.2l-0.9-0.2L23.1,34.7z M23.4,32.8l-3.1-1l0,0l2.3,2.3L23.4,32.8z"/>
<path class="st0" d="M22.3,26.6c-0.5-0.5-0.5,0.1-0.8-0.1l-0.3-0.2l2.2-2.5c0.3-0.3,0.5-0.6,0.6-0.9l1.9,1.7l-0.2,0.2
	c-0.5,0.5-1.3-1.1-2.2-0.1l-0.6,0.7l2.3,2.1l0.3-0.3c0.6-0.7-0.4-0.9,0-1.3l0.2-0.2l1.8,1.6l-0.2,0.2c-0.3,0.4-0.7-0.6-1.3,0.1
	l-0.3,0.3l2.2,2c0.5,0.5,0.6-0.2,0.9,0.1l0.3,0.3l-1.6,1.8l-0.3-0.2c-0.3-0.2,0.3-0.3-0.2-0.8L22.3,26.6z"/>
<path class="st0" d="M27.4,21L27,21.3c-0.4,0.3-0.2,0.7,0,1.1s0.5,0.8,0.2,1l-0.1,0.1l-1.6-2l0.3-0.1c0.1,0,0.2-0.1,0.3-0.2L29,19
	c0.1-0.1,0.2-0.2,0.2-0.3l0.2-0.3l1.6,2l-0.1,0.1c-0.3,0.2-0.6-0.1-0.9-0.4s-0.7-0.6-1.1-0.3l-0.4,0.3l4.2,5.4
	c0.4,0.5,0.6-0.1,0.8,0.2l0.2,0.3l-2,1.5l-0.2-0.3c-0.2-0.3,0.4-0.3,0-0.9L27.4,21z"/>
<path class="st0" d="M32.3,18.1c-0.3-0.6-0.5-0.1-0.7-0.4l-0.2-0.3l2.9-1.5c0.3-0.1,0.6-0.4,0.9-0.6l1.2,2.3l-0.2,0.1
	c-0.6,0.3-0.9-1.5-2-0.9l-0.8,0.4l1.5,2.8l0.3-0.2c0.8-0.4,0-1,0.4-1.2l0.2-0.1l1.1,2.2l-0.2,0.1c-0.5,0.2-0.4-0.8-1.2-0.4l-0.3,0.2
	l1.6,3l0.8-0.4c0.6-0.2,0.9-0.8,0.7-1.4c0,0,0,0,0,0l-0.1-0.1c-0.1-0.3-0.3-0.8,0-1l0.2-0.1l1.2,2.3l-4.2,2.2l-0.2-0.3
	c-0.2-0.3,0.4-0.2,0.1-0.8L32.3,18.1z"/>
<path class="st0" d="M38.4,15.2c-0.2-0.6-0.5-0.2-0.6-0.5l-0.1-0.4l2.5-0.7c2.2-0.6,3.7,0.9,4.3,3.2c0.8,2.6,0.1,4.4-1.8,5l-2.5,0.7
	L40,22.1c-0.1-0.3,0.4-0.1,0.2-0.8L38.4,15.2z M41.7,21.4l0.6-0.2c1.2-0.3,1.5-1,0.6-4c-0.7-2.5-1.5-3.4-2.6-3l-0.7,0.2L41.7,21.4z"
	/>
<path class="st0" d="M49.3,13c0-0.7-0.5-0.3-0.5-0.7V12l2.3-0.1v0.4c0,0.4-0.4,0-0.4,0.7l0.3,6.4c0,0.7,0.5,0.3,0.5,0.7v0.4
	l-2.3,0.1v-0.4c0-0.4,0.4,0,0.4-0.7L49.3,13z"/>
<path class="st0" d="M56.9,17.6L56.9,17.6l0.5-4.2c0.1-0.7-0.4-0.4-0.4-0.8v-0.3l1.7,0.2v0.3c0,0.4-0.5,0-0.5,0.7l-0.9,7.4l-0.7-0.1
	l-2.5-7.4l0,0l-0.7,5.9c-0.1,0.7,0.4,0.4,0.4,0.8v0.3l-1.7-0.1V20c0-0.4,0.5,0,0.6-0.7l0.7-6.4c0.1-0.7-0.4-0.4-0.3-0.7v-0.4l2,0.2
	L56.9,17.6z"/>
<path class="st0" d="M67.1,18.4l-0.3-0.1c-0.5-0.2,0.7-2.4-0.3-2.8s-1.9,1.2-2.6,2.9s-1.2,3.7-0.2,4.1s1.7-0.9,2-1.4l0.3,0.6
	c-0.7,1.3-1.7,1.9-2.6,1.5c-1.8-0.8-1.9-3.1-1-5.2s2.5-3.8,4.1-3.1c0.5,0.2,0.8,0.6,1,1.1c0.1,0.1,0.2-0.1,0.3-0.1l0.4,0.2
	L67.1,18.4z"/>
<path class="st0" d="M67.7,22.6l-0.5,0.5c-0.1,0.1-0.2,0.3-0.3,0.4c-0.3,0.4,0.2,0.6,0,0.9l-0.2,0.2l-1.4-0.9l0.2-0.2
	c0.2-0.3,0.4,0.1,1-0.5l4.3-4.1c0.1-0.1,0.1-0.1,0.2-0.2c0.1-0.2,0.2-0.4,0.2-0.6c0-0.1,0.1-0.1,0.2-0.1h1.1c0.1,0,0.1,0.1,0,0.2
	l-2.3,7.4c-0.2,0.6,0.2,0.6,0.1,0.8L70,26.7l-2-1.3l0.1-0.2c0.3-0.4,0.5,0,0.7-0.3c0.1-0.1,0.1-0.3,0.2-0.4l0.3-0.9L67.7,22.6z
	 M69.6,22.9l1-3l0,0l-2.3,2.2L69.6,22.9z"/>
<path class="st0" d="M75.8,27.6L75.8,27.6l2.9-3c0.5-0.5-0.1-0.6,0.2-0.9l0.3-0.3l1.2,1.1L80,24.9c-0.3,0.3-0.4-0.3-0.8,0.2L74,30.5
	L73.5,30l2.5-7.3l0,0L71.9,27c-0.5,0.5,0.1,0.6-0.2,0.9l-0.2,0.2L70.4,27l0.2-0.2c0.3-0.3,0.4,0.3,0.8-0.2l4.4-4.6
	c0.5-0.5-0.1-0.5,0.2-0.8l0.3-0.3l1.4,1.3L75.8,27.6z"/>
<path class="st0" d="M77.1,30.7L76.5,31c-0.2,0.1-0.3,0.2-0.5,0.2c-0.4,0.3,0,0.6-0.3,0.8l-0.2,0.2l-1-1.4l0.2-0.2
	c0.3-0.2,0.3,0.3,1.2-0.1l5.4-2.2c0.1,0,0.2-0.1,0.2-0.1c0.2-0.1,0.3-0.3,0.5-0.5c0.1,0,0.1-0.1,0.2,0l0.8,0.3c0.1,0,0.2,0,0.2,0.1
	c0.1,0.1,0,0.1,0,0.2l-5,6c-0.4,0.5,0,0.6-0.2,0.8l-0.3,0.3l-1.4-2l0.2-0.1c0.4-0.3,0.5,0.2,0.8,0c0.1-0.1,0.2-0.2,0.3-0.3l0.6-0.7
	L77.1,30.7z M78.7,31.7l2.1-2.5l0,0l-3,1.2L78.7,31.7z"/>
<path class="st0" d="M84.9,33.2c0.6-0.3,0.1-0.5,0.4-0.7l0.3-0.2l1,2.3c1,2.1-0.3,3.7-2.6,4.7c-2.5,1.1-4.4,0.7-5.2-1.2l-1.1-2.4
	l0.3-0.2c0.3-0.1,0.2,0.4,0.8,0.1L84.9,33.2z M79.3,37.3l0.3,0.6c0.5,1.1,1.2,1.3,4,0.1c2.3-1,3.1-1.9,2.7-3l-0.3-0.7L79.3,37.3z"/>
<path class="st0" d="M82.8,42h-0.7c-0.2,0-0.4,0-0.5,0c-0.5,0.1-0.2,0.6-0.6,0.7l-0.3,0.1L80.3,41l0.3-0.1c0.4-0.1,0.2,0.4,1.1,0.4
	h6.2c0.2-0.1,0.4-0.2,0.6-0.3c0.1,0,0.2,0,0.2,0.1l0.7,0.6c0.1,0,0.1,0.1,0.2,0.2c0,0.1,0,0.1-0.2,0.2l-6.8,3.7
	c-0.5,0.3-0.2,0.6-0.5,0.7l-0.4,0.1L81,44.2l0.2-0.1c0.5-0.1,0.4,0.4,0.7,0.3c0.1,0,0.3-0.1,0.4-0.2l0.8-0.5L82.8,42z M83.9,43.5
	l2.8-1.5h-3.2L83.9,43.5z"/>
<path class="st0" d="M75.6,49.9c-1-0.5,1.5-2.2,3.2-4.3c-1.5,0.2-6.3,2.2-6.9,1.5c-0.8-0.8,1-1.7,0.4-1.6c-1,0.2-3.4,2.6-4.6,2.3
	c-0.6-0.2-0.2-1.6,0.1-2.1L67,46.4l0.7-0.6c-1.9,0.8-7.3,5.8-9.9,5.6c-0.1,0-0.5-0.7-0.6-0.7l-0.5,0.5l0.5-0.5
	c0.2-2.2,5.4-8.6,6.5-9.8c1.3-1.5-1.3,1.2-0.4-1.3c0.4-1,0.9-2,1.5-3c-0.3,0.2-0.5,0.5-0.8,0.7c0.3-0.3,0.5-0.5,0.8-0.7
	c-1.3,0.5-3.9,1.6-4.5,1.2s1.2-4.2,1.5-6.4c0.2-1.8-1.4,2-2.2,0.5c-0.6-1,0-5.4-0.8-3.2c-0.3,0.9-1-1-1-3.8
	c-1.4,2.6-3.3,5.4-4.1,5.9c-1.4,1-1.5-3.5-2.1-1.9c-0.8,2,0.5,6.4-1.5,6.4c-1.1,0-2.7-1.3-3.6-2.3c0.3,0.7,0.6,1.5,0.9,2.3
	c-0.3-0.8-0.7-1.6-0.9-2.3c0.1,1.1,0.2,2.2,0.2,3.3c-0.3,2.6-2.3-1-1.8,1c0.5,1.7,4.2,10.6,1.9,12.1c-0.1,0-0.9,0.2-0.9,0.2
	c-2.4-0.3-4.1-8.8-5.9-10.5c-0.1,0.5-0.3,2-1,1.9c-1.2-0.2-2.3-3.5-3.1-4.2c-0.5-0.4,0.8,1.3-0.4,1.6c-0.8,0.2-4.2-2.6-5.6-3.7
	c0.6,1.8,0,3.8,0.1,4.6c0.1,1.8,1.4,2.9,0.6,3.2s-1.9-0.8-1.2,0.4c0.6,0.9,2.5,3,1.7,4c-0.6,0.7-1.5,1.1-2.4,1.1
	c1.2,1.3,2.4,2.5,3.7,3.6c0.5,0.5-1,0.6-0.4,0.7c0.6,0.1,4,2.5,4.2,3.3c-3,0.8-6.1,1.3-9.3,1.4c0.7,1.9,2.7,2.4,3.9,3
	c1.2,0.6-2.3,0.1-0.5,0.8s2.6,0.7,3.8,1.1c0.2,0.1,1,0.8-0.7,1c1.2,0.9,3,0.9,4.5,0.9l1.5,0.2c0.2,0.1,0.4,0.2,0.6,0.3
	c1.2,1-1.8,2.3-0.5,2.1s1.8,0.5,5.4-1.3c1.6-0.8,2.4-2.6,3.1-3.1c0.2-0.1,0.3-0.2,0.5-0.3l0.4-0.1c-2.4,6-4.9,9.5-8,11.5
	c0.7,1.3,1,1.2,1,1.2c3.6-3.5,6.2-7.9,7.4-12.8l0.6,0.5h-0.1c0.1,0.1,0.2,0.2,0.2,0.4c1,3.3,3.8,7.1,5,7.6c1.4,0.6-0.4-1.7,1.1-2
	h1.3l0.2,0.2c1.5,0.6,2.5,2.1,4.7,1.8c-1.4-1-1.2-1.6,0.1-1.5c1.2,0.1,2.4,0.2,3.6,0.1c1.7-0.3,3.3-0.8,4.9-1.5
	c-2.5-2.1-6.8-3.1-7.5-4.4c-0.1-0.2-0.1-0.4,0-0.6l0,0c0.7-1.3,8.7-2.8,10.7-3.6c-0.5-0.2-1.9-0.8-2.1-2s2.4-2.3,3.3-2.8
	c1.2-0.7-0.3-0.3-0.9-0.9s1.1-1,2-2.6C76.9,49.6,76.6,50.3,75.6,49.9"/>
<rect x="-48.6" y="-49.3" class="st2" width="200" height="200"/>
</svg>
