<?xml version="1.0" standalone="no"?>
<!DOCTYPE svg PUBLIC "-//W3C//DTD SVG 1.1//EN" "http://www.w3.org/Graphics/SVG/1.1/DTD/svg11.dtd" >
<svg xmlns="http://www.w3.org/2000/svg">
<metadata>
Created by FontPrep 20130207 at Tue Mar  8 18:18:44 2016
 By Ismael Serrano
Generated in 2009 by FontLab Studio. Copyright info pending.
</metadata>
<defs>
<font id="3c2ce634997194b7ceb6d19382108a74" horiz-adv-x='1024' >
  <font-face 
    font-family="ChunkFiveEx"
    font-weight="400"
    font-stretch="normal"
    units-per-em="2048"
    panose-1="0 0 0 0 0 0 0 0 0 0"
    ascent="1536"
    descent="-512"
    x-height="1024"
    cap-height="1432"
    bbox="-469 -737 3387 2255"
    underline-thickness="102"
    underline-position="-102"
    unicode-range="U+0020-FB06"
  />
<missing-glyph horiz-adv-x="573" 
 />
    <glyph glyph-name=".notdef" horiz-adv-x="573" 
 />
    <glyph glyph-name=".null" horiz-adv-x="0" 
 />
    <glyph glyph-name="nonmarkingreturn" horiz-adv-x="573" 
 />
    <glyph glyph-name="space" unicode=" " horiz-adv-x="512" 
 />
    <glyph glyph-name="exclam" unicode="!" horiz-adv-x="630" 
d="M66 1432h489v-390l-109 -516h-270l-110 516v390zM465 363.5q70 -62.5 70 -151.5t-66 -151.5t-169 -62.5t-173 62.5t-70 148.5t66.5 151.5t169 65.5t172.5 -62.5z" />
    <glyph glyph-name="quotedbl" unicode="&#x22;" horiz-adv-x="1056" 
d="M479 1436l-73 -613h-256l-76 613h405zM993 1436l-73 -613h-256l-76 613h405z" />
    <glyph glyph-name="numbersign" unicode="#" horiz-adv-x="1165" 
d="M1040 612v-217h-180l-55 -395h-240l56 395h-166l-56 -395h-239l55 395h-154v217h181l30 228h-153v217h180l51 370h240l-49 -370h164l51 370h239l-49 -370h152v-217h-180l-31 -228h153zM510 840l-29 -228h166l29 228h-166z" />
    <glyph glyph-name="dollar" unicode="$" horiz-adv-x="1454" 
d="M51 0v516h381q0 -111 83.5 -158t184.5 -47t132.5 35t31.5 71t-58 61.5t-145.5 50t-189.5 56t-247.5 124.5t-145.5 319q0 113 48 197t157 163.5t282 79.5h19v97h315v-195q62 -49 94 -110l21 172h352v-514h-371q0 110 -74 173.5t-188 63.5q-48 0 -94.5 -28.5t-46.5 -80.5
t60.5 -87t150.5 -66t345 -117.5t255 -372.5q0 -209 -151 -316t-353 -116v-104h-315v168q-94 52 -152 123l-22 -158h-359z" />
    <glyph glyph-name="percent" unicode="%" horiz-adv-x="2410" 
d="M436 1061q0 -59 48 -95t104 -36t101.5 39t45.5 100q0 15 -6 31q0 42 -50.5 70t-101.5 28q-50 0 -95.5 -39t-45.5 -98zM926.5 777q-148.5 -105 -361.5 -105t-341 113.5t-128 287.5t149.5 278.5t359.5 104.5t340 -113.5t130 -287.5q0 -173 -148.5 -278zM1425 1448h349
l-764 -1442h-348zM1708 338q0 -59 48 -95t104 -36t101.5 39t45.5 100q0 15 -6 31q0 42 -81.5 87t-146.5 -11t-65 -115zM2198.5 54q-148.5 -105 -362.5 -105t-341 113.5t-127 287.5t148.5 278.5t359.5 104.5t341 -114t130 -287t-148.5 -278z" />
    <glyph glyph-name="ampersand" unicode="&#x26;" horiz-adv-x="1503" 
d="M544 -27q-214 0 -344 102t-130 290q0 111 58 204t187 150q-157 99 -157 301q0 159 123.5 258.5t328 99.5t325 -95t120.5 -248t-96.5 -222.5t-172.5 -107.5l205 -205q48 73 88 196l283 -82q-51 -177 -164 -323l289 -291h-471l-72 74q-78 -49 -187.5 -75t-212.5 -26z
M692 1036q0 101 -85 101q-42 0 -61.5 -31t-19.5 -73.5t39 -92.5l43 -51q29 18 56.5 59t27.5 88zM449 404q0 -71 43 -122t124 -51t138 33l-256 260q-49 -49 -49 -120z" />
    <glyph glyph-name="quotesingle" unicode="'" horiz-adv-x="559" 
d="M479 1436l-73 -613h-256l-76 613h405z" />
    <glyph glyph-name="parenleft" unicode="(" horiz-adv-x="794" 
d="M518 148q90 -198 225 -357l-211 -219q-188 170 -334.5 456.5t-146.5 610.5t126 549t209 325.5t146 155.5l211 -217q-37 -45 -91 -115.5t-139 -243t-85 -459.5q0 -288 90 -486z" />
    <glyph glyph-name="parenright" unicode=")" horiz-adv-x="794" 
d="M600 32.5q-143 -281.5 -338 -462.5l-211 219q137 162 226.5 358.5t89.5 484.5q0 287 -85 459.5t-139.5 243t-91.5 115.5l211 217q63 -55 146.5 -155.5t209 -324.5t125.5 -548q0 -325 -143 -606.5z" />
    <glyph glyph-name="asterisk" unicode="*" horiz-adv-x="1040" 
d="M383 1454h266v-268l254 82l76 -246l-254 -78l162 -227l-217 -156l-164 223l-160 -209l-209 158l170 211l-260 92l82 246l254 -96v268z" />
    <glyph glyph-name="plus" unicode="+" horiz-adv-x="1478" 
d="M885 537v-488h-334v488h-477v323h477v479h334v-479h477v-323h-477z" />
    <glyph glyph-name="comma" unicode="," horiz-adv-x="557" 
d="M555 279q0 -193 -89 -367t-243 -309l-235 133q104 129 151 259t47 242t-4 164l373 -98v-24z" />
    <glyph glyph-name="hyphen" unicode="-" horiz-adv-x="790" 
d="M96 625h594v-273h-594v273z" />
    <glyph glyph-name="period" unicode="." horiz-adv-x="528" 
d="M432.5 374q65.5 -72 65.5 -163q0 -90 -60 -154.5t-166 -64.5t-173.5 67.5t-67.5 154.5t62.5 159.5t168 72.5t171 -72z" />
    <glyph glyph-name="slash" unicode="/" horiz-adv-x="1161" 
d="M854 1536h240l-850 -1649h-240z" />
    <glyph glyph-name="zero" unicode="0" horiz-adv-x="1226" 
d="M718.5 355.5q65.5 62.5 65.5 348.5q0 185 -51.5 304.5t-128.5 119.5q-61 0 -114.5 -113.5t-53.5 -292.5t56.5 -304t127.5 -125q33 0 98.5 62.5zM191.5 167.5q-160.5 192.5 -160.5 537.5q0 346 161.5 549.5t415.5 203.5q437 0 512.5 -289.5t75.5 -459.5t-38 -306.5
t-150.5 -282t-384.5 -145.5q-271 0 -431.5 192.5z" />
    <glyph glyph-name="one" unicode="1" horiz-adv-x="1015" 
d="M774 1432v-1160h191v-272h-820v272h205v760l-205 -96l-94 227q163 76 233 138.5t126 130.5h364z" />
    <glyph glyph-name="two" unicode="2" horiz-adv-x="1208" 
d="M600 1454q213 0 350 -122.5t137 -325.5q0 -166 -69.5 -251t-235.5 -194q-261 -171 -329 -289h360v164h344v-436h-1106v297q86 140 143 204.5t156 143.5q55 49 118.5 90t154 107.5t90.5 144.5t-50.5 106.5t-106.5 28.5q-86 0 -142.5 -40.5t-124.5 -114.5l-221 233
q221 254 532 254z" />
    <glyph glyph-name="three" unicode="3" horiz-adv-x="1105" 
d="M885 760q190 -137 190 -343t-170 -325t-397 -119q-138 0 -275.5 68t-201.5 164l209 217q57 -57 119.5 -95t149.5 -38t136 40.5t49 120.5t-46 113t-124 33h-153v244h149q74 0 124 35t50 91q0 92 -56 134.5t-124 42.5q-123 0 -240 -123l-198 240q101 116 234.5 155
t231.5 39t195 -30.5t198 -118t101 -285.5q0 -154 -151 -260z" />
    <glyph glyph-name="four" unicode="4" horiz-adv-x="1196" 
d="M610 625v379l-303 -379h303zM1034 1432v-807h109v-222h-109v-133h111v-270h-664v270h129v133h-590v293l590 736h424z" />
    <glyph glyph-name="five" unicode="5" horiz-adv-x="1181" 
d="M646 977q222 0 363.5 -129.5t141.5 -355.5q0 -129 -54.5 -226.5t-186 -195t-371.5 -97.5q-152 0 -299 75t-209 173l223 232q59 -61 128 -106.5t166 -45.5t157.5 57.5t60.5 141.5t-59 144.5t-141 60.5q-81 0 -125 -30t-76 -65l-263 117l125 705h811v-306h-551l-34 -198
q75 49 193 49z" />
    <glyph glyph-name="six" unicode="6" horiz-adv-x="1189" 
d="M601 303q85 0 138.5 51.5t53.5 124.5q0 116 -60.5 149.5t-105.5 33.5q-116 -6 -211 -117q0 -89 50 -165.5t135 -76.5zM698 1130q-129 0 -199 -80.5t-87 -197.5q43 43 121.5 73.5t169.5 30.5q190 0 323 -127.5t133 -336.5t-150.5 -359.5t-402.5 -150.5t-412.5 180.5
t-160.5 481.5q0 302 100.5 498.5t240.5 254t297 57.5t280.5 -62.5t166.5 -99.5l-139 -266q-53 31 -129 67.5t-152 36.5z" />
    <glyph glyph-name="seven" unicode="7" horiz-adv-x="1159" 
d="M31 1432h1108v-273l-551 -1159h-443l549 1159h-336v-133h-327v406z" />
    <glyph glyph-name="eight" unicode="8" horiz-adv-x="1144" 
d="M735 1073q0 51 -46 88t-106 37t-104.5 -39t-44.5 -86q0 -78 67.5 -108.5t135.5 -30.5q39 18 68.5 53t29.5 86zM385 442q0 -81 55 -129.5t132 -48.5t134.5 41t57.5 131t-79.5 131t-180.5 47q-47 -27 -83 -76t-36 -96zM31 398q0 126 61.5 231t159.5 151q-78 47 -116 123
t-38 156q0 169 130.5 283t359.5 114t358 -112.5t129 -290.5q0 -102 -52 -174t-120 -105q104 -51 157.5 -150.5t53.5 -198.5q0 -199 -150 -325.5t-394 -126.5t-355 94.5t-147.5 176.5t-36.5 154z" />
    <glyph glyph-name="nine" unicode="9" horiz-adv-x="1202" 
d="M568 1133q-64 0 -117.5 -51.5t-53.5 -125.5q0 -114 59.5 -148t106.5 -34q108 6 193 117q0 151 -62 196.5t-126 45.5zM760 584q-105 -105 -285 -105t-312 128t-132 338t151 359.5t404 149.5t418 -183t165 -489t-104 -499.5t-247.5 -247t-235.5 -53.5q-151 0 -287.5 43.5
t-222.5 117.5l139 267q53 -31 129 -68t182 -37t172 72t66 207z" />
    <glyph glyph-name="colon" unicode=":" horiz-adv-x="520" 
d="M425 980.5q64 -72.5 64 -160.5t-60 -151t-163 -63t-169 67.5t-66 151.5q0 85 63 156.5t165 71.5t166 -72.5zM31 200q0 40 14 79.5t44 73.5t72 55.5t121 21.5t143 -72.5t64 -156.5q0 -146 -90 -181.5t-140 -35.5t-92 18t-73 49t-47 70t-16 79z" />
    <glyph glyph-name="semicolon" unicode=";" horiz-adv-x="618" 
d="M522.5 949q65.5 -73 65.5 -163t-62.5 -154.5t-165.5 -64.5t-171 69.5t-68 153.5t62 158t168 74t171.5 -73zM578 279q0 -193 -89.5 -367t-242.5 -309l-236 133q104 129 151.5 260t47.5 242t-4 163l373 -98v-24z" />
    <glyph glyph-name="less" unicode="&#x3c;" horiz-adv-x="698" 
d="M406 1016l258 -162l-248 -328l248 -325l-258 -166l-365 491z" />
    <glyph glyph-name="equal" unicode="=" horiz-adv-x="1028" 
d="M90 1077h844v-272h-844v272zM90 625h844v-273h-844v273z" />
    <glyph glyph-name="greater" unicode="&#x3e;" horiz-adv-x="698" 
d="M299 35l-258 166l248 325l-248 328l258 162l365 -490z" />
    <glyph glyph-name="question" unicode="?" horiz-adv-x="1064" 
d="M671.5 364q69.5 -62 69.5 -152q0 -89 -65.5 -151.5t-169.5 -62.5t-173 63t-69 148q0 86 65.5 151.5t169 65.5t173 -62zM509 1145q-137 0 -284 -168l-221 223q230 264 533 264q215 0 351 -110t136 -310q0 -157 -136.5 -261t-163 -133t-26.5 -60v-113h-379l-2 164
q0 70 50.5 127t112 105.5t112.5 90.5t51 78q0 58 -42 80.5t-92 22.5z" />
    <glyph glyph-name="at" unicode="@" horiz-adv-x="1902" 
d="M975 791q-37 0 -69 -37t-62.5 -121.5t-30.5 -203.5t12.5 -156t44.5 -37q50 0 90 67t62 148l51 313q-14 6 -37.5 16.5t-60.5 10.5zM1405 6q-253 0 -266 236q-63 -163 -159 -202.5t-160 -39.5q-144 0 -238.5 93t-94.5 319q0 289 132 448.5t329 159.5q113 0 178 -74l50 58
h243l-90 -551q-6 -37 -6 -70q0 -125 94 -125q117 0 117 410q0 275 -120.5 413t-408.5 138t-462 -206.5t-174 -546.5t149 -490t387 -150t465 65v-266q-220 -65 -479 -65q-147 0 -298 41t-270.5 143t-195.5 276.5t-76 438.5t81 456.5t216 318.5t307.5 188.5t356.5 62.5
q382 0 610.5 -201.5t228.5 -595.5q0 -346 -126 -514t-320 -168z" />
    <glyph glyph-name="A" unicode="A" horiz-adv-x="1685" 
d="M641 653h268l-135 443zM1655 0h-821v268h194l-43 140h-420l-43 -140h160v-268h-651v268h139l276 899h-84v265h787l362 -1164h144v-268z" />
    <glyph glyph-name="B" unicode="B" horiz-adv-x="1406" 
d="M594 1161v-307h125q82 0 110.5 42t28.5 115t-38 111.5t-97 38.5h-129zM758 266q66 0 116 46t50 127t-43 132.5t-129 51.5h-158v-357h164zM51 0v266h119v901h-119v265h764q256 0 379 -91.5t123 -269.5t-71.5 -231.5t-129.5 -75.5q189 -55 229.5 -165t40.5 -183
q0 -217 -130 -316.5t-427 -99.5h-778z" />
    <glyph glyph-name="C" unicode="C" horiz-adv-x="1404" 
d="M1374 256q-269 -289 -609 -289t-537 198t-197 537q0 176 59.5 316.5t151.5 238t201.5 148.5t197.5 51q140 0 216.5 -46.5t111.5 -92.5l47 115h321v-582h-366q-4 105 -58 181.5t-161 76.5t-174.5 -117.5t-67.5 -283.5t80.5 -278t218.5 -112q108 0 186 64.5t105.5 96.5
t34.5 40z" />
    <glyph glyph-name="D" unicode="D" horiz-adv-x="1474" 
d="M906.5 1038q-76.5 123 -230.5 123h-78v-889h78q154 0 230.5 129t76.5 321q0 193 -76.5 316zM51 0v272h127v889h-127v271h625q358 0 568 -196t210 -501q0 -352 -202.5 -543.5t-583.5 -191.5h-617z" />
    <glyph glyph-name="E" unicode="E" horiz-adv-x="1337" 
d="M51 1432h1235v-453h-354v182h-328v-282h389v-273h-389v-334h328v191h354v-463h-1235v272h129v889h-129v271z" />
    <glyph glyph-name="F" unicode="F" horiz-adv-x="1306" 
d="M51 1432h1225v-453h-363v182h-309v-356h389v-273h-389v-260h209v-272h-762v272h127v889h-127v271z" />
    <glyph glyph-name="G" unicode="G" horiz-adv-x="1589" 
d="M666 -18q-127 0 -244 50t-254 198t-137 473t141 484t253.5 214t228.5 55t187.5 -22.5t115.5 -51t67 -57.5t35 -41l43 148h305v-605h-367q-4 122 -71.5 191t-145.5 69q-137 0 -217 -112.5t-80 -273.5t75.5 -268t205.5 -107q88 0 131 29.5t66 70.5v86h-125v219h680v-219
h-82v-512h-410l-63 129q-35 -57 -123 -102t-215 -45z" />
    <glyph glyph-name="H" unicode="H" horiz-adv-x="1572" 
d="M51 1432h664v-271h-127v-309h389v309h-121v271h666v-271h-119v-891h119v-270h-666v270h121v310h-389v-310h127v-270h-664v270h113v891h-113v271z" />
    <glyph glyph-name="I" unicode="I" horiz-adv-x="782" 
d="M51 1432h680v-271h-127v-889h127v-272h-680v272h129v889h-129v271z" />
    <glyph glyph-name="J" unicode="J" horiz-adv-x="948" 
d="M133 -143q170 0 170 295v1011h-176v269h770v-269h-170v-1011q0 -285 -135.5 -427.5t-441.5 -142.5q-59 0 -107 23l-2 270q39 -18 92 -18z" />
    <glyph glyph-name="K" unicode="K" horiz-adv-x="1669" 
d="M696 1167h-110v-333l381 333h-148v265h682v-265h-119l-297 -256l414 -645h119v-266h-799v266h139l-221 348l-151 -129v-219h110v-266h-645v266h111v901h-111v265h645v-265z" />
    <glyph glyph-name="L" unicode="L" horiz-adv-x="1249" 
d="M51 1432h647v-271h-108v-889h264v260h344v-532h-1147v272h113v889h-113v271z" />
    <glyph glyph-name="M" unicode="M" horiz-adv-x="2064" 
d="M489 1071v-807h117v-264h-555v264h111v903h-109v265h776l207 -766l197 766h780v-265h-112v-901h112v-266h-647v266h117v805h-10q-22 -127 -39 -191.5t-21 -82.5l-215 -797h-428l-229 817q-15 44 -28 129.5t-15 124.5h-9z" />
    <glyph glyph-name="N" unicode="N" horiz-adv-x="1671" 
d="M1620 1167h-135v-1167h-441l-522 780v-516h158v-264h-629v264h121v903h-119v265h588l504 -752v487h-141v265h616v-265z" />
    <glyph glyph-name="O" unicode="O" 
d="M916 400.5q57 115.5 57 308.5q0 309 -83.5 377.5t-137.5 68.5q-98 0 -156.5 -120t-58.5 -314q0 -195 63 -315.5t161 -120.5t155 115.5zM31 703q0 352 199.5 559.5t519.5 207.5q365 0 550 -201.5t185 -557.5t-189 -552t-525 -196q-340 0 -540 194t-200 546z" />
    <glyph glyph-name="P" unicode="P" horiz-adv-x="1310" 
d="M586 1165v-356h92q90 0 145.5 44t55.5 131t-50.5 134t-140.5 47h-102zM51 1432h664q326 0 445.5 -117.5t119.5 -317.5t-154 -304.5t-385 -104.5h-155v-318h125v-270h-660v270h115v893h-115v269z" />
    <glyph glyph-name="Q" unicode="Q" horiz-adv-x="1546" 
d="M722 307q66 0 118 45q-10 78 -33 125t-75 47t-84 -44t-54 -105q62 -68 128 -68zM715 711q132 0 246 -80q4 36 4 102t-17.5 144.5t-70 170t-154.5 91.5t-172 -120.5t-70 -293.5q0 -66 8 -113q94 99 226 99zM1340 66q40 0 40 92v59h136v-104q0 -144 -79.5 -236t-240.5 -92
t-225 91t-80 136q-74 -12 -195 -12t-250 45t-272 186.5t-143 475.5t190.5 532.5t497.5 198.5q349 0 524.5 -194t175.5 -526q0 -333 -170 -519q12 -47 31.5 -90t59.5 -43z" />
    <glyph glyph-name="R" unicode="R" horiz-adv-x="1509" 
d="M877 983q0 182 -187 182h-102v-348h92q90 0 143.5 42t53.5 124zM51 1432h666q473 0 520 -167t47 -241q0 -134 -85 -214.5t-212 -96.5q109 -16 188.5 -101t79.5 -190q0 -66 10.5 -102.5t39.5 -36.5q47 0 47 65v68h137v-113q0 -224 -106.5 -276t-192.5 -52
q-203 0 -300 100.5t-97 262.5t-28 195.5t-69 44t-108 10.5v-318h125v-270h-662v270h115v893h-115v269z" />
    <glyph glyph-name="S" unicode="S" horiz-adv-x="1454" 
d="M51 0v516h381q0 -111 83.5 -158t184.5 -47t132.5 35t31.5 71t-58 61.5t-145.5 50t-189.5 56t-247.5 124.5t-145.5 319q0 113 48 197t157 163.5t282 79.5q222 0 310 -75.5t118 -132.5l21 172h352v-514h-371q0 110 -74 173.5t-188 63.5q-48 0 -94.5 -28.5t-46.5 -80.5
t60.5 -87t150.5 -66t194.5 -66.5t194.5 -89t150.5 -133.5t60.5 -249.5t-163 -277.5t-376 -108t-308 77t-124 112l-22 -158h-359z" />
    <glyph glyph-name="T" unicode="T" horiz-adv-x="1435" 
d="M1405 1432v-533h-301v262h-172v-889h170v-272h-762v272h168v889h-176v-262h-301v533h1374z" />
    <glyph glyph-name="U" unicode="U" horiz-adv-x="1509" 
d="M31 1432h651v-265h-111v-442q0 -333 78 -366t126 -33t128 27.5t80 373.5v434h-111v271h607v-265h-111v-497q0 -365 -149.5 -535t-438.5 -170q-311 10 -473 177t-162 517v506h-114v267z" />
    <glyph glyph-name="V" unicode="V" horiz-adv-x="1583" 
d="M1024 1165v267h580v-267h-101l-491 -1165h-377l-543 1165h-112v267h755v-267h-112l174 -458q56 -169 63 -248h10q10 109 74 260l186 446h-106z" />
    <glyph glyph-name="W" unicode="W" horiz-adv-x="2078" 
d="M1513 1165v267h586v-267h-112l-306 -1165h-485l-123 487q-6 27 -18.5 79t-32.5 175h-8q-4 -23 -16.5 -99.5t-32.5 -149.5l-125 -492h-475l-271 1165h-114v267h675v-267h-118l53 -299q27 -123 44 -252t21 -151h11q8 85 100 508l102 461h426l129 -566q22 -89 33.5 -177.5
t18 -137.5t10.5 -88h10q4 77 28.5 217.5t32.5 173.5l70 311h-113z" />
    <glyph glyph-name="X" unicode="X" horiz-adv-x="1710" 
d="M731 0h-680v264h178l301 391l-370 510h-107v267h811v-267h-119l201 -272l209 272h-180v267h680v-267h-174l-310 -395l369 -504h119v-266h-817v266h116l-198 266l-211 -268h182v-264z" />
    <glyph glyph-name="Y" unicode="Y" horiz-adv-x="1370" 
d="M840 1169v263h551v-263h-111l-379 -665v-238h115v-266h-656v266h117v242l-397 661h-100v263h700v-263h-107l119 -217q4 -14 28.5 -72t35.5 -94h8q4 30 35.5 94t40.5 83l112 206h-112z" />
    <glyph glyph-name="Z" unicode="Z" horiz-adv-x="1462" 
d="M63 893v539h1344v-273l-745 -889h378v262h365v-532h-1354v266l746 895h-387v-268h-347z" />
    <glyph glyph-name="bracketleft" unicode="[" horiz-adv-x="1474" 
d="M594 1165v-356h92q90 0 145.5 44t55.5 131t-50.5 134t-140.5 47h-102zM59 1434h664q324 0 444.5 -128.5t120.5 -338.5q0 -115 -61.5 -200t-159.5 -138l229 -363h119v-266h-393l-340 549h-88v-279h125v-270h-660v270h115v893h-115v271z" />
    <glyph glyph-name="backslash" unicode="\" horiz-adv-x="1161" 
d="M1094 -113h-240l-850 1649h240z" />
    <glyph glyph-name="bracketright" unicode="]" horiz-adv-x="1325" 
d="M61 0v266h84v1002h-84v268h474v-926l237 142h-147v272h573v-272h-158l-129 -76l285 -408h84v-268h-332l-344 489l-72 -49v-172h146v-268h-617z" />
    <glyph glyph-name="asciicircum" unicode="^" horiz-adv-x="1363" 
d="M819 797l-133 333l-137 -333h-381l309 653h418l309 -653h-385z" />
    <glyph glyph-name="underscore" unicode="_" horiz-adv-x="1024" 
d="M0 -256v102h1024v-102h-1024z" />
    <glyph glyph-name="grave" unicode="`" horiz-adv-x="1042" 
d="M109 1436l159 -291h-256l-309 291h406z" />
    <glyph glyph-name="a" unicode="a" horiz-adv-x="1228" 
d="M528 227q47 0 82 22.5t49 45.5v78q-30 59 -105 59q-134 0 -134 -108q0 -43 30.5 -70t77.5 -27zM457 680q130 0 202 -72v72q0 70 -55 92.5t-143 22.5q-131 0 -301 -95l-86 238q250 145 446 145q365 0 460 -149.5t95 -271.5v-400h123v-262h-438l-49 92q-97 -131 -267 -131
t-291.5 87t-121.5 255t123.5 272.5t302.5 104.5z" />
    <glyph glyph-name="b" unicode="b" horiz-adv-x="1343" 
d="M848 500q0 158 -57.5 205t-90.5 47q-57 0 -101 -63.5t-44 -174.5q0 -186 57.5 -228t89.5 -42q66 0 106 69.5t40 186.5zM63 0v266h87v1002h-87v268h496v-592q52 65 142 80.5t126 15.5q224 0 347.5 -157t123.5 -379q-4 -242 -132 -384.5t-341 -142.5q-106 0 -166 25.5
t-104 67.5l-31 -70h-461z" />
    <glyph glyph-name="c" unicode="c" horiz-adv-x="1087" 
d="M428 515q0 -105 57.5 -174t159.5 -69q134 0 242 117l180 -209q-132 -139 -275.5 -174t-241.5 -35t-200 34t-225 143.5t-123 367.5t144.5 392t359.5 134q157 0 256 -116l35 98h241v-463h-301q-12 215 -129 215q-85 0 -132.5 -78t-47.5 -183z" />
    <glyph glyph-name="d" unicode="d" horiz-adv-x="1298" 
d="M461 522q0 -157 56 -204.5t91 -47.5q57 0 101.5 63.5t44.5 174.5q0 184 -57.5 227t-90.5 43q-66 0 -105.5 -69.5t-39.5 -186.5zM754 76q-94 -94 -286 -94q-81 0 -169 44t-183.5 159.5t-95.5 342.5t140 371.5t336 144.5q109 0 169 -29.5t89 -47.5v303h-95v266h510v-1270
h99v-266h-480z" />
    <glyph glyph-name="e" unicode="e" horiz-adv-x="1110" 
d="M574 776q-82 0 -116.5 -51t-41.5 -113h309q0 116 -51.5 140t-99.5 24zM1079 141q-209 -178 -496 -178q-247 0 -410 141.5t-163 399.5t155.5 403.5t399.5 145.5t379 -135t135 -353q0 -87 -24 -155h-645q14 -68 56 -118t155 -50q171 0 286 98z" />
    <glyph glyph-name="f" unicode="f" horiz-adv-x="790" 
d="M606 1307q-66 0 -65 -109v-174h186v-266h-186v-490h123v-268h-611v268h82v490h-84v266h84v174q0 234 133 304.5t264 70.5t210 -20.5t100 -30.5l-123 -236q-42 21 -113 21z" />
    <glyph glyph-name="g" unicode="g" horiz-adv-x="1310" 
d="M457 522q0 -157 56 -204.5t91 -47.5q57 0 101.5 63.5t44.5 174.5q0 184 -57.5 227t-90.5 43q-66 0 -105.5 -69.5t-39.5 -186.5zM694.5 -85.5q57.5 57.5 57.5 134.5v70q-49 -69 -120 -91t-120 -22q-248 0 -370 150.5t-122 377.5t132.5 368.5t382.5 141.5q68 0 127 -26.5
t90 -56.5l41 63h487v-268h-123v-613q0 -260 -162.5 -411.5t-476.5 -151.5q-148 0 -270 55.5t-199 124.5l109 228q44 -39 144.5 -85t217.5 -46t174.5 57.5z" />
    <glyph glyph-name="h" unicode="h" horiz-adv-x="1353" 
d="M676 748q-129 0 -129 -191v-289h147v-268h-643v268h86v1002h-86v266h496v-639q22 39 123 101.5t209 62.5q202 0 275 -124t73 -327v-342h96v-268h-526v557q0 82 -21.5 136.5t-99.5 54.5z" />
    <glyph glyph-name="i" unicode="i" horiz-adv-x="675" 
d="M493 1465.5q62 -66.5 62 -147.5t-57.5 -141.5t-158.5 -60.5t-165.5 63.5t-64.5 142.5t60 144.5t161 65.5t163 -66.5zM625 0h-574v268h86v490h-86v266h475v-756h99v-268z" />
    <glyph glyph-name="j" unicode="j" horiz-adv-x="737" 
d="M618 1465.5q62 -66.5 62 -147.5t-57.5 -141.5t-158.5 -60.5t-166 64t-65 142t59.5 144t161.5 66t164 -66.5zM262 758h-86v266h475v-881q0 -244 -127.5 -407.5t-494.5 -163.5v274q153 0 193 85.5t40 211.5v615z" />
    <glyph glyph-name="k" unicode="k" horiz-adv-x="1339" 
d="M78 0v266h84v1002h-84v268h473v-926l237 142h-147v270h573v-270h-157l-139 -88l276 -396h102v-268h-606v268h86l-155 221l-72 -49v-172h76v-268h-547z" />
    <glyph glyph-name="l" unicode="l" horiz-adv-x="679" 
d="M649 0h-598v268h88v1004h-86v264h475v-1268h121v-268z" />
    <glyph glyph-name="m" unicode="m" horiz-adv-x="1859" 
d="M1231 756q-66 0 -87.5 -42t-21.5 -108v-332h123v-274h-530v522q0 125 -12.5 179.5t-67.5 54.5t-76.5 -30t-21.5 -93v-365h122v-268h-608v268h86v484h-86v270h387l45 -121q129 150 256 150q189 0 241 -64.5t64 -83.5q131 148 302 148q224 0 303.5 -133.5t79.5 -358.5v-283
h100v-276h-520v502l2 90q0 164 -80 164z" />
    <glyph glyph-name="n" unicode="n" horiz-adv-x="1325" 
d="M535 559v-291h147v-268h-631v268h86v490h-86v266h436l48 -127q121 164 292 164q216 0 293.5 -126.5t77.5 -324.5v-342h96v-268h-516v559q0 86 -18 138.5t-96 52.5q-129 0 -129 -191z" />
    <glyph glyph-name="o" unicode="o" horiz-adv-x="1175" 
d="M693.5 704.5q-39.5 77.5 -109.5 77.5q-93 0 -117.5 -106.5t-24.5 -161.5q0 -127 43 -202.5t108 -75.5t102.5 75t37.5 195.5t-39.5 198zM23 509q0 253 167 396.5t404 143.5t398 -148.5t161 -396.5t-159.5 -389.5t-396.5 -141.5q-241 0 -407.5 141.5t-166.5 394.5z" />
    <glyph glyph-name="p" unicode="p" horiz-adv-x="1306" 
d="M800 1040q233 0 359.5 -153.5t126.5 -387.5t-132 -378t-335 -144q-152 0 -206 38t-60 42v-207h111v-268h-613v268h86v902h-86v272h469l35 -72q123 88 245 88zM846 500q0 158 -57.5 205t-90.5 47q-57 0 -101 -63.5t-44 -174.5q0 -186 57.5 -228t89.5 -42q66 0 106 69.5
t40 186.5z" />
    <glyph glyph-name="q" unicode="q" horiz-adv-x="1351" 
d="M651 -203h133v271q-35 -29 -102.5 -57.5t-162.5 -28.5q-199 0 -333.5 148.5t-134.5 395.5t137.5 382.5t352.5 135.5q100 0 163.5 -30.5t79.5 -50.5l39 61h477v-266h-100v-955h100v-274h-649v268zM784 526q0 159 -57 205.5t-90 46.5q-57 0 -101 -63t-44 -147
q0 -145 40.5 -221.5t106.5 -76.5t105.5 69.5t39.5 186.5z" />
    <glyph glyph-name="r" unicode="r" horiz-adv-x="847" 
d="M631 0h-580v268h90v490h-88v266h385l62 -131q49 90 111 136t206 46v-368q-139 0 -214 -46.5t-75 -181.5v-211h103v-268z" />
    <glyph glyph-name="s" unicode="s" horiz-adv-x="1040" 
d="M418 737q0 -35 43 -55t107.5 -39.5t247.5 -77.5t183 -282q0 -139 -111 -223.5t-270 -84.5q-111 0 -193.5 45.5t-119.5 104.5l-18 -125h-256v369h274q0 -73 75.5 -105.5t141.5 -32.5q90 0 90 70q0 29 -42 46.5t-168.5 49t-244.5 104.5t-118 251q0 142 116.5 219.5
t231.5 77.5q116 0 200.5 -47.5t117.5 -112.5l16 135h252v-369h-266q0 61 -66 108.5t-144 47.5q-79 0 -79 -74z" />
    <glyph glyph-name="t" unicode="t" horiz-adv-x="743" 
d="M584 229q45 0 129 35v-262q-51 -22 -140.5 -30.5t-107.5 -8.5q-210 0 -257.5 86t-56 166t-10.5 178v365h-110v266h110v188l377 121v-309h195v-266h-195v-365l-2 -59q0 -41 11.5 -73t56.5 -32z" />
    <glyph glyph-name="u" unicode="u" horiz-adv-x="1292" 
d="M31 1024h495v-494q0 -133 24 -195.5t82 -62.5t96 43t38 113v326h-135v270h530v-752h101v-272h-388l-55 129q-16 -18 -74.5 -88t-219.5 -70q-223 0 -315.5 119t-92.5 381v283h-86v270z" />
    <glyph glyph-name="v" unicode="v" horiz-adv-x="1255" 
d="M676 332q0 67 61 225l99 207h-109v260h528v-260h-106l-354 -764h-318l-381 764h-96v260h623v-260h-103l94 -217q43 -128 54 -215h8z" />
    <glyph glyph-name="w" unicode="w" horiz-adv-x="1785" 
d="M1286 758v266h500v-266h-84l-240 -758h-432l-141 463l-148 -463h-422l-231 758h-88v266h551v-266h-70l45 -150q31 -115 40 -193.5t12 -101.5h4q16 252 84 482l65 229h379l78 -266q22 -72 52 -220.5t36 -224.5h4q15 187 55 324l35 121h-84z" />
    <glyph glyph-name="x" unicode="x" horiz-adv-x="1329" 
d="M768 1024h522v-256h-135l-217 -219l258 -295h96v-254h-653v254h96l-155 166l-148 -166h133v-254h-524v254h137l209 235l-254 279h-92v256h664v-256h-97l144 -156l153 156h-137v256z" />
    <glyph glyph-name="y" unicode="y" horiz-adv-x="1187" 
d="M-18 762v262h630v-260h-96l133 -320l133 320h-94v260h520v-254h-98l-389 -946q-23 -49 -91.5 -169t-348.5 -120q-138 7 -248 103l153 241q77 -72 127 -72t79.5 35t43.5 76l29 86l-399 758h-84z" />
    <glyph glyph-name="z" unicode="z" horiz-adv-x="1132" 
d="M51 614v410h1014v-264l-487 -492h215v140h288v-408h-1030v268l494 492h-228v-146h-266z" />
    <glyph glyph-name="braceleft" unicode="{" horiz-adv-x="878" 
d="M707 1190q-99 0 -99 -109v-309q0 -118 -46 -149t-103 -31v-4q54 0 101.5 -32t47.5 -142v-316q0 -70 34 -89t65 -19h47v-309h-162q-297 0 -297 327v320q0 81 -29 104t-108 23v274q82 0 109.5 25.5t27.5 97.5v322q0 184 78 254.5t219 70.5h162v-309h-47z" />
    <glyph glyph-name="bar" unicode="|" horiz-adv-x="454" 
d="M57 -121v1655h340v-1655h-340z" />
    <glyph glyph-name="braceright" unicode="}" horiz-adv-x="884" 
d="M305 414q0 174 150 174v4q-58 0 -104 31t-46 149v309q0 109 -98 109h-47v309h162q141 0 218.5 -70.5t77.5 -254.5v-322q0 -72 28 -97.5t110 -25.5v-274q-79 0 -108.5 -23.5t-29.5 -103.5v-320q0 -327 -296 -327h-162v309h47q78 0 88 47t10 61v316z" />
    <glyph glyph-name="asciitilde" unicode="~" horiz-adv-x="1363" 
d="M895 733q122 0 199 94l69 -319q-86 -115 -262 -115q-114 0 -200.5 41t-130.5 59.5t-99 18.5q-100 0 -188 -76l-78 316q104 98 258 98q70 0 122 -18.5t100 -40t98.5 -40t111.5 -18.5z" />
    <glyph glyph-name="uni00A0" unicode="&#xa0;" horiz-adv-x="0" 
 />
    <glyph glyph-name="exclamdown" unicode="&#xa1;" horiz-adv-x="630" 
d="M547 -403h-490v389l109 516h270l111 -516v-389zM147.5 665q-69.5 63 -69.5 151q0 89 65.5 151.5t168.5 62.5t173 -63.5t70 -148.5t-65.5 -150.5t-169 -65.5t-173 63z" />
    <glyph glyph-name="cent" unicode="&#xa2;" horiz-adv-x="1087" 
d="M504 733q-76 -72 -76 -208t76 -201v409zM676 -121h-172v94q-215 17 -358.5 159t-143.5 391q0 248 144 383.5t358 135.5v78h172v-123q36 -21 86 -71l35 98h241v-463h-301q-10 138 -61 189v-478q113 10 211 117l180 -209q-59 -66 -160.5 -122t-230.5 -76v-103z" />
    <glyph glyph-name="sterling" unicode="&#xa3;" horiz-adv-x="1527" 
d="M59 737h154q11 319 139.5 470t227 200t185.5 49q139 0 210 -43t117 -96l47 115h321v-582h-366q-4 105 -58 181.5t-159 76.5q-104 0 -170 -105.5t-74 -265.5h344v-272h-344v-193h489v191h355v-463h-1414v272h150v193h-154v272z" />
    <glyph glyph-name="currency" unicode="&#xa4;" horiz-adv-x="1607" 
d="M905 888.5q-39 78.5 -110 78.5q-92 0 -117 -106.5t-25 -162.5q0 -127 43 -202.5t108 -75.5t102.5 75.5t37.5 195t-39 198zM801 158q-263 0 -426 166l-86 -117l-258 166l205 268q-3 21 -3 47v26q0 27 3 40l-205 272l258 162l90 -121q80 82 189.5 124t226.5 42
q260 0 428 -168l88 117l258 -166l-209 -275q4 -24 4 -49l-2 -57l207 -273l-258 -161l-88 116q-159 -159 -422 -159z" />
    <glyph glyph-name="yen" unicode="&#xa5;" horiz-adv-x="1370" 
d="M289 819h135l-344 350h-100v263h700v-263h-107l183 -186h8l188 186h-112v263h551v-263h-111l-326 -350h156v-157h-209v-105h209v-156h-209v-135h115v-266h-656v266h117v135h-188v156h188v105h-188v157z" />
    <glyph glyph-name="brokenbar" unicode="&#xa6;" horiz-adv-x="454" 
d="M397 948h-340v586h340v-586zM57 -121v647h340v-647h-340z" />
    <glyph glyph-name="section" unicode="&#xa7;" horiz-adv-x="983" 
d="M592 561q0 49 -16.5 70.5t-51.5 38.5l-61 28q-68 -41 -68 -92t24.5 -75.5t57.5 -38.5l62 -27q53 47 53 96zM98 1061q0 311 469 311q131 0 210 -21.5t128 -39.5v-277q-78 20 -165.5 41t-147.5 21t-84.5 -13.5t-24.5 -49.5t42 -56.5t102 -46.5l108 -51q98 -45 152.5 -105.5
t54.5 -167.5q0 -159 -83 -201.5t-114 -48.5q140 -84 140 -241q0 -264 -180.5 -294t-268.5 -30q-213 0 -358 49v285q210 -59 284 -59t106 13t32 50t-36 56.5t-87 41.5l-98 43q-105 44 -171.5 110.5t-66.5 174.5t57 160t152 82q-152 73 -152 264z" />
    <glyph glyph-name="dieresis" unicode="&#xa8;" horiz-adv-x="1200" 
d="M493 1465.5q62 -66.5 62 -147.5t-57.5 -141.5t-158.5 -60.5t-165.5 63.5t-64.5 142.5t60 144.5t161 65.5t163 -66.5zM1056 1465.5q62 -66.5 62 -147.5t-57 -141.5t-159 -60.5t-166 64.5t-64 142.5t60 143.5t161 65.5t163 -66.5z" />
    <glyph glyph-name="copyright" unicode="&#xa9;" horiz-adv-x="1597" 
d="M865 303q-386 0 -386 408q0 228 117 315.5t266 87.5q85 0 154 -33v-194q-31 10 -63.5 20.5t-89.5 10.5t-95.5 -45.5t-38.5 -161.5q0 -205 131 -205q82 0 156 29v-201q-81 -31 -151 -31zM687 1249q-329 0 -329 -542q0 -271 117.5 -407t323.5 -136q205 0 322.5 133.5
t117.5 402.5t-111.5 409t-440.5 140zM1546 706q0 -374 -209 -581t-539.5 -207t-538.5 204t-208 582t208.5 584.5t537.5 206.5t539 -207.5t210 -581.5z" />
    <glyph glyph-name="ordfeminine" unicode="&#xaa;" horiz-adv-x="921" 
d="M25 467h870v-272h-870v272zM403 954q-88 0 -88 -82q0 -33 22.5 -52t57.5 -19t61.5 17.5t37.5 33.5v57q-4 6 -22.5 25.5t-68.5 19.5zM389 1444q274 0 346 -112.5t72 -205.5v-299h92v-196h-330l-37 69q-73 -98 -200 -98t-218 65t-91 191t91 204.5t228 78.5
q68 0 107.5 -23.5t44.5 -30.5v54q0 53 -41 69.5t-123 16.5t-211 -72l-64 178q182 111 334 111z" />
    <glyph glyph-name="guillemotleft" unicode="&#xab;" horiz-adv-x="1155" 
d="M922 16l-338 506l338 508l235 -160l-235 -348l235 -348zM348 16l-348 506l348 508l236 -160l-236 -348l236 -348z" />
    <glyph glyph-name="logicalnot" unicode="&#xac;" horiz-adv-x="1249" 
d="M840 203v329h-779v328h1127v-657h-348z" />
    <glyph glyph-name="uni00AD" unicode="&#xad;" horiz-adv-x="915" 
d="M66 625h772v-273h-772v273z" />
    <glyph glyph-name="registered" unicode="&#xae;" horiz-adv-x="1597" 
d="M874 880q0 47 -26.5 59.5t-69.5 12.5h-22v-207q76 16 92 33t21 36t5 66zM756 342h-228v758h248q155 0 213 -28t86.5 -73t28.5 -123t-41 -122.5t-111 -75.5q51 -31 76 -77t43 -99l53 -160h-252l-22 121q-10 53 -21.5 89t-40.5 64l-32 -6v-268zM687 1249q-329 0 -329 -542
q0 -271 117.5 -407t323.5 -136q205 0 322.5 133.5t117.5 402.5t-111.5 409t-440.5 140zM1546 706q0 -374 -209 -581t-539.5 -207t-538.5 204t-208 582t208.5 584.5t537.5 206.5t539 -207.5t210 -581.5z" />
    <glyph glyph-name="macron" unicode="&#xaf;" horiz-adv-x="1325" 
d="M55 1430h1143v-273h-1143v273z" />
    <glyph glyph-name="degree" unicode="&#xb0;" horiz-adv-x="1175" 
d="M436 1061q0 -59 48 -95t104 -36t101.5 39t45.5 100q0 15 -6 31q0 42 -50.5 70t-101.5 28q-50 0 -95.5 -39t-45.5 -98zM926.5 777q-148.5 -105 -361.5 -105t-341 113.5t-128 287.5t149.5 278.5t359.5 104.5t340 -113.5t130 -287.5q0 -173 -148.5 -278z" />
    <glyph glyph-name="plusminus" unicode="&#xb1;" horiz-adv-x="1478" 
d="M881 938v-338h-334v338h-477v324h477v321h334v-321h477v-324h-477zM70 131v324h1288v-324h-1288z" />
    <glyph glyph-name="twosuperior" unicode="&#xb2;" horiz-adv-x="724" 
d="M473 1167q0 82 -104 82q-49 0 -85 -32.5t-65 -61.5l-133 141q133 152 320 152q125 0 208.5 -73t83.5 -184q0 -110 -43 -164t-140 -115t-142 -107.5t-56 -65.5h215v99h207v-263h-663v179q71 116 138.5 174.5t109 86t95.5 67.5t54 85z" />
    <glyph glyph-name="threesuperior" unicode="&#xb3;" horiz-adv-x="704" 
d="M549 1034q115 -82 115 -206t-101.5 -195.5t-238.5 -71.5q-85 0 -166 40.5t-121 98.5l125 131q35 -35 71.5 -57t118.5 -22t82 92t-100 92h-92v145h88q45 0 74.5 21.5t29.5 67.5t-33.5 70t-72.5 24q-76 0 -146 -74l-119 143q63 71 142.5 94t122.5 23q150 0 231.5 -70.5
t81.5 -189.5q0 -63 -34 -100t-58 -56z" />
    <glyph glyph-name="acute" unicode="&#xb4;" horiz-adv-x="1042" 
d="M485 1436l-309 -291h-256l160 291h405z" />
    <glyph glyph-name="mu" unicode="&#xb5;" horiz-adv-x="1292" 
d="M-117 -428v274q154 0 194 85.5t40 211.5v611h-86v270h495v-494q0 -133 24 -195.5t82 -62.5t96 43t38 113v326h-135v270h530v-752h101v-272h-388l-49 98q0 -37 -58 -83t-132.5 -46t-108.5 90q-65 -315 -274 -401t-369 -86z" />
    <glyph glyph-name="paragraph" unicode="&#xb6;" horiz-adv-x="1284" 
d="M932 -258v1501h-141v-1501h-240v956q-236 0 -343.5 96.5t-107.5 270.5q0 290 189.5 326t296.5 36h585v-1685h-239z" />
    <glyph glyph-name="periodcentered" unicode="&#xb7;" horiz-adv-x="520" 
d="M425 980.5q64 -72.5 64 -160.5t-60 -151t-163 -63t-169 67.5t-66 151.5q0 85 63 156.5t165 71.5t166 -72.5z" />
    <glyph glyph-name="cedilla" unicode="&#xb8;" horiz-adv-x="878" 
d="M432 -166q-37 0 -57 -4l-21 35l56 176l161 -21l-32 -71q74 -6 115.5 -48.5t41.5 -90.5q0 -96 -60 -158t-172 -62t-196 41l66 127q50 -22 108 -22t58 49t-68 49z" />
    <glyph glyph-name="onesuperior" unicode="&#xb9;" horiz-adv-x="636" 
d="M463 1427v-694h115v-164h-492v164h123v455l-123 -58l-57 138q95 42 137.5 80t77.5 79h219z" />
    <glyph glyph-name="ordmasculine" unicode="&#xba;" horiz-adv-x="880" 
d="M25 467h839v-272h-839v272zM446 836q49 0 76 59t27 145t-28.5 145.5t-78.5 59.5t-80 -57.5t-30 -147.5t32.5 -147t81.5 -57zM16 1042q0 189 126.5 296.5t305.5 107.5q178 0 297 -113t119 -299t-119 -290.5t-300 -104.5q-178 0 -303.5 107t-125.5 296z" />
    <glyph glyph-name="guillemotright" unicode="&#xbb;" horiz-adv-x="1155" 
d="M809 16l-225 158l225 348l-236 348l236 160l348 -508zM236 16l-236 158l236 348l-236 348l236 160l348 -508z" />
    <glyph glyph-name="onequarter" unicode="&#xbc;" horiz-adv-x="1693" 
d="M1182 1536h239l-850 -1649h-239zM1276 375v227l-182 -227h182zM1530 858v-483h65v-133h-65v-80h65v-162h-397v162h78v80h-354v176l354 440h254zM526 1430v-695h115v-164h-491v164h122v455l-122 -57l-58 137q96 43 138 81t77 79h219z" />
    <glyph glyph-name="onehalf" unicode="&#xbd;" horiz-adv-x="1792" 
d="M1440 592q0 82 -105 82q-49 0 -85 -33t-64 -61l-133 141q133 152 319 151q127 0 210 -72.5t83 -183.5q0 -110 -46.5 -168t-150.5 -120q-36 -22 -100.5 -75.5t-83.5 -88.5h215v98h207v-262h-664v178q72 118 143 178t108.5 85.5t92 64.5t54.5 86zM1182 1536h239l-850 -1649
h-239zM526 1430v-695h115v-164h-491v164h122v455l-122 -57l-58 137q96 43 138 81t77 79h219z" />
    <glyph glyph-name="threequarters" unicode="&#xbe;" horiz-adv-x="1693" 
d="M594 1036q115 -82 115 -206t-101.5 -195.5t-238.5 -71.5q-85 0 -166 40.5t-121 98.5l125 132q35 -35 71.5 -57.5t118.5 -22.5t82 92t-100 92h-92v145h88q45 0 74.5 21.5t29.5 67.5t-33.5 70t-72.5 24q-76 0 -146 -74l-118 143q66 74 143.5 95.5t120.5 21.5
q150 0 231.5 -70.5t81.5 -189.5q0 -63 -34 -100t-58 -56zM1182 1536h239l-850 -1649h-239zM1276 375v227l-182 -227h182zM1530 858v-483h65v-133h-65v-80h65v-162h-397v162h78v80h-354v176l354 440h254z" />
    <glyph glyph-name="questiondown" unicode="&#xbf;" horiz-adv-x="1064" 
d="M356.5 661q-69.5 63 -69.5 151q0 89 65.5 151.5t169.5 62.5t173 -63t69 -148.5t-65.5 -151t-169 -65.5t-173 63zM492 -440q-216 0 -352 110t-136 310q0 157 135 260t163 133t28 61v113h379l2 -164q0 -72 -50.5 -128t-112 -104.5t-112.5 -90.5t-51 -85q0 -96 152 -96
q120 0 266 168l221 -223q-230 -264 -532 -264z" />
    <glyph glyph-name="Agrave" unicode="&#xc0;" horiz-adv-x="1685" 
d="M840 1843l159 -291h-256l-309 291h406zM641 653h268l-135 443zM1655 0h-821v268h194l-43 140h-420l-43 -140h160v-268h-651v268h139l276 899h-84v265h787l362 -1164h144v-268z" />
    <glyph glyph-name="Aacute" unicode="&#xc1;" horiz-adv-x="1685" 
d="M1217 1843l-310 -291h-256l160 291h406zM641 653h268l-135 443zM1655 0h-821v268h194l-43 140h-420l-43 -140h160v-268h-651v268h139l276 899h-84v265h787l362 -1164h144v-268z" />
    <glyph glyph-name="Acircumflex" unicode="&#xc2;" horiz-adv-x="1685" 
d="M1083 1526l-309 143l-252 -143l-102 190l391 244l387 -244zM641 653h268l-135 443zM1655 0h-821v268h194l-43 140h-420l-43 -140h160v-268h-651v268h139l276 899h-84v265h787l362 -1164h144v-268z" />
    <glyph glyph-name="Atilde" unicode="&#xc3;" horiz-adv-x="1685" 
d="M971 1536q-47 0 -79 12.5t-60.5 25.5t-59.5 25.5t-76 12.5q-82 0 -143 -62l-90 205q96 121 239 121q62 0 118.5 -24.5t87 -36t74.5 -11.5t86 18.5t62 41.5l93 -215q-92 -113 -252 -113zM641 653h268l-135 443zM1655 0h-821v268h194l-43 140h-420l-43 -140h160v-268h-651
v268h139l276 899h-84v265h787l362 -1164h144v-268z" />
    <glyph glyph-name="Adieresis" unicode="&#xc4;" horiz-adv-x="1685" 
d="M722 1873q62 -66 62 -147t-57 -141.5t-159 -60.5t-166 64.5t-64 141.5t59 143t161 66t164 -66zM1286.5 1872q61.5 -67 61.5 -147t-57 -140.5t-159 -60.5t-166.5 64.5t-64.5 141.5t59 143t162 66t164.5 -67zM641 653h268l-135 443zM1655 0h-821v268h194l-43 140h-420
l-43 -140h160v-268h-651v268h139l276 899h-84v265h787l362 -1164h144v-268z" />
    <glyph glyph-name="Aring" unicode="&#xc5;" horiz-adv-x="1685" 
d="M641 653h268l-135 443zM1655 0h-821v268h194l-43 140h-420l-43 -140h160v-268h-651v268h139l276 899h-84v265h787l362 -1164h144v-268zM957 1531.5q-71 -65.5 -169 -65.5t-167.5 64.5t-69.5 152.5t72.5 153t168.5 65t166 -64.5t70 -152t-71 -153zM874 1683.5
q0 36.5 -24 61t-60 24.5t-60.5 -24.5t-24.5 -61t24.5 -61.5t60.5 -25t60 25t24 61.5z" />
    <glyph glyph-name="AE" unicode="&#xc6;" horiz-adv-x="2379" 
d="M1174 653v514l-304 -514h304zM676 1432h1603v-453h-354v182h-328v-282h390v-273h-390v-334h328v191h354v-463h-1235v272h130v136h-449l-84 -140h158v-268h-711v268h139l533 899h-84v265z" />
    <glyph glyph-name="Ccedilla" unicode="&#xc7;" horiz-adv-x="1404" 
d="M651 -209q-37 0 -57 -4l-21 35l48 155q-270 36 -430 228.5t-160 496.5q0 176 59.5 316.5t151.5 238t201.5 148.5t197.5 51q140 0 216.5 -46.5t111.5 -92.5l47 115h321v-582h-366q-4 105 -58 181.5t-161 76.5t-174.5 -117.5t-67.5 -283.5t80.5 -278t218.5 -112
q108 0 186 64.5t105.5 96.5t34.5 40l239 -262q-167 -187 -330 -235t-258 -52l-28 -63q74 -6 115.5 -48.5t41.5 -90.5q0 -96 -60 -158t-172 -62t-196 41l66 127q49 -23 107 -23t58.5 49.5t-67.5 49.5z" />
    <glyph glyph-name="Egrave" unicode="&#xc8;" horiz-adv-x="1337" 
d="M791 1843l159 -291h-256l-309 291h406zM51 1432h1235v-453h-354v182h-328v-282h389v-273h-389v-334h328v191h354v-463h-1235v272h129v889h-129v271z" />
    <glyph glyph-name="Eacute" unicode="&#xc9;" horiz-adv-x="1337" 
d="M1042 1843l-309 -291h-256l160 291h405zM51 1432h1235v-453h-354v182h-328v-282h389v-273h-389v-334h328v191h354v-463h-1235v272h129v889h-129v271z" />
    <glyph glyph-name="Ecircumflex" unicode="&#xca;" horiz-adv-x="1337" 
d="M909 1526l-284 143l-277 -143l-102 190l391 244l387 -244zM51 1432h1235v-453h-354v182h-328v-282h389v-273h-389v-334h328v191h354v-463h-1235v272h129v889h-129v271z" />
    <glyph glyph-name="Edieresis" unicode="&#xcb;" horiz-adv-x="1337" 
d="M548 1873q62 -66 62 -147t-57 -141.5t-159 -60.5t-166 64.5t-64 141.5t59 143t161 66t164 -66zM1111.5 1872.5q62.5 -66.5 62.5 -147.5q0 -80 -57 -140.5t-159 -60.5t-166.5 64.5t-64.5 141.5t59 143t161 66t164.5 -66.5zM51 1432h1235v-453h-354v182h-328v-282h389v-273
h-389v-334h328v191h354v-463h-1235v272h129v889h-129v271z" />
    <glyph glyph-name="Igrave" unicode="&#xcc;" horiz-adv-x="782" 
d="M514 1843l160 -291h-256l-309 291h405zM51 1432h680v-271h-127v-889h127v-272h-680v272h129v889h-129v271z" />
    <glyph glyph-name="Iacute" unicode="&#xcd;" horiz-adv-x="782" 
d="M766 1843l-309 -291h-256l159 291h406zM51 1432h680v-271h-127v-889h127v-272h-680v272h129v889h-129v271z" />
    <glyph glyph-name="Icircumflex" unicode="&#xce;" horiz-adv-x="782" 
d="M678 1526l-285 143l-276 -143l-103 190l392 244l387 -244zM51 1432h680v-271h-127v-889h127v-272h-680v272h129v889h-129v271z" />
    <glyph glyph-name="Idieresis" unicode="&#xcf;" horiz-adv-x="782" 
d="M272.5 1872q61.5 -67 61.5 -147t-57.5 -140.5t-158.5 -60.5t-166 64t-65 141t59 143.5t162 66.5t164.5 -67zM835.5 1872q61.5 -67 61.5 -147t-57.5 -140.5t-158.5 -60.5t-165.5 63.5t-64.5 142.5q0 78 59 143.5t161.5 65.5t164 -67zM51 1432h680v-271h-127v-889h127v-272
h-680v272h129v889h-129v271z" />
    <glyph glyph-name="Eth" unicode="&#xd0;" horiz-adv-x="1474" 
d="M906.5 1038q-76.5 123 -230.5 123h-78v-305h82v-272h-82v-312h78q154 0 230.5 129t76.5 321q0 193 -76.5 316zM86 856h92v305h-127v271h625q358 0 568 -196t210 -501q0 -352 -202.5 -543.5t-583.5 -191.5h-617v272h127v312h-92v272z" />
    <glyph glyph-name="Ntilde" unicode="&#xd1;" horiz-adv-x="1671" 
d="M963 1536q-47 0 -79 12.5t-60.5 25.5t-59.5 25.5t-76 12.5q-82 0 -143 -62l-90 205q96 121 239 121q63 0 118.5 -24.5t86.5 -36t75 -11.5t86 18.5t62 41.5l92 -215q-92 -113 -251 -113zM1620 1167h-135v-1167h-441l-522 780v-516h158v-264h-629v264h121v903h-119v265h588
l504 -752v487h-141v265h616v-265z" />
    <glyph glyph-name="Ograve" unicode="&#xd2;" 
d="M881 1843l159 -291h-256l-309 291h406zM916 400.5q57 115.5 57 308.5q0 309 -83.5 377.5t-137.5 68.5q-98 0 -156.5 -120t-58.5 -314q0 -195 63 -315.5t161 -120.5t155 115.5zM31 703q0 352 199.5 559.5t519.5 207.5q365 0 550 -201.5t185 -557.5t-189 -552t-525 -196
q-340 0 -540 194t-200 546z" />
    <glyph glyph-name="Oacute" unicode="&#xd3;" 
d="M1133 1843l-310 -291h-256l160 291h406zM916 400.5q57 115.5 57 308.5q0 309 -83.5 377.5t-137.5 68.5q-98 0 -156.5 -120t-58.5 -314q0 -195 63 -315.5t161 -120.5t155 115.5zM31 703q0 352 199.5 559.5t519.5 207.5q365 0 550 -201.5t185 -557.5t-189 -552t-525 -196
q-340 0 -540 194t-200 546z" />
    <glyph glyph-name="Ocircumflex" unicode="&#xd4;" 
d="M997 1526l-284 143l-277 -143l-102 190l391 244l387 -244zM916 400.5q57 115.5 57 308.5q0 309 -83.5 377.5t-137.5 68.5q-98 0 -156.5 -120t-58.5 -314q0 -195 63 -315.5t161 -120.5t155 115.5zM31 703q0 352 199.5 559.5t519.5 207.5q365 0 550 -201.5t185 -557.5
t-189 -552t-525 -196q-340 0 -540 194t-200 546z" />
    <glyph glyph-name="Otilde" unicode="&#xd5;" 
d="M885 1536q-47 0 -79 12.5t-60.5 25.5t-59.5 25.5t-76 12.5q-82 0 -143 -62l-90 205q96 121 239 121q62 0 118.5 -24.5t87 -36t74.5 -11.5t86 18.5t62 41.5l93 -215q-92 -113 -252 -113zM916 400.5q57 115.5 57 308.5q0 309 -83.5 377.5t-137.5 68.5q-98 0 -156.5 -120
t-58.5 -314q0 -195 63 -315.5t161 -120.5t155 115.5zM31 703q0 352 199.5 559.5t519.5 207.5q365 0 550 -201.5t185 -557.5t-189 -552t-525 -196q-340 0 -540 194t-200 546z" />
    <glyph glyph-name="Odieresis" unicode="&#xd6;" 
d="M636 1873q62 -66 62 -147t-57 -141.5t-159 -60.5t-166 64.5t-64 141.5t59 143t161 66t164 -66zM1200.5 1872q61.5 -67 61.5 -147t-57 -140.5t-159 -60.5t-166.5 64.5t-64.5 141.5t59 143t162 66t164.5 -67zM916 400.5q57 115.5 57 308.5q0 309 -83.5 377.5t-137.5 68.5
q-98 0 -156.5 -120t-58.5 -314q0 -195 63 -315.5t161 -120.5t155 115.5zM31 703q0 352 199.5 559.5t519.5 207.5q365 0 550 -201.5t185 -557.5t-189 -552t-525 -196q-340 0 -540 194t-200 546z" />
    <glyph glyph-name="multiply" unicode="&#xd7;" horiz-adv-x="1478" 
d="M725 465l-346 -346l-236 237l344 344l-335 338l227 228l338 -336l338 338l237 -236l-340 -340l338 -336l-229 -229z" />
    <glyph glyph-name="Oslash" unicode="&#xd8;" 
d="M754 285q105 0 162 115.5t57 308.5q0 50 -4 96l-324 -465q49 -55 109 -55zM552 897q-15 -80 -15 -154t4 -122l331 477q-50 57 -112 57t-99.5 -31.5t-65.5 -89t-43 -137.5zM223 164q-192 200 -192 545t199.5 553t519.5 208q189 0 340 -61l16 23h299l-111 -158
q191 -195 191 -557t-189 -558t-532 -196q-186 0 -338 64l-18 -27h-299z" />
    <glyph glyph-name="Ugrave" unicode="&#xd9;" horiz-adv-x="1509" 
d="M745 1843l160 -291h-256l-309 291h405zM31 1432h651v-265h-111v-442q0 -333 78 -366t126 -33t128 27.5t80 373.5v434h-111v271h607v-265h-111v-497q0 -365 -149.5 -535t-438.5 -170q-311 10 -473 177t-162 517v506h-114v267z" />
    <glyph glyph-name="Uacute" unicode="&#xda;" horiz-adv-x="1509" 
d="M1208 1843l-309 -291h-256l160 291h405zM31 1432h651v-265h-111v-442q0 -333 78 -366t126 -33t128 27.5t80 373.5v434h-111v271h607v-265h-111v-497q0 -365 -149.5 -535t-438.5 -170q-311 10 -473 177t-162 517v506h-114v267z" />
    <glyph glyph-name="Ucircumflex" unicode="&#xdb;" horiz-adv-x="1509" 
d="M1051 1526l-285 143l-277 -143l-102 190l391 244l387 -244zM31 1432h651v-265h-111v-442q0 -333 78 -366t126 -33t128 27.5t80 373.5v434h-111v271h607v-265h-111v-497q0 -365 -149.5 -535t-438.5 -170q-311 10 -473 177t-162 517v506h-114v267z" />
    <glyph glyph-name="Udieresis" unicode="&#xdc;" horiz-adv-x="1509" 
d="M649.5 1872q61.5 -67 61.5 -147t-57.5 -140.5t-159.5 -60.5t-166 64.5t-64 141.5t59 143t162 66t164.5 -67zM1212.5 1872q61.5 -67 61.5 -147t-57.5 -140.5t-158.5 -60.5t-166 64t-65 141t59 143.5t162 66.5t164.5 -67zM31 1432h651v-265h-111v-442q0 -333 78 -366
t126 -33t128 27.5t80 373.5v434h-111v271h607v-265h-111v-497q0 -365 -149.5 -535t-438.5 -170q-311 10 -473 177t-162 517v506h-114v267z" />
    <glyph glyph-name="Yacute" unicode="&#xdd;" horiz-adv-x="1370" 
d="M1184 1843l-310 -291h-256l160 291h406zM840 1169v263h551v-263h-111l-379 -665v-238h115v-266h-656v266h117v242l-397 661h-100v263h700v-263h-107l119 -217q4 -14 28.5 -72t35.5 -94h8q4 30 35.5 94t40.5 83l112 206h-112z" />
    <glyph glyph-name="Thorn" unicode="&#xde;" horiz-adv-x="1310" 
d="M590 823v-262h88q104 0 152.5 26.5t48.5 100.5q0 118 -73 126.5t-118 8.5h-98zM37 1432h680v-271h-127v-71h125q474 0 519.5 -149t45.5 -245q0 -182 -148 -269t-391 -87h-151v-68h127v-272h-680v272h129v889h-129v271z" />
    <glyph glyph-name="germandbls" unicode="&#xdf;" horiz-adv-x="1361" 
d="M865.5 646.5q-58.5 68.5 -134.5 68.5l-4 243q74 0 124 36t50 98q0 110 -65.5 162.5t-159.5 52.5q-44 0 -89.5 -29.5t-45.5 -79.5v-930h92v-268h-580v268h82v490h-84v266h84v174q0 43 33 107.5t144.5 166t361.5 101.5q396 0 482.5 -161t86.5 -273q0 -154 -151 -260
q119 -86 166 -205.5t47 -211.5t-53.5 -186t-185 -198.5t-351.5 -104.5l2 297q84 0 145.5 71.5t61.5 154.5q0 82 -58.5 150.5z" />
    <glyph glyph-name="agrave" unicode="&#xe0;" horiz-adv-x="1228" 
d="M465 1436l160 -291h-256l-310 291h406zM528 227q47 0 82 22.5t49 45.5v78q-30 59 -105 59q-134 0 -134 -108q0 -43 30.5 -70t77.5 -27zM457 680q130 0 202 -72v72q0 70 -55 92.5t-143 22.5q-131 0 -301 -95l-86 238q250 145 446 145q365 0 460 -149.5t95 -271.5v-400h123
v-262h-438l-49 92q-97 -131 -267 -131t-291.5 87t-121.5 255t123.5 272.5t302.5 104.5z" />
    <glyph glyph-name="aacute" unicode="&#xe1;" horiz-adv-x="1228" 
d="M989 1436l-309 -291h-256l160 291h405zM528 227q47 0 82 22.5t49 45.5v78q-30 59 -105 59q-134 0 -134 -108q0 -43 30.5 -70t77.5 -27zM457 680q130 0 202 -72v72q0 70 -55 92.5t-143 22.5q-131 0 -301 -95l-86 238q250 145 446 145q365 0 460 -149.5t95 -271.5v-400h123
v-262h-438l-49 92q-97 -131 -267 -131t-291.5 87t-121.5 255t123.5 272.5t302.5 104.5z" />
    <glyph glyph-name="acircumflex" unicode="&#xe2;" horiz-adv-x="1228" 
d="M854 1118l-285 144l-276 -144l-103 191l392 243l387 -243zM528 227q47 0 82 22.5t49 45.5v78q-30 59 -105 59q-134 0 -134 -108q0 -43 30.5 -70t77.5 -27zM457 680q130 0 202 -72v72q0 70 -55 92.5t-143 22.5q-131 0 -301 -95l-86 238q250 145 446 145q365 0 460 -149.5
t95 -271.5v-400h123v-262h-438l-49 92q-97 -131 -267 -131t-291.5 87t-121.5 255t123.5 272.5t302.5 104.5z" />
    <glyph glyph-name="atilde" unicode="&#xe3;" horiz-adv-x="1228" 
d="M719 1124q-47 0 -79 12.5t-86 38t-123 25.5t-130 -61l-90 204q96 121 240 121q65 0 119.5 -24.5t85 -35.5t74.5 -11t86 18.5t63 40.5l92 -215q-92 -113 -252 -113zM528 227q47 0 82 22.5t49 45.5v78q-30 59 -105 59q-134 0 -134 -108q0 -43 30.5 -70t77.5 -27zM457 680
q130 0 202 -72v72q0 70 -55 92.5t-143 22.5q-131 0 -301 -95l-86 238q250 145 446 145q365 0 460 -149.5t95 -271.5v-400h123v-262h-438l-49 92q-97 -131 -267 -131t-291.5 87t-121.5 255t123.5 272.5t302.5 104.5z" />
    <glyph glyph-name="adieresis" unicode="&#xe4;" horiz-adv-x="1228" 
d="M493 1465.5q62 -66.5 62 -147.5t-57.5 -141.5t-158.5 -60.5t-165.5 63.5t-64.5 142.5t60 144.5t161 65.5t163 -66.5zM1056 1465.5q62 -66.5 62 -147.5t-57 -141.5t-159 -60.5t-166 64.5t-64 142.5t60 143.5t161 65.5t163 -66.5zM528 227q47 0 82 22.5t49 45.5v78
q-30 59 -105 59q-134 0 -134 -108q0 -43 30.5 -70t77.5 -27zM457 680q130 0 202 -72v72q0 70 -55 92.5t-143 22.5q-131 0 -301 -95l-86 238q250 145 446 145q365 0 460 -149.5t95 -271.5v-400h123v-262h-438l-49 92q-97 -131 -267 -131t-291.5 87t-121.5 255t123.5 272.5
t302.5 104.5z" />
    <glyph glyph-name="aring" unicode="&#xe5;" horiz-adv-x="1228" 
d="M528 227q47 0 82 22.5t49 45.5v78q-30 59 -105 59q-134 0 -134 -108q0 -43 30.5 -70t77.5 -27zM457 680q130 0 202 -72v72q0 70 -55 92.5t-143 22.5q-131 0 -301 -95l-86 238q250 145 446 145q365 0 460 -149.5t95 -271.5v-400h123v-262h-438l-49 92q-97 -131 -267 -131
t-291.5 87t-121.5 255t123.5 272.5t302.5 104.5zM735 1176.5q-72 -64.5 -168 -64.5t-166.5 64t-70.5 153t73 153t168 64t165.5 -64t70.5 -152.5t-72 -153zM653 1329q0 37 -24.5 61.5t-60.5 24.5t-60.5 -24.5t-24.5 -61.5t24.5 -61.5t61.5 -24.5t60.5 24.5t23.5 61.5z" />
    <glyph glyph-name="ae" unicode="&#xe6;" horiz-adv-x="1853" 
d="M528 227q47 0 82 22.5t49 45.5v78q-30 59 -105 59q-134 0 -134 -108q0 -43 30.5 -70t77.5 -27zM1248 776q-82 0 -116.5 -51t-41.5 -113h309q0 116 -51.5 140t-99.5 24zM1753 141q-209 -178 -502 -178t-446 184q-57 -76 -192 -148t-307 -22.5t-223.5 143t-51.5 181.5
q0 170 123.5 274.5t302.5 104.5q130 0 202 -72v72q0 70 -55 92.5t-143 22.5q-131 0 -301 -95l-86 238q250 145 446 145q251 0 406 -110q135 80 286 80q270 0 405.5 -135t135.5 -353q0 -87 -24 -155h-646q13 -67 56 -117.5t155 -50.5q172 0 287 98z" />
    <glyph glyph-name="ccedilla" unicode="&#xe7;" horiz-adv-x="1087" 
d="M645 272q134 0 242 117l180 -209q-66 -72 -179.5 -132t-258.5 -73l-29 -63q74 -6 116 -48.5t42 -90.5q0 -95 -59 -157t-174 -62t-195 40l65 127q49 -23 108 -23t58.5 49.5t-67.5 49.5q-38 0 -58 -4l-20 35l47 152q-200 25 -330.5 166t-130.5 384q0 244 144.5 378
t359.5 134q157 0 256 -116l35 98h241v-463h-301q-12 215 -129 215q-85 0 -132.5 -78.5t-47.5 -182.5q0 -105 57.5 -174t159.5 -69z" />
    <glyph glyph-name="egrave" unicode="&#xe8;" horiz-adv-x="1110" 
d="M553 1436l160 -291h-256l-310 291h406zM574 776q-82 0 -116.5 -51t-41.5 -113h309q0 116 -51.5 140t-99.5 24zM1079 141q-209 -178 -496 -178q-247 0 -410 141.5t-163 399.5t155.5 403.5t399.5 145.5t379 -135t135 -353q0 -87 -24 -155h-645q14 -68 56 -118t155 -50
q171 0 286 98z" />
    <glyph glyph-name="eacute" unicode="&#xe9;" horiz-adv-x="1110" 
d="M930 1436l-309 -291h-256l159 291h406zM574 776q-82 0 -116.5 -51t-41.5 -113h309q0 116 -51.5 140t-99.5 24zM1079 141q-209 -178 -496 -178q-247 0 -410 141.5t-163 399.5t155.5 403.5t399.5 145.5t379 -135t135 -353q0 -87 -24 -155h-645q14 -68 56 -118t155 -50
q171 0 286 98z" />
    <glyph glyph-name="ecircumflex" unicode="&#xea;" horiz-adv-x="1110" 
d="M852 1110l-285 143l-276 -143l-103 190l392 244l387 -244zM574 776q-82 0 -116.5 -51t-41.5 -113h309q0 116 -51.5 140t-99.5 24zM1079 141q-209 -178 -496 -178q-247 0 -410 141.5t-163 399.5t155.5 403.5t399.5 145.5t379 -135t135 -353q0 -87 -24 -155h-645
q14 -68 56 -118t155 -50q171 0 286 98z" />
    <glyph glyph-name="edieresis" unicode="&#xeb;" horiz-adv-x="1110" 
d="M436 1465.5q62 -66.5 62 -147.5t-57 -141.5t-159 -60.5t-166.5 64.5t-64.5 141.5t59.5 143.5t161.5 66.5t164 -66.5zM999 1465.5q62 -66.5 62 -147.5t-57.5 -141.5t-158.5 -60.5t-166 64t-65 142t59.5 144t161.5 66t164 -66.5zM574 776q-82 0 -116.5 -51t-41.5 -113h309
q0 116 -51.5 140t-99.5 24zM1079 141q-209 -178 -496 -178q-247 0 -410 141.5t-163 399.5t155.5 403.5t399.5 145.5t379 -135t135 -353q0 -87 -24 -155h-645q14 -68 56 -118t155 -50q171 0 286 98z" />
    <glyph glyph-name="igrave" unicode="&#xec;" horiz-adv-x="675" 
d="M461 1436l164 -291h-260l-310 291h406zM625 0h-574v268h86v490h-86v266h475v-756h99v-268z" />
    <glyph glyph-name="iacute" unicode="&#xed;" horiz-adv-x="675" 
d="M621 1436l-310 -291h-256l160 291h406zM625 0h-574v268h86v490h-86v266h475v-756h99v-268z" />
    <glyph glyph-name="icircumflex" unicode="&#xee;" horiz-adv-x="675" 
d="M559 1118l-285 144l-276 -144l-102 191l391 243l387 -243zM625 0h-574v268h86v490h-86v266h475v-756h99v-268z" />
    <glyph glyph-name="idieresis" unicode="&#xef;" horiz-adv-x="675" 
d="M219 1465.5q62 -66.5 62 -147.5t-57.5 -141.5t-159.5 -60.5t-166 64.5t-64 141.5t59.5 143.5t161.5 66.5t164 -66.5zM782 1465.5q62 -66.5 62 -147.5t-57 -141.5t-159 -60.5t-166.5 64.5t-64.5 141.5t59.5 143.5t161.5 66.5t164 -66.5zM625 0h-574v268h86v490h-86v266
h475v-756h99v-268z" />
    <glyph glyph-name="eth" unicode="&#xf0;" horiz-adv-x="1169" 
d="M693.5 704.5q-39.5 77.5 -109.5 77.5q-93 0 -117.5 -106.5t-24.5 -161.5q0 -127 43 -202.5t108 -75.5t102.5 75t37.5 195.5t-39.5 198zM995 1300v-174h-172l189 -245q66 -76 103.5 -164t37.5 -216q0 -245 -159.5 -386.5t-398.5 -141.5t-405.5 141.5t-166.5 392.5
t167 396.5t392 145.5l-82 77h-346v174h165l-139 136h406l102 -136h307z" />
    <glyph glyph-name="ntilde" unicode="&#xf1;" horiz-adv-x="1325" 
d="M752 1128q-47 0 -79 12.5t-86 38t-123 25.5t-130 -61l-90 205q96 120 239 120q67 0 120.5 -24.5t84.5 -35.5t75 -11t86 18.5t62 40.5l93 -215q-92 -113 -252 -113zM535 559v-291h147v-268h-631v268h86v490h-86v266h436l48 -127q121 164 292 164q216 0 293.5 -126.5
t77.5 -324.5v-342h96v-268h-516v559q0 86 -18 138.5t-96 52.5q-129 0 -129 -191z" />
    <glyph glyph-name="ograve" unicode="&#xf2;" horiz-adv-x="1175" 
d="M586 1436l159 -291h-256l-309 291h406zM693.5 704.5q-39.5 77.5 -109.5 77.5q-93 0 -117.5 -106.5t-24.5 -161.5q0 -127 43 -202.5t108 -75.5t102.5 75t37.5 195.5t-39.5 198zM23 509q0 253 167 396.5t404 143.5t398 -148.5t161 -396.5t-159.5 -389.5t-396.5 -141.5
q-241 0 -407.5 141.5t-166.5 394.5z" />
    <glyph glyph-name="oacute" unicode="&#xf3;" horiz-adv-x="1175" 
d="M963 1436l-310 -291h-256l160 291h406zM693.5 704.5q-39.5 77.5 -109.5 77.5q-93 0 -117.5 -106.5t-24.5 -161.5q0 -127 43 -202.5t108 -75.5t102.5 75t37.5 195.5t-39.5 198zM23 509q0 253 167 396.5t404 143.5t398 -148.5t161 -396.5t-159.5 -389.5t-396.5 -141.5
q-241 0 -407.5 141.5t-166.5 394.5z" />
    <glyph glyph-name="ocircumflex" unicode="&#xf4;" horiz-adv-x="1175" 
d="M827 1118l-284 144l-277 -144l-102 191l391 243l387 -243zM693.5 704.5q-39.5 77.5 -109.5 77.5q-93 0 -117.5 -106.5t-24.5 -161.5q0 -127 43 -202.5t108 -75.5t102.5 75t37.5 195.5t-39.5 198zM23 509q0 253 167 396.5t404 143.5t398 -148.5t161 -396.5t-159.5 -389.5
t-396.5 -141.5q-241 0 -407.5 141.5t-166.5 394.5z" />
    <glyph glyph-name="otilde" unicode="&#xf5;" horiz-adv-x="1175" 
d="M715 1128q-47 0 -79 12.5t-86 38t-123 25.5t-130 -61l-90 205q96 120 239 120q66 0 120.5 -24.5t85 -35.5t74.5 -11t86 18.5t62 40.5l93 -215q-92 -113 -252 -113zM693.5 704.5q-39.5 77.5 -109.5 77.5q-93 0 -117.5 -106.5t-24.5 -161.5q0 -127 43 -202.5t108 -75.5
t102.5 75t37.5 195.5t-39.5 198zM23 509q0 253 167 396.5t404 143.5t398 -148.5t161 -396.5t-159.5 -389.5t-396.5 -141.5q-241 0 -407.5 141.5t-166.5 394.5z" />
    <glyph glyph-name="odieresis" unicode="&#xf6;" horiz-adv-x="1175" 
d="M467.5 1466q62.5 -66 62.5 -147q0 -82 -57 -142.5t-159 -60.5t-166 64.5t-64 141.5t59.5 143.5t160.5 66.5t163.5 -66zM1032 1465.5q62 -66.5 62 -147.5t-57 -141.5t-159 -60.5t-166.5 64.5t-64.5 141.5t59.5 143.5t161.5 66.5t164 -66.5zM693.5 704.5
q-39.5 77.5 -109.5 77.5q-93 0 -117.5 -106.5t-24.5 -161.5q0 -127 43 -202.5t108 -75.5t102.5 75t37.5 195.5t-39.5 198zM23 509q0 253 167 396.5t404 143.5t398 -148.5t161 -396.5t-159.5 -389.5t-396.5 -141.5q-241 0 -407.5 141.5t-166.5 394.5z" />
    <glyph glyph-name="divide" unicode="&#xf7;" horiz-adv-x="1073" 
d="M119 772h844v-272h-844v272zM712 1219.5q64 -72.5 64 -160.5t-60.5 -150.5t-162.5 -62.5t-169 66t-67 152t64 157t165.5 71t165.5 -72.5zM712.5 356.5q63.5 -73.5 63.5 -161.5t-65 -149.5t-164 -61.5t-164.5 65.5t-65.5 151.5t63.5 157.5t166 71.5t166 -73.5z" />
    <glyph glyph-name="oslash" unicode="&#xf8;" horiz-adv-x="1175" 
d="M584 782q-61 0 -101.5 -79.5t-40.5 -188.5v-35l213 273q-40 30 -71 30zM589 236q69 0 106.5 75t37.5 197v11q0 11 -2 22l-213 -275q33 -30 71 -30zM170 131q-147 139 -147 385t167 389.5t394 143.5q121 0 262 -54l24 31h242l-108 -137q149 -149 149 -391t-159.5 -383.5
t-399.5 -141.5q-139 0 -264 54l-21 -27h-241z" />
    <glyph glyph-name="ugrave" unicode="&#xf9;" horiz-adv-x="1292" 
d="M643 1436l160 -291h-256l-309 291h405zM31 1024h495v-494q0 -133 24 -195.5t82 -62.5t96 43t38 113v326h-135v270h530v-752h101v-272h-388l-55 129q-16 -18 -74.5 -88t-219.5 -70q-223 0 -315.5 119t-92.5 381v283h-86v270z" />
    <glyph glyph-name="uacute" unicode="&#xfa;" horiz-adv-x="1292" 
d="M1020 1436l-309 -291h-256l159 291h406zM31 1024h495v-494q0 -133 24 -195.5t82 -62.5t96 43t38 113v326h-135v270h530v-752h101v-272h-388l-55 129q-16 -18 -74.5 -88t-219.5 -70q-223 0 -315.5 119t-92.5 381v283h-86v270z" />
    <glyph glyph-name="ucircumflex" unicode="&#xfb;" horiz-adv-x="1292" 
d="M887 1118l-285 144l-276 -144l-103 191l391 243l387 -243zM31 1024h495v-494q0 -133 24 -195.5t82 -62.5t96 43t38 113v326h-135v270h530v-752h101v-272h-388l-55 129q-16 -18 -74.5 -88t-219.5 -70q-223 0 -315.5 119t-92.5 381v283h-86v270z" />
    <glyph glyph-name="udieresis" unicode="&#xfc;" horiz-adv-x="1292" 
d="M526 1465.5q62 -66.5 62 -147.5t-57 -141.5t-159 -60.5t-166.5 64.5t-64.5 141.5t59.5 143.5t161.5 66.5t164 -66.5zM1089 1465.5q62 -66.5 62 -147.5t-57.5 -141.5t-158.5 -60.5t-165.5 63.5t-64.5 142.5t59 144.5t161 65.5t164 -66.5zM31 1024h495v-494
q0 -133 24 -195.5t82 -62.5t96 43t38 113v326h-135v270h530v-752h101v-272h-388l-55 129q-16 -18 -74.5 -88t-219.5 -70q-223 0 -315.5 119t-92.5 381v283h-86v270z" />
    <glyph glyph-name="yacute" unicode="&#xfd;" horiz-adv-x="1187" 
d="M969 1436l-320 -291h-246l160 291h406zM-18 762v262h630v-260h-96l133 -320l133 320h-94v260h520v-254h-98l-389 -946q-23 -49 -91.5 -169t-348.5 -120q-138 7 -248 103l153 241q77 -72 127 -72t79.5 35t43.5 76l29 86l-399 758h-84z" />
    <glyph glyph-name="thorn" unicode="&#xfe;" horiz-adv-x="1306" 
d="M846 500q0 158 -57.5 205t-90.5 47q-57 0 -101 -63.5t-44 -174.5q0 -186 57.5 -228t89.5 -42q66 0 106 69.5t40 186.5zM51 -150h86v1422h-84v264h475v-604l27 20q123 88 245 88q233 0 359.5 -153.5t126.5 -387.5t-132 -378t-335 -144q-152 0 -206 38t-60 42v-207h111
v-268h-613v268z" />
    <glyph glyph-name="ydieresis" unicode="&#xff;" horiz-adv-x="1187" 
d="M475 1465.5q62 -66.5 62 -147.5t-57.5 -141.5t-159.5 -60.5t-166 64.5t-64 141.5t59.5 143.5t161.5 66.5t164 -66.5zM1038 1465.5q62 -66.5 62 -147.5t-57 -141.5t-159 -60.5t-166.5 64.5t-64.5 141.5t59.5 143.5t161.5 66.5t164 -66.5zM-18 762v262h630v-260h-96
l133 -320l133 320h-94v260h520v-254h-98l-389 -946q-23 -49 -91.5 -169t-348.5 -120q-138 7 -248 103l153 241q77 -72 127 -72t79.5 35t43.5 76l29 86l-399 758h-84z" />
    <glyph glyph-name="Amacron" unicode="&#x100;" horiz-adv-x="1685" 
d="M227 1837h1143v-272h-1143v272zM641 653h268l-135 443zM1655 0h-821v268h194l-43 140h-420l-43 -140h160v-268h-651v268h139l276 899h-84v265h787l362 -1164h144v-268z" />
    <glyph glyph-name="amacron" unicode="&#x101;" horiz-adv-x="1228" 
d="M98 1430h1022v-273h-1022v273zM528 227q47 0 82 22.5t49 45.5v78q-30 59 -105 59q-134 0 -134 -108q0 -43 30.5 -70t77.5 -27zM457 680q130 0 202 -72v72q0 70 -55 92.5t-143 22.5q-131 0 -301 -95l-86 238q250 145 446 145q365 0 460 -149.5t95 -271.5v-400h123v-262
h-438l-49 92q-97 -131 -267 -131t-291.5 87t-121.5 255t123.5 272.5t302.5 104.5z" />
    <glyph glyph-name="Abreve" unicode="&#x102;" horiz-adv-x="1685" 
d="M814 1526q-164 0 -284 87.5t-143 248.5h318q10 -66 38.5 -103t68.5 -37q76 0 99 142l318 2q-20 -161 -135.5 -250.5t-279.5 -89.5zM641 653h268l-135 443zM1655 0h-821v268h194l-43 140h-420l-43 -140h160v-268h-651v268h139l276 899h-84v265h787l362 -1164h144v-268z
" />
    <glyph glyph-name="abreve" unicode="&#x103;" horiz-adv-x="1228" 
d="M287 1269.5q-119 87.5 -144 248.5h318q10 -66 38.5 -103t68.5 -37q75 0 100 142l317 2q-20 -160 -135 -250t-279 -90q-165 0 -284 87.5zM528 227q47 0 82 22.5t49 45.5v78q-30 59 -105 59q-134 0 -134 -108q0 -43 30.5 -70t77.5 -27zM457 680q130 0 202 -72v72
q0 70 -55 92.5t-143 22.5q-131 0 -301 -95l-86 238q250 145 446 145q365 0 460 -149.5t95 -271.5v-400h123v-262h-438l-49 92q-97 -131 -267 -131t-291.5 87t-121.5 255t123.5 272.5t302.5 104.5z" />
    <glyph glyph-name="Aogonek" unicode="&#x104;" horiz-adv-x="1685" 
d="M641 653h268l-135 443zM1372 -545q-352 0 -352 322q0 92 22.5 141t44.5 82h-253v268h194l-43 140h-420l-43 -140h160v-268h-651v268h139l276 899h-84v265h787l362 -1164h144v-268h-234l-39 -23q-79 -44 -79 -142q0 -40 34.5 -68.5t87.5 -28.5t230 61v-293
q-120 -51 -283 -51z" />
    <glyph glyph-name="aogonek" unicode="&#x105;" horiz-adv-x="1228" 
d="M528 227q47 0 82 22.5t49 45.5v78q-30 59 -105 59q-134 0 -134 -108q0 -43 30.5 -70t77.5 -27zM457 680q130 0 202 -72v72q0 70 -55 92.5t-143 22.5q-131 0 -301 -95l-86 238q250 145 446 145q365 0 460 -149.5t95 -271.5v-400h123v-262h-59l-39 -23q-80 -45 -80 -142
q0 -40 35 -68.5t89 -28.5t228 61v-293q-120 -51 -282 -51t-257.5 72.5t-95.5 261.5q0 80 22.5 129t45.5 82h-45l-49 92q-97 -131 -267 -131t-291.5 87t-121.5 255t123.5 272.5t302.5 104.5z" />
    <glyph glyph-name="Cacute" unicode="&#x106;" horiz-adv-x="1404" 
d="M1079 1843l-309 -291h-256l160 291h405zM1374 256q-269 -289 -609 -289t-537 198t-197 537q0 176 59.5 316.5t151.5 238t201.5 148.5t197.5 51q140 0 216.5 -46.5t111.5 -92.5l47 115h321v-582h-366q-4 105 -58 181.5t-161 76.5t-174.5 -117.5t-67.5 -283.5t80.5 -278
t218.5 -112q108 0 186 64.5t105.5 96.5t34.5 40z" />
    <glyph glyph-name="cacute" unicode="&#x107;" horiz-adv-x="1087" 
d="M922 1436l-310 -291h-256l160 291h406zM428 515q0 -105 57.5 -174t159.5 -69q134 0 242 117l180 -209q-132 -139 -275.5 -174t-241.5 -35t-200 34t-225 143.5t-123 367.5t144.5 392t359.5 134q157 0 256 -116l35 98h241v-463h-301q-12 215 -129 215q-85 0 -132.5 -78
t-47.5 -183z" />
    <glyph glyph-name="Ccircumflex" unicode="&#x108;" horiz-adv-x="1404" 
d="M977 1526l-285 143l-276 -143l-103 190l392 244l387 -244zM1374 256q-269 -289 -609 -289t-537 198t-197 537q0 176 59.5 316.5t151.5 238t201.5 148.5t197.5 51q140 0 216.5 -46.5t111.5 -92.5l47 115h321v-582h-366q-4 105 -58 181.5t-161 76.5t-174.5 -117.5
t-67.5 -283.5t80.5 -278t218.5 -112q108 0 186 64.5t105.5 96.5t34.5 40z" />
    <glyph glyph-name="ccircumflex" unicode="&#x109;" horiz-adv-x="1087" 
d="M817 1118l-285 144l-276 -144l-102 191l391 243l387 -243zM428 515q0 -105 57.5 -174t159.5 -69q134 0 242 117l180 -209q-132 -139 -275.5 -174t-241.5 -35t-200 34t-225 143.5t-123 367.5t144.5 392t359.5 134q157 0 256 -116l35 98h241v-463h-301q-12 215 -129 215
q-85 0 -132.5 -78t-47.5 -183z" />
    <glyph glyph-name="Cdotaccent" unicode="&#x10a;" horiz-adv-x="1404" 
d="M864.5 1872q61.5 -67 61.5 -147t-57 -140.5t-159 -60.5t-166.5 64.5t-64.5 141.5t59 143t162 66t164.5 -67zM1374 256q-269 -289 -609 -289t-537 198t-197 537q0 176 59.5 316.5t151.5 238t201.5 148.5t197.5 51q140 0 216.5 -46.5t111.5 -92.5l47 115h321v-582h-366
q-4 105 -58 181.5t-161 76.5t-174.5 -117.5t-67.5 -283.5t80.5 -278t218.5 -112q108 0 186 64.5t105.5 96.5t34.5 40z" />
    <glyph glyph-name="cdotaccent" unicode="&#x10b;" horiz-adv-x="1087" 
d="M704 1465.5q62 -66.5 62 -147.5t-57.5 -141.5t-158.5 -60.5t-166 64t-65 142t59.5 144t161.5 66t164 -66.5zM428 515q0 -105 57.5 -174t159.5 -69q134 0 242 117l180 -209q-132 -139 -275.5 -174t-241.5 -35t-200 34t-225 143.5t-123 367.5t144.5 392t359.5 134
q157 0 256 -116l35 98h241v-463h-301q-12 215 -129 215q-85 0 -132.5 -78t-47.5 -183z" />
    <glyph glyph-name="Ccaron" unicode="&#x10c;" horiz-adv-x="1404" 
d="M428 1923l285 -143l276 143l103 -190l-392 -244l-387 244zM1374 256q-269 -289 -609 -289t-537 198t-197 537q0 176 59.5 316.5t151.5 238t201.5 148.5t197.5 51q140 0 216.5 -46.5t111.5 -92.5l47 115h321v-582h-366q-4 105 -58 181.5t-161 76.5t-174.5 -117.5
t-67.5 -283.5t80.5 -278t218.5 -112q108 0 186 64.5t105.5 96.5t34.5 40z" />
    <glyph glyph-name="ccaron" unicode="&#x10d;" horiz-adv-x="1087" 
d="M270 1516l285 -144l276 144l103 -191l-391 -244l-387 244zM428 515q0 -105 57.5 -174t159.5 -69q134 0 242 117l180 -209q-132 -139 -275.5 -174t-241.5 -35t-200 34t-225 143.5t-123 367.5t144.5 392t359.5 134q157 0 256 -116l35 98h241v-463h-301q-12 215 -129 215
q-85 0 -132.5 -78t-47.5 -183z" />
    <glyph glyph-name="Dcaron" unicode="&#x10e;" horiz-adv-x="1474" 
d="M463 1923l285 -143l276 143l102 -190l-391 -244l-387 244zM906.5 1038q-76.5 123 -230.5 123h-78v-889h78q154 0 230.5 129t76.5 321q0 193 -76.5 316zM51 0v272h127v889h-127v271h625q358 0 568 -196t210 -501q0 -352 -202.5 -543.5t-583.5 -191.5h-617z" />
    <glyph glyph-name="dcaron" unicode="&#x10f;" horiz-adv-x="1595" 
d="M461 522q0 -157 56 -204.5t91 -47.5q57 0 101.5 63.5t44.5 174.5q0 184 -57.5 227t-90.5 43q-66 0 -105.5 -69.5t-39.5 -186.5zM1378 1446v39q0 39 -2 59l258 -69v-19q0 -139 -61.5 -264t-167.5 -223l-164 96q137 179 137 381zM754 76q-94 -94 -286 -94q-81 0 -169 44
t-183.5 159.5t-95.5 342.5t140 371.5t336 144.5q109 0 169 -29.5t89 -47.5v303h-95v266h510v-1270h99v-266h-480z" />
    <glyph glyph-name="Dcroat" unicode="&#x110;" horiz-adv-x="1474" 
d="M906.5 1038q-76.5 123 -230.5 123h-78v-366h127v-181h-127v-342h78q154 0 230.5 129t76.5 321q0 193 -76.5 316zM39 795h139v366h-127v271h625q358 0 568 -196t210 -501q0 -352 -202.5 -543.5t-583.5 -191.5h-617v272h127v342h-139v181z" />
    <glyph glyph-name="dcroat" unicode="&#x111;" horiz-adv-x="1298" 
d="M461 522q0 -157 56 -204.5t91 -47.5q57 0 101.5 63.5t44.5 174.5q0 184 -57.5 227t-90.5 43q-66 0 -105.5 -69.5t-39.5 -186.5zM754 76q-94 -94 -286 -94q-81 0 -169 44t-183.5 159.5t-95.5 342.5t140 371.5t336 144.5q109 0 169 -29.5t89 -47.5v114h-207v133h207v56h-95
v266h510v-322h160v-133h-160v-815h99v-266h-480z" />
    <glyph glyph-name="Emacron" unicode="&#x112;" horiz-adv-x="1337" 
d="M96 1837h1143v-272h-1143v272zM51 1432h1235v-453h-354v182h-328v-282h389v-273h-389v-334h328v191h354v-463h-1235v272h129v889h-129v271z" />
    <glyph glyph-name="emacron" unicode="&#x113;" horiz-adv-x="1110" 
d="M63 1423h990v-266h-990v266zM574 776q-82 0 -116.5 -51t-41.5 -113h309q0 116 -51.5 140t-99.5 24zM1079 141q-209 -178 -496 -178q-247 0 -410 141.5t-163 399.5t155.5 403.5t399.5 145.5t379 -135t135 -353q0 -87 -24 -155h-645q14 -68 56 -118t155 -50q171 0 286 98z
" />
    <glyph glyph-name="Ebreve" unicode="&#x114;" horiz-adv-x="1337" 
d="M677 1542q-164 0 -284 87.5t-143 248.5h317q10 -66 39 -102.5t69 -36.5q76 0 99 141l318 2q-20 -161 -135.5 -250.5t-279.5 -89.5zM51 1432h1235v-453h-354v182h-328v-282h389v-273h-389v-334h328v191h354v-463h-1235v272h129v889h-129v271z" />
    <glyph glyph-name="ebreve" unicode="&#x115;" horiz-adv-x="1110" 
d="M603 1122q-164 0 -284 87.5t-143 248.5h318q10 -66 38.5 -102.5t68.5 -36.5q76 0 99 141l318 2q-20 -161 -135.5 -250.5t-279.5 -89.5zM574 776q-82 0 -116.5 -51t-41.5 -113h309q0 116 -51.5 140t-99.5 24zM1079 141q-209 -178 -496 -178q-247 0 -410 141.5t-163 399.5
t155.5 403.5t399.5 145.5t379 -135t135 -353q0 -87 -24 -155h-645q14 -68 56 -118t155 -50q171 0 286 98z" />
    <glyph glyph-name="Edotaccent" unicode="&#x116;" horiz-adv-x="1337" 
d="M829.5 1872q61.5 -67 61.5 -147t-57.5 -140.5t-158.5 -60.5t-166 64t-65 141t59 143.5t162 66.5t164.5 -67zM51 1432h1235v-453h-354v182h-328v-282h389v-273h-389v-334h328v191h354v-463h-1235v272h129v889h-129v271z" />
    <glyph glyph-name="edotaccent" unicode="&#x117;" horiz-adv-x="1110" 
d="M715.5 1466q62.5 -66 62.5 -147q0 -82 -57 -142.5t-159 -60.5t-166 64.5t-64 142.5t60 143.5t160.5 65.5t163 -66zM574 776q-82 0 -116.5 -51t-41.5 -113h309q0 116 -51.5 140t-99.5 24zM1079 141q-209 -178 -496 -178q-247 0 -410 141.5t-163 399.5t155.5 403.5
t399.5 145.5t379 -135t135 -353q0 -87 -24 -155h-645q14 -68 56 -118t155 -50q171 0 286 98z" />
    <glyph glyph-name="Eogonek" unicode="&#x118;" horiz-adv-x="1337" 
d="M1286 -494q-120 -51 -282 -51t-257.5 72.5t-95.5 261.5q0 80 22.5 129t45.5 82h-668v272h129v889h-129v271h1235v-453h-354v182h-328v-282h389v-273h-389v-334h328v191h354v-463h-233l-39 -23q-80 -45 -80 -142q0 -40 35 -68.5t89 -28.5t228 61v-293z" />
    <glyph glyph-name="eogonek" unicode="&#x119;" horiz-adv-x="1110" 
d="M574 776q-82 0 -116.5 -51t-41.5 -113h309q0 116 -51.5 140t-99.5 24zM633 -162q0 -43 34.5 -71.5t88.5 -28.5t229 61v-293q-120 -51 -282 -51t-257.5 72.5t-95.5 261.5q0 120 56 191v2q-268 62 -332 238.5t-64 299.5q0 241 155.5 387t399.5 146t379 -135t135 -353
q0 -87 -24 -155h-645q14 -68 56 -118t155 -50q171 0 286 98l172 -199q-160 -138 -374 -168q-72 -49 -72 -135z" />
    <glyph glyph-name="Ecaron" unicode="&#x11a;" horiz-adv-x="1337" 
d="M393 1923l285 -143l276 143l103 -190l-391 -244l-387 244zM51 1432h1235v-453h-354v182h-328v-282h389v-273h-389v-334h328v191h354v-463h-1235v272h129v889h-129v271z" />
    <glyph glyph-name="ecaron" unicode="&#x11b;" horiz-adv-x="1110" 
d="M281 1516l284 -144l277 144l102 -191l-391 -244l-387 244zM574 776q-82 0 -116.5 -51t-41.5 -113h309q0 116 -51.5 140t-99.5 24zM1079 141q-209 -178 -496 -178q-247 0 -410 141.5t-163 399.5t155.5 403.5t399.5 145.5t379 -135t135 -353q0 -87 -24 -155h-645
q14 -68 56 -118t155 -50q171 0 286 98z" />
    <glyph glyph-name="Gcircumflex" unicode="&#x11c;" horiz-adv-x="1589" 
d="M1069 1526l-285 143l-276 -143l-102 190l391 244l387 -244zM666 -18q-127 0 -244 50t-254 198t-137 473t141 484t253.5 214t228.5 55t187.5 -22.5t115.5 -51t67 -57.5t35 -41l43 148h305v-605h-367q-4 122 -71.5 191t-145.5 69q-137 0 -217 -112.5t-80 -273.5t75.5 -268
t205.5 -107q88 0 131 29.5t66 70.5v86h-125v219h680v-219h-82v-512h-410l-63 129q-35 -57 -123 -102t-215 -45z" />
    <glyph glyph-name="gcircumflex" unicode="&#x11d;" horiz-adv-x="1310" 
d="M930 1118l-285 144l-276 -144l-103 191l391 243l387 -243zM457 522q0 -157 56 -204.5t91 -47.5q57 0 101.5 63.5t44.5 174.5q0 184 -57.5 227t-90.5 43q-66 0 -105.5 -69.5t-39.5 -186.5zM694.5 -85.5q57.5 57.5 57.5 134.5v70q-49 -69 -120 -91t-120 -22
q-248 0 -370 150.5t-122 377.5t132.5 368.5t382.5 141.5q68 0 127 -26.5t90 -56.5l41 63h487v-268h-123v-613q0 -260 -162.5 -411.5t-476.5 -151.5q-148 0 -270 55.5t-199 124.5l109 228q44 -39 144.5 -85t217.5 -46t174.5 57.5z" />
    <glyph glyph-name="Gbreve" unicode="&#x11e;" horiz-adv-x="1589" 
d="M800 1589q-164 0 -284 87.5t-143 248.5h317q10 -66 39 -102.5t69 -36.5q76 0 99 141l317 2q-20 -162 -135 -251t-279 -89zM666 -18q-127 0 -244 50t-254 198t-137 473t141 484t253.5 214t228.5 55t187.5 -22.5t115.5 -51t67 -57.5t35 -41l43 148h305v-605h-367
q-4 122 -71.5 191t-145.5 69q-137 0 -217 -112.5t-80 -273.5t75.5 -268t205.5 -107q88 0 131 29.5t66 70.5v86h-125v219h680v-219h-82v-512h-410l-63 129q-35 -57 -123 -102t-215 -45z" />
    <glyph glyph-name="gbreve" unicode="&#x11f;" horiz-adv-x="1310" 
d="M377 1269.5q-119 87.5 -144 248.5h318q10 -66 38.5 -103t68.5 -37q77 0 100 142l317 2q-20 -160 -135 -250t-279 -90q-165 0 -284 87.5zM457 522q0 -157 56 -204.5t91 -47.5q57 0 101.5 63.5t44.5 174.5q0 184 -57.5 227t-90.5 43q-66 0 -105.5 -69.5t-39.5 -186.5z
M694.5 -85.5q57.5 57.5 57.5 134.5v70q-49 -69 -120 -91t-120 -22q-248 0 -370 150.5t-122 377.5t132.5 368.5t382.5 141.5q68 0 127 -26.5t90 -56.5l41 63h487v-268h-123v-613q0 -260 -162.5 -411.5t-476.5 -151.5q-148 0 -270 55.5t-199 124.5l109 228q44 -39 144.5 -85
t217.5 -46t174.5 57.5z" />
    <glyph glyph-name="Gdotaccent" unicode="&#x120;" horiz-adv-x="1589" 
d="M956.5 1872q61.5 -67 61.5 -147t-57.5 -140.5t-158.5 -60.5t-166 64t-65 141t59 143.5t162 66.5t164.5 -67zM666 -18q-127 0 -244 50t-254 198t-137 473t141 484t253.5 214t228.5 55t187.5 -22.5t115.5 -51t67 -57.5t35 -41l43 148h305v-605h-367q-4 122 -71.5 191
t-145.5 69q-137 0 -217 -112.5t-80 -273.5t75.5 -268t205.5 -107q88 0 131 29.5t66 70.5v86h-125v219h680v-219h-82v-512h-410l-63 129q-35 -57 -123 -102t-215 -45z" />
    <glyph glyph-name="gdotaccent" unicode="&#x121;" horiz-adv-x="1310" 
d="M817 1465.5q62 -66.5 62 -147.5t-57.5 -141.5t-159.5 -60.5t-166 64.5t-64 141.5t59.5 143.5t161.5 66.5t164 -66.5zM457 522q0 -157 56 -204.5t91 -47.5q57 0 101.5 63.5t44.5 174.5q0 184 -57.5 227t-90.5 43q-66 0 -105.5 -69.5t-39.5 -186.5zM694.5 -85.5
q57.5 57.5 57.5 134.5v70q-49 -69 -120 -91t-120 -22q-248 0 -370 150.5t-122 377.5t132.5 368.5t382.5 141.5q68 0 127 -26.5t90 -56.5l41 63h487v-268h-123v-613q0 -260 -162.5 -411.5t-476.5 -151.5q-148 0 -270 55.5t-199 124.5l109 228q44 -39 144.5 -85t217.5 -46
t174.5 57.5z" />
    <glyph glyph-name="Gcommaaccent" unicode="&#x122;" horiz-adv-x="1589" 
d="M694 -254q0 49 -6 135l324 -6v-25q0 -150 -59.5 -264t-184.5 -223l-197 109q78 95 94.5 128t22.5 65t6 81zM666 -18q-127 0 -244 50t-254 198t-137 473t141 484t253.5 214t228.5 55t187.5 -22.5t115.5 -51t67 -57.5t35 -41l43 148h305v-605h-367q-4 122 -71.5 191
t-145.5 69q-137 0 -217 -112.5t-80 -273.5t75.5 -268t205.5 -107q88 0 131 29.5t66 70.5v86h-125v219h680v-219h-82v-512h-410l-63 129q-35 -57 -123 -102t-215 -45z" />
    <glyph glyph-name="gcommaaccent" unicode="&#x123;" horiz-adv-x="1310" 
d="M457 522q0 -157 56 -204.5t91 -47.5q57 0 101.5 63.5t44.5 174.5q0 184 -57.5 227t-90.5 43q-66 0 -105.5 -69.5t-39.5 -186.5zM756 1145q0 -30 4 -68l-330 66v16q0 129 79 245t214 208l207 -90q-86 -80 -130 -166t-44 -211zM694.5 -85.5q57.5 57.5 57.5 134.5v70
q-49 -69 -120 -91t-120 -22q-248 0 -370 150.5t-122 377.5t132.5 368.5t382.5 141.5q68 0 127 -26.5t90 -56.5l41 63h487v-268h-123v-613q0 -260 -162.5 -411.5t-476.5 -151.5q-148 0 -270 55.5t-199 124.5l109 228q44 -39 144.5 -85t217.5 -46t174.5 57.5z" />
    <glyph glyph-name="Hcircumflex" unicode="&#x124;" horiz-adv-x="1572" 
d="M1061 1526l-285 143l-276 -143l-103 190l391 244l388 -244zM51 1432h664v-271h-127v-309h389v309h-121v271h666v-271h-119v-891h119v-270h-666v270h121v310h-389v-310h127v-270h-664v270h113v891h-113v271z" />
    <glyph glyph-name="hcircumflex" unicode="&#x125;" horiz-adv-x="1353" 
d="M567 1595l-284 144l-277 -144l-102 191l391 244l387 -244zM676 748q-129 0 -129 -191v-289h147v-268h-643v268h86v1002h-86v266h496v-639q22 39 123 101.5t209 62.5q202 0 275 -124t73 -327v-342h96v-268h-526v557q0 82 -21.5 136.5t-99.5 54.5z" />
    <glyph glyph-name="Hbar" unicode="&#x126;" horiz-adv-x="1572" 
d="M977 733v121h-389v-121h389zM18 1020h146v141h-113v271h664v-271h-127v-141h389v141h-121v271h666v-271h-119v-141h141v-166h-141v-584h119v-270h-666v270h121v191h-389v-191h127v-270h-664v270h113v584h-146v166z" />
    <glyph glyph-name="hbar" unicode="&#x127;" horiz-adv-x="1372" 
d="M694 748q-129 0 -129 -191v-289h148v-268h-643v268h86v830h-97v157h97v101h-86v180h495v-281h406v-157h-406v-201q22 38 123 101t209 63q203 0 275.5 -123t72.5 -328v-342h96v-268h-526v557q0 82 -21.5 136.5t-99.5 54.5z" />
    <glyph glyph-name="Itilde" unicode="&#x128;" horiz-adv-x="782" 
d="M520 1536q-47 0 -78.5 12.5t-60.5 25.5t-59.5 25.5t-75.5 12.5q-82 0 -144 -62l-90 205q96 121 240 121q63 0 118.5 -24.5t86 -36t74.5 -11.5t86 18.5t63 41.5l92 -215q-92 -113 -252 -113zM51 1432h680v-271h-127v-889h127v-272h-680v272h129v889h-129v271z" />
    <glyph glyph-name="itilde" unicode="&#x129;" horiz-adv-x="675" 
d="M467 1128q-47 0 -79 12.5t-60.5 26t-59 25.5t-75.5 12q-82 0 -144 -61l-90 205q96 120 240 120q65 0 119.5 -24.5t85 -35.5t74.5 -11t86 18.5t63 40.5l92 -215q-92 -113 -252 -113zM625 0h-574v268h86v490h-86v266h475v-756h99v-268z" />
    <glyph glyph-name="Imacron" unicode="&#x12a;" horiz-adv-x="782" 
d="M63 1839h668v-276h-668v276zM51 1432h680v-271h-127v-889h127v-272h-680v272h129v889h-129v271z" />
    <glyph glyph-name="imacron" unicode="&#x12b;" horiz-adv-x="675" 
d="M12 1430h613l39 -273h-652v273zM625 0h-574v268h86v490h-86v266h475v-756h99v-268z" />
    <glyph glyph-name="Ibreve" unicode="&#x12c;" horiz-adv-x="782" 
d="M115 1629q-119 87 -144 249h318q10 -66 38.5 -102.5t68.5 -36.5q75 0 100 141l317 2q-20 -160 -135 -250t-279 -90q-165 0 -284 87zM51 1432h680v-271h-127v-889h127v-272h-680v272h129v889h-129v271z" />
    <glyph glyph-name="ibreve" unicode="&#x12d;" horiz-adv-x="675" 
d="M343 1182q-164 0 -284 87.5t-143 248.5h317q10 -66 39 -103t69 -37q76 0 99 142l318 2q-20 -161 -135.5 -250.5t-279.5 -89.5zM625 0h-574v268h86v490h-86v266h475v-756h99v-268z" />
    <glyph glyph-name="Iogonek" unicode="&#x12e;" horiz-adv-x="782" 
d="M731 -494q-120 -51 -282 -51t-257.5 72.5t-95.5 261.5q0 80 22.5 129t45.5 82h-113v272h129v889h-129v271h680v-271h-127v-889h127v-272h-233l-39 -23q-80 -45 -80 -142q0 -40 35 -68.5t89 -28.5t228 61v-293z" />
    <glyph glyph-name="iogonek" unicode="&#x12f;" horiz-adv-x="675" 
d="M493 1465.5q62 -66.5 62 -147.5t-57.5 -141.5t-158.5 -60.5t-165.5 63.5t-64.5 142.5t60 144.5t161 65.5t163 -66.5zM655 -494q-120 -51 -282 -51t-257.5 72.5t-95.5 261.5q0 80 23 129t45 82h-37v268h86v490h-86v266h475v-756h99v-268h-203l-39 -23q-80 -45 -80 -142
q0 -40 35 -68.5t89 -28.5t228 61v-293z" />
    <glyph glyph-name="Idotaccent" unicode="&#x130;" horiz-adv-x="782" 
d="M552 1873q62 -66 62 -147t-57 -141.5t-159 -60.5t-166 64.5t-64 141.5t59 143t161 66t164 -66zM51 1432h680v-271h-127v-889h127v-272h-680v272h129v889h-129v271z" />
    <glyph glyph-name="dotlessi" unicode="&#x131;" horiz-adv-x="675" 
d="M625 0h-574v268h86v490h-86v266h475v-756h99v-268z" />
    <glyph glyph-name="IJ" unicode="&#x132;" horiz-adv-x="1503" 
d="M659 -143q170 0 170 295v1011h-225v-891h127v-272h-680v272h129v889h-129v271h1372v-269h-170v-1011q0 -284 -135 -427t-442 -143q-59 0 -107 23l-2 270q39 -18 92 -18z" />
    <glyph glyph-name="ij" unicode="&#x133;" horiz-adv-x="1200" 
d="M1054 1465.5q62 -66.5 62 -147.5t-57.5 -141.5t-158.5 -60.5t-165.5 63.5t-64.5 142.5t60 144.5t161 65.5t163 -66.5zM698 758h-86v266h475v-881q0 -246 -127.5 -408.5t-494.5 -162.5v274q153 0 193 85.5t40 211.5v615zM493 1465.5q62 -66.5 62 -147.5t-57.5 -141.5
t-158.5 -60.5t-165.5 63.5t-64.5 142.5t60 144.5t161 65.5t163 -66.5zM625 0h-574v268h86v490h-86v266h475v-756h99v-268z" />
    <glyph glyph-name="Jcircumflex" unicode="&#x134;" horiz-adv-x="948" 
d="M797 1526l-285 143l-276 -143l-103 190l391 244l387 -244zM133 -143q170 0 170 295v1011h-176v269h770v-269h-170v-1011q0 -285 -135.5 -427.5t-441.5 -142.5q-59 0 -107 23l-2 270q39 -18 92 -18z" />
    <glyph glyph-name="jcircumflex" unicode="&#x135;" horiz-adv-x="737" 
d="M694 1106l-284 143l-277 -143l-102 190l391 244l387 -244zM262 758h-86v266h475v-881q0 -244 -127.5 -407.5t-494.5 -163.5v274q153 0 193 85.5t40 211.5v615z" />
    <glyph glyph-name="Kcommaaccent" unicode="&#x136;" horiz-adv-x="1669" 
d="M733 -254q0 49 -6 135l324 -6v-25q0 -150 -59.5 -264t-184.5 -223l-197 109q78 95 94.5 128t22.5 65t6 81zM696 1167h-110v-333l381 333h-148v265h682v-265h-119l-297 -256l414 -645h119v-266h-799v266h139l-221 348l-151 -129v-219h110v-266h-645v266h111v901h-111v265
h645v-265z" />
    <glyph glyph-name="kcommaaccent" unicode="&#x137;" horiz-adv-x="1339" 
d="M569 -254q0 49 -6 135l324 -6v-25q0 -150 -59.5 -264t-184.5 -223l-197 109q78 95 94.5 128t22.5 65t6 81zM78 0v266h84v1002h-84v268h473v-926l237 142h-147v270h573v-270h-157l-139 -88l276 -396h102v-268h-606v268h86l-155 221l-72 -49v-172h76v-268h-547z" />
    <glyph glyph-name="kgreenlandic" unicode="&#x138;" horiz-adv-x="1339" 
d="M78 0v266h84v486h-84v268h473v-410l237 142h-147v270h573v-270h-157l-139 -88l276 -396h102v-268h-606v268h86l-155 221l-72 -49v-172h76v-268h-547z" />
    <glyph glyph-name="Lacute" unicode="&#x139;" horiz-adv-x="1249" 
d="M907 1843l-309 -291h-256l160 291h405zM51 1432h647v-271h-108v-889h264v260h344v-532h-1147v272h113v889h-113v271z" />
    <glyph glyph-name="lacute" unicode="&#x13a;" horiz-adv-x="679" 
d="M756 1892l-310 -290h-256l160 290h406zM649 0h-598v268h88v1004h-86v264h475v-1268h121v-268z" />
    <glyph glyph-name="Lcommaaccent" unicode="&#x13b;" horiz-adv-x="1249" 
d="M524 -254q0 49 -6 135l324 -6v-25q0 -150 -59.5 -264t-184.5 -223l-197 109q78 95 94.5 128t22.5 65t6 81zM51 1432h647v-271h-108v-889h264v260h344v-532h-1147v272h113v889h-113v271z" />
    <glyph glyph-name="lcommaaccent" unicode="&#x13c;" horiz-adv-x="679" 
d="M240 -254q0 49 -7 135l324 -6v-25q0 -150 -59.5 -264t-184.5 -223l-196 109q78 96 94 128.5t22.5 64.5t6.5 81zM649 0h-598v268h88v1004h-86v264h475v-1268h121v-268z" />
    <glyph glyph-name="Lcaron" unicode="&#x13d;" horiz-adv-x="1249" 
d="M842 1356v26q0 27 -2 48l301 -72q0 -147 -70 -279.5t-199 -236.5l-190 98q76 88 118 183.5t42 232.5zM51 1432h647v-271h-108v-889h264v260h344v-532h-1147v272h113v889h-113v271z" />
    <glyph glyph-name="lcaron" unicode="&#x13e;" horiz-adv-x="995" 
d="M739 1454q0 30 -4 72l305 -68q0 -273 -270 -467l-192 88q78 80 119.5 166t41.5 209zM649 0h-598v268h88v1004h-86v264h475v-1268h121v-268z" />
    <glyph glyph-name="Ldot" unicode="&#x13f;" horiz-adv-x="1249" 
d="M1057.5 1007.5q64.5 -71.5 64.5 -160.5t-60.5 -151.5t-162.5 -62.5t-168.5 65.5t-66.5 152.5t63.5 157.5t164.5 70.5t165.5 -71.5zM51 1432h647v-271h-108v-889h264v260h344v-532h-1147v272h113v889h-113v271z" />
    <glyph glyph-name="ldot" unicode="&#x140;" horiz-adv-x="1103" 
d="M991.5 979.5q63.5 -73.5 63.5 -160.5q0 -88 -60.5 -150.5t-163.5 -62.5t-169 67.5t-66 151.5t62.5 156t166 72t167 -73.5zM649 0h-598v268h88v1004h-86v264h475v-1268h121v-268z" />
    <glyph glyph-name="Lslash" unicode="&#x141;" horiz-adv-x="1249" 
d="M51 1432h647v-271h-108v-198l158 63v-272l-158 -64v-418h264v260h344v-532h-1147v272h113v248l-117 -47v272l117 48v368h-113v271z" />
    <glyph glyph-name="lslash" unicode="&#x142;" horiz-adv-x="679" 
d="M139 1272h-86v264h475v-569l199 118v-272l-199 -119v-426h121v-268h-598v268h88v193l-184 -109v273l184 108v539z" />
    <glyph glyph-name="Nacute" unicode="&#x143;" horiz-adv-x="1671" 
d="M1118 1843l-309 -291h-256l160 291h405zM1620 1167h-135v-1167h-441l-522 780v-516h158v-264h-629v264h121v903h-119v265h588l504 -752v487h-141v265h616v-265z" />
    <glyph glyph-name="nacute" unicode="&#x144;" horiz-adv-x="1325" 
d="M944 1436l-262 -291h-303l160 291h405zM535 559v-291h147v-268h-631v268h86v490h-86v266h436l48 -127q121 164 292 164q216 0 293.5 -126.5t77.5 -324.5v-342h96v-268h-516v559q0 86 -18 138.5t-96 52.5q-129 0 -129 -191z" />
    <glyph glyph-name="Ncommaaccent" unicode="&#x145;" horiz-adv-x="1671" 
d="M735 -254q0 49 -6 135l324 -6v-25q0 -150 -59.5 -264t-184.5 -223l-197 109q78 95 94.5 128t22.5 65t6 81zM1620 1167h-135v-1167h-441l-522 780v-516h158v-264h-629v264h121v903h-119v265h588l504 -752v487h-141v265h616v-265z" />
    <glyph glyph-name="ncommaaccent" unicode="&#x146;" horiz-adv-x="1325" 
d="M561 -254q0 49 -6 135l324 -6v-25q0 -150 -59.5 -264t-184.5 -223l-197 109q78 95 94.5 128t22.5 65t6 81zM535 559v-291h147v-268h-631v268h86v490h-86v266h436l48 -127q121 164 292 164q216 0 293.5 -126.5t77.5 -324.5v-342h96v-268h-516v559q0 86 -18 138.5t-96 52.5
q-129 0 -129 -191z" />
    <glyph glyph-name="Ncaron" unicode="&#x147;" horiz-adv-x="1671" 
d="M561 1923l285 -143l276 143l103 -190l-391 -244l-388 244zM1620 1167h-135v-1167h-441l-522 780v-516h158v-264h-629v264h121v903h-119v265h588l504 -752v487h-141v265h616v-265z" />
    <glyph glyph-name="ncaron" unicode="&#x148;" horiz-adv-x="1325" 
d="M319 1516l285 -144l277 144l102 -191l-391 -244l-387 244zM535 559v-291h147v-268h-631v268h86v490h-86v266h436l48 -127q121 164 292 164q216 0 293.5 -126.5t77.5 -324.5v-342h96v-268h-516v559q0 86 -18 138.5t-96 52.5q-129 0 -129 -191z" />
    <glyph glyph-name="napostrophe" unicode="&#x149;" horiz-adv-x="1638" 
d="M80 1212q0 49 -6 136l323 -7v-24q0 -150 -59 -264.5t-184 -223.5l-197 109q78 96 94.5 129t22.5 64.5t6 80.5zM977 750q-129 0 -129 -191v-291h147v-268h-630v268h86v490h-86v266h436l47 -127q121 164 293 164q214 0 292 -125.5t78 -325.5v-342h97v-268h-516v559
q0 86 -19 138.5t-96 52.5z" />
    <glyph glyph-name="Eng" unicode="&#x14a;" horiz-adv-x="1671" 
d="M1620 1167h-135v-1015q0 -283 -135.5 -426.5t-442.5 -143.5q-60 0 -106 23l-2 270q39 -18 93 -18q116 0 155 143l-525 780v-516h158v-264h-629v264h121v903h-119v265h588l504 -752v487h-141v265h616v-265z" />
    <glyph glyph-name="eng" unicode="&#x14b;" horiz-adv-x="1269" 
d="M827 1061q216 0 293.5 -126.5t77.5 -324.5l4 -477q0 -280 -133.5 -415.5t-443.5 -135.5q-59 0 -107 23l-2 270q40 -18 102 -18t109 58t51 204v440q0 86 -18 138.5t-96 52.5q-129 0 -129 -191v-291h147v-268h-631v268h86v490h-86v266h436l48 -127q121 164 292 164z" />
    <glyph glyph-name="Omacron" unicode="&#x14c;" 
d="M186 1837h1143v-272h-1143v272zM916 400.5q57 115.5 57 308.5q0 309 -83.5 377.5t-137.5 68.5q-98 0 -156.5 -120t-58.5 -314q0 -195 63 -315.5t161 -120.5t155 115.5zM31 703q0 352 199.5 559.5t519.5 207.5q365 0 550 -201.5t185 -557.5t-189 -552t-525 -196
q-340 0 -540 194t-200 546z" />
    <glyph glyph-name="omacron" unicode="&#x14d;" horiz-adv-x="1175" 
d="M16 1430h1143v-273h-1143v273zM693.5 704.5q-39.5 77.5 -109.5 77.5q-93 0 -117.5 -106.5t-24.5 -161.5q0 -127 43 -202.5t108 -75.5t102.5 75t37.5 195.5t-39.5 198zM23 509q0 253 167 396.5t404 143.5t398 -148.5t161 -396.5t-159.5 -389.5t-396.5 -141.5
q-241 0 -407.5 141.5t-166.5 394.5z" />
    <glyph glyph-name="Obreve" unicode="&#x14e;" 
d="M500 1629.5q-119 87.5 -144 248.5h318q10 -66 38.5 -102.5t68.5 -36.5q75 0 100 141l317 2q-20 -160 -135 -250t-279 -90q-165 0 -284 87.5zM916 400.5q57 115.5 57 308.5q0 309 -83.5 377.5t-137.5 68.5q-98 0 -156.5 -120t-58.5 -314q0 -195 63 -315.5t161 -120.5
t155 115.5zM31 703q0 352 199.5 559.5t519.5 207.5q365 0 550 -201.5t185 -557.5t-189 -552t-525 -196q-340 0 -540 194t-200 546z" />
    <glyph glyph-name="obreve" unicode="&#x14f;" horiz-adv-x="1175" 
d="M337.5 1223q-119.5 88 -142.5 247h317q10 -66 39 -102.5t69 -36.5q77 0 99 142l317 2q-20 -160 -135 -250t-279 -90q-165 0 -284.5 88zM693.5 704.5q-39.5 77.5 -109.5 77.5q-93 0 -117.5 -106.5t-24.5 -161.5q0 -127 43 -202.5t108 -75.5t102.5 75t37.5 195.5t-39.5 198
zM23 509q0 253 167 396.5t404 143.5t398 -148.5t161 -396.5t-159.5 -389.5t-396.5 -141.5q-241 0 -407.5 141.5t-166.5 394.5z" />
    <glyph glyph-name="Ohungarumlaut" unicode="&#x150;" 
d="M1415 1843l-309 -291h-256l160 291h405zM920 1843l-310 -291h-256l160 291h406zM916 400.5q57 115.5 57 308.5q0 309 -83.5 377.5t-137.5 68.5q-98 0 -156.5 -120t-58.5 -314q0 -195 63 -315.5t161 -120.5t155 115.5zM31 703q0 352 199.5 559.5t519.5 207.5
q365 0 550 -201.5t185 -557.5t-189 -552t-525 -196q-340 0 -540 194t-200 546z" />
    <glyph glyph-name="ohungarumlaut" unicode="&#x151;" horiz-adv-x="1175" 
d="M1247 1436l-309 -291h-256l160 291h405zM752 1436l-310 -291h-256l160 291h406zM693.5 704.5q-39.5 77.5 -109.5 77.5q-93 0 -117.5 -106.5t-24.5 -161.5q0 -127 43 -202.5t108 -75.5t102.5 75t37.5 195.5t-39.5 198zM23 509q0 253 167 396.5t404 143.5t398 -148.5
t161 -396.5t-159.5 -389.5t-396.5 -141.5q-241 0 -407.5 141.5t-166.5 394.5z" />
    <glyph glyph-name="OE" unicode="&#x152;" horiz-adv-x="2002" 
d="M846 305v836q-12 6 -21 6q-106 0 -194 -125.5t-88 -305t89.5 -295.5t198.5 -116h15zM836 1434h1116v-455h-355v182h-327v-282h389v-273h-389v-334h327v191h355v-463h-1004q-61 -6 -123 -6q-356 0 -561 188t-205 545q4 319 220.5 513t556.5 194z" />
    <glyph glyph-name="oe" unicode="&#x153;" horiz-adv-x="1843" 
d="M1306 776q-83 0 -117.5 -51t-41.5 -113h309q0 116 -51 140t-99 24zM693.5 704.5q-39.5 77.5 -109.5 77.5q-93 0 -117.5 -106.5t-24.5 -161.5q0 -127 43 -202.5t108 -75.5t102.5 75t37.5 195.5t-39.5 198zM1265 -37q-177 0 -325 109q-145 -99 -365 -99
q-219 0 -385.5 141.5t-166.5 394.5t167 396.5t379 143.5t369 -107q151 111 354 111q248 0 383 -135t135 -353q0 -87 -24 -155h-639q-2 -4 -2 -8.5t-2 -8.5q17 -65 61 -108t148 -43q171 0 286 98l172 -199q-115 -98 -241.5 -138t-303.5 -40z" />
    <glyph glyph-name="Racute" unicode="&#x154;" horiz-adv-x="1509" 
d="M1036 1843l-309 -291h-256l160 291h405zM877 983q0 182 -187 182h-102v-348h92q90 0 143.5 42t53.5 124zM51 1432h666q473 0 520 -167t47 -241q0 -134 -85 -214.5t-212 -96.5q109 -16 188.5 -101t79.5 -190q0 -66 10.5 -102.5t39.5 -36.5q47 0 47 65v68h137v-113
q0 -224 -106.5 -276t-192.5 -52q-203 0 -300 100.5t-97 262.5t-28 195.5t-69 44t-108 10.5v-318h125v-270h-662v270h115v893h-115v269z" />
    <glyph glyph-name="racute" unicode="&#x155;" horiz-adv-x="847" 
d="M825 1436l-309 -291h-256l160 291h405zM631 0h-580v268h90v490h-88v266h385l62 -131q49 90 111 136t206 46v-368q-139 0 -214 -46.5t-75 -181.5v-211h103v-268z" />
    <glyph glyph-name="Rcommaaccent" unicode="&#x156;" horiz-adv-x="1509" 
d="M877 983q0 182 -187 182h-102v-348h92q90 0 143.5 42t53.5 124zM653 -254q0 49 -6 135l324 -6v-25q0 -150 -59.5 -264t-184.5 -223l-197 109q78 95 94.5 128t22.5 65t6 81zM51 1432h666q473 0 520 -167t47 -241q0 -134 -85 -214.5t-212 -96.5q109 -16 188.5 -101
t79.5 -190q0 -66 10.5 -102.5t39.5 -36.5q47 0 47 65v68h137v-113q0 -224 -106.5 -276t-192.5 -52q-203 0 -300 100.5t-97 262.5t-28 195.5t-69 44t-108 10.5v-318h125v-270h-662v270h115v893h-115v269z" />
    <glyph glyph-name="rcommaaccent" unicode="&#x157;" horiz-adv-x="847" 
d="M324 -254q0 49 -7 135l324 -6v-25q0 -150 -59.5 -264t-184.5 -223l-196 109q78 96 94 128.5t22.5 64.5t6.5 81zM631 0h-580v268h90v490h-88v266h385l62 -131q49 90 111 136t206 46v-368q-139 0 -214 -46.5t-75 -181.5v-211h103v-268z" />
    <glyph glyph-name="Rcaron" unicode="&#x158;" horiz-adv-x="1509" 
d="M479 1923l285 -143l276 143l103 -190l-391 -244l-387 244zM877 983q0 182 -187 182h-102v-348h92q90 0 143.5 42t53.5 124zM51 1432h666q473 0 520 -167t47 -241q0 -134 -85 -214.5t-212 -96.5q109 -16 188.5 -101t79.5 -190q0 -66 10.5 -102.5t39.5 -36.5q47 0 47 65v68
h137v-113q0 -224 -106.5 -276t-192.5 -52q-203 0 -300 100.5t-97 262.5t-28 195.5t-69 44t-108 10.5v-318h125v-270h-662v270h115v893h-115v269z" />
    <glyph glyph-name="rcaron" unicode="&#x159;" horiz-adv-x="847" 
d="M150 1516l284 -144l277 144l102 -191l-391 -244l-387 244zM631 0h-580v268h90v490h-88v266h385l62 -131q49 90 111 136t206 46v-368q-139 0 -214 -46.5t-75 -181.5v-211h103v-268z" />
    <glyph glyph-name="Sacute" unicode="&#x15a;" horiz-adv-x="1454" 
d="M1124 1843l-309 -291h-256l160 291h405zM51 0v516h381q0 -111 83.5 -158t184.5 -47t132.5 35t31.5 71t-58 61.5t-145.5 50t-189.5 56t-247.5 124.5t-145.5 319q0 113 48 197t157 163.5t282 79.5q222 0 310 -75.5t118 -132.5l21 172h352v-514h-371q0 110 -74 173.5
t-188 63.5q-48 0 -94.5 -28.5t-46.5 -80.5t60.5 -87t150.5 -66t194.5 -66.5t194.5 -89t150.5 -133.5t60.5 -249.5t-163 -277.5t-376 -108t-308 77t-124 112l-22 -158h-359z" />
    <glyph glyph-name="sacute" unicode="&#x15b;" horiz-adv-x="1040" 
d="M877 1436l-310 -291h-256l160 291h406zM418 737q0 -35 43 -55t107.5 -39.5t247.5 -77.5t183 -282q0 -139 -111 -223.5t-270 -84.5q-111 0 -193.5 45.5t-119.5 104.5l-18 -125h-256v369h274q0 -73 75.5 -105.5t141.5 -32.5q90 0 90 70q0 29 -42 46.5t-168.5 49
t-244.5 104.5t-118 251q0 142 116.5 219.5t231.5 77.5q116 0 200.5 -47.5t117.5 -112.5l16 135h252v-369h-266q0 61 -66 108.5t-144 47.5q-79 0 -79 -74z" />
    <glyph glyph-name="Scircumflex" unicode="&#x15c;" horiz-adv-x="1454" 
d="M1001 1526l-284 143l-277 -143l-102 190l391 244l387 -244zM51 0v516h381q0 -111 83.5 -158t184.5 -47t132.5 35t31.5 71t-58 61.5t-145.5 50t-189.5 56t-247.5 124.5t-145.5 319q0 113 48 197t157 163.5t282 79.5q222 0 310 -75.5t118 -132.5l21 172h352v-514h-371
q0 110 -74 173.5t-188 63.5q-48 0 -94.5 -28.5t-46.5 -80.5t60.5 -87t150.5 -66t194.5 -66.5t194.5 -89t150.5 -133.5t60.5 -249.5t-163 -277.5t-376 -108t-308 77t-124 112l-22 -158h-359z" />
    <glyph glyph-name="scircumflex" unicode="&#x15d;" horiz-adv-x="1040" 
d="M795 1118l-285 144l-277 -144l-102 191l391 243l387 -243zM418 737q0 -35 43 -55t107.5 -39.5t247.5 -77.5t183 -282q0 -139 -111 -223.5t-270 -84.5q-111 0 -193.5 45.5t-119.5 104.5l-18 -125h-256v369h274q0 -73 75.5 -105.5t141.5 -32.5q90 0 90 70q0 29 -42 46.5
t-168.5 49t-244.5 104.5t-118 251q0 142 116.5 219.5t231.5 77.5q116 0 200.5 -47.5t117.5 -112.5l16 135h252v-369h-266q0 61 -66 108.5t-144 47.5q-79 0 -79 -74z" />
    <glyph glyph-name="Scedilla" unicode="&#x15e;" horiz-adv-x="1454" 
d="M888 -31q-64 0 -95 4l-11 -24q74 -6 116 -48.5t42 -90.5q0 -95 -59.5 -157.5t-171.5 -62.5t-197 41l66 127q50 -22 108 -22t57.5 49t-67.5 49q-36 0 -58 -4l-20 35l45 143q-126 51 -211 150l-22 -158h-359v516h381q0 -111 83.5 -158t184.5 -47t132.5 35t31.5 71t-58 61.5
t-145.5 50t-189.5 56t-247.5 124.5t-145.5 319q0 113 48 197t157 163.5t282 79.5q222 0 310 -75.5t118 -132.5l21 172h352v-514h-371q0 110 -74 173.5t-188 63.5q-48 0 -94.5 -28.5t-46.5 -80.5t60.5 -87t150.5 -66t194.5 -66.5t194.5 -89t150.5 -133.5t60.5 -200.5
t-50 -202.5t-129 -134.5t-175.5 -75t-160.5 -22.5z" />
    <glyph glyph-name="scedilla" unicode="&#x15f;" horiz-adv-x="1040" 
d="M418 737q0 -35 43 -55t107.5 -39.5t247.5 -77.5t183 -282q0 -139 -111 -223.5t-270 -84.5q-20 0 -30 2l-13 -28q74 -6 116 -48.5t42 -90.5q0 -96 -60 -158t-172 -62t-196 41l66 127q49 -22 107 -22t58.5 49t-67.5 49q-37 0 -57 -4l-21 35l47 149q-90 43 -133 111
l-18 -125h-256v369h274q0 -73 75.5 -105.5t141.5 -32.5q90 0 90 70q0 29 -42 46.5t-168.5 49t-244.5 104.5t-118 251q0 142 116.5 219.5t231.5 77.5q116 0 200.5 -47.5t117.5 -112.5l16 135h252v-369h-266q0 61 -66 108.5t-144 47.5q-79 0 -79 -74z" />
    <glyph glyph-name="Scaron" unicode="&#x160;" horiz-adv-x="1454" 
d="M51 0v516h381q0 -111 83.5 -158t184.5 -47t132.5 35t31.5 71t-58 61.5t-145.5 50t-189.5 56t-247.5 124.5t-145.5 319q0 113 48 197t157 163.5t282 79.5q222 0 310 -75.5t118 -132.5l21 172h352v-514h-371q0 110 -74 173.5t-188 63.5q-48 0 -94.5 -28.5t-46.5 -80.5
t60.5 -87t150.5 -66t194.5 -66.5t194.5 -89t150.5 -133.5t60.5 -249.5t-163 -277.5t-376 -108t-308 77t-124 112l-22 -158h-359zM477 1925l285 -143l276 143l103 -190l-391 -244l-388 244z" />
    <glyph glyph-name="scaron" unicode="&#x161;" horiz-adv-x="1040" 
d="M418 737q0 -35 43 -55t107.5 -39.5t247.5 -77.5t183 -282q0 -139 -111 -223.5t-270 -84.5q-111 0 -193.5 45.5t-119.5 104.5l-18 -125h-256v369h274q0 -73 75.5 -105.5t141.5 -32.5q90 0 90 70q0 29 -42 46.5t-168.5 49t-244.5 104.5t-118 251q0 142 116.5 219.5
t231.5 77.5q116 0 200.5 -47.5t117.5 -112.5l16 135h252v-369h-266q0 61 -66 108.5t-144 47.5q-79 0 -79 -74zM229 1520l285 -144l277 144l102 -191l-391 -244l-387 244z" />
    <glyph glyph-name="Tcommaaccent" unicode="&#x162;" horiz-adv-x="1435" 
d="M616 -254q0 49 -6 135l324 -6v-25q0 -150 -59.5 -264t-184.5 -223l-196 109q75 92 92.5 126.5t23.5 66.5t6 81zM1405 1432v-533h-301v262h-172v-889h170v-272h-762v272h168v889h-176v-262h-301v533h1374z" />
    <glyph glyph-name="tcommaaccent" unicode="&#x163;" horiz-adv-x="743" 
d="M270 -254q0 49 -6 135l324 -6v-25q0 -150 -59.5 -264t-184.5 -223l-197 109q78 95 94.5 128t22.5 65t6 81zM584 229q45 0 129 35v-262q-51 -22 -140.5 -30.5t-107.5 -8.5q-210 0 -257.5 86t-56 166t-10.5 178v365h-110v266h110v188l377 121v-309h195v-266h-195v-365
l-2 -59q0 -41 11.5 -73t56.5 -32z" />
    <glyph glyph-name="Tcaron" unicode="&#x164;" horiz-adv-x="1435" 
d="M442 1923l285 -143l277 143l102 -190l-391 -244l-387 244zM1405 1432v-533h-301v262h-172v-889h170v-272h-762v272h168v889h-176v-262h-301v533h1374z" />
    <glyph glyph-name="tcaron" unicode="&#x165;" horiz-adv-x="999" 
d="M698 1475v25q0 24 -2 40l250 -61v-17q0 -238 -221 -424l-158 82q63 76 97 157t34 198zM584 229q45 0 129 35v-262q-51 -22 -140.5 -30.5t-107.5 -8.5q-210 0 -257.5 86t-56 166t-10.5 178v365h-110v266h110v188l377 121v-309h195v-266h-195v-365l-2 -59q0 -41 11.5 -73
t56.5 -32z" />
    <glyph glyph-name="Tbar" unicode="&#x166;" horiz-adv-x="1435" 
d="M145 731h363v430h-176v-262h-301v533h1374v-533h-301v262h-172v-430h356v-272h-356v-187h170v-272h-762v272h168v187h-363v272z" />
    <glyph glyph-name="tbar" unicode="&#x167;" horiz-adv-x="743" 
d="M584 229q45 0 129 35v-262q-51 -22 -140.5 -30.5t-107.5 -8.5q-210 0 -257.5 86t-56 166t-10.5 178v365h-110v266h110v133h-340v273h1143v-273h-426v-133h195v-266h-195v-365l-2 -59q0 -41 11.5 -73t56.5 -32z" />
    <glyph glyph-name="Utilde" unicode="&#x168;" horiz-adv-x="1509" 
d="M883 1536q-47 0 -79 12.5t-60.5 25.5t-59.5 25.5t-76 12.5q-82 0 -143 -62l-90 205q96 121 239 121q63 0 118.5 -24.5t86.5 -36t75 -11.5t86 18.5t62 41.5l93 -215q-92 -113 -252 -113zM31 1432h651v-265h-111v-442q0 -333 78 -366t126 -33t128 27.5t80 373.5v434h-111
v271h607v-265h-111v-497q0 -365 -149.5 -535t-438.5 -170q-311 10 -473 177t-162 517v506h-114v267z" />
    <glyph glyph-name="utilde" unicode="&#x169;" horiz-adv-x="1292" 
d="M774 1128q-47 0 -78.5 12.5t-60.5 26t-59.5 25.5t-75.5 12q-82 0 -144 -61l-90 205q96 120 240 120q67 0 120.5 -24.5t84 -35.5t74.5 -11t86 18.5t63 40.5l92 -215q-92 -113 -252 -113zM31 1024h495v-494q0 -133 24 -195.5t82 -62.5t96 43t38 113v326h-135v270h530v-752
h101v-272h-388l-55 129q-16 -18 -74.5 -88t-219.5 -70q-223 0 -315.5 119t-92.5 381v283h-86v270z" />
    <glyph glyph-name="Umacron" unicode="&#x16a;" horiz-adv-x="1509" 
d="M182 1837h1143v-272h-1143v272zM31 1432h651v-265h-111v-442q0 -333 78 -366t126 -33t128 27.5t80 373.5v434h-111v271h607v-265h-111v-497q0 -365 -149.5 -535t-438.5 -170q-311 10 -473 177t-162 517v506h-114v267z" />
    <glyph glyph-name="umacron" unicode="&#x16b;" horiz-adv-x="1292" 
d="M74 1430h1143v-273h-1143v273zM31 1024h495v-494q0 -133 24 -195.5t82 -62.5t96 43t38 113v326h-135v270h530v-752h101v-272h-388l-55 129q-16 -18 -74.5 -88t-219.5 -70q-223 0 -315.5 119t-92.5 381v283h-86v270z" />
    <glyph glyph-name="Ubreve" unicode="&#x16c;" horiz-adv-x="1509" 
d="M761 1589q-164 0 -284 87.5t-143 248.5h317q10 -66 39 -102.5t69 -36.5q76 0 99 141l318 2q-20 -161 -135.5 -250.5t-279.5 -89.5zM31 1432h651v-265h-111v-442q0 -333 78 -366t126 -33t128 27.5t80 373.5v434h-111v271h607v-265h-111v-497q0 -365 -149.5 -535
t-438.5 -170q-311 10 -473 177t-162 517v506h-114v267z" />
    <glyph glyph-name="ubreve" unicode="&#x16d;" horiz-adv-x="1292" 
d="M652 1182q-164 0 -283 87t-144 249h318q10 -66 38.5 -103t68.5 -37q75 0 100 142l317 2q-20 -161 -135.5 -250.5t-279.5 -89.5zM31 1024h495v-494q0 -133 24 -195.5t82 -62.5t96 43t38 113v326h-135v270h530v-752h101v-272h-388l-55 129q-16 -18 -74.5 -88t-219.5 -70
q-223 0 -315.5 119t-92.5 381v283h-86v270z" />
    <glyph glyph-name="Uring" unicode="&#x16e;" horiz-adv-x="1509" 
d="M922.5 1585q-70.5 -65 -168.5 -65q-99 0 -168.5 64t-69.5 153t73.5 153t168 64t165 -64t70.5 -152t-70.5 -153zM840 1737q0 37 -24.5 61.5t-60.5 24.5t-60.5 -24.5t-24.5 -61.5t24.5 -61.5t61.5 -24.5t60.5 24.5t23.5 61.5zM31 1432h651v-265h-111v-442q0 -333 78 -366
t126 -33t128 27.5t80 373.5v434h-111v271h607v-265h-111v-497q0 -365 -149.5 -535t-438.5 -170q-311 10 -473 177t-162 517v506h-114v267z" />
    <glyph glyph-name="uring" unicode="&#x16f;" horiz-adv-x="1292" 
d="M743.5 1176.5q-71.5 -64.5 -167.5 -64.5q-97 0 -167.5 64t-70.5 153t73 153t168 64t165.5 -64t70.5 -152.5t-71.5 -153zM662 1329q0 37 -25 61.5t-61 24.5t-60 -24.5t-24 -61.5t25 -61.5t61 -24.5t60 24.5t24 61.5zM31 1024h495v-494q0 -133 24 -195.5t82 -62.5t96 43
t38 113v326h-135v270h530v-752h101v-272h-388l-55 129q-16 -18 -74.5 -88t-219.5 -70q-223 0 -315.5 119t-92.5 381v283h-86v270z" />
    <glyph glyph-name="Uhungarumlaut" unicode="&#x170;" horiz-adv-x="1509" 
d="M1401 1843l-309 -291h-256l159 291h406zM905 1843l-309 -291h-256l160 291h405zM31 1432h651v-265h-111v-442q0 -333 78 -366t126 -33t128 27.5t80 373.5v434h-111v271h607v-265h-111v-497q0 -365 -149.5 -535t-438.5 -170q-311 10 -473 177t-162 517v506h-114v267z" />
    <glyph glyph-name="uhungarumlaut" unicode="&#x171;" horiz-adv-x="1292" 
d="M1176 1436l-310 -291h-256l160 291h406zM680 1436l-309 -291h-256l159 291h406zM31 1024h495v-494q0 -133 24 -195.5t82 -62.5t96 43t38 113v326h-135v270h530v-752h101v-272h-388l-55 129q-16 -18 -74.5 -88t-219.5 -70q-223 0 -315.5 119t-92.5 381v283h-86v270z" />
    <glyph glyph-name="Uogonek" unicode="&#x172;" horiz-adv-x="1509" 
d="M586 -201q0 114 53 181q-244 41 -369 205.5t-125 473.5v506h-114v267h651v-265h-111v-442q0 -333 78 -366t126 -33t128 27.5t80 373.5v434h-111v271h607v-265h-111v-497q0 -588 -407 -684l-13 -9q-80 -45 -80 -142q0 -40 35 -68.5t88 -28.5t230 61v-293
q-120 -51 -282 -51t-257.5 72t-95.5 272z" />
    <glyph glyph-name="uogonek" unicode="&#x173;" horiz-adv-x="1292" 
d="M1120 -545q-250 0 -301 115t-51 216t35 161.5t59 79.5l-43 102q-16 -18 -74.5 -88t-219.5 -70q-223 0 -315.5 119t-92.5 381v283h-86v270h495v-494q0 -133 24 -195.5t82 -62.5t96 43t38 113v326h-135v270h530v-752h101v-272h-93l-39 -23q-79 -44 -79 -142
q0 -40 34.5 -68.5t87.5 -28.5t230 61v-293q-120 -51 -283 -51z" />
    <glyph glyph-name="Wcircumflex" unicode="&#x174;" horiz-adv-x="2078" 
d="M1313 1526l-285 143l-276 -143l-103 190l391 244l387 -244zM1513 1165v267h586v-267h-112l-306 -1165h-485l-123 487q-6 27 -18.5 79t-32.5 175h-8q-4 -23 -16.5 -99.5t-32.5 -149.5l-125 -492h-475l-271 1165h-114v267h675v-267h-118l53 -299q27 -123 44 -252t21 -151
h11q8 85 100 508l102 461h426l129 -566q22 -89 33.5 -177.5t18 -137.5t10.5 -88h10q4 77 28.5 217.5t32.5 173.5l70 311h-113z" />
    <glyph glyph-name="wcircumflex" unicode="&#x175;" horiz-adv-x="1785" 
d="M1167 1118l-284 144l-277 -144l-102 191l391 243l387 -243zM1286 758v266h500v-266h-84l-240 -758h-432l-141 463l-148 -463h-422l-231 758h-88v266h551v-266h-70l45 -150q31 -115 40 -193.5t12 -101.5h4q16 252 84 482l65 229h379l78 -266q22 -72 52 -220.5t36 -224.5h4
q15 187 55 324l35 121h-84z" />
    <glyph glyph-name="Ycircumflex" unicode="&#x176;" horiz-adv-x="1370" 
d="M958 1526l-284 143l-277 -143l-102 190l391 244l387 -244zM840 1169v263h551v-263h-111l-379 -665v-238h115v-266h-656v266h117v242l-397 661h-100v263h700v-263h-107l119 -217q4 -14 28.5 -72t35.5 -94h8q4 30 35.5 94t40.5 83l112 206h-112z" />
    <glyph glyph-name="ycircumflex" unicode="&#x177;" horiz-adv-x="1187" 
d="M868 1118l-284 144l-277 -144l-102 191l391 243l387 -243zM-18 762v262h630v-260h-96l133 -320l133 320h-94v260h520v-254h-98l-389 -946q-23 -49 -91.5 -169t-348.5 -120q-138 7 -248 103l153 241q77 -72 127 -72t79.5 35t43.5 76l29 86l-399 758h-84z" />
    <glyph glyph-name="Ydieresis" unicode="&#x178;" horiz-adv-x="1370" 
d="M565.5 1872q61.5 -67 61.5 -147t-57.5 -140.5t-159.5 -60.5t-166 64.5t-64 141.5t59 143t162 66t164.5 -67zM1128.5 1872q61.5 -67 61.5 -147t-57.5 -140.5t-158.5 -60.5t-166 64t-65 141t59 143.5t162 66.5t164.5 -67zM840 1169v263h551v-263h-111l-379 -665v-238h115
v-266h-656v266h117v242l-397 661h-100v263h700v-263h-107l119 -217q4 -14 28.5 -72t35.5 -94h8q4 30 35.5 94t40.5 83l112 206h-112z" />
    <glyph glyph-name="Zacute" unicode="&#x179;" horiz-adv-x="1462" 
d="M1014 1843l-309 -291h-256l159 291h406zM63 893v539h1344v-273l-745 -889h378v262h365v-532h-1354v266l746 895h-387v-268h-347z" />
    <glyph glyph-name="zacute" unicode="&#x17a;" horiz-adv-x="1132" 
d="M848 1436l-309 -291h-256l159 291h406zM51 614v410h1014v-264l-487 -492h215v140h288v-408h-1030v268l494 492h-228v-146h-266z" />
    <glyph glyph-name="Zdotaccent" unicode="&#x17b;" horiz-adv-x="1462" 
d="M892 1873q62 -66 62 -147t-57 -141.5t-159 -60.5t-166 64.5t-64 141.5t59 143t161 66t164 -66zM63 893v539h1344v-273l-745 -889h378v262h365v-532h-1354v266l746 895h-387v-268h-347z" />
    <glyph glyph-name="zdotaccent" unicode="&#x17c;" horiz-adv-x="1132" 
d="M725.5 1466q62.5 -66 62.5 -147q0 -82 -57 -142.5t-159 -60.5t-166 64.5t-64 141.5t59.5 143.5t160.5 66.5t163.5 -66zM51 614v410h1014v-264l-487 -492h215v140h288v-408h-1030v268l494 492h-228v-146h-266z" />
    <glyph glyph-name="Zcaron" unicode="&#x17d;" horiz-adv-x="1462" 
d="M63 893v539h1344v-273l-745 -889h378v262h365v-532h-1354v266l746 895h-387v-268h-347zM477 1925l285 -143l276 143l103 -190l-391 -244l-388 244z" />
    <glyph glyph-name="zcaron" unicode="&#x17e;" horiz-adv-x="1132" 
d="M51 614v410h1014v-264l-487 -492h215v140h288v-408h-1030v268l494 492h-228v-146h-266zM293 1516l285 -144l276 144l102 -191l-391 -244l-387 244z" />
    <glyph glyph-name="longs" unicode="&#x17f;" horiz-adv-x="632" 
d="M606 1307q-66 0 -65 -109v-1520h-406v1080h-84v266h84v174q0 234 133 304.5t264 70.5t210 -20.5t100 -30.5l-123 -236q-42 21 -113 21z" />
    <glyph glyph-name="uni0180" unicode="&#x180;" horiz-adv-x="1343" 
d="M848 500q0 158 -57.5 205t-90.5 47q-57 0 -101 -63.5t-44 -174.5q0 -186 57.5 -228t89.5 -42q66 0 106 69.5t40 186.5zM848 1139h-289v-195q52 65 142 80.5t126 15.5q224 0 347.5 -157t123.5 -379q-4 -242 -132 -384.5t-341 -142.5q-106 0 -166 25.5t-104 67.5l-31 -70
h-461v266h87v873h-87v114h87v84h-87v199h496v-283h289v-114z" />
    <glyph glyph-name="uni0181" unicode="&#x181;" horiz-adv-x="1775" 
d="M963 1161v-307h124q82 0 111 42t29 115t-38 111.5t-97 38.5h-129zM1126 266q66 0 116 46t50 127t-43 132.5t-129 51.5h-157v-357h163zM1184 1432q256 0 379 -91.5t123 -269.5t-72 -231.5t-129 -75.5q189 -55 229.5 -165t40.5 -183q0 -217 -130 -316.5t-427 -99.5h-778
v266h119v869q-66 16 -104 16t-72.5 -28.5t-34.5 -68.5t19.5 -80t60.5 -63l77 -45q2 -2 4 -2l-348 -4q-27 20 -61.5 80t-34.5 162q0 189 96 260.5t256 71.5l64 -2h723z" />
    <glyph glyph-name="uni0182" unicode="&#x182;" horiz-adv-x="1310" 
d="M688 266q90 0 140.5 47t50.5 135t-55.5 131.5t-145.5 43.5h-92v-357h102zM51 268h115v893h-115v271h1202v-453h-354v182h-313v-317h155q232 0 385.5 -105.5t153.5 -304.5t-119.5 -316.5t-445.5 -117.5h-664v268z" />
    <glyph glyph-name="uni0183" unicode="&#x183;" horiz-adv-x="1343" 
d="M848 500q0 158 -57.5 205t-90.5 47q-57 0 -101 -63.5t-44 -174.5q0 -186 57.5 -228t89.5 -42q66 0 106 69.5t40 186.5zM1151 1270h-592v-326q52 65 142 80.5t126 15.5q224 0 347.5 -157t123.5 -379q-4 -242 -132 -384.5t-341 -142.5q-106 0 -166 25.5t-104 67.5l-31 -70
h-461v266h87v1002h-87v268h1088v-266z" />
    <glyph glyph-name="uni0184" unicode="&#x184;" horiz-adv-x="1310" 
d="M879 456q0 79 -55.5 123t-145.5 44h-92v-179q0 -84 43 -129t113 -45t103.5 53.5t33.5 132.5zM166 1161h-115v271h660v-271h-125v-317h155q232 0 385.5 -105.5t153.5 -308.5t-119 -332t-433 -129t-438 130t-124 325v737z" />
    <glyph glyph-name="uni0185" unicode="&#x185;" horiz-adv-x="1343" 
d="M848 500q0 158 -57.5 205t-90.5 47q-57 0 -101 -63.5t-44 -174.5q0 -186 57.5 -228t89.5 -42q66 0 106 69.5t40 186.5zM150 1268h-87v268h496v-592q52 65 142 80.5t126 15.5q224 0 347.5 -157t123.5 -379q-6 -379 -224 -453t-360 -74t-244.5 46.5t-173.5 119
t-108.5 159.5t-37.5 167v799z" />
    <glyph glyph-name="uni0186" unicode="&#x186;" horiz-adv-x="1404" 
d="M600 317q134 0 214.5 112t80.5 278t-67.5 283.5t-197.5 117.5t-162 -104.5t-34 -153.5h-366v582h321l47 -115q60 80 149 109.5t178 29.5t198.5 -51t201.5 -148.5t151.5 -238t59.5 -314.5q0 -342 -196.5 -539.5t-526.5 -197.5q-275 0 -422 116t-198 173l239 262
q81 -108 170.5 -154.5t159.5 -46.5z" />
    <glyph glyph-name="uni0187" unicode="&#x187;" horiz-adv-x="1404" 
d="M1257 1434q73 0 123 -9l-2 -286q-49 12 -85 12t-70.5 -28.5t-34.5 -68.5t19.5 -80t60.5 -63l78 -45q2 -2 4 -2l-349 -4q-47 35 -77 114t-56.5 106.5t-97.5 27.5q-125 0 -192.5 -117.5t-67.5 -283.5t80.5 -278t218.5 -112q108 0 186 64.5t105.5 96.5t34.5 40l239 -262
q-269 -289 -609 -289t-537 198t-197 537q0 176 59.5 316.5t151.5 238t201.5 148.5t195.5 51q132 0 205 -40t121 -93q79 111 292 111z" />
    <glyph glyph-name="uni0188" unicode="&#x188;" horiz-adv-x="1087" 
d="M1042 1042h23v-178q-160 0 -178.5 -63.5t-18.5 -107.5t21 -89h-184q-15 58 -15 105q-27 67 -77 67q-89 0 -137 -78.5t-48 -182.5q0 -105 57.5 -174t159.5 -69q134 0 242 117l180 -209q-132 -139 -275.5 -174t-241.5 -35t-200 34t-225 143.5t-123 367.5t144.5 392
t359.5 134q94 0 155.5 -36.5t90.5 -69.5q82 106 290 106z" />
    <glyph glyph-name="uni0189" unicode="&#x189;" horiz-adv-x="1474" 
d="M906.5 1038q-76.5 123 -230.5 123h-78v-305h199v-272h-199v-312h78q154 0 230.5 129t76.5 321q0 193 -76.5 316zM86 856h92v305h-127v271h625q358 0 568 -196t210 -501q0 -352 -202.5 -543.5t-583.5 -191.5h-617v272h127v312h-92v272z" />
    <glyph glyph-name="uni018A" unicode="&#x18a;" horiz-adv-x="1785" 
d="M1218 1038.5q-76 122.5 -231 122.5h-78v-889h78q155 0 231 128t76 322t-76 316.5zM415 1151q-34 0 -69 -28.5t-35 -68.5t19.5 -80t60.5 -63l78 -45q2 -2 4 -2l-348 -4q-27 20 -61.5 80t-34.5 162q0 188 95.5 260t256.5 72l63 -2h543q358 0 568 -196t210 -501
q0 -352 -202.5 -543.5t-583.5 -191.5h-617v272h127v871q-40 8 -74 8z" />
    <glyph glyph-name="uni018B" unicode="&#x18b;" horiz-adv-x="1310" 
d="M1280 0h-664q-326 0 -445.5 117.5t-119.5 316.5t154.5 304.5t384.5 105.5h155v317h-313v-182h-354v453h1202v-271h-115v-893h115v-268zM745 266v357h-92q-90 0 -145 -44t-55 -131t50 -134.5t140 -47.5h102z" />
    <glyph glyph-name="uni018C" unicode="&#x18c;" horiz-adv-x="1343" 
d="M659 244q103 0 125.5 106.5t22.5 163.5q0 111 -44 174.5t-105 63.5t-102.5 -77t-41.5 -184q0 -108 40 -177.5t105 -69.5zM211 1536h1087v-268h-86v-1002h86v-266h-460l-31 70q-65 -51 -114.5 -72t-157.5 -21q-211 0 -338.5 142t-133.5 385q0 221 124 378.5t348 157.5
q121 0 186 -37.5t82 -58.5v326h-592v266z" />
    <glyph glyph-name="uni018D" unicode="&#x18d;" horiz-adv-x="1175" 
d="M693.5 704.5q-39.5 77.5 -109.5 77.5q-93 0 -117.5 -106.5t-24.5 -161.5q0 -127 43 -202.5t108 -75.5t102.5 75t37.5 195.5t-39.5 198zM190 905q167 144 404 144t398 -148.5t161 -400.5q0 -188 -93 -312.5t-241 -177.5l262 -264v-268h-1030v407h289v-139h215l-377 379
q-155 146 -155 391t167 389z" />
    <glyph glyph-name="uni018E" unicode="&#x18e;" horiz-adv-x="1337" 
d="M1286 1161h-129v-889h129v-272h-1235v463h355v-191h327v334h-389v273h389v282h-327v-182h-355v453h1235v-271z" />
    <glyph glyph-name="uni018F" unicode="&#x18f;" 
d="M760 283q86 0 148.5 81.5t84.5 223.5h-442q16 -135 69.5 -220t139.5 -85zM796 1470q134 0 268 -52t277.5 -202.5t143.5 -491.5t-200 -549t-519 -208q-365 0 -550 201.5t-185 560.5v25q0 24 2 41l971 6q-12 138 -91 228.5t-198 90.5t-206.5 -73t-127.5 -127l-240 262
q178 199 349.5 243.5t305.5 44.5z" />
    <glyph glyph-name="uni0190" unicode="&#x190;" horiz-adv-x="1366" 
d="M502 449q0 -160 228 -160q108 0 184.5 38t148.5 95l258 -217q-78 -95 -246.5 -163.5t-362.5 -68.5q-110 0 -235 28t-285.5 119t-160.5 304q0 120 66.5 195.5t168.5 140.5q-119 66 -153.5 135.5t-34.5 120.5q0 211 124 324.5t386 113.5q127 0 208 -44t119 -93l48 115h321
v-506h-377q-31 144 -98.5 180.5t-123.5 36.5q-183 0 -183 -160q0 -72 61.5 -107.5t153.5 -35.5h184v-244h-190q-209 0 -209 -147z" />
    <glyph glyph-name="uni0191" unicode="&#x191;" horiz-adv-x="1386" 
d="M61 -143q170 0 170 295v1009h-125v271h1225v-453h-362v184h-314v-358h394v-273h-394v-380q0 -284 -135 -427t-442 -143q-59 0 -107 23l-2 270q39 -18 92 -18z" />
    <glyph glyph-name="florin" unicode="&#x192;" horiz-adv-x="790" 
d="M606 1307q-66 0 -65 -109v-174h186v-266h-186v-490l-2 -125q-2 -96 -22.5 -196.5t-125.5 -237.5t-475 -137v274q134 0 176.5 71t42.5 181v660h-84v266h84v174q0 234 133 304.5t264 70.5t210 -20.5t100 -30.5l-123 -236q-42 21 -113 21z" />
    <glyph glyph-name="uni0193" unicode="&#x193;" horiz-adv-x="1589" 
d="M1257 1434q45 0 129 -16.5t99 -18.5v-293q-12 2 -40 10t-83 21.5t-80 13.5t-59.5 -28.5t-34.5 -68.5t19.5 -80t60.5 -63l78 -45q2 -2 4 -2l-349 -4q-39 27 -75 111q-12 27 -21.5 49t-27.5 44.5t-74 22.5q-57 0 -109.5 -31.5t-110 -112.5t-57.5 -242t75.5 -268t205.5 -107
q88 0 131 29.5t66 70.5v86h-125v219h680v-219h-82v-512h-410l-63 129q-35 -57 -123 -102t-215 -45t-244 50t-254 198t-137 472q0 160 50 298.5t136 239.5t198.5 158.5t210.5 57.5q145 0 218 -40t121 -93q79 111 292 111z" />
    <glyph glyph-name="uni0194" unicode="&#x194;" horiz-adv-x="1583" 
d="M774 -215q0 -90 70 -90q51 0 61 30.5t10 63.5t-15 64.5t-58 99.5q-27 -41 -47.5 -79t-20.5 -89zM1042 270q121 -252 121 -410t-82.5 -268t-229.5 -110t-255.5 104.5t-108.5 239.5t57.5 247.5t78.5 145.5l-531 946h-112v267h755v-267h-112l174 -348q12 -37 35.5 -93.5
t27.5 -98.5h10q5 53 31.5 109.5t42.5 94.5l186 336h-106v267h580v-267h-101z" />
    <glyph glyph-name="uni0195" unicode="&#x195;" horiz-adv-x="1843" 
d="M1118 538q0 -142 25 -206t83 -64t69.5 64.5t11.5 197.5v494h495v-270h-86v-283q0 -246 -143.5 -373t-382.5 -127q-182 0 -319.5 99.5t-137.5 289.5l2 226q-6 77 -21.5 119.5t-64.5 42.5t-75.5 -59t-26.5 -132v-289h147v-268h-643v268h86v1002h-86v266h496v-639
q55 95 130 129.5t162 34.5t150.5 -33t92 -97.5t32.5 -157.5t4 -235z" />
    <glyph glyph-name="uni0196" unicode="&#x196;" horiz-adv-x="849" 
d="M211 152v1011h-170v269h770v-269h-176v-1011q0 -164 46 -229.5t124 -65.5q51 0 92 18l-2 -270q-53 -23 -107 -23q-453 0 -515 217t-62 353z" />
    <glyph glyph-name="uni0197" unicode="&#x197;" horiz-adv-x="768" 
d="M51 1432h680v-271h-127v-332h123v-280h-123v-277h127v-272h-680v272h129v277h-137v280h137v332h-129v271z" />
    <glyph glyph-name="uni0198" unicode="&#x198;" horiz-adv-x="1669" 
d="M586 498v-232h110v-266h-645v266h111v901h-111v265h701v-265h-166v-364q224 0 263.5 130t70 236t114 190.5t268.5 84.5t253.5 -63.5t87 -98.5t20.5 -49l-150 -219q-8 18 -17 44.5t-38.5 68.5t-97.5 42q-69 0 -90 -32.5t-29 -85t-16 -117t-41 -129.5l315 -539h119v-266
h-799v266h139l-129 254q-103 -22 -215 -22h-28z" />
    <glyph glyph-name="uni0199" unicode="&#x199;" horiz-adv-x="1339" 
d="M616 1307q-66 0 -65 -109v-588l237 142h-147v270h573v-270h-157l-139 -88l276 -396h102v-268h-606v268h86l-155 221l-70 -49v-172h74v-268h-547v268h84v930q0 144 47 217.5t125 115.5t209 42t209.5 -20.5t99.5 -30.5l-123 -236q-42 21 -113 21z" />
    <glyph glyph-name="uni019A" unicode="&#x19a;" horiz-adv-x="679" 
d="M651 549h-123v-281h121v-268h-598v268h88v281h-88v280h88v443h-86v264h475v-707h123v-280z" />
    <glyph glyph-name="uni019B" unicode="&#x19b;" horiz-adv-x="1374" 
d="M1397 215v-254h-729v260h82l-154 320l-152 -320h80v-260h-536v262h96l326 537l-174 -74l-74 170l244 105q-43 63 -108 63t-153 -72l-94 377q122 94 285 103q312 0 394.5 -118t109.5 -167l145 63l74 -170l-139 -61l364 -764h113z" />
    <glyph glyph-name="uni019C" unicode="&#x19c;" horiz-adv-x="2453" 
d="M145 659v506h-114v267h651v-265h-111v-442q0 -333 78 -366t126 -33t128 27.5t80 373.5v434h-111l-2 4v267h652v-265h-111v-442q0 -333 78 -366t126 -33t128 27.5t80 373.5v434h-111v271h662v-271h-127v-889h127v-272h-299l-154 166q-128 -201 -340 -201q-346 12 -485 219
q-53 -111 -137.5 -165t-232.5 -52q-297 4 -439 172.5t-142 519.5z" />
    <glyph glyph-name="uni019D" unicode="&#x19d;" horiz-adv-x="1671" 
d="M-79 -143q101 0 176 73t75 222v1015h-119v265h588l504 -752v487h-141v265h616v-265h-135v-1167h-441l-522 780v-628q0 -284 -135 -427t-442 -143q-59 0 -107 23l-2 270q39 -18 85 -18z" />
    <glyph glyph-name="uni019E" unicode="&#x19e;" horiz-adv-x="1325" 
d="M535 559v-291h147v-268h-631v268h86v490h-86v266h436l48 -127q121 164 292 164q216 0 293.5 -126.5t77.5 -324.5v-854h96v-268h-516v1071q0 86 -18 138.5t-96 52.5q-129 0 -129 -191z" />
    <glyph glyph-name="uni019F" unicode="&#x19f;" 
d="M763 285q85 0 138 88t68 239h-426q16 -154 75.5 -240.5t144.5 -86.5zM745 1155q-84 0 -138 -96t-68 -252h430q-19 244 -96 296t-128 52zM31 703q0 352 199.5 559.5t519.5 207.5q365 0 550 -201.5t185 -557.5t-189 -552t-525 -196q-340 0 -540 194t-200 546z" />
    <glyph glyph-name="Ohorn" unicode="&#x1a0;" 
d="M916 400.5q57 115.5 57 308.5q0 309 -83.5 377.5t-137.5 68.5q-98 0 -156.5 -120t-58.5 -314q0 -195 63 -315.5t161 -120.5t155 115.5zM1485 709q0 -353 -189 -549.5t-527 -196.5t-538 194t-200 546t199.5 559.5t519.5 207.5q250 0 410.5 -94t242.5 -260q25 10 42 40
t17 56q0 65 -71 154l194 94q101 -123 101 -246t-64.5 -211t-151.5 -114q15 -108 15 -180z" />
    <glyph glyph-name="ohorn" unicode="&#x1a1;" horiz-adv-x="1413" 
d="M693.5 704.5q-39.5 77.5 -109.5 77.5q-93 0 -117.5 -106.5t-24.5 -161.5q0 -127 43 -202.5t108 -75.5t102.5 75t37.5 195.5t-39.5 198zM1188 819q0 67 -72 154l195 94q100 -123 100 -253t-76.5 -221t-181.5 -106q-4 -236 -163 -375t-396 -139q-238 0 -404.5 141.5
t-166.5 394.5t167 396.5t394 143.5q186 -4 327.5 -88t200.5 -242q35 4 55.5 35.5t20.5 64.5z" />
    <glyph glyph-name="uni01A2" unicode="&#x1a2;" horiz-adv-x="2285" 
d="M916 400.5q57 115.5 57 308.5q0 309 -83.5 377.5t-137.5 68.5q-98 0 -156.5 -120t-58.5 -314q0 -195 63 -315.5t161 -120.5t155 115.5zM2103 813v-582h115v-266h-651v264h110v519q0 184 -45 273t-143 89q-39 0 -76 -18q72 -166 72 -362q0 -375 -189 -571t-527 -196
t-538 194t-200 546t199.5 559.5t519.5 207.5q239 0 407 -92q148 92 308 90q324 -4 481 -160t157 -495z" />
    <glyph glyph-name="uni01A3" unicode="&#x1a3;" horiz-adv-x="1736" 
d="M693.5 704.5q-39.5 77.5 -109.5 77.5q-93 0 -117.5 -106.5t-24.5 -161.5q0 -127 43 -202.5t108 -75.5t102.5 75t37.5 195.5t-39.5 198zM1153 511q0 -254 -159.5 -396t-398.5 -142t-405.5 141.5t-166.5 394.5t167 396.5t394 143.5q174 0 309 -76q142 76 372 76t313 -118
t83 -257v-916h102v-268h-630v268h122v916q0 109 -65 108q-61 0 -98 -14q61 -119 61 -257z" />
    <glyph glyph-name="uni01A4" unicode="&#x1a4;" horiz-adv-x="1617" 
d="M893 1165v-356h92q90 0 145.5 44t55.5 131t-50.5 134t-140.5 47h-102zM401 1151q-32 0 -67 -28.5t-35 -68.5t19.5 -80t60.5 -63l78 -45q2 -2 4 -2l-348 -4q-27 20 -62 80t-35 162q0 188 96 260t257 72l63 -2h590q326 0 445.5 -117.5t119.5 -317.5t-154 -304.5
t-384 -104.5h-156v-318h125v-270h-660v270h115v873q-40 8 -72 8z" />
    <glyph glyph-name="uni01A5" unicode="&#x1a5;" horiz-adv-x="1306" 
d="M846 500q0 158 -57.5 205t-90.5 47q-57 0 -101 -63.5t-44 -174.5q0 -186 57.5 -228t89.5 -42q66 0 106 69.5t40 186.5zM741 1038q0 129 79 245t214 208l207 -90q-86 -80 -130 -166t-44 -211v-22q0 -21 2 -37q109 -72 163 -194t54 -256q0 -251 -132 -394.5t-335 -143.5
q-152 0 -206 38t-60 42v-207h111v-268h-613v268h86v902h-86v272h469l35 -72q99 69 186 82v4z" />
    <glyph glyph-name="uni01A6" unicode="&#x1a6;" horiz-adv-x="1363" 
d="M594 1014v-357h92q90 0 145.5 44t55.5 131t-50.5 134.5t-140.5 47.5h-102zM1415 -244v-266h-393l-264 907h-164v-127h125v-270h-660v270h115v893h-115v271h535v-152h129q324 0 444.5 -128.5t120.5 -338.5q0 -100 -49 -179t-127 -132l238 -748h65z" />
    <glyph glyph-name="uni01A7" unicode="&#x1a7;" horiz-adv-x="1454" 
d="M587 -31q-85 0 -181.5 22.5t-175 75t-129 134.5t-50.5 202.5t60.5 200.5t150.5 133.5t194.5 89t194.5 66.5t150.5 65.5t60.5 88.5q0 75 -59 91.5t-97 16.5t-86.5 -15.5t-104.5 -63.5t-56 -158h-371v514h352l21 -172q113 208 428 208q174 0 330.5 -114.5t156.5 -334.5
q0 -218 -145.5 -310.5t-247.5 -124t-189 -56t-145.5 -50t-58.5 -61.5q0 -59 52 -82.5t103 -23.5q109 0 193 47t84 158h381v-516h-359l-22 158q-106 -127 -228 -158t-207 -31z" />
    <glyph glyph-name="uni01A8" unicode="&#x1a8;" horiz-adv-x="1040" 
d="M418 301q0 -70 90 -70q66 0 141.5 32.5t75.5 105.5h274v-369h-256l-18 125q-37 -59 -120 -104.5t-175 -45.5q-177 0 -288 84.5t-111 223.5q0 224 183 282t247.5 77.5t107.5 39.5t43 55q0 74 -79 74t-144 -47t-65 -109h-267v369h252l17 -135q33 66 116.5 113t163.5 47
q152 0 268.5 -77t116.5 -220q0 -178 -118 -251t-244.5 -104.5t-168.5 -49t-42 -46.5z" />
    <glyph glyph-name="uni01A9" unicode="&#x1a9;" horiz-adv-x="1462" 
d="M1040 270v222h365v-492h-1354v266l580 416l-568 477v273h1344v-476h-348v205h-385l366 -313v-209l-530 -369h530z" />
    <glyph glyph-name="uni01AA" unicode="&#x1aa;" horiz-adv-x="1019" 
d="M446 1198q0 109 -66 109t-95 -32t-29 -65q0 -58 33.5 -102.5t81.5 -44.5q47 0 75 55v80zM852 1198v-1100q0 -110 41 -181t178 -71v-274q-369 0 -474 137t-125.5 237.5t-22.5 196.5l-3 125v604q-37 -6 -107 -6t-145 27t-149 93t-74 208q0 143 130 261t357 118t310.5 -118
t83.5 -257z" />
    <glyph glyph-name="uni01AB" unicode="&#x1ab;" horiz-adv-x="743" 
d="M584 229q45 0 129 35v-262q-4 -162 -82 -337t-207 -290l-197 109q87 109 125.5 207t38.5 246v30q-160 18 -197.5 103.5t-44 159t-8.5 163.5v365h-110v266h110v188l377 121v-309h195v-266h-195v-365l-2 -59q0 -41 11.5 -73t56.5 -32z" />
    <glyph glyph-name="uni01AC" unicode="&#x1ac;" horiz-adv-x="1435" 
d="M328 1047q0 -127 96 -228h-322q-23 43 -49 109t-26 168q0 189 95.5 262.5t254.5 73.5h1028v-533h-301v262h-172v-889h170v-272h-762v272h168v889h-100q-41 -4 -60.5 -36.5t-19.5 -77.5z" />
    <glyph glyph-name="uni01AD" unicode="&#x1ad;" horiz-adv-x="743" 
d="M586 1266q-43 0 -54.5 -24.5t-13.5 -59.5v-158h195v-266h-195v-426q0 -41 10.5 -72t55.5 -31t129 35v-262q-51 -22 -140.5 -30.5t-107.5 -8.5q-210 0 -257.5 86t-56 166t-10.5 178v365h-110v266h110v78q2 98 10.5 178t56 166t257.5 86q27 0 106 -8.5t142 -30.5v-262
q-84 35 -127 35z" />
    <glyph glyph-name="uni01AE" unicode="&#x1ae;" horiz-adv-x="1435" 
d="M508 152v1009h-176v-262h-301v533h1374v-533h-301v262h-172v-1009q0 -164 46 -229.5t124 -65.5q51 0 92 18l-2 -270q-53 -23 -107 -23q-453 0 -515 217t-62 353z" />
    <glyph glyph-name="Uhorn" unicode="&#x1af;" horiz-adv-x="1835" 
d="M1602 1222q0 51 -72 138l194 94q100 -123 100 -261t-88.5 -229.5t-203.5 -91.5q-37 0 -86 11.5t-78 27.5v-241q0 -365 -149.5 -535t-438.5 -170q-311 10 -473 177t-162 517v506h-114v267h651v-265h-111v-442q0 -333 78 -366t126 -33t128 27.5t80 373.5v434h-111v271h576
l-6 -265q16 -29 32.5 -45t49.5 -16t55.5 32.5t22.5 83.5z" />
    <glyph glyph-name="uhorn" unicode="&#x1b0;" horiz-adv-x="1548" 
d="M1305 835q0 51 -72 138l194 94q101 -123 101 -260t-88 -229.5t-205 -92.5q-39 0 -74 9v-222h101v-272h-388l-55 129q-16 -18 -74.5 -88t-219.5 -70q-223 0 -315.5 119t-92.5 381v283h-86v270h495v-494q0 -133 24 -195.5t82 -62.5t96 43t38 113v326h-135v270h530v-270
q26 -35 63 -35q36 0 58.5 32.5t22.5 83.5z" />
    <glyph glyph-name="uni01B1" unicode="&#x1b1;" 
d="M1395 1171q-111 0 -111 -67q0 -41 29.5 -100.5t64.5 -130t65 -147.5t30 -151q0 -332 -174 -472t-516 -140t-546 163.5t-204 459.5q0 80 32.5 156.5t71.5 145t72 126t33 94.5q0 63 -121 63q-53 0 -92 -18l2 270q69 23 193 23q226 0 310 -44t84 -138q0 -47 -13 -103.5
t-40.5 -176.5t-27.5 -240q0 -121 17 -202t47 -138.5t72 -88t114 -30.5t129 115.5t57 308.5q0 115 -29 241.5t-42 186t-13 107.5q0 104 85 153t308 49q73 0 132 -9.5t71 -13.5l2 -270q-41 18 -92 18z" />
    <glyph glyph-name="uni01B2" unicode="&#x1b2;" horiz-adv-x="1558" 
d="M1157 1101q0 70 -105 70q-58 0 -98 -18l2 270q69 23 188 23q212 0 294 -42t82 -117t-38 -166t-79 -199l-391 -922h-377l-543 1165h-112v267h755v-267h-112l204 -508q57 -174 64 -247h10q4 36 41.5 117t73.5 163l100 256q41 121 41 155z" />
    <glyph glyph-name="uni01B3" unicode="&#x1b3;" horiz-adv-x="1370" 
d="M840 1169v263h551v-263h-111l-379 -665v-238h115v-266h-656v266h117v242l-291 559q-81 121 -203 121q-56 0 -96 -19l2 271q66 22 190 22t196.5 -6t119.5 -20.5t74 -37t44 -55t33.5 -75.5t43.5 -99l102 -217q4 -14 28.5 -72t35.5 -94h8q4 30 35.5 94t40.5 83l112 206h-112
z" />
    <glyph glyph-name="uni01B4" unicode="&#x1b4;" horiz-adv-x="1273" 
d="M-18 762v262h630v-260h-96l133 -320l117 289q23 49 91.5 169t348.5 120q139 -7 248 -102l-154 -242q-29 27 -56 49.5t-65 22.5t-68 -35t-44 -76l-346 -815q-23 -49 -91.5 -169t-348.5 -120q-138 7 -248 103l153 241q77 -72 127 -72t79.5 35t43.5 76l29 86l-399 758h-84z
" />
    <glyph glyph-name="uni01B5" unicode="&#x1b5;" horiz-adv-x="1462" 
d="M1298 592h-368l-268 -322h378v162h365v-432h-1354v266l271 326h-160v282h395l240 287h-387v-139h-347v410h1344v-273l-240 -285h131v-282z" />
    <glyph glyph-name="uni01B6" unicode="&#x1b6;" horiz-adv-x="1132" 
d="M989 408h-274l-137 -140h215v80h288v-348h-1030v268l139 140h-53v206h262l146 146h-228v-76h-266v340h1014v-264l-145 -146h69v-206z" />
    <glyph glyph-name="uni01B7" unicode="&#x1b7;" horiz-adv-x="1376" 
d="M289 422q168 -133 306 -133q81 0 123 17.5t87 61t45 126.5q0 84 -57.5 134t-151.5 50h-100v244h4l293 239h-428v-268h-347v539h1248v-273l-307 -282h-5q211 -77 266.5 -188t55.5 -205t-61.5 -190.5t-218.5 -208.5t-420 -112q-175 0 -343.5 68.5t-246.5 163.5z" />
    <glyph glyph-name="uni01B8" unicode="&#x1b8;" horiz-adv-x="1376" 
d="M31 484q0 270 321 393h-4l-307 282v273h1247v-539h-346v268h-428l293 -239h4v-244h-100q-94 0 -151.5 -50t-57.5 -134t63.5 -144.5t167.5 -60.5q105 0 181.5 38t148.5 95l258 -217q-78 -95 -247 -163.5t-321 -68.5q-151 0 -276 41t-224 112t-160.5 167.5t-61.5 190.5z
" />
    <glyph glyph-name="uni01B9" unicode="&#x1b9;" horiz-adv-x="1132" 
d="M596 -231q156 0 281 79l253 -163q-85 -81 -237.5 -140t-278.5 -59q-255 0 -429.5 119t-174.5 337q0 217 88 324t213 144l-270 350v264h1049v-410h-267v146h-391l299 -395v-134h-82q-158 0 -202 -87.5t-44 -171.5t50.5 -143.5t142.5 -59.5z" />
    <glyph glyph-name="uni01BA" unicode="&#x1ba;" horiz-adv-x="1132" 
d="M737 82q0 149 -245 149h-82v134l299 395h-392v-146h-266v410h1049v-264l-271 -350q140 -39 193 -85t80.5 -110.5t27.5 -166.5q0 -183 -179 -263t-433 -80q-176 0 -176 -86q0 -59 70 -133h-330q-22 22 -34.5 83.5t-12.5 103.5q0 113 102.5 203t350.5 101q249 10 249 105z
" />
    <glyph glyph-name="uni01BB" unicode="&#x1bb;" horiz-adv-x="1208" 
d="M424 1348q127 110 279 110t268 -129t116 -323q0 -115 -36 -191h106v-264h-391q-4 -5 -24 -17q-75 -48 -165 -125.5t-124 -136.5h360v164h344v-436h-1106v297q106 171 189 254h-170v264h514q55 41 92 82t37 105t-35 104.5t-84 40.5t-97 -47t-61 -144h-368v476h321z" />
    <glyph glyph-name="uni01BC" unicode="&#x1bc;" horiz-adv-x="1181" 
d="M707 977q196 0 320 -128t124 -357q0 -129 -54.5 -226.5t-186 -195t-371.5 -97.5q-152 0 -299 75t-209 173l223 232q59 -61 128 -106.5t166 -45.5t157.5 57.5t60.5 143.5t-41 144.5t-114 58.5t-96 -21.5t-33.5 -39t-26.5 -34.5l-262 117l69 399h-178v306h954v-306h-460
l-35 -198q68 49 164 49z" />
    <glyph glyph-name="uni01BD" unicode="&#x1bd;" horiz-adv-x="1081" 
d="M487 242q80 0 128.5 33.5t48.5 84.5t-30 86t-88 35t-76.5 -14t-28 -26.5t-23.5 -26.5l-260 90l61 268h-151v252h880v-252h-409q-4 -23 -9.5 -41t-9.5 -39q38 17 120 17q171 0 287.5 -95.5t116.5 -266.5t-168 -272.5t-385 -101.5t-332.5 80t-146.5 119l228 180
q134 -110 247 -110z" />
    <glyph glyph-name="uni01BE" unicode="&#x1be;" horiz-adv-x="1064" 
d="M492 299q151 0 151 96q0 120 -163 295t-163 275v98h-206v221h206v150h381v-150h215v-221h-215v-76q0 -31 25 -64.5t60.5 -73.5t77.5 -86t102.5 -139.5t60.5 -210.5q0 -212 -136 -322.5t-351 -110.5q-303 0 -533 264l221 223q99 -114 166.5 -141t100.5 -27z" />
    <glyph glyph-name="uni01BF" unicode="&#x1bf;" horiz-adv-x="1310" 
d="M877 991q0 76 -76 76q-49 0 -113 -33l-102 -55v-377l92 49q131 70 165 181.5t34 158.5zM1109.5 1473q166.5 0 166.5 -315q0 -244 -153.5 -449t-381.5 -324l-155 -82v-33h125v-270h-660v270h115v893h-115v269h535v-140l129 66q228 115 394.5 115z" />
    <glyph glyph-name="uni01C0" unicode="&#x1c0;" horiz-adv-x="530" 
d="M51 1432h424v-1432h-424v1432z" />
    <glyph glyph-name="uni01C1" unicode="&#x1c1;" horiz-adv-x="1083" 
d="M51 1432h424v-1432h-424v1432zM598 1432h424v-1432h-424v1432z" />
    <glyph glyph-name="uni01C2" unicode="&#x1c2;" horiz-adv-x="935" 
d="M47 625h217v180h-217v272h217v355h424v-355h203v-272h-203v-180h203v-273h-203v-352h-424v352h-217v273z" />
    <glyph glyph-name="uni01C3" unicode="&#x1c3;" horiz-adv-x="630" 
d="M66 1432h489v-390l-109 -516h-270l-110 516v390zM465 363.5q70 -62.5 70 -151.5t-66 -151.5t-169 -62.5t-173 62.5t-70 148.5t66.5 151.5t169 65.5t172.5 -62.5z" />
    <glyph glyph-name="uni01C4" unicode="&#x1c4;" horiz-adv-x="2897" 
d="M1960 1911l285 -144l276 144l102 -191l-391 -243l-387 243zM1507 893v539h1344v-273l-746 -889h379v262h365v-532h-1354v266l746 895h-388v-268h-346zM906.5 1038q-76.5 123 -230.5 123h-78v-889h78q154 0 230.5 129t76.5 321q0 193 -76.5 316zM51 0v272h127v889h-127
v271h625q358 0 568 -196t210 -501q0 -352 -202.5 -543.5t-583.5 -191.5h-617z" />
    <glyph glyph-name="uni01C5" unicode="&#x1c5;" horiz-adv-x="2607" 
d="M1763 1516l285 -144l276 144l103 -191l-391 -244l-387 244zM1526 614v410h1014v-264l-488 -492h215v140h289v-408h-1030v268l493 492h-227v-146h-266zM906.5 1038q-76.5 123 -230.5 123h-78v-889h78q154 0 230.5 129t76.5 321q0 193 -76.5 316zM51 0v272h127v889h-127
v271h625q358 0 568 -196t210 -501q0 -352 -202.5 -543.5t-583.5 -191.5h-617z" />
    <glyph glyph-name="uni01C6" unicode="&#x1c6;" horiz-adv-x="2420" 
d="M1331 614v410h1014v-264l-487 -492h215v140h288v-408h-1030v268l494 492h-228v-146h-266zM1569 1516l284 -144l277 144l102 -191l-391 -244l-387 244zM461 522q0 -157 56 -204.5t91 -47.5q57 0 101.5 63.5t44.5 174.5q0 184 -57.5 227t-90.5 43q-66 0 -105.5 -69.5
t-39.5 -186.5zM754 76q-94 -94 -286 -94q-81 0 -169 44t-183.5 159.5t-95.5 342.5t140 371.5t336 144.5q109 0 169 -29.5t89 -47.5v303h-95v266h510v-1270h99v-266h-480z" />
    <glyph glyph-name="uni01C7" unicode="&#x1c7;" horiz-adv-x="1824" 
d="M1114 -143q170 0 170 295v1011h-176v269h770v-269h-170v-1011q0 -285 -135.5 -427.5t-442.5 -142.5q-58 0 -106 23l-2 270q39 -18 92 -18zM51 1432h647v-271h-108v-889h264v260h344v-532h-1147v272h113v889h-113v271z" />
    <glyph glyph-name="uni01C8" unicode="&#x1c8;" horiz-adv-x="1746" 
d="M1634 1465.5q62 -66.5 62 -147.5t-57 -141.5t-159 -60.5t-166.5 64.5t-64.5 141.5t59.5 143.5t161.5 66.5t164 -66.5zM1278 758h-86v266h475v-881q0 -244 -127.5 -407.5t-495.5 -163.5v274q154 0 194 85.5t40 211.5v615zM51 1432h647v-271h-108v-889h264v260h344v-532
h-1147v272h113v889h-113v271z" />
    <glyph glyph-name="uni01C9" unicode="&#x1c9;" horiz-adv-x="1196" 
d="M1097 1465.5q62 -66.5 62 -147.5t-57.5 -141.5t-158.5 -60.5t-165.5 63.5t-64.5 142.5t60 144.5t161 65.5t163 -66.5zM741 758h-92v266h481v-881q0 -246 -127.5 -408.5t-494.5 -162.5v274q153 0 193 85.5t40 211.5v615zM649 0h-598v268h88v1004h-86v264h475v-1268h121
v-268z" />
    <glyph glyph-name="uni01CA" unicode="&#x1ca;" horiz-adv-x="2260" 
d="M1567 -143q170 0 170 295v1011h-176v4h-76v-1167h-441l-522 780v-516h158v-264h-629v264h121v903h-119v265h588l504 -752v487h-141v265h1327v-269h-170v-1011q0 -283 -135.5 -426.5t-442.5 -143.5q-60 0 -106 23l-2 270q39 -18 92 -18z" />
    <glyph glyph-name="uni01CB" unicode="&#x1cb;" horiz-adv-x="2154" 
d="M2044.5 1466q62.5 -66 62.5 -147q0 -82 -56.5 -142.5t-158.5 -60.5t-166.5 64.5t-64.5 141.5t59.5 143.5t160.5 66.5t163.5 -66zM1690 758h-70l-16 266h475v-881q0 -244 -127.5 -407.5t-495.5 -163.5v274q153 0 193.5 86.5t40.5 210.5v615zM1620 1167h-135v-1167h-441
l-522 780v-516h158v-264h-629v264h121v903h-119v265h588l504 -752v487h-141v265h616v-265z" />
    <glyph glyph-name="uni01CC" unicode="&#x1cc;" horiz-adv-x="1845" 
d="M1732 1465.5q62 -66.5 62 -147.5t-57.5 -141.5t-158.5 -60.5t-165.5 63.5t-64.5 142.5t60 144.5t161 65.5t163 -66.5zM1376 758h-86v266h475v-881q0 -244 -127.5 -407.5t-494.5 -163.5v274q153 0 193 85.5t40 211.5v615zM535 559v-291h147v-268h-631v268h86v490h-86v266
h436l48 -127q121 164 292 164q216 0 293.5 -126.5t77.5 -324.5v-342h96v-268h-516v559q0 86 -18 138.5t-96 52.5q-129 0 -129 -191z" />
    <glyph glyph-name="uni01CD" unicode="&#x1cd;" horiz-adv-x="1685" 
d="M567 1923l285 -143l276 143l103 -190l-391 -244l-387 244zM641 653h268l-135 443zM1655 0h-821v268h194l-43 140h-420l-43 -140h160v-268h-651v268h139l276 899h-84v265h787l362 -1164h144v-268z" />
    <glyph glyph-name="uni01CE" unicode="&#x1ce;" horiz-adv-x="1228" 
d="M340 1516l285 -144l276 144l103 -191l-392 -244l-387 244zM528 227q47 0 82 22.5t49 45.5v78q-30 59 -105 59q-134 0 -134 -108q0 -43 30.5 -70t77.5 -27zM457 680q130 0 202 -72v72q0 70 -55 92.5t-143 22.5q-131 0 -301 -95l-86 238q250 145 446 145q365 0 460 -149.5
t95 -271.5v-400h123v-262h-438l-49 92q-97 -131 -267 -131t-291.5 87t-121.5 255t123.5 272.5t302.5 104.5z" />
    <glyph glyph-name="uni01CF" unicode="&#x1cf;" horiz-adv-x="782" 
d="M117 1923l284 -143l277 143l102 -190l-391 -244l-387 244zM51 1432h680v-271h-127v-889h127v-272h-680v272h129v889h-129v271z" />
    <glyph glyph-name="uni01D0" unicode="&#x1d0;" horiz-adv-x="675" 
d="M10 1552l285 -143l276 143l103 -190l-391 -244l-387 244zM625 0h-574v268h86v490h-86v266h475v-756h99v-268z" />
    <glyph glyph-name="uni01D1" unicode="&#x1d1;" 
d="M483 1923l285 -143l276 143l103 -190l-391 -244l-387 244zM916 400.5q57 115.5 57 308.5q0 309 -83.5 377.5t-137.5 68.5q-98 0 -156.5 -120t-58.5 -314q0 -195 63 -315.5t161 -120.5t155 115.5zM31 703q0 352 199.5 559.5t519.5 207.5q365 0 550 -201.5t185 -557.5
t-189 -552t-525 -196q-340 0 -540 194t-200 546z" />
    <glyph glyph-name="uni01D2" unicode="&#x1d2;" horiz-adv-x="1175" 
d="M313 1516l285 -144l276 144l103 -191l-391 -244l-387 244zM693.5 704.5q-39.5 77.5 -109.5 77.5q-93 0 -117.5 -106.5t-24.5 -161.5q0 -127 43 -202.5t108 -75.5t102.5 75t37.5 195.5t-39.5 198zM23 509q0 253 167 396.5t404 143.5t398 -148.5t161 -396.5t-159.5 -389.5
t-396.5 -141.5q-241 0 -407.5 141.5t-166.5 394.5z" />
    <glyph glyph-name="uni01D3" unicode="&#x1d3;" horiz-adv-x="1509" 
d="M479 1923l285 -143l276 143l103 -190l-391 -244l-387 244zM31 1432h651v-265h-111v-442q0 -333 78 -366t126 -33t128 27.5t80 373.5v434h-111v271h607v-265h-111v-497q0 -365 -149.5 -535t-438.5 -170q-311 10 -473 177t-162 517v506h-114v267z" />
    <glyph glyph-name="uni01D4" unicode="&#x1d4;" horiz-adv-x="1292" 
d="M371 1516l284 -144l277 144l102 -191l-391 -244l-387 244zM31 1024h495v-494q0 -133 24 -195.5t82 -62.5t96 43t38 113v326h-135v270h530v-752h101v-272h-388l-55 129q-16 -18 -74.5 -88t-219.5 -70q-223 0 -315.5 119t-92.5 381v283h-86v270z" />
    <glyph glyph-name="uni01D5" unicode="&#x1d5;" horiz-adv-x="1509" 
d="M193 2066h1146v-151h-1146v151zM362 1693q0 106 69 139.5t130.5 33.5t113.5 -54t52 -122t-47 -118t-130 -50t-135.5 54t-52.5 117zM823 1693q0 106 69 139.5t129 33.5t113.5 -54t53.5 -122t-47 -118t-130 -50t-135.5 54t-52.5 117zM31 1432h651v-265h-111v-442
q0 -333 78 -366t126 -33t128 27.5t80 373.5v434h-111v271h607v-265h-111v-497q0 -365 -149.5 -535t-438.5 -170q-311 10 -473 177t-162 517v506h-114v267z" />
    <glyph glyph-name="uni01D6" unicode="&#x1d6;" horiz-adv-x="1292" 
d="M23 1649h1146v-152h-1146v152zM193 1269q0 107 68.5 140t130 33t113.5 -54t52 -122t-47 -118t-130 -50t-135 53.5t-52 117.5zM653 1269q0 106 69 139.5t129 33.5t113.5 -54t53.5 -122t-47 -118t-130 -50t-135.5 54t-52.5 117zM31 1024h495v-494q0 -133 24 -195.5
t82 -62.5t96 43t38 113v326h-135v270h530v-752h101v-272h-388l-55 129q-16 -18 -74.5 -88t-219.5 -70q-223 0 -315.5 119t-92.5 381v283h-86v270z" />
    <glyph glyph-name="uni01D7" unicode="&#x1d7;" horiz-adv-x="1509" 
d="M1112 1982l-309 -290h-256l160 290h405zM464 1873q62 -66 62 -147t-57 -141.5t-159 -60.5t-166 64.5t-64 141.5t59 143t161 66t164 -66zM1369.5 1872.5q62.5 -66.5 62.5 -147.5q0 -80 -57 -140.5t-159 -60.5t-166.5 64.5t-64.5 141.5t59 143t161 66t164.5 -66.5zM31 1432
h651v-265h-111v-442q0 -333 78 -366t126 -33t128 27.5t80 373.5v434h-111v271h607v-265h-111v-497q0 -365 -149.5 -535t-438.5 -170q-311 10 -473 177t-162 517v506h-114v267z" />
    <glyph glyph-name="uni01D8" unicode="&#x1d8;" horiz-adv-x="1292" 
d="M952 1575l-309 -291h-256l160 291h405zM305 1465.5q62 -66.5 62 -147.5t-57.5 -141.5t-159.5 -60.5t-166 64.5t-64 141.5t59.5 143.5t161.5 66.5t164 -66.5zM1210 1465.5q62 -66.5 62 -147.5t-57.5 -141.5t-158.5 -60.5t-166 64t-65 142t59.5 144t161.5 66t164 -66.5z
M31 1024h495v-494q0 -133 24 -195.5t82 -62.5t96 43t38 113v326h-135v270h530v-752h101v-272h-388l-55 129q-16 -18 -74.5 -88t-219.5 -70q-223 0 -315.5 119t-92.5 381v283h-86v270z" />
    <glyph glyph-name="uni01D9" unicode="&#x1d9;" horiz-adv-x="1509" 
d="M541 2019l235 -114l228 114l83 -153l-321 -195l-320 195zM234 1806q50 52 132 52q83 0 134 -53t51 -118t-47 -114t-131 -49t-136.5 50.5t-52.5 114.5q0 65 50 117zM1043 1806q50 52 131 52t133.5 -52t52.5 -118t-47 -115t-131 -49t-136.5 50.5t-52.5 114.5q0 65 50 117z
M31 1432h651v-265h-111v-442q0 -333 78 -366t126 -33t128 27.5t80 373.5v434h-111v271h607v-265h-111v-497q0 -365 -149.5 -535t-438.5 -170q-311 10 -473 177t-162 517v506h-114v267z" />
    <glyph glyph-name="uni01DA" unicode="&#x1da;" horiz-adv-x="1292" 
d="M365 1591l235 -114l227 114l84 -153l-321 -195l-320 195zM58 1378q50 52 133 52t133.5 -53t50.5 -118t-47 -114t-131 -49t-136.5 50.5t-52.5 114.5q0 65 50 117zM867 1378q50 52 131 52t133.5 -52t52.5 -118t-47 -115t-131 -49t-136.5 50.5t-52.5 114.5q0 65 50 117z
M31 1024h495v-494q0 -133 24 -195.5t82 -62.5t96 43t38 113v326h-135v270h530v-752h101v-272h-388l-55 129q-16 -18 -74.5 -88t-219.5 -70q-223 0 -315.5 119t-92.5 381v283h-86v270z" />
    <glyph glyph-name="uni01DB" unicode="&#x1db;" horiz-adv-x="1509" 
d="M807 2013l160 -291h-256l-310 291h406zM401.5 1872q61.5 -67 61.5 -147t-57.5 -140.5t-158.5 -60.5t-166 64t-65 141t59 143.5t162 66.5t164.5 -67zM1417.5 1872q61.5 -67 61.5 -147t-57.5 -140.5t-159.5 -60.5t-166 64.5t-64 141.5t59 143t162 66t164.5 -67zM31 1432
h651v-265h-111v-442q0 -333 78 -366t126 -33t128 27.5t80 373.5v434h-111v271h607v-265h-111v-497q0 -365 -149.5 -535t-438.5 -170q-311 10 -473 177t-162 517v506h-114v267z" />
    <glyph glyph-name="uni01DC" unicode="&#x1dc;" horiz-adv-x="1292" 
d="M616 1671l160 -291h-256l-309 291h405zM381.5 1466q62.5 -66 62.5 -147q0 -82 -57 -142.5t-159 -60.5t-166 64.5t-64 141.5t59.5 143.5t160.5 66.5t163.5 -66zM1190.5 1466q62.5 -66 62.5 -147q0 -82 -56.5 -142.5t-158.5 -60.5t-166.5 64.5t-64.5 141.5t59.5 143.5
t160.5 66.5t163.5 -66zM31 1024h495v-494q0 -133 24 -195.5t82 -62.5t96 43t38 113v326h-135v270h530v-752h101v-272h-388l-55 129q-16 -18 -74.5 -88t-219.5 -70q-223 0 -315.5 119t-92.5 381v283h-86v270z" />
    <glyph glyph-name="uni01DD" unicode="&#x1dd;" horiz-adv-x="1110" 
d="M515 240q84 0 118 52t41 111h-309q0 -115 51 -139t99 -24zM10 874q210 179 496 179q247 0 410 -141t163 -399t-154.5 -404t-399.5 -146q-244 0 -379.5 135.5t-135.5 352.5q0 97 25 155h645q-13 67 -56 117.5t-155 50.5q-172 0 -287 -98z" />
    <glyph glyph-name="uni01DE" unicode="&#x1de;" horiz-adv-x="1685" 
d="M193 2042h1146v-152h-1146v152zM362 1670q0 106 69 139.5t130.5 33.5t113.5 -54t52 -122t-47 -118t-129 -50t-135.5 53.5t-53.5 117.5zM823 1670q0 106 69 139.5t129 33.5t113.5 -53.5t53.5 -121.5t-47 -118.5t-129 -50.5t-135.5 53.5t-53.5 117.5zM641 653h268l-135 443
zM1655 0h-821v268h194l-43 140h-420l-43 -140h160v-268h-651v268h139l276 899h-84v265h787l362 -1164h144v-268z" />
    <glyph glyph-name="uni01DF" unicode="&#x1df;" horiz-adv-x="1228" 
d="M23 1649h1146v-152h-1146v152zM193 1269q0 107 68.5 140t130 33t113.5 -54t52 -122t-47 -118t-130 -50t-135 53.5t-52 117.5zM653 1269q0 106 69 139.5t129 33.5t113.5 -54t53.5 -122t-47 -118t-130 -50t-135.5 54t-52.5 117zM528 227q47 0 82 22.5t49 45.5v78
q-30 59 -105 59q-134 0 -134 -108q0 -43 30.5 -70t77.5 -27zM457 680q130 0 202 -72v72q0 70 -55 92.5t-143 22.5q-131 0 -301 -95l-86 238q250 145 446 145q365 0 460 -149.5t95 -271.5v-400h123v-262h-438l-49 92q-97 -131 -267 -131t-291.5 87t-121.5 255t123.5 272.5
t302.5 104.5z" />
    <glyph glyph-name="uni01E0" unicode="&#x1e0;" horiz-adv-x="1685" 
d="M193 2042h1146v-152h-1146v152zM598 1670q0 106 68.5 139.5t130.5 33.5t114 -54t52 -122t-47.5 -118t-129.5 -50t-135 53.5t-53 117.5zM641 653h268l-135 443zM1655 0h-821v268h194l-43 140h-420l-43 -140h160v-268h-651v268h139l276 899h-84v265h787l362 -1164h144v-268
z" />
    <glyph glyph-name="uni01E1" unicode="&#x1e1;" horiz-adv-x="1228" 
d="M23 1649h1146v-152h-1146v152zM703 1409.5q51 -54.5 51 -121.5q0 -68 -47 -118t-129 -50t-135.5 53.5t-53.5 118.5t50 118.5t131.5 53.5t132.5 -54.5zM528 227q47 0 82 22.5t49 45.5v78q-30 59 -105 59q-134 0 -134 -108q0 -43 30.5 -70t77.5 -27zM457 680q130 0 202 -72
v72q0 70 -55 92.5t-143 22.5q-131 0 -301 -95l-86 238q250 145 446 145q365 0 460 -149.5t95 -271.5v-400h123v-262h-438l-49 92q-97 -131 -267 -131t-291.5 87t-121.5 255t123.5 272.5t302.5 104.5z" />
    <glyph glyph-name="uni01E2" unicode="&#x1e2;" horiz-adv-x="2379" 
d="M831 1837h1143v-272h-1143v272zM1174 653v514l-304 -514h304zM676 1432h1603v-453h-354v182h-328v-282h390v-273h-390v-334h328v191h354v-463h-1235v272h130v136h-449l-84 -140h158v-268h-711v268h139l533 899h-84v265z" />
    <glyph glyph-name="uni01E3" unicode="&#x1e3;" horiz-adv-x="1802" 
d="M354 1430h1143v-273h-1143v273zM528 227q47 0 82 22.5t49 45.5v78q-30 59 -105 59q-134 0 -134 -108q0 -43 30.5 -70t77.5 -27zM1248 776q-82 0 -116.5 -51t-41.5 -113h309q0 116 -51.5 140t-99.5 24zM1753 141q-209 -178 -502 -178t-446 184q-57 -76 -192 -148
t-307 -22.5t-223.5 143t-51.5 181.5q0 170 123.5 274.5t302.5 104.5q130 0 202 -72v72q0 70 -55 92.5t-143 22.5q-131 0 -301 -95l-86 238q250 145 446 145q251 0 406 -110q135 80 286 80q270 0 405.5 -135t135.5 -353q0 -87 -24 -155h-646q13 -67 56 -117.5t155 -50.5
q172 0 287 98z" />
    <glyph glyph-name="uni01E4" unicode="&#x1e4;" horiz-adv-x="1722" 
d="M1008 592h129v72h-252v219h807v-219h-82v-72h86v-195h-86v-397h-410l-63 129q-35 -57 -123 -102t-215 -45t-244 50t-254 198t-137 473t141 484t254 214t229 55t187.5 -22.5t115.5 -51t66.5 -57.5t34.5 -41l43 148h305v-476l-395 -4q-31 66 -85 100.5t-118 34.5
q-124 0 -203.5 -112.5t-79.5 -273.5t75.5 -268t202.5 -107t179 71h-108v195z" />
    <glyph glyph-name="uni01E5" unicode="&#x1e5;" horiz-adv-x="1310" 
d="M592 592h151q-14 82 -50.5 134t-96.5 52t-99.5 -69.5t-39.5 -186.5q0 -157 56 -204.5t94 -47.5t73 34t53 93h-141v195zM694.5 -85.5q57.5 57.5 57.5 134.5v70q-49 -69 -120 -91t-120 -22q-248 0 -370 150.5t-122 377.5t132.5 368.5t382.5 141.5q68 0 127 -26.5t90 -56.5
l41 63h487v-268h-123v-164h123v-195h-123v-254q0 -260 -162.5 -411.5t-476.5 -151.5q-148 0 -270 55.5t-199 124.5l109 228q44 -39 144.5 -85t217.5 -46t174.5 57.5z" />
    <glyph glyph-name="uni01E6" unicode="&#x1e6;" horiz-adv-x="1589" 
d="M559 1923l285 -143l276 143l103 -190l-392 -244l-387 244zM666 -18q-127 0 -244 50t-254 198t-137 473t141 484t253.5 214t228.5 55t187.5 -22.5t115.5 -51t67 -57.5t35 -41l43 148h305v-605h-367q-4 122 -71.5 191t-145.5 69q-137 0 -217 -112.5t-80 -273.5t75.5 -268
t205.5 -107q88 0 131 29.5t66 70.5v86h-125v219h680v-219h-82v-512h-410l-63 129q-35 -57 -123 -102t-215 -45z" />
    <glyph glyph-name="uni01E7" unicode="&#x1e7;" horiz-adv-x="1310" 
d="M395 1516l285 -144l276 144l103 -191l-391 -244l-387 244zM457 522q0 -157 56 -204.5t91 -47.5q57 0 101.5 63.5t44.5 174.5q0 184 -57.5 227t-90.5 43q-66 0 -105.5 -69.5t-39.5 -186.5zM694.5 -85.5q57.5 57.5 57.5 134.5v70q-49 -69 -120 -91t-120 -22
q-248 0 -370 150.5t-122 377.5t132.5 368.5t382.5 141.5q68 0 127 -26.5t90 -56.5l41 63h487v-268h-123v-613q0 -260 -162.5 -411.5t-476.5 -151.5q-148 0 -270 55.5t-199 124.5l109 228q44 -39 144.5 -85t217.5 -46t174.5 57.5z" />
    <glyph glyph-name="uni01E8" unicode="&#x1e8;" horiz-adv-x="1669" 
d="M559 1923l285 -143l276 143l103 -190l-392 -244l-387 244zM696 1167h-110v-333l381 333h-148v265h682v-265h-119l-297 -256l414 -645h119v-266h-799v266h139l-221 348l-151 -129v-219h110v-266h-645v266h111v901h-111v265h645v-265z" />
    <glyph glyph-name="uni01E9" unicode="&#x1e9;" horiz-adv-x="1339" 
d="M39 2015l285 -143l276 143l102 -190l-391 -244l-387 244zM78 0v266h84v1002h-84v268h473v-926l237 142h-147v270h573v-270h-157l-139 -88l276 -396h102v-268h-606v268h86l-155 221l-72 -49v-172h76v-268h-547z" />
    <glyph glyph-name="uni01EA" unicode="&#x1ea;" 
d="M916 400.5q57 115.5 57 308.5q0 309 -83.5 377.5t-137.5 68.5q-98 0 -156.5 -120t-58.5 -314q0 -195 63 -315.5t161 -120.5t155 115.5zM563 -209q0 106 49 184q-267 37 -424 229t-157 521t199.5 537t519.5 208q365 0 550 -201.5t185 -559.5q0 -307 -144.5 -499
t-418.5 -235q-76 -45 -76 -140q0 -40 34.5 -68.5t88.5 -28.5t229 61v-293q-120 -51 -282 -51t-257.5 72.5t-95.5 263.5z" />
    <glyph glyph-name="uni01EB" unicode="&#x1eb;" horiz-adv-x="1175" 
d="M693.5 704.5q-39.5 77.5 -109.5 77.5q-93 0 -117.5 -106.5t-24.5 -161.5q0 -127 43 -202.5t108 -75.5t102.5 75t37.5 195.5t-39.5 198zM354 -197q0 118 64 193q-173 41 -284 176t-111 344q0 245 167 389t404 144t398 -148.5t161 -400.5q0 -209 -116.5 -341.5
t-303.5 -170.5l-16 -11q-80 -45 -80 -142q0 -40 35 -68.5t89 -28.5t228 61v-293q-120 -51 -282 -51t-257.5 72t-95.5 276z" />
    <glyph glyph-name="uni01EC" unicode="&#x1ec;" 
d="M916 400.5q57 115.5 57 308.5q0 309 -83.5 377.5t-137.5 68.5q-98 0 -156.5 -120t-58.5 -314q0 -195 63 -315.5t161 -120.5t155 115.5zM186 1837h1143v-272h-1143v272zM561 -209q0 106 49 184q-412 64 -495.5 322t-83.5 425q0 333 199.5 540.5t519.5 207.5
q365 0 550 -201.5t185 -559.5q0 -309 -145.5 -500t-421.5 -234q-74 -46 -74 -140q0 -40 34.5 -68.5t88.5 -28.5t229 61v-293q-120 -51 -283 -51q-250 0 -301 115t-51 221z" />
    <glyph glyph-name="uni01ED" unicode="&#x1ed;" horiz-adv-x="1175" 
d="M693.5 704.5q-39.5 77.5 -109.5 77.5q-93 0 -117.5 -106.5t-24.5 -161.5q0 -127 43 -202.5t108 -75.5t102.5 75t37.5 195.5t-39.5 198zM16 1430h1143v-273h-1143v273zM334 -198q0 117 67 198q-262 75 -320 242.5t-58 285.5t48 217t167 201.5t356 102.5t398 -148.5
t161 -400.5q0 -215 -124.5 -351t-323.5 -165l-9 -7q-80 -45 -80 -142q0 -40 35 -68.5t88 -28.5t230 61v-293q-120 -51 -282 -51t-257.5 72t-95.5 275z" />
    <glyph glyph-name="uni01EE" unicode="&#x1ee;" horiz-adv-x="1359" 
d="M426 1923l285 -143l276 143l103 -190l-392 -244l-387 244zM289 422q168 -133 306 -133q81 0 123 17.5t87 61t45 126.5q0 84 -57.5 134t-151.5 50h-100v244h4l293 239h-428v-268h-347v539h1248v-273l-307 -282h-5q211 -77 266.5 -188t55.5 -205t-61.5 -190.5
t-218.5 -208.5t-420 -112q-175 0 -343.5 68.5t-246.5 163.5z" />
    <glyph glyph-name="uni01EF" unicode="&#x1ef;" horiz-adv-x="1132" 
d="M307 1534l285 -143l276 143l103 -191l-391 -243l-387 243zM545 -231q92 0 142 58.5t50 144.5q0 143 -75 201t-170 58h-82v134l299 395h-392v-146h-266v410h1049v-264l-271 -350q203 -56 252 -201t49 -263q0 -222 -174.5 -341t-402.5 -119t-365 80t-178 119l254 163
q120 -79 281 -79z" />
    <glyph glyph-name="uni01F0" unicode="&#x1f0;" horiz-adv-x="737" 
d="M174 1534l285 -143l276 143l103 -191l-392 -243l-387 243zM262 758h-86v266h475v-881q0 -244 -127.5 -407.5t-494.5 -163.5v274q153 0 193 85.5t40 211.5v615z" />
    <glyph glyph-name="uni01F1" unicode="&#x1f1;" horiz-adv-x="2936" 
d="M1538 893v539h1344v-273l-746 -889h379v262h364v-532h-1353v266l745 895h-387v-268h-346zM906.5 1038q-76.5 123 -230.5 123h-78v-889h78q154 0 230.5 129t76.5 321q0 193 -76.5 316zM51 0v272h127v889h-127v271h625q358 0 568 -196t210 -501q0 -352 -202.5 -543.5
t-583.5 -191.5h-617z" />
    <glyph glyph-name="uni01F2" unicode="&#x1f2;" horiz-adv-x="2607" 
d="M1526 614v410h1014v-264l-488 -492h215v140h289v-408h-1030v268l493 492h-227v-146h-266zM906.5 1038q-76.5 123 -230.5 123h-78v-889h78q154 0 230.5 129t76.5 321q0 193 -76.5 316zM51 0v272h127v889h-127v271h625q358 0 568 -196t210 -501q0 -352 -202.5 -543.5
t-583.5 -191.5h-617z" />
    <glyph glyph-name="uni01F3" unicode="&#x1f3;" horiz-adv-x="2430" 
d="M1350 614v410h1013v-264l-487 -492h215v140h289v-408h-1030v268l493 492h-227v-146h-266zM461 522q0 -157 56 -204.5t91 -47.5q57 0 101.5 63.5t44.5 174.5q0 184 -57.5 227t-90.5 43q-66 0 -105.5 -69.5t-39.5 -186.5zM754 76q-94 -94 -286 -94q-81 0 -169 44
t-183.5 159.5t-95.5 342.5t140 371.5t336 144.5q109 0 169 -29.5t89 -47.5v303h-95v266h510v-1270h99v-266h-480z" />
    <glyph glyph-name="uni01F4" unicode="&#x1f4;" horiz-adv-x="1589" 
d="M1155 1843l-309 -291h-256l160 291h405zM666 -18q-127 0 -244 50t-254 198t-137 473t141 484t253.5 214t228.5 55t187.5 -22.5t115.5 -51t67 -57.5t35 -41l43 148h305v-605h-367q-4 122 -71.5 191t-145.5 69q-137 0 -217 -112.5t-80 -273.5t75.5 -268t205.5 -107
q88 0 131 29.5t66 70.5v86h-125v219h680v-219h-82v-512h-410l-63 129q-35 -57 -123 -102t-215 -45z" />
    <glyph glyph-name="uni01F5" unicode="&#x1f5;" horiz-adv-x="1310" 
d="M1044 1436l-309 -291h-256l160 291h405zM457 522q0 -157 56 -204.5t91 -47.5q57 0 101.5 63.5t44.5 174.5q0 184 -57.5 227t-90.5 43q-66 0 -105.5 -69.5t-39.5 -186.5zM694.5 -85.5q57.5 57.5 57.5 134.5v70q-49 -69 -120 -91t-120 -22q-248 0 -370 150.5t-122 377.5
t132.5 368.5t382.5 141.5q68 0 127 -26.5t90 -56.5l41 63h487v-268h-123v-613q0 -260 -162.5 -411.5t-476.5 -151.5q-148 0 -270 55.5t-199 124.5l109 228q44 -39 144.5 -85t217.5 -46t174.5 57.5z" />
    <glyph glyph-name="uni01F6" unicode="&#x1f6;" horiz-adv-x="2347" 
d="M1403 1161v-946q0 -333 78 -366t126 -33t128 27.5t80 373.5v537h-111v270h606v-264h-110v-600q0 -365 -149.5 -535t-438.5 -170q-311 10 -473 177t-162 518v430h-389v-310h127v-270h-664v270h113v891h-113v271h664v-271h-127v-309h389v309h-121v271h666v-271h-119z" />
    <glyph glyph-name="uni01F7" unicode="&#x1f7;" horiz-adv-x="1310" 
d="M877 991q0 76 -76 76q-49 0 -113 -33l-102 -55v-377l92 49q131 70 165 181.5t34 158.5zM1109.5 1473q166.5 0 166.5 -315q0 -244 -153.5 -449t-381.5 -324l-155 -82v-543h125v-270h-660v270h115v1403h-115v269h535v-140l129 66q228 115 394.5 115z" />
    <glyph glyph-name="uni01F8" unicode="&#x1f8;" horiz-adv-x="1671" 
d="M958 1843l160 -291h-256l-309 291h405zM1620 1167h-135v-1167h-441l-522 780v-516h158v-264h-629v264h121v903h-119v265h588l504 -752v487h-141v265h616v-265z" />
    <glyph glyph-name="uni01F9" unicode="&#x1f9;" horiz-adv-x="1325" 
d="M598 1436l160 -291h-256l-309 291h405zM535 559v-291h147v-268h-631v268h86v490h-86v266h436l48 -127q121 164 292 164q216 0 293.5 -126.5t77.5 -324.5v-342h96v-268h-516v559q0 86 -18 138.5t-96 52.5q-129 0 -129 -191z" />
    <glyph glyph-name="uni01FA" unicode="&#x1fa;" horiz-adv-x="1685" 
d="M1403 1843l-309 -291h-256l159 291h406zM641 653h268l-135 443zM1655 0h-821v268h194l-43 140h-420l-43 -140h160v-268h-651v268h139l276 899h-84v265h787l362 -1164h144v-268zM762 1531q-72 -65 -168 -65t-167 64.5t-71 153t73.5 153t168 64.5t165.5 -64.5t71 -152.5
t-72 -153zM680 1683.5q0 36.5 -24.5 61t-60.5 24.5t-60.5 -24.5t-24.5 -61t24.5 -61.5t61.5 -25t60.5 25t23.5 61.5z" />
    <glyph glyph-name="uni01FB" unicode="&#x1fb;" horiz-adv-x="1228" 
d="M1020 1874l-309 -291h-256l159 291h406zM528 227q47 0 82 22.5t49 45.5v78q-30 59 -105 59q-134 0 -134 -108q0 -43 30.5 -70t77.5 -27zM457 680q130 0 202 -72v72q0 70 -55 92.5t-143 22.5q-131 0 -301 -95l-86 238q250 145 446 145q365 0 460 -149.5t95 -271.5v-400
h123v-262h-438l-49 92q-97 -131 -267 -131t-291.5 87t-121.5 255t123.5 272.5t302.5 104.5zM735 1176.5q-72 -64.5 -168 -64.5t-166.5 64t-70.5 153t73 153t168 64t165.5 -64t70.5 -152.5t-72 -153zM653 1329q0 37 -24.5 61.5t-60.5 24.5t-60.5 -24.5t-24.5 -61.5
t24.5 -61.5t61.5 -24.5t60.5 24.5t23.5 61.5z" />
    <glyph glyph-name="AEacute" unicode="&#x1fc;" horiz-adv-x="2379" 
d="M1749 1843l-309 -291h-256l159 291h406zM1174 653v514l-304 -514h304zM676 1432h1603v-453h-354v182h-328v-282h390v-273h-390v-334h328v191h354v-463h-1235v272h130v136h-449l-84 -140h158v-268h-711v268h139l533 899h-84v265z" />
    <glyph glyph-name="aeacute" unicode="&#x1fd;" horiz-adv-x="1853" 
d="M1208 1436l-309 -291h-256l160 291h405zM528 227q47 0 82 22.5t49 45.5v78q-30 59 -105 59q-134 0 -134 -108q0 -43 30.5 -70t77.5 -27zM1248 776q-82 0 -116.5 -51t-41.5 -113h309q0 116 -51.5 140t-99.5 24zM1753 141q-209 -178 -502 -178t-446 184q-57 -76 -192 -148
t-307 -22.5t-223.5 143t-51.5 181.5q0 170 123.5 274.5t302.5 104.5q130 0 202 -72v72q0 70 -55 92.5t-143 22.5q-131 0 -301 -95l-86 238q250 145 446 145q251 0 406 -110q135 80 286 80q270 0 405.5 -135t135.5 -353q0 -87 -24 -155h-646q13 -67 56 -117.5t155 -50.5
q172 0 287 98z" />
    <glyph glyph-name="Oslashacute" unicode="&#x1fe;" 
d="M1184 1843l-310 -291h-256l160 291h406zM754 285q105 0 162 115.5t57 308.5q0 50 -4 96l-324 -465q49 -55 109 -55zM552 897q-15 -80 -15 -154t4 -122l331 477q-50 57 -112 57t-99.5 -31.5t-65.5 -89t-43 -137.5zM223 164q-192 200 -192 545t199.5 553t519.5 208
q189 0 340 -61l16 23h299l-111 -158q191 -195 191 -557t-189 -558t-532 -196q-186 0 -338 64l-18 -27h-299z" />
    <glyph glyph-name="oslashacute" unicode="&#x1ff;" horiz-adv-x="1175" 
d="M991 1436l-309 -291h-256l160 291h405zM584 782q-61 0 -101.5 -79.5t-40.5 -188.5v-35l213 273q-40 30 -71 30zM589 236q69 0 106.5 75t37.5 197v11q0 11 -2 22l-213 -275q33 -30 71 -30zM170 131q-147 139 -147 385t167 389.5t394 143.5q121 0 262 -54l24 31h242
l-108 -137q149 -149 149 -391t-159.5 -383.5t-399.5 -141.5q-139 0 -264 54l-21 -27h-241z" />
    <glyph glyph-name="uni0200" unicode="&#x200;" horiz-adv-x="1685" 
d="M641 653h268l-135 443zM1655 0h-821v268h194l-43 140h-420l-43 -140h160v-268h-651v268h139l276 899h-84v265h787l362 -1164h144v-268zM504 1827l160 -291h-256l-310 291h406zM999 1827l160 -291h-256l-309 291h405z" />
    <glyph glyph-name="uni0201" unicode="&#x201;" horiz-adv-x="1228" 
d="M528 227q47 0 82 22.5t49 45.5v78q-30 59 -105 59q-134 0 -134 -108q0 -43 30.5 -70t77.5 -27zM457 680q130 0 202 -72v72q0 70 -55 92.5t-143 22.5q-131 0 -301 -95l-86 238q250 145 446 145q365 0 460 -149.5t95 -271.5v-400h123v-262h-438l-49 92q-97 -131 -267 -131
t-291.5 87t-121.5 255t123.5 272.5t302.5 104.5zM266 1432l160 -291h-256l-309 291h405zM762 1432l160 -291h-256l-310 291h406z" />
    <glyph glyph-name="uni0202" unicode="&#x202;" horiz-adv-x="1685" 
d="M641 653h268l-135 443zM1655 0h-821v268h194l-43 140h-420l-43 -140h160v-268h-651v268h139l276 899h-84v265h787l362 -1164h144v-268zM784 1874q165 0 284 -88t142 -248h-317q-10 66 -39 102.5t-69 36.5q-76 0 -99 -141l-317 -2q15 157 132.5 248.5t282.5 91.5z" />
    <glyph glyph-name="uni0203" unicode="&#x203;" horiz-adv-x="1228" 
d="M528 227q47 0 82 22.5t49 45.5v78q-30 59 -105 59q-134 0 -134 -108q0 -43 30.5 -70t77.5 -27zM457 680q130 0 202 -72v72q0 70 -55 92.5t-143 22.5q-131 0 -301 -95l-86 238q250 145 446 145q365 0 460 -149.5t95 -271.5v-400h123v-262h-438l-49 92q-97 -131 -267 -131
t-291.5 87t-121.5 255t123.5 272.5t302.5 104.5zM832 1428.5q120 -87.5 143 -248.5h-318q-10 66 -38.5 102.5t-68.5 36.5q-76 0 -99 -141l-318 -2q15 156 133.5 248t282.5 92q163 0 283 -87.5z" />
    <glyph glyph-name="uni0204" unicode="&#x204;" horiz-adv-x="1337" 
d="M51 1432h1235v-453h-354v182h-328v-282h389v-273h-389v-334h328v191h354v-463h-1235v272h129v889h-129v271zM504 1827l160 -291h-256l-310 291h406zM999 1827l160 -291h-256l-309 291h405z" />
    <glyph glyph-name="uni0205" unicode="&#x205;" horiz-adv-x="1110" 
d="M574 776q-82 0 -116.5 -51t-41.5 -113h309q0 116 -51.5 140t-99.5 24zM1079 141q-209 -178 -496 -178q-247 0 -410 141.5t-163 399.5t155.5 403.5t399.5 145.5t379 -135t135 -353q0 -87 -24 -155h-645q14 -68 56 -118t155 -50q171 0 286 98zM285 1442l159 -291h-256
l-309 291h406zM780 1442l160 -291h-256l-309 291h405z" />
    <glyph glyph-name="uni0206" unicode="&#x206;" horiz-adv-x="1337" 
d="M51 1432h1235v-453h-354v182h-328v-282h389v-273h-389v-334h328v191h354v-463h-1235v272h129v889h-129v271zM740 1874q165 0 284.5 -88t142.5 -248h-317q-10 66 -39 102.5t-69 36.5q-76 0 -99 -141l-317 -2q15 157 132 248.5t282 91.5z" />
    <glyph glyph-name="uni0207" unicode="&#x207;" horiz-adv-x="1110" 
d="M574 776q-82 0 -116.5 -51t-41.5 -113h309q0 116 -51.5 140t-99.5 24zM1079 141q-209 -178 -496 -178q-247 0 -410 141.5t-163 399.5t155.5 403.5t399.5 145.5t379 -135t135 -353q0 -87 -24 -155h-645q14 -68 56 -118t155 -50q171 0 286 98zM858.5 1370
q119.5 -88 142.5 -248h-317q-10 66 -39 103t-69 37q-77 0 -99 -142l-317 -2q15 157 132.5 248.5t281.5 91.5q165 0 284.5 -88z" />
    <glyph glyph-name="uni0208" unicode="&#x208;" horiz-adv-x="782" 
d="M51 1432h680v-271h-127v-889h127v-272h-680v272h129v889h-129v271zM111 1827l159 -291h-256l-309 291h406zM606 1827l160 -291h-256l-309 291h405z" />
    <glyph glyph-name="uni0209" unicode="&#x209;" horiz-adv-x="675" 
d="M45 1442l160 -291h-256l-309 291h405zM541 1442l159 -291h-256l-309 291h406zM625 0h-574v268h86v490h-86v266h475v-756h99v-268z" />
    <glyph glyph-name="uni020A" unicode="&#x20a;" horiz-adv-x="782" 
d="M51 1432h680v-271h-127v-889h127v-272h-680v272h129v889h-129v271zM386 1874q164 0 284 -87.5t143 -248.5h-317q-10 66 -39 102.5t-69 36.5q-76 0 -99 -141l-318 -2q15 157 133 248.5t282 91.5z" />
    <glyph glyph-name="uni020B" unicode="&#x20b;" horiz-adv-x="675" 
d="M292 1454q164 0 284 -87.5t143 -248.5h-318q-10 66 -38.5 102.5t-68.5 36.5q-76 0 -99 -141l-318 -2q15 157 133 248.5t282 91.5zM625 0h-574v268h86v490h-86v266h475v-756h99v-268z" />
    <glyph glyph-name="uni020C" unicode="&#x20c;" 
d="M916 400.5q57 115.5 57 308.5q0 309 -83.5 377.5t-137.5 68.5q-98 0 -156.5 -120t-58.5 -314q0 -195 63 -315.5t161 -120.5t155 115.5zM31 703q0 352 199.5 559.5t519.5 207.5q365 0 550 -201.5t185 -557.5t-189 -552t-525 -196q-340 0 -540 194t-200 546zM481 1831
l160 -291h-256l-309 291h405zM977 1831l160 -291h-256l-310 291h406z" />
    <glyph glyph-name="uni020D" unicode="&#x20d;" horiz-adv-x="1175" 
d="M693.5 704.5q-39.5 77.5 -109.5 77.5q-93 0 -117.5 -106.5t-24.5 -161.5q0 -127 43 -202.5t108 -75.5t102.5 75t37.5 195.5t-39.5 198zM23 509q0 253 167 396.5t404 143.5t398 -148.5t161 -396.5t-159.5 -389.5t-396.5 -141.5q-241 0 -407.5 141.5t-166.5 394.5z
M285 1442l159 -291h-256l-309 291h406zM780 1442l160 -291h-256l-309 291h405z" />
    <glyph glyph-name="uni020E" unicode="&#x20e;" 
d="M916 400.5q57 115.5 57 308.5q0 309 -83.5 377.5t-137.5 68.5q-98 0 -156.5 -120t-58.5 -314q0 -195 63 -315.5t161 -120.5t155 115.5zM31 703q0 352 199.5 559.5t519.5 207.5q365 0 550 -201.5t185 -557.5t-189 -552t-525 -196q-340 0 -540 194t-200 546zM740 1874
q165 0 284.5 -88t142.5 -248h-317q-10 66 -39 102.5t-69 36.5q-76 0 -99 -141l-317 -2q15 157 132 248.5t282 91.5z" />
    <glyph glyph-name="uni020F" unicode="&#x20f;" horiz-adv-x="1175" 
d="M693.5 704.5q-39.5 77.5 -109.5 77.5q-93 0 -117.5 -106.5t-24.5 -161.5q0 -127 43 -202.5t108 -75.5t102.5 75t37.5 195.5t-39.5 198zM23 509q0 253 167 396.5t404 143.5t398 -148.5t161 -396.5t-159.5 -389.5t-396.5 -141.5q-241 0 -407.5 141.5t-166.5 394.5z
M866 1373q119 -87 144 -249h-318q-10 66 -38.5 103t-68.5 37q-75 0 -100 -142l-317 -2q15 157 132.5 248.5t281.5 91.5q165 0 284 -87z" />
    <glyph glyph-name="uni0210" unicode="&#x210;" horiz-adv-x="1509" 
d="M877 983q0 182 -187 182h-102v-348h92q90 0 143.5 42t53.5 124zM51 1432h666q473 0 520 -167t47 -241q0 -134 -85 -214.5t-212 -96.5q109 -16 188.5 -101t79.5 -190q0 -66 10.5 -102.5t39.5 -36.5q47 0 47 65v68h137v-113q0 -224 -106.5 -276t-192.5 -52
q-203 0 -300 100.5t-97 262.5t-28 195.5t-69 44t-108 10.5v-318h125v-270h-662v270h115v893h-115v269zM424 1831l160 -291h-256l-310 291h406zM920 1831l159 -291h-256l-309 291h406z" />
    <glyph glyph-name="uni0211" unicode="&#x211;" horiz-adv-x="847" 
d="M631 0h-580v268h90v490h-88v266h385l62 -131q49 90 111 136t206 46v-368q-139 0 -214 -46.5t-75 -181.5v-211h103v-268zM141 1438l160 -291h-256l-309 291h405zM637 1438l160 -291h-256l-310 291h406z" />
    <glyph glyph-name="uni0212" unicode="&#x212;" horiz-adv-x="1509" 
d="M877 983q0 182 -187 182h-102v-348h92q90 0 143.5 42t53.5 124zM51 1432h666q473 0 520 -167t47 -241q0 -134 -85 -214.5t-212 -96.5q109 -16 188.5 -101t79.5 -190q0 -66 10.5 -102.5t39.5 -36.5q47 0 47 65v68h137v-113q0 -224 -106.5 -276t-192.5 -52
q-203 0 -300 100.5t-97 262.5t-28 195.5t-69 44t-108 10.5v-318h125v-270h-662v270h115v893h-115v269zM698 1874q165 0 284 -88t142 -248h-317q-10 66 -39 102.5t-69 36.5q-76 0 -99 -141l-317 -2q15 157 132.5 248.5t282.5 91.5z" />
    <glyph glyph-name="uni0213" unicode="&#x213;" horiz-adv-x="847" 
d="M631 0h-580v268h90v490h-88v266h385l62 -131q49 90 111 136t206 46v-368q-139 0 -214 -46.5t-75 -181.5v-211h103v-268zM694 1405.5q119 -87.5 144 -248.5h-318q-10 66 -38.5 102.5t-68.5 36.5q-75 0 -100 -141l-317 -2q15 157 132.5 248.5t281.5 91.5q165 0 284 -87.5z
" />
    <glyph glyph-name="uni0214" unicode="&#x214;" horiz-adv-x="1509" 
d="M31 1432h651v-265h-111v-442q0 -333 78 -366t126 -33t128 27.5t80 373.5v434h-111v271h607v-265h-111v-497q0 -365 -149.5 -535t-438.5 -170q-311 10 -473 177t-162 517v506h-114v267zM504 1829l160 -291h-256l-310 291h406zM999 1829l160 -291h-256l-309 291h405z" />
    <glyph glyph-name="uni0215" unicode="&#x215;" horiz-adv-x="1292" 
d="M31 1024h495v-494q0 -133 24 -195.5t82 -62.5t96 43t38 113v326h-135v270h530v-752h101v-272h-388l-55 129q-16 -18 -74.5 -88t-219.5 -70q-223 0 -315.5 119t-92.5 381v283h-86v270zM285 1442l159 -291h-256l-309 291h406zM780 1442l160 -291h-256l-309 291h405z" />
    <glyph glyph-name="uni0216" unicode="&#x216;" horiz-adv-x="1509" 
d="M31 1432h651v-265h-111v-442q0 -333 78 -366t126 -33t128 27.5t80 373.5v434h-111v271h607v-265h-111v-497q0 -365 -149.5 -535t-438.5 -170q-311 10 -473 177t-162 517v506h-114v267zM765 1874q164 0 284 -87.5t143 -248.5h-318q-10 66 -38.5 102.5t-68.5 36.5
q-76 0 -99 -141l-318 -2q15 157 133 248.5t282 91.5z" />
    <glyph glyph-name="uni0217" unicode="&#x217;" horiz-adv-x="1292" 
d="M31 1024h495v-494q0 -133 24 -195.5t82 -62.5t96 43t38 113v326h-135v270h530v-752h101v-272h-388l-55 129q-16 -18 -74.5 -88t-219.5 -70q-223 0 -315.5 119t-92.5 381v283h-86v270zM599 1477q164 0 284 -87.5t143 -248.5h-317q-10 66 -39 102.5t-69 36.5
q-76 0 -99 -141l-318 -2q15 157 133 248.5t282 91.5z" />
    <glyph glyph-name="Scommaaccent" unicode="&#x218;" horiz-adv-x="1454" 
d="M51 0v516h381q0 -111 83.5 -158t184.5 -47t132.5 35t31.5 71t-58 61.5t-145.5 50t-189.5 56t-247.5 124.5t-145.5 319q0 113 48 197t157 163.5t282 79.5q222 0 310 -75.5t118 -132.5l21 172h352v-514h-371q0 110 -74 173.5t-188 63.5q-48 0 -94.5 -28.5t-46.5 -80.5
t60.5 -87t150.5 -66t194.5 -66.5t194.5 -89t150.5 -133.5t60.5 -249.5t-163 -277.5t-376 -108t-308 77t-124 112l-22 -158h-359zM596 -203v45q0 45 -2 68l324 -6q0 -163 -79 -346t-210 -295l-197 108q84 105 124 206t40 220z" />
    <glyph glyph-name="scommaaccent" unicode="&#x219;" horiz-adv-x="1040" 
d="M418 -254q0 49 -6 135l323 -6v-25q0 -150 -59.5 -264t-183.5 -223l-197 109q78 95 94.5 128t22.5 65t6 81zM418 737q0 -35 43 -55t107.5 -39.5t247.5 -77.5t183 -282q0 -139 -111 -223.5t-270 -84.5q-111 0 -193.5 45.5t-119.5 104.5l-18 -125h-256v369h274
q0 -73 75.5 -105.5t141.5 -32.5q90 0 90 70q0 29 -42 46.5t-168.5 49t-244.5 104.5t-118 251q0 142 116.5 219.5t231.5 77.5q116 0 200.5 -47.5t117.5 -112.5l16 135h252v-369h-266q0 61 -66 108.5t-144 47.5q-79 0 -79 -74z" />
    <glyph glyph-name="uni021A" unicode="&#x21a;" horiz-adv-x="1435" 
d="M1405 1432v-533h-301v262h-172v-889h170v-272h-762v272h168v889h-176v-262h-301v533h1374zM596 -203v45q0 45 -2 68l324 -6q0 -163 -79 -346t-210 -295l-197 108q84 105 124 206t40 220z" />
    <glyph glyph-name="uni021B" unicode="&#x21b;" horiz-adv-x="743" 
d="M274 -254q0 49 -6 135l324 -6v-25q0 -150 -59.5 -264t-184.5 -223l-196 109q75 92 92.5 126.5t23.5 66.5t6 81zM584 229q45 0 129 35v-262q-51 -22 -140.5 -30.5t-107.5 -8.5q-210 0 -257.5 86t-56 166t-10.5 178v365h-110v266h110v188l377 121v-309h195v-266h-195v-365
l-2 -59q0 -41 11.5 -73t56.5 -32z" />
    <glyph glyph-name="uni021C" unicode="&#x21c;" horiz-adv-x="1087" 
d="M1053 393q0 -137 -85 -237.5t-220.5 -180t-305.5 -147.5t-338 -139l5 280q166 68 270 109t162.5 81t80 92.5t22.5 126.5t-7 105t-31 47q-117 -55 -245 -107t-257 -106l5 281q160 63 263 103t163.5 78t85 86t24.5 134t-37 136.5t-96 50.5q-164 0 -176 -219h-301v463h241
l35 -99q58 67 154.5 92t166.5 25q182 0 301.5 -98t119.5 -328q0 -154 -127 -283q127 -101 127 -346z" />
    <glyph glyph-name="uni021D" unicode="&#x21d;" horiz-adv-x="1087" 
d="M952 104q0 -121 -76.5 -207.5t-198.5 -157.5t-273.5 -130.5t-303.5 -122.5l2 246q150 57 244 94t146.5 71.5t72 82t20.5 111.5t-6.5 91t-27.5 41q-104 -47 -220 -93t-231 -93l2 246q143 55 236.5 90t149 68.5t77 75.5t21.5 117t-33 120t-86 45q-148 0 -160 -193h-270v406
h217l31 -86q61 61 143 81.5t146 20.5q161 0 269.5 -84t108.5 -289q0 -137 -114 -247q114 -88 114 -304z" />
    <glyph glyph-name="uni021E" unicode="&#x21e;" horiz-adv-x="1572" 
d="M51 1432h664v-271h-127v-309h389v309h-121v271h666v-271h-119v-891h119v-270h-666v270h121v310h-389v-310h127v-270h-664v270h113v891h-113v271zM518 1915l285 -143l276 143l103 -191l-391 -243l-388 243z" />
    <glyph glyph-name="uni021F" unicode="&#x21f;" horiz-adv-x="1353" 
d="M51 2034l285 -144l276 144l103 -191l-391 -244l-387 244zM676 748q-129 0 -129 -191v-289h147v-268h-643v268h86v1002h-86v266h496v-639q22 39 123 101.5t209 62.5q202 0 275 -124t73 -327v-342h96v-268h-526v557q0 82 -21.5 136.5t-99.5 54.5z" />
    <glyph glyph-name="uni0220" unicode="&#x220;" horiz-adv-x="1671" 
d="M1485 1167v-1405h127v-272h-467v363l-623 927v-516h158v-264h-629v264h121v903h-119v265h588l504 -752v487h-141v265h616v-265h-135z" />
    <glyph glyph-name="uni0221" unicode="&#x221;" horiz-adv-x="1673" 
d="M1393 266q-30 119 -105 119q-72 0 -94 -119h199zM461 522q0 -157 56 -204.5t91 -47.5q57 0 101.5 63.5t44.5 174.5q0 184 -57.5 227t-90.5 43q-66 0 -105.5 -69.5t-39.5 -186.5zM754 76q-94 -94 -286 -94q-81 0 -169 44t-183.5 159.5t-95.5 342.5t140 371.5t336 144.5
q109 0 169 -29.5t89 -47.5v303h-95v266h510v-969q51 14 121 15q306 0 355 -334q0 -99 -23 -173.5t-123 -74.5h-317q-12 -123 -70.5 -221t-169.5 -197l-197 109q78 96 100.5 141t22.5 131v37h-80z" />
    <glyph glyph-name="uni0222" unicode="&#x222;" horiz-adv-x="1323" 
d="M438 417q0 -84 66 -155.5t151 -71.5q86 0 151.5 65.5t65.5 157.5t-97 144t-202 57q-52 -23 -93.5 -87t-41.5 -110zM618 1362q0 -33 -10 -58.5t-20 -25.5h-2q-58 -23 -75 -40t-27.5 -42t-10.5 -84.5t93 -118.5t161 -59q44 15 87.5 75t43.5 119q0 58 -24.5 87.5t-54 44
t-54.5 28.5t-25 52t22.5 72t70.5 36q215 -29 326.5 -137.5t111.5 -254.5t-79 -205.5t-118 -76.5q119 -51 180.5 -150.5t61.5 -198.5q0 -198 -172.5 -325t-453.5 -127t-450 126.5t-169 320.5q0 103 72 209.5t182 150.5q-88 47 -132 123t-44 187.5t111.5 219.5t316.5 136
q81 0 81 -84z" />
    <glyph glyph-name="uni0223" unicode="&#x223;" horiz-adv-x="1175" 
d="M389 316q0 -56 60.5 -103t134.5 -47q75 0 133.5 43t58.5 89t-50 92.5t-214 55.5q-47 -18 -85 -58t-38 -72zM503.5 726q83.5 -44 141.5 -44q37 12 76 57t39 87t-21.5 64.5t-48 33t-48 20.5t-21.5 39t19 52.5t62 25.5q188 -20 288 -100t100 -191q0 -76 -53.5 -129
t-121.5 -76q106 -39 159.5 -111.5t53.5 -146.5q0 -146 -152 -240t-398 -94q-247 0 -397 93t-150 237q0 118 86 183t137 83q-78 35 -117 90.5t-39 110.5q0 111 98.5 189.5t280.5 101.5q41 0 56.5 -19.5t15.5 -45.5t-10.5 -43t-23.5 -20t-31.5 -9t-41 -25t-22.5 -74t83.5 -99z
" />
    <glyph glyph-name="uni0224" unicode="&#x224;" horiz-adv-x="1462" 
d="M63 893v539h1344v-273l-745 -889h378v262h365l-2 -532q-10 -226 -143 -373t-478 -147v274q135 0 182 71t52 175h-965v266l746 895h-387v-268h-347z" />
    <glyph glyph-name="uni0225" unicode="&#x225;" horiz-adv-x="1130" 
d="M1081 113q0 -117 -14 -228.5t-94.5 -253t-354.5 -141.5v270q98 0 133.5 67.5t41.5 172.5h-742v268l494 492h-228v-146h-266v410h1014v-264l-487 -492h215v140h288v-295z" />
    <glyph glyph-name="uni0226" unicode="&#x226;" horiz-adv-x="1685" 
d="M1003.5 1872q61.5 -67 61.5 -147t-57.5 -140.5t-158.5 -60.5t-166 64t-65 141t59 143.5t162 66.5t164.5 -67zM641 653h268l-135 443zM1655 0h-821v268h194l-43 140h-420l-43 -140h160v-268h-651v268h139l276 899h-84v265h787l362 -1164h144v-268z" />
    <glyph glyph-name="uni0227" unicode="&#x227;" horiz-adv-x="1228" 
d="M776 1465.5q62 -66.5 62 -147.5t-57 -141.5t-159 -60.5t-166.5 64.5t-64.5 141.5t59.5 143.5t161.5 66.5t164 -66.5zM528 227q47 0 82 22.5t49 45.5v78q-30 59 -105 59q-134 0 -134 -108q0 -43 30.5 -70t77.5 -27zM457 680q130 0 202 -72v72q0 70 -55 92.5t-143 22.5
q-131 0 -301 -95l-86 238q250 145 446 145q365 0 460 -149.5t95 -271.5v-400h123v-262h-438l-49 92q-97 -131 -267 -131t-291.5 87t-121.5 255t123.5 272.5t302.5 104.5z" />
    <glyph glyph-name="uni0228" unicode="&#x228;" horiz-adv-x="1337" 
d="M639 -188q-40 0 -57 -5l-21 35l49 158h-559v272h129v889h-129v271h1235v-453h-354v182h-328v-282h389v-273h-389v-334h328v191h354v-463h-508l-33 -74q74 -6 116 -48t42 -90q0 -98 -60 -159t-174 -61t-194 41l66 127q49 -23 107 -23t58.5 49.5t-67.5 49.5z" />
    <glyph glyph-name="uni0229" unicode="&#x229;" horiz-adv-x="1110" 
d="M574 776q-82 0 -116.5 -51t-41.5 -113h309q0 116 -51.5 140t-99.5 24zM782 -236q0 -97 -60 -159t-172 -62t-196 41l66 127q50 -23 108 -23t58 49.5t-68 49.5q-37 0 -57 -4l-21 35l47 149q-196 18 -336.5 158.5t-140.5 388.5t155.5 393.5t399.5 145.5t379 -135t135 -353
q0 -87 -24 -155h-645q14 -68 56 -118t155 -50q171 0 286 98l172 -199q-180 -154 -426 -174l-28 -65q74 -6 115.5 -48t41.5 -90z" />
    <glyph glyph-name="uni022A" unicode="&#x22a;" 
d="M276 2101h994v-217h-994v217zM386.5 1803.5q52.5 51.5 140.5 51.5t141 -52.5t53 -116.5t-50 -113t-138 -49t-143.5 50t-55.5 114t52.5 115.5zM875 1803q52 52 141 52t141.5 -52.5t52.5 -116.5t-49 -113t-138 -49t-144.5 51t-55.5 113q0 63 52 115zM916 400.5
q57 115.5 57 308.5q0 309 -83.5 377.5t-137.5 68.5q-98 0 -156.5 -120t-58.5 -314q0 -195 63 -315.5t161 -120.5t155 115.5zM31 703q0 352 199.5 559.5t519.5 207.5q365 0 550 -201.5t185 -557.5t-189 -552t-525 -196q-340 0 -540 194t-200 546z" />
    <glyph glyph-name="uni022B" unicode="&#x22b;" horiz-adv-x="1175" 
d="M90 1677h993v-217h-993v217zM199.5 1379.5q52.5 52.5 140.5 52.5t141.5 -53t53.5 -117t-50.5 -113t-139.5 -49t-143.5 51.5t-54.5 113.5t52.5 114.5zM689.5 1379.5q52.5 52.5 140.5 52.5t141 -53t53 -117t-49 -113t-139 -49t-144.5 51.5t-54.5 113.5t52.5 114.5z
M693.5 704.5q-39.5 77.5 -109.5 77.5q-93 0 -117.5 -106.5t-24.5 -161.5q0 -127 43 -202.5t108 -75.5t102.5 75t37.5 195.5t-39.5 198zM23 509q0 253 167 396.5t404 143.5t398 -148.5t161 -396.5t-159.5 -389.5t-396.5 -141.5q-241 0 -407.5 141.5t-166.5 394.5z" />
    <glyph glyph-name="uni022C" unicode="&#x22c;" 
d="M176 2038h1122v-144h-1122v144zM885 1536q-47 0 -79 12.5t-60.5 25.5t-59.5 25.5t-76 12.5q-82 0 -143 -62l-90 205q96 121 239 121q62 0 118.5 -24.5t87 -36t74.5 -11.5t86 18.5t62 41.5l93 -215q-92 -113 -252 -113zM916 400.5q57 115.5 57 308.5q0 309 -83.5 377.5
t-137.5 68.5q-98 0 -156.5 -120t-58.5 -314q0 -195 63 -315.5t161 -120.5t155 115.5zM31 703q0 352 199.5 559.5t519.5 207.5q365 0 550 -201.5t185 -557.5t-189 -552t-525 -196q-340 0 -540 194t-200 546z" />
    <glyph glyph-name="uni022D" unicode="&#x22d;" horiz-adv-x="1175" 
d="M111 1698h946v-150h-946v150zM715 1128q-47 0 -79 12.5t-86 38t-123 25.5t-130 -61l-90 205q96 120 239 120q66 0 120.5 -24.5t85 -35.5t74.5 -11t86 18.5t62 40.5l93 -215q-92 -113 -252 -113zM693.5 704.5q-39.5 77.5 -109.5 77.5q-93 0 -117.5 -106.5t-24.5 -161.5
q0 -127 43 -202.5t108 -75.5t102.5 75t37.5 195.5t-39.5 198zM23 509q0 253 167 396.5t404 143.5t398 -148.5t161 -396.5t-159.5 -389.5t-396.5 -141.5q-241 0 -407.5 141.5t-166.5 394.5z" />
    <glyph glyph-name="uni022E" unicode="&#x22e;" 
d="M915.5 1872q61.5 -67 61.5 -147t-57.5 -140.5t-158.5 -60.5t-166 64t-65 141t59 143.5t162 66.5t164.5 -67zM916 400.5q57 115.5 57 308.5q0 309 -83.5 377.5t-137.5 68.5q-98 0 -156.5 -120t-58.5 -314q0 -195 63 -315.5t161 -120.5t155 115.5zM31 703
q0 352 199.5 559.5t519.5 207.5q365 0 550 -201.5t185 -557.5t-189 -552t-525 -196q-340 0 -540 194t-200 546z" />
    <glyph glyph-name="uni022F" unicode="&#x22f;" horiz-adv-x="1175" 
d="M747 1506.5q62 -66.5 62 -147.5t-57.5 -141.5t-158.5 -60.5t-166 64t-65 142t59.5 144t161.5 66t164 -66.5zM693.5 704.5q-39.5 77.5 -109.5 77.5q-93 0 -117.5 -106.5t-24.5 -161.5q0 -127 43 -202.5t108 -75.5t102.5 75t37.5 195.5t-39.5 198zM23 509q0 253 167 396.5
t404 143.5t398 -148.5t161 -396.5t-159.5 -389.5t-396.5 -141.5q-241 0 -407.5 141.5t-166.5 394.5z" />
    <glyph glyph-name="uni0230" unicode="&#x230;" 
d="M293 2046h946v-150h-946v150zM589 1786.5q59 50.5 160 50.5t162.5 -51t61.5 -112t-57.5 -105.5t-157.5 -44.5t-164 47.5t-64 106.5q0 58 59 108.5zM916 400.5q57 115.5 57 308.5q0 309 -83.5 377.5t-137.5 68.5q-98 0 -156.5 -120t-58.5 -314q0 -195 63 -315.5
t161 -120.5t155 115.5zM31 703q0 352 199.5 559.5t519.5 207.5q365 0 550 -201.5t185 -557.5t-189 -552t-525 -196q-340 0 -540 194t-200 546z" />
    <glyph glyph-name="uni0231" unicode="&#x231;" horiz-adv-x="1175" 
d="M352 1275q0 58 59 108.5t160 50.5t162.5 -51t61.5 -112t-57.5 -106t-157.5 -45t-164 48.5t-64 106.5zM115 1642h946v-149h-946v149zM693.5 704.5q-39.5 77.5 -109.5 77.5q-93 0 -117.5 -106.5t-24.5 -161.5q0 -127 43 -202.5t108 -75.5t102.5 75t37.5 195.5t-39.5 198z
M23 509q0 253 167 396.5t404 143.5t398 -148.5t161 -396.5t-159.5 -389.5t-396.5 -141.5q-241 0 -407.5 141.5t-166.5 394.5z" />
    <glyph glyph-name="uni0232" unicode="&#x232;" horiz-adv-x="1370" 
d="M113 1837h1142v-272h-1142v272zM840 1169v263h551v-263h-111l-379 -665v-238h115v-266h-656v266h117v242l-397 661h-100v263h700v-263h-107l119 -217q4 -14 28.5 -72t35.5 -94h8q4 30 35.5 94t40.5 83l112 206h-112z" />
    <glyph glyph-name="uni0233" unicode="&#x233;" horiz-adv-x="1187" 
d="M23 1430h1142v-273h-1142v273zM-18 762v262h630v-260h-96l133 -320l133 320h-94v260h520v-254h-98l-389 -946q-23 -49 -91.5 -169t-348.5 -120q-138 7 -248 103l153 241q77 -72 127 -72t79.5 35t43.5 76l29 86l-399 758h-84z" />
    <glyph glyph-name="uni0234" unicode="&#x234;" horiz-adv-x="1044" 
d="M752 266q-30 119 -105 119q-71 0 -94 -117l96 -2h103zM227 -37v37h-176v268h88v1004h-86v264h475v-969q51 14 121 15q306 0 355 -334q0 -99 -23 -173.5t-123 -74.5h-317q-12 -123 -70.5 -221t-169.5 -197l-197 109q78 96 100.5 141t22.5 131z" />
    <glyph glyph-name="uni0235" unicode="&#x235;" horiz-adv-x="1325" 
d="M1423 266q-30 119 -103 119q-72 0 -95 -117l69 -2h129zM535 559v-291h147v-268h-631v268h86v490h-86v266h436l48 -127q121 164 292 164q216 0 293.5 -126.5t77.5 -324.5l2 -43q51 14 121 15q307 0 354 -334q0 -102 -22.5 -175t-122.5 -73h-318q-12 -123 -70.5 -221
t-168.5 -197l-197 109q78 96 100.5 141t22.5 131v37h-121v559q0 86 -18 138.5t-96 52.5q-129 0 -129 -191z" />
    <glyph glyph-name="uni0236" unicode="&#x236;" horiz-adv-x="1071" 
d="M788 266q-30 119 -102 119q-34 0 -64 -46t-44 -110zM264 -37v41q-106 62 -113.5 191t-9.5 198v365h-110v266h110v188l377 121v-309h195v-266h-195v-211l47 20q51 14 121 15q307 0 354 -334q0 -98 -18 -164.5t-92 -81.5q-60 -23 -357 -35q-16 -111 -73.5 -202t-161.5 -183
l-197 109q78 96 100.5 141t22.5 131z" />
    <glyph glyph-name="dotlessj" unicode="&#x237;" horiz-adv-x="737" 
d="M262 758h-86v266h475v-881q0 -244 -127.5 -407.5t-494.5 -163.5v274q153 0 193 85.5t40 211.5v615z" />
    <glyph glyph-name="uni0238" unicode="&#x238;" horiz-adv-x="1941" 
d="M1318 244q63 0 102.5 69.5t39.5 178.5t-42 184.5t-100 75.5t-98 -52.5t-51 -144.5v-86q8 -98 47 -161.5t102 -63.5zM461 522q0 -157 56 -204.5t91 -47.5q57 0 101.5 63.5t44.5 174.5q0 184 -57.5 227t-90.5 43q-66 0 -105.5 -69.5t-39.5 -186.5zM754 76q-94 -94 -286 -94
q-81 0 -169 44t-183.5 159.5t-95.5 342.5t140 371.5t336 144.5q109 0 169 -29.5t89 -47.5v303h-95v266h512v-592q52 65 142 80.5t127 15.5q225 0 348 -158t123 -378q-4 -241 -132.5 -384t-340.5 -143q-107 0 -165 24.5t-106 68.5l-30 -70h-349z" />
    <glyph glyph-name="uni0239" unicode="&#x239;" horiz-adv-x="1980" 
d="M784 526q0 159 -57 205.5t-90 46.5q-57 0 -101 -63t-44 -147q0 -145 40.5 -221.5t103.5 -76.5q64 0 104 62.5t44 171.5v22zM1200 514q0 -184 57.5 -227t90.5 -43q66 0 105.5 69.5t39.5 178.5t-42 184.5t-102 75.5t-104.5 -63.5t-44.5 -174.5zM1447 1040
q233 0 359.5 -153.5t126.5 -388.5t-132.5 -378t-334.5 -143q-152 0 -206 38t-60 42v-260h111v-268h-660v268h133v271q-35 -29 -102.5 -57.5t-162.5 -28.5q-199 0 -333.5 148.5t-134.5 395.5t137.5 382.5t352.5 135.5q100 0 163.5 -30.5t79.5 -50.5l39 61h344l35 -72
q123 88 245 88z" />
    <glyph glyph-name="uni023A" unicode="&#x23a;" horiz-adv-x="1685" 
d="M909 653l-18 58l-45 -58h63zM662 725l161 205l-49 166zM1655 268v-268h-821v268h194l-43 140h-334l-108 -140h139v-268h-350l-88 -113h-240l88 113h-61v268h139l276 899h-84v265h787l18 -64l133 168h240l-305 -387l276 -881h144z" />
    <glyph glyph-name="uni023B" unicode="&#x23b;" horiz-adv-x="1404" 
d="M907 1036q-59 72 -161 72t-169 -117.5t-67 -288.5q0 -80 18 -147zM31 702q0 176 59.5 316.5t151.5 238t201.5 148.5t197.5 51q140 0 216.5 -46.5t111.5 -92.5l47 115h203l81 104h240l-203 -258v-428h-338l-366 -469q77 -64 158 -64t138.5 29t100.5 64.5t70.5 67.5
t34.5 40l239 -262q-269 -289 -620 -289q-215 0 -379 88l-131 -168h-240l221 281q-194 198 -194 534z" />
    <glyph glyph-name="uni023C" unicode="&#x23c;" horiz-adv-x="1087" 
d="M605 776q-82 0 -129.5 -78.5t-47.5 -183.5q0 -45 8 -76l242 307q-31 31 -73 31zM506 1042q157 0 256 -116l35 98h98l100 127h240l-197 -252v-338h-266l-215 -272q35 -16 88 -17q134 0 242 117l180 -209q-132 -139 -276.5 -174t-246.5 -35t-206 37l-94 -121h-240l170 217
q-172 150 -172 410t144.5 394t359.5 134z" />
    <glyph glyph-name="uni023D" unicode="&#x23d;" horiz-adv-x="1249" 
d="M27 870h137v291h-113v271h647v-271h-108v-291h221v-254h-221v-344h264v260h344v-532h-1147v272h113v344h-137v254z" />
    <glyph glyph-name="uni023E" unicode="&#x23e;" horiz-adv-x="1435" 
d="M932 1161v-94l74 94h-74zM1405 899h-301v82l-172 -219v-490h170v-272h-762v10l-96 -123h-240l504 641v633h-176v-262h-301v533h1188l81 104h240l-135 -172v-465z" />
    <glyph glyph-name="uni023F" unicode="&#x23f;" horiz-adv-x="1040" 
d="M418 737q0 -35 43 -55t107.5 -39.5t247.5 -77.5t183 -282q0 -139 -111 -223.5t-270 -84.5q-111 0 -193.5 45.5t-119.5 104.5q-2 -10 -2 -13v-30q0 -110 76.5 -160.5t205.5 -50.5q128 0 199.5 30.5t87.5 47.5l93 -166q-93 -81 -233 -99t-222 -18q-197 0 -338 81t-141 253
v369h274q0 -73 75.5 -105.5t141.5 -32.5q90 0 90 70q0 29 -42 46.5t-168.5 49t-244.5 104.5t-118 251q0 142 116.5 219.5t231.5 77.5q116 0 200.5 -47.5t117.5 -112.5l16 135h252v-369h-266q0 61 -66 108.5t-144 47.5q-79 0 -79 -74z" />
    <glyph glyph-name="uni0240" unicode="&#x240;" horiz-adv-x="1132" 
d="M51 614v410h1014v-264l-668 -662q25 -96 115.5 -141t237.5 -45t231 41t104 59l113 -213q-67 -63 -217 -106t-295 -43q-288 0 -458.5 103.5t-174.5 326.5l-2 188l494 492h-228v-146h-266z" />
    <glyph glyph-name="uni0241" unicode="&#x241;" horiz-adv-x="1064" 
d="M504 1145q-132 0 -279 -168l-221 223q230 264 533 264q210 0 348.5 -128t138.5 -332q0 -159 -132 -300.5t-163 -185t-31 -74.5v-172h138v-272h-648v272h129v224q0 109 132.5 251t163 187t30.5 87.5t-47 83t-92 40.5z" />
    <glyph glyph-name="uni0242" unicode="&#x242;" horiz-adv-x="995" 
d="M502 1053q195 0 325.5 -116.5t130.5 -303.5q0 -147 -124.5 -274.5t-152.5 -167t-28 -66.5v-389h129v-248h-606v248h121v434q0 97 124.5 229.5t152.5 171.5t28 76.5t-43 76t-102 38.5t-128 -48t-118 -106l-207 205q217 240 498 240z" />
    <glyph glyph-name="uni0243" unicode="&#x243;" horiz-adv-x="1406" 
d="M758 332h-164v-66h164q66 0 116 46t50 127t-43 132.5t-129 51.5h-158v-64h164v-227zM594 1161v-307h125q82 0 110.5 42t28.5 115t-38 111.5t-97 38.5h-129zM51 0v266h119v66h-119v227h119v608h-119v265h764q256 0 379 -91.5t123 -269.5t-71.5 -231.5t-129.5 -75.5
q189 -55 229.5 -165t40.5 -183q0 -217 -130 -316.5t-427 -99.5h-778z" />
    <glyph glyph-name="uni0244" unicode="&#x244;" horiz-adv-x="1509" 
d="M775 326q100 0 149.5 63t56.5 254h-408q11 -264 84.5 -290.5t117.5 -26.5zM35 643v227h110v295h-114v267h651v-265h-111v-297h412v291h-111v271h607v-265h-111v-297h107v-227h-107q-6 -350 -155.5 -514t-432.5 -164q-627 16 -635 678h-110z" />
    <glyph glyph-name="uni0245" unicode="&#x245;" horiz-adv-x="1685" 
d="M682 268v-268h-651v268h139l276 899h-84v265h787l362 -1164h144v-268h-821v268h194l-254 828l-252 -828h160z" />
    <glyph glyph-name="uni0246" unicode="&#x246;" horiz-adv-x="1337" 
d="M604 879h80l223 282h-303v-282zM51 1432h1069l82 104h240l-156 -199v-358h-282l-80 -100h69v-273h-282l-107 -135v-199h328v191h354v-463h-1053l-88 -113h-239l145 185v200h129v889h-129v271z" />
    <glyph glyph-name="uni0247" unicode="&#x247;" horiz-adv-x="1110" 
d="M725 612v15l-12 -15h12zM560 776q-67 0 -102 -51t-42 -113h59l127 162q-8 2 -42 2zM1079 565q0 -87 -24 -155h-500l-90 -115q53 -53 156 -53q171 0 286 98l172 -199q-115 -98 -242 -138t-283 -40t-292 74l-117 -150h-239l215 275q-111 144 -111 371q0 228 155.5 374
t395.5 146q122 0 230 -39l94 121h239l-176 -224q131 -131 131 -346z" />
    <glyph glyph-name="uni0248" unicode="&#x248;" horiz-adv-x="1435" 
d="M338 -143q170 0 170 295v372h-338v228h338v409h-176v-262h-301v533h1374v-533h-301v262h-172v-409h330v-228h-330v-372q0 -283 -135.5 -426.5t-442.5 -143.5q-60 0 -106 23l-2 270q39 -18 92 -18z" />
    <glyph glyph-name="uni0249" unicode="&#x249;" horiz-adv-x="737" 
d="M618 1465.5q62 -66.5 62 -147.5t-57.5 -141.5t-158.5 -60.5t-166 64t-65 142t59.5 144t161.5 66t164 -66.5zM725 233h-74v-90q0 -244 -127.5 -407.5t-494.5 -163.5v274q153 0 193 85.5t40 211.5v90h-231v228h231v297h-86v266h475v-563h74v-228z" />
    <glyph glyph-name="uni024A" unicode="&#x24a;" 
d="M916 400.5q57 115.5 57 308.5q0 309 -83.5 377.5t-137.5 68.5q-98 0 -156.5 -120t-58.5 -314q0 -195 63 -315.5t161 -120.5t155 115.5zM31 703q0 352 199.5 559.5t519.5 207.5q365 0 550 -201.5t185 -559.5v-557q0 -164 46 -229.5t124 -65.5q51 0 92 18l-2 -270
q-53 -23 -107 -23q-510 0 -569 430q-141 -49 -303 -49q-335 0 -535 194t-200 546z" />
    <glyph glyph-name="uni024B" unicode="&#x24b;" horiz-adv-x="1220" 
d="M588 236q60 0 95.5 55t45.5 141v148q-10 88 -48 145t-97 57q-93 0 -117.5 -106.5t-24.5 -161.5q0 -127 43 -202.5t103 -75.5zM593 1049q114 0 200 -99l57 76h303v-983q0 -164 46 -229.5t124 -65.5q51 0 92 19l-2 -271q-51 -22 -106 -22q-296 0 -431 131t-147 385
q-62 -17 -154 -17t-195.5 34t-230 141.5t-126.5 360.5t167 396.5t403 143.5z" />
    <glyph glyph-name="uni024C" unicode="&#x24c;" horiz-adv-x="1474" 
d="M594 1165v-356h92q90 0 145.5 44t55.5 131t-50.5 134t-140.5 47h-102zM59 1434h664q324 0 444.5 -128.5t120.5 -338.5q0 -115 -61.5 -200t-159.5 -138l229 -363h119v-266h-393l-340 549h-88v-279h125v-270h-660v270h115v279h-123v260h123v354h-115v271z" />
    <glyph glyph-name="uni024D" unicode="&#x24d;" horiz-adv-x="847" 
d="M725 387h-197v-119h103v-268h-580v268h90v119h-110v227h110v144h-88v266h385l62 -131q49 90 111 136t206 46v-368q-94 0 -159.5 -19.5t-98.5 -73.5h166v-227z" />
    <glyph glyph-name="uni024E" unicode="&#x24e;" horiz-adv-x="1468" 
d="M780 856q10 -29 25 -70h8q6 35 25 70h-58zM1442 856h-291l-201 -352v-238h115v-266h-655v266h116v242l-209 348h-288v227h151l-51 86h-100v263h700v-263h-106l47 -86h284l47 86h-112v263h551v-263h-111l-49 -86h162v-227z" />
    <glyph glyph-name="uni024F" unicode="&#x24f;" horiz-adv-x="1187" 
d="M41 387v227h102l-77 148h-84v262h630v-260h-96l62 -150h141l63 150h-94v260h520v-254h-98l-66 -156h109v-227h-201l-231 -563q-23 -49 -91.5 -169t-348.5 -120q-138 7 -248 103l153 241q77 -72 127 -72t79.5 35t43.5 76l29 86l-203 383h-221z" />
    <glyph glyph-name="uni0250" unicode="&#x250;" horiz-adv-x="1228" 
d="M569 672q30 -60 135 -60q47 0 76 31t29 76t-30.5 71.5t-78 26.5t-82 -22.5t-49.5 -44.5v-78zM154 383v399h-123v262h438l49 -92q97 131 267 131q169 0 291 -86.5t122 -254.5t-123.5 -272.5t-302.5 -104.5q-132 0 -203 71v-71q0 -70 55.5 -92.5t139.5 -22.5q137 0 305 94
l86 -238q-250 -145 -446 -145q-365 0 -460 149.5t-95 272.5z" />
    <glyph glyph-name="uni0251" unicode="&#x251;" horiz-adv-x="1298" 
d="M461 522q0 -157 56 -204.5t91 -47.5q57 0 101.5 63.5t44.5 174.5q0 184 -57.5 227t-90.5 43q-66 0 -105.5 -69.5t-39.5 -186.5zM754 76q-94 -94 -286 -94q-81 0 -169 44t-183.5 159.5t-95.5 342.5t140 371.5t336 144.5q109 0 169 -29.5t89 -47.5l39 77h376v-778h99v-266
h-480z" />
    <glyph glyph-name="uni0252" unicode="&#x252;" horiz-adv-x="1298" 
d="M682 778q-66 0 -106.5 -75.5t-40.5 -190.5t44 -178.5t104 -63.5t102 75.5t42 184.5t-39.5 178.5t-105.5 69.5zM786 1044q203 0 342.5 -144t139.5 -372q0 -227 -132 -386.5t-343 -159.5q-131 0 -189.5 42t-68.5 52l-35 -76h-480v266h99v508h-99v270h476l39 -77
q29 18 89 47.5t162 29.5z" />
    <glyph glyph-name="uni0253" unicode="&#x253;" horiz-adv-x="1343" 
d="M848 500q0 158 -57.5 205t-90.5 47q-57 0 -101 -63.5t-44 -174.5q0 -186 57.5 -228t89.5 -42q66 0 106 69.5t40 186.5zM618 1307q-63 0 -63 -109v-254q30 38 111.5 67t180.5 29t187 -45t176 -157t86 -344t-130 -374.5t-341 -142.5q-106 0 -166 25.5t-104 67.5l-31 -70
h-461v266h87l-3 932q0 235 133.5 305t263.5 70t210 -20.5t100 -30.5l-123 -236q-42 21 -113 21z" />
    <glyph glyph-name="uni0254" unicode="&#x254;" horiz-adv-x="1087" 
d="M461 776q-117 0 -129 -215h-301v463h241l35 -98q99 116 256 116q215 0 359.5 -134t144.5 -392t-161 -401.5t-402 -143.5q-152 0 -284.5 59.5t-217.5 149.5l180 209q108 -117 242 -117q102 0 159.5 69t57.5 174t-47.5 183t-132.5 78z" />
    <glyph glyph-name="uni0255" unicode="&#x255;" horiz-adv-x="1302" 
d="M969 360q0 25 -39 25q-74 0 -96 -119q135 54 135 94zM506 1042q157 0 256 -116l35 98h241v-346h-301q0 28 -33 63t-87 35q-94 0 -141.5 -78.5t-47.5 -164.5q0 -165 100 -244l2 14q14 168 127 234.5t261 66.5t248 -98t100 -217q0 -188 -161 -244.5t-280 -64.5
q-12 -123 -72.5 -212.5t-170.5 -185.5l-197 109q74 91 94.5 135t28.5 137v10q-219 17 -362.5 159t-143.5 392t144.5 384t359.5 134z" />
    <glyph glyph-name="uni0256" unicode="&#x256;" horiz-adv-x="1269" 
d="M461 522q0 -157 56 -204.5t91 -47.5q57 0 101.5 63.5t44.5 174.5q0 184 -57.5 227t-90.5 43q-66 0 -105.5 -69.5t-39.5 -186.5zM754 76q-94 -94 -286 -94q-81 0 -169 44t-183.5 159.5t-95.5 342.5t140 371.5t336 144.5q109 0 169 -29.5t89 -47.5v303h-95v266h510v-1393
q0 -124 25 -177.5t72 -86.5t137 -33v-274q-443 0 -533 197.5t-116 306.5z" />
    <glyph glyph-name="uni0257" unicode="&#x257;" horiz-adv-x="1312" 
d="M461 522q0 -157 56 -204.5t91 -47.5q57 0 101.5 63.5t44.5 174.5q0 184 -57.5 227t-90.5 43q-66 0 -105.5 -69.5t-39.5 -186.5zM754 76q-94 -94 -286 -94q-81 0 -169 44t-183.5 159.5t-95.5 342.5t140 371.5t336 144.5q109 0 169 -29.5t89 -47.5v231q0 141 82.5 258
t322.5 117q122 0 201.5 -20.5t99.5 -30.5l-123 -236q-42 21 -112 21q-35 0 -45.5 -27t-10.5 -82v-932h99v-266h-480z" />
    <glyph glyph-name="uni0258" unicode="&#x258;" horiz-adv-x="1110" 
d="M680 410h-645q-25 73 -25 166q0 206 135.5 341.5t379.5 135.5t399 -146t155 -404t-163 -399t-377 -141q-160 0 -287 40t-242 138l172 199q115 -98 290 -98q176 0 208 168zM515 776q-89 0 -119.5 -47.5t-30.5 -116.5h309q-11 103 -61 133.5t-98 30.5z" />
    <glyph glyph-name="uni0259" unicode="&#x259;" horiz-adv-x="1110" 
d="M515 240q84 0 118 52t41 111h-309q0 -115 51 -139t99 -24zM10 874q210 179 496 179q247 0 410 -141t163 -399t-154.5 -404t-399.5 -146q-244 0 -379.5 135.5t-135.5 352.5q0 84 25 155h645q-13 67 -56 117.5t-155 50.5q-172 0 -287 -98z" />
    <glyph glyph-name="uni025A" unicode="&#x25a;" horiz-adv-x="1386" 
d="M713 391q0 37 -11 66l-305 -115q66 -150 217 -94q99 39 99 143zM1044 458q0 -80 -27.5 -168.5t-118.5 -194t-314 -105.5q-412 0 -477.5 168t-71.5 258l600 233q-10 14 -34.5 76.5t-131.5 62.5q-64 0 -102.5 -28.5t-59 -50t-45.5 -41.5l-156 213q105 109 190.5 147.5
t233.5 38.5t258.5 -79t176.5 -197l323 131l-2 -99q0 -109 33 -185.5t94 -148.5l-149 -77q-119 94 -174 217l-58 -25q12 -66 12 -146z" />
    <glyph glyph-name="uni025B" unicode="&#x25b;" horiz-adv-x="1140" 
d="M403 332q0 -66 175 -66t299 80l253 -164q-82 -78 -234 -138t-280 -60q-253 0 -429.5 86t-176.5 232.5t133 234.5q-35 23 -66.5 76t-31.5 112q0 162 104.5 232.5t325.5 70.5q102 0 172 -31.5t107 -70.5v-13l49 99h258v-408h-305q-47 146 -200 146t-153 -72q0 -51 183 -51
h92v-236h-98q-177 0 -177 -59z" />
    <glyph glyph-name="uni025C" unicode="&#x25c;" horiz-adv-x="1140" 
d="M1130 302.5q0 -146.5 -176 -232.5t-402 -86t-363.5 79.5t-178.5 118.5l254 164q121 -80 297 -80t176 66q0 59 -176 59h-98v236h92q182 0 182 51q0 72 -153 72t-199 -146h-305v408h258l49 -99v13q37 39 106.5 70.5t172.5 31.5q221 0 325.5 -70.5t104.5 -232.5
q0 -59 -32 -112.5t-67 -75.5q133 -88 133 -234.5z" />
    <glyph glyph-name="uni025D" unicode="&#x25d;" horiz-adv-x="1462" 
d="M1130 302.5q0 -146.5 -176 -232.5t-402 -86t-363.5 79.5t-178.5 118.5l254 164q121 -80 297 -80t176 66q0 59 -176 59h-98v236h92q182 0 182 51q0 72 -153 72t-199 -146h-305v408h258l49 -99v13q37 39 106.5 70.5t172.5 31.5q199 0 302 -56.5t124 -185.5l258 101l-2 -99
q0 -109 32.5 -185.5t94.5 -147.5l-150 -78q-119 94 -174 217l-147 -53q-4 -4 -7 -4q133 -88 133 -234.5z" />
    <glyph glyph-name="uni025E" unicode="&#x25e;" horiz-adv-x="1140" 
d="M541 750q-174 0 -174 -228q0 -100 31.5 -152.5t64.5 -76t78 -27.5h4q192 0 192 66q0 59 -176 59h-98v236h92q182 0 182 51q0 72 -159 72h-14q-13 0 -23 -2v2zM997 537q133 -88 133 -230q0 -143 -146.5 -236.5t-371.5 -93.5t-408.5 140t-183.5 397t188 393.5t433 136.5
q192 0 323.5 -84.5t131.5 -234.5q0 -59 -32 -112.5t-67 -75.5z" />
    <glyph glyph-name="uni025F" unicode="&#x25f;" horiz-adv-x="737" 
d="M725 233h-74v-90q0 -244 -127.5 -407.5t-494.5 -163.5v274q153 0 193 85.5t40 211.5v90h-231v228h231v297h-86v266h475v-563h74v-228z" />
    <glyph glyph-name="uni0260" unicode="&#x260;" horiz-adv-x="1310" 
d="M457 522q0 -157 56 -204.5t91 -47.5q57 0 101.5 63.5t44.5 174.5q0 184 -57.5 227t-90.5 43q-66 0 -105.5 -69.5t-39.5 -186.5zM1221 1307q-63 0 -64 -109v-1055q0 -260 -162.5 -411.5t-476.5 -151.5q-148 0 -270 55.5t-199 124.5l109 228q44 -39 144.5 -85t191.5 -46
q143 0 200.5 57.5t57.5 134.5v70q-49 -69 -120 -91t-120 -22q-248 0 -370 150.5t-122 377.5t132.5 368.5t382.5 141.5q66 0 124 -26.5t91 -54.5v235q0 141 82.5 258t322.5 117q122 0 201.5 -20.5t99.5 -30.5l-123 -236q-42 21 -112 21z" />
    <glyph glyph-name="uni0261" unicode="&#x261;" horiz-adv-x="1310" 
d="M457 522q0 -157 56 -204.5t91 -47.5q57 0 101.5 63.5t44.5 174.5q0 184 -57.5 227t-90.5 43q-66 0 -105.5 -69.5t-39.5 -186.5zM694.5 -85.5q57.5 57.5 57.5 134.5v70q-49 -69 -120 -91t-120 -22q-248 0 -370 150.5t-122 377.5t132.5 368.5t382.5 141.5q68 0 127 -26.5
t90 -56.5l41 63h487v-268h-123v-613q0 -260 -162.5 -411.5t-476.5 -151.5q-148 0 -270 55.5t-199 124.5l109 228q44 -39 144.5 -85t217.5 -46t174.5 57.5z" />
    <glyph glyph-name="uni0262" unicode="&#x262;" horiz-adv-x="1087" 
d="M506 1042q157 0 256 -116l35 98h241v-326h-301q0 19 -34 48.5t-87 29.5q-93 0 -140.5 -78.5t-47.5 -182.5q0 -105 57.5 -174t149.5 -69t158 37v90h-244v211h516l2 -430q-132 -139 -275.5 -174t-241.5 -35t-200 34t-225 143.5t-123 367.5t144.5 392t359.5 134z" />
    <glyph glyph-name="uni0263" unicode="&#x263;" horiz-adv-x="1255" 
d="M567 -160q0 -90 70 -90q51 0 61.5 31t10.5 63t-15.5 64.5t-58.5 99.5q-27 -41 -47.5 -79t-20.5 -89zM676 485q0 41 43 107.5t117 171.5h-109v260h528v-260h-106l-291 -502q10 -25 30.5 -67.5t55.5 -140.5t35 -182q0 -175 -82.5 -285.5t-229.5 -110.5t-255.5 103.5
t-108.5 257.5t135 376l-342 551h-96v260h623v-260h-103q134 -157 148 -279h8z" />
    <glyph glyph-name="uni0264" unicode="&#x264;" horiz-adv-x="1247" 
d="M561 211q0 -61 68 -61q51 0 61 20t10 42t-15 44.5t-58 69.5q-25 -29 -45.5 -54.5t-20.5 -60.5zM1192 1024v-178h-129l-189 -238q55 -47 108.5 -159.5t53.5 -182.5q0 -129 -107 -210t-257 -81q-151 0 -261 55t-110 156q0 68 48 146t120 164l-317 350h-95v178h387l263 -276
l213 276h272z" />
    <glyph glyph-name="uni0265" unicode="&#x265;" horiz-adv-x="1353" 
d="M827 475v289h-147v268h643v-268h-86v-1002h86v-266h-496v639q-21 -36 -121 -100t-210 -64q-203 0 -276 124t-73 327v342h-96v268h527v-557q0 -81 20.5 -135.5t99.5 -54.5q129 0 129 190z" />
    <glyph glyph-name="uni0266" unicode="&#x266;" horiz-adv-x="1353" 
d="M676 748q-129 0 -129 -191v-289h147v-268h-643v268h86v930q0 236 134.5 305.5t265.5 69.5t209.5 -20.5t99.5 -30.5l-123 -236q-42 21 -113 21q-63 0 -63 -109v-301q22 39 123 101.5t209 62.5q202 0 275 -124t73 -327v-342h96v-268h-526v557q0 82 -21.5 136.5t-99.5 54.5z
" />
    <glyph glyph-name="uni0267" unicode="&#x267;" horiz-adv-x="1353" 
d="M676 748q-129 0 -129 -191v-289h147v-268h-643v268h86v930q0 236 134.5 305.5t265.5 69.5t209.5 -20.5t99.5 -30.5l-123 -236q-42 21 -113 21q-63 0 -63 -109v-301q22 39 123 101.5t209 62.5q202 0 275 -124t73 -327v-467q0 -383 -228.5 -477t-433.5 -94v274
q122 0 171.5 60t60.5 157v494q0 82 -21.5 136.5t-99.5 54.5z" />
    <glyph glyph-name="uni0268" unicode="&#x268;" horiz-adv-x="675" 
d="M493 1465.5q62 -66.5 62 -147.5t-57.5 -141.5t-158.5 -60.5t-165.5 63.5t-64.5 142.5t60 144.5t161 65.5t163 -66.5zM643 393h-117v-125h99v-268h-574v268h86v125h-106v228h106v137h-86v266h475v-403h117v-228z" />
    <glyph glyph-name="uni0269" unicode="&#x269;" horiz-adv-x="802" 
d="M758 256v-274q-368 0 -495.5 163.5t-127.5 407.5v205h-86v266h475v-471q0 -126 40 -211.5t194 -85.5z" />
    <glyph glyph-name="uni026A" unicode="&#x26a;" horiz-adv-x="675" 
d="M51 1024h572v-266h-97v-490h99v-268h-574v268h86v490h-86v266z" />
    <glyph glyph-name="uni026B" unicode="&#x26b;" horiz-adv-x="905" 
d="M680 637h-10v-369h121v-268h-598v268h88v514q-35 10 -58 11q-82 0 -143 -62l-90 205q96 121 239 121q23 0 52 -6v221h-86v264h475v-631h20q45 0 87 18.5t63 41.5l92 -215q-92 -113 -252 -113z" />
    <glyph glyph-name="uni026C" unicode="&#x26c;" horiz-adv-x="876" 
d="M250 995q-35 0 -59.5 -24.5t-24.5 -61.5t24.5 -61.5t59.5 -24.5t58.5 21.5t27.5 56.5v14q-4 35 -27.5 57.5t-58.5 22.5zM246 1126q41 0 90 -14v160h-86v264h475v-715h115v-131h-115v-422h121v-268h-598v268h88v422l-88 2q-100 2 -168 64.5t-68 151.5t73 153.5t161 64.5z
" />
    <glyph glyph-name="uni026D" unicode="&#x26d;" horiz-adv-x="679" 
d="M528 1536v-1393q0 -124 25 -177.5t72 -86.5t137 -33v-274q-325 0 -470 140.5t-153 471.5v1088h-86v264h475z" />
    <glyph glyph-name="uni026E" unicode="&#x26e;" horiz-adv-x="1474" 
d="M1055 -28q0 143 -75 201t-171 58h-82v134l299 395h-498v-492h121v-268h-598v268h88v1004h-86v264h475v-512h889v-264l-270 -350q203 -56 252 -201t49 -263q0 -222 -174.5 -341t-402.5 -119t-365 80t-178 119l254 163q120 -79 280 -79q92 0 142.5 58.5t50.5 144.5z" />
    <glyph glyph-name="uni026F" unicode="&#x26f;" horiz-adv-x="1859" 
d="M649 266q66 0 87.5 42t21.5 108v332h-123v274h530v-522q0 -125 12.5 -179.5t67.5 -54.5t76.5 30t21.5 93v365h-122v268h608v-268h-86v-484h86v-270h-387l-45 121q-129 -150 -256 -150q-189 0 -241 64.5t-64 83.5q-131 -148 -301 -148q-225 0 -304 133t-79 359v282h-101
v277h520v-502l-2 -90q0 -164 80 -164z" />
    <glyph glyph-name="uni0270" unicode="&#x270;" horiz-adv-x="1859" 
d="M649 266q66 0 87.5 42t21.5 108v332h-123v274h530v-522q0 -125 12.5 -179.5t67.5 -54.5t76.5 30t21.5 93v365h-122v268h608v-268h-86v-994h86v-270h-486v604q-12 -14 -56.5 -68.5t-157.5 -54.5q-133 0 -189.5 39t-74 64.5t-29.5 44.5q-131 -148 -301 -148
q-225 0 -304 133t-79 359v282h-101v277h520v-502l-2 -90q0 -164 80 -164z" />
    <glyph glyph-name="uni0271" unicode="&#x271;" horiz-adv-x="1794" 
d="M1346 1051q224 0 303.5 -133.5t79.5 -358.5v-416q0 -384 -224.5 -477.5t-429.5 -93.5v274q154 0 194 85.5t40 211.5v502q-4 47 -20.5 79t-70.5 32q-96 0 -96 -150v-332h123v-274h-530v522q0 125 -12.5 179.5t-67.5 54.5t-76.5 -30t-21.5 -93v-365h122v-268h-608v268h86
v484h-86v270h387l45 -121q129 150 256 150q189 0 241 -64.5t64 -83.5q131 148 302 148z" />
    <glyph glyph-name="uni0272" unicode="&#x272;" horiz-adv-x="1325" 
d="M535 559v-416q0 -244 -132.5 -407.5t-498.5 -163.5v274q153 0 193 85.5t40 211.5v615h-86v266h436l48 -127q121 164 292 164q216 0 293.5 -126.5t77.5 -324.5v-342h96v-268h-516v559q0 86 -18 138.5t-96 52.5q-129 0 -129 -191z" />
    <glyph glyph-name="uni0273" unicode="&#x273;" horiz-adv-x="1325" 
d="M535 559v-291h120v-268h-600v268h82v490h-86v266h436l48 -127q121 164 292 164q216 0 293.5 -126.5t77.5 -324.5v-467q0 -126 24.5 -178.5t71.5 -85.5t138 -33v-274q-368 0 -511 167t-143 404v416q0 86 -18 138.5t-96 52.5q-129 0 -129 -191z" />
    <glyph glyph-name="uni0274" unicode="&#x274;" horiz-adv-x="1335" 
d="M53 1024h502l317 -471v205h-86v266h502v-266h-96v-758h-367l-366 532v-264h98v-268h-504v268h86v490h-86v266z" />
    <glyph glyph-name="uni0275" unicode="&#x275;" horiz-adv-x="1175" 
d="M588 782q-51 0 -86 -48t-51 -124h272q-14 74 -49 123t-86 49zM595 236q52 0 86 50t46 130h-276q16 -86 54 -133t90 -47zM23 509q0 253 167 396.5t404 143.5t398 -148.5t161 -396.5t-159.5 -389.5t-396.5 -141.5q-241 0 -407.5 141.5t-166.5 394.5z" />
    <glyph glyph-name="uni0276" unicode="&#x276;" horiz-adv-x="1718" 
d="M693.5 704.5q-39.5 77.5 -109.5 77.5q-93 0 -117.5 -106.5t-24.5 -161.5q0 -127 43 -202.5t108 -75.5t102.5 75t37.5 195.5t-39.5 198zM1663 1026v-334h-289v80h-221v-147h217v-234h-217v-139h221v72h289v-324h-729l-64 82q-84 -109 -276 -109q-238 0 -404.5 141.5
t-166.5 394.5t167 396.5t381 143.5q213 0 297 -113l64 90h731z" />
    <glyph glyph-name="uni0277" unicode="&#x277;" horiz-adv-x="1216" 
d="M472 236q60 0 60 305h132q0 -193 28 -249t54 -56q78 0 79 236q0 362 -229 362q-106 0 -156.5 -97t-50.5 -249t31.5 -202t51.5 -50zM595 1049q304 0 445.5 -136.5t141.5 -410.5q0 -529 -369 -529q-139 0 -215 187q-76 -187 -215 -187q-172 0 -267.5 134.5t-93.5 408.5
t135.5 403.5t437.5 129.5z" />
    <glyph glyph-name="uni0278" unicode="&#x278;" horiz-adv-x="1511" 
d="M442 510q0 -108 34 -182t89 -90v542q-53 -12 -88 -87t-35 -183zM1079 504q0 108 -32.5 183t-92.5 91v-542q59 10 92 85t33 183zM1075 -508h-598v268h88v215q-227 8 -384.5 149t-157.5 386q0 246 158 387t384 152v223h-86v264h475v-489q238 -8 391.5 -154t153.5 -389
t-154.5 -385t-390.5 -146v-213h121v-268z" />
    <glyph glyph-name="uni0279" unicode="&#x279;" horiz-adv-x="847" 
d="M238 1022h579v-268h-90v-490h88v-266h-385l-61 131q-48 -89 -111 -135.5t-207 -46.5v368q139 0 214 46.5t75 181.5v211h-102v268z" />
    <glyph glyph-name="uni027A" unicode="&#x27a;" horiz-adv-x="847" 
d="M238 1536h579v-268h-90v-1004h88v-266h-385l-61 131q-48 -89 -111 -135.5t-207 -46.5v368q139 0 214 46.5t75 181.5v725h-102v268z" />
    <glyph glyph-name="uni027B" unicode="&#x27b;" horiz-adv-x="847" 
d="M238 1022h579v-268h-90v-611q0 -113 36 -172t88 -92t142 -33v-274q-341 0 -489 146.5t-162 363.5q-41 -66 -104.5 -100.5t-186.5 -34.5v368q139 0 214 46.5t75 181.5v211h-102v268z" />
    <glyph glyph-name="uni027C" unicode="&#x27c;" horiz-adv-x="847" 
d="M631 -512h-580v268h90v1002h-88v266h385l62 -131q49 90 111 136t206 46v-368q-139 0 -214 -46.5t-75 -181.5v-723h103v-268z" />
    <glyph glyph-name="uni027D" unicode="&#x27d;" horiz-adv-x="847" 
d="M528 479v-336q0 -120 26 -175.5t74 -88.5t138 -33v-274q-367 0 -496 163t-129 408v615h-88v266h385l62 -131q49 90 111 136t206 46v-368q-139 0 -214 -46.5t-75 -181.5z" />
    <glyph glyph-name="uni027E" unicode="&#x27e;" horiz-adv-x="847" 
d="M578 1085q43 0 239 -10v-299q-59 6 -125 6t-115 -35.5t-49 -142.5v-336h103v-268h-580v268h90v467q0 202 113 264t197 74t127 12z" />
    <glyph glyph-name="uni027F" unicode="&#x27f;" horiz-adv-x="847" 
d="M290 1085q44 0 128 -12t196.5 -74.5t112.5 -263.5v-467h90v-268h-579v268h102v336q0 106 -49 142t-117 36t-123 -6v299q195 10 239 10z" />
    <glyph glyph-name="uni0280" unicode="&#x280;" horiz-adv-x="1253" 
d="M76 1024h557q276 0 375.5 -100.5t99.5 -253.5q0 -80 -43 -141.5t-109 -98.5q23 -29 41.5 -52.5t37 -45t37 -44t42.5 -50.5v12h98v-250h-319q-72 90 -147.5 187.5t-147.5 187.5v-15h-74v-108h105v-252h-553v252h96v520h-96v252zM770 688q0 84 -162 84h-84v-168h78
q76 0 122 24.5t46 59.5z" />
    <glyph glyph-name="uni0281" unicode="&#x281;" horiz-adv-x="1253" 
d="M608 252q162 0 162 84q0 35 -46 59.5t-122 24.5h-78v-168h84zM1212 1024v-250h-98v12q-25 -29 -43 -52t-45 -54t-70 -86q66 -37 109 -98.5t43 -134.5q0 -160 -99.5 -260.5t-375.5 -100.5h-557v252h96v520h-96v252h553v-252h-105v-108h74v-15l295 375h319z" />
    <glyph glyph-name="uni0282" unicode="&#x282;" horiz-adv-x="1040" 
d="M418 737q0 -35 43 -55t107.5 -39.5t247.5 -77.5t183 -282q0 -139 -111 -223.5t-270 -84.5q-111 0 -192.5 44t-118.5 102q0 -220 132 -247.5t216 -27.5v-274q-366 0 -495 163t-129 408v226h274q0 -73 75.5 -105.5t141.5 -32.5q90 0 90 70q0 29 -42 46.5t-168.5 49
t-244.5 104.5t-118 251q0 142 116.5 219.5t231.5 77.5q116 0 200.5 -47.5t117.5 -112.5l16 135h252v-369h-266q0 61 -66 108.5t-144 47.5q-79 0 -79 -74z" />
    <glyph glyph-name="uni0283" unicode="&#x283;" horiz-adv-x="575" 
d="M559 1307q-66 0 -65 -109l-2 -930v-125q0 -245 -128 -408t-495 -163v274q134 0 176.5 71t42.5 181v1100q0 234 133 304.5t264 70.5t210 -20.5t100 -30.5l-123 -236q-42 21 -113 21z" />
    <glyph glyph-name="uni0284" unicode="&#x284;" horiz-adv-x="749" 
d="M633 1307q-68 0 -68 -109v-174h131v-266h-131v-238h133v-268h-135v-109q0 -244 -127.5 -407.5t-494.5 -163.5v274q132 0 175.5 70.5t43.5 181.5v154h-111v268h111v238h-111v266h111v174q0 141 82.5 258t322.5 117q122 0 201.5 -20.5t99.5 -30.5l-123 -236q-42 21 -110 21
z" />
    <glyph glyph-name="uni0285" unicode="&#x285;" horiz-adv-x="614" 
d="M102 1198q0 109 -67 109t-111 -21l-123 236q67 33 163.5 42t137.5 9q240 0 323 -118t83 -257v-1100q0 -110 41 -181t178 -71v-274q-367 0 -496 163t-129 408v1055z" />
    <glyph glyph-name="uni0286" unicode="&#x286;" horiz-adv-x="575" 
d="M-90 -56.5q0 -54.5 21.5 -71.5t49.5 -17t54 20.5t26 58.5v13q-40 51 -96 51q-55 0 -55 -54.5zM596 -424q-158 0 -279 119q-152 -113 -310 -113t-249.5 81t-91.5 238t70.5 249t165.5 92q96 0 186 -60v1016q0 234 133 304.5t264 70.5t210 -20.5t100 -30.5l-123 -236
q-42 21 -113 21q-66 0 -65 -109l-2 -930v-125q0 -123 -29 -223q111 -100 194 -100q29 0 54 8l-6 -234q-55 -18 -109 -18z" />
    <glyph glyph-name="uni0287" unicode="&#x287;" horiz-adv-x="743" 
d="M157 760q-46 0 -128 -35v262q68 24 148.5 31.5t98.5 7.5q210 0 258 -86t56 -166t10 -178v-365h111v-266h-111v-188l-377 -121v309h-194v266h194v365l2 59q0 41 -11 73t-57 32z" />
    <glyph glyph-name="uni0288" unicode="&#x288;" horiz-adv-x="743" 
d="M585 -233q46 0 128 34v-262q-51 -22 -140.5 -30.5t-107.5 -8.5q-210 0 -257.5 86t-56 166t-10.5 178v828h-110v266h110v188l377 121v-309h195v-266h-195v-828l-2 -59q0 -41 11.5 -72.5t57.5 -31.5z" />
    <glyph glyph-name="uni0289" unicode="&#x289;" horiz-adv-x="1292" 
d="M637 272q47 0 81 33t44 88h-227q18 -121 102 -121zM1262 393h-101v-121h101v-272h-388l-55 129q-16 -18 -74.5 -88t-216.5 -70q-213 0 -306 103.5t-103 318.5h-88v228h86v133h-86v270h495v-403h240v133h-135v270h530v-403h101v-228z" />
    <glyph glyph-name="uni028A" unicode="&#x28a;" horiz-adv-x="1314" 
d="M1198 829q-96 0 -96 -49q0 -29 25.5 -71.5t81 -137.5t55.5 -170q0 -240 -148 -339t-439 -99t-467.5 115.5t-176.5 331.5q0 86 60.5 176t88 130t27.5 68q0 45 -103 45q-45 0 -77 -12l2 193q40 16 156 16q207 0 276 -30.5t69 -98.5q0 -33 -11 -74t-34.5 -133t-23.5 -210
q0 -117 54 -201t139 -84t132.5 82.5t47.5 194.5t-25 201t-36 131t-11 96.5t74 90t235 35.5t201 -16l2 -193q-35 12 -78 12z" />
    <glyph glyph-name="uni028B" unicode="&#x28b;" horiz-adv-x="1222" 
d="M1161 639v-197q0 -230 -144.5 -350.5t-376.5 -120.5q-233 0 -378 126.5t-145 373.5v283h-86v270h495v-494q0 -133 24 -195.5t82 -62.5t96 43t38 113v176q0 73 -45 111.5t-90 38.5v270q241 0 385.5 -99.5t144.5 -285.5z" />
    <glyph glyph-name="uni028C" unicode="&#x28c;" horiz-adv-x="1255" 
d="M580 692q0 -65 -62 -225l-98 -207h108v-260h-528v260h106l355 764h317l381 -764h96v-260h-622v260h102l-94 217q-42 124 -53 215h-8z" />
    <glyph glyph-name="uni028D" unicode="&#x28d;" horiz-adv-x="1785" 
d="M500 266v-266h-500v266h84l240 758h432l141 -463l147 463h422l232 -758h88v-266h-551v266h70l-45 150q-36 111 -52 295h-4q-15 -232 -84 -482l-65 -229h-379l-78 266q-22 72 -52 220.5t-36 224.5h-4q-15 -187 -55 -324l-35 -121h84z" />
    <glyph glyph-name="uni028E" unicode="&#x28e;" horiz-adv-x="1187" 
d="M1206 262v-262h-631v260h97l-133 320l-133 -320h94v-260h-520v254h98l389 946q23 49 91.5 169t348.5 120q138 -7 248 -103l-154 -241q-77 72 -127 72q-49 0 -78.5 -35t-43.5 -76l-29 -86l399 -758h84z" />
    <glyph glyph-name="uni028F" unicode="&#x28f;" horiz-adv-x="1255" 
d="M727 764v260h528v-260h-106l-334 -363v-127h92v-272h-547v272h95v78l-359 412h-96v260h623v-260h-103l148 -146h8l160 146h-109z" />
    <glyph glyph-name="uni0290" unicode="&#x290;" horiz-adv-x="1126" 
d="M1028 -428q-151 0 -193 101.5t-42 326.5h-742v268l494 492h-228v-146h-266v410h1014v-264l-487 -492h215v140h288v-408l-2 -57q-5 -105 69 -105q44 0 128 35v-262q-51 -22 -140 -30.5t-108 -8.5z" />
    <glyph glyph-name="uni0291" unicode="&#x291;" horiz-adv-x="1466" 
d="M1145 268q31 0 53.5 20.5t22.5 49.5t-26 49.5t-51 20.5t-50 -9.5t-35 -56.5l-27 -74h113zM51 0v268l494 492h-228v-146h-266v410h1014v-264l-487 -492h229q58 159 111 217t104 83.5t116.5 25.5t123 -23.5t100.5 -63.5t67.5 -94.5t24.5 -147t-93 -179t-222 -86.5h-187
l-84 -252h-229l84 252h-672z" />
    <glyph glyph-name="uni0292" unicode="&#x292;" horiz-adv-x="1132" 
d="M545 -231q92 0 142 58.5t50 144.5q0 143 -75 201t-170 58h-82v134l299 395h-392v-146h-266v410h1049v-264l-271 -350q203 -56 252 -201t49 -263q0 -222 -174.5 -341t-402.5 -119t-365 80t-178 119l254 163q120 -79 281 -79z" />
    <glyph glyph-name="uni0293" unicode="&#x293;" horiz-adv-x="1132" 
d="M292 -92q-24 0 -49.5 -20.5t-25.5 -49t22.5 -49t53.5 -20.5h113l-17 45q-25 68 -49 81t-48 13zM625 -217q112 47 112 190t-75 200.5t-170 57.5h-82v134l299 395h-392v-146h-266v410h1049v-264l-271 -350q203 -56 252 -201.5t49 -250.5q0 -190 -115 -301t-296 -153l-4 -4
l53 -166h-229l-54 166h-186q-129 0 -222 86.5t-93 210.5t93 210.5t222 86.5q166 0 240 -132t78 -151.5t8 -27.5z" />
    <glyph glyph-name="uni0294" unicode="&#x294;" horiz-adv-x="1064" 
d="M504 1145q-132 0 -279 -168l-221 223q230 264 533 264q210 0 348.5 -128t138.5 -332q0 -159 -132 -300.5t-163 -185t-31 -74.5v-444h-381v496q0 109 132.5 251t163 187t30.5 87.5t-47 83t-92 40.5z" />
    <glyph glyph-name="uni0295" unicode="&#x295;" horiz-adv-x="1064" 
d="M330 444q0 47 -60.5 114t-163 177t-102.5 264q0 209 138.5 337t349.5 128q302 0 532 -264l-221 -223q-99 114 -166 141t-97 27t-57.5 -10.5t-49 -29t-35 -44t-13.5 -54t24.5 -64.5t60.5 -77t138.5 -151t102.5 -219v-496h-381v444z" />
    <glyph glyph-name="uni0296" unicode="&#x296;" horiz-adv-x="1064" 
d="M698 1020q0 -31 25 -65.5t60.5 -74.5t138 -150t102.5 -265q0 -210 -139.5 -337.5t-347.5 -127.5q-303 0 -533 264l221 223q99 -114 166.5 -141t97.5 -27t57 10.5t48.5 29t35 44t13.5 54t-24.5 64.5t-60.5 77t-138.5 151t-102.5 220v495h381v-444z" />
    <glyph glyph-name="uni0297" unicode="&#x297;" horiz-adv-x="1404" 
d="M754 -506q-526 0 -624.5 359.5t-98.5 610.5t59.5 434t151.5 307t201.5 187.5t197.5 63.5q140 0 216.5 -46.5t111.5 -92.5l47 115h321v-582h-366q-4 105 -58 181.5t-162 76.5t-174.5 -169t-66.5 -474t76 -463t223 -158q108 0 186 64.5t105.5 96.5t34.5 40l239 -262
q-269 -289 -620 -289z" />
    <glyph glyph-name="uni0298" unicode="&#x298;" horiz-adv-x="1175" 
d="M748 512q0 -61 -44.5 -105.5t-108 -44.5t-108.5 44.5t-45 105.5t45 105.5t108.5 44.5t108 -44.5t44.5 -105.5zM844 508q0 274 -260 274q-148 0 -195 -92t-47 -178t27.5 -140.5t66.5 -85t82 -40.5t107 -10t141.5 58.5t77.5 213.5zM23 509q0 253 167 396.5t404 143.5
t398 -148.5t161 -396.5t-159.5 -389.5t-396.5 -141.5q-241 0 -407.5 141.5t-166.5 394.5z" />
    <glyph glyph-name="uni0299" unicode="&#x299;" horiz-adv-x="1153" 
d="M494 768v-127h100q66 0 88.5 17.5t22.5 47.5t-31 46t-78 16h-102zM625 252q51 0 91 20.5t40 56.5t-36 59.5t-102 23.5h-124v-160h131zM1122 311q0 -164 -103.5 -237.5t-338.5 -73.5h-619v252h97v520h-97v250h611q395 0 395 -268q0 -149 -74 -205q129 -74 129 -238z" />
    <glyph glyph-name="uni029A" unicode="&#x29a;" horiz-adv-x="1140" 
d="M55 734q0 68 38 129t132 121t285 60q245 0 432.5 -136t187.5 -394t-183 -397.5t-407 -139.5q-225 0 -372.5 93t-147.5 237t134 230q-35 23 -67 76t-32 121zM414 332q0 -66 192 -66h4q85 8 129.5 82t44.5 183q0 219 -174 219v-2q-10 2 -12 2h-25q-159 0 -159 -72
q0 -51 182 -51h92v-236h-98q-176 0 -176 -59z" />
    <glyph glyph-name="uni029B" unicode="&#x29b;" horiz-adv-x="1191" 
d="M1092 1155q-32 0 -39 -38.5t-13 -112.5l-2 -306h-301q0 19 -34 48.5t-87 29.5q-93 0 -140.5 -78.5t-47.5 -182.5q0 -105 57.5 -174t149.5 -69t158 37v90h-244v211h516l2 -430q-132 -139 -275.5 -174t-241.5 -35t-200 34t-225 143.5t-123 367.5t144.5 392t359.5 134
q157 0 256 -116l2 116q0 143 32.5 218t85 118t163.5 43t186.5 -20.5t95.5 -30.5l-123 -235q-40 20 -112 20z" />
    <glyph glyph-name="uni029C" unicode="&#x29c;" horiz-adv-x="1372" 
d="M68 1022h559v-252h-107v-127h326v127h-101v252h560v-252h-101v-518h101v-252h-560v252h101v137h-326v-137h107v-252h-559v252h96v518h-96v252z" />
    <glyph glyph-name="uni029D" unicode="&#x29d;" horiz-adv-x="1183" 
d="M270 -31q-24 0 -49.5 -20.5t-25.5 -49t22.5 -49t52.5 -20.5h113l-16 45q-25 68 -49 81t-48 13zM1063.5 1466q62.5 -66 62.5 -147q0 -82 -57 -142.5t-159 -60.5t-166 64.5t-64 141.5t59.5 143.5t160.5 66.5t163.5 -66zM709 758h-86v266h475v-881q0 -465 -406 -549l-2 -4
l53 -165h-229l-41 147h-186q-130 0 -229 95t-99 219.5t93 211t222 86.5q174 0 236.5 -122.5t89.5 -188.5q4 3 26 15t42 45.5t30.5 74.5t10.5 135v615z" />
    <glyph glyph-name="uni029E" unicode="&#x29e;" horiz-adv-x="1339" 
d="M1300 1026v-266h-83v-1002h83v-268h-473v926l-237 -142h147v-270h-573v270h158l139 88l-277 396h-102v268h606v-268h-86l156 -221l71 49v172h-75v268h546z" />
    </font>
</defs>
</svg>
