<svg xmlns="http://www.w3.org/2000/svg" width="104.29" height="127.5" viewBox="0 0 104.29 127.5">
  <g id="Group_1168" data-name="Group 1168" transform="translate(0)">
    <path id="Path_1428" data-name="Path 1428" d="M872.938,353.785a5.965,5.965,0,0,1-4.39-1.8,4.054,4.054,0,0,1-6.495-.947,6.279,6.279,0,0,1-.372-3.752c.279-1.732,1.783-3.949,3.552-4.366a3.258,3.258,0,0,1,3.445,1.3,1.669,1.669,0,0,1,.764,1.164c.049.026.1.053.144.082a1.152,1.152,0,0,1,.1.064,2.754,2.754,0,0,1,1.464-1.341,3.47,3.47,0,0,1,1.263-.209c1.526-1.02,3.836-.187,5.142.875a4.672,4.672,0,0,1,1.418,5.279,5.691,5.691,0,0,1-6.033,3.651" transform="translate(-814.8 -311.678)" fill="#31414a"/>
    <path id="Path_1429" data-name="Path 1429" d="M868.5,350.1c-3.21-.277-4.631-4.78-3.841-7.487a8.932,8.932,0,0,1,1.294-2.345,5.853,5.853,0,0,1,2.078-3.353,3.2,3.2,0,0,1,3.48.555c2.4.359,3.832,2.755,4.138,4.995a7.216,7.216,0,0,1-.9,4.191c-.6,1.19-1.714,2.7-3.223,2.3A5.23,5.23,0,0,1,868.5,350.1" transform="translate(-813.561 -314.349)" fill="#31414a"/>
    <path id="Path_1430" data-name="Path 1430" d="M875.021,336.956c-2.357-.329-4.122-3.207-2.718-5.322-3.771-4.491,2.058-8.934,5.408-5.072,2.1-.7,4.727.971,4.61,3.276-.144,2.175-1.356,4.621-3.606,5.215a2.988,2.988,0,0,1-3.693,1.9" transform="translate(-810.709 -319.304)" fill="#31414a"/>
    <path id="Path_1431" data-name="Path 1431" d="M865.563,323.028a2.048,2.048,0,1,1,1.985,2.109,2.073,2.073,0,0,1-1.985-2.109" transform="translate(-813.08 -321.043)" fill="#31414a"/>
    <path id="Path_1432" data-name="Path 1432" d="M867.129,349.839a1.962,1.962,0,0,1-1-.681,6.76,6.76,0,0,1-1.8-3.016c-.224-2.84-.194-6.1,1.743-8.391a3.85,3.85,0,0,1,2.089-1.371,1.89,1.89,0,0,1,2.095.645,1.034,1.034,0,0,1-.154,1.178c-.05.1-.1.2-.147.3a.336.336,0,0,1-.625.057c-1.318,1.2-1.383,3.186-1.368,4.85a1.926,1.926,0,0,1,.645.981c.276.849.519,1.712.867,2.537a2.027,2.027,0,0,1-2.342,2.906" transform="translate(-813.652 -314.476)" fill="#31414a"/>
    <path id="Path_1433" data-name="Path 1433" d="M873.516,370.414c-2.279-.572-3.111-2.811-2.958-4.963-4.038-.831-4.8-5.175-2.358-8.115.636-.792,1.642-1.051,2.442-1.624a4.338,4.338,0,0,1,4.7.6,9.087,9.087,0,0,1,3.839-1.727c1.287-.277,2.817-.512,3.835.526a3.362,3.362,0,0,1,.875,3.878,7.523,7.523,0,0,1-3.427,4.054,6.88,6.88,0,0,1-.346,4.581,5.563,5.563,0,0,1-6.606,2.79" transform="translate(-812.544 -306.724)" fill="#31414a"/>
    <path id="Path_1434" data-name="Path 1434" d="M884.339,362.478c-2.438-.326-2.567-3.139-1.361-4.807a1.578,1.578,0,0,1,1.078-.565,2.962,2.962,0,0,1,1.87-.255,2.8,2.8,0,0,1,1.75,4.563,3.5,3.5,0,0,1-3.337,1.064" transform="translate(-805.913 -305.667)" fill="#31414a"/>
    <path id="Path_1435" data-name="Path 1435" d="M892.772,359.434a2.048,2.048,0,1,1,1.985,2.109,2.075,2.075,0,0,1-1.985-2.109" transform="translate(-801.383 -305.392)" fill="#31414a"/>
    <path id="Path_1436" data-name="Path 1436" d="M893.648,360.132a1.412,1.412,0,0,1,1.825-2.154,1.412,1.412,0,0,1-1.825,2.154" transform="translate(-801.226 -305.302)" fill="#31414a"/>
    <path id="Path_1437" data-name="Path 1437" d="M883.706,361.516c-1.745-.845-.9-4.766-.493-6.283.845-1.716,2.824-1.581,4.084-.4,1.8,1.644.868,5.182-1.862,4.712-.134,1.012-.358,2.405-1.729,1.97" transform="translate(-805.736 -306.898)" fill="#31414a"/>
    <path id="Path_1438" data-name="Path 1438" d="M886.883,360.4a2.065,2.065,0,0,1-1.61-3.273,1.878,1.878,0,0,1,.931-.622,2.882,2.882,0,0,1,2.145-.718c2.735.343,2.951,3.389.513,4.427a3.283,3.283,0,0,1-1.979.186" transform="translate(-804.792 -306.111)" fill="#31414a"/>
    <path id="Path_1439" data-name="Path 1439" d="M898.93,356.717a2.048,2.048,0,1,1,1.985,2.109,2.075,2.075,0,0,1-1.985-2.109" transform="translate(-798.735 -306.56)" fill="#31414a"/>
    <path id="Path_1440" data-name="Path 1440" d="M856.136,358.973a1.813,1.813,0,0,0,1.757-1.464c-.422-.921-1.624-.907-2.209-1.66a2.3,2.3,0,0,0-1.085,2.419c.246.558.985.695,1.537.7m-.918,3.854a5.218,5.218,0,0,1-4.052-2.847,6.089,6.089,0,0,1,.213-4.46,4.689,4.689,0,0,1,5.232-2.674c1.745-.465,3.436.776,4.423,2.118,1.576,1.955.744,4.717-.9,6.352a5.68,5.68,0,0,1-4.913,1.511" transform="translate(-819.415 -307.419)" fill="#31414a"/>
    <path id="Path_1441" data-name="Path 1441" d="M850.881,374.2c-2.893-.721-5.381-4.164-4.66-7.14a4.7,4.7,0,0,1,1.8-2.1,6.529,6.529,0,0,1-1.6-6.525,4.888,4.888,0,0,1,2.405-3.382,7.167,7.167,0,0,1,7.414,1.629c3.237-.874,3.786,3.786,1.66,5.372a19.989,19.989,0,0,1,1.01,4.088c.16,1.17-.523,2.168-.794,3.259-.938,3.13-3.852,5.62-7.237,4.8" transform="translate(-821.449 -306.616)" fill="#31414a"/>
    <path id="Path_1442" data-name="Path 1442" d="M853.036,357.81a9.045,9.045,0,0,1-.525-1.714,1.79,1.79,0,0,1,3.157-1.5,4.009,4.009,0,0,1,.678.226c.07.031.14.064.209.1a1.111,1.111,0,0,1,1.291,1.253,2.378,2.378,0,0,1-1.86,3.621,3.1,3.1,0,0,1-2.95-1.985" transform="translate(-818.713 -306.919)" fill="#31414a"/>
    <path id="Path_1443" data-name="Path 1443" d="M839.866,355.426a2.551,2.551,0,0,1-.593-1.05,3.353,3.353,0,0,1-.036-1.158,1.99,1.99,0,0,1,2.106-3.112,4.072,4.072,0,0,1,1.061-.812c1.082-3.981,5.784-2.418,7.323.349a5.022,5.022,0,0,1-.043,3.985c-1.065,2.286-4.005,2.634-6.206,2.059a2.905,2.905,0,0,1-3.612-.262" transform="translate(-824.565 -309.931)" fill="#31414a"/>
    <path id="Path_1444" data-name="Path 1444" d="M836.5,343.525a2.048,2.048,0,1,1,1.985,2.109,2.073,2.073,0,0,1-1.985-2.109" transform="translate(-825.575 -312.231)" fill="#31414a"/>
    <path id="Path_1445" data-name="Path 1445" d="M828.86,341.31a2.048,2.048,0,1,1,1.985,2.109,2.075,2.075,0,0,1-1.985-2.109" transform="translate(-828.859 -313.184)" fill="#31414a"/>
    <path id="Path_1446" data-name="Path 1446" d="M857.291,382.673c-3.039-1.709-1.3-5.447,1.094-6.871a3.843,3.843,0,0,1,4.134-1.7,2.07,2.07,0,0,1,1.253.027c1.693-1.017,3.9-.659,5.7-.1a4.983,4.983,0,0,1,4.476-2.989c2.282.014,3.795,2.329,4.124,4.383.375,3.965-3.33,7.355-7.227,5.775a6.065,6.065,0,0,1-7.587.106,3.253,3.253,0,0,1-2.927,1.131,3.2,3.2,0,0,1-3.037.242" transform="translate(-817.333 -299.55)" fill="#31414a"/>
    <path id="Path_1447" data-name="Path 1447" d="M865.757,377.885c0-.017,0-.034.006-.051a.488.488,0,0,1-.056.027l.05.024m-1.374,11.489c-10.273-1.444-4.241-17.605,1.539-12.136,1.567-3,5.4.071,5.57,2.5a10.968,10.968,0,0,1-1.31,5.7c-1.022,2.191-3.216,4.283-5.8,3.939" transform="translate(-815.978 -297.417)" fill="#31414a"/>
    <path id="Path_1448" data-name="Path 1448" d="M862.973,397.121a6.679,6.679,0,0,1-1.248-.48,4.269,4.269,0,0,1-1.843-1.8c-3.769,0-3.964-5.173-.575-6.029a2.062,2.062,0,0,1,3.141-.548c2.155-.518,4.536,2.209,5.225,4.031a3.7,3.7,0,0,1-4.7,4.823" transform="translate(-816.803 -292.355)" fill="#31414a"/>
    <path id="Path_1449" data-name="Path 1449" d="M858.229,398.807c-2.617-1.19-1-5.918,1.078-6.941.755-.5,1.917-.742,2.5.124a2.248,2.248,0,0,1,2.464,2.5,6.12,6.12,0,0,1-.874,2.751c-1.13,1.566-3.346,2.519-5.165,1.567" transform="translate(-816.816 -290.79)" fill="#31414a"/>
    <path id="Path_1450" data-name="Path 1450" d="M874.443,389.494a3.306,3.306,0,0,1-3.272-3.335c.05-.99.427-2.368,1.4-2.8,1.277-1.251,3.273-.576,4.337.621,2.159,2.043.383,5.611-2.469,5.51" transform="translate(-810.669 -294.538)" fill="#31414a"/>
    <path id="Path_1451" data-name="Path 1451" d="M867.911,404.031a2.241,2.241,0,0,1-1.1-4.115c.618-.532,1.869-1.047,2.447-.217v-.009a.769.769,0,0,1,.119.526,2.162,2.162,0,0,1-1.469,3.815" transform="translate(-812.973 -287.415)" fill="#31414a"/>
    <path id="Path_1452" data-name="Path 1452" d="M864.089,409.331a2.048,2.048,0,1,1,1.985,2.109,2.075,2.075,0,0,1-1.985-2.109" transform="translate(-813.714 -283.94)" fill="#31414a"/>
    <path id="Path_1453" data-name="Path 1453" d="M880.358,348.961c-.778-1.506.678-2.571,1.5-3.628q1.93-2.164,3.958-4.24c1.907-1.918,3.894-3.755,5.851-5.621a2.059,2.059,0,0,1,3.3-.043,1.88,1.88,0,0,1-.147,2.286c-.387.385-.791.762-1.17,1.154-2.337,2.3-4.753,4.52-6.929,6.977-1.025,1.111-2.022,2.251-2.933,3.458a2.066,2.066,0,0,1-3.432-.343" transform="translate(-806.815 -315.206)" fill="#31414a"/>
    <path id="Path_1454" data-name="Path 1454" d="M881.194,351.636a1.982,1.982,0,0,1-.263-3.106c2.971-1.817,6.828-.951,10.138-1.611,1.371-.413,3.295-.885,3.924.858a1.917,1.917,0,0,1-.792,2.362c-1.749.762-11.711,2.551-13.006,1.5" transform="translate(-806.744 -310.085)" fill="#31414a"/>
    <path id="Path_1455" data-name="Path 1455" d="M839.46,380.638a1.833,1.833,0,0,1-.279-3.011,38.557,38.557,0,0,1,8.244-3.466,2.887,2.887,0,0,1,1.9-.137,2.015,2.015,0,0,1-.123,3.8,27.421,27.421,0,0,0-5.938,1.909c-1.224.333-2.534,1.563-3.806.907" transform="translate(-824.707 -298.317)" fill="#31414a"/>
    <path id="Path_1456" data-name="Path 1456" d="M844.308,389.429a2,2,0,0,1,.222-1.574c.325-.746.609-1.51.922-2.262.812-1.762.911-3.772,1.859-5.482a3.067,3.067,0,0,1,1.446-2.086,2.032,2.032,0,0,1,2.784,2.289,15.835,15.835,0,0,1-1,2.291,50.447,50.447,0,0,1-2.066,5.821c-.422.959-.888,2.139-2.059,2.321a1.9,1.9,0,0,1-2.1-1.317" transform="translate(-822.25 -296.624)" fill="#31414a"/>
  </g>
</svg>
