<svg id="Group_1175" data-name="Group 1175" xmlns="http://www.w3.org/2000/svg" xmlns:xlink="http://www.w3.org/1999/xlink" width="102.867" height="100.942" viewBox="0 0 102.867 100.942">
  <defs>
    <clipPath id="clip-path">
      <rect id="Rectangle_524" data-name="Rectangle 524" width="102.867" height="100.942" fill="#31414a"/>
    </clipPath>
  </defs>
  <g id="Group_1174" data-name="Group 1174" clip-path="url(#clip-path)">
    <path id="Path_3119" data-name="Path 3119" d="M122.3,32.264a11.494,11.494,0,0,0,11.48-11.482c0-8.486-9.765-18.959-10.181-19.4L122.3,0,121,1.381c-.416.442-10.179,10.915-10.179,19.4A11.493,11.493,0,0,0,122.3,32.264M122.31,5.3c3.008,3.567,7.905,10.435,7.905,15.482a7.926,7.926,0,0,1-6.129,7.71V13.424h-3.567V28.491a7.926,7.926,0,0,1-6.126-7.71c0-5.433,5.381-12.468,7.918-15.482" transform="translate(-71.291)" fill="#31414a"/>
    <path id="Path_3120" data-name="Path 3120" d="M51.443,104.368h0A12.57,12.57,0,1,0,69.22,86.591C62.6,79.972,46.756,79.417,46.085,79.4L44.19,79.34l.057,1.894c.021.672.577,16.514,7.2,23.133M66.7,89.113a9.025,9.025,0,0,1,1.136,11.345L55.481,88.107l-2.522,2.522,12.353,12.352a9.023,9.023,0,0,1-11.346-1.136c-4.393-4.393-5.675-14.487-6.027-18.757,4.27.351,14.366,1.632,18.759,6.024" transform="translate(-28.426 -51.037)" fill="#31414a"/>
    <path id="Path_3121" data-name="Path 3121" d="M155.131,100.142a15.311,15.311,0,0,0,26.128,10.821c8.171-8.173,8.859-27.857,8.884-28.691l.057-1.895-1.894.058c-.834.025-20.516.713-28.689,8.886a15.2,15.2,0,0,0-4.487,10.821m7.008-8.3c5.8-5.8,19.274-7.345,24.321-7.727-.382,5.048-1.927,18.524-7.724,24.323a11.758,11.758,0,0,1-15.242,1.166l15.862-15.862-2.522-2.522-15.863,15.863a11.731,11.731,0,0,1,1.168-15.24Z" transform="translate(-99.791 -51.704)" fill="#31414a"/>
    <path id="Path_3122" data-name="Path 3122" d="M102.867,180.4l-1.143-1.714c-.2-.295-4.894-7.216-12.186-7.216-5.016,0-13.321,3.484-17.5,5.4a7.969,7.969,0,0,0-8.182-7.536H51.662c-1.609-1.25-6.458-4.281-15.633-4.281H20.69v-6.421H0v37.813H20.69v-3.68l34.754,10.222ZM20.69,189.043V186.1H17.123v6.778H3.567V162.2H17.123v13.2H20.69v-6.778H36.029c9.7,0,13.695,3.733,13.722,3.758l.522.522h13.57a4.637,4.637,0,1,1,.011,9.275H40.31v3.567H63.854a8.232,8.232,0,0,0,7.485-4.6c3.69-1.818,13.4-6.1,18.2-6.1,3.48,0,6.309,2.345,7.876,4.007l-42.273,20.13Z" transform="translate(0 -102.042)" fill="#31414a"/>
  </g>
</svg>
