<svg id="Group_1081" data-name="Group 1081" xmlns="http://www.w3.org/2000/svg" xmlns:xlink="http://www.w3.org/1999/xlink" width="152.519" height="136.949" viewBox="0 0 152.519 136.949">
  <defs>
    <clipPath id="clip-path">
      <rect id="Rectangle_482" data-name="Rectangle 482" width="152.519" height="136.949" fill="none"/>
    </clipPath>
  </defs>
  <g id="Group_1080" data-name="Group 1080" transform="translate(0 0)" clip-path="url(#clip-path)">
    <path id="Path_1046" data-name="Path 1046" d="M60.551,53.515a4.042,4.042,0,0,0-.771-1.646,4.108,4.108,0,0,0-1.919-1.4,4.063,4.063,0,0,0-2.12-.186,4.2,4.2,0,0,0-3.3,4.821,2.054,2.054,0,0,0,.071.233l.065.2a4.117,4.117,0,0,0,1.4,2.042,4.21,4.21,0,0,0,.809.5,4.125,4.125,0,0,0,1.408.355,4.069,4.069,0,0,0,1.073-.036l.308-.1a4.1,4.1,0,0,0,2.12-1.37,4.271,4.271,0,0,0,.526-.816,4.463,4.463,0,0,0,.187-.493,4.1,4.1,0,0,0,.172-1.839Z" transform="translate(14.231 13.645)" fill="#43d8c4"/>
    <path id="Path_1047" data-name="Path 1047" d="M148.654,110.285q-.076-.488-.168-.973c-1.193-6.324-4.1-12.173-6.584-18.112-5.874-14.032-9.533-28.931-15.845-42.773-2.864-6.278-6.253-12.3-9.248-18.515-2.653-5.5-4.153-11.588-7.378-16.761a34.63,34.63,0,0,0-4.091-5.673c-3.416-3.6-9.422-6.762-14.514-6.1a24.074,24.074,0,0,0-8.372,2.438,27.463,27.463,0,0,0-9.14,8.051c-2.969,3.813-5.645,7.838-8.538,11.7-1.854,2.294-3.417,4.806-5.135,7.2C52.665,40.545,46.6,50.977,40.279,61.246q-9.845,16-19.827,31.916c-.066.107-.132.212-.2.319-2.824,4.5-5.706,9.118-6.839,14.308s-.189,11.159,3.729,14.759c2.84,2.611,6.771,3.623,10.548,4.433,24.044,5.154,48.677,5.6,73.131,7.057,9.82.582,19.811,1.824,29.624.44,5.351-.755,10.768-2.786,14.276-6.884,3.977-4.646,4.872-11.244,3.933-17.311m-119.92-2.5h0c0-.014.008-.028.01-.042l-.009.041m2.1.14v0Zm.345-.14v0m.005-.051,0,.005c0-.041.008-.081.013-.122,0,.039-.006.076-.009.117M32,109.78h0l-.037-.015-.009,0,.051.02c.028.01.056.022.083.034-.027-.013-.056-.023-.084-.034m.1,17.824.033.005.038.006L32.1,127.6m.151.024h0l.058.01-.055-.009m3.172-20h0V107.6l0,0a.067.067,0,0,0,0,.022m0-.045h0c0-.029,0-.06,0-.088,0,.031,0,.06,0,.089m10.41-8.269a3.569,3.569,0,0,1-.16.411,3.612,3.612,0,0,1-.427.665,3.368,3.368,0,0,1-1.724,1.124,2.6,2.6,0,0,1-.279.083,3.6,3.6,0,0,1-2.044-.259,3.439,3.439,0,0,1-1.817-2.092,3.518,3.518,0,0,1-.107-.364,3.4,3.4,0,0,1,6.684-1.253c.011.057.006.112.014.169a3.4,3.4,0,0,1-.14,1.516M102.851,42.34l0,0-.013.014,0,0-.005,0,.005,0-.005,0,.025-.025m-6.543.2h0l-.028,0,.024,0m-.2-21.692h0l-.046.014-.02,0h0l.066-.017M94.394,42.372H94.4l.008,0-.009,0-.034-.009.029.008M80.668,26.9l-.011.006c-.086.047-.174.093-.179.1s.056-.032.191-.1M74.28,69.969a7.535,7.535,0,0,1-.348.891,7.679,7.679,0,0,1-.942,1.473,7.378,7.378,0,0,1-3.795,2.476,4.3,4.3,0,0,1-.61.174,6.636,6.636,0,0,1-1.244.111c-.225,0-.458-.009-.7-.028a7.208,7.208,0,0,1-4-1.55l-.01-.006a7.412,7.412,0,0,1-2.527-3.69,5.957,5.957,0,0,1-.226-.8,7.469,7.469,0,0,1,14.682-2.753l.041.392a7.377,7.377,0,0,1-.313,3.31M86.306,99.1a5.818,5.818,0,0,1-3.512,2.162,5.941,5.941,0,0,1-1.086.1,5.812,5.812,0,1,1,5.728-6.884l.048.256-.008.069a5.842,5.842,0,0,1-1.17,4.3M89,33.183a3.63,3.63,0,0,1-1.836-.932,3.454,3.454,0,0,1-.49-.613,3.386,3.386,0,0,1-.518-1.969,3.184,3.184,0,0,1,.022-.379,3.4,3.4,0,0,1,6.716,1.07c-.009.057-.032.108-.043.164a3.4,3.4,0,0,1-.642,1.38,3.444,3.444,0,0,1-.29.333,3.542,3.542,0,0,1-.626.483,3.364,3.364,0,0,1-2,.478A2.811,2.811,0,0,1,89,33.183m3.172,1.974-.024.053,0-.006.022-.047m-.179,5.955.008.009.008.009h0l.009.01-.008-.009.009.011.051.06v0l.009.009L92.07,41.2l.024.027-.005-.006.006.008.022.027-.131-.151L92,41.12l-.006-.008m-.526-3.207,0,.017c-.011.059-.025.118-.037.178.013-.065.028-.13.041-.195m-.193,28.148-.01.017,0,0,.013-.02m6.155,53.032a3.661,3.661,0,0,1-.16.411,3.547,3.547,0,0,1-.427.665,3.359,3.359,0,0,1-1.723,1.124c-.1.027-.182.065-.28.083a3.357,3.357,0,0,1-2.71-.673,3.367,3.367,0,0,1-1.15-1.679,2.985,2.985,0,0,1-.107-.364,3.4,3.4,0,0,1,6.684-1.253c.01.056.006.112.014.169a3.384,3.384,0,0,1-.141,1.516M100.6,56.957a5.818,5.818,0,1,1,1.045.267,5.822,5.822,0,0,1-1.045-.267m2.246,43.477h.006l.022,0-.028,0m.4,3.173-.06.009.048-.008-.015,0-.043.006-.1.014.145-.02.028-.005-.013,0h.011m5.37-20.775a3.68,3.68,0,0,1-.16.412,3.436,3.436,0,0,1-.427.664,3.344,3.344,0,0,1-1.723,1.124c-.094.028-.182.065-.28.084a3.354,3.354,0,0,1-.886.034,3.391,3.391,0,0,1-1.157-.3,3.5,3.5,0,0,1-.666-.412,3.379,3.379,0,0,1-1.15-1.68,3.08,3.08,0,0,1-.107-.364,3.378,3.378,0,0,1,4.462-3.821,3.405,3.405,0,0,1,1.581,1.152,3.369,3.369,0,0,1,.641,1.417c.01.057.006.113.014.169a3.38,3.38,0,0,1-.141,1.516m.448,22.154-.024-.023v0h0l0,0,.053.051-.029-.028m16.137-33.141,0,.008-.005-.01v0m-.548,7.16,0,0L124.66,79l0,.005v0l-.01.015h0l.005-.006v0h0l0,0-.008.01.01-.014m-.02.031,0,.005-.014.019,0,0,0,.005.024-.033m-9.046-8.674h0m-3.168,3.664h0v0h0m7.3,43.711a7.469,7.469,0,1,1-2.751-14.682,4.951,4.951,0,0,1,.7-.07l.3-.011,1.12.027a7.448,7.448,0,0,1,.623,14.737m10.125,1.049a.085.085,0,0,0,.024-.006h0a.094.094,0,0,1-.025.006m.034-.008c.011,0,.023-.005.036-.008h0c-.013,0-.025.006-.037.008m.042-.008h0a.312.312,0,0,1,.037-.009l-.036.009M146.3,101.886l-.092-.248c.033.089.065.177.1.265l-.006-.017" transform="translate(3.523 0.35)" fill="#43d8c4"/>
    <path id="Path_1048" data-name="Path 1048" d="M97.222,83.886l-.96-.015-.064.01a1.543,1.543,0,0,0-.239.017,4.245,4.245,0,1,0,1.263-.011" transform="translate(25.157 22.788)" fill="#43d8c4"/>
    <path id="Path_1049" data-name="Path 1049" d="M69.973,75.4a2.51,2.51,0,0,0-2.416-1.939,2.429,2.429,0,0,0-.455.043,2.521,2.521,0,0,0-1.975,2.887l0,0a2.472,2.472,0,0,0,4.862-.9Z" transform="translate(17.685 19.96)" fill="#43d8c4"/>
    <path id="Path_1050" data-name="Path 1050" d="M86.39,41.678a2.473,2.473,0,0,0-1.6-2.718,2.348,2.348,0,0,0-.449-.114,2.474,2.474,0,1,0-.778,4.886,2.475,2.475,0,0,0,2.832-2.054" transform="translate(22.136 10.546)" fill="#43d8c4"/>
    <path id="Path_1051" data-name="Path 1051" d="M94.889,45.9c-1.362-.955-.983-2.223-.652-3.585.254-1.236.594-2.454.883-3.682.829-2.723,1.408-5.52,2.35-8.21.975-2.92,1.705-5.906,2.4-8.9.318-1.249.7-2.479,1.11-3.7a3.691,3.691,0,0,1,.661-1.382,2.258,2.258,0,0,1,3.885,1.036,5.868,5.868,0,0,1-.356,2.466q-.431,1.562-.871,3.123c-.917,3.74-2.2,7.372-3.342,11.045-.6,2.348-1.3,4.666-1.857,7.025-.449,1.352-.411,2.874-1.091,4.137a2.256,2.256,0,0,1-3.12.626" transform="translate(25.52 4.264)" fill="#fff"/>
    <path id="Path_1052" data-name="Path 1052" d="M100.984,45.21A2.258,2.258,0,0,1,99.6,42.355c.336-1.263,2.018-1.59,2.966-1.936.872-.366,1.756-.711,2.631-1.076a71.223,71.223,0,0,1,7.027-2.783c1.793-.669,3.543-1.448,5.386-1.975,1.109-.445,2.509-.682,3.373.356a2.249,2.249,0,0,1-.42,3.331,36.869,36.869,0,0,1-5.106,1.8c-1.957.8-3.983,1.42-5.936,2.224-1.347.6-2.69,1.217-4.066,1.749a23.243,23.243,0,0,1-2.728,1.052,2.343,2.343,0,0,1-1.741.114" transform="translate(27.027 9.294)" fill="#fff"/>
    <path id="Path_1053" data-name="Path 1053" d="M136.189,103.183c-1.848-6.169-5.349-11.686-8.443-17.336-7.31-13.349-12.507-27.793-20.234-40.907-3.5-5.949-7.507-11.588-11.136-17.459-3.214-5.2-5.342-11.1-9.091-15.909a34.735,34.735,0,0,0-4.663-5.218C78.847,3.13,72.54.61,67.541,1.8a24.07,24.07,0,0,0-8.075,3.3,27.483,27.483,0,0,0-8.255,8.967c-2.556,4.1-4.8,8.388-7.275,12.538-1.6,2.476-2.9,5.139-4.357,7.7C33.659,44.76,28.71,55.774,23.494,66.651Q15.368,83.6,7.1,100.482c-.055.113-.111.225-.165.337C4.59,105.6,2.2,110.489,1.618,115.772S2.6,126.9,6.87,130.07c3.1,2.3,7.115,2.9,10.958,3.31,24.465,2.618,49.024.493,73.51-.614,9.832-.445,19.9-.253,29.525-2.655,5.246-1.31,10.424-3.9,13.486-8.34,3.472-5.039,3.675-11.7,2.107-17.636C136.374,103.815,136.283,103.5,136.189,103.183Z" transform="translate(0.408 0.407)" fill="none" stroke="#fff" stroke-miterlimit="10" stroke-width="3"/>
  </g>
</svg>
