<svg id="Group_1083" data-name="Group 1083" xmlns="http://www.w3.org/2000/svg" xmlns:xlink="http://www.w3.org/1999/xlink" width="174.238" height="144.846" viewBox="0 0 174.238 144.846">
  <defs>
    <clipPath id="clip-path">
      <rect id="Rectangle_483" data-name="Rectangle 483" width="174.238" height="144.846" fill="none"/>
    </clipPath>
  </defs>
  <g id="Group_1082" data-name="Group 1082" clip-path="url(#clip-path)">
    <path id="Path_1054" data-name="Path 1054" d="M69.97,60.378a4.184,4.184,0,0,0-1.058-1.549,4.267,4.267,0,0,0-6.942,4.518,1.846,1.846,0,0,0,.111.225l.1.2a4.348,4.348,0,0,0,5.25,2.142l.3-.155a4.219,4.219,0,0,0,1.933-1.747,4.35,4.35,0,0,0,.4-.919,4.643,4.643,0,0,0,.109-.534,4.221,4.221,0,0,0-.131-1.9Z" transform="translate(16.774 15.664)" fill="#43d8c4"/>
    <path id="Path_1055" data-name="Path 1055" d="M165.436,106.293q-.158-.486-.332-.965c-2.266-6.245-6.2-11.724-9.715-17.363-8.316-13.322-14.517-27.9-23.247-40.953-3.96-5.924-8.412-11.5-12.5-17.332-3.615-5.167-6.155-11.119-10.3-15.854a35.817,35.817,0,0,0-5.11-5.1c-4.078-3.1-10.723-5.325-15.8-3.807a24.872,24.872,0,0,0-8.125,3.872c-3.479,2.482-5.939,6.029-7.977,9.722-2.392,4.377-4.451,8.922-6.758,13.343-1.508,2.645-2.683,5.465-4.036,8.191C56.051,51.162,51.6,62.8,46.866,74.311Q39.489,92.25,31.96,110.125l-.151.357c-2.13,5.058-4.3,10.239-4.595,15.716s1.66,11.4,6.249,14.42c3.328,2.189,7.5,2.569,11.484,2.767,25.357,1.26,50.531-2.37,75.691-4.949,10.1-1.035,20.488-1.428,30.259-4.469,5.328-1.657,10.509-4.625,13.4-9.383,3.281-5.393,3.1-12.267,1.136-18.291M49.545,143.286h0m.156,0h0m9.142-31.109a3.506,3.506,0,0,1-.1.445,3.626,3.626,0,0,1-.324.749,3.469,3.469,0,0,1-1.571,1.432c-.092.043-.173.1-.27.131a3.75,3.75,0,0,1-2.126.074,3.542,3.542,0,0,1-.746-.309,3.5,3.5,0,0,1-1.452-1.521,3.616,3.616,0,0,1-.169-.354,3.511,3.511,0,0,1,6.6-2.386c.02.057.025.114.042.17a3.492,3.492,0,0,1,.108,1.568m24.117-34.62a7.107,7.107,0,0,1-.923,2.622,7.614,7.614,0,0,1-3.455,3.154,4.55,4.55,0,0,1-.594.279,6.8,6.8,0,0,1-1.249.319c-.229.038-.468.066-.722.088a7.651,7.651,0,0,1-2.7-.24,7.757,7.757,0,0,1-1.635-.674l-.011-.005a7.656,7.656,0,0,1-3.187-3.342,6.043,6.043,0,0,1-.364-.776,7.711,7.711,0,0,1,14.5-5.242l.107.392a7.649,7.649,0,0,1,.231,3.426m17.087,27.685a6,6,0,0,1-3.219,2.785,6.1,6.1,0,0,1-1.091.284,6,6,0,1,1,4.694-7.966l.092.253,0,.071a6.032,6.032,0,0,1-.479,4.573M91.854,37.63a3.515,3.515,0,0,1-3.482-3.108,3.593,3.593,0,0,1-.041-.39,3.511,3.511,0,0,1,7.021-.025c0,.06-.014.116-.017.174a3.494,3.494,0,0,1-.426,1.513,3.169,3.169,0,0,1-.8.983,3.465,3.465,0,0,1-1.96.82c-.1.01-.2.032-.3.033M114.7,123.761a3.814,3.814,0,0,1-.094.446,3.72,3.72,0,0,1-.326.748,3.465,3.465,0,0,1-1.569,1.432c-.093.043-.174.1-.271.131a3.75,3.75,0,0,1-2.126.074,3.542,3.542,0,0,1-.746-.309,3.485,3.485,0,0,1-1.451-1.521,3.014,3.014,0,0,1-.169-.354,3.51,3.51,0,0,1,6.6-2.384c.02.056.025.113.042.169a3.492,3.492,0,0,1,.108,1.568m-7.077-63.833a6,6,0,1,1,1.109.1,6.009,6.009,0,0,1-1.109-.1m12.467,25.036a3.506,3.506,0,0,1-.1.445,3.591,3.591,0,0,1-.326.749,3.463,3.463,0,0,1-1.569,1.431,2.636,2.636,0,0,1-.27.131,3.48,3.48,0,0,1-.9.183,3.517,3.517,0,0,1-1.228-.108,3.556,3.556,0,0,1-.748-.31,3.489,3.489,0,0,1-1.451-1.52,3.614,3.614,0,0,1-.169-.354,3.51,3.51,0,0,1,6.6-2.386c.02.056.025.113.043.17a3.492,3.492,0,0,1,.108,1.568M137.2,118.687a7.711,7.711,0,0,1-5.239-14.5,5.134,5.134,0,0,1,.706-.189l.306-.061,1.147-.159a7.69,7.69,0,0,1,3.08,14.913" transform="translate(7.387 1.203)" fill="#43d8c4"/>
    <path id="Path_1056" data-name="Path 1056" d="M112.383,85.245l-.98.145-.064.019a1.686,1.686,0,0,0-.24.057,4.382,4.382,0,1,0,1.284-.221" transform="translate(29.421 23.161)" fill="#43d8c4"/>
    <path id="Path_1057" data-name="Path 1057" d="M83.259,81.054a2.59,2.59,0,0,0-2.784-1.574,2.487,2.487,0,0,0-.457.118,2.6,2.6,0,0,0-1.534,3.27l0,0a2.553,2.553,0,0,0,4.8-1.726Z" transform="translate(21.287 21.587)" fill="#43d8c4"/>
    <path id="Path_1058" data-name="Path 1058" d="M94.39,43.967a2.552,2.552,0,0,0-2.087-2.5,2.473,2.473,0,0,0-.477-.043,2.555,2.555,0,1,0,2.564,2.546" transform="translate(24.259 11.254)" fill="#43d8c4"/>
    <path id="Path_1059" data-name="Path 1059" d="M107.393,44.949c-3.337-1.141-.788-5.732-.221-8.054.86-3.226,1.754-6.439,2.58-9.675a130.834,130.834,0,0,1,4.372-14.677c.9-2.412,4.719-1.427,4.315,1.127l.008-.132c0-.038,0-.076.005-.116-.58,3.9-2.275,7.558-3.412,11.319-.691,2.315-1.18,4.682-1.872,7-.671,3.359-1.891,6.559-2.744,9.865-.094,1.76-.877,3.839-3.03,3.342" transform="translate(28.722 3.033)" fill="#fff"/>
    <path id="Path_1060" data-name="Path 1060" d="M111.327,42.222c-.617-3.1,3.568-3.716,5.653-4.682,3.106-1.091,6.2-2.228,9.239-3.487,2.342-.933,4.806-1.848,7.142-2.715a2.486,2.486,0,0,1,2.569.123,2.252,2.252,0,0,1,.757,2.626c-.441,1.183-1.779,1.436-2.794,1.944-1.882.928-3.8,1.768-5.748,2.55a98.8,98.8,0,0,1-11.316,4.291c-1.933.6-4.493,2.088-5.5-.65" transform="translate(30.232 8.434)" fill="#fff"/>
    <path id="Path_1061" data-name="Path 1061" d="M102.306,105.731a2.263,2.263,0,0,1,1.908-2.535c.684-.092,1.373-.1,2.061-.134a20.929,20.929,0,0,0,6.978-2,12.188,12.188,0,0,0,4.1-11.9c-1.194-4.916-4.656-8.815-7.194-13.068-.663-.857-1.3-1.732-2-2.56a6.879,6.879,0,0,1-1.858-2.43,2.231,2.231,0,0,1,2.36-2.846,2.479,2.479,0,0,1,1.774,1.268,21.909,21.909,0,0,1,2.484,2.864,26.1,26.1,0,0,1,2.262,3.36,60.824,60.824,0,0,1,4.727,7.587,17.314,17.314,0,0,1,.7,15.314c-1.877,3.731-4.555,6.861-8.8,7.8a27.378,27.378,0,0,1-6.6,1.15,2.332,2.332,0,0,1-2.906-1.863" transform="translate(27.792 18.54)" fill="#fff"/>
    <path id="Path_1062" data-name="Path 1062" d="M19.141,80.768c-3.114-1.241-.862-4.179.146-6.131q.647-1.232,1.3-2.459c2.063-3.881,3.557-8.484,5.6-12.294,1.775-3.6,4.022-6.936,5.707-10.572,1.141-2.081,2.182-4.209,3.156-6.374,2.425-4.722,4.62-9.565,7.3-14.153C43.1,27.466,43.525,26,44.17,24.64c.743-1.455,1.535-2.884,2.387-4.277.477-.786.928-1.708,1.839-2.059a1.854,1.854,0,0,1,2.365,2.334c-.743,2.081-1.951,3.978-2.812,6.013a39.074,39.074,0,0,1-3.366,7.076c-3.182,6.361-6.276,12.767-9.437,19.137C33.321,56.231,31.309,59.5,29.6,62.934c-1.413,3.024-2.579,6.164-4,9.188-.96,1.981-2.027,3.91-3.046,5.861-.719,1.5-1.325,3.318-3.409,2.785" transform="translate(4.769 4.94)" fill="#fff"/>
    <path id="Path_1063" data-name="Path 1063" d="M.412,80.3c-.975-3.743,4.654-3.549,6.977-4.492A42.761,42.761,0,0,1,14.8,74c1.437-.121,2.832-1.119,4.268-.572A2.241,2.241,0,0,1,20.4,75.527c.066,3.193-7.306,2.841-9.669,3.827a56.793,56.793,0,0,1-5.99,1.74c-1.488.679-3.593,1.16-4.334-.794" transform="translate(0.081 19.908)" fill="#fff"/>
    <path id="Path_1064" data-name="Path 1064" d="M.809,98.07c-2.222-2.017.683-4.188,2.106-5.63,1.693-1.6,3.324-3.262,4.972-4.908,1.534-1.092,7.658-9.671,8.43-4.66a2.628,2.628,0,0,1-.963,3.4,44.554,44.554,0,0,1-5.239,5.267c-1.793,1.825-3.663,3.575-5.462,5.393C3.8,98.195,2.191,99.235.809,98.07" transform="translate(0 22.094)" fill="#fff"/>
    <path id="Path_1065" data-name="Path 1065" d="M60.672,137.876a244.344,244.344,0,0,1-26.037-1.262c-4.169-.445-8.538-1.1-12.121-3.764-4.572-3.4-6.946-9.7-6.2-16.464.638-5.73,3.13-10.816,5.542-15.735l.167-.343C27.532,89.07,33.046,77.694,38.412,66.5q1.65-3.441,3.276-6.894c4.016-8.491,8.171-17.272,12.884-25.6.5-.877.978-1.764,1.455-2.649.922-1.71,1.876-3.478,2.976-5.175,1-1.675,2-3.446,3-5.22,1.357-2.4,2.758-4.881,4.254-7.282,1.808-2.878,4.7-7.008,9-9.718A25.829,25.829,0,0,1,84.05.365c6.048-1.44,13.139,1.616,17.171,5.06a36.593,36.593,0,0,1,4.994,5.564,59.4,59.4,0,0,1,5.838,9.857c1.117,2.2,2.171,4.275,3.4,6.262,1.54,2.5,3.186,5,4.775,7.424,2.142,3.261,4.357,6.633,6.387,10.077a246.6,246.6,0,0,1,11.252,22.47c2.821,6.15,5.738,12.511,9.019,18.5.593,1.081,1.2,2.158,1.806,3.235,2.587,4.585,5.261,9.327,6.828,14.559h0c.1.338.2.678.287,1.022,1.946,7.373,1.054,14.513-2.445,19.592-3.841,5.573-10.2,8.131-14.866,9.295-7.961,1.989-16.2,2.255-24.159,2.51-1.952.064-3.9.127-5.836.214-4.306.2-8.613.422-12.923.649-11.472.6-23.171,1.216-34.907,1.216M87.263,4.749a9.21,9.21,0,0,0-2.116.233A21.453,21.453,0,0,0,77.86,7.933C75.1,9.674,72.789,12.21,70.277,16.2c-1.436,2.308-2.813,4.743-4.143,7.1-1.02,1.8-2.04,3.61-3.1,5.392-1.043,1.611-1.909,3.219-2.827,4.92-.495.918-.991,1.835-1.5,2.741-4.624,8.167-8.74,16.867-12.722,25.283q-1.635,3.46-3.286,6.916C37.321,79.756,31.8,91.146,26.285,102.4l-.167.343c-2.229,4.55-4.537,9.259-5.083,14.166-.556,5.011,1.136,9.772,4.307,12.13,2.625,1.948,6.28,2.479,9.8,2.855,19.968,2.134,40.416,1.061,60.191.025,4.321-.228,8.641-.454,12.96-.649,1.957-.09,3.923-.154,5.9-.216,7.714-.249,15.69-.507,23.162-2.372,3.867-.966,9.108-3.032,12.107-7.386,2.714-3.936,3.357-9.652,1.768-15.683q-.116-.439-.248-.877c-1.415-4.723-3.843-9.029-6.413-13.588-.618-1.094-1.235-2.187-1.836-3.286-3.364-6.141-6.315-12.58-9.17-18.806A243.433,243.433,0,0,0,122.526,47.02c-1.971-3.346-4.155-6.67-6.266-9.884-1.607-2.451-3.27-4.984-4.846-7.534-1.331-2.156-2.481-4.42-3.594-6.609a54.937,54.937,0,0,0-5.351-9.088,32.928,32.928,0,0,0-4.333-4.872A18.394,18.394,0,0,0,87.263,4.749" transform="translate(4.396 0)" fill="#fff"/>
  </g>
</svg>
