<svg xmlns="http://www.w3.org/2000/svg" xmlns:xlink="http://www.w3.org/1999/xlink" width="172.615" height="179.43" viewBox="0 0 172.615 179.43">
  <defs>
    <clipPath id="clip-path">
      <rect id="Rectangle_484" data-name="Rectangle 484" width="143.035" height="131.632" transform="translate(0 0)" fill="none"/>
    </clipPath>
  </defs>
  <g id="Group_1085" data-name="Group 1085" transform="matrix(-0.342, -0.94, 0.94, -0.342, 48.921, 179.43)">
    <g id="Group_1084" data-name="Group 1084" transform="translate(0 0)" clip-path="url(#clip-path)">
      <path id="Path_1066" data-name="Path 1066" d="M.868,28.039c-2.645-2.332,1.468-5.6,2.88-7.525,2.031-2.652,4.087-5.276,6.09-7.949A131.006,131.006,0,0,1,19.5.683c1.76-1.882,4.906.49,3.553,2.693.02-.039.039-.079.059-.12l.05-.1c-2.03,3.379-5,6.109-7.488,9.147-1.526,1.874-2.884,3.874-4.412,5.749C9.355,20.9,7,23.386,4.948,26.111c-.76,1.59-2.281,3.21-4.08,1.928" transform="translate(110.994 7.169)" fill="#fff"/>
      <path id="Path_1067" data-name="Path 1067" d="M0,2.253C.623-.85,4.723.188,7.018.094,10.3.276,13.6.409,16.888.412c2.522.036,5.148.135,7.638.228a2.485,2.485,0,0,1,2.325,1.1,2.252,2.252,0,0,1-.305,2.715c-.862.923-2.194.645-3.327.726-2.093.136-4.188.177-6.286.153a98.726,98.726,0,0,1-12.1-.371C2.819,4.777-.115,5.169,0,2.253" transform="translate(115.863 37.512)" fill="#fff"/>
      <path id="Path_1068" data-name="Path 1068" d="M104.432,131.632c-4.5,0-8.978-.324-13.369-.642-1.845-.135-3.685-.267-5.52-.378-4.075-.24-8.154-.454-12.235-.665-18.924-.986-38.493-2.005-57.463-6.074-3.9-.838-7.975-1.895-11.11-4.775C.728,115.417-.9,109.189.485,102.85c1.17-5.358,4.029-9.914,6.793-14.323l.193-.305C13.8,78.126,20.124,67.949,26.258,57.979q1.892-3.073,3.762-6.161c4.629-7.611,9.416-15.483,14.686-22.869.558-.778,1.1-1.564,1.633-2.353,1.039-1.52,2.114-3.093,3.322-4.588,1.1-1.475,2.222-3.048,3.342-4.621,1.515-2.126,3.08-4.326,4.728-6.442,2-2.545,5.148-6.164,9.488-8.306A24.663,24.663,0,0,1,75.9.1c5.88-.763,12.308,2.837,15.79,6.5a34.812,34.812,0,0,1,4.171,5.758,56.521,56.521,0,0,1,4.54,9.889c.834,2.18,1.621,4.24,2.58,6.23,1.2,2.5,2.5,5.019,3.763,7.457,1.7,3.29,3.453,6.692,5.027,10.143a233.36,233.36,0,0,1,8.388,22.3c2.049,6.074,4.167,12.352,6.666,18.322.45,1.075.913,2.145,1.377,3.216,1.989,4.587,4.045,9.332,5.008,14.434.064.331.121.665.173,1,1.11,7.175-.448,13.851-4.273,18.32-4.2,4.9-10.478,6.694-15.007,7.333a69.148,69.148,0,0,1-9.671.621M77.527,4.746a7.869,7.869,0,0,0-1.016.064,20.228,20.228,0,0,0-7.116,2.045c-2.756,1.362-5.177,3.512-7.925,7.013-1.579,2.028-3.116,4.185-4.6,6.271-1.142,1.6-2.284,3.206-3.463,4.782-1.142,1.417-2.116,2.844-3.149,4.353-.558.816-1.115,1.633-1.691,2.435C43.4,38.947,38.66,46.744,34.075,54.283q-1.881,3.094-3.774,6.183c-6.141,9.982-12.47,20.169-18.81,30.281l-.195.306c-2.545,4.058-5.18,8.261-6.174,12.809-1.011,4.628.1,9.236,2.824,11.742,2.256,2.073,5.63,2.929,8.892,3.628,18.6,3.989,37.978,5,56.716,5.974,4.092.214,8.183.427,12.269.669,1.855.111,3.716.244,5.582.38,7.289.529,14.826,1.077,22.036.056,3.72-.524,8.831-1.942,12.065-5.72,2.924-3.413,4.085-8.7,3.187-14.506q-.065-.425-.145-.844a41.512,41.512,0,0,0-1.9-6.643l-.051.019-.106-.284.051-.018c-.8-2.149-1.735-4.3-2.691-6.5-.472-1.089-.944-2.178-1.4-3.271-2.564-6.125-4.709-12.484-6.786-18.637a229.8,229.8,0,0,0-8.208-21.851c-1.527-3.347-3.256-6.7-4.928-9.935-1.272-2.466-2.588-5.017-3.82-7.574-1.045-2.168-1.906-4.418-2.738-6.594a52.151,52.151,0,0,0-4.134-9.075,31.205,31.205,0,0,0-3.586-5c-2.475-2.606-6.912-5.128-10.72-5.128" transform="translate(0 0)" fill="#fff"/>
      <path id="Path_1069" data-name="Path 1069" d="M6.389,2.627a3.186,3.186,0,0,0-.608-1.343A3.224,3.224,0,0,0,.051,3.815a3.077,3.077,0,0,0,.1.345A3.2,3.2,0,0,0,1.244,5.752a3.264,3.264,0,0,0,.631.392,3.226,3.226,0,0,0,1.1.28,3.17,3.17,0,0,0,.841-.033c.093-.018.175-.053.265-.079A3.182,3.182,0,0,0,5.711,5.246a3.4,3.4,0,0,0,.406-.631,3.31,3.31,0,0,0,.153-.39A3.237,3.237,0,0,0,6.4,2.788c-.008-.053,0-.107-.014-.16" transform="translate(77.419 108.69)" fill="#fff"/>
      <path id="Path_1070" data-name="Path 1070" d="M6.389,2.627a3.177,3.177,0,0,0-.608-1.343A3.224,3.224,0,0,0,.051,3.815a3.078,3.078,0,0,0,.1.345A3.2,3.2,0,0,0,1.244,5.752a3.265,3.265,0,0,0,.631.392,3.226,3.226,0,0,0,1.1.28,3.171,3.171,0,0,0,.841-.033c.093-.018.175-.053.265-.079A3.182,3.182,0,0,0,5.711,5.246a3.4,3.4,0,0,0,.406-.631,3.31,3.31,0,0,0,.153-.39A3.237,3.237,0,0,0,6.4,2.788c-.008-.053,0-.107-.014-.16" transform="translate(28.499 89.941)" fill="#fff"/>
      <path id="Path_1071" data-name="Path 1071" d="M6.389,2.627a3.17,3.17,0,0,0-.608-1.343A3.224,3.224,0,0,0,.051,3.815a3.077,3.077,0,0,0,.1.345A3.2,3.2,0,0,0,1.244,5.752a3.264,3.264,0,0,0,.631.392,3.225,3.225,0,0,0,1.1.28,3.171,3.171,0,0,0,.841-.033c.093-.018.175-.053.265-.079A3.182,3.182,0,0,0,5.711,5.246a3.394,3.394,0,0,0,.406-.631,3.31,3.31,0,0,0,.153-.39A3.237,3.237,0,0,0,6.4,2.788c-.008-.053,0-.107-.014-.16" transform="translate(88.033 74.316)" fill="#fff"/>
      <path id="Path_1072" data-name="Path 1072" d="M7.8.024,6.734,0,6.446.01a4.622,4.622,0,0,0-.668.067A7.215,7.215,0,1,0,7.8.024M10.316,9.25A3.887,3.887,0,0,1,7.8,10.888a3.918,3.918,0,1,1-1.442-7.7A1.745,1.745,0,0,1,6.59,3.17l.06-.008.911.014A3.894,3.894,0,0,1,10.316,9.25" transform="translate(96.446 97.639)" fill="#fff"/>
      <path id="Path_1073" data-name="Path 1073" d="M14.038,5.774a7.017,7.017,0,0,0-1.331-2.957A7.066,7.066,0,0,0,9.414.417,7,7,0,0,0,.307,5.075a7.016,7.016,0,0,0-.192,3.31,5.846,5.846,0,0,0,.215.757,7.031,7.031,0,0,0,2.4,3.5l.009.005a7.107,7.107,0,0,0,1.382.853,7.035,7.035,0,0,0,2.414.617c.233.018.454.028.668.028a6.282,6.282,0,0,0,1.179-.107,3.908,3.908,0,0,0,.579-.164,7,7,0,0,0,3.6-2.349,7.32,7.32,0,0,0,.893-1.4,7.525,7.525,0,0,0,.331-.846,7,7,0,0,0,.3-3.139ZM10.775,8.291a4.358,4.358,0,0,1-.178.468,4.074,4.074,0,0,1-.5.774,3.884,3.884,0,0,1-2.011,1.3l-.291.1a3.881,3.881,0,0,1-1.019.034,3.908,3.908,0,0,1-1.335-.337,3.987,3.987,0,0,1-.766-.478A3.884,3.884,0,0,1,3.354,8.211l-.062-.192a1.836,1.836,0,0,1-.067-.22,3.986,3.986,0,0,1,3.13-4.572,3.985,3.985,0,0,1,3.83,1.5,3.852,3.852,0,0,1,.731,1.56l.022.261a3.876,3.876,0,0,1-.163,1.742" transform="translate(47.96 57.061)" fill="#fff"/>
      <path id="Path_1074" data-name="Path 1074" d="M10.968,4.739,10.922,4.5A5.51,5.51,0,0,0,.089,6.524,5.442,5.442,0,0,0,.825,8.4,5.466,5.466,0,0,0,5.49,11.024a5.571,5.571,0,0,0,1.031-.1A5.527,5.527,0,0,0,10.96,4.8Zm-3.617,2.2A2.346,2.346,0,0,1,3.2,5.944v0a2.312,2.312,0,0,1,.067-1.091,2.337,2.337,0,0,1,1.8-1.646,2.246,2.246,0,0,1,.43-.041A2.38,2.38,0,0,1,7.795,5l.017.086a2.314,2.314,0,0,1-.46,1.849" transform="translate(63.29 85.086)" fill="#fff"/>
      <path id="Path_1075" data-name="Path 1075" d="M5.468,5.511a3.454,3.454,0,0,0,.275-.317,3.223,3.223,0,0,0,.609-1.309c.011-.052.032-.1.041-.155a3.178,3.178,0,0,0-.121-1.469A3.218,3.218,0,0,0,5.229.728a3.178,3.178,0,0,0-4.612.6A3.192,3.192,0,0,0,.025,2.717,3.435,3.435,0,0,0,0,3.076,3.21,3.21,0,0,0,.5,4.943a3.3,3.3,0,0,0,.463.581,3.223,3.223,0,0,0,.94.632,3.207,3.207,0,0,0,.8.252c.094.015.183.009.276.015a3.192,3.192,0,0,0,1.9-.454,3.345,3.345,0,0,0,.594-.458" transform="translate(72.997 25.057)" fill="#fff"/>
      <path id="Path_1076" data-name="Path 1076" d="M8.747,9.971a5.511,5.511,0,0,0,1.225-7.7A5.511,5.511,0,1,0,3.655,10.7a5.681,5.681,0,0,0,.991.253,5.479,5.479,0,0,0,4.1-.983M5.142,7.828a2.346,2.346,0,0,1,.738-4.634,2.3,2.3,0,0,1,.426.109A2.346,2.346,0,0,1,5.142,7.828" transform="translate(83.044 43.306)" fill="#fff"/>
    </g>
  </g>
</svg>
