<svg xmlns="http://www.w3.org/2000/svg" width="148.391" height="153.85" viewBox="0 0 148.391 153.85">
  <g id="Group_1334" data-name="Group 1334" transform="translate(-6485.524 850.058) rotate(-83)">
    <path id="Path_3155" data-name="Path 3155" d="M1913.032,874.67a3.8,3.8,0,0,0-.649-1.579,3.87,3.87,0,0,0-1.739-1.4,3.81,3.81,0,0,0-1.98-.268,3.948,3.948,0,0,0-3.314,4.375,1.8,1.8,0,0,0,.056.221l.052.193a3.863,3.863,0,0,0,1.217,1.98,4.028,4.028,0,0,0,.735.509,4.277,4.277,0,0,0,2.314.411l.294-.082a3.858,3.858,0,0,0,2.05-1.19,4.089,4.089,0,0,0,.531-.743,4.408,4.408,0,0,0,.2-.454,3.831,3.831,0,0,0,.242-1.717Z" transform="translate(-347.014 5541.695)" fill="#fff"/>
    <path id="Path_3156" data-name="Path 3156" d="M1998.725,936.487q-.048-.463-.113-.922c-.836-5.987-3.3-11.605-5.364-17.288-4.883-13.429-7.647-27.574-12.949-40.843-2.405-6.02-5.315-11.822-7.847-17.787-2.242-5.282-3.377-11.059-6.17-16.058a32.67,32.67,0,0,0-3.585-5.505c-3.043-3.53-8.537-6.766-13.344-6.375a22.586,22.586,0,0,0-7.964,1.911,25.8,25.8,0,0,0-8.936,7.145c-2.958,3.443-5.648,7.1-8.537,10.6-1.843,2.069-3.422,4.356-5.141,6.526-6.983,8.86-13.144,18.374-19.533,27.725q-9.957,14.572-20.035,29.058l-.2.29c-2.853,4.1-5.764,8.3-7.06,13.118s-.678,10.462,2.838,14.015c2.547,2.577,6.189,3.7,9.7,4.633,22.328,5.915,45.42,7.442,68.3,9.9,9.187.986,18.505,2.6,27.776,1.741,5.054-.467,10.228-2.13,13.7-5.817,3.939-4.18,5.076-10.332,4.466-16.065m-95.979-14.909a3.079,3.079,0,0,1-.169.378,3.24,3.24,0,0,1-.431.606,3.158,3.158,0,0,1-1.667.978c-.089.02-.173.052-.265.065a3.4,3.4,0,0,1-1.906-.336,3.243,3.243,0,0,1-.605-.417,3.17,3.17,0,0,1-1.005-1.627,3.006,3.006,0,0,1-.084-.347,3.194,3.194,0,0,1,6.328-.875c.007.055,0,.107.006.16a3.172,3.172,0,0,1-.2,1.416m28.006-26.254a7.17,7.17,0,0,1-.366.82,7.283,7.283,0,0,1-.95,1.34,6.936,6.936,0,0,1-3.671,2.153,4.011,4.011,0,0,1-.581.135,6.257,6.257,0,0,1-1.172.049c-.21-.01-.428-.03-.659-.059a6.746,6.746,0,0,1-3.686-1.634l-.01-.006a6.971,6.971,0,0,1-2.2-3.576,5.671,5.671,0,0,1-.177-.76,7.017,7.017,0,0,1,13.9-1.925l.021.369a6.948,6.948,0,0,1-.443,3.093m9.976,27.87a5.467,5.467,0,0,1-3.392,1.87,5.575,5.575,0,0,1-1.024.046,5.46,5.46,0,1,1,5.683-6.2l.033.242-.01.063a5.489,5.489,0,0,1-1.291,3.98m5.487-61.725a3.115,3.115,0,0,1-.783-.287,3.216,3.216,0,0,1-.9-.669,3.4,3.4,0,0,1-.431-.6,3.175,3.175,0,0,1-.4-1.87,3.362,3.362,0,0,1,.038-.355,3.231,3.231,0,0,1,3.78-2.474,3.235,3.235,0,0,1,2.474,3.779c-.011.052-.034.1-.049.151a3.181,3.181,0,0,1-.663,1.266,3.8,3.8,0,0,1-.287.3,3.358,3.358,0,0,1-.61.424,3.154,3.154,0,0,1-1.9.361,2.459,2.459,0,0,1-.271-.029m4.053,80.977a3.247,3.247,0,0,1-.168.379,3.36,3.36,0,0,1-.431.6,3.156,3.156,0,0,1-1.668.978c-.09.021-.172.052-.264.065a3.195,3.195,0,0,1-3.517-2.379,3.1,3.1,0,0,1-.085-.346,3.195,3.195,0,0,1,6.329-.875c.007.053,0,.105.006.159a3.2,3.2,0,0,1-.2,1.416m5.765-58.15a5.469,5.469,0,1,1,.969.3,5.467,5.467,0,0,1-.969-.3m6.364,24.638a3.257,3.257,0,0,1-.169.379,3.291,3.291,0,0,1-.431.6,3.157,3.157,0,0,1-1.667.978c-.091.022-.173.052-.265.065a3.414,3.414,0,0,1-1.906-.335,3.246,3.246,0,0,1-.607-.418,3.177,3.177,0,0,1-1-1.627,2.863,2.863,0,0,1-.084-.346,3.194,3.194,0,0,1,6.328-.875c.007.053,0,.105.006.159a3.186,3.186,0,0,1-.2,1.416m8.855,33.248a7.016,7.016,0,0,1-1.922-13.9,4.911,4.911,0,0,1,.664-.035l.285,0,1.05.073a7,7,0,0,1-.076,13.856" transform="translate(-362.041 5524.142)" fill="#fff"/>
    <path id="Path_3157" data-name="Path 3157" d="M1941.8,900.874l-.9-.056-.061,0a1.667,1.667,0,0,0-.225.006,3.988,3.988,0,1,0,1.185.046" transform="translate(-332.895 5554.702)" fill="#fff"/>
    <path id="Path_3158" data-name="Path 3158" d="M1919.582,893.008a2.358,2.358,0,0,0-2.18-1.928,2.263,2.263,0,0,0-.428.02,2.368,2.368,0,0,0-1.983,2.62h0a2.323,2.323,0,0,0,4.6-.627Z" transform="translate(-342.747 5550.396)" fill="#fff"/>
    <path id="Path_3159" data-name="Path 3159" d="M1934.5,865.854a2.306,2.306,0,0,0-.33-1.748,2.332,2.332,0,0,0-1.054-.875,2.4,2.4,0,0,0-.416-.127,2.325,2.325,0,1,0-.95,4.551,2.325,2.325,0,0,0,2.75-1.8" transform="translate(-336.15 5538.011)" fill="#fff"/>
    <path id="Path_3160" data-name="Path 3160" d="M1939.208,868.409c-1.241-.871-.9-2.026-.6-3.268.233-1.126.542-2.237.8-3.356.756-2.482,1.285-5.033,2.143-7.484.888-2.66,1.555-5.382,2.188-8.113.29-1.138.635-2.258,1.011-3.37a3.39,3.39,0,0,1,.6-1.26,2.059,2.059,0,0,1,3.542.946,5.359,5.359,0,0,1-.324,2.247c-.263.95-.525,1.9-.793,2.846-.836,3.409-2,6.72-3.047,10.067-.545,2.141-1.188,4.254-1.693,6.4-.41,1.231-.374,2.619-.995,3.769a2.053,2.053,0,0,1-2.842.571" transform="translate(-332.424 5528.208)" fill="#31414a"/>
    <path id="Path_3161" data-name="Path 3161" d="M1944.165,865.786a2.061,2.061,0,0,1-1.265-2.6c.307-1.151,1.841-1.448,2.7-1.763.8-.333,1.6-.647,2.4-.979a64.4,64.4,0,0,1,6.4-2.538c1.634-.609,3.23-1.319,4.908-1.8,1.012-.405,2.289-.621,3.074.324a2.05,2.05,0,0,1-.382,3.037,33.834,33.834,0,0,1-4.653,1.638c-1.784.728-3.63,1.295-5.412,2.028-1.227.549-2.451,1.109-3.7,1.593a21.606,21.606,0,0,1-2.486.96,2.143,2.143,0,0,1-1.588.1" transform="translate(-330.454 5534.786)" fill="#31414a"/>
    <path id="Path_3162" data-name="Path 3162" d="M1903.075,953.634a222.935,222.935,0,0,1-23.724-1.149c-3.8-.408-7.782-1.009-11.047-3.432-4.167-3.094-6.332-8.844-5.648-15.008.58-5.217,2.852-9.855,5.05-14.341l.16-.322c5.012-10.234,10.039-20.6,14.929-30.8,1-2.079,1.983-4.164,2.971-6.251,3.667-7.752,7.458-15.767,11.758-23.363.456-.8.89-1.6,1.325-2.412.841-1.559,1.71-3.169,2.714-4.717.91-1.53,1.824-3.149,2.74-4.77,1.233-2.183,2.508-4.44,3.869-6.626,1.651-2.626,4.294-6.393,8.206-8.858a23.512,23.512,0,0,1,8.015-3.282c5.5-1.309,11.974,1.471,15.65,4.611a33.388,33.388,0,0,1,4.551,5.071,54.143,54.143,0,0,1,5.324,8.987c1.018,2,1.979,3.895,3.1,5.707,1.4,2.267,2.9,4.545,4.345,6.75,1.955,2.978,3.977,6.056,5.828,9.2a224.1,224.1,0,0,1,10.256,20.482c2.571,5.605,5.229,11.4,8.221,16.864.538.982,1.089,1.96,1.641,2.939,2.359,4.182,4.8,8.506,6.229,13.279h0c.092.311.182.624.262.94,1.774,6.71.96,13.217-2.231,17.848-3.5,5.082-9.3,7.413-13.551,8.473-7.255,1.811-14.759,2.053-22.016,2.287-1.779.058-3.555.115-5.321.195-3.929.179-7.86.384-11.793.591-10.456.549-21.117,1.109-31.812,1.109m24.249-121.341a8.373,8.373,0,0,0-1.931.213,19.517,19.517,0,0,0-6.642,2.689c-2.511,1.583-4.622,3.9-6.913,7.539-1.308,2.1-2.559,4.314-3.771,6.459-.93,1.648-1.863,3.3-2.832,4.926-.952,1.469-1.742,2.936-2.578,4.487-.451.835-.9,1.668-1.372,2.495-4.219,7.452-7.977,15.395-11.609,23.076q-1.486,3.138-2.981,6.271c-4.9,10.212-9.928,20.592-14.953,30.853l-.153.31c-2.035,4.149-4.139,8.443-4.632,12.912-.509,4.568,1.032,8.909,3.925,11.057,2.392,1.774,5.722,2.258,8.93,2.6,18.2,1.948,36.83.969,54.848.022,3.942-.208,7.885-.414,11.824-.591,1.784-.082,3.579-.14,5.376-.2,7.031-.226,14.3-.461,21.108-2.16,3.526-.88,8.3-2.763,11.037-6.733,2.473-3.588,3.06-8.8,1.609-14.293-.072-.274-.147-.536-.225-.8-1.292-4.309-3.507-8.237-5.853-12.4-.561-.994-1.12-1.986-1.667-2.985-3.066-5.6-5.756-11.465-8.358-17.14a220.94,220.94,0,0,0-10.051-20.087c-1.8-3.054-3.792-6.09-5.719-9.023-1.462-2.229-2.975-4.534-4.408-6.851-1.214-1.966-2.263-4.029-3.275-6.023a50.271,50.271,0,0,0-4.878-8.286,29.641,29.641,0,0,0-3.95-4.441,16.758,16.758,0,0,0-9.908-3.906" transform="translate(-365.926 5522.502)" fill="#31414a"/>
  </g>
</svg>
