<svg xmlns="http://www.w3.org/2000/svg" width="157.977" height="128.045" viewBox="0 0 157.977 128.045">
  <g id="Group_1333" data-name="Group 1333" transform="translate(-1478.475 -6460.733)">
    <path id="Path_3143" data-name="Path 3143" d="M1905.657,988.27a3.625,3.625,0,0,0-.922-1.348,3.7,3.7,0,0,0-1.9-.963,3.653,3.653,0,0,0-1.908.142,3.779,3.779,0,0,0-2.231,4.755,1.687,1.687,0,0,0,.1.195l.087.171a3.788,3.788,0,0,0,4.57,1.865l.259-.135a3.679,3.679,0,0,0,1.682-1.522,3.81,3.81,0,0,0,.349-.8,3.963,3.963,0,0,0,.1-.465,3.674,3.674,0,0,0-.115-1.655Z" transform="translate(-345.381 5540.606)" fill="#fff"/>
    <path id="Path_3144" data-name="Path 3144" d="M1991.131,1031.875q-.138-.422-.29-.839c-1.973-5.438-5.394-10.207-8.458-15.116-7.239-11.6-12.638-24.289-20.238-35.656-3.448-5.156-7.325-10.008-10.88-15.089-3.149-4.5-5.359-9.681-8.968-13.8a31.174,31.174,0,0,0-4.45-4.442c-3.551-2.7-9.335-4.636-13.758-3.316a21.655,21.655,0,0,0-7.075,3.372,24.7,24.7,0,0,0-6.945,8.464c-2.082,3.811-3.876,7.769-5.884,11.617-1.313,2.3-2.337,4.758-3.514,7.131-4.776,9.68-8.652,19.81-12.773,29.833q-6.42,15.618-12.977,31.18c-.043.1-.087.208-.131.312-1.854,4.4-3.745,8.914-4,13.682s1.445,9.927,5.441,12.555c2.9,1.9,6.531,2.235,10,2.408,22.076,1.1,43.993-2.063,65.9-4.308,8.8-.9,17.838-1.245,26.345-3.891,4.639-1.442,9.15-4.026,11.669-8.168,2.857-4.7,2.7-10.68.989-15.926m-92.8,5.123a3.413,3.413,0,0,1-.083.388,3.1,3.1,0,0,1-.284.651,3.014,3.014,0,0,1-1.366,1.246,2.387,2.387,0,0,1-.236.115,2.966,2.966,0,0,1-.781.159,3.031,3.031,0,0,1-2.983-1.687,2.727,2.727,0,0,1-.148-.308,3.056,3.056,0,0,1,5.749-2.077c.018.05.022.1.037.148a3.055,3.055,0,0,1,.1,1.366m21-30.141a7.08,7.08,0,0,1-.181.84,6.955,6.955,0,0,1-.623,1.442,6.62,6.62,0,0,1-3.009,2.746,3.929,3.929,0,0,1-.516.243,5.941,5.941,0,0,1-1.087.279c-.2.032-.407.057-.629.076a6.685,6.685,0,0,1-2.352-.21,6.767,6.767,0,0,1-1.424-.586l-.01-.005a6.658,6.658,0,0,1-2.775-2.909,5.542,5.542,0,0,1-.317-.675,6.714,6.714,0,0,1,12.628-4.564l.093.341a6.636,6.636,0,0,1,.2,2.983m14.876,24.1a5.2,5.2,0,0,1-8.518.928,5.1,5.1,0,0,1-1.228-4.073,5.213,5.213,0,0,1,10.08-1.119l.081.221,0,.062a5.247,5.247,0,0,1-.418,3.981m-7.132-58.865a2.994,2.994,0,0,1-.789-.113,3.026,3.026,0,0,1-.976-.448,3.093,3.093,0,0,1-.523-.473,3.034,3.034,0,0,1-.744-1.671,3.189,3.189,0,0,1-.036-.339,3.056,3.056,0,0,1,6.113-.022c0,.052-.012.1-.015.152a3.038,3.038,0,0,1-.37,1.318,3.5,3.5,0,0,1-.208.337,3.214,3.214,0,0,1-.486.519,3.013,3.013,0,0,1-1.707.713,2.362,2.362,0,0,1-.259.029m19.889,74.99a2.776,2.776,0,0,1-.366,1.039,3.028,3.028,0,0,1-1.366,1.248c-.08.037-.152.083-.236.113a2.988,2.988,0,0,1-.781.159,3.053,3.053,0,0,1-1.069-.094,3.135,3.135,0,0,1-.651-.269,3.034,3.034,0,0,1-1.263-1.325,2.64,2.64,0,0,1-.147-.308,3.036,3.036,0,0,1,3.407-4.035,3.088,3.088,0,0,1,2.342,1.958c.018.05.022.1.037.147a3.041,3.041,0,0,1,.094,1.366m-6.161-55.576a5.23,5.23,0,1,1,.965.086,5.233,5.233,0,0,1-.965-.086m10.854,21.8a3.377,3.377,0,0,1-.083.389,3.145,3.145,0,0,1-.284.651,3.015,3.015,0,0,1-1.366,1.246,2.5,2.5,0,0,1-.236.115,3.261,3.261,0,0,1-1.851.065,3.12,3.12,0,0,1-.651-.271,3.035,3.035,0,0,1-1.263-1.323,2.928,2.928,0,0,1-.148-.308,3.056,3.056,0,0,1,5.749-2.077c.018.048.023.1.037.148a3.051,3.051,0,0,1,.1,1.365m14.9,29.362a6.713,6.713,0,0,1-4.562-12.627,4.35,4.35,0,0,1,.614-.166l.268-.052,1-.139a6.7,6.7,0,0,1,2.683,12.984" transform="translate(-355.912 5524.385)" fill="#fff"/>
    <path id="Path_3145" data-name="Path 3145" d="M1939.409,1008.037l-.854.127-.055.018a1.348,1.348,0,0,0-.21.05,3.713,3.713,0,1,0,2.522,6.985,3.7,3.7,0,0,0-1.4-7.179" transform="translate(-331.196 5549.016)" fill="#fff"/>
    <path id="Path_3146" data-name="Path 3146" d="M1916.095,1004.784a2.26,2.26,0,0,0-2.426-1.371,2.326,2.326,0,0,0-.4.1,2.269,2.269,0,0,0-1.334,2.848h0a2.223,2.223,0,0,0,4.184-1.5Z" transform="translate(-340.319 5547.25)" fill="#fff"/>
    <path id="Path_3147" data-name="Path 3147" d="M1925.039,975.089a2.224,2.224,0,0,0-1.817-2.18,2.189,2.189,0,0,0-.414-.036,2.224,2.224,0,1,0,.015,4.447,2.226,2.226,0,0,0,2.216-2.231" transform="translate(-336.986 5535.66)" fill="#fff"/>
    <path id="Path_3148" data-name="Path 3148" d="M1930.841,976.672c-2.91-1-.687-5-.193-7.025.749-2.813,1.53-5.616,2.25-8.439a113.976,113.976,0,0,1,3.813-12.8,1.965,1.965,0,0,1,3.763.982c0-.039.005-.077.007-.116l.006-.1c-.507,3.4-1.986,6.593-2.975,9.873-.6,2.019-1.032,4.084-1.635,6.1-.585,2.931-1.648,5.721-2.393,8.6-.081,1.534-.764,3.347-2.642,2.916" transform="translate(-333.651 5525.91)" fill="#31414a"/>
    <path id="Path_3149" data-name="Path 3149" d="M1933.892,972.934c-.538-2.706,3.112-3.241,4.93-4.084,2.708-.951,5.4-1.943,8.058-3.041,2.042-.814,4.192-1.61,6.229-2.368a2.166,2.166,0,0,1,2.24.108,1.964,1.964,0,0,1,.661,2.291c-.385,1.032-1.551,1.251-2.437,1.7-1.641.81-3.316,1.541-5.014,2.223a86.313,86.313,0,0,1-9.868,3.744c-1.686.526-3.919,1.821-4.8-.567" transform="translate(-331.954 5531.979)" fill="#31414a"/>
    <path id="Path_3150" data-name="Path 3150" d="M1926.637,1025.782a1.974,1.974,0,0,1,1.664-2.211c.6-.08,1.2-.083,1.8-.117a18.2,18.2,0,0,0,6.085-1.747,10.629,10.629,0,0,0,3.572-10.378c-1.04-4.289-4.059-7.688-6.274-11.4-.577-.748-1.136-1.511-1.746-2.233a6,6,0,0,1-1.62-2.12,1.946,1.946,0,0,1,2.057-2.482,2.163,2.163,0,0,1,1.548,1.105,19.065,19.065,0,0,1,2.166,2.5,22.729,22.729,0,0,1,1.973,2.929,53.092,53.092,0,0,1,4.123,6.618,15.1,15.1,0,0,1,.611,13.355c-1.637,3.255-3.973,5.984-7.671,6.8a23.829,23.829,0,0,1-5.754,1,2.033,2.033,0,0,1-2.535-1.624" transform="translate(-334.697 5543.334)" fill="#31414a"/>
    <path id="Path_3151" data-name="Path 3151" d="M1859.9,1007.431c-2.716-1.082-.752-3.644.128-5.347q.563-1.076,1.137-2.144c1.8-3.386,3.1-7.4,4.887-10.723,1.548-3.136,3.507-6.049,4.977-9.221,1-1.815,1.9-3.67,2.753-5.558,2.115-4.119,4.031-8.343,6.366-12.344.647-1.151,1.017-2.426,1.58-3.617.647-1.268,1.338-2.515,2.082-3.73.416-.684.809-1.489,1.6-1.8a1.618,1.618,0,0,1,2.064,2.035c-.649,1.815-1.7,3.469-2.453,5.243a34.041,34.041,0,0,1-2.936,6.172c-2.775,5.548-5.474,11.134-8.231,16.691-1.591,2.938-3.346,5.787-4.835,8.783-1.234,2.638-2.25,5.377-3.494,8.013-.836,1.729-1.768,3.412-2.656,5.112-.626,1.305-1.156,2.895-2.973,2.43" transform="translate(-360.566 5528.053)" fill="#31414a"/>
    <path id="Path_3152" data-name="Path 3152" d="M1844.739,1003.259c-.85-3.265,4.06-3.1,6.085-3.917a37.338,37.338,0,0,1,6.467-1.573c1.253-.1,2.47-.977,3.723-.5a1.956,1.956,0,0,1,1.162,1.827c.058,2.784-6.372,2.478-8.432,3.338a49.722,49.722,0,0,1-5.224,1.518c-1.3.592-3.134,1.01-3.781-.693" transform="translate(-365.834 5544.873)" fill="#31414a"/>
    <path id="Path_3153" data-name="Path 3153" d="M1845.106,1018.207c-1.937-1.759.6-3.652,1.837-4.911,1.476-1.4,2.9-2.844,4.337-4.279,1.337-.953,6.68-8.436,7.353-4.065a2.293,2.293,0,0,1-.84,2.968,38.824,38.824,0,0,1-4.569,4.594c-1.565,1.592-3.194,3.118-4.764,4.7-.744,1.1-2.147,2-3.353.989" transform="translate(-365.926 5547.329)" fill="#31414a"/>
    <path id="Path_3154" data-name="Path 3154" d="M1896.209,1058.482a213.145,213.145,0,0,1-22.708-1.1c-3.633-.389-7.446-.963-10.57-3.283-3.988-2.962-6.06-8.464-5.406-14.361.556-5,2.729-9.431,4.832-13.722l.137-.279c4.791-9.78,9.6-19.7,14.3-29.506.955-1.987,1.9-3.981,2.838-5.973,3.51-7.419,7.139-15.091,11.255-22.363.438-.766.854-1.539,1.271-2.311.8-1.492,1.634-3.033,2.594-4.512.871-1.464,1.747-3.014,2.623-4.563,1.178-2.09,2.4-4.25,3.7-6.342a26.458,26.458,0,0,1,7.853-8.475,22.507,22.507,0,0,1,7.67-3.142c5.263-1.257,11.455,1.41,14.973,4.414a31.987,31.987,0,0,1,4.356,4.852,51.9,51.9,0,0,1,5.092,8.592c.973,1.919,1.893,3.733,2.965,5.467,1.347,2.176,2.78,4.36,4.167,6.474,1.867,2.845,3.8,5.787,5.569,8.789a214.619,214.619,0,0,1,9.812,19.6c2.461,5.365,5,10.913,7.868,16.14.515.938,1.041,1.874,1.57,2.811a63.051,63.051,0,0,1,5.961,12.708h0q.13.443.248.891c1.7,6.43.92,12.657-2.133,17.088-3.35,4.863-8.9,7.092-12.965,8.106-6.942,1.734-14.124,1.966-21.07,2.19-1.7.055-3.4.11-5.089.186-3.756.171-7.515.367-11.273.566-10.005.526-20.209,1.06-30.445,1.06m23.2-116.109a8.075,8.075,0,0,0-1.846.2,18.685,18.685,0,0,0-6.355,2.575c-2.4,1.516-4.423,3.728-6.615,7.213-1.251,2.008-2.449,4.128-3.608,6.18-.89,1.577-1.783,3.157-2.71,4.713-.911,1.4-1.666,2.808-2.466,4.291-.431.8-.863,1.6-1.314,2.391-4.039,7.134-7.636,14.735-11.112,22.088-.948,2-1.89,4-2.849,5.993-4.7,9.815-9.518,19.748-14.31,29.523l-.145.3c-1.946,3.968-3.959,8.075-4.432,12.355-.487,4.371.989,8.523,3.756,10.581,2.292,1.7,5.477,2.161,8.545,2.489,17.414,1.863,35.251.926,52.495.022,3.77-.2,7.538-.4,11.3-.566,1.708-.079,3.425-.134,5.143-.189,6.728-.217,13.685-.442,20.2-2.068,3.374-.842,7.944-2.644,10.56-6.441,2.366-3.434,2.929-8.421,1.541-13.678-.068-.255-.139-.509-.212-.764-1.239-4.124-3.36-7.884-5.6-11.864-.537-.951-1.071-1.9-1.594-2.855-2.933-5.358-5.51-10.972-8-16.4a211.726,211.726,0,0,0-9.616-19.218c-1.719-2.918-3.623-5.817-5.463-8.62-1.4-2.137-2.854-4.348-4.227-6.571-1.165-1.881-2.169-3.858-3.139-5.769a48.1,48.1,0,0,0-4.664-7.922,28.753,28.753,0,0,0-3.779-4.249,16.048,16.048,0,0,0-9.482-3.738" transform="translate(-360.986 5522.502)" fill="#31414a"/>
  </g>
</svg>
