<svg xmlns="http://www.w3.org/2000/svg" xmlns:xlink="http://www.w3.org/1999/xlink" width="146.943" height="137.709" viewBox="0 0 146.943 137.709">
  <defs>
    <clipPath id="clip-path">
      <rect id="Rectangle_476" data-name="Rectangle 476" width="133.016" height="122.411" fill="#fff"/>
    </clipPath>
  </defs>
  <g id="Group_1335" data-name="Group 1335" transform="matrix(-0.105, 0.995, -0.995, -0.105, 7285.152, -769.268)">
    <g id="Group_1194" data-name="Group 1194" transform="matrix(0.017, -1, 1, 0.017, 1525, 7149.996)">
      <g id="Group_1072" data-name="Group 1072" transform="translate(0 0)" clip-path="url(#clip-path)">
        <path id="Path_1004" data-name="Path 1004" d="M.807,26.075c-2.46-2.169,1.365-5.206,2.679-7,1.889-2.466,3.8-4.907,5.664-7.393A121.829,121.829,0,0,1,18.134.635a2.1,2.1,0,0,1,3.3,2.5c.019-.037.037-.073.054-.111l.046-.1c-1.887,3.142-4.648,5.681-6.963,8.507-1.419,1.743-2.682,3.6-4.1,5.347C8.7,19.432,6.512,21.748,4.6,24.282,3.894,25.76,2.479,27.267.807,26.075" transform="translate(103.219 6.667)" fill="#fff"/>
        <path id="Path_1005" data-name="Path 1005" d="M0,2.1C.579-.79,4.392.175,6.527.087c3.056.169,6.118.293,9.178.3,2.345.033,4.787.125,7.1.212A2.311,2.311,0,0,1,24.97,1.616a2.094,2.094,0,0,1-.284,2.525c-.8.859-2.04.6-3.094.675-1.947.127-3.894.164-5.846.142A91.81,91.81,0,0,1,4.5,4.613C2.622,4.443-.107,4.807,0,2.1" transform="translate(107.747 34.884)" fill="#fff"/>
        <path id="Path_1006" data-name="Path 1006" d="M97.117,122.411c-4.185,0-8.349-.3-12.433-.6-1.716-.125-3.427-.248-5.134-.351-3.789-.224-7.583-.422-11.378-.619-17.6-.917-35.8-1.865-53.438-5.648-3.629-.779-7.416-1.762-10.331-4.441C.677,107.332-.836,101.54.451,95.645c1.088-4.982,3.747-9.22,6.318-13.32l.18-.284c5.887-9.388,11.766-18.852,17.47-28.124q1.76-2.858,3.5-5.73c4.3-7.078,8.756-14.4,13.657-21.267.519-.724,1.019-1.455,1.518-2.188.966-1.413,1.966-2.876,3.089-4.267,1.025-1.372,2.066-2.835,3.108-4.3,1.409-1.977,2.864-4.023,4.4-5.991A26.813,26.813,0,0,1,62.51,2.453,22.935,22.935,0,0,1,70.584.1c5.468-.71,11.445,2.638,14.683,6.048A32.373,32.373,0,0,1,89.146,11.5a52.562,52.562,0,0,1,4.222,9.2c.776,2.027,1.508,3.943,2.4,5.794,1.119,2.323,2.329,4.668,3.5,6.935,1.579,3.059,3.211,6.223,4.675,9.433a217.014,217.014,0,0,1,7.8,20.74c1.905,5.648,3.875,11.487,6.2,17.038.419,1,.849,2,1.281,2.991a63.754,63.754,0,0,1,4.657,13.423c.059.307.112.619.161.931,1.032,6.672-.416,12.881-3.974,17.037-3.9,4.56-9.744,6.225-13.956,6.819a64.3,64.3,0,0,1-8.994.577M72.1,4.414a7.318,7.318,0,0,0-.945.059,18.811,18.811,0,0,0-6.618,1.9c-2.563,1.267-4.814,3.266-7.37,6.522-1.469,1.886-2.9,3.892-4.278,5.832-1.062,1.491-2.124,2.981-3.22,4.447-1.062,1.317-1.968,2.644-2.928,4.048-.519.759-1.037,1.518-1.573,2.265-4.8,6.732-9.213,13.982-13.476,20.993q-1.749,2.877-3.51,5.75c-5.711,9.282-11.6,18.756-17.492,28.16l-.181.285c-2.366,3.774-4.817,7.682-5.742,11.911-.94,4.3.091,8.589,2.627,10.919,2.1,1.928,5.235,2.724,8.269,3.374,17.3,3.71,35.318,4.649,52.743,5.556,3.806.2,7.61.4,11.41.622,1.725.1,3.456.227,5.191.354,6.779.492,13.787,1,20.493.052,3.459-.487,8.212-1.806,11.22-5.319,2.719-3.174,3.8-8.093,2.964-13.49q-.06-.4-.135-.785a38.6,38.6,0,0,0-1.769-6.178l-.047.018-.1-.264.047-.017c-.747-2-1.613-4-2.5-6.048-.439-1.012-.878-2.026-1.3-3.042-2.384-5.7-4.379-11.61-6.311-17.331a213.7,213.7,0,0,0-7.633-20.32c-1.42-3.113-3.028-6.228-4.583-9.239-1.183-2.293-2.407-4.665-3.553-7.044-.972-2.016-1.773-4.108-2.546-6.132A48.5,48.5,0,0,0,85.4,13.833a29.02,29.02,0,0,0-3.335-4.651c-2.3-2.423-6.428-4.768-9.97-4.768" transform="translate(0 0)" fill="#fff"/>
        <path id="Path_1007" data-name="Path 1007" d="M5.942,2.443a2.962,2.962,0,0,0-.565-1.249A3,3,0,0,0,.047,3.548a2.863,2.863,0,0,0,.095.32A2.973,2.973,0,0,0,1.157,5.349a3.036,3.036,0,0,0,.587.364,3,3,0,0,0,1.021.26,2.948,2.948,0,0,0,.782-.031c.086-.017.163-.05.246-.073a2.959,2.959,0,0,0,1.52-.991,3.158,3.158,0,0,0,.377-.587,3.078,3.078,0,0,0,.142-.363,3.01,3.01,0,0,0,.124-1.336c-.007-.05,0-.1-.013-.149" transform="translate(71.996 101.077)" fill="#fff"/>
        <path id="Path_1008" data-name="Path 1008" d="M5.942,2.443a2.955,2.955,0,0,0-.565-1.249A3,3,0,0,0,.047,3.548a2.862,2.862,0,0,0,.095.32A2.973,2.973,0,0,0,1.157,5.349a3.036,3.036,0,0,0,.587.364,3,3,0,0,0,1.021.26,2.949,2.949,0,0,0,.782-.031c.086-.017.163-.05.246-.073a2.959,2.959,0,0,0,1.52-.991,3.157,3.157,0,0,0,.377-.587,3.078,3.078,0,0,0,.142-.363,3.01,3.01,0,0,0,.124-1.336c-.007-.05,0-.1-.013-.149" transform="translate(26.503 83.641)" fill="#fff"/>
        <path id="Path_1009" data-name="Path 1009" d="M5.942,2.443a2.948,2.948,0,0,0-.565-1.249A3,3,0,0,0,.047,3.548a2.862,2.862,0,0,0,.095.32A2.973,2.973,0,0,0,1.157,5.349a3.035,3.035,0,0,0,.587.364,3,3,0,0,0,1.021.26,2.949,2.949,0,0,0,.782-.031c.086-.017.163-.05.246-.073a2.959,2.959,0,0,0,1.52-.991,3.157,3.157,0,0,0,.377-.587,3.077,3.077,0,0,0,.142-.363,3.01,3.01,0,0,0,.124-1.336c-.007-.05,0-.1-.013-.149" transform="translate(81.866 69.11)" fill="#fff"/>
        <path id="Path_1010" data-name="Path 1010" d="M7.251.022,6.262,0,5.995.009a4.3,4.3,0,0,0-.621.063A6.709,6.709,0,1,0,7.251.022M9.593,8.6a3.615,3.615,0,0,1-2.336,1.523A3.643,3.643,0,1,1,5.917,2.964a1.622,1.622,0,0,1,.212-.015l.056-.007.847.013A3.621,3.621,0,0,1,9.593,8.6" transform="translate(89.69 90.8)" fill="#fff"/>
        <path id="Path_1011" data-name="Path 1011" d="M13.055,5.37a6.526,6.526,0,0,0-1.238-2.75A6.571,6.571,0,0,0,8.755.387,6.513,6.513,0,0,0,.286,4.719,6.524,6.524,0,0,0,.107,7.8a5.437,5.437,0,0,0,.2.7,6.539,6.539,0,0,0,2.229,3.255l.008,0a6.609,6.609,0,0,0,1.286.794,6.542,6.542,0,0,0,2.245.574c.216.017.422.026.621.026a5.842,5.842,0,0,0,1.1-.1A3.634,3.634,0,0,0,8.33,12.9a6.506,6.506,0,0,0,3.347-2.184,6.808,6.808,0,0,0,.83-1.3,7,7,0,0,0,.307-.786,6.51,6.51,0,0,0,.276-2.919ZM10.02,7.71a4.053,4.053,0,0,1-.166.435,3.789,3.789,0,0,1-.464.72,3.612,3.612,0,0,1-1.87,1.207l-.271.09a3.609,3.609,0,0,1-.947.032,3.634,3.634,0,0,1-1.242-.313,3.708,3.708,0,0,1-.712-.445,3.611,3.611,0,0,1-1.23-1.8l-.058-.179A1.707,1.707,0,0,1,3,7.253,3.707,3.707,0,0,1,5.909,3,3.706,3.706,0,0,1,9.471,4.4a3.582,3.582,0,0,1,.68,1.451l.02.242a3.6,3.6,0,0,1-.151,1.62" transform="translate(44.601 53.064)" fill="#fff"/>
        <path id="Path_1012" data-name="Path 1012" d="M10.2,4.407l-.043-.226A5.124,5.124,0,0,0,.083,6.067,5.061,5.061,0,0,0,.767,7.812a5.083,5.083,0,0,0,4.339,2.44,5.181,5.181,0,0,0,.959-.09,5.14,5.14,0,0,0,4.127-5.694ZM6.836,6.453a2.182,2.182,0,0,1-3.859-.925v0A2.15,2.15,0,0,1,3.04,4.511a2.173,2.173,0,0,1,1.678-1.53,2.088,2.088,0,0,1,.4-.038,2.213,2.213,0,0,1,2.131,1.71l.015.08a2.152,2.152,0,0,1-.428,1.72" transform="translate(58.857 79.126)" fill="#fff"/>
        <path id="Path_1013" data-name="Path 1013" d="M5.085,5.125a3.211,3.211,0,0,0,.255-.294,3,3,0,0,0,.566-1.217c.011-.048.03-.093.038-.144A2.955,2.955,0,0,0,5.832,2.1,2.993,2.993,0,0,0,4.863.677a2.955,2.955,0,0,0-4.289.559,2.968,2.968,0,0,0-.55,1.29A3.193,3.193,0,0,0,0,2.86,2.985,2.985,0,0,0,.461,4.6a3.065,3.065,0,0,0,.43.54,3,3,0,0,0,.874.588,2.983,2.983,0,0,0,.746.234c.088.014.17.008.257.014a2.969,2.969,0,0,0,1.764-.422,3.111,3.111,0,0,0,.552-.426" transform="translate(67.883 23.302)" fill="#fff"/>
        <path id="Path_1014" data-name="Path 1014" d="M8.134,9.272A5.125,5.125,0,0,0,9.273,2.116,5.125,5.125,0,1,0,3.4,9.951a5.283,5.283,0,0,0,.921.235,5.1,5.1,0,0,0,3.814-.914M4.781,7.28A2.182,2.182,0,0,1,5.467,2.97a2.14,2.14,0,0,1,.4.1A2.182,2.182,0,0,1,4.781,7.28" transform="translate(77.227 40.273)" fill="#fff"/>
      </g>
    </g>
  </g>
</svg>
