<svg id="Group_1173" data-name="Group 1173" xmlns="http://www.w3.org/2000/svg" xmlns:xlink="http://www.w3.org/1999/xlink" width="100.871" height="100.871" viewBox="0 0 100.871 100.871">
  <defs>
    <clipPath id="clip-path">
      <rect id="Rectangle_523" data-name="Rectangle 523" width="100.871" height="100.87" fill="#31414a"/>
    </clipPath>
  </defs>
  <path id="Path_3115" data-name="Path 3115" d="M386.837,96.965l16.781-16.781-2.229-2.229L386.837,92.507Z" transform="translate(-316.851 -63.851)" fill="#31414a"/>
  <path id="Path_3116" data-name="Path 3116" d="M94.736,374.517,77.955,391.3l2.229,2.229,14.552-14.552Z" transform="translate(-63.852 -306.76)" fill="#31414a"/>
  <g id="Group_1172" data-name="Group 1172">
    <g id="Group_1171" data-name="Group 1171" clip-path="url(#clip-path)">
      <path id="Path_3117" data-name="Path 3117" d="M215.974,69.895l-9.559,6.221a19.765,19.765,0,0,0-2.2-6.449l-6.044-10.944-6.044,10.944a19.769,19.769,0,0,0-2.2,6.449l-9.559-6.221V82.416a13.914,13.914,0,0,0,.642,4.179l-.642-.418V98.7a13.908,13.908,0,0,0,.642,4.179l-.642-.418V114.98a13.825,13.825,0,0,0,6.3,11.626l9.923,6.458v14.174h3.152V135.116h0v-2.052l9.923-6.458a13.824,13.824,0,0,0,6.3-11.626V102.459l-.642.418a13.914,13.914,0,0,0,.642-4.179V86.177l-.642.418a13.907,13.907,0,0,0,.642-4.179Zm-21.088,1.3,3.285-5.948,3.285,5.948a16.719,16.719,0,0,1,2.01,6.845l-.566.369a13.848,13.848,0,0,0-4.728,5.2,13.848,13.848,0,0,0-4.728-5.2l-.567-.369a16.723,16.723,0,0,1,2.01-6.845m-8.214,22.851,5.053,3.289a10.683,10.683,0,0,1,4.869,8.982v6.709l-8.2-5.339a10.683,10.683,0,0,1-4.872-8.984V91.989l3.149,2.05,0,0m13.075,18.98v-6.713a10.683,10.683,0,0,1,4.871-8.978l5.052-3.288h0l3.151-2.051V98.7a10.683,10.683,0,0,1-4.872,8.984ZM183.519,82.416V75.707l8.2,5.339a10.683,10.683,0,0,1,4.872,8.984v6.709l-3.15-2.05,0,0L188.389,91.4a10.683,10.683,0,0,1-4.87-8.982m0,32.565v-6.709l8.2,5.339a10.682,10.682,0,0,1,4.872,8.983V129.3l-8.2-5.339a10.683,10.683,0,0,1-4.872-8.984m29.3,0a10.683,10.683,0,0,1-4.872,8.984l-8.2,5.339V122.59a10.682,10.682,0,0,1,4.872-8.978l8.2-5.339Zm-5.17-23.387-7.906,5.145V90.025a10.683,10.683,0,0,1,4.872-8.979l8.2-5.339v6.709A10.683,10.683,0,0,1,207.95,91.4Z" transform="translate(-147.735 -48.098)" fill="#31414a"/>
      <path id="Path_3118" data-name="Path 3118" d="M50.435,100.87a50.435,50.435,0,1,1,50.435-50.435A50.492,50.492,0,0,1,50.435,100.87m0-97.718A47.283,47.283,0,1,0,97.719,50.435,47.337,47.337,0,0,0,50.435,3.152" fill="#31414a"/>
    </g>
  </g>
</svg>
