<svg xmlns="http://www.w3.org/2000/svg" width="102.455" height="130.11" viewBox="0 0 102.455 130.11">
  <g id="Group_1142" data-name="Group 1142" transform="translate(0)">
    <path id="Path_1871" data-name="Path 1871" d="M2100.172,1092.032a2.8,2.8,0,0,0-1.833,1.06,1.979,1.979,0,0,0-.285.4,2.186,2.186,0,0,0-.147,1.78,2.711,2.711,0,0,0,1.028,1.311,2.476,2.476,0,0,0,1.379.426,2.422,2.422,0,0,0,.371-.032,2.48,2.48,0,0,0,1.461-.76,2.872,2.872,0,0,0,.67-1.252,2.574,2.574,0,0,0-.076-1.368,2.342,2.342,0,0,0-.925-1.2,2.448,2.448,0,0,0-1.336-.382,2.988,2.988,0,0,0-.306.015m1.987,16.788a2.045,2.045,0,0,0-.382,1.047,1.932,1.932,0,0,0,.012.431,2.356,2.356,0,0,0-.258,1.925,2.712,2.712,0,0,0,.978,1.381,2.948,2.948,0,0,0,1.436.515c.1.006.194.01.289.01a2.861,2.861,0,0,0,2.684-1.666,3.2,3.2,0,0,0-.874-3.485,3.275,3.275,0,0,0-1.953-.971c-.055,0-.112,0-.167,0a2.11,2.11,0,0,0-1.765.817m10.123,9.029a2.552,2.552,0,0,0-2.031,1.176,2.7,2.7,0,0,0-.439,2.17,2.782,2.782,0,0,0,1.34,1.708,3.238,3.238,0,0,0,1.467.414,1.861,1.861,0,0,0,.526-.072,1.828,1.828,0,0,0,1.341-1.307c.04-.175.067-.348.094-.524a1.049,1.049,0,0,0,.02-1.2,2.693,2.693,0,0,0-.177-.948,2.267,2.267,0,0,0-2.046-1.417c-.03,0-.063,0-.1,0m1.448,17.244a1.433,1.433,0,0,0,.591.122,1.65,1.65,0,0,0,1.4-.785,1.6,1.6,0,1,0-2.851-.2.155.155,0,0,0,.016.038c-.058.059-.114.116-.17.175a.426.426,0,0,0,.6.608c.038-.042.074-.082.112-.122a1.137,1.137,0,0,0,.3.165m8.1,9.479a18.916,18.916,0,0,1-4.322-3.11c-6.15-4.786-11.124-10.838-16.971-15.962-4.185-4.178-8.116-8.594-12.513-12.561-1.038-.975-2.1-1.94-3.128-2.928.06-.063.122-.127.181-.188.228-.236.454-.481.661-.741a14,14,0,0,0,1.342-1.938c-.038.07-.074.137-.112.2a11.192,11.192,0,0,0,1.115-2.5,9.386,9.386,0,0,0,.325-3.439,9.111,9.111,0,0,0-2.958-6.07,9.256,9.256,0,0,0-1.737-1.132c.359-.325.707-.648,1.03-.971,2-1.837,3.819-3.528,5.926-5.179,3.813-2.764,7.113-6.143,10.944-8.88,2.413-1.854,5.886-4.518,8.232-1.049,1.548.627,2.265,2.217,2.9,3.656,1.144,2.483,1.311,4.982,1.849,7.552a63.391,63.391,0,0,0,2.608,7.385c-.116.068-.232.139-.344.215a6.9,6.9,0,0,0-1.41,1.332,8.446,8.446,0,0,0-1.032.627,9.01,9.01,0,0,0-2.16,2.217,9.3,9.3,0,0,0-1.258,2.669,6.8,6.8,0,0,0-.243,1.229,4.529,4.529,0,0,0-.1,1.541,5.946,5.946,0,0,0,2.468,4.334,6.292,6.292,0,0,0,2.859.973c.277.021.551.034.826.034a11.183,11.183,0,0,0,1.614-.123c.48-.074.951-.156,1.423-.257a9.037,9.037,0,0,0,1.113-.087c.417,1.911.846,3.819,1.317,5.723,1.216,5.578,1.919,11.24,2.943,16.853a58.443,58.443,0,0,1,1.252,6.373c.289,2.21-1.23,4.465-3.352,4.465a3.323,3.323,0,0,1-1.286-.27" transform="translate(-2070.08 -1076.444)" fill="#fff"/>
    <path id="Path_1872" data-name="Path 1872" d="M2135.721,1115.937a6.083,6.083,0,0,0-4.4,2.016,4.237,4.237,0,0,0-.771,1.364,4.453,4.453,0,0,0-.212,1.379,3.8,3.8,0,0,0,.986,2.512,3.664,3.664,0,0,0,2.62,1.206c.034,0,.069,0,.1,0a5.821,5.821,0,0,0,2.759-.754,5.148,5.148,0,0,0,2.128-1.984,4.453,4.453,0,0,0,.6-2.533,3.619,3.619,0,0,0-.25-.921,2.845,2.845,0,0,0-1.381-1.391,2.594,2.594,0,0,0-2.071-.9c-.037,0-.076,0-.114,0m-28.015,15.32a4.423,4.423,0,0,1-2.056-3.091c-.593-3.274,1.208-6.173,3.551-8.579l.108.051c.274.125.555.232.838.329a11.3,11.3,0,0,0,1.431.384,19.4,19.4,0,0,0,2.107.329c.33.031.658.042.99.055.093,0,.188.006.283.006a8.986,8.986,0,0,0,1.115-.078,6.67,6.67,0,0,0,1.344-.281,6.209,6.209,0,0,0,2.356-1.387,6.811,6.811,0,0,0,1.45-2.046,6.671,6.671,0,0,0,.688-2.749v-.046a2.01,2.01,0,0,0-.7-2.829,10.431,10.431,0,0,0-1.524-2.305c.218-.27.435-.541.657-.8,2.253-2.755,4.689-5.377,6.935-8.138,3.542-4.123,8.428-4.288,11.886-.68a9.224,9.224,0,0,0-1.622,1.187,7.76,7.76,0,0,0-2.508,4.288,7.618,7.618,0,0,0,.756,4.526,5.62,5.62,0,0,0,3.965,3.059,9.171,9.171,0,0,0,1.583.154,5.672,5.672,0,0,0,1.119-.106c.365-.076.732-.148,1.093-.245.636-.171,1.267-.359,1.9-.526.087-.023.175-.044.268-.065.7,1.98,1.313,3.99,1.893,5.989.418,1.794,1.077,3.775.306,5.557-1.78,3.405-5.867,4.911-9.414,5.729a67.116,67.116,0,0,1-10.931,1.2c-.363.063-.727.122-1.09.175a6.963,6.963,0,0,0-.468-1.831,6.227,6.227,0,0,0-1.136-1.892,4.85,4.85,0,0,0-1.72-1.159,5.812,5.812,0,0,0-2.92-.475,5.324,5.324,0,0,0-2.246.677,4.791,4.791,0,0,0-1.465,1.4,11.539,11.539,0,0,0-.838,1.436,10.072,10.072,0,0,0-.624,1.7c.017-.055.032-.112.051-.169a6.422,6.422,0,0,0-.24,1.336,41.231,41.231,0,0,1-4.4.49,6.242,6.242,0,0,1-2.781-.574" transform="translate(-2045.827 -1053.793)" fill="#fff"/>
    <path id="Path_1873" data-name="Path 1873" d="M2107.206,1123.284a2.591,2.591,0,0,0,.836.255,2.293,2.293,0,0,0,.382.027,3.218,3.218,0,0,0,1.169-.226,2.306,2.306,0,0,0,1.2-1.047,2.114,2.114,0,0,0,.175-1.539,2.328,2.328,0,0,0-.9-1.275,2.789,2.789,0,0,0-1.577-.481,4.141,4.141,0,0,0-2.829,1.015,2.4,2.4,0,0,0-.568.775,1.816,1.816,0,0,0-.142.724,1.574,1.574,0,0,0,.6,1.264,1.835,1.835,0,0,0,1.4.357,1.746,1.746,0,0,0,.245.15m-12.917-2.016a1.695,1.695,0,0,0-.333,3.12,2.054,2.054,0,0,0,.922.234,1.579,1.579,0,0,0,.3-.03,1.669,1.669,0,0,0,1.18-.834,1.586,1.586,0,0,0,.129-1.224,2.159,2.159,0,0,0-.726-1.009,1.559,1.559,0,0,0-.988-.327,1.74,1.74,0,0,0-.483.07m-12.4,10.233a7.5,7.5,0,0,1-1.444-1.248q.466-.44.9-.914a13,13,0,0,0,2.03-2.856,8.1,8.1,0,0,0,.876-2.557,3.449,3.449,0,0,0-.437-2.4,4.635,4.635,0,0,0-1.653-1.444,7.523,7.523,0,0,0-4.89-.559c-.071-2.158.026-4.248.115-5.975.335-2.7,1.3-5.878,4.057-6.977,2.595-.781,5.341.366,7.878.938q1.876.491,3.748,1l-.083.19a7.9,7.9,0,0,0,.262,7.011,4.538,4.538,0,0,0,1.138,1.322,4.134,4.134,0,0,0,1.509.764,5.2,5.2,0,0,0,1.134.133,4.6,4.6,0,0,0,.6-.042,6.2,6.2,0,0,0,1.818-.566,19.469,19.469,0,0,0,2.983-1.873l-.14.1a9.248,9.248,0,0,0,3.144-3.109c.454.175.906.35,1.357.53a39.067,39.067,0,0,1,6.253,1.735c2.823,1.151,6.608,2.724,6.889,6.2-.04,2.843-2.628,5-5.143,5.866-2.225.646-4.53.982-6.786,1.524a45.6,45.6,0,0,1-6.2.754,46.646,46.646,0,0,0-8.522,1.48c-2.54.627-5.322,1.7-8.005,1.7a7.762,7.762,0,0,1-3.4-.726" transform="translate(-2077.254 -1043.266)" fill="#fff"/>
    <path id="Path_1874" data-name="Path 1874" d="M2107.127,1134.305a1.956,1.956,0,0,0-1.251.714,2.891,2.891,0,0,0-.707,1.444,2.108,2.108,0,0,0,.358,1.537,1.9,1.9,0,0,0,1.317.747c.078.006.154.008.234.008a3.235,3.235,0,0,0,2.278-.948,2.069,2.069,0,0,0,.623-2.232,1.72,1.72,0,0,0-1.227-.975,1.425,1.425,0,0,0-.433-.038,1.89,1.89,0,0,0-1.193-.258m-.669,8.613c-3.621-.057-8.808-.935-8.757-5.527a7.52,7.52,0,0,1,.82-2.989c.118-.281.232-.564.348-.845a1.978,1.978,0,0,0,.637.1,2.548,2.548,0,0,0,.452-.042,6.582,6.582,0,0,0,3.334-1.759,6.032,6.032,0,0,0,.909-1.089,5.832,5.832,0,0,0,.794-2.025,4.121,4.121,0,0,0-1.084-3.54,5.047,5.047,0,0,0-1.333-.994c-.086-.044-.173-.087-.262-.127a7.825,7.825,0,0,1,2.1-4.235c2.09-1.645,4.735-.291,5.459,2.075.417,1.054.488,2.191.819,3.27.679,1.585,1.492,3.108,2.075,4.733.776,1.917,1.5,3.848,2.092,5.828a20.991,20.991,0,0,1,1.171,3.346c.213,2.645-1.934,3.709-4.29,3.511-1.493.131-2.983.323-4.478.323-.27,0-.538,0-.808-.019" transform="translate(-2054.534 -1029.019)" fill="#fff"/>
    <path id="Path_1875" data-name="Path 1875" d="M2100.111,1122.788c.021.028.04.057.062.086.049.089.094.179.139.275.019.055.04.107.055.16a1.17,1.17,0,0,1,.029.148c.006.046.011.093.013.139s0,.106-.009.156-.017.1-.028.152c-.023.076-.048.152-.076.226-.04.1-.086.19-.134.283-.031.053-.063.1-.1.154q-.124.149-.253.292c-.127.12-.258.232-.393.344-.091.062-.184.12-.276.177-.045.023-.089.046-.133.067.352-.893.714-1.782,1.1-2.66" transform="translate(-2053.078 -1024.951)" fill="#fff"/>
    <path id="Path_1876" data-name="Path 1876" d="M2099.613,1123.5l-.044.078.044-.078" transform="translate(-2052.459 -1024.156)" fill="#fff"/>
    <path id="Path_1877" data-name="Path 1877" d="M2088.251,1105.907a3.022,3.022,0,1,1,3.053,2.991,3.049,3.049,0,0,1-3.053-2.991" transform="translate(-2065.033 -1047.1)" fill="#fff"/>
    <path id="Path_1878" data-name="Path 1878" d="M2114.327,1129.541a10.512,10.512,0,0,1-2.66-2.833,9.981,9.981,0,0,1-2.217-5.351,2.99,2.99,0,0,1,5.4-2.536,27.565,27.565,0,0,0,4.281.08c3.067.068,3.8,3.239,2.223,5.479-1.554,2.422-3.429,7.07-7.032,5.162" transform="translate(-2041.744 -1031.123)" fill="#fff"/>
    <path id="Path_1879" data-name="Path 1879" d="M2108.063,1096.745a3.022,3.022,0,1,1,3.053,2.992,3.049,3.049,0,0,1-3.053-2.992" transform="translate(-2043.019 -1057.28)" fill="#fff"/>
    <path id="Path_1880" data-name="Path 1880" d="M2116.333,1130.445a3.022,3.022,0,1,1,3.052,2.991,3.049,3.049,0,0,1-3.052-2.991" transform="translate(-2033.831 -1019.835)" fill="#fff"/>
    <path id="Path_1881" data-name="Path 1881" d="M2106.383,1138.265a3.022,3.022,0,1,1,3.053,2.991,3.049,3.049,0,0,1-3.053-2.991" transform="translate(-2044.886 -1011.146)" fill="#fff"/>
    <path id="Path_1882" data-name="Path 1882" d="M2089.609,1126.739a3.022,3.022,0,1,1,3.053,2.992,3.049,3.049,0,0,1-3.053-2.992" transform="translate(-2063.525 -1023.953)" fill="#fff"/>
    <path id="Path_1883" data-name="Path 1883" d="M2126.84,1130.227c-2.067-.566-2.916-2.827-4.309-4.26-1.209-1.554-3.6-2.318-3.822-4.494a3.014,3.014,0,0,1,5.629-1.813c1.284.224,2.584.3,3.876.427,1.592.051,3.471.507,3.868,2.289.4,1.583-.469,3.16-1.041,4.6-.695,1.961-1.813,3.787-4.2,3.257" transform="translate(-2031.208 -1030.128)" fill="#fff"/>
    <path id="Path_1884" data-name="Path 1884" d="M2085.132,1107.832c-1.368-.07-2.74-.154-4.111-.175a3.1,3.1,0,0,1-2.164-.9c-1.816-1.82-.435-4.317.682-6.109,1.475-2.5,4.521-6.733,7.625-4a13.646,13.646,0,0,1,4.275,4.915,2.946,2.946,0,0,1-.169,5.793,41.248,41.248,0,0,1-6.139.469" transform="translate(-2076.449 -1054.974)" fill="#fff"/>
    <path id="Path_1885" data-name="Path 1885" d="M2087.079,1103.4c-2.078-1.366-6.8-.722-6.6-4.176a2.433,2.433,0,0,1,2.687-2.113c1.218.088,1.864,1.248,2.941,1.676,1.157.6,2.573.9,3.433,1.951a1.844,1.844,0,0,1-2.46,2.662" transform="translate(-2073.678 -1053.509)" fill="#fff"/>
    <path id="Path_1886" data-name="Path 1886" d="M2079.742,1139.353c-1.932-1.883-.017-4.1,1.495-5.485a75.171,75.171,0,0,1,9.679-8.09c1.966-1.554,3.948-3.076,5.99-4.524,1.191-.813,2.312-2.1,3.9-1.881a2.992,2.992,0,0,1,1.467,5.3c-1.763,1.2-3.418,2.322-5.124,3.566-3.872,2.951-8,5.565-11.569,8.9-1.778,1.49-3.287,4.347-5.833,2.219" transform="translate(-2075.394 -1028.773)" fill="#31414a"/>
    <path id="Path_1887" data-name="Path 1887" d="M2093.6,1146.6a2.752,2.752,0,0,1-1.741-3.868c.72-2.727,1.522-5.736,1.984-8.354.538-2.535.614-5.143,1.148-7.674.268-1.539.679-3.095,2.4-3.544a3.03,3.03,0,0,1,3.631,3.851,36.353,36.353,0,0,0-1.069,5.668,72.488,72.488,0,0,1-1.923,8.423c-.7,2.236-1.212,6.2-4.436,5.5" transform="translate(-2061.321 -1024.667)" fill="#31414a"/>
    <path id="Path_1888" data-name="Path 1888" d="M2109.45,1113.7a2.993,2.993,0,0,1-.615-4.165,68.582,68.582,0,0,1,5.186-4.826c1.993-1.773,3.976-3.572,5.92-5.307,2.054-1.868,4.11-3.733,6.217-5.542a6.359,6.359,0,0,1,2.952-1.826,2.8,2.8,0,0,1,2.09,4.961c-.838.686-1.672,1.425-2.373,2.056-4.077,3.661-8.079,7.406-12.131,11.1a42.6,42.6,0,0,0-3.135,3,3,3,0,0,1-4.112.549" transform="translate(-2042.812 -1059.154)" fill="#31414a"/>
    <path id="Path_1889" data-name="Path 1889" d="M2105.756,1109.378c-1.978-1.569-1.02-4.408-1.138-6.58.015-2.052-.069-4.125.078-6.164,0,.031,0,.065,0,.1l0,.07a22.275,22.275,0,0,0-.209-4.341c.718-3.891,5.947-2.826,5.9.891.167,4.315-.078,8.649.052,12.969a3,3,0,0,1-4.671,3.059" transform="translate(-2047.003 -1061.376)" fill="#31414a"/>
  </g>
</svg>
