<svg xmlns="http://www.w3.org/2000/svg" width="153.334" height="171.393" viewBox="0 0 153.334 171.393">
  <g id="Group_1143" data-name="Group 1143" transform="translate(0 0.9)">
    <path id="Path_1960" data-name="Path 1960" d="M1889.246,1108.733a4.163,4.163,0,0,0-.723-1.74,4.287,4.287,0,0,0-7.754,3.015,1.867,1.867,0,0,0,.064.244l.059.213a4.25,4.25,0,0,0,1.35,2.181,4.4,4.4,0,0,0,.813.559,4.262,4.262,0,0,0,1.442.433,4.31,4.31,0,0,0,1.114.013l.323-.092a4.245,4.245,0,0,0,2.26-1.32,4.467,4.467,0,0,0,.583-.821,4.685,4.685,0,0,0,.217-.5,4.229,4.229,0,0,0,.263-1.9Z" transform="translate(-1826.748 -1041.816)" fill="#fff"/>
    <path id="Path_1961" data-name="Path 1961" d="M1987.481,1180.892c-.037-.341-.08-.68-.129-1.015-.944-6.608-3.68-12.8-5.982-19.068-5.437-14.808-8.536-30.413-14.435-45.042-2.676-6.638-5.909-13.032-8.725-19.609-2.493-5.824-3.766-12.2-6.867-17.706a35.943,35.943,0,0,0-3.975-6.065c-3.372-3.886-9.448-7.44-14.755-6.992a24.947,24.947,0,0,0-8.784,2.136c-3.93,1.726-7.077,4.707-9.841,7.918-3.252,3.813-6.21,7.857-9.387,11.729-2.027,2.291-3.761,4.822-5.651,7.224-7.679,9.8-14.448,20.328-21.469,30.674q-10.938,16.12-22.016,32.147c-.075.107-.148.213-.223.322-3.135,4.534-6.334,9.182-7.748,14.505s-.712,11.551,3.18,15.462c2.821,2.837,6.845,4.067,10.721,5.082,24.669,6.452,50.167,8.058,75.433,10.694,10.145,1.059,20.438,2.807,30.669,1.826,5.578-.535,11.283-2.388,15.107-6.469,4.335-4.629,5.568-11.423,4.876-17.751m-106.007-16.126a3.931,3.931,0,0,1-.185.419,3.711,3.711,0,0,1-.474.669,3.5,3.5,0,0,1-1.837,1.085c-.1.024-.191.057-.293.073a3.529,3.529,0,0,1-3.891-2.615,3.417,3.417,0,0,1-.094-.382,3.526,3.526,0,0,1,6.982-.989c.008.059,0,.116.007.175a3.524,3.524,0,0,1-.215,1.565m30.827-29.081a8.282,8.282,0,0,1-.4.907,8.107,8.107,0,0,1-1.044,1.482,7.652,7.652,0,0,1-4.047,2.389,4.243,4.243,0,0,1-.64.151,6.785,6.785,0,0,1-1.294.059c-.232-.011-.473-.032-.727-.062a7.477,7.477,0,0,1-4.075-1.792l-.01-.007a7.684,7.684,0,0,1-2.448-3.94,6.245,6.245,0,0,1-.2-.837,7.746,7.746,0,0,1,15.338-2.173l.024.407a7.662,7.662,0,0,1-.476,3.415m11.108,30.731a6.036,6.036,0,0,1-3.738,2.078,6.16,6.16,0,0,1-1.13.054,6.027,6.027,0,1,1,6.251-6.868l.038.269-.011.07a6.055,6.055,0,0,1-1.41,4.4m5.842-68.158a3.751,3.751,0,0,1-1.861-1.051,3.6,3.6,0,0,1-.478-.657,3.512,3.512,0,0,1-.446-2.063,3.22,3.22,0,0,1,.04-.392,3.527,3.527,0,0,1,6.909,1.418c-.013.059-.038.11-.052.169a3.53,3.53,0,0,1-.729,1.4,3.23,3.23,0,0,1-.987.8,3.48,3.48,0,0,1-2.095.4c-.1-.011-.2-.01-.3-.03m4.756,89.378a3.229,3.229,0,0,1-.659,1.089,3.484,3.484,0,0,1-1.839,1.084c-.1.024-.189.059-.291.073a3.763,3.763,0,0,1-2.106-.363,3.71,3.71,0,0,1-.672-.458,3.505,3.505,0,0,1-1.113-1.792,3.036,3.036,0,0,1-.094-.384,3.526,3.526,0,0,1,6.982-.987c.008.059,0,.116.006.175a3.518,3.518,0,0,1-.215,1.563m6.162-64.214a6.031,6.031,0,1,1,1.07.325,6.036,6.036,0,0,1-1.07-.325m7.111,27.177a3.851,3.851,0,0,1-.185.419,3.671,3.671,0,0,1-.474.67,3.486,3.486,0,0,1-1.837,1.084c-.1.024-.191.059-.293.073a3.494,3.494,0,0,1-.92,0,3.557,3.557,0,0,1-1.186-.358,3.649,3.649,0,0,1-.67-.458,3.5,3.5,0,0,1-1.114-1.794,3.327,3.327,0,0,1-.094-.382,3.526,3.526,0,0,1,6.982-.987c.008.059,0,.116.006.175a3.518,3.518,0,0,1-.215,1.563m9.89,36.674a7.745,7.745,0,1,1-2.17-15.336,4.959,4.959,0,0,1,.732-.041l.315,0,1.159.078a7.724,7.724,0,0,1-.037,15.3" transform="translate(-1846.82 -1065.356)" fill="#fff"/>
    <path id="Path_1962" data-name="Path 1962" d="M1917.763,1134.512l-.993-.059-.067.006a1.439,1.439,0,0,0-.248.006,4.4,4.4,0,1,0,1.309.046" transform="translate(-1807.786 -1024.458)" fill="#fff"/>
    <path id="Path_1963" data-name="Path 1963" d="M1895.532,1126.907a2.567,2.567,0,0,0-2.886-2.1,2.613,2.613,0,0,0-2.179,2.9l0,0a2.5,2.5,0,0,0,.3.884,2.564,2.564,0,0,0,4.774-1.592Z" transform="translate(-1821 -1030.181)" fill="#fff"/>
    <path id="Path_1964" data-name="Path 1964" d="M1910.362,1099.8a2.567,2.567,0,0,0-1.538-2.891,2.607,2.607,0,0,0-.46-.139,2.565,2.565,0,1,0-1.032,5.026,2.566,2.566,0,0,0,3.03-2" transform="translate(-1812.217 -1046.794)" fill="#fff"/>
    <path id="Path_1965" data-name="Path 1965" d="M1941.31,1197.517c9.886-.584,20.021-.53,29.668-3.08,5.261-1.39,10.435-4.064,13.455-8.577,3.424-5.116,3.536-11.82,1.875-17.772-.089-.321-.183-.638-.282-.953-1.945-6.181-5.543-11.683-8.735-17.324-7.539-13.331-12.968-27.791-20.924-40.878-3.609-5.938-7.713-11.554-11.446-17.412-3.3-5.186-5.529-11.091-9.367-15.881a34.979,34.979,0,0,0-4.765-5.185c-3.841-3.192-10.221-5.64-15.234-4.375a24.207,24.207,0,0,0-8.081,3.431,27.658,27.658,0,0,0-8.181,9.136c-2.515,4.164-4.712,8.505-7.146,12.714-1.581,2.514-2.845,5.21-4.276,7.81-5.812,10.6-10.64,21.75-15.736,32.767q-7.942,17.166-16.03,34.264l-.162.342c-2.288,4.838-4.621,9.793-5.137,15.116s1.137,11.178,5.481,14.313c3.15,2.272,7.2,2.818,11.072,3.179" transform="translate(-1844.514 -1065.129)" fill="none" stroke="#31414a" stroke-linecap="round" stroke-miterlimit="10" stroke-width="3"/>
    <path id="Path_1966" data-name="Path 1966" d="M1926.717,1108.23a2.254,2.254,0,0,1-.387-2.7c.442-1.447.874-2.9,1.277-4.359a80.485,80.485,0,0,1,2.878-10.919c.6-1.8,1.218-3.6,1.784-5.408a11.529,11.529,0,0,1,.643-2.057,2.266,2.266,0,0,1,4.02,2.069c-1.668,5.231-2.919,10.586-4.554,15.828-.469,1.732-.927,3.472-1.453,5.19a5.247,5.247,0,0,1-1.014,2.33,2.229,2.229,0,0,1-1.6.664,2.268,2.268,0,0,1-1.59-.64" transform="translate(-1799.928 -1055.698)" fill="#31414a"/>
    <path id="Path_1967" data-name="Path 1967" d="M1929.366,1105.161c-1.635-3.343,3.676-4.25,5.709-5.548,4.471-2.348,8.969-4.656,13.569-6.732a2.256,2.256,0,0,1,1.988,3.927c-2.649,1.469-5.5,2.6-8.219,3.967-2.636,1.4-5.247,2.851-7.971,4.077a7.4,7.4,0,0,1-3.321,1.379,1.971,1.971,0,0,1-1.756-1.07" transform="translate(-1798.145 -1049.125)" fill="#31414a"/>
    <path id="Path_1968" data-name="Path 1968" d="M1899.723,1179.384c-1.187-3.977-3.042-7.722-4.16-11.721-.521-1.811-1.041-3.622-1.606-5.419a3.889,3.889,0,0,1-.392-1.48,2.253,2.253,0,0,1,4.313-.882c.962,2.568,1.571,5.258,2.38,7.878,1.108,3.1,2.267,6.181,3.335,9.3a4.024,4.024,0,0,1,.323,1.757,2.143,2.143,0,0,1-2.2,1.882,2.1,2.1,0,0,1-1.993-1.31" transform="translate(-1819.152 -1010.201)" fill="#31414a"/>
    <path id="Path_1969" data-name="Path 1969" d="M1911.755,1162.734c-1.625-.641-3.4-.688-5.048-1.251a29.732,29.732,0,0,1-3.838-.548,20.132,20.132,0,0,1-2.385-.615,5.067,5.067,0,0,1-1.9-.7,2.282,2.282,0,0,1-.431-3.166c1.1-1.412,2.566-.753,3.959-.338a38.881,38.881,0,0,0,6.621,1.157c1.791.439,4.742.657,5.642,2.479a2.224,2.224,0,0,1-2.017,3.074,2.083,2.083,0,0,1-.6-.089" transform="translate(-1816.706 -1011.947)" fill="#31414a"/>
    <path id="Path_1970" data-name="Path 1970" d="M1884.224,1135.638a5.334,5.334,0,0,0-.14,2.374c.21,1.77,1.057,3.875,3.018,4.207,2.1.213,4.484-.205,5.866-1.942,2-2.6.99-8.365-2.69-8.824a5.426,5.426,0,0,0-.616-.037c-2.555,0-4.469,1.92-5.438,4.222m-2.708,7.372a11.148,11.148,0,0,1-.914-9.71,8.743,8.743,0,0,1,3.23-4.448c1.316-.906,3.007-2.334,4.661-1.452,9.516-1.463,13.076,12.6,5.589,17.366a10.677,10.677,0,0,1-5.4,1.613c-.25.024-.5.035-.753.035a7.459,7.459,0,0,1-6.412-3.4" transform="translate(-1827.252 -1028.797)" fill="#31414a"/>
    <path id="Path_1971" data-name="Path 1971" d="M1864.947,1164.305c.829-1.8,1.554-3.642,2.366-5.449,1.239-2.784,2.644-5.487,3.84-8.292.339-.718.721-1.414,1.057-2.136.385-.952.739-2.078,1.837-2.4a3.215,3.215,0,0,1,2.3.384c1.867.118,5.044-1.773,4.339-3.943-.629-3.2-3.349-2.6-3.26-5.164a6.278,6.278,0,0,1,1.2-2.439c.659-.965,1.288-1.944,1.977-2.885,2.068-2.713,3.937-5.567,6.022-8.263.922-1,1.786-3.384,3.408-3.069a.744.744,0,0,1,.482.665,14.517,14.517,0,0,1-1.129,3.448,22.5,22.5,0,0,1-1.74,3.5c-1.63,3.047-3.728,5.793-5.543,8.724,2.187,2.023,3.566,5.629,2.34,8.485a9,9,0,0,1-8.65,5.04c-1.369,2.6-2.45,5.344-3.8,7.963,1.259-.982,2.254-2.254,3.582-3.142,2.632-2.288,5.284-4.558,7.869-6.9,1.845-1.611,3.542-3.357,5.473-4.86a2.97,2.97,0,0,1,1.17-.812,2.088,2.088,0,0,1,2.47,2.948,4.337,4.337,0,0,1-1.1,1.165c-2.127,1.608-3.967,3.529-5.976,5.271-1.218,1.2-2.614,2.192-3.848,3.364-1.382,1.179-2.679,2.456-4.158,3.513-1.417,1.364-2.913,2.644-4.317,4.024-1.525,1.364-3.184,2.548-4.814,3.776a2.189,2.189,0,0,1-1.428.541,2.136,2.136,0,0,1-1.966-3.05" transform="translate(-1836.218 -1032.648)" fill="#31414a"/>
    <path id="Path_1972" data-name="Path 1972" d="M1874.024,1137.1c2.56-4.25,4.712-8.787,7.525-12.845.584-.85,1.275-1.625,1.683-2.276a2.678,2.678,0,0,1,1.581-1.39c1.347-.6,2.818-.826,4.207-1.3,2.932-1.03,3.636.876,4.195,3.314.877,1.259,3.723,2.225,4.982,1.1a11.787,11.787,0,0,0,2.768-3.174c.454-.562.638-1.261,1.108-1.808a2.291,2.291,0,0,1,1.506-.705,2.233,2.233,0,0,1,1.031.2c.812.218,1.633.395,2.458.541,1.594.239,3.225.245,4.793.579a2.364,2.364,0,0,1,1.636,2.372,3.734,3.734,0,0,1-1.133,2.073,10.783,10.783,0,0,1-1.442,1.5c-3.133,2.835-6.433,5.483-9.524,8.373-.783.778-1.616,1.506-2.42,2.267a3.528,3.528,0,0,1-1.777,1.207,2.08,2.08,0,0,1-2.031-3.251,36.2,36.2,0,0,1,2.663-2.506c3.072-2.942,6.358-5.642,9.567-8.424-.264-.025-.527-.052-.788-.094-.666-.1-1.339-.207-2-.366-1.514,2.327-3.418,4.749-6.146,5.638-3.372.782-8.289-1-9.284-4.567a19.68,19.68,0,0,0-2.624.778c-.793,1-1.568,1.859-2.343,2.818-1.345,1.808-2.947,3.383-4.445,5.059a39.01,39.01,0,0,0-4,4.336,5.825,5.825,0,0,0-.745,1.083.522.522,0,0,1-.474.3.569.569,0,0,1-.535-.834" transform="translate(-1830.762 -1034.187)" fill="#31414a"/>
    <path id="Path_1973" data-name="Path 1973" d="M1897.083,1165.082c-.417-.67-1.016-1.2-1.428-1.872a8.779,8.779,0,0,1-.977-5.992c.674-3.007,3.54-5.685,6.414-6.629,2.447-.692,4.916.409,6.944,1.724,2.09-2.316,4.828-3.967,6.7-6.5a3.607,3.607,0,0,0,.961-3.668,17.892,17.892,0,0,0-2.127-2.541c-1.052-1.083-2.2-2.063-3.241-3.166-1.146-1.216-2.189-2.525-3.345-3.728-1.038-1.106-1.985-2.23-2.943-3.4-.8-1.07-1.437-2.248-2.246-3.313-.941-1.485-4.059-3.889-3.757-5.6A1.442,1.442,0,0,1,1900,1119.4a10.791,10.791,0,0,1,2.232,1.866,20.243,20.243,0,0,1,3.26,3.4,28.992,28.992,0,0,0,2.525,3.248c1.2,1.407,2.2,2.356,3.372,3.657a35.79,35.79,0,0,0,3.655,3.814c.617.568,1.21,1.159,1.775,1.746a12.706,12.706,0,0,1,2.77,3.583c1.5,4.575-1.205,7.557-4.282,10.556-1,.944-2.114,1.762-3.115,2.7a13.721,13.721,0,0,1-2.665,2.42c-2.1.982-3.291-.511-5.021-1.323a3.069,3.069,0,0,0-2.517-.433,6.957,6.957,0,0,0-2.908,2.555,3.882,3.882,0,0,0,.551,4.392,11.24,11.24,0,0,1,1.2,1.678,2.1,2.1,0,0,1-.992,2.773,2.044,2.044,0,0,1-.874.2,2.124,2.124,0,0,1-1.881-1.149" transform="translate(-1818.582 -1033.436)" fill="#31414a"/>
    <path id="Path_1974" data-name="Path 1974" d="M1882,1164.914c-1.289-1.116-2.526-2.291-3.812-3.411-.855-.839-2.065-1.74-1.714-3.1a2.114,2.114,0,0,1,1.141-1.42,4.609,4.609,0,0,0,.92-1.393,2.362,2.362,0,0,0-2.617-3.5,10.6,10.6,0,0,0-4.093,2.6c-.339.315-.6.694-.933,1.014a2.2,2.2,0,0,1-2.921-.027,14.4,14.4,0,0,1-2.867-3.989c-.123-.36-.331-.65-.467-1.011a2.083,2.083,0,0,1,3.735-1.767c.447.708.7,1.584,1.2,2.23,2.488-2.173,5.982-4.2,9.33-2.84a6.8,6.8,0,0,1,3.919,4.4,7.594,7.594,0,0,1-1.4,6.154c2.606,2.117,4.8,4.97,7.859,6.4,1.74.817,3.927-.064,5.5-.9,3.614-1.92,6.584-4.761,9.677-7.394,2.429-1.906,4.93-3.725,7.213-5.812a33.22,33.22,0,0,1,2.891-2.98,4.933,4.933,0,0,1,2.264-1.445,1.4,1.4,0,0,1,1.6.886c.345,1.46-1.264,2.659-2.033,3.728a18.147,18.147,0,0,1-3.8,4.206c-2.222,2.041-4.718,3.738-6.952,5.76a49.5,49.5,0,0,1-7.846,6.063,13.449,13.449,0,0,1-6.9,2.332c-3.09,0-5.833-1.668-8.889-4.779" transform="translate(-1836.339 -1017.209)" fill="#31414a"/>
    <path id="Path_1975" data-name="Path 1975" d="M1885.777,1147.708a10.962,10.962,0,0,0-3.206,1.309,4.769,4.769,0,0,0-.486,5.132c1.707,3.064,6.231,2.682,8.652.7,3.1-3.3.2-7.323-3.58-7.324a5.362,5.362,0,0,0-1.38.181m-.018,12.8a8.766,8.766,0,0,1-6.952-3.849,8.063,8.063,0,0,1-1.216-5.788,5.034,5.034,0,0,1,.575-3.092c.675-1.429,2.106-2.227,3.427-2.978a6.773,6.773,0,0,1,2.442-.893,9.955,9.955,0,0,1,4.774-.355c7.062,1.172,9.949,9.531,4.532,14.486a11.522,11.522,0,0,1-7.077,2.48c-.169,0-.336,0-.5-.011" transform="translate(-1828.684 -1019.158)" fill="#31414a"/>
    <path id="Path_1976" data-name="Path 1976" d="M1900.73,1132.288c-.971.433-1.266,1.56-2.085,2.194-.61,2.385,2.69,2.784,4.021,1.469,1.468-1.3.667-3.871-1.055-3.871a2.118,2.118,0,0,0-.88.208m-1.854,8.294a5.727,5.727,0,0,1-3.894-3.333c-1.423-3.6,1.211-7.7,4.626-9a6.116,6.116,0,0,1,5.035.546c4.053,2.408,3.795,8.719-.268,10.989a6.5,6.5,0,0,1-3.61.995,9.648,9.648,0,0,1-1.89-.194" transform="translate(-1818.547 -1028.324)" fill="#31414a"/>
  </g>
</svg>
