<svg xmlns="http://www.w3.org/2000/svg" width="86.193" height="153.384" viewBox="0 0 86.193 153.384">
  <g id="Group_1129" data-name="Group 1129" transform="translate(-3605.035 -1205.522)">
    <path id="Path_1758" data-name="Path 1758" d="M850.922,1240.2a1.76,1.76,0,0,0,.489.071,1.774,1.774,0,0,0,1.673-1.171l-.033.091a10.823,10.823,0,0,1,.643-1.37l-.006.006.011-.015.008-.013v0h0v0h0v0l0,0v0l.019-.031,0-.009,0,0,.005-.009.015-.028h0v0l0,0,0,0,0,0,0,0,0-.008,0,0,.011-.021,0,.011.011-.022,0,0,.013-.02a10.606,10.606,0,0,1,.844-1.253c.154-.178.312-.355.474-.524.162-.148.323-.292.487-.437.325-.288.656-.574.987-.855a27.579,27.579,0,0,1,4.219-2.691,17.3,17.3,0,0,1,2.176-.846q1.1-.335,2.2-.689c.491-.149.983-.264,1.483-.364.535-.087,1.07-.173,1.608-.234.128.006.255.007.383.009a2,2,0,0,0,1.221-.357,1.8,1.8,0,0,0-.583-3.187,2.943,2.943,0,0,0-1.02-.054l-.206.022-.015,0c-.273-.011-.546-.022-.819-.008a11.194,11.194,0,0,0-2.832.405c-.885.279-1.767.556-2.63.9s-1.71.684-2.531,1.1l0,0-.019.01-.015.009-.164.084.047-.022q-.613.323-1.2.688c-.275.173-.546.353-.81.544-.7.437-1.381.911-2.046,1.4a18.143,18.143,0,0,0-2.457,2.068,12.444,12.444,0,0,0-.994,1.147,13.746,13.746,0,0,0-.79,1.217,15.174,15.174,0,0,0-.782,1.505c-.048.1-.093.208-.137.312-.019.043-.035.089-.056.132-.035.093-.073.188-.1.282l-.009.03v0a1.8,1.8,0,0,0,1.223,2.206m8.586,68.674a1.8,1.8,0,0,0,1.093,2.273c.11.041.223.071.333.1.615.2,1.227.4,1.851.569a14.673,14.673,0,0,0,1.494.34c.394.063.792.117,1.189.178.489.08.978.167,1.472.212.336.032.675.046,1.013.046.271,0,.543-.009.814-.033a9.708,9.708,0,0,0,3.325-.95,12.4,12.4,0,0,0,3.12-2.08c.409-.375.8-.768,1.176-1.173a10.882,10.882,0,0,0,1.165-1.513c.048-.059.1-.119.143-.182a3.008,3.008,0,0,0,.656-1.134,1.939,1.939,0,0,0,0-.907,1.775,1.775,0,0,0-2.176-1.258,2.046,2.046,0,0,0-1.024.718c-.054.067-.108.137-.158.206-.16.223-.31.454-.459.684-.054.067-.11.137-.167.206-.292.342-.6.667-.918.983-.372.334-.768.643-1.165.946-.288.208-.585.4-.892.584-.247.132-.494.253-.749.366-.637.266-1.282.511-1.938.727-.294.087-.585.166-.879.238-.156,0-.312-.005-.468-.013-.531-.056-1.054-.154-1.58-.236-.424-.063-.849-.117-1.267-.2q-.917-.209-1.816-.494c-.269-.091-.539-.18-.81-.262l-.1-.035a1.692,1.692,0,0,0-.576-.1,1.815,1.815,0,0,0-1.7,1.195m13.262,10.666c-6.473-2.492-13.273-4.2-19.735-6.754-9.234-3.2-18.289-6.283-27.27-10.2-2.262-.989-4.5-2.017-6.711-3.115-.121-.065-.242-.126-.366-.188-.091.069-.186.135-.286.2-1.818,1.074-3.524-.511-3.438-2.477.223-2.65,1.435-5.124,2.5-7.532,1.784-3.7,3.34-7.516,5.248-11.158,3.273-5.512,5.506-11.535,8.441-17.22,3.951-7.5,7.755-15.066,11.569-22.634,1.582-2.745,3.431-5.348,5.139-8.017a30.4,30.4,0,0,1,7.307-7.006c2.843-1.719,5.763-3.52,9.093-4.059a29.069,29.069,0,0,1,20.067,1.968,25.784,25.784,0,0,1,8.047,6.239,17.584,17.584,0,0,1,4.5,5.7,15.42,15.42,0,0,1,2.552,6.135,55.41,55.41,0,0,1,1.727,9.073,88.878,88.878,0,0,1-1.178,13.961,159.183,159.183,0,0,1-6.335,18c-1.046,2.745-2.481,5.306-3.689,7.978-2.128,4.642-4.1,9.335-5.873,14.014-1.225,3.453-2.637,6.841-3.711,10.349-.533,1.414-.981,2.858-1.431,4.3a3.642,3.642,0,0,1-.461,1.464c-.019.059-.037.119-.058.178a3.419,3.419,0,0,1-3.126,1.9,3.319,3.319,0,0,1-2.522-1.1" transform="translate(2790.075 11.088)" fill="#fff"/>
    <path id="Path_1759" data-name="Path 1759" d="M885,1257.21a74.68,74.68,0,0,0-7.09-2.488q-7.008-2.754-14.039-5.468c-8.259-2.91-16.285-6.423-24.488-9.476-2.039-.727-4.031-1.561-6.045-2.353-2.056-.965-6.934-1.808-5.2-5,1.208-1.648,3.386-.661,4.973-.223,1.409.429,2.795.92,4.179,1.412,5.4,1.879,10.7,3.979,15.994,6.131,9.067,3.408,18.114,6.874,27.163,10.324,1.485.478,3.516,1.15,4.856,1.553a5.3,5.3,0,0,1,2.615,1.342A2.683,2.683,0,0,1,885,1257.21" transform="translate(2801.074 22.303)" fill="#31414a"/>
    <path id="Path_1760" data-name="Path 1760" d="M820.014,1273.693a2.6,2.6,0,0,1-.6-4.055c.777-.874,2.048-.838,3.061-1.266,1.266-.478,2.509-1,3.774-1.477,4.943-1.749,10.115-3.472,15.023-5.191,7.043-2.767,14.191-4.973,21.394-7.244,5.592-1.766,11.141-3.685,16.755-5.38a52.15,52.15,0,0,1,8.885-2.373c1.08-.149,2.068.481,1.108,1.624a7.336,7.336,0,0,1-1.71,1.327c-12.752,6.77-26.856,10.318-40.374,15.2-6.176,2.386-12.42,4.419-18.647,6.646-1.606.6-3.174,1.288-4.784,1.877-1.243.4-2.648,1.057-3.888.31" transform="translate(2793.284 35.333)" fill="#31414a"/>
    <path id="Path_1761" data-name="Path 1761" d="M845.938,1223.505a2.661,2.661,0,1,1,2.735,2.585,2.682,2.682,0,0,1-2.735-2.585" transform="translate(2816.666 13.087)" fill="#31414a"/>
    <path id="Path_1762" data-name="Path 1762" d="M850.846,1225.109a2.661,2.661,0,1,1,2.736,2.585,2.682,2.682,0,0,1-2.736-2.585" transform="translate(2820.879 14.464)" fill="#31414a"/>
    <path id="Path_1763" data-name="Path 1763" d="M846.669,1228.146a2.661,2.661,0,1,1,2.736,2.585,2.681,2.681,0,0,1-2.736-2.585" transform="translate(2817.293 17.07)" fill="#31414a"/>
    <path id="Path_1764" data-name="Path 1764" d="M830.127,1265.364a2.6,2.6,0,1,1,.4-5.176c4.334-.37,8.807-.212,13.195-.21,3.977.115,7.947-.184,11.92-.13l0,0a2.606,2.606,0,0,1,.931,5.113,33.833,33.833,0,0,1-4.8.061c-1.385.082-2.763.151-4.152.156-5.834-.031-11.68-.1-17.493.184" transform="translate(2800.912 46.617)" fill="#31414a"/>
    <path id="Path_1765" data-name="Path 1765" d="M830.8,1226.133a2.627,2.627,0,0,1-1.431-3.637c.314-.625.615-1.256.961-1.864a15.986,15.986,0,0,1,5.324-5.269,21.272,21.272,0,0,1,10.68-3.6c1.706-.177,3.275.55,4.886.916a.725.725,0,1,1-.3,1.418,3.172,3.172,0,0,0-1.951.039c-1.559.453-3.024,1.175-4.536,1.762a23.367,23.367,0,0,0-8.8,5.988c-1.567,1.777-1.6,5.153-4.832,4.247" transform="translate(2802.203 5.333)" fill="#31414a"/>
    <path id="Path_1766" data-name="Path 1766" d="M830.37,1225.126a.867.867,0,0,0,0-.3,9.313,9.313,0,0,1-.19-3.472c1.05-3.706,4.429-6.328,7.761-7.956,3.68-1.505,8.138-2.618,12.048-1.507a2.618,2.618,0,0,1,.732,4.059c-.948,1.141-2.429.888-3.719.708a19.893,19.893,0,0,0-8.229,1.807c-2.749,1.565-5.731,3.334-7.309,6.155a5.159,5.159,0,0,0-.364.663.33.33,0,0,1-.346.284.356.356,0,0,1-.381-.439" transform="translate(2803.046 5.077)" fill="#31414a"/>
    <path id="Path_1767" data-name="Path 1767" d="M825.481,1225.333c-.946-1.026-.619-2.464-.336-3.676a19.437,19.437,0,0,1,7.952-12.011,26.79,26.79,0,0,1,15.962-4.064,2.642,2.642,0,0,1,1.511,4.615c-1.191,1.082-2.8.362-4.206.492-2.672.513-5.848.677-8.155,2.173-2.968,2.141-5.783,4.707-7.17,8.177a30.015,30.015,0,0,0-1.089,3.479,2.645,2.645,0,0,1-4.47.816" transform="translate(2798.566 -0.001)" fill="#31414a"/>
    <path id="Path_1768" data-name="Path 1768" d="M850.757,1286.53a25.185,25.185,0,0,1-5.222-.938c-2.264-.7-4.213-2.682-2.416-4.951a2.646,2.646,0,0,1,3.453-.392,3.968,3.968,0,0,0,1.125.533,22.234,22.234,0,0,0,7.712.126,10.681,10.681,0,0,0,5.267-4.52,2.632,2.632,0,0,1,4.758,1.336c-.2,3.313-3.427,5.364-6.008,6.921a13.316,13.316,0,0,1-2.42,1.256,15.827,15.827,0,0,1-2.715.362,27.14,27.14,0,0,1-3.533.266" transform="translate(2813.643 59.893)" fill="#31414a"/>
    <path id="Path_1769" data-name="Path 1769" d="M853.113,1293.2a25.762,25.762,0,0,1-6.174-1.288c-2.869-1.422-5.557-4.2-5.748-7.532.2-3.037,4.651-3.234,5.23-.286,3.051,2.474,7.244,4.323,11.152,3.3.836-.188,1.567-.745,2.455-.66a2.613,2.613,0,0,1,1.227,4.767l.005.006a13.847,13.847,0,0,1-8.147,1.7" transform="translate(2812.591 65.642)" fill="#31414a"/>
  </g>
</svg>
