<svg xmlns="http://www.w3.org/2000/svg" width="168.221" height="126.923" viewBox="0 0 168.221 126.923">
  <g id="Group_1144" data-name="Group 1144" transform="translate(-3598.386 -827.028)">
    <path id="Path_1716" data-name="Path 1716" d="M876.818,856.21a.855.855,0,0,0,.513,1.49.883.883,0,0,0,.623-.217.852.852,0,0,0-.512-1.487.9.9,0,0,0-.625.214m-8.954,3.9a1.006,1.006,0,1,0,.962-1.048,1.021,1.021,0,0,0-.962,1.048m1.657,9.68a1.35,1.35,0,1,0,1.353-1.349,1.365,1.365,0,0,0-1.353,1.349m-1.45,8.612a1.35,1.35,0,1,0,1.292-1.407,1.355,1.355,0,0,0-1.292,1.407m-5.61,1.3a1.351,1.351,0,1,0,1.373-1.329,1.361,1.361,0,0,0-1.373,1.329m.075,12.288c.141,0,.283,0,.423-.008a16,16,0,0,0,2.832-.381,17.808,17.808,0,0,0,2.415-.71c.786-.286,1.574-.575,2.335-.924a16.129,16.129,0,0,0,2.59-1.445,27.418,27.418,0,0,0,2.327-1.865,11.374,11.374,0,0,0,1.034-.983,9.218,9.218,0,0,0,.845-1.09,8.9,8.9,0,0,0,.745-1.327,2.277,2.277,0,0,0,.214-.641,1.162,1.162,0,0,0-.29-.986,1.1,1.1,0,0,0-.886-.318,1.153,1.153,0,0,0-.446.148,2.33,2.33,0,0,0-.722.751c-.277.4-.552.8-.854,1.177a8.756,8.756,0,0,1-.8.83l-.068.062q-.494.422-1,.838h0l-.022.02-.007.006-.075.061.018-.016-.021.017,0,0-.006,0v0l-.005,0-.069.058,0,0c-.051.042-.1.083-.153.124l.018-.016-.018.016-.01.007a17.508,17.508,0,0,1-2.263,1.531c-.5.271-1.014.522-1.542.747-.55.233-1.113.44-1.673.646.053-.021.108-.039.162-.059-.1.037-.194.072-.291.107a19.9,19.9,0,0,1-2.362.657h0l0,0h0l-.02,0h0l-.034.006-.014,0-.021,0h-.02a15.489,15.489,0,0,1-1.991.233c-.764,0-1.526-.059-2.287-.107-.338-.025-.672-.055-1.007-.094-.425-.066-.844-.157-1.262-.249h0a1.41,1.41,0,0,0-.314-.134,1.363,1.363,0,0,0-1.525.613,1.393,1.393,0,0,0,.16,1.616,1.664,1.664,0,0,0,.817.473c.566.138,1.141.263,1.716.345l-.065-.007c.03,0,.059.007.087.013a.19.19,0,0,1,.039.005h0c.336.041.672.072,1.011.1h-.011c.1.007.2.011.3.021l-.028,0c.7.055,1.407.111,2.113.111m6.091,33.262a1.333,1.333,0,0,0-.172,1.87,1.4,1.4,0,0,0,.782.473c.086.011.173.025.259.034l.228.028c.284.034.566.059.851.073q1,.055,2.006.054h.324c.757-.008,1.5-.082,2.258-.153.362-.032.724-.063,1.083-.125.443-.073.882-.174,1.318-.286.784-.2,1.569-.411,2.335-.671a16.87,16.87,0,0,0,2.21-.972c.743-.38,1.471-.781,2.176-1.223.159-.1.314-.2.467-.3.481-.245.954-.5,1.424-.765.324-.184.648-.367.965-.567a10.364,10.364,0,0,0,1.006-.737l-.008.008a.456.456,0,0,1,.041-.034l-.021.017a9.452,9.452,0,0,0,.768-.695c.255-.257.5-.528.751-.785.179-.179.362-.357.529-.543.152-.167.3-.342.448-.512s.287-.322.422-.491c.174-.219.338-.445.506-.667a6.378,6.378,0,0,0,.826-1.075c.1-.191.187-.4.3-.58l-.07.117a1.456,1.456,0,0,0,.229-1.019,1.333,1.333,0,0,0-.861-1.027,1.373,1.373,0,0,0-1.03.042,1.452,1.452,0,0,0-.657.626c-.049.084-.09.172-.134.256-.058.114-.111.228-.17.34a.139.139,0,0,0-.021.03c-.117.135-.239.267-.353.407-.193.228-.366.473-.546.71-.632.791-1.345,1.509-2.041,2.242-.2.2-.415.39-.634.575s-.452.348-.687.509c-.644.4-1.308.776-1.979,1.135l.008,0,.017-.011,0,0,.008-.005.006,0h0l.006,0h0c.032-.016.068-.034.1-.048-.032.017-.066.032-.1.048l.025-.011c-.611.315-1.228.618-1.861.886-.5.193-1,.367-1.5.546-.535.19-1.066.381-1.6.557l-.027.007.027-.007c.025-.008.051-.017.079-.024-.222.069-.442.141-.667.2-.7.2-1.41.373-2.12.533-.692.158-1.39.294-2.078.473-.36.091-.716.193-1.078.279l-.506.121c-.318,0-.635-.011-.951-.018h0c-.446-.018-.893-.041-1.338-.089l-.422-.053a2.084,2.084,0,0,0-.225-.014,1.441,1.441,0,0,0-.926.319m4.527,6.8a1.34,1.34,0,0,0-.447.931,1.356,1.356,0,0,0,1.275,1.422,1.4,1.4,0,0,0,.974-.343,1.337,1.337,0,0,0,.447-.93,1.355,1.355,0,0,0-1.273-1.422,1.4,1.4,0,0,0-.975.342m23.434,2.729a1.271,1.271,0,1,0,1.251-1.29,1.285,1.285,0,0,0-1.251,1.29m-13.093.754a1.351,1.351,0,1,0,1.363-1.337,1.361,1.361,0,0,0-1.363,1.337m20.414,1.29a1.214,1.214,0,1,0,1.263-1.165,1.222,1.222,0,0,0-1.263,1.165m-53.171-.7a.549.549,0,0,0-.357.345.911.911,0,0,0,.03.7,2.147,2.147,0,0,0,.453.629,3.584,3.584,0,0,0,.575.484,7.563,7.563,0,0,0,1.224.594,9.126,9.126,0,0,0,1.294.48,9.359,9.359,0,0,0,2.41.315h.145a8.539,8.539,0,0,0,2.562-.49,9.382,9.382,0,0,0,1.376-.556,7.34,7.34,0,0,0,1-.632A18.693,18.693,0,0,0,863,936.656a1.864,1.864,0,0,0,.153-.143,1.565,1.565,0,0,0,.284-.442,1.33,1.33,0,0,0-1.269-1.847,1.409,1.409,0,0,0-.881.348c-.066.058-.131.118-.2.18-.378.352-.755.7-1.159,1.023-.16.121-.325.235-.492.348-.094.055-.188.11-.286.163-.319.148-.646.276-.976.394s-.64.2-.968.273c-.246.045-.492.082-.74.1a9.254,9.254,0,0,1-.926,0c-.4-.03-.8-.087-1.2-.156-.3-.069-.588-.152-.885-.224s-.571-.113-.857-.169a7.861,7.861,0,0,1-.843-.248,2.463,2.463,0,0,0-.834-.156h.023a1.027,1.027,0,0,0-.207.024m38.073,2.448a1.351,1.351,0,1,0,1.3-1.4,1.37,1.37,0,0,0-1.3,1.4m-17.094.4a1.351,1.351,0,1,0,1.314-1.386,1.367,1.367,0,0,0-1.314,1.386m-58.791,5.79c-.366-2.192.644-4.273,1.7-6.121,2.193-3.684,3.587-7.885,6.428-11.15a9.912,9.912,0,0,1,.744-.809c.074-.136.153-.27.236-.4a1.265,1.265,0,0,1,1.024-1.187,3.069,3.069,0,0,1,1.8.553c.691.359,1.386.7,2.095,1.024a50.119,50.119,0,0,0,19.815,4.41,53.687,53.687,0,0,0,18.4-3.269,26.691,26.691,0,0,1-4.333.191,74.8,74.8,0,0,1-14.992-1.85,37.7,37.7,0,0,1-11.306-4.223,49.076,49.076,0,0,1-7.837-5.406,61.623,61.623,0,0,1-8.12-7.621c-.228-.253-.6-.592-.3-.933a.441.441,0,0,1,.618-.032c.211.241.423.505.637.77,2.545,1.788,4.853,3.894,7.265,5.861.425.312.851.623,1.281.927l.782.473a59.843,59.843,0,0,0,10.754,5,50.968,50.968,0,0,0,12.526,3.348c2.8.315,5.581.665,8.382.923a10.944,10.944,0,0,0,1.161.1,71.567,71.567,0,0,1-10.551-3.939,53.888,53.888,0,0,1-10.392-7.052c-1.426-1.162-2.771-2.46-4.122-3.708-.518-.286-1.026-.587-1.529-.9a.577.577,0,0,1,.595-.986c.736.342,1.458.71,2.2,1.048a57.419,57.419,0,0,0,6.643,2.325c1.252.252,2.521.4,3.784.573a52.073,52.073,0,0,0,8.045.937,35.471,35.471,0,0,1-10.8-5.029c-.062-.038-.124-.077-.186-.114a38.12,38.12,0,0,1-4.884-2.68c-.8-.532-1.58-1.1-2.361-1.669a.511.511,0,0,1,.584-.838c.632.384,1.259.776,1.888,1.166q1.5.848,3.067,1.554a38.913,38.913,0,0,0,9.9,2.847,23.945,23.945,0,0,0,8.13-.4c4.061-.6,7.818-2.311,11.512-4.022a35.627,35.627,0,0,0,4.63-2.392,34.042,34.042,0,0,1-7.958.677c-5.4-.779-11-1.919-15.6-4.987a22.167,22.167,0,0,1-5.695-6.149,33.542,33.542,0,0,1-4.454-10.153c-.332-1.438.329-1.971,1.034-3.063.9-1.628,1.384-3.447,2.123-5.15,3.3-7.66,6.467-15.379,10.2-22.842,2.354-4.872,4.409-9.924,7.244-14.541,1.83-2.8,5.218-4.869,8.292-2.563a24.337,24.337,0,0,1,6.208,6.058,20.5,20.5,0,0,1,2.458,3.13,18.768,18.768,0,0,1,1.494,2.113,67.824,67.824,0,0,1,4.395,6.8,44.38,44.38,0,0,1,4.648,9.385,1.942,1.942,0,0,1,.516,3.012,2.978,2.978,0,0,1-.9.654,14.183,14.183,0,0,0-4.215,3.61c-3.058,4.008-1.922,9.454-3.828,13.926a28.482,28.482,0,0,1-2.722,5,30.254,30.254,0,0,1-5.112,5.251,14.077,14.077,0,0,1-4.607,2.627c1.071.219,2.134.461,3.208.665a13.448,13.448,0,0,0,7.822-1.573c3.9-2.32,6.491-6.36,8.04-10.523,1.407-2.638,1.943-5.592,3.06-8.346a30.85,30.85,0,0,1,3.343-6.214c3.994-5.163,10.184-8.9,16.775-9.238a19.238,19.238,0,0,1,5.153.263,42.131,42.131,0,0,1,7.773,1.486,23.277,23.277,0,0,1,6.851,3.087,29.242,29.242,0,0,1,2.988,2.176c.374.317.951.741.594,1.283a.649.649,0,0,1-.592.283.124.124,0,0,1-.093,0c-3.521.656-7.151.436-10.672,1.135a35.563,35.563,0,0,0-11.3,4.412,47.312,47.312,0,0,0-9.71,8.093c-6.953,7.194-11.729,16.2-18.9,23.2-3.736,3.753-7.834,7.289-12.8,9.279a48.923,48.923,0,0,1-5.066,1.705,37.005,37.005,0,0,1-11.914,2.09c3.869,1.618,7.376,1.853,11.676,1.563a41.289,41.289,0,0,0,17.291-4.82c1.563-1.024,3.392-2.2,4.852-3.295a47.823,47.823,0,0,0,8.551-8.494c1.663-1.916,3.354-3.8,4.9-5.816,1.155-1.586,2.188-3.26,3.445-4.769a64.135,64.135,0,0,1,4.123-4.994,32.823,32.823,0,0,1,3.624-3.382c1.095-1.28,2.245-2.513,3.4-3.742,1.265-1.241,2.709-2.272,4.046-3.43a23.3,23.3,0,0,1,7.473-4.247h0a.194.194,0,0,0,.062-.011q.521-.152,1.038-.318l.753-.238h.006l.245-.073h.008l0,0c.274-.077.55-.152.827-.228l-.005,0c.418-.1.837-.2,1.256-.305h0c.308-.072.619-.145.924-.224.333-.087.665-.186,1-.279.124-.034.248-.069.373-.1.354-.065.708-.142,1.061-.217.2-.038.39-.07.587-.1.047-.006.093-.013.139-.016.065-.01.131-.018.2-.025l.132-.016.2-.03.273-.044.364-.058c.148-.018.3-.038.445-.048.231-.014.46-.018.688-.018a10.863,10.863,0,0,0,1.175-.017c.058-.007.114-.016.169-.024a.5.5,0,0,0,.36-.284,41.95,41.95,0,0,1,16.875,3.945c5.63,2.812,11.218,7.855,13.9,13.882a26.232,26.232,0,0,1,1.864,5.467c.589,1.976.385,4.035.463,6.066a24.932,24.932,0,0,1-1.072,7.951,25.343,25.343,0,0,1-13.379,14.934,24.889,24.889,0,0,1-6.219,2.071,30.266,30.266,0,0,1-6.694.807,20.833,20.833,0,0,1-14.9-7.169,10.175,10.175,0,0,1-2.432-3,1.624,1.624,0,0,1-.2-.7c-.079-.062-.155-.124-.232-.188a.477.477,0,0,1,.509-.8,8.9,8.9,0,0,0,1.642.791,25.164,25.164,0,0,0,4.746.667,11.367,11.367,0,0,0,8.02-3.293c1.618-1.728,2.3-3.506,1.515-5.83-.414-1.974-2.127-3.683-3.454-4.931-1.31-1.421-3.193-1.9-5-2.369-5.214-.824-11.115-.392-15.4,2.978-2.6,2.21-4.868,4.769-7.342,7.109a91.687,91.687,0,0,1-9.326,8.1,61.708,61.708,0,0,1-7.6,4.493,37.732,37.732,0,0,1-6.287,2.321,73.321,73.321,0,0,0,7.88-.167,29.7,29.7,0,0,0,9.127-2.607,52.42,52.42,0,0,0,4.725-2.69,1.9,1.9,0,0,1,2.214-.075,1.765,1.765,0,0,1,1.085.19,2.315,2.315,0,0,1,1.041,1.325c.414.9.754,1.84,1.075,2.78,1.308,2.112,2.427,4.337,3.576,6.543,1.2,1.853,2.241,3.839,3.307,5.765.938,1.78,2.136,3.478,2.566,5.471a7.8,7.8,0,0,1-2.79,7.563c-5.3,4.178-14.133,3.23-20.549,2.937-3.309-.159-6.623-.152-9.933-.315-2.532-.191-5.056.113-7.587.113-8.148.535-16.3,1.073-24.46,1.376-1.553.038-3.1.006-4.656-.027-1.574-.031-3.148-.063-4.723-.022-1.531.021-3.056.191-4.586.177-.806-.031-1.616-.025-2.428-.02-.9.008-1.8.014-2.7-.032a2.309,2.309,0,0,1-.733.013c-.7-.028-1.242-.024-1.816-.021-.3,0-.606,0-.948,0-1.781-.006-3.541-.37-5.32-.366-4.357.315-8.7.475-13.034.578-4.374-.055-8.711-2.216-8.954-7.047" transform="translate(2791.921 2.139)" fill="#fff"/>
    <path id="Path_1717" data-name="Path 1717" d="M861.922,859.085h.024a31.183,31.183,0,0,1-4.972-.776c-3.071-.459-6.1-1.12-9.151-1.72a107.074,107.074,0,0,0-11.955-2.387c-1.391-.244-2.957-.424-4.3-.667-1.469-.151-2.792-.678-2.656-2.39a1.992,1.992,0,0,1,1.711-1.722c1.135-.014,1.934.36,3.015.436,3.238.54,6.5.961,9.71,1.677,3.139.723,6.27,1.462,9.426,2.109a71.465,71.465,0,0,1,8.745,2.022,9.965,9.965,0,0,1,2,.913,1.365,1.365,0,0,1,.354,1.9,1.842,1.842,0,0,1-1.56.616c-.128,0-.259-.005-.385-.013" transform="translate(2798.449 9.109)" fill="#31414a"/>
    <path id="Path_1718" data-name="Path 1718" d="M862.479,862.771a1.656,1.656,0,0,1-.874-.362,1.771,1.771,0,0,1-.653-1.026c-.73-.281-1.473-.5-2.217-.733a9.733,9.733,0,0,0-2.062-.625.3.3,0,1,1,.037-.594,42.424,42.424,0,0,0,4.251.556c1.507-4.485-.962-7.751-4.247-10.547a16.774,16.774,0,0,0-12.263-3.86c-3.056.218-5.849,1.881-8.2,3.741a19.312,19.312,0,0,0-3.223,4.216c-.416.72-.49,1.612-1.051,2.242a2.015,2.015,0,0,1-3.413-1.134,2.486,2.486,0,0,1,.286-1.424,16.569,16.569,0,0,1,2.037-3.682,17.676,17.676,0,0,1,4.678-4.606,21.413,21.413,0,0,1,6.291-2.925,20.784,20.784,0,0,1,18.032,5c3.382,2.95,6.049,7.017,5.381,11.683-.425,1.671-.6,4.083-2.635,4.083-.049,0-.1,0-.151,0" transform="translate(2798.303 5.935)" fill="#31414a"/>
    <path id="Path_1719" data-name="Path 1719" d="M860.282,865.823c-7.837-1.455-15.565-3.431-23.287-5.392-1.881-.442-3.786-.775-5.678-1.177-1.436-.459-3.5-.183-4.2-1.815-.657-1.836,1.225-4.792,2.043-6.454a2.165,2.165,0,0,1,2.552-1.8,2.022,2.022,0,0,1,1.412,2.387,26.849,26.849,0,0,1-1.67,3.667c1.8.435,3.63.727,5.432,1.151,2.574.557,5.091,1.338,7.656,1.934,5.235,1.293,10.61,2.553,15.9,3.537a29.926,29.926,0,0,1,1.76-4.26,3.579,3.579,0,0,1,.781-1.242,1.176,1.176,0,0,1,1.187-.2c1.687.779.6,3.808.281,5.2-.615,2.347-.566,4.578-3.064,4.578a5.9,5.9,0,0,1-1.1-.115" transform="translate(2797.669 8.986)" fill="#31414a"/>
    <path id="Path_1720" data-name="Path 1720" d="M817.981,885.072a2,2,0,0,1-.684-2.836c.516-1.208,1.072-2.4,1.653-3.58,1.94-4.2,4.226-8.231,6.264-12.385,2.057-4.087,4.032-8.24,6.446-12.128a3.418,3.418,0,0,1,1.571-1.422c1.3-.291,1.9,1,1.557,2.1-1.065,3.487-2.963,6.651-4.517,9.936-2.227,4.786-4.821,9.38-7.117,14.13-.715,1.55-1.292,2.638-1.92,4.126-.307,1.213-1.1,2.32-2.247,2.32a2.221,2.221,0,0,1-1.007-.265" transform="translate(2793.594 10.433)" fill="#31414a"/>
    <path id="Path_1721" data-name="Path 1721" d="M843.38,895.6a1.99,1.99,0,0,1-.777-2.264c.245-1.169.589-2.5.93-3.556.578-2.1,1.3-4.153,1.926-6.24,2.154-6.369,4.286-12.753,6.67-19.042.746-1.615,1.124-3.366,1.844-4.984a1.546,1.546,0,0,1,1.981-.983c1.111.587.8,2,.739,3.034a34.984,34.984,0,0,1-1.991,6.824c-1.03,3.133-2.195,6.218-3.169,9.366-1.484,4.052-2.767,8.168-4.011,12.3-.364,1.386-.8,2.753-1.04,4.168a2.065,2.065,0,0,1-2.034,1.722,1.8,1.8,0,0,1-1.068-.343" transform="translate(2803.983 12.764)" fill="#31414a"/>
    <path id="Path_1722" data-name="Path 1722" d="M853.506,889.524a18.121,18.121,0,0,1-3.113-1.308c-1.172-.523-2.37-.992-3.566-1.459-2.266-.98-4.548-1.542-6.83-2.286-5.079-1.659-10.066-3.582-15.21-5.029-2-.724-3.869-1.629-5.823-2.252a3.549,3.549,0,0,1-1.888-1.248,1.312,1.312,0,0,1,.44-1.789c1.479-.893,5.2.71,6.826,1.2,2.859,1.054,5.855,1.667,8.714,2.719,4.385,1.57,8.832,2.942,13.289,4.284q2.828,1.091,5.63,2.261a17.61,17.61,0,0,0,2.7,1.106A2,2,0,0,1,854,889.58a2.286,2.286,0,0,1-.494-.056" transform="translate(2793.564 19.06)" fill="#31414a"/>
    <path id="Path_1723" data-name="Path 1723" d="M810.214,880.44l-.011-.011c3.141-.093,6.249-.723,9.388-.269a9.618,9.618,0,0,0,1.563.028,5.064,5.064,0,0,1,2.753.4,2.007,2.007,0,0,1-.608,3.534A34.7,34.7,0,0,1,818.23,884c-2.726.18-5.46.271-8.188.357a1.963,1.963,0,0,1,.172-3.912" transform="translate(2790.075 21.546)" fill="#31414a"/>
    <path id="Path_1724" data-name="Path 1724" d="M821.723,890.4c-1.659-.938-1.023-3.711-.857-5.243.311-1.643.619-4.059,2.887-3.614a2.078,2.078,0,0,1,1.308,2.959,12.21,12.21,0,0,0-.506,4.156h-.008a1.94,1.94,0,0,1-1.954,1.976,1.726,1.726,0,0,1-.869-.232" transform="translate(2795.077 22.154)" fill="#31414a"/>
    <path id="Path_1725" data-name="Path 1725" d="M819.561,881.116a1.981,1.981,0,0,1-.784-3.443,66.683,66.683,0,0,1,9.462-4.336c3.793-1.608,7.932-3.14,11.755-4.552,2.815-1.062,5.606-2.192,8.466-3.133,5.057-1.829,9.85-4.5,15.094-5.762.691-.18,1.747-.017,1.567.933-.156.636-.83,1-1.355,1.313s-1.062.616-1.592.923c-1.9,1.149-3.86,2.155-5.843,3.126a74.717,74.717,0,0,1-9.9,4.187c-4.174,1.706-8.4,3.276-12.609,4.9-3.158,1.351-6.415,2.5-9.517,3.98-.874.471-1.757.927-2.656,1.346a3.787,3.787,0,0,1-1.667.574,1.621,1.621,0,0,1-.421-.055" transform="translate(2794.039 13.341)" fill="#31414a"/>
    <path id="Path_1726" data-name="Path 1726" d="M840.351,838.484a2.014,2.014,0,0,1-1.059-2.968c.761-1.031,2.558-1.524,3.442-.36a2.177,2.177,0,0,1-1.69,3.457,1.99,1.99,0,0,1-.693-.128" transform="translate(2802.549 3.031)" fill="#31414a"/>
    <path id="Path_1727" data-name="Path 1727" d="M849.451,840.784c-2.231-2.387,2.3-5.336,3.444-2.167a2.238,2.238,0,0,1-2.2,2.68,1.736,1.736,0,0,1-1.246-.513" transform="translate(2806.563 4.151)" fill="#31414a"/>
    <path id="Path_1728" data-name="Path 1728" d="M846.341,833.478a1.677,1.677,0,0,1,3.352-.076,1.677,1.677,0,0,1-3.352.076" transform="translate(2805.545 1.933)" fill="#31414a"/>
    <path id="Path_1729" data-name="Path 1729" d="M852.216,829.831a1.719,1.719,0,1,1,2.8-1.986,1.741,1.741,0,0,1-1.512,2.624,1.657,1.657,0,0,1-1.29-.637" transform="translate(2807.775 -0.001)" fill="#31414a"/>
  </g>
</svg>
