<svg xmlns="http://www.w3.org/2000/svg" width="154.754" height="186.969" viewBox="0 0 154.754 186.969">
  <g id="Group_1140" data-name="Group 1140" transform="translate(1.537)">
    <path id="Path_1977" data-name="Path 1977" d="M2160.87,946.3a4.367,4.367,0,0,0-2.052.833,4.526,4.526,0,0,0-1.112,1.146,2.743,2.743,0,0,0,.776,3.832,3.1,3.1,0,0,0,1.22.535,4.2,4.2,0,0,0,.686.059,3.909,3.909,0,0,0,.43-.024,2.909,2.909,0,0,0,1.829-1.055,3,3,0,0,0,.451-.734,2.9,2.9,0,0,0,.565-1.1,3.8,3.8,0,0,0,.127-1.062,2.426,2.426,0,0,0-.928-1.891,2.785,2.785,0,0,0-.958-.476,2.7,2.7,0,0,0-1.034-.057m3.459,28.366a1.317,1.317,0,0,0-.377.226,3.208,3.208,0,0,0-.828,1.476c-.046.14-.083.285-.12.43a2.232,2.232,0,0,0-.055.325,1.626,1.626,0,0,0,.017.465,2.828,2.828,0,0,0,.36.912,2.662,2.662,0,0,0,.718.713,2.391,2.391,0,0,0,1.394.433,3.137,3.137,0,0,0,2.006-.772,2.665,2.665,0,0,0,.638-3.578,3,3,0,0,0-.74-.761,2.213,2.213,0,0,0-1-.36,2.815,2.815,0,0,0-2.019.492m-49.018,25.071a2.013,2.013,0,0,0-.976.3,3.269,3.269,0,0,0-.831.753.922.922,0,0,0-.121.142,1.157,1.157,0,0,0-.183.255,3.484,3.484,0,0,0-.142.339,2.154,2.154,0,0,0-.1.546,3.6,3.6,0,0,0-.027,1.525,3.827,3.827,0,0,0,.741,1.646,2.3,2.3,0,0,0,1.76.861.416.416,0,0,0,.043,0,2.707,2.707,0,0,0,1.862-.821,3.825,3.825,0,0,0,1.046-2.065,2.689,2.689,0,0,0-.4-1.913,3.163,3.163,0,0,0-1.228-1.047.175.175,0,0,1-.035-.016,2.613,2.613,0,0,0-.385-.247,2.08,2.08,0,0,0-.941-.255c-.027,0-.056,0-.084,0m18.377,4.957a7.708,7.708,0,0,0,.438.766,9.068,9.068,0,0,0,1.106,1.417,8.357,8.357,0,0,0,1.371,1.134,4.817,4.817,0,0,0,.89.5c.277.113.557.209.845.295a8.988,8.988,0,0,0,2.6.374c.279,0,.554-.011.828-.035a3.945,3.945,0,0,0,.863-.185,7.539,7.539,0,0,0,.806-.3,6.94,6.94,0,0,0,.792-.427,8.332,8.332,0,0,0,.777-.575,9.915,9.915,0,0,0,2.44-3.153,10.172,10.172,0,0,0,.754-2.073,8.456,8.456,0,0,0,.263-2.068,6.549,6.549,0,0,0-.516-2.241,7.71,7.71,0,0,0-1.157-1.923,11.226,11.226,0,0,0-1.306-1.39,6.485,6.485,0,0,0-1.456-.941,8.67,8.67,0,0,0-1.33-.508,11.853,11.853,0,0,0-1.569-.392,5.467,5.467,0,0,0-1.649-.059,6.827,6.827,0,0,0-1.581.438,7.869,7.869,0,0,0-1.5.823,7.666,7.666,0,0,0-1.18,1.059l-.006.006-.016.017-.016.016a6.322,6.322,0,0,0-1.04,1.538,7.764,7.764,0,0,0-.442,1.256,7.267,7.267,0,0,0-.479,1.334,13.859,13.859,0,0,0-.276,1.414,4.483,4.483,0,0,0-.057.847,7.719,7.719,0,0,0,.15,1.092l-.008-.037c.011.059.024.116.035.175-.006-.033-.011-.064-.019-.1a9.011,9.011,0,0,0,.315,1.1c-.021-.057-.04-.115-.062-.173a8.778,8.778,0,0,0,.4.979m22.36,13.315c-.132.059-.263.121-.394.186a4.732,4.732,0,0,0-.8.373,5.109,5.109,0,0,0-1.664,1.523,6.948,6.948,0,0,0-.93,2,6.085,6.085,0,0,0,.29,4.227,5.776,5.776,0,0,0,3.053,2.985,7.117,7.117,0,0,0,2.665.541,5.467,5.467,0,0,0,1.566-.219,5.316,5.316,0,0,0,1.966-1.014,5.908,5.908,0,0,0,1.335-1.617,8.744,8.744,0,0,0,.914-2.821,9.292,9.292,0,0,0,.122-1.991,4.8,4.8,0,0,0-.57-2.084,4.42,4.42,0,0,0-1.48-1.523,6.9,6.9,0,0,0-2.305-.92,6.5,6.5,0,0,0-1.353-.142,5.943,5.943,0,0,0-2.415.5m27.352,12.464a2.426,2.426,0,0,0-1.1,1.065,4.315,4.315,0,0,0-.2.417,3.765,3.765,0,0,0-.538.659,2.594,2.594,0,0,0-.457,1.737,1.5,1.5,0,0,0,1.157,1.243,1.3,1.3,0,0,0,.172.183,1.557,1.557,0,0,0,1.071.381,2.627,2.627,0,0,0,.481-.049,1.837,1.837,0,0,0,1.269-1.122c.449-1.148.388-3.017-.815-3.6a.317.317,0,0,0,.03-.138c0-.045,0-.091-.008-.135v-.014a.687.687,0,0,0-.726-.692.817.817,0,0,0-.331.07m-62.763.314a2.833,2.833,0,0,0-2.025,1.008,4.578,4.578,0,0,0-.518.763c-.043.081-.086.164-.127.245a4.749,4.749,0,0,0-.273.691c-.049.157-.091.317-.125.476a3.868,3.868,0,0,0-.178.476,6.355,6.355,0,0,0,.384,4.1,3.3,3.3,0,0,0,.635,1.106,3.163,3.163,0,0,0,1.124.705,3.957,3.957,0,0,0,1.505.323,3.026,3.026,0,0,0,.721-.086,4.684,4.684,0,0,0,2.926-2.582,7.071,7.071,0,0,0,.54-1.783,6.328,6.328,0,0,0,.083-.654,3.906,3.906,0,0,0-.125-1.351,5.738,5.738,0,0,0-.608-1.374c.016.022.028.044.042.067-.033-.054-.067-.11-.1-.166l.056.1a4.383,4.383,0,0,0-1.148-1.3,4.215,4.215,0,0,0-1.366-.618,4.631,4.631,0,0,0-1.17-.161c-.084,0-.169,0-.254.008m-32.588,19.7a2.567,2.567,0,0,0-1.017,2.407l.008.1a2.42,2.42,0,0,0,.019.9,1.422,1.422,0,0,0,.706.936,2.88,2.88,0,0,0,.583.556,2.149,2.149,0,0,0,1.24.4,1.943,1.943,0,0,0,.288-.021,2.247,2.247,0,0,0,1.217-.635,2.739,2.739,0,0,0,.674-1.2,2.349,2.349,0,0,0,.108-.864,2.269,2.269,0,0,0-.22-.817,2.672,2.672,0,0,0-2.212-1.495.988.988,0,0,0-.423-.347.939.939,0,0,0-.39-.081,1.157,1.157,0,0,0-.58.161m60.611,4.109a7.161,7.161,0,0,0,1.533,2.466c.157.161.312.325.48.474.2.177.4.345.6.509a7.64,7.64,0,0,0,1.915,1.106,12.143,12.143,0,0,0,3.623.678c.323.021.648.035.975.035a8.753,8.753,0,0,0,2.844-.422,8.093,8.093,0,0,0,3.351-2.136,9.051,9.051,0,0,0,1.247-1.689,8.03,8.03,0,0,0,.686-1.522l.022-.073q.177-.372.325-.759a8.255,8.255,0,0,0,.377-1.328,12.4,12.4,0,0,0,.219-1.4c.038-.5.068-.995.064-1.5a10.746,10.746,0,0,0-.116-1.409,8.515,8.515,0,0,0-.355-1.581,5.517,5.517,0,0,0-.647-1.353c-.161-.232-.325-.46-.5-.68a11.561,11.561,0,0,0-2.126-2,9.4,9.4,0,0,0-6.037-1.622,8.478,8.478,0,0,0-2.938.955,9.764,9.764,0,0,0-1.8,1.269l-.282.186.054-.037a9.041,9.041,0,0,0-2.83,2.768,7.953,7.953,0,0,0-1.022,2.6c-.084.455-.155.9-.194,1.366l-.01.094,0-.044a6.518,6.518,0,0,0-.032.829c.015.288.035.573.073.856-.013.228-.021.457-.021.688a6.563,6.563,0,0,0,.132,1.247c-.014-.065-.025-.129-.037-.193a8.705,8.705,0,0,0,.42,1.627m42.984,2.238a6.756,6.756,0,0,0-.893.073,5.13,5.13,0,0,0-1.552.463,4.855,4.855,0,0,0-1.092.777c-.062.048-.119.1-.178.148a8.1,8.1,0,0,0-1.213,1.266,7.624,7.624,0,0,0-.508.756c-.156.269-.29.544-.425.823a7.94,7.94,0,0,0-.311.82,5.673,5.673,0,0,0-.309,1.3,4.4,4.4,0,0,0,.03,1.261,4.151,4.151,0,0,0,.373,1.168,6.288,6.288,0,0,0,.9,1.339,6.208,6.208,0,0,0,1.479,1.211,5.832,5.832,0,0,0,1.5.548,9.047,9.047,0,0,0,.963.162,6.887,6.887,0,0,0,.884.07h.07a4.935,4.935,0,0,0,3.458-1.716,6.6,6.6,0,0,0,1.181-1.711,10.233,10.233,0,0,0,.491-1.3,7.981,7.981,0,0,0,.3-1.707,5.768,5.768,0,0,0-.145-1.934,5.761,5.761,0,0,0-1.132-2.2,4.163,4.163,0,0,0-1.615-1.213,5.2,5.2,0,0,0-1.272-.352,8.425,8.425,0,0,0-.866-.057h-.126m-45.714,8.386a1.251,1.251,0,0,0-.176.091,1.419,1.419,0,0,0-.166.013,1.585,1.585,0,0,0-1.2,1.44,2.989,2.989,0,0,0,.293,1.732,2.123,2.123,0,0,0,.792.852,1.88,1.88,0,0,0,.9.248,1.252,1.252,0,0,0,.232-.019,2.161,2.161,0,0,0,.614-.2,1.224,1.224,0,0,0,.222.051,1.367,1.367,0,0,0,.2.014,1.253,1.253,0,0,0,1.074-.57,1.668,1.668,0,0,0,.016-1.679,1.424,1.424,0,0,0-.056-.755,1.45,1.45,0,0,0-1.1-.927c-.027,0-.056-.008-.084-.011a1.475,1.475,0,0,0-1-.395,1.416,1.416,0,0,0-.554.113m41.246,17.422a32.531,32.531,0,0,1-4.491-.794c-1.063-.225-2.13-.439-3.19-.68-.014-.061-.03-.121-.044-.182a11.581,11.581,0,0,0-.5-1.571,8.154,8.154,0,0,0-.793-1.477,5.815,5.815,0,0,0-.519-.71,6.151,6.151,0,0,0-.644-.615l.045.037-.14-.115c.032.026.062.053.1.078a4.683,4.683,0,0,0-1.211-.672,4.569,4.569,0,0,0-1.915-.415,6.54,6.54,0,0,0-1.507.32c-.326.1-.648.212-.965.337a4.062,4.062,0,0,0-.856.439,5.341,5.341,0,0,0-1.282,1.293,17.083,17.083,0,0,0-5-.743c-4.558.025-9.119.13-13.675.043-1.518-.051-3.02-.25-4.53-.407-2.941-.255-5.9-.371-8.817-.9-3.782-.73-7.519-1.7-11.282-2.531-.123-.516-.271-1.024-.43-1.53a12.591,12.591,0,0,0-1.247-2.95,6.877,6.877,0,0,0-2.291-2.163,7.173,7.173,0,0,0-3.109-1.036,8.911,8.911,0,0,0-1.541.054,7.66,7.66,0,0,0-1.518.333h0l-.007,0h0l-.021.008.011,0-.022.008v0a6.827,6.827,0,0,0-1.395.626,10.477,10.477,0,0,0-1.06.759,11.227,11.227,0,0,0-.993.874,6.712,6.712,0,0,0-.85.99,7.782,7.782,0,0,0-.51.915c-1.4-.156-2.8-.355-4.191-.624-2.746-.264-5.5-.531-8.255-.6a29.8,29.8,0,0,1-9.194-.629,16.2,16.2,0,0,1-4.681-1.382,27.78,27.78,0,0,1-8.047-5.9c-3.007-3.73-3.9-10.7-3.192-15.292.726-3.8,2.961-6.939,5.163-10.048a11.969,11.969,0,0,0,2.643,1.4c.038.014.075.027.111.043l-.059-.022-.043-.018.043.018.083.032,0,0,.024.01a.078.078,0,0,0,.025.008l-.018-.006a.089.089,0,0,0,.027.008l.016.008.012,0a12.007,12.007,0,0,0,3.305.6c.676.048,1.358.092,2.038.092.388,0,.776-.014,1.164-.051a7.344,7.344,0,0,0,1.678-.395,8,8,0,0,0,1.433-.642c.272-.156.538-.317.8-.487a10.869,10.869,0,0,0,2.407-1.361c.3-.239.583-.487.861-.754l-.067.068c.022-.024.048-.048.07-.07l-.011.011c.019-.018.038-.037.057-.057l.054-.052-.013.013.013-.013a.079.079,0,0,0,.021-.021l0,0c.065-.064.129-.129.2-.2a12.931,12.931,0,0,0,3.5-6.256,11.543,11.543,0,0,0,0-3.634,19.524,19.524,0,0,0-.7-3.365,11.924,11.924,0,0,0-1.56-3.188,11.552,11.552,0,0,0-1-1.308,7.515,7.515,0,0,0-.8-.74,1.577,1.577,0,0,0-.741-.557l-.016,0q-.334-.227-.685-.423c.794-1.211,1.57-2.439,2.372-3.647,5.086-7.238,10.1-14.524,14.913-21.943,3.711-5.319,7.726-10.421,11.541-15.664.93-1.208,1.877-2.4,2.832-3.585.1.132.207.266.314.395.321.4.657.782,1.015,1.146s.716.675,1.091,1c-.019-.017-.038-.037-.059-.054a15.649,15.649,0,0,0,1.618,1.232,12.456,12.456,0,0,0,1.88,1.1,6.676,6.676,0,0,0,2.146.517q1.024.086,2.055.115c.316.008.633.014.95.014.544,0,1.09-.016,1.635-.057.433-.035.861-.092,1.289-.154.459-.065.92-.132,1.373-.237a11.258,11.258,0,0,0,2.619-.966,15.568,15.568,0,0,0,2.305-1.422,19.167,19.167,0,0,0,2.318-2.1,11.749,11.749,0,0,0,1.617-2.165,11.958,11.958,0,0,0,1.073-2.615c.129-.433.253-.865.339-1.309.087-.463.15-.931.21-1.4-.009.064-.018.129-.027.193a20.123,20.123,0,0,0,.2-2.292,12.27,12.27,0,0,0-.124-1.869,23.662,23.662,0,0,0-.449-2.539c-.119-.489-.253-.971-.4-1.452a9.467,9.467,0,0,0-.543-1.264,16.842,16.842,0,0,0-1.425-2.17c-.459-.657-.877-1.337-1.358-1.979l.011.011-.015-.017a16.2,16.2,0,0,0-2.369-2.4,10.136,10.136,0,0,0-.939-.742c3.305-4.209,6.667-8.569,11.534-10.989a12.305,12.305,0,0,1,12.493,1.387,14.32,14.32,0,0,1,3.934,5.842c1.519,3.633,2.344,7.493,3.507,11.24q.408,1.531.883,3.021c-.068.024-.137.049-.205.075a3.312,3.312,0,0,0-1.049.65,5.112,5.112,0,0,0-1.476,4.254,8.742,8.742,0,0,0,.23,1.175,5.6,5.6,0,0,0,.437,1.047,5.833,5.833,0,0,0,.638.99,3.863,3.863,0,0,0,1.261,1.008,8.023,8.023,0,0,0,2.017.643,8.62,8.62,0,0,0,.985.151,4.476,4.476,0,0,0,.458.03,2.015,2.015,0,0,0,.364-.03c.971,2.479,1.938,4.957,2.8,7.495,1.075,3.007,1.982,6.075,2.8,9.16.528,1.507,1.019,3.028,1.5,4.551-.562.177-1.124.365-1.682.548a16.345,16.345,0,0,0-3.676,1.571h0l0,0h0a7.987,7.987,0,0,0-1.738,1.42,8.19,8.19,0,0,0-.63.788,10.812,10.812,0,0,0-.563.925,9.718,9.718,0,0,0-.728,1.764,16.606,16.606,0,0,0-.5,1.972c.013-.062.024-.126.035-.189a13.784,13.784,0,0,0-.277,2.606v-.194a7.185,7.185,0,0,0,.014.906c.034.3.078.6.134.893a7.838,7.838,0,0,0,.449,1.395,9.586,9.586,0,0,0,.767,1.461,9.083,9.083,0,0,0,.85,1.167,8.72,8.72,0,0,0,1.156,1.141,12.869,12.869,0,0,0,1.242.863,10.723,10.723,0,0,0,2.78,1.09,24.249,24.249,0,0,0,3.132.681,26.791,26.791,0,0,0,3.071.237c.09,0,.185,0,.276,0a7.949,7.949,0,0,0,2.614-.387q.42,1.284.823,2.572c1.011,3.318,2.106,6.614,2.988,9.84,1.464,5.217,2.486,10.556,4.279,15.675,1.264,4.368,2.983,8.569,4.56,12.824.979,2.808,1.829,5.656,2.781,8.474,1.434,4.371,3.077,9.067,2.108,13.7a13.609,13.609,0,0,1-9.768,10.335,24.153,24.153,0,0,1-4.768.609c-1.9.1-3.8.19-5.708.19-1.135,0-2.269-.029-3.4-.107" transform="translate(-2063.131 -934.08)" fill="#fff"/>
    <path id="Path_1978" data-name="Path 1978" d="M2157.263,1068.375c9.893-.446,20.027-.253,29.708-2.67,5.279-1.32,10.489-3.922,13.571-8.392,3.494-5.069,3.7-11.772,2.12-17.745-.086-.322-.175-.643-.271-.958-1.859-6.207-5.38-11.758-8.494-17.442-7.356-13.434-12.585-27.968-20.36-41.161-3.526-5.986-7.552-11.659-11.205-17.567-3.233-5.233-5.376-11.169-9.148-16.008a34.728,34.728,0,0,0-4.691-5.25c-3.8-3.244-10.144-5.78-15.174-4.583a24.152,24.152,0,0,0-8.125,3.319,27.636,27.636,0,0,0-8.307,9.021c-2.573,4.129-4.829,8.44-7.32,12.616-1.615,2.491-2.916,5.17-4.384,7.749-5.957,10.521-10.938,21.6-16.185,32.548q-8.176,17.056-16.5,34.041c-.054.113-.11.226-.166.337-2.356,4.809-4.757,9.733-5.346,15.048s.984,11.193,5.284,14.386c3.118,2.313,7.16,2.916,11.027,3.33" transform="translate(-2066.866 -932.768)" fill="none" stroke="#31414a" stroke-linecap="round" stroke-miterlimit="10" stroke-width="3"/>
    <path id="Path_1979" data-name="Path 1979" d="M2146.438,981.694a2.256,2.256,0,0,1,1-2.537c1.1-1.036,2.2-2.084,3.268-3.152a80.592,80.592,0,0,1,7.909-8.06c1.412-1.269,2.84-2.52,4.229-3.812a11.149,11.149,0,0,1,1.578-1.468,2.265,2.265,0,0,1,2.466,3.787c-4.04,3.719-7.78,7.751-11.8,11.494-1.266,1.273-2.523,2.555-3.832,3.789a5.28,5.28,0,0,1-2.036,1.523,2.228,2.228,0,0,1-1.721-.218,2.264,2.264,0,0,1-1.064-1.345" transform="translate(-2019.821 -917.341)" fill="#31414a"/>
    <path id="Path_1980" data-name="Path 1980" d="M2147.736,978.667c.236-3.714,5.3-1.872,7.706-1.991,5.048.174,10.1.4,15.123.874a2.255,2.255,0,0,1-.217,4.4c-3.029-.035-6.071-.466-9.107-.626-2.983-.088-5.97-.121-8.942-.406a7.419,7.419,0,0,1-3.569-.447,1.97,1.97,0,0,1-1-1.8" transform="translate(-2019.001 -909.077)" fill="#31414a"/>
    <path id="Path_1981" data-name="Path 1981" d="M2094.518,1009.711c-2.182-4.413.492-11.185,3.541-14.658,5.634-6.474,14.717-7.144,21.869-2.807,3.24,2.12,4.473,6.014,5.1,9.647a19.353,19.353,0,0,1,.589,4.833,16.078,16.078,0,0,1-.166,3.313,2.4,2.4,0,0,1-.347,1.39,2.271,2.271,0,0,1-4.105-.7c-.223-1.2.29-2.44.148-3.665-.086-.915-.03-1.84-.15-2.754-.146-.661-.326-1.313-.444-1.982a14.944,14.944,0,0,0-1.493-4.671c-1.143-1.894-3.349-2.682-5.368-3.29a11.973,11.973,0,0,0-11.8,3.064c-2.437,2.458-3.661,5.807-4.382,9.128a15.019,15.019,0,0,1-.855,3,1.228,1.228,0,0,1-1.7.552,1.14,1.14,0,0,1-.433-.4" transform="translate(-2050.972 -901.283)" fill="#31414a"/>
    <path id="Path_1982" data-name="Path 1982" d="M2094.14,1010.431c-1.413-1.238-.613-3.3-.4-4.882a22.018,22.018,0,0,1,7.35-12.977c3.047-2.424,5.443-2.97,9.232-2.459.592.111,3.663-.051,3.25.9-.122.272-.409.248-.645.17-3.556.1-6.853,2.265-9.327,4.683a19.868,19.868,0,0,0-5.288,9.585c-.162.834-.317,1.672-.437,2.51a3.254,3.254,0,0,1-.552,2.192,2.289,2.289,0,0,1-2.8.535,1.994,1.994,0,0,1-.376-.26" transform="translate(-2051.209 -901.018)" fill="#31414a"/>
    <path id="Path_1983" data-name="Path 1983" d="M2127.878,1007.436c-2-.271-4-.509-6-.737-3.544-.345-7.095-.451-10.653-.551a37.231,37.231,0,0,0-5.478-.137c-3.023-.166-6.057-.266-9.067-.618a32.57,32.57,0,0,0-4.477-.127,1.023,1.023,0,0,0-.816.393,2.254,2.254,0,0,0,.072,1.141,2.506,2.506,0,0,0,.922.734c3.265,1.044,6.812,1.049,10.217,1.086,4.722.191,9.448.342,14.158.728,3.05.261,6.068.88,9.142.767,1.268-.065,6.309.761,5.933-1.355a2.7,2.7,0,0,0-.635-.463,14.29,14.29,0,0,0-3.313-.861m-38.069,3.787a5.925,5.925,0,0,1-2.93-6.071,5.361,5.361,0,0,1,3.368-4.051c2.467-.7,5.113-.2,7.632-.094,3.554.15,7.108.28,10.653.541,5.806.387,11.64.294,17.409,1.162,3.165.428,7.547.63,9.542,3.454a5.3,5.3,0,0,1-2.878,7.939,12.641,12.641,0,0,1-5.551.514,56.5,56.5,0,0,1-7.092-.4,55.45,55.45,0,0,0-5.9-.594q-7.18-.494-14.386-.578c-1.2-.051-2.4-.116-3.594-.264-2.006-.255-4.134-.39-5.943-1.363-.111-.06-.221-.124-.331-.191" transform="translate(-2055.052 -894.628)" fill="#31414a"/>
    <path id="Path_1984" data-name="Path 1984" d="M2111.72,1073.459c.148-7.648-.053-15.3-.106-22.944.08-6.837.29-13.665.383-20.5.135-5.263.439-10.522.492-15.784.075-1.906-.26-3.843.086-5.716a1.92,1.92,0,0,1,2.872-1.065c1.334.89,1.049,2.689,1.281,4.08.238,3.34.063,6.463.008,9.779-.263,6.716-.444,13.439-.506,20.161-.125,4.08-.243,8.162-.182,12.245q.285,10.1.158,20.195a2.259,2.259,0,0,1-3.367,1.565,2.123,2.123,0,0,1-1.119-2.014" transform="translate(-2040.382 -890.836)" fill="#31414a"/>
    <path id="Path_1985" data-name="Path 1985" d="M2080.907,1066.684a9.377,9.377,0,0,1,.613-2.525c.485-1.8.952-3.6,1.511-5.381.758-2.576,1.216-5.228,1.943-7.813,1.331-4.648,2.495-9.34,3.921-13.961,1.159-4.514,2.451-8.993,3.541-13.526.985-3.405,2.05-6.781,3.018-10.191.651-2.018,1.028-4.117,1.6-6.151a1.89,1.89,0,0,1,3.26-.392c1.213,1.786-.978,8.443-1.5,10.7-.646,2.109-1.2,4.246-1.868,6.347-.869,3.252-1.6,6.535-2.571,9.762-1.547,5.958-3.3,11.859-4.9,17.8-.676,2.4-1.2,4.841-1.776,7.27-.866,2.878-1.538,5.823-2.448,8.684a2.269,2.269,0,0,1-3.214,1.11,2.142,2.142,0,0,1-1.127-1.734" transform="translate(-2058.561 -891.525)" fill="#31414a"/>
    <path id="Path_1986" data-name="Path 1986" d="M2079.025,1043.085a24.933,24.933,0,0,0,3.408.267q4.458.363,8.791.778c7.945.769,15.56,2.455,23.454,3.419,6.035.737,11.995,1.893,17.966,3.006,2.9.357,5.793.729,8.65,1.326,3.286.226,3.52,4.535.15,4.7-3.682-.291-7.285-1.168-10.94-1.676-3.329-.478-6.664-.9-9.965-1.539-5.812-.826-11.621-1.689-17.431-2.531-5.7-.785-11.482-1.2-17.063-2.641a37.577,37.577,0,0,0-5.293-.417c-1.22-.172-2.557-.025-3.676-.583a2.3,2.3,0,0,1,1.95-4.112" transform="translate(-2061.456 -869.615)" fill="#31414a"/>
    <path id="Path_1987" data-name="Path 1987" d="M2095.08,1011.714a1.824,1.824,0,0,1,3.1,1.921,1.824,1.824,0,0,1-3.1-1.921" transform="translate(-2050.336 -888.64)" fill="#31414a"/>
    <path id="Path_1988" data-name="Path 1988" d="M2099.923,1013.416a1.59,1.59,0,1,1,.756,1.035,1.54,1.54,0,0,1-.756-1.035" transform="translate(-2047.326 -888.258)" fill="#31414a"/>
    <path id="Path_1989" data-name="Path 1989" d="M2104.871,1013.762a1.648,1.648,0,1,1,.783,1.071,1.584,1.584,0,0,1-.783-1.071" transform="translate(-2044.398 -888.095)" fill="#31414a"/>
    <path id="Path_1990" data-name="Path 1990" d="M2094,1017.467a2.28,2.28,0,1,1,.988,3.068,2.3,2.3,0,0,1-.988-3.068" transform="translate(-2050.951 -885.458)" fill="#31414a"/>
    <path id="Path_1991" data-name="Path 1991" d="M2099.251,1018.252a2.28,2.28,0,1,1,.989,3.068,2.3,2.3,0,0,1-.989-3.068" transform="translate(-2047.845 -884.993)" fill="#31414a"/>
    <path id="Path_1992" data-name="Path 1992" d="M2104.4,1018.577a2.279,2.279,0,1,1,.988,3.068,2.3,2.3,0,0,1-.988-3.068" transform="translate(-2044.798 -884.801)" fill="#31414a"/>
    <path id="Path_1993" data-name="Path 1993" d="M2093.185,1022.6a2.28,2.28,0,1,1,.989,3.068,2.3,2.3,0,0,1-.989-3.068" transform="translate(-2051.436 -882.421)" fill="#31414a"/>
    <path id="Path_1994" data-name="Path 1994" d="M2097.694,1023.778a2.279,2.279,0,1,1,.988,3.068,2.3,2.3,0,0,1-.988-3.068" transform="translate(-2048.767 -881.723)" fill="#31414a"/>
    <path id="Path_1995" data-name="Path 1995" d="M2102.66,1024.454a2.279,2.279,0,1,1,.989,3.068,2.3,2.3,0,0,1-.989-3.068" transform="translate(-2045.828 -881.322)" fill="#31414a"/>
    <path id="Path_1996" data-name="Path 1996" d="M2091.383,1028.856a2.28,2.28,0,1,1,.988,3.068,2.3,2.3,0,0,1-.988-3.068" transform="translate(-2052.502 -878.717)" fill="#31414a"/>
    <path id="Path_1997" data-name="Path 1997" d="M2096.293,1030.11a2.28,2.28,0,1,1,.989,3.068,2.3,2.3,0,0,1-.989-3.068" transform="translate(-2049.596 -877.975)" fill="#31414a"/>
    <path id="Path_1998" data-name="Path 1998" d="M2101.582,1030.453a2.279,2.279,0,1,1,.989,3.068,2.3,2.3,0,0,1-.989-3.068" transform="translate(-2046.465 -877.771)" fill="#31414a"/>
    <path id="Path_1999" data-name="Path 1999" d="M2105.711,1031.181a2.279,2.279,0,1,1,.989,3.068,2.3,2.3,0,0,1-.989-3.068" transform="translate(-2044.022 -877.341)" fill="#31414a"/>
    <path id="Path_2000" data-name="Path 2000" d="M2106.568,1025.621a1.975,1.975,0,1,1,.858,2.659,1.99,1.99,0,0,1-.858-2.659" transform="translate(-2043.495 -880.534)" fill="#31414a"/>
    <path id="Path_2001" data-name="Path 2001" d="M2108.017,1019.751a1.787,1.787,0,1,1,.777,2.4,1.8,1.8,0,0,1-.777-2.4" transform="translate(-2042.625 -883.948)" fill="#31414a"/>
    <path id="Path_2002" data-name="Path 2002" d="M2109.242,1013.6a1.312,1.312,0,1,1,.568,1.766,1.323,1.323,0,0,1-.568-1.766" transform="translate(-2041.869 -887.434)" fill="#31414a"/>
    <path id="Path_2003" data-name="Path 2003" d="M2088.33,1034.431a2.28,2.28,0,1,1,.988,3.068,2.3,2.3,0,0,1-.988-3.068" transform="translate(-2054.31 -875.417)" fill="#31414a"/>
    <path id="Path_2004" data-name="Path 2004" d="M2092.738,1035.435a2.28,2.28,0,1,1,.989,3.068,2.3,2.3,0,0,1-.989-3.068" transform="translate(-2051.7 -874.823)" fill="#31414a"/>
    <path id="Path_2005" data-name="Path 2005" d="M2098.082,1036.377a2.28,2.28,0,1,1,.989,3.068,2.3,2.3,0,0,1-.989-3.068" transform="translate(-2048.537 -874.265)" fill="#31414a"/>
    <path id="Path_2006" data-name="Path 2006" d="M2102.3,1036.582a2.279,2.279,0,1,1,.988,3.068,2.3,2.3,0,0,1-.988-3.068" transform="translate(-2046.042 -874.144)" fill="#31414a"/>
    <path id="Path_2007" data-name="Path 2007" d="M2106.686,1037.069a2.28,2.28,0,1,1,.989,3.068,2.3,2.3,0,0,1-.989-3.068" transform="translate(-2043.444 -873.856)" fill="#31414a"/>
    <path id="Path_2008" data-name="Path 2008" d="M2088.388,1039.972a2.279,2.279,0,1,1,.989,3.068,2.3,2.3,0,0,1-.989-3.068" transform="translate(-2054.275 -872.137)" fill="#31414a"/>
    <path id="Path_2009" data-name="Path 2009" d="M2093.027,1040.491a2.28,2.28,0,1,1,.989,3.067,2.3,2.3,0,0,1-.989-3.067" transform="translate(-2051.529 -871.83)" fill="#31414a"/>
    <path id="Path_2010" data-name="Path 2010" d="M2097.922,1041.534a2.279,2.279,0,1,1,.988,3.068,2.3,2.3,0,0,1-.988-3.068" transform="translate(-2048.632 -871.213)" fill="#31414a"/>
    <path id="Path_2011" data-name="Path 2011" d="M2102.989,1041.919a2.28,2.28,0,1,1,.989,3.068,2.3,2.3,0,0,1-.989-3.068" transform="translate(-2045.633 -870.985)" fill="#31414a"/>
    <path id="Path_2012" data-name="Path 2012" d="M2106.9,1042.674a1.984,1.984,0,1,1,.861,2.67,2,2,0,0,1-.861-2.67" transform="translate(-2043.298 -870.444)" fill="#31414a"/>
    <path id="Path_2013" data-name="Path 2013" d="M2128.638,1042.911a58.535,58.535,0,0,0-6.572-5.694c-.7-.562-1.338-1.19-2.031-1.762a2.241,2.241,0,0,1-.992-.943,2.267,2.267,0,0,1,2.6-3.233c1.2.384,1.931,1.468,2.854,2.238,1.215.978,2.42,1.963,3.532,3.057,1.219,1.24,2.7,2.314,3.59,3.832a2,2,0,0,1-2.985,2.506" transform="translate(-2036.15 -876.609)" fill="#31414a"/>
    <path id="Path_2014" data-name="Path 2014" d="M2142.031,1037.235c-1.025-.1-2.006-.508-3.018-.705-1.729-.326-3.479-.572-5.189-.985a40.125,40.125,0,0,1-4.357-.611c-2.209-.536-4.394-1.164-6.56-1.834a2.258,2.258,0,0,1,1.253-4.339,12.869,12.869,0,0,1,1.88.61,38.079,38.079,0,0,0,7.557,1.676,74.516,74.516,0,0,1,9,1.921,2.168,2.168,0,0,1-.565,4.268" transform="translate(-2034.653 -878.092)" fill="#31414a"/>
  </g>
</svg>
