<svg xmlns="http://www.w3.org/2000/svg" width="144.906" height="165.583" viewBox="0 0 144.906 165.583">
  <g id="Group_1147" data-name="Group 1147" transform="translate(-3376.657 -1073.3)">
    <path id="Path_2203" data-name="Path 2203" d="M633.971,1116.6a4.08,4.08,0,0,0-.707-1.7,4.192,4.192,0,0,0-7.583,2.949,1.842,1.842,0,0,0,.062.238l.058.209a4.153,4.153,0,0,0,1.32,2.133,4.288,4.288,0,0,0,.8.546,4.162,4.162,0,0,0,1.411.423,4.219,4.219,0,0,0,1.09.013l.316-.09a4.152,4.152,0,0,0,2.211-1.291,4.353,4.353,0,0,0,.57-.8,4.586,4.586,0,0,0,.212-.492,4.138,4.138,0,0,0,.257-1.854Z" transform="translate(2810.971 22.146)" fill="#fff"/>
    <path id="Path_2204" data-name="Path 2204" d="M729.3,1186.295q-.054-.5-.126-.994c-.923-6.462-3.6-12.519-5.851-18.648-5.317-14.482-8.348-29.744-14.118-44.051-2.617-6.492-5.779-12.746-8.533-19.177-2.438-5.7-3.683-11.928-6.716-17.317a35.235,35.235,0,0,0-3.888-5.932c-3.3-3.8-9.24-7.277-14.431-6.838a24.4,24.4,0,0,0-8.591,2.089,27.883,27.883,0,0,0-9.624,7.744c-3.181,3.729-6.073,7.685-9.181,11.471-1.982,2.24-3.679,4.716-5.527,7.065-7.51,9.587-14.13,19.881-21,30q-10.7,15.766-21.533,31.439l-.216.314c-3.065,4.434-6.195,8.98-7.577,14.186s-.7,11.3,3.111,15.122c2.759,2.774,6.695,3.978,10.485,4.969,24.127,6.31,49.063,7.881,73.773,10.459,9.922,1.035,19.988,2.745,29.994,1.786,5.455-.523,11.035-2.335,14.775-6.327,4.239-4.528,5.446-11.172,4.769-17.36m-103.674-15.771a3.183,3.183,0,0,1-.645,1.063,3.42,3.42,0,0,1-1.8,1.062c-.1.023-.187.056-.286.072a3.452,3.452,0,0,1-3.8-2.558,3.314,3.314,0,0,1-.092-.373,3.448,3.448,0,0,1,6.828-.967c.008.058,0,.114.006.171a3.448,3.448,0,0,1-.21,1.531m30.147-28.441a6.958,6.958,0,0,1-1.414,2.337,7.482,7.482,0,0,1-3.957,2.337,4.087,4.087,0,0,1-.626.148,6.59,6.59,0,0,1-1.266.058c-.227-.011-.462-.031-.711-.061a7.333,7.333,0,0,1-3.986-1.751l-.009-.008a7.515,7.515,0,0,1-2.394-3.853,6.15,6.15,0,0,1-.193-.819,7.575,7.575,0,0,1,15-2.125l.023.4a7.476,7.476,0,0,1-.467,3.339m10.865,30.055a5.9,5.9,0,0,1-3.655,2.031,5.986,5.986,0,0,1-1.105.053,5.895,5.895,0,1,1,6.114-6.716l.037.263-.011.069a5.922,5.922,0,0,1-1.379,4.3m5.714-66.659a3.668,3.668,0,0,1-1.82-1.027,3.5,3.5,0,0,1-.467-.643,3.433,3.433,0,0,1-.436-2.018,3.175,3.175,0,0,1,.039-.383,3.449,3.449,0,0,1,6.757,1.387c-.013.058-.037.107-.051.165a3.447,3.447,0,0,1-.713,1.368,3.781,3.781,0,0,1-.308.325,3.629,3.629,0,0,1-.657.459,3.4,3.4,0,0,1-2.049.4c-.1-.011-.195-.009-.294-.03M677,1192.893a3.683,3.683,0,0,1-.182.41,3.549,3.549,0,0,1-.462.654,3.405,3.405,0,0,1-1.8,1.06,2.915,2.915,0,0,1-.285.072,3.4,3.4,0,0,1-.9,0,3.45,3.45,0,0,1-1.16-.35,3.563,3.563,0,0,1-.657-.448,3.429,3.429,0,0,1-1.088-1.753,3,3,0,0,1-.092-.375,3.448,3.448,0,0,1,6.828-.965c.008.058,0,.114.006.171a3.45,3.45,0,0,1-.21,1.53m6.027-62.8a5.9,5.9,0,1,1,1.046.318,5.9,5.9,0,0,1-1.046-.318m6.954,26.579a3.429,3.429,0,0,1-.182.409,3.506,3.506,0,0,1-.462.656,3.409,3.409,0,0,1-1.8,1.06c-.1.023-.187.058-.287.072a3.418,3.418,0,0,1-.9,0,3.484,3.484,0,0,1-1.16-.351,3.554,3.554,0,0,1-.656-.448,3.42,3.42,0,0,1-1.09-1.755,3.3,3.3,0,0,1-.092-.374,3.448,3.448,0,0,1,6.828-.965c.008.057,0,.114.006.171a3.441,3.441,0,0,1-.21,1.529m9.673,35.867a7.574,7.574,0,1,1-2.122-15,4.825,4.825,0,0,1,.716-.041l.307,0,1.135.076a7.554,7.554,0,0,1-.036,14.96" transform="translate(2792.087 -0.001)" fill="#fff"/>
    <path id="Path_2205" data-name="Path 2205" d="M662.566,1142.456l-.971-.058-.065.006a1.4,1.4,0,0,0-.243.006,4.305,4.305,0,1,0,1.28.045" transform="translate(2828.811 38.476)" fill="#fff"/>
    <path id="Path_2206" data-name="Path 2206" d="M640.333,1134.807a2.545,2.545,0,0,0-2.36-2.073,2.588,2.588,0,0,0-.462.022,2.556,2.556,0,0,0-2.131,2.837l0,0a2.441,2.441,0,0,0,.3.864,2.507,2.507,0,0,0,4.669-1.557Z" transform="translate(2816.379 33.093)" fill="#fff"/>
    <path id="Path_2207" data-name="Path 2207" d="M655.163,1107.676a2.51,2.51,0,0,0-1.5-2.827,2.545,2.545,0,0,0-.45-.135,2.509,2.509,0,1,0-1.009,4.915,2.51,2.51,0,0,0,2.963-1.952" transform="translate(2824.642 17.463)" fill="#fff"/>
    <path id="Path_2208" data-name="Path 2208" d="M669.1,1109.292l-.006,0,.006,0" transform="translate(2835.166 20.041)" fill="#31414a"/>
    <path id="Path_2209" data-name="Path 2209" d="M669.1,1109.295l-.011.006.011-.006" transform="translate(2835.162 20.043)" fill="#31414a"/>
    <path id="Path_2210" data-name="Path 2210" d="M669.217,1109.233l-.07.044.07-.044" transform="translate(2835.196 20.008)" fill="#31414a"/>
    <path id="Path_2211" data-name="Path 2211" d="M676.525,1204.405c9.676-.437,19.587-.249,29.054-2.612,5.163-1.289,10.258-3.835,13.272-8.208,3.417-4.957,3.617-11.511,2.074-17.354-.084-.314-.171-.627-.265-.937-1.818-6.07-5.262-11.5-8.307-17.059-7.194-13.137-12.308-27.351-19.912-40.256-3.448-5.854-7.386-11.4-10.959-17.18-3.162-5.118-5.257-10.921-8.946-15.656a34.117,34.117,0,0,0-4.59-5.135c-3.715-3.173-9.92-5.653-14.84-4.484a23.715,23.715,0,0,0-7.946,3.246,27.05,27.05,0,0,0-8.124,8.824c-2.516,4.039-4.722,8.255-7.158,12.338-1.58,2.436-2.852,5.057-4.288,7.58-5.826,10.287-10.7,21.126-15.829,31.83q-8,16.681-16.135,33.292l-.163.332c-2.3,4.7-4.652,9.517-5.228,14.715s.962,10.946,5.167,14.069c3.05,2.264,7,2.852,10.784,3.257" transform="translate(2790.075 1.074)" fill="none" stroke="#31414a" stroke-linecap="round" stroke-miterlimit="10" stroke-width="3"/>
    <path id="Path_2212" data-name="Path 2212" d="M642.9,1152.682c-2.992-.587-5.787-.957-8.672-1.473-3.369-.781-6.727-1.591-10.1-2.346-3.146-.727-6.3-1.421-9.444-2.175a36.76,36.76,0,0,1-3.87-1.034,1.984,1.984,0,0,1-1.026-2.4c.542-1.565,2.438-1.557,3.766-1.148,1.133.2,2.248.487,3.378.715,4.594,1.021,9.195,2.039,13.781,3.093a77.346,77.346,0,0,0,8.745,1.722c1.263.252,2.542.417,3.811.641a3.167,3.167,0,0,1,1.772.682,2.2,2.2,0,0,1-1.538,3.8,2.283,2.283,0,0,1-.6-.081" transform="translate(2802.083 38.187)" fill="#31414a"/>
    <path id="Path_2213" data-name="Path 2213" d="M642.32,1158.081c-1.3-1.281-.551-3.264-.71-4.879-.244-4.649-.28-9.534-2.573-13.724-1.815-3.5-6.048-5.016-9.807-5.04-4.51.275-10.049,3.2-12.308,7.2a32.564,32.564,0,0,0-3.167,7.5,11.652,11.652,0,0,1-.817,2.617,1.854,1.854,0,0,1-2.606.419,2.825,2.825,0,0,1-.894-3c1.23-5.312,3.346-10.856,7.724-14.351,3.92-2.929,8.821-5.144,13.808-4.632a15.817,15.817,0,0,1,10.33,4.873,19.279,19.279,0,0,1,3.472,7.2A53.661,53.661,0,0,1,646,1153.4c-.023.685.061,1.381-.02,2.061a4.239,4.239,0,0,0,.034.863,2.227,2.227,0,0,1-2.254,2.334,2.061,2.061,0,0,1-1.435-.573" transform="translate(2801.9 31.637)" fill="#31414a"/>
    <path id="Path_2214" data-name="Path 2214" d="M641.946,1157.951a123.81,123.81,0,0,1-17.224-2.516,132.926,132.926,0,0,0-13.9-2.983,2.906,2.906,0,0,1-2.5-3.192,12.622,12.622,0,0,1,2.279-6.682.967.967,0,0,1,1.351-.058c1.269,1.479.673,4.059.634,5.863,3.062.526,6.123,1.1,9.164,1.742a61.072,61.072,0,0,0,6.81,1.663,108.452,108.452,0,0,0,13.937,1.776c.162-1.3.028-2.718.711-3.883a2.208,2.208,0,0,1,3.891.585,4.109,4.109,0,0,1-.095,2,16.415,16.415,0,0,1-.356,2.947c-.366,2.377-1.725,2.77-3.567,2.77-.361,0-.744-.014-1.14-.033" transform="translate(2801.313 38.406)" fill="#31414a"/>
    <path id="Path_2215" data-name="Path 2215" d="M643.909,1191.827c-3.637-.212-7.2-.965-10.814-1.344-2.32-.419-4.674-.581-6.995-.982-2.128-.394-4.23-.9-6.371-1.228-2.728-.469-5.466-.884-8.175-1.454-2.295-.584-4.744-.732-6.91-1.737-2.117-1-1.691-2.955-1.291-4.839.318-2.135.721-4.247,1.191-6.352,1.177-6.114,2.444-12.226,4.063-18.242a80.436,80.436,0,0,1,2.855-8.331,1.622,1.622,0,0,1,2.217-.62c1,.652.838,2,.732,3.033-.531,3.288-1.7,6.447-2.424,9.7-1.6,7.333-3.263,14.663-4.429,22.083,4.4,1.052,8.846,1.846,13.306,2.567a118.438,118.438,0,0,0,11.77,1.907c2.281.412,4.6.536,6.883.962,1.712.391,3.537.305,5.245.57a2.21,2.21,0,0,1-.705,4.314c-.048,0-.1,0-.149,0" transform="translate(2798.376 40.744)" fill="#31414a"/>
    <path id="Path_2216" data-name="Path 2216" d="M628.609,1188.272a2.234,2.234,0,0,1-.515-2.092c.012-.627.017-1.256.025-1.884.033-2.359.1-4.731.361-7.077.469-7.081,1.188-14.147,2.253-21.163.149-1.334,1.02-7.214,3.148-5.225a11.1,11.1,0,0,1,.7,4.5,25.628,25.628,0,0,1-.313,4.669c-.139,3.084-.548,5.95-.856,8.947-.291,3.165-.372,6.369-.707,9.525-.1,1.575-.146,3.643-.249,5.083a16.173,16.173,0,0,1-.123,3.853,2.21,2.21,0,0,1-2.159,1.552,2.047,2.047,0,0,1-1.566-.69" transform="translate(2812.292 42.946)" fill="#31414a"/>
    <path id="Path_2217" data-name="Path 2217" d="M604.763,1181.035c-1.937-1.249,3.041-5.309,3.981-6.3a40.117,40.117,0,0,1,6.531-5.072c8.314-5.5,16.238-11.591,24.808-16.7q1.4-.988,2.824-1.959a2.471,2.471,0,0,1,1.389-.635,2.235,2.235,0,0,1,.979,4.3c-3.694,2.449-7.565,4.622-11.2,7.165-6.579,4.513-13.258,8.874-19.988,13.154-1.943,1.33-3.74,2.737-5.62,4.13a10.577,10.577,0,0,1-3.271,1.857.4.4,0,0,1-.271.106.338.338,0,0,1-.163-.039" transform="translate(2799.096 42.907)" fill="#31414a"/>
    <path id="Path_2218" data-name="Path 2218" d="M618.875,1136.773a2.235,2.235,0,0,1,.747-1.562,2.314,2.314,0,0,1,1.585-.56,2.229,2.229,0,0,1,1.375,3.894,2.314,2.314,0,0,1-1.585.56,2.242,2.242,0,0,1-2.122-2.332" transform="translate(2807.2 34.162)" fill="#31414a"/>
    <path id="Path_2219" data-name="Path 2219" d="M622.526,1137.347a2.238,2.238,0,0,1,.747-1.562,2.314,2.314,0,0,1,1.585-.56,2.229,2.229,0,0,1,1.375,3.894,2.315,2.315,0,0,1-1.585.561,2.242,2.242,0,0,1-2.122-2.332" transform="translate(2809.233 34.482)" fill="#31414a"/>
    <path id="Path_2220" data-name="Path 2220" d="M620.334,1140.63a2.234,2.234,0,0,1,.747-1.561,2.314,2.314,0,0,1,1.585-.561,2.229,2.229,0,0,1,1.375,3.894,2.313,2.313,0,0,1-1.585.561,2.242,2.242,0,0,1-2.122-2.332" transform="translate(2808.012 36.31)" fill="#31414a"/>
    <path id="Path_2221" data-name="Path 2221" d="M628.095,1125.527a2.234,2.234,0,0,1,.747-1.561,2.313,2.313,0,0,1,1.585-.56,2.229,2.229,0,0,1,1.375,3.894,2.314,2.314,0,0,1-1.585.56,2.242,2.242,0,0,1-2.122-2.332" transform="translate(2812.334 27.9)" fill="#31414a"/>
    <path id="Path_2222" data-name="Path 2222" d="M625.024,1122.8a1.835,1.835,0,0,1,.607-1.272,1.891,1.891,0,0,1,1.289-.455,1.813,1.813,0,0,1,1.119,3.167,1.888,1.888,0,0,1-1.289.456,1.824,1.824,0,0,1-1.727-1.9" transform="translate(2810.624 26.603)" fill="#31414a"/>
    <path id="Path_2223" data-name="Path 2223" d="M619.506,1121.471a1.368,1.368,0,1,1,1.3,1.43,1.388,1.388,0,0,1-1.3-1.43" transform="translate(2807.552 26.098)" fill="#31414a"/>
    <path id="Path_2224" data-name="Path 2224" d="M620.125,1126.556a1.878,1.878,0,0,1,.623-1.306,1.938,1.938,0,0,1,1.326-.467,1.864,1.864,0,0,1,1.149,3.255,1.941,1.941,0,0,1-1.325.467,1.874,1.874,0,0,1-1.773-1.949" transform="translate(2807.896 28.667)" fill="#31414a"/>
    <path id="Path_2225" data-name="Path 2225" d="M627.063,1116.949a1.466,1.466,0,1,1,1.395,1.532,1.486,1.486,0,0,1-1.395-1.532" transform="translate(2811.76 23.528)" fill="#31414a"/>
    <path id="Path_2226" data-name="Path 2226" d="M624.86,1113.484a1.156,1.156,0,1,1,1.1,1.208,1.174,1.174,0,0,1-1.1-1.208" transform="translate(2810.534 21.762)" fill="#31414a"/>
    <path id="Path_2227" data-name="Path 2227" d="M632.745,1115.231a1.509,1.509,0,1,1,1.437,1.577,1.53,1.53,0,0,1-1.437-1.577" transform="translate(2814.924 22.548)" fill="#31414a"/>
    <path id="Path_2228" data-name="Path 2228" d="M643.124,1184.789c-1.476-4.093-3.272-8.1-4.378-12.318-1.546-3.822,2.594-5.533,3.961-2.468.654,1.753.753,3.67,1.543,5.374,1.081,2.673,2.48,5.321,2.972,8.177a2.171,2.171,0,0,1-2.264,2.359,1.982,1.982,0,0,1-1.834-1.124" transform="translate(2818.077 52.97)" fill="#31414a"/>
    <path id="Path_2229" data-name="Path 2229" d="M640.028,1167.566a2.228,2.228,0,0,1,1.98-2.41c.585-.058,1.174-.081,1.759-.139,2.555-.227,5.03-.925,7.583-.991a9.346,9.346,0,0,1,4.129.567,2.129,2.129,0,0,1-.931,3.894,24.371,24.371,0,0,0-5.813.162,54.656,54.656,0,0,1-6.3.9,2.13,2.13,0,0,1-.223.012,2.236,2.236,0,0,1-2.187-1.993" transform="translate(2818.975 50.52)" fill="#31414a"/>
    <path id="Path_2230" data-name="Path 2230" d="M660.284,1117.251a2.211,2.211,0,0,1-.59-2.606,41.923,41.923,0,0,1,2.234-6.635c1.13-3.19,2.581-6.249,3.961-9.336.4-1.242.852-2.465,1.319-3.683a3.225,3.225,0,0,1,1.392-2.16,2.183,2.183,0,0,1,2.925.889c.705,1.326-.193,2.751-.617,4.021-1.155,3.174-2.707,6.187-3.886,9.354-.909,2.532-2.109,4.959-2.823,7.559a5.01,5.01,0,0,1-.8,2.32,2.284,2.284,0,0,1-1.717.783,2.16,2.16,0,0,1-1.395-.5" transform="translate(2829.82 10.735)" fill="#31414a"/>
    <path id="Path_2231" data-name="Path 2231" d="M663.518,1114.453c-.534-1.524.478-2.687,1.913-3.086,1.85-.864,3.539-2.007,5.292-3.045,1.8-1.062,3.715-1.9,5.505-2.98.726-.453,1.439-.923,2.159-1.385a2.149,2.149,0,0,1,3.243,2.172c-.2,1.247-1.476,1.75-2.4,2.4-2.189,1.478-4.649,2.482-6.888,3.881l.019-.009a.343.343,0,0,0-.031.019l-.047.028,0,0a50.284,50.284,0,0,1-4.971,2.874,3.314,3.314,0,0,1-1.734.521,2.108,2.108,0,0,1-2.066-1.39" transform="translate(2831.981 16.882)" fill="#31414a"/>
  </g>
</svg>
