<svg xmlns="http://www.w3.org/2000/svg" width="164.416" height="163.354" viewBox="0 0 164.416 163.354">
  <g id="Group_1148" data-name="Group 1148" transform="translate(-2780.1 -2797.64) rotate(20)">
    <path id="Path_1814" data-name="Path 1814" d="M930,1742.461a9.263,9.263,0,0,1-3.055,7.454c-2.672,2.369-7.167,1.973-10.145.393a17.8,17.8,0,0,1-7.284-6.735c-1.952-3.081-3.749-6.26-5.413-9.5q-1.508-2.91-3.136-5.756c-.559-.861-1.126-1.947-2.174-2.258-2.25,2.059-1.2,6.839-2.366,9.581-1.344,3.476-3.927,4.794-7.5,3.651-4.319-1.353-5.449-6.338-6.18-10.272-.487-2.524-.905-5.06-1.37-7.586-.134-.639-.261-1.292-.432-1.929-.247-.206-.483-.4-.706-.572-.8-.687-1.646-1.306-2.473-1.954-.626-.479-1.231-1.011-1.858-1.509-3.469,1.062-4.907,5.526-6.378,8.553-1.5,3.556-2.674,7.276-4.585,10.642-1.6,2.886-5.052,5.542-8.43,4.01-2-.8-3.335-2.615-4.6-4.283-.975-1.271-1.48-2.9-2.632-4.031-.489-.2-1.037.139-1.513.277a4.972,4.972,0,0,0-2.274,1.792,42.231,42.231,0,0,0-4.584,7.8c-1.505,3.663-2.166,7.914-5.018,10.85-1.208,1.226-2.942,2.289-4.716,1.754-2.156-.631-2.92-3.037-2.718-5.079a24.754,24.754,0,0,1,.754-5.652c1.48-6.156,4.7-11.688,7.582-17.269q1.235-2.569,2.417-5.167c.5-1.692.957-3.4,1.418-5.1.684-2.4,1.483-4.763,2.35-7.1a65.53,65.53,0,0,1,3.144-10.422c1.315-2.957,3.085-5.682,4.429-8.626,1.143-2.454,2.235-4.932,3.391-7.379a85.071,85.071,0,0,1,4.442-7.847q.848-1.594,1.683-3.2c1.755-3.648,3.756-7.437,7.248-9.7a9.671,9.671,0,0,1,4.758-1.722,8.807,8.807,0,0,1,3.6.139,8.312,8.312,0,0,1,3.135,2.191,48.2,48.2,0,0,1,4.329,4.51c3.012,3.488,5.056,7.676,7.552,11.526,1.281,2.35,2.278,4.843,3.524,7.213,1.044,2.016,2.155,4,3.227,6,1.159,1.95,2.245,3.942,3.44,5.87,1.985,3,4.076,5.925,5.972,8.981,1.6,2.4,3.3,4.739,4.934,7.121.731,1.206,1.47,2.575,2.2,3.754a3.815,3.815,0,0,1,.687,1.634c2.848,4.006,5.243,8.326,8.069,12.34,3.089,3.708,6.66,7.619,7.25,12.609" transform="translate(2794.75 -0.001)" fill="#fff"/>
    <path id="Path_1815" data-name="Path 1815" d="M895.75,1700.152c-2.922-.584-1.3-4.714-1.086-6.72.361-2.8.75-5.591,1.082-8.394a110.645,110.645,0,0,1,2.023-12.78,1.9,1.9,0,0,1,3.739.462l-.008-.112-.008-.1c-.051,3.332-1.061,6.585-1.593,9.862-.321,2.017-.465,4.055-.786,6.072-.187,2.889-.852,5.706-1.2,8.569.118,1.484-.306,3.314-2.164,3.139" transform="translate(2816.841 4.176)" fill="#31414a"/>
    <path id="Path_1816" data-name="Path 1816" d="M898.984,1697.011c-.862-2.531,2.573-3.51,4.21-4.553,2.48-1.261,4.944-2.559,7.349-3.952,1.859-1.044,3.821-2.084,5.682-3.072a2.1,2.1,0,0,1,2.163-.183,1.9,1.9,0,0,1,.929,2.114c-.239,1.041-1.33,1.4-2.124,1.941-1.472.988-2.986,1.9-4.529,2.778a83.842,83.842,0,0,1-9,4.856c-1.553.722-3.531,2.253-4.68.071" transform="translate(2818.466 8.948)" fill="#31414a"/>
    <path id="Path_1817" data-name="Path 1817" d="M898.094,1749.157a1.912,1.912,0,0,1,1.314-2.335c.563-.154,1.14-.234,1.713-.342a17.665,17.665,0,0,0,5.62-2.458,10.3,10.3,0,0,0,2.1-10.423c-1.548-3.984-4.883-6.863-7.485-10.141-.65-.644-1.285-1.306-1.963-1.921a5.816,5.816,0,0,1-1.826-1.827,1.886,1.886,0,0,1,1.659-2.648,2.1,2.1,0,0,1,1.627.865,18.337,18.337,0,0,1,2.4,2.122,22.07,22.07,0,0,1,2.27,2.56,51.464,51.464,0,0,1,4.806,5.827,14.63,14.63,0,0,1,2.3,12.748c-1.155,3.335-3.049,6.255-6.5,7.512a23.071,23.071,0,0,1-5.4,1.7,1.969,1.969,0,0,1-2.641-1.235" transform="translate(2817.977 19.737)" fill="#31414a"/>
    <path id="Path_1818" data-name="Path 1818" d="M828.563,1739.833c-2.747-.691-1.188-3.4-.562-5.152q.4-1.1.817-2.2c1.294-3.481,2.032-7.5,3.321-10.922,1.086-3.209,2.593-6.259,3.6-9.493.723-1.87,1.358-3.77,1.932-5.691,1.5-4.227,2.8-8.528,4.533-12.669.473-1.188.666-2.46,1.053-3.675.46-1.3.964-2.588,1.521-3.849a3.594,3.594,0,0,1,1.311-1.929,1.566,1.566,0,0,1,2.242,1.69c-.39,1.825-1.19,3.549-1.684,5.35a33,33,0,0,1-2.029,6.3c-1.954,5.684-3.83,11.394-5.767,17.083-1.152,3.024-2.472,5.985-3.518,9.053-.846,2.691-1.472,5.452-2.329,8.143-.583,1.767-1.261,3.5-1.9,5.25-.436,1.334-.741,2.928-2.545,2.714" transform="translate(2794.264 8.623)" fill="#31414a"/>
    <path id="Path_1819" data-name="Path 1819" d="M814.757,1738.81c-1.235-3.027,3.5-3.493,5.342-4.541a36.127,36.127,0,0,1,6.009-2.338c1.191-.262,2.247-1.254,3.512-.956a1.892,1.892,0,0,1,1.349,1.605c.412,2.666-5.8,3.2-7.671,4.284a47.96,47.96,0,0,1-4.822,2.126c-1.171.735-2.879,1.373-3.719-.18" transform="translate(2790.075 24.406)" fill="#31414a"/>
    <path id="Path_1820" data-name="Path 1820" d="M816.79,1753.24c-2.085-1.441.1-3.583,1.135-4.951,1.239-1.529,2.421-3.1,3.616-4.664,1.163-1.087,5.335-8.957,6.541-4.844a2.22,2.22,0,0,1-.426,2.957,37.8,37.8,0,0,1-3.8,5c-1.3,1.729-2.668,3.4-3.973,5.127-.574,1.15-1.806,2.2-3.094,1.379" transform="translate(2790.535 26.656)" fill="#31414a"/>
    <path id="Path_1821" data-name="Path 1821" d="M868.278,1784.9a206.65,206.65,0,0,1-21.949,1.85c-3.54.094-7.274.03-10.572-1.8-4.21-2.334-6.9-7.353-7.029-13.1-.108-4.869,1.413-9.407,2.884-13.8l.095-.285c3.349-10.006,6.7-20.15,9.957-30.167q.99-3.046,1.96-6.1c2.421-7.574,4.923-15.407,7.946-22.917.321-.792.622-1.587.922-2.382.582-1.535,1.183-3.122,1.914-4.665.65-1.517,1.291-3.118,1.934-4.718.865-2.158,1.76-4.389,2.743-6.564a25.625,25.625,0,0,1,6.455-9.145,21.8,21.8,0,0,1,6.962-4c4.9-1.881,11.182-.114,14.946,2.321a30.974,30.974,0,0,1,4.8,4.1,50.153,50.153,0,0,1,5.989,7.6c1.182,1.718,2.3,3.342,3.549,4.87,1.571,1.917,3.228,3.831,4.83,5.684,2.158,2.493,4.39,5.071,6.474,7.728a207.859,207.859,0,0,1,11.932,17.562c3.049,4.836,6.2,9.839,9.621,14.492.615.835,1.241,1.666,1.868,2.5a61.009,61.009,0,0,1,7.353,11.44h0c.122.271.238.546.353.824,2.456,5.958,2.505,12.038.141,16.683-2.6,5.1-7.64,7.95-11.414,9.445-6.445,2.555-13.312,3.7-19.953,4.8-1.627.271-3.25.541-4.863.832-3.585.644-7.168,1.315-10.753,1.986-9.541,1.786-19.272,3.605-29.1,4.917m7.4-114.473a7.777,7.777,0,0,0-1.747.432,18.12,18.12,0,0,0-5.772,3.286,20.9,20.9,0,0,0-5.429,7.774c-.944,2.088-1.822,4.278-2.674,6.4-.652,1.628-1.307,3.259-2,4.873-.693,1.467-1.239,2.91-1.818,4.438-.312.823-.624,1.647-.955,2.464-2.965,7.368-5.446,15.129-7.844,22.635q-.979,3.062-1.966,6.12c-3.263,10.027-6.615,20.183-9.963,30.183l-.1.306c-1.358,4.06-2.766,8.261-2.674,12.431.092,4.26,2.041,8.06,4.962,9.68,2.417,1.34,5.536,1.375,8.524,1.3,16.963-.442,33.97-3.625,50.415-6.7,3.595-.672,7.188-1.346,10.783-1.99,1.63-.294,3.27-.567,4.914-.84,6.434-1.071,13.086-2.178,19.134-4.573,3.131-1.24,7.288-3.556,9.316-7.538,1.833-3.6,1.734-8.461-.271-13.332-.1-.237-.2-.472-.3-.707a57.27,57.27,0,0,0-6.9-10.674c-.636-.845-1.271-1.69-1.9-2.539-3.5-4.77-6.7-9.832-9.783-14.728a204.964,204.964,0,0,0-11.694-17.226c-2.025-2.581-4.224-5.121-6.351-7.577-1.62-1.873-3.3-3.81-4.9-5.768-1.357-1.658-2.575-3.427-3.751-5.139a46.5,46.5,0,0,0-5.493-7.01,28.061,28.061,0,0,0-4.174-3.6,15.549,15.549,0,0,0-9.586-2.376" transform="translate(2794.847 2.651)" fill="#31414a"/>
  </g>
</svg>
