<svg xmlns="http://www.w3.org/2000/svg" width="177.193" height="157.83" viewBox="0 0 177.193 157.83">
  <g id="Group_1511" data-name="Group 1511" transform="translate(1650.623 -4124.86) rotate(30)">
    <path id="Path_2799" data-name="Path 2799" d="M904.537,1618.659a4.828,4.828,0,0,0-.923-1.969,4.9,4.9,0,0,0-2.3-1.673,4.844,4.844,0,0,0-2.536-.221,5.031,5.031,0,0,0-3.952,5.77,2.142,2.142,0,0,0,.087.278l.077.242a4.92,4.92,0,0,0,1.669,2.445,4.99,4.99,0,0,0,.968.6,4.882,4.882,0,0,0,1.685.425,4.817,4.817,0,0,0,1.284-.043l.369-.12a4.9,4.9,0,0,0,2.536-1.64,5.154,5.154,0,0,0,.631-.976,5.271,5.271,0,0,0,.223-.591,4.9,4.9,0,0,0,.206-2.2Z" transform="translate(-109.575 2818.9)" fill="#fff"/>
    <path id="Path_2800" data-name="Path 2800" d="M866.962,1610.695a4.823,4.823,0,0,0-.923-1.97,4.9,4.9,0,0,0-2.3-1.672,4.847,4.847,0,0,0-2.536-.221,5.031,5.031,0,0,0-3.952,5.771,2.176,2.176,0,0,0,.087.278l.077.242a4.92,4.92,0,0,0,1.669,2.445,5.008,5.008,0,0,0,.968.6,4.9,4.9,0,0,0,1.686.425,4.83,4.83,0,0,0,1.284-.044l.369-.122a4.885,4.885,0,0,0,2.536-1.639,5.143,5.143,0,0,0,.631-.976,5.425,5.425,0,0,0,.223-.591,4.9,4.9,0,0,0,.205-2.2Z" transform="translate(-132.315 2814.08)" fill="#fff"/>
    <path id="Path_2801" data-name="Path 2801" d="M965.838,1655.121a72.406,72.406,0,0,1-3.09-7.45,62.586,62.586,0,0,0-2.7-8.182c-1.4-3.4-2.843-6.785-4.271-10.175a2.885,2.885,0,0,0-.035-1.922c-.7-1.326-1.324-2.7-1.944-4.064-1.962-4.447-3.9-8.9-5.854-13.355.1-.022.189-.066.289-.082.074-.011.149-.019.225-.026-.8-1.618-1.626-3.222-2.393-4.854-1.349-2.637-2.283-4.992-3.731-7.75-.154-.267-.3-.536-.456-.8-.66-1.451-1.311-2.905-1.936-4.374a6.25,6.25,0,0,0-1.36-2.483c-.04-.1-.087-.191-.127-.287-.793-2.05-1.6-4.188-2.453-6.164-.05-.114-.6.885-.624.947a8.571,8.571,0,0,1-.915,1.517,20.185,20.185,0,0,1-3.457,2.857c-3.037,2.451-3.578,5.583-4.875,9.007a2.846,2.846,0,0,1-1.544,1.76,2.721,2.721,0,0,1-2.668-.791,18.3,18.3,0,0,1-1.771-2.329,3.644,3.644,0,0,0-5.26-.968,8.582,8.582,0,0,0-2.5,3.1c-2.66,4.933-3.371,10.573-3.982,16.063-.2,1.811-.191,5.928-.963,9.228-.554,2.366-1.51,4.313-3.236,4.69-1.743.382-3.136-1.45-3.782-3.112-2.97-7.655-.8-16.551-3.674-24.242-1.106-2.966-3.578-4.25-6.186-2.074-2.35,1.96-3.361,5.071-5.483,7.239a3.422,3.422,0,0,1-2.233,1.206,3.118,3.118,0,0,1-2.62-1.893,9.79,9.79,0,0,1-.451-6.341,36.08,36.08,0,0,1,2.621-7.458,25.5,25.5,0,0,0,2.445-7.486,13.394,13.394,0,0,0-.38-5.075c-.708-2.411-2.621-5.138-5.332-5.419-1.424,3.234-2.917,6.44-4.43,9.638a70.878,70.878,0,0,0-5.347,13.328c-1.4,3.943-3.755,7.43-5.681,11.143-2.053,3.694-4.037,7.427-6.312,10.989-3.851,5.812-8.02,11.422-11.4,17.53-1.3,2.348-2.809,4.56-4.313,6.778a39.916,39.916,0,0,0-3.093,4.487,58.738,58.738,0,0,0-3.665,7.461c-1.477,3.739-2.9,7.642-2.572,11.724a10.456,10.456,0,0,0,3.227,7.769c3.169,2.994,7.808,3.157,11.931,3.231.183,0,.364.008.547.008,1.212,0,2.419-.1,3.628-.188,2.08.031,4.156.077,6.238.018,2.9.01,5.788-.312,8.676-.527a72.946,72.946,0,0,1,24.436-.894c5.387.321,10.787.453,16.18.674,2.136.074,4.271.042,6.406.01,2.018-.029,4.034-.059,6.05,0a64.425,64.425,0,0,0,15.5-.657c2.626-.4,5.257-.454,7.869-.985a17.588,17.588,0,0,1,4.222-.077c2.934.162,5.873-.047,8.806-.161,2.257-.048,4.66-.21,6.605-1.464a12.442,12.442,0,0,0,3-3.665c2.912-4.373,2.36-10.05.2-14.62m-100.248,7.946a3.189,3.189,0,1,1,2.549-3.721,3.186,3.186,0,0,1-2.549,3.721m13.979-22.718a4.976,4.976,0,0,1-.732.209,7.9,7.9,0,0,1-1.488.133c-.268,0-.547-.011-.843-.034a8.913,8.913,0,0,1-3.045-.78,9.037,9.037,0,0,1-1.746-1.076l-.011-.008a8.866,8.866,0,0,1-3.024-4.417,7.334,7.334,0,0,1-.271-.955,8.939,8.939,0,0,1,17.572-3.3l.05.469a8.866,8.866,0,0,1-.374,3.963,9.508,9.508,0,0,1-.417,1.066,9.259,9.259,0,0,1-1.128,1.763,8.83,8.83,0,0,1-4.541,2.963m10.5,21.028a3.971,3.971,0,1,1,.782-3.169c0,.006,0,.013,0,.019a3.966,3.966,0,0,1-.782,3.149m21.577-3.043a3.19,3.19,0,1,1,2.549-3.724,3.191,3.191,0,0,1-2.549,3.724m12.069-41.852a3.176,3.176,0,1,1,2.547-3.721,3.186,3.186,0,0,1-2.547,3.721m22.251,30.861a9.513,9.513,0,0,1-.417,1.067,9.3,9.3,0,0,1-1.127,1.761,8.83,8.83,0,0,1-4.542,2.964,5.153,5.153,0,0,1-.731.207,7.942,7.942,0,0,1-1.488.135c-.27,0-.549-.013-.843-.035a8.613,8.613,0,0,1-4.792-1.856l-.011-.008a8.87,8.87,0,0,1-3.026-4.416,7.35,7.35,0,0,1-.271-.956,8.94,8.94,0,0,1,17.574-3.294l.048.467a8.843,8.843,0,0,1-.374,3.963" transform="translate(-147.393 2793.999)" fill="#fff"/>
    <path id="Path_2802" data-name="Path 2802" d="M862.076,1661.582c-11.873-1.233-25.092-10.7-30.84-21.066-6.65-11.683-7.374-28.972,4.067-37.932a36.43,36.43,0,0,1,4.666-3,2.278,2.278,0,0,1,2.222,3.976,30.745,30.745,0,0,0-4.273,2.732c-9.246,7.506-8.331,21.7-3.093,31.32,4.371,8.446,12.536,14.374,21.171,17.967,7.368,2.983,15.622,1.409,22.71-1.632,2.08-1.063,3.958-2.535,6.166-3.344a1.959,1.959,0,0,1,2.467.517c1.124,2.7-3.942,4.652-5.607,6.074a35.807,35.807,0,0,1-19.655,4.384" transform="translate(-150.926 2809.563)" fill="#31414a"/>
    <path id="Path_2803" data-name="Path 2803" d="M847.13,1605.364c-2.2-.04-2.408-2.663-3.241-4.175a92.793,92.793,0,0,1-3.448-11.3,2.3,2.3,0,0,1,3.91-1.9c.9,1.034,1.008,2.462,1.294,3.751.921,2.814,2.019,5.593,2.734,8.477,1.125,1.971,1.893,4.817-1.249,5.146" transform="translate(-142.462 2802.299)" fill="#31414a"/>
    <path id="Path_2804" data-name="Path 2804" d="M848.527,1602.311c-2.61-.854-1.313-3.579-1.022-5.5a58.1,58.1,0,0,1,.581-6.544,25.576,25.576,0,0,0,.4-2.748,4.886,4.886,0,0,1,.5-2.264,2.132,2.132,0,0,1,3.918,1.419l.006,0c-.329,3.564-.4,7.164-.971,10.7-.21,1.127-.4,2.263-.628,3.384a2.282,2.282,0,0,1-2.792,1.555" transform="translate(-138.52 2800.463)" fill="#31414a"/>
    <path id="Path_2805" data-name="Path 2805" d="M878.262,1654.339c-6.374-.841-14.039-8.01-18.429-12.581a173.943,173.943,0,0,1-14.139-17.206c-4.3-5.889-8.743-11.87-11.265-18.774-1.459-4.08.867-7.543,5.379-6.321a15.436,15.436,0,0,1,3.726,1.514,6.342,6.342,0,0,1,3.348,1.236,26.425,26.425,0,0,1,3.6,3.071c3.976,3.852,7.777,7.883,11.5,11.981,4.984,5.637,10.244,11.034,14.9,16.957a55.383,55.383,0,0,1,3.332,4.592c1.7,2.479,3.39,5.113,3.9,8.13.7,4.1-1.141,8.007-5.844,7.4m.92-4.469.193-.024c.043-.01.087-.021.132-.032.851-3.229-1.586-6.136-3.186-8.721a50.952,50.952,0,0,0-3.382-4.583c-3.716-4.649-7.732-9.047-11.79-13.4-3.652-4.178-7.472-8.207-11.349-12.18a66.5,66.5,0,0,0-4.915-4.6,16.456,16.456,0,0,0-6.366-2.653c.889,3.519,2.859,6.644,4.706,9.729,3.14,4.74,6.564,9.294,10.021,13.8q3.992,5.16,8.438,9.93a54.939,54.939,0,0,0,4.414,4.568c3.185,2.864,8.753,7.846,13.084,8.164" transform="translate(-146.345 2809.514)" fill="#31414a"/>
  </g>
</svg>
