<svg xmlns="http://www.w3.org/2000/svg" width="159.208" height="184.268" viewBox="0 0 159.208 184.268">
  <g id="Group_1149" data-name="Group 1149" transform="translate(-3376.258 -1790.061)">
    <path id="Path_1778" data-name="Path 1778" d="M642.411,1833.373a4.088,4.088,0,0,0-.709-1.708,4.208,4.208,0,0,0-7.612,2.96,1.872,1.872,0,0,0,.063.239l.058.209a4.177,4.177,0,0,0,1.325,2.141,4.3,4.3,0,0,0,.8.548,4.171,4.171,0,0,0,1.416.425,4.229,4.229,0,0,0,1.094.013l.317-.091a4.169,4.169,0,0,0,2.219-1.3,4.377,4.377,0,0,0,.572-.806,4.587,4.587,0,0,0,.213-.494,4.155,4.155,0,0,0,.258-1.861Z" transform="translate(2816.147 22.378)" fill="#fff"/>
    <path id="Path_1779" data-name="Path 1779" d="M738.224,1903.481q-.054-.5-.127-1c-.927-6.487-3.613-12.566-5.873-18.718-5.337-14.536-8.379-29.856-14.171-44.217-2.627-6.517-5.8-12.794-8.565-19.25-2.447-5.718-3.7-11.974-6.742-17.382a35.349,35.349,0,0,0-3.9-5.954c-3.31-3.815-9.275-7.3-14.485-6.864a24.488,24.488,0,0,0-8.623,2.1,27.987,27.987,0,0,0-9.661,7.773c-3.193,3.743-6.1,7.714-9.215,11.514-1.989,2.249-3.693,4.733-5.548,7.091-7.539,9.623-14.183,19.956-21.075,30.112q-10.738,15.825-21.614,31.557l-.217.316c-3.077,4.451-6.218,9.014-7.606,14.24s-.7,11.339,3.122,15.179c2.769,2.785,6.72,3.993,10.525,4.988,24.217,6.334,49.247,7.911,74.051,10.5,9.959,1.039,20.064,2.755,30.107,1.792,5.476-.525,11.077-2.344,14.83-6.351,4.255-4.544,5.466-11.214,4.787-17.426M634.16,1887.65a3.188,3.188,0,0,1-.647,1.067,3.432,3.432,0,0,1-1.8,1.066c-.1.023-.188.056-.287.072a3.464,3.464,0,0,1-3.819-2.568,3.362,3.362,0,0,1-.092-.375,3.461,3.461,0,0,1,6.854-.97c.008.058,0,.114.006.172a3.46,3.46,0,0,1-.211,1.536m30.26-28.548a7.827,7.827,0,0,1-.394.891,7.947,7.947,0,0,1-1.025,1.455,7.51,7.51,0,0,1-3.972,2.345,4.11,4.11,0,0,1-.628.148,6.619,6.619,0,0,1-1.27.058c-.228-.011-.464-.031-.714-.061a7.347,7.347,0,0,1-4-1.76l-.009-.006a7.544,7.544,0,0,1-2.4-3.868,6.205,6.205,0,0,1-.194-.822,7.6,7.6,0,0,1,15.057-2.133l.023.4a7.5,7.5,0,0,1-.469,3.352m10.906,30.168a5.926,5.926,0,0,1-3.669,2.039,6.02,6.02,0,0,1-1.11.053,5.917,5.917,0,1,1,6.137-6.741l.037.264-.011.069a5.944,5.944,0,0,1-1.385,4.316m5.735-66.909a3.685,3.685,0,0,1-1.827-1.031,3.533,3.533,0,0,1-.469-.646,3.446,3.446,0,0,1-.437-2.025,3.235,3.235,0,0,1,.039-.385,3.462,3.462,0,0,1,6.782,1.393c-.013.058-.037.108-.052.166a3.459,3.459,0,0,1-.716,1.373,3.165,3.165,0,0,1-.969.788,3.417,3.417,0,0,1-2.057.4c-.1-.011-.2-.01-.3-.03m4.669,87.742a3.7,3.7,0,0,1-.183.411,3.562,3.562,0,0,1-.464.656,3.419,3.419,0,0,1-1.8,1.064,2.894,2.894,0,0,1-.286.072,3.419,3.419,0,0,1-.9,0,3.463,3.463,0,0,1-1.164-.352,3.65,3.65,0,0,1-.659-.45,3.441,3.441,0,0,1-1.092-1.76,2.987,2.987,0,0,1-.092-.377,3.461,3.461,0,0,1,6.854-.969c.008.058,0,.114.006.172a3.465,3.465,0,0,1-.211,1.536m6.049-63.038a5.921,5.921,0,1,1,1.05.319,5.926,5.926,0,0,1-1.05-.319m6.981,26.678a3.487,3.487,0,0,1-.183.411,3.532,3.532,0,0,1-.464.658,3.421,3.421,0,0,1-1.8,1.064c-.1.023-.187.058-.287.072a3.419,3.419,0,0,1-.9,0,3.5,3.5,0,0,1-1.164-.352,3.582,3.582,0,0,1-.658-.45,3.432,3.432,0,0,1-1.094-1.761,3.271,3.271,0,0,1-.092-.375,3.461,3.461,0,0,1,6.854-.969c.008.058,0,.114.006.172a3.452,3.452,0,0,1-.211,1.534m9.709,36a7.6,7.6,0,1,1-2.13-15.055,4.843,4.843,0,0,1,.719-.041l.308,0,1.139.077a7.583,7.583,0,0,1-.036,15.016" transform="translate(2797.064 -0.001)" fill="#fff"/>
    <path id="Path_1780" data-name="Path 1780" d="M670.993,1859.217l-.975-.058-.066.006a1.436,1.436,0,0,0-.244.006,4.321,4.321,0,1,0,1.285.045" transform="translate(2834.174 38.881)" fill="#fff"/>
    <path id="Path_1781" data-name="Path 1781" d="M648.76,1851.574a2.555,2.555,0,0,0-2.369-2.082,2.584,2.584,0,0,0-.464.022,2.565,2.565,0,0,0-2.139,2.847h0a2.449,2.449,0,0,0,.3.867,2.517,2.517,0,0,0,4.687-1.563Z" transform="translate(2821.612 33.44)" fill="#fff"/>
    <path id="Path_1782" data-name="Path 1782" d="M663.59,1824.448a2.52,2.52,0,0,0-1.51-2.838,2.519,2.519,0,1,0-1.464,4.8,2.519,2.519,0,0,0,2.974-1.96" transform="translate(2829.961 17.646)" fill="#fff"/>
    <path id="Path_1783" data-name="Path 1783" d="M642.457,1907.073c-1.481-4.108-3.285-8.132-4.394-12.364-1.552-3.836,2.6-5.554,3.976-2.477.656,1.76.758,3.683,1.549,5.395,1.085,2.685,2.489,5.341,2.983,8.207a2.18,2.18,0,0,1-2.272,2.367,1.989,1.989,0,0,1-1.841-1.128" transform="translate(2818.211 56.6)" fill="#31414a"/>
    <path id="Path_1784" data-name="Path 1784" d="M639.344,1889.8a2.236,2.236,0,0,1,1.988-2.419c.588-.058,1.178-.081,1.766-.139,2.564-.228,5.049-.928,7.612-1a9.391,9.391,0,0,1,4.144.569,2.138,2.138,0,0,1-.935,3.91,24.388,24.388,0,0,0-5.835.161,54.846,54.846,0,0,1-6.321.9,2.143,2.143,0,0,1-.224.012,2.244,2.244,0,0,1-2.2-2" transform="translate(2819.118 54.124)" fill="#31414a"/>
    <path id="Path_1785" data-name="Path 1785" d="M656.516,1823.764a2.219,2.219,0,0,1-.592-2.616,42.094,42.094,0,0,1,2.243-6.66c1.135-3.2,2.591-6.273,3.975-9.372.4-1.247.855-2.474,1.324-3.7a3.237,3.237,0,0,1,1.4-2.167,2.191,2.191,0,0,1,2.936.892c.708,1.331-.194,2.761-.619,4.036-1.16,3.187-2.718,6.21-3.9,9.389-.913,2.541-2.118,4.977-2.833,7.587a5.03,5.03,0,0,1-.806,2.328,2.292,2.292,0,0,1-1.724.786,2.167,2.167,0,0,1-1.4-.506" transform="translate(2828.341 5.029)" fill="#31414a"/>
    <path id="Path_1786" data-name="Path 1786" d="M659.747,1820.914c-.536-1.53.48-2.7,1.921-3.1,1.857-.867,3.552-2.014,5.312-3.057,1.805-1.066,3.729-1.91,5.526-2.991.728-.453,1.444-.927,2.167-1.391a2.157,2.157,0,0,1,3.255,2.18c-.2,1.252-1.481,1.757-2.408,2.413-2.2,1.483-4.666,2.491-6.913,3.9l.019-.009a.3.3,0,0,0-.031.019.529.529,0,0,0-.047.03h0a50.668,50.668,0,0,1-4.985,2.882,3.324,3.324,0,0,1-1.739.522,2.115,2.115,0,0,1-2.075-1.394" transform="translate(2830.524 11.242)" fill="#31414a"/>
    <path id="Path_1787" data-name="Path 1787" d="M676.459,1925.567c9.712-.439,19.66-.25,29.163-2.623,5.182-1.294,10.3-3.849,13.322-8.239,3.43-4.976,3.63-11.554,2.081-17.419-.084-.316-.172-.63-.266-.941-1.825-6.093-5.282-11.542-8.339-17.123-7.221-13.186-12.355-27.454-19.987-40.407-3.461-5.876-7.414-11.445-11-17.244-3.174-5.137-5.277-10.963-8.979-15.715a34.263,34.263,0,0,0-4.607-5.154c-3.729-3.185-9.958-5.674-14.9-4.5a23.8,23.8,0,0,0-7.976,3.258,27.149,27.149,0,0,0-8.154,8.857c-2.525,4.054-4.74,8.286-7.185,12.385-1.586,2.446-2.863,5.076-4.3,7.609-5.848,10.326-10.737,21.206-15.888,31.95q-8.026,16.744-16.2,33.417l-.164.333c-2.313,4.719-4.669,9.553-5.248,14.771s.966,10.988,5.187,14.122c3.061,2.272,7.029,2.863,10.825,3.269" transform="translate(2790.075 3.288)" fill="none" stroke="#31414a" stroke-linecap="round" stroke-miterlimit="10" stroke-width="3"/>
    <path id="Path_1788" data-name="Path 1788" d="M618.636,1924.892c-2.261-.731-3.729-2.847-4.685-4.915-1.73-3.752-1.65-7.97-1.33-12,.3-3.99.18-7.995.372-11.989.061-1.854.041-3.707.006-5.56-.138-2.713.014-5.874-1.992-7.976-1.555-1.1-3.8-.275-5.594-.555-.927-.086-2.608-.385-2.347-1.633.245-.641.966-.817,1.557-1,.749-.261,1.528-.527,2.288-.709,3.271-1.11,6.6-.447,8.429,2.671,2.652,4.19,1.947,11.6,1.91,16.512-.014,4.636-.211,9.267-.431,13.9a16.688,16.688,0,0,0,.472,4.626c.414,1.781,2.486,6.607,4.338,3.383,1.919-3.444,2.285-7.44,2.355-11.208,0-2.843-.3-5.695-.044-8.531.428-3.336,1.38-7.087,4.14-9.256,2.055-1.46,4.58-.4,5.705,1.672,1.146,1.817,1.256,4.021,2.055,5.974.833,2.139,1.592,2.014,2.922.308,1.624-1.9,1.013-4.493.788-6.754-.333-3.74-1.53-8.543,1.4-11.528a8.42,8.42,0,0,1,4.771-2.68c1.274-.194,2.566-.538,3.424.753a2.23,2.23,0,0,1-.6,3.075,6.945,6.945,0,0,1-2.541.625c-2.791,1.137-2.618,2.789-2.507,5.4.194,3.744,1.5,7.667.156,11.319-1.589,4.035-6.11,7.646-10.031,4.086-2.269-2.141-2.349-5.426-3.513-8.129-3.383,5.326-1.063,11.9-2,17.768-.491,4.966-2.718,14.313-9.475,12.359" transform="translate(2798.694 49.172)" fill="#31414a"/>
  </g>
</svg>
