<svg xmlns="http://www.w3.org/2000/svg" width="187.117" height="174.256" viewBox="0 0 187.117 174.256">
  <g id="Group_1317" data-name="Group 1317" transform="matrix(0.588, 0.809, -0.809, 0.588, 102.315, -16.317)">
    <path id="Path_2827" data-name="Path 2827" d="M929.855,118.59a5.45,5.45,0,0,1-4.42-2.507,4.142,4.142,0,0,1-6.172-3.941,5.685,5.685,0,0,1,2.691-3.846,3.913,3.913,0,0,1,4.633-.184,2.094,2.094,0,0,1,1.774-.3,1.98,1.98,0,0,1,1.007.7,3.259,3.259,0,0,1,1.005-.187,3.838,3.838,0,0,1,1.08-.4,3.133,3.133,0,0,0,1.051-.237,7.948,7.948,0,0,1,6.266.712,4.611,4.611,0,0,1,.292,8.139,5.465,5.465,0,0,1-4.81-.408,4.259,4.259,0,0,1-4.4,2.459" transform="translate(-788.121 -58.698)" fill="#fff"/>
    <path id="Path_2828" data-name="Path 2828" d="M930.275,114.328c-1.164-.7-1.37-2.126-1.611-3.345a2.352,2.352,0,0,1-1.77,1.265c.489.219.282.892-.126,1.09-1.3.472-2.744-.5-3.476-1.534a5.275,5.275,0,0,1-.548-5.113c1.427-2.611,4.494-4.647,7.537-4.211,2.139.508,3.535,2.637,3.9,4.707.566,2.324-.285,8.89-3.9,7.141" transform="translate(-786.805 -60.806)" fill="#fff"/>
    <path id="Path_2829" data-name="Path 2829" d="M945.508,109.093a3.709,3.709,0,0,1-1.7-.555,3.646,3.646,0,0,1-1.035-.869c-2.74.5-4.563-2.735-3.591-5.092.386-1.23,1.333-2.558,2.74-2.581a4.906,4.906,0,0,1,3.519-4.018,3.024,3.024,0,0,1,3.759,3.17,6.656,6.656,0,0,1-1.085,2.938c2.6,2.181.832,7.117-2.6,7.007" transform="translate(-779.661 -63.629)" fill="#fff"/>
    <path id="Path_2830" data-name="Path 2830" d="M925.409,99.274a6.49,6.49,0,0,1-.841-1.064c-.049-.076-.094-.153-.137-.23-3-.385-2.517-3.678-.369-4.949.16-2.392,2.766-4.843,5.218-4.125a3.914,3.914,0,0,1,1.664,5.824c2.324,3.552-2.438,7.614-5.535,4.544" transform="translate(-786.797 -66.671)" fill="#fff"/>
    <path id="Path_2831" data-name="Path 2831" d="M929.749,133.947a4.318,4.318,0,0,1-2.7-2.538,4.882,4.882,0,0,1-.366-2.365,2.821,2.821,0,0,1-1.333-3.336,3.94,3.94,0,0,1,1.118-2.152,2.748,2.748,0,0,1,3.285-.056c4.557-4.3,9.5.832,4.17,4.806.393,1.368.751,2.958-.087,4.231a3.634,3.634,0,0,1-4.082,1.41" transform="translate(-785.552 -52.444)" fill="#fff"/>
    <path id="Path_2832" data-name="Path 2832" d="M963.093,178.887a64.062,64.062,0,0,1-2.753-6.635,55.764,55.764,0,0,0-2.411-7.29c-1.351-3.292-2.753-6.562-4.131-9.842-.5-1.285-.964-2.585-1.41-3.889a4.7,4.7,0,0,1-1.348-.255,3.826,3.826,0,0,1-.991-.495,4.021,4.021,0,0,1-.932-.961,4.091,4.091,0,0,1-.749-2.159,6.2,6.2,0,0,1,.006-.711c-.137,0-.27-.011-.4-.027a5.188,5.188,0,0,1-.9-.179,3.758,3.758,0,0,1-1.281-.694,4.416,4.416,0,0,1-.969-1.068,3.479,3.479,0,0,1-.382-.786,4.609,4.609,0,0,1-.154-.776,5.2,5.2,0,0,1,.026-1.406,3.177,3.177,0,0,1,.509-1.43,4.453,4.453,0,0,1,.731-.772,4.1,4.1,0,0,1,1.065-.692,3.639,3.639,0,0,1,.791-.224c.066-.01.133-.017.2-.021-.709-1.441-1.45-2.871-2.132-4.326-1.2-2.348-2.033-4.446-3.323-6.9-.192-.329-.378-.659-.563-.992a6.755,6.755,0,0,1,.555,1.773,5.955,5.955,0,0,1,.162,1.636,6.858,6.858,0,0,1-.375,1.632,5.392,5.392,0,0,1-.533,1.164,6.208,6.208,0,0,1-.889,1.1,8.694,8.694,0,0,1-1.566,1.233,1.564,1.564,0,0,1,.006.183v-.014a5.592,5.592,0,0,1-.076,1.135,8.787,8.787,0,0,1-.914,2.505,7.527,7.527,0,0,1-.792,1.18,6.558,6.558,0,0,1-1.077,1.011,6.074,6.074,0,0,1-.568.375,3.484,3.484,0,0,1-1.993.6,5.038,5.038,0,0,1-1.466-.229,4.384,4.384,0,0,1-1.486-.879,6.306,6.306,0,0,1-.792-.8,4.141,4.141,0,0,1-.6-.962,3.444,3.444,0,0,1-.257-1.018,8.26,8.26,0,0,1,.009-1.343c.011-.166.029-.333.053-.5l-.02,0a3.635,3.635,0,0,1-1.391-.5,2.289,2.289,0,0,1-.984-1.263,3.337,3.337,0,0,1-.084-1.243,5.37,5.37,0,0,1,.2-1.112,5.127,5.127,0,0,1,.3-.736,5.6,5.6,0,0,1,.792-1.164,6.335,6.335,0,0,1,.947-.941,3.875,3.875,0,0,1,1.458-.778,2.592,2.592,0,0,1,.6-.069,3.836,3.836,0,0,1,1.251.233,3.813,3.813,0,0,1,.582-1.293,8.141,8.141,0,0,1,.855-1,5.59,5.59,0,0,1,1.083-.894,5.738,5.738,0,0,1,1.275-.573c.43-.142.864-.267,1.307-.367a4.049,4.049,0,0,1,1.168-.05,3.771,3.771,0,0,1,.642.1,4.408,4.408,0,0,1,1.833.854,3.092,3.092,0,0,1,.663.791,54.723,54.723,0,0,1-2.77-5.866,102.1,102.1,0,0,0-5.738-12.808c-2.169-3.659-3.957-7.519-6-11.246-1.79-3.136-3.325-6.412-5.036-9.589a42.75,42.75,0,0,0-8.153-10.487c-4.666-4.732-10.33-3.041-14.223,1.654a57.614,57.614,0,0,0-5.933,9.506,49.562,49.562,0,0,0-2.551,6.611c-.719,1.8-1.564,3.545-2.288,5.342-2.075,5.289-4.443,10.444-6.872,15.579a63.081,63.081,0,0,0-4.763,11.871c-1.247,3.512-3.344,6.621-5.06,9.928-1.83,3.289-3.6,6.615-5.624,9.789-3.429,5.178-7.144,10.175-10.157,15.616-1.155,2.092-2.5,4.061-3.842,6.039a35.537,35.537,0,0,0-2.757,4,52.4,52.4,0,0,0-3.263,6.646c-1.315,3.332-2.581,6.809-2.292,10.444a9.322,9.322,0,0,0,2.874,6.922c2.824,2.665,6.957,2.811,10.63,2.877.162,0,.325.007.488.007,1.08,0,2.155-.09,3.23-.167,1.854.029,3.7.07,5.557.016,2.584.01,5.158-.277,7.73-.469a65.007,65.007,0,0,1,21.766-.8c4.8.287,9.609.4,14.414.6,1.9.066,3.806.037,5.708.01,1.8-.027,3.593-.054,5.389,0a57.475,57.475,0,0,0,13.81-.586c2.339-.355,4.683-.4,7.008-.877a15.677,15.677,0,0,1,3.762-.07c2.614.144,5.232-.041,7.844-.142a7.85,7.85,0,0,0,8.559-4.569c2.594-3.9,2.1-8.954.18-13.025m-97.262,5.592a2.842,2.842,0,1,1,2.269-3.316,2.842,2.842,0,0,1-2.269,3.316m10.983-32.2a4.946,4.946,0,1,1,7.933-4.819c.016.084.01.166.021.249a4.976,4.976,0,0,1-.206,2.215,4.533,4.533,0,0,1-.859,1.573,4.915,4.915,0,0,1-2.521,1.644c-.137.04-.265.094-.407.122a5.306,5.306,0,0,1-2.987-.38,5.025,5.025,0,0,1-.974-.6m3,18.284a2.364,2.364,0,0,1-.455-.666,2.565,2.565,0,0,1-.236-1.231,4.716,4.716,0,0,1,.11-.718,2.585,2.585,0,0,1,.377-.851c.086-.132.176-.257.273-.383a3.926,3.926,0,0,1,.382-.448c.129-.124.26-.243.4-.355a4.323,4.323,0,0,1,.47-.356,1.449,1.449,0,0,1,.685-.247.651.651,0,0,1,.283.064.44.44,0,0,1,.234.359,1.965,1.965,0,0,1,.5.287,2.082,2.082,0,0,1,.639,1.038,4.225,4.225,0,0,1,.2,1.273,3.64,3.64,0,0,1-.04.625,4.111,4.111,0,0,1-.319,1.165,2.031,2.031,0,0,1-1.074,1.032,1.982,1.982,0,0,1-.722.134,2.335,2.335,0,0,1-1.015-.243,2.547,2.547,0,0,1-.686-.48m7.823,12.41a3.539,3.539,0,1,1,.695-2.824v.017a3.535,3.535,0,0,1-.7,2.807m29.708-57.993a2.576,2.576,0,0,1,.585-1.065,1.477,1.477,0,0,1,.319-.252,1.14,1.14,0,0,1,.43-.172.966.966,0,0,1,.182-.017,1.052,1.052,0,0,1,.116.007,1.714,1.714,0,0,1,.695-.1,2.185,2.185,0,0,1,1.5.816,1.834,1.834,0,0,1,.029,2.195,2.242,2.242,0,0,1-1.765.922,1.747,1.747,0,0,1-.355-.036,2.616,2.616,0,0,1-.979-.39,1.931,1.931,0,0,1-.754-1.909m-4.31-26.372a2.842,2.842,0,1,1-2.269,3.316,2.842,2.842,0,0,1,2.269-3.316m-2.166,33.839a3.55,3.55,0,1,1-2.837,4.144,3.551,3.551,0,0,1,2.837-4.144M895.9,113.833a2.836,2.836,0,1,1-2.269,3.316,2.833,2.833,0,0,1,2.269-3.316m-1.948,34.418a1.374,1.374,0,0,1,.588-.635,1.277,1.277,0,0,1,1.032-.947.233.233,0,0,1,.044-.006l-.034.006a1.4,1.4,0,0,1,1,.134,1.3,1.3,0,0,1,.641,1.257,2,2,0,0,1-.812,1.275,2.118,2.118,0,0,1-1.28.472,1.266,1.266,0,0,1-.907-.349,1.116,1.116,0,0,1-.269-1.208m10.936,22.3a3.386,3.386,0,0,1-.616.99,3.829,3.829,0,0,1-.714.591c-.077.051-.156.1-.233.149a4.806,4.806,0,0,1-.425,1.893,4.931,4.931,0,0,1-.545.9,4.272,4.272,0,0,1-.591.613,2.853,2.853,0,0,1-1.334.661,2.654,2.654,0,0,1-.462.041,2.585,2.585,0,0,1-.794-.124,3.111,3.111,0,0,1-.981-.472,2.826,2.826,0,0,1-1.021-1.533,2.3,2.3,0,0,1-.064-.442,2.812,2.812,0,0,1-.692-.154,2.665,2.665,0,0,1-1-.585c-.911-.915-.452-2.4.156-3.345a5.076,5.076,0,0,1,.824-.978,2.874,2.874,0,0,1,.828-.543,2.809,2.809,0,0,1,.672-.177c.123-.02.253-.039.385-.049a2.387,2.387,0,0,1,.11-.6,2.956,2.956,0,0,1,.636-1.091,3.038,3.038,0,0,1,.977-.689,3.131,3.131,0,0,1,.806-.253,2.988,2.988,0,0,1,.49-.04,3.4,3.4,0,0,1,.827.106,2.968,2.968,0,0,1,1.712,1.207c.041.059.082.117.121.179q.084.067.163.142a3.4,3.4,0,0,1,.759,3.609m10.069,10.862a3.524,3.524,0,0,1-5.81-.309,3.47,3.47,0,0,1-.473-1.207,3.55,3.55,0,1,1,6.979-1.307.073.073,0,0,0,0,.017,3.532,3.532,0,0,1-.7,2.805m7.95-30.2a6.387,6.387,0,0,1-.682,1.75l.006-.007h0l-.012.019h0l0-.007-.02.04,0,0h0l0,.007c-.01.021-.021.041-.031.061.009-.017.017-.034.027-.051-.142.257-.29.508-.45.754a10.08,10.08,0,0,1-.635.844c.017-.019.031-.037.047-.056-.029.034-.056.069-.086.1l-.011.013,0,.006h0l-.016.017c-.13.153-.26.3-.4.445l-.026.026-.027.029a10.029,10.029,0,0,1-1.431,1.125,5.241,5.241,0,0,1,.34.542,8.007,8.007,0,0,1,.563,1.33,4.782,4.782,0,0,1,.187,1.431,5.092,5.092,0,0,1-.136,1.347,7.036,7.036,0,0,1-.5,1.307c-.047.094-.11.184-.166.273a3.19,3.19,0,0,1-.6.7,4.605,4.605,0,0,1-.644.47,2.783,2.783,0,0,1-1.414.377c-.086,0-.17,0-.256-.011a5.7,5.7,0,0,1-.729-.124,3.654,3.654,0,0,1-1.4-.662,4.594,4.594,0,0,1-.9-.884c-.077.082-.157.16-.24.235a3.715,3.715,0,0,1-.63.478,3.792,3.792,0,0,1-1.108.416,3.909,3.909,0,0,1-.9.056,7.608,7.608,0,0,1-.766-.06,5.219,5.219,0,0,1-1.353-.408,4.173,4.173,0,0,1-1.27-.892,4.923,4.923,0,0,1-.751-.944,4.13,4.13,0,0,1-.533-1.424,6.383,6.383,0,0,1-.083-1.247,6.023,6.023,0,0,1,.17-1.383c.046-.183.107-.366.172-.545.053-.146.106-.293.166-.438l-.126-.02a4.638,4.638,0,0,1-2.518-1.378,3.385,3.385,0,0,1-.889-1.66,7.327,7.327,0,0,1,.021-2.624,4,4,0,0,1,.333-.984,6,6,0,0,1,.393-.666,4.236,4.236,0,0,1,1.05-1,6.685,6.685,0,0,1,1.175-.641l-.077.033.107-.046a.272.272,0,0,1-.03.013,6.748,6.748,0,0,1,1.263-.376,4.163,4.163,0,0,1,.832-.053,4.689,4.689,0,0,1,.749.064,5.472,5.472,0,0,1,1.311.389,6.047,6.047,0,0,1,1.08.681,7.547,7.547,0,0,1,.848.721c.185-.21.373-.416.562-.623l-.027.03c.01-.013.021-.024.033-.037l.019-.02.009-.009h0a.166.166,0,0,1,.021-.024l-.007.009a18.876,18.876,0,0,1,2.172-2.171,8.889,8.889,0,0,1,1.313-.911,5.408,5.408,0,0,1,1.428-.532c.22-.049.439-.092.661-.129a3.867,3.867,0,0,1,1.858.164,4.717,4.717,0,0,1,1.047.506,3.6,3.6,0,0,1,.939.972,6.349,6.349,0,0,1,.785,1.652,7.168,7.168,0,0,1,.2,3.6m9.49,27.783a4.97,4.97,0,1,1-1.832-9.771,4.439,4.439,0,0,1,.562-.046c.319.007.636.013.958.021a4.956,4.956,0,0,1,.312,9.795m14.535-21.083-.01.043a4.214,4.214,0,0,1-.769,1.849,3.91,3.91,0,0,1-.889.8,4,4,0,0,1-.714.4,5.28,5.28,0,0,1-.868.265,3.478,3.478,0,0,1-1.217,0,7.414,7.414,0,0,1-1.164-.267,1.1,1.1,0,0,0-2.159-.173,5.138,5.138,0,0,1-1.1.884,3.748,3.748,0,0,1-1,.449,4.163,4.163,0,0,1-1,.147,2.57,2.57,0,0,1-.375-.027,2.778,2.778,0,0,1-.8-.243,2,2,0,0,1-.7-.568,3.587,3.587,0,0,1-.426-.662,4.316,4.316,0,0,1-.36-.987,4.361,4.361,0,0,1-.067-.955,3.172,3.172,0,0,1,.084-.656,3.748,3.748,0,0,1,.286-.914,4.031,4.031,0,0,1,1.134-1.4,5.593,5.593,0,0,1,.9-.542,3.656,3.656,0,0,1-.345-.689,11.1,11.1,0,0,1-.373-1.207,6.079,6.079,0,0,1-.133-.756,4.29,4.29,0,0,1,.239-1.786,4.136,4.136,0,0,1,.834-1.37,3.52,3.52,0,0,1,.887-.765,3.228,3.228,0,0,1,1.387-.45c.069,0,.137-.006.207-.006a2.992,2.992,0,0,1,1.749.556,4.126,4.126,0,0,1,1.288,1.453,8.652,8.652,0,0,1,.562,1.453c.074.255.146.51.21.766.137-.009.273-.013.41-.013h.074a3.725,3.725,0,0,1,1.5.35l-.049-.024c.033.016.067.03.1.049a.411.411,0,0,0-.05-.024,4.528,4.528,0,0,1,1.154.828,6.492,6.492,0,0,1,.917,1.11,4.319,4.319,0,0,1,.581,1.188,4.493,4.493,0,0,1,.147.754,4.135,4.135,0,0,1-.086,1.155Z" transform="translate(-820.423 -73.318)" fill="#fff"/>
    <path id="Path_2833" data-name="Path 2833" d="M835.554,124.888c-.965-.475-1.634-.749-2.554-1.177-.915-.36-1.812-.772-2.7-1.2-.934-.469-2.085-.842-2.628-1.795a1.087,1.087,0,0,1,1.028-1.51,19.756,19.756,0,0,1,4.213,1.3c1.81.6,3.545,1.393,5.3,2.135,1.268-2.252,2.219-4.659,3.312-7,1.081-2.318,1.63-3.882,4.4-2.241,1.409.619,2.625,1.449,3.945,2.091.708.282,1.446.488,2.141.806.676-2.2,2.058-4.1,2.768-6.287.531-1.644.935-3.922,3.234-3.209a29.254,29.254,0,0,0,3.042.779,54.557,54.557,0,0,1,7.681,2.877c1.238-2.847,3.056-5.4,4.43-8.178a9.219,9.219,0,0,1,1.081-2.321c.964-1.068,2.142-.766,3.26-.144a27.1,27.1,0,0,1,3.51,1.351c1.43.565,2.92.974,4.294,1.674,1.561-3.239,3.4-6.335,5.165-9.466a1.635,1.635,0,0,1,2.936.645c.164.919-.6,1.612-.99,2.365-.915,1.644-1.855,3.275-2.757,4.927-.458.857-.9,1.722-1.317,2.6-.415.938-.9,2.046-1.968,2.357-1.24.385-2.342-.565-3.433-1-1.338-.533-2.728-.927-4.032-1.547-.812-.382-1.693-.571-2.524-.9A54.344,54.344,0,0,1,873.4,108.4c-.525.935-1.065,1.856-1.5,2.836-.376.938-.815,2.162-1.792,2.547a1.758,1.758,0,0,1-.618.122c-1.334-.007-2.508-.785-3.7-1.291-1.587-.583-3.156-1.225-4.763-1.746-.967-.27-1.959-.443-2.934-.685a35.432,35.432,0,0,1-2.547,5.785c-.706,1.775-1.074,4.6-3.691,3.754-.9-.375-1.8-.791-2.741-1.081-1.54-.6-2.877-1.6-4.387-2.266-1.247,2.522-2.276,5.143-3.608,7.629a3.375,3.375,0,0,1-1.8,1.862,2.38,2.38,0,0,1-.716.112,8.555,8.555,0,0,1-3.043-1.084" transform="translate(-827.526 -64.993)" fill="#31414a"/>
    <path id="Path_2834" data-name="Path 2834" d="M891.8,168.047c-.315-.815-.636-1.626-.935-2.447-1.128-3.449-2.4-6.845-3.543-10.287-2.382-7.017-4.2-14.209-6.153-21.35-1.34-5.469-2.544-10.834-3.951-16.171-1.335-5.478-2.5-10.985-3.931-16.437-.359-1.837-.592-3.7-1.008-5.525-.087-.43-.179-.859-.265-1.291-.1-.485-.232-1.138.166-1.527.944-.9,1.915.275,2.192,1.187a35.3,35.3,0,0,1,1.65,6.067c1.657,5.519,2.857,11.2,4.225,16.789v0c.007.027.014.054.02.081,0-.017-.007-.036-.013-.053,1.347,5.09,2.447,9.889,3.626,14.887,1,3.7,1.968,7.408,2.983,11.1,1.594,5.489,3.214,10.976,5.255,16.318.764,2.029,1.363,4.181,2.155,6.186.373.959.773,1.908,1.147,2.866a1.637,1.637,0,0,1-.937,1.99c-.041.014-.084.03-.127.041a2.323,2.323,0,0,1-.546.072c-1.288,0-1.561-1.384-2.01-2.5" transform="translate(-808.468 -64.99)" fill="#31414a"/>
    <path id="Path_2835" data-name="Path 2835" d="M863.8,183.413a1.575,1.575,0,0,1-.861-.741c-.462-.819-.924-1.636-1.381-2.459-1.822-3.123-3.553-6.294-5.236-9.493-3.521-6.608-6.828-13.338-9.832-20.195-2.432-5.126-4.679-10.341-7.217-15.416-1.656-3.362-3.453-6.648-5.076-10.025a51.15,51.15,0,0,0-3.559-6.985c-.8-1.288-1.527-2.621-2.326-3.909-.453-.689-1.052-1.521-.626-2.359.595-1.032,1.809-.732,2.431.127a30.518,30.518,0,0,1,2.417,3.509,35.3,35.3,0,0,1,2.838,4.815c3.08,6.8,6.889,13.248,9.886,20.09,1.519,3.473,3.234,6.856,4.739,10.335,2.275,5.242,4.89,10.33,7.454,15.436,2.163,4,4.257,8.028,6.576,11.933.492.842.949,1.7,1.446,2.54a1.949,1.949,0,0,1,.4,1.823,1.617,1.617,0,0,1-.939.957,1.639,1.639,0,0,1-.6.116,1.5,1.5,0,0,1-.533-.1" transform="translate(-827.542 -57.042)" fill="#31414a"/>
    <path id="Path_2836" data-name="Path 2836" d="M852.52,167.365c.223-.675.938-.975,1.516-1.281a19.961,19.961,0,0,1,2.507-1.121c.519-.2,1.04-.409,1.549-.638,1.795-.871,3.678-1.549,5.448-2.471,4.408-2.236,9.011-4.044,13.547-6,2.387-1.054,4.816-2.008,7.244-2.96,2.271-.889,4.541-1.78,6.781-2.755,2.263-1.015,4.56-1.96,6.786-3.053,1.148-.483,2.309-1.04,3.462-1.473a2.7,2.7,0,0,1,1.064-.342,1.635,1.635,0,0,1,1.261,2.713,5.463,5.463,0,0,1-1.782.892,8.378,8.378,0,0,0-1.22.512c-4.586,2-9.46,4.275-14.069,6-3.675,1.371-7.264,2.958-10.886,4.466-2.68,1.145-5.388,2.208-8.016,3.47-1.689.7-3.287,1.606-4.975,2.316-.7.272-1.386.563-2.076.854-.642.273-1.286.545-1.935.8q-.356.142-.714.273c-.748.267-1.5.5-2.248.776a7.96,7.96,0,0,1-2.068.629h-.056a1.216,1.216,0,0,1-1.121-1.612" transform="translate(-816.835 -42.385)" fill="#31414a"/>
    <path id="Path_2837" data-name="Path 2837" d="M873.7,125.428a67.64,67.64,0,0,0-7.962,2.2c-2.078.7-4.22,1.321-6.27,2.131a21.069,21.069,0,0,0-5.017,2.7,14.069,14.069,0,0,0-2.55,2.441,9.429,9.429,0,0,0-1.787,2.5c-.812,2.417.648,4.3,2.843,5.2a10.868,10.868,0,0,0,3.5.968c4.135,0,7.949-1.238,11.733-2.651,1.553-.578,3.131-1.072,4.627-1.8a33.277,33.277,0,0,0,7.81-3.8c2.673-1.949,5.765-5.352,3.934-8.805a9.655,9.655,0,0,0-5.542-1.689c-.214-.01-.43-.014-.648-.014a18.875,18.875,0,0,0-4.673.625m-17.707,21.359a13.245,13.245,0,0,1-3.337-.862c-3.944-1.267-6.835-4.627-5.773-8.928a8.08,8.08,0,0,1,2.006-3.512,20.011,20.011,0,0,1,6.885-5.582,68.7,68.7,0,0,1,8.61-3.2,78.525,78.525,0,0,1,8.914-2.454,19.131,19.131,0,0,1,3.317-.575c3.152-.235,6.542.086,9.262,1.813a4.755,4.755,0,0,1,2.2,3.426c1.381,5.611-3.831,10.32-8.364,12.645a27.383,27.383,0,0,1-4.428,1.988c-.608.22-1.2.483-1.79.745-.47.209-.939.416-1.416.6-.39.154-.786.295-1.191.412a50.4,50.4,0,0,1-11.3,3.212,9.034,9.034,0,0,1-2.455.33,9.944,9.944,0,0,1-1.147-.066" transform="translate(-819.322 -52.557)" fill="#31414a"/>
    <path id="Path_2838" data-name="Path 2838" d="M850.863,139.878c-.233-.679-.483-1.356-.768-2.016-1.125-2.565-2.292-5.112-3.4-7.683-1.019-2.671-2.181-5.279-3.33-7.9-.7-1.8-1.378-3.608-2.048-5.421-.582-2.015-2.934-6.343-2.382-8.165a.728.728,0,0,1,.987-.366c.616.21.919.841,1.213,1.377.31.611.558,1.248.849,1.866a56.5,56.5,0,0,1,2.325,5.158c.781,1.8,1.48,3.645,2.285,5.439.593,1.267,1.205,2.437,1.733,3.722,1.251,3.232,2.76,6.349,4.162,9.516a30.061,30.061,0,0,1,1.324,3.166c.519,1.12.678,2.645-.568,3.137a2.162,2.162,0,0,1-.43.117c-.067.006-.131.009-.194.009-1.165,0-1.543-.907-1.753-1.958" transform="translate(-822.682 -58.297)" fill="#31414a"/>
    <path id="Path_2839" data-name="Path 2839" d="M864.787,166.64c-1.247-.157-1.448-1.534-1.919-2.467-.675-1.747-1.489-3.433-2.192-5.169-2.691-6.393-5.6-12.7-8.173-19.139-.186-.638-.641-1.33-.45-2,.26-.566.954-.3,1.264.084a20.241,20.241,0,0,1,1.83,2.582c2.763,4.57,4.865,9.5,7.161,14.312,1.135,2.527,2.214,5.08,3.32,7.621.3,1,1.207,1.9.934,2.989a1.637,1.637,0,0,1-1.569,1.2,1.662,1.662,0,0,1-.206-.014" transform="translate(-817.024 -45.708)" fill="#31414a"/>
    <path id="Path_2840" data-name="Path 2840" d="M861.7,134.656a1.637,1.637,0,0,1-1.377-1.311c-.255-.714-.565-1.408-.869-2.1-1.53-3.53-3.031-7.077-4.4-10.671-1.117-2.744-2.1-5.538-3.144-8.311a43.906,43.906,0,0,1-2.085-6.346c-.122-.714-.588-1.546-.137-2.215a.576.576,0,0,1,.748-.154c.608.409.8,1.188,1.121,1.81.353.772.689,1.551,1.068,2.312,2.7,5.241,4.74,10.786,7.111,16.175.8,1.76,1.5,3.56,2.289,5.324.43.942.864,1.883,1.247,2.85a2.384,2.384,0,0,1,.247,1.245,1.636,1.636,0,0,1-1.61,1.406,1.657,1.657,0,0,1-.206-.014" transform="translate(-818.105 -60.354)" fill="#31414a"/>
    <path id="Path_2841" data-name="Path 2841" d="M873.653,161.883c-1.031-.127-1.441-1.17-1.862-1.982-.691-1.383-1.377-2.77-1.965-4.2-1.078-2.884-2.288-5.718-3.509-8.547-1.05-2.7-2.259-5.344-3.323-8.042-.2-.476-.393-.955-.611-1.423a1.628,1.628,0,0,1,1.519-2.228,1.853,1.853,0,0,1,1.687,1.5c.224.591.486,1.167.712,1.757a48.766,48.766,0,0,1,3.452,7.417c.839,1.852,1.612,3.731,2.4,5.605,1.051,2.445,1.775,5.023,2.967,7.408a1.737,1.737,0,0,1-.646,2.632,1.666,1.666,0,0,1-.612.112c-.069,0-.139,0-.21-.011" transform="translate(-812.614 -46.602)" fill="#31414a"/>
    <path id="Path_2842" data-name="Path 2842" d="M870.34,130.2c-.758-1.889-1.634-3.735-2.265-5.675-.921-2.957-1.94-5.881-2.813-8.855-.659-2-1.494-3.944-2.12-5.958a29.973,29.973,0,0,0-1.32-4.021c-.423-1.17-.716-2.378-1.194-3.53a1.747,1.747,0,0,1,.874-2.7.67.67,0,0,1,.988-.287c.273.164.285.526.539.7a2.192,2.192,0,0,1,.531.942c.409,1.025.709,2.089,1.038,3.143.88,2.212,1.5,4.506,2.3,6.743,1.317,3.941,2.763,7.895,4.1,11.813.683,2.1,1.344,4.081,2.161,6.12.382.962.786,1.919,1.171,2.881a1.656,1.656,0,0,1-.814,2.294,1.443,1.443,0,0,1-.2.063,2.111,2.111,0,0,1-.436.049c-1.7,0-1.9-2.457-2.541-3.712" transform="translate(-813.451 -62.256)" fill="#31414a"/>
    <path id="Path_2843" data-name="Path 2843" d="M880.891,158.55c-1.457-2.132-2.078-4.6-3.029-6.961-2.152-5.245-4.107-10.574-5.762-16a17.863,17.863,0,0,0-.918-2.528,1.623,1.623,0,0,1,2.9-1.427,12.159,12.159,0,0,1,.672,1.712c.8,2.833,1.966,5.524,2.979,8.282.844,2.066,1.479,4.21,2.295,6.289,1.038,3.077,2.528,5.986,3.565,9.063a1.618,1.618,0,0,1-1.012,1.925,1.636,1.636,0,0,1-.6.116,1.5,1.5,0,0,1-1.091-.47" transform="translate(-808.835 -48.594)" fill="#31414a"/>
    <path id="Path_2844" data-name="Path 2844" d="M863.722,182.044a1.868,1.868,0,0,1-1.1-1.358c-1.107-1.943-2.451-4.24-3.406-6.133-1.03-2.029-2.209-3.974-3.25-6-1.627-3.313-3.352-6.589-5.046-9.846-2.278-4.774-5.188-9.2-7.5-13.963q-3.706-7.61-7.466-15.193c-.689-1.43-1.261-2.914-1.972-4.336-1.428-2.551-2.667-5.135-3.935-7.7a21.693,21.693,0,0,1-1.141-2.384,6.39,6.39,0,0,1-.716-2.813.871.871,0,0,1,.961-.756,2.263,2.263,0,0,1,1.29.981c2.674,3.5,4.554,7.506,6.706,11.328,2.063,4.662,4.437,9.173,6.695,13.74,1.38,3,2.87,5.95,4.4,8.88,1.235,2.318,2.745,4.687,3.925,6.978,2.389,4.68,4.86,9.316,7.2,14.02,1.579,2.821,3.091,5.674,4.634,8.509.6,1.084,1.284,2.128,1.755,3.023a2.172,2.172,0,0,1,.286,2.023,1.819,1.819,0,0,1-1.673,1.124,1.649,1.649,0,0,1-.641-.129" transform="translate(-827.269 -56.878)" fill="#31414a"/>
    <path id="Path_2845" data-name="Path 2845" d="M852.651,103.654c-2.8-2.7-5.514-5.492-8.388-8.123-.959-.829-1.745-1.827-2.618-2.74-.348-.426.064-1.011.525-1.064a2.064,2.064,0,0,1,1.288.442,51.41,51.41,0,0,1,7.9,5.9c.955.742,1.85,1.551,2.748,2.361.35.3.818.432,1.038.881a1.77,1.77,0,0,1-1.483,2.7,1.663,1.663,0,0,1-1.007-.35" transform="translate(-821.535 -65.409)" fill="#31414a"/>
    <path id="Path_2846" data-name="Path 2846" d="M852.054,102.724a1.825,1.825,0,0,1-.315-2.181,55.707,55.707,0,0,0,1.457-6.988c.219-1.268.509-2.524.691-3.8a5.547,5.547,0,0,1,.569-2.218,1.684,1.684,0,0,1,3.014,1.19c-.23,1.55-.42,3.107-.748,4.642a45.237,45.237,0,0,1-.805,4.672,34.015,34.015,0,0,1-.754,3.375,2.189,2.189,0,0,1-.765,1.407,1.76,1.76,0,0,1-1.111.389,1.782,1.782,0,0,1-1.234-.489" transform="translate(-817.237 -67.491)" fill="#31414a"/>
    <path id="Path_2847" data-name="Path 2847" d="M853.073,104.842a2.619,2.619,0,0,1-1.79-1.11c-.653-.652-1.461-1.145-2.138-1.782-1.929-1.766-3.539-3.851-5.281-5.8-.861-.921-1.8-1.767-2.645-2.7a1.745,1.745,0,0,1-.382-1.328,1.792,1.792,0,0,1,3.15-.9c1.07,1.2,2.279,2.264,3.285,3.519A36.842,36.842,0,0,0,852,99.667c.8.9,1.952,1.484,2.61,2.511a1.77,1.77,0,0,1-1.489,2.664h-.047" transform="translate(-821.831 -65.899)" fill="#31414a"/>
  </g>
</svg>
