<svg xmlns="http://www.w3.org/2000/svg" width="159.022" height="167.135" viewBox="0 0 159.022 167.135">
  <g id="Group_1314" data-name="Group 1314" transform="matrix(0.875, 0.485, -0.485, 0.875, 76.549, -18.534)">
    <path id="Path_1409" data-name="Path 1409" d="M39.345,61.327a8.035,8.035,0,0,0-.589,1.2,7.478,7.478,0,0,0-.355,1.132,4.418,4.418,0,0,0,.012,2.013A4.844,4.844,0,0,0,39,67.024a6.369,6.369,0,0,0,1.184,1.4,7.552,7.552,0,0,0,3.048,1.553,23.839,23.839,0,0,0,3.159.59c1.061.135,2.129.239,3.2.279.436.017.874.026,1.31.026.535,0,1.066-.012,1.6-.031.989-.038,1.98-.047,2.967-.093,1.092-.05,2.181-.151,3.27-.267,1.021-.109,2.031-.256,3.041-.457l-.209.042L62,69.982c-.069.012-.139.028-.21.04.84-.161,1.677-.338,2.514-.514a22.8,22.8,0,0,0,2.273-.59,35.643,35.643,0,0,0,4.433-1.646A21.078,21.078,0,0,0,73.931,65.6a7.873,7.873,0,0,0,1.212-1.063,8.117,8.117,0,0,0,1.1-1.418,5.628,5.628,0,0,0,.822-4.241,4.152,4.152,0,0,0-.587-1.3,5.374,5.374,0,0,0-.6-.7,8.375,8.375,0,0,0-1.222-.956c.022.017.045.031.068.048a6.484,6.484,0,0,0-1.312-.727c-.405-.159-.821-.294-1.238-.421-.793-.242-1.593-.471-2.4-.644a25.136,25.136,0,0,0-4.908-.523h-.01l-.078,0H64.8a38.718,38.718,0,0,0-6.632.58l.028,0c-.047.007-.09.014-.133.023a.332.332,0,0,0-.042.005l-.007,0-.414.069c.022,0,.047-.007.069-.01-.384.068-.765.151-1.143.242-.969.232-1.93.5-2.894.748-.1.014-.19.031-.286.045-1.077.171-2.152.348-3.22.564-1.011.206-2.006.467-2.995.763a25.065,25.065,0,0,0-2.927,1.1c-.505.225-1.007.464-1.5.715a15.765,15.765,0,0,0-1.477.867l.178-.116a6.632,6.632,0,0,0-2.065,2.079m-7.982,49.417a2.61,2.61,0,0,1,.182-1.328,2.881,2.881,0,0,1-.1-.325C28.091,96.11,22.934,83.7,18.073,71.234,12.277,55.451,6.748,39.56.44,23.983c-.85-1.4-.431-3.474.933-3.784.241-3.265,3.675-2.238,5.257-.448,3.554,2.449,6.853,5.2,10.15,7.979,3.325-3.779,6.275-7.859,9.5-11.72,2.373-3.364,3.909-5.235,7.849-2.292a60.625,60.625,0,0,0,13.511,9.232c3.325-3.05,5.759-6.923,8.325-10.6,1.575-1.956,2.877-4.691,5.389-5.521,3.852-.6,12.258,8.425,16.311,10.517A121.809,121.809,0,0,1,89.557,1.023c1.194-1.788,3.684-1,4.335.6a1.636,1.636,0,0,1,1.032,1.347,26.566,26.566,0,0,1,.358,4.707c.312,4.593.209,9.187.3,13.783.511,8.251.884,16.5.957,24.774-.029,13.688,1.018,27.355,1.174,41.036-.022,3.561.107,6.755.268,10.194-.014,1.828.635,4.61-.746,5.789a2.358,2.358,0,0,1-1.8,1.935c-2.5.3-5.024.479-7.532.736-2.334.4-4.671.741-7.016,1.044-4.693.718-9.443.86-14.155,1.392-7.954.556-15.848,1.669-23.716,2.922-2.134.261-4.335.6-6.419,1.061-.956.158-1.885.5-2.853.569a2.51,2.51,0,0,1-2.379-2.167" transform="translate(0 44.985)" fill="#fff"/>
    <path id="Path_1410" data-name="Path 1410" d="M0,.5A.474.474,0,0,1,.441,0a.481.481,0,0,1,.5.44.474.474,0,0,1-.44.5A.478.478,0,0,1,0,.5" transform="translate(72.679 31.215)" fill="#31414a"/>
    <path id="Path_1411" data-name="Path 1411" d="M6.867,15.193C3.135,14.959.377,11.415.041,7.86A7.126,7.126,0,0,1,5.595.165,6.983,6.983,0,0,1,8.981.256c1.851.639,3.947,2.437,2.593,4.5a2.46,2.46,0,0,1-3.63.467,1.277,1.277,0,0,0-1.253-.4A2.206,2.206,0,0,0,4.63,6.653c.216,1.44.767,3.09,2.162,3.772A2.726,2.726,0,0,0,9.77,9.6c.459-.717.682-1.655,1.354-2.2,1.1-.639,1.878.924,2.022,1.821.741,3.467-3.081,6.256-6.279,5.967" transform="translate(61.698 23.271)" fill="#31414a"/>
    <path id="Path_1412" data-name="Path 1412" d="M5.231,20.763a7.257,7.257,0,0,1-3.887-2.088C.133,17.242-.5,14.477.482,12.795c.2-.381.634-1.066,1.162-.8.386.235.493.725.67,1.113A11.944,11.944,0,0,0,3.6,15.284a2.784,2.784,0,0,0,2.56.959,2.412,2.412,0,0,0,.519-3.937h0a1.664,1.664,0,0,1,1.7-2.676c2.441.693,4.928.239,4.953-2.778-.357-3.9-3.268-2.328-5.59-1.188a2.007,2.007,0,0,1-2.307-3C7.867-.4,13.007-1.124,15.616,2.1c3.8,4.31,2.481,11.768-4,12.012.372,3.5-2.664,7.378-6.389,6.649" transform="translate(72.504 19.418)" fill="#31414a"/>
    <path id="Path_1413" data-name="Path 1413" d="M3.767,17.8A5.257,5.257,0,0,1,1.8,15.551,11.925,11.925,0,0,1,.542,5.838C2.61.48,8.842-2.79,12.379,3.245c1.52,2.576,1.733,5.626,1.691,8.548A2.478,2.478,0,0,1,11.778,14.4a2.576,2.576,0,0,1-2.6-3.138c-.017-2.138-.026-4.608-1.534-6.286-.667-.414-1.388.713-1.819,1.137-1.366,1.558-1.238,3.751-.864,5.661.4,1.56,1.364,3,1.447,4.624a1.79,1.79,0,0,1-2.642,1.4" transform="translate(67.606 10.744)" fill="#31414a"/>
    <path id="Path_1414" data-name="Path 1414" d="M12.147,13.377a8.763,8.763,0,0,1-1.468-.509,6.644,6.644,0,0,1-1.941-1.324C6.529,14.6,1.029,13.769.155,9.99c-.647-2.389.8-6.538,3.09-7.638A3.982,3.982,0,0,1,7.913,3.83a.678.678,0,0,1-.2,1.314c-.613.412-1.352.1-2.029.145-.85.183-1.317,2.855-1.08,3.615A2.221,2.221,0,0,0,5.8,9.072l.107-.083c.819-.672,1.212-1.515,1.909-2.164,1.118-.72,2.032.135,2.671,1.016A4.13,4.13,0,0,0,12.933,9.01c2.025.417,2.521-3.149,1.934-4.5C14.378,3.269,13.582,3.4,12.446,3.4a1.636,1.636,0,0,1-1.333-2.346C11.676-.013,13.1-.054,14.153.027c1.984.05,3.384,1.721,4.2,3.371,2.529,4.679-.249,11.363-6.211,9.98" transform="translate(40.235 35.483)" fill="#31414a"/>
    <path id="Path_1415" data-name="Path 1415" d="M1.525,11.65C-.9,9.017-.189,4.682,1.944,2.087,3.272.426,5.662-.608,7.686.394c2.055.973,2.837,3.289,3.157,5.391a13.449,13.449,0,0,1-.014,2.666,2.419,2.419,0,0,1-4.2,1.416C5.694,8.9,6.17,7.611,6.261,6.45a5.154,5.154,0,0,0-.492-1.6A4.287,4.287,0,0,0,4.405,8.5a17.249,17.249,0,0,1,.436,2.072c.123,2.088-2.112,2.6-3.317,1.078" transform="translate(44.014 28.555)" fill="#31414a"/>
    <path id="Path_1416" data-name="Path 1416" d="M4.389,14.223c.519-.021,1.155.007,1.5-.45C5.574,11.846,7.592,11,9.06,12.031c.777.353,1.7.985,2.564.6a3.466,3.466,0,0,0,1.165-1.949c-.081-1.013-.651-1.174-1.418-.578-1.655.72-2.772-.66-2.713-2.245a4.35,4.35,0,0,0-.9-2.313A3.816,3.816,0,0,0,6.579,4.13a12.947,12.947,0,0,0,.786,4.259,2.44,2.44,0,0,1-2.645,3.27,3.094,3.094,0,0,0-1.151,2.45,3.551,3.551,0,0,0,.82.114m-.2,3.583c-1.731.021-3.831-.827-4.146-2.723A5.473,5.473,0,0,1,2.664,9.618c-.585-2.5-1.224-5.427.12-7.792,3.459-4.613,8.306.5,9.12,4.482A4.715,4.715,0,0,1,16.88,10.75c.412,4.863-4.285,8.167-8.621,5.652a5.276,5.276,0,0,1-4.073,1.4" transform="translate(38.229 0)" fill="#31414a"/>
    <path id="Path_1417" data-name="Path 1417" d="M8.816,22.316a2.823,2.823,0,0,1-1.07-1.662c-.9-2.06-1.91-4.073-2.784-6.147C3.273,10.915,1.857,7.118.269,3.537A2.453,2.453,0,0,1,4.658,1.345c.7,1.354,1.113,2.832,1.726,4.224,1.762,4.473,3.72,8.865,5.663,13.264,1.259,2.3-.828,4.889-3.23,3.483" transform="translate(17.501 76.628)" fill="#31414a"/>
    <path id="Path_1418" data-name="Path 1418" d="M9.182,28.053c-.884-1.172-1.115-2.747-1.608-4.11-1.092-2.285-2.039-4.638-2.917-7.014C3.151,12.259,1.413,7.659.065,2.944A2.468,2.468,0,0,1,3.563.269C5.045,1,5.043,2.9,5.481,4.292c.344,1.16.85,2.261,1.255,3.4C8.351,12.7,9.8,17.779,12.148,22.517c.583,1.482,1.565,3.08,1.094,4.714a2.416,2.416,0,0,1-4.059.822" transform="translate(34.471 121.133)" fill="#31414a"/>
    <path id="Path_1419" data-name="Path 1419" d="M3.22,18.907A10.414,10.414,0,0,1,2.46,15.8,49.121,49.121,0,0,1,.566,6.48C.405,4.648-.654,2.438.618.814A2.465,2.465,0,0,1,4.9,2.275q.013.68.088,1.357a109.147,109.147,0,0,0,2.3,12.757C8.133,19.015,5.05,21.3,3.22,18.907" transform="translate(47.578 73.363)" fill="#31414a"/>
    <path id="Path_1420" data-name="Path 1420" d="M.661,20.444a3.233,3.233,0,0,1-.635-2.122c-.066-1.489.012-2.978.03-4.465.112-4.125.009-7.62.23-11.605A2.46,2.46,0,0,1,4.553.814c1.1,1.29.353,3.081.409,4.6C4.856,9.709,4.62,14,4.582,18.288A2.306,2.306,0,0,1,.661,20.444" transform="translate(73.031 68.153)" fill="#31414a"/>
    <path id="Path_1421" data-name="Path 1421" d="M2.32,28.332A2.349,2.349,0,0,1,.17,25.837l-.005,0v.026c.01-4.849-.08-9.7-.164-14.543.073-2.534.173-5.067.121-7.6a5.122,5.122,0,0,1,.263-2.4A2.444,2.444,0,0,1,4.373.812c.783.8.634,2.006.625,3.017.017,2.685-.133,5.365-.211,8.048.047,3.268.05,6.364.055,9.584.007,1.1,0,2.205,0,3.3.192,1.736-.452,3.673-2.52,3.566" transform="translate(73.144 114.775)" fill="#31414a"/>
    <path id="Path_1422" data-name="Path 1422" d="M4.216,21.333a2.3,2.3,0,0,1-1.459-1.677l0,0c-.54-3.75-1.073-7.5-1.814-11.221C.562,6.6.54,4.716.046,2.905a2.444,2.444,0,0,1,4.79-.971,31,31,0,0,1,.582,4.285c.3,2.162.682,4.314,1.018,6.473.267,1.709.448,3.436.667,5.154a6.093,6.093,0,0,1,.055,1.825,2.268,2.268,0,0,1-2.941,1.664" transform="translate(57.765 122.949)" fill="#31414a"/>
    <path id="Path_1423" data-name="Path 1423" d="M10.124,14.534C7.207,11.617,4.87,8.174,2.006,5.2c-5.048-3.682.824-7.482,2.446-3.521,2.72,4.3,5.9,8.356,8.334,12.822a.87.87,0,0,1-.919,1.02,2.927,2.927,0,0,1-1.743-.99" transform="translate(13.47 25.959)" fill="#31414a"/>
    <path id="Path_1424" data-name="Path 1424" d="M3.37,5.075C1.6,5.2-.326,4.268.046,2.223A2.26,2.26,0,0,1,2.112.43,21.231,21.231,0,0,0,6.289.163,28.944,28.944,0,0,1,10.047,0,2.419,2.419,0,0,1,9.7,4.829c-2.115-.178-4.215.254-6.327.246" transform="translate(6.94 41.541)" fill="#31414a"/>
    <path id="Path_1425" data-name="Path 1425" d="M7.839,13.479C5.679,10.356,3.347,7.37.9,4.47c-2.825-3.306,1.691-6.5,4.006-2.848,2.385,3.125,4.935,6.151,7.136,9.4a2.441,2.441,0,0,1-4.2,2.455" transform="translate(14.61 27.199)" fill="#31414a"/>
    <path id="Path_1426" data-name="Path 1426" d="M1.3,12.447a2.4,2.4,0,0,1-1.259-2.6A3.545,3.545,0,0,1,1.254,8C2.4,6.829,3.634,5.753,4.817,4.621Q6.65,2.816,8.63,1.162A3.959,3.959,0,0,1,10.862,0,2.218,2.218,0,0,1,12.43,3.89c-2.41,2.069-4.594,4.369-6.878,6.568C4.344,11.784,3.146,13.339,1.3,12.447" transform="translate(92.988 25.996)" fill="#31414a"/>
    <path id="Path_1427" data-name="Path 1427" d="M2.239,7a2.447,2.447,0,0,1-.308-4.83c4.638-.526,9.244-1.29,13.846-2.1a2.4,2.4,0,0,1,2.276,4.073,2.488,2.488,0,0,1-1.537.6c-.84.178-1.683.346-2.531.466C11.094,5.64,8.263,6.4,5.343,6.6a20.657,20.657,0,0,1-3.1.4" transform="translate(96.575 38.123)" fill="#31414a"/>
  </g>
</svg>
