<svg id="Group_1315" data-name="Group 1315" xmlns="http://www.w3.org/2000/svg" width="122.415" height="149.659" viewBox="0 0 122.415 149.659">
  <path id="Path_1428" data-name="Path 1428" d="M874.915,355.69a7,7,0,0,1-5.153-2.116,4.759,4.759,0,0,1-7.623-1.111,7.37,7.37,0,0,1-.436-4.4c.327-2.033,2.093-4.636,4.169-5.124a3.824,3.824,0,0,1,4.043,1.529,1.96,1.96,0,0,1,.9,1.366c.057.03.117.062.169.1a1.347,1.347,0,0,1,.114.076,3.233,3.233,0,0,1,1.719-1.574,4.073,4.073,0,0,1,1.482-.245c1.791-1.2,4.5-.22,6.036,1.027A5.484,5.484,0,0,1,882,351.4c-.911,2.956-4.125,4.569-7.081,4.285" transform="translate(-806.672 -306.265)" fill="#fff"/>
  <path id="Path_1429" data-name="Path 1429" d="M869.2,352.443c-3.768-.326-5.436-5.611-4.508-8.788a10.484,10.484,0,0,1,1.519-2.753,6.87,6.87,0,0,1,2.439-3.936,3.751,3.751,0,0,1,4.085.651c2.811.421,4.5,3.234,4.857,5.863a8.471,8.471,0,0,1-1.054,4.919c-.7,1.4-2.012,3.174-3.783,2.7a6.139,6.139,0,0,1-3.555,1.343" transform="translate(-804.718 -310.48)" fill="#fff"/>
  <path id="Path_1430" data-name="Path 1430" d="M875.706,339.019c-2.766-.386-4.839-3.765-3.191-6.247-4.426-5.272,2.415-10.487,6.348-5.953,2.469-.817,5.549,1.14,5.411,3.845-.17,2.553-1.591,5.425-4.233,6.121a3.507,3.507,0,0,1-4.335,2.234" transform="translate(-800.218 -318.299)" fill="#fff"/>
  <path id="Path_1431" data-name="Path 1431" d="M865.563,323.373a2.4,2.4,0,1,1,2.33,2.476,2.434,2.434,0,0,1-2.33-2.476" transform="translate(-803.959 -321.043)" fill="#fff"/>
  <path id="Path_1432" data-name="Path 1432" d="M867.632,352.189a2.3,2.3,0,0,1-1.177-.8,7.936,7.936,0,0,1-2.111-3.54c-.263-3.333-.228-7.165,2.046-9.849a4.518,4.518,0,0,1,2.452-1.61,2.219,2.219,0,0,1,2.459.757,1.213,1.213,0,0,1-.181,1.383c-.059.119-.121.235-.173.357a.394.394,0,0,1-.734.067c-1.547,1.4-1.623,3.74-1.606,5.693a2.261,2.261,0,0,1,.757,1.151c.324,1,.609,2.009,1.017,2.978a2.379,2.379,0,0,1-2.749,3.411" transform="translate(-804.861 -310.679)" fill="#fff"/>
  <path id="Path_1433" data-name="Path 1433" d="M874.682,373.206c-2.675-.671-3.652-3.3-3.472-5.826-4.74-.975-5.63-6.074-2.768-9.525.747-.93,1.927-1.234,2.867-1.907a5.092,5.092,0,0,1,5.522.7,10.667,10.667,0,0,1,4.506-2.027c1.511-.326,3.307-.6,4.5.618a3.946,3.946,0,0,1,1.027,4.552,8.83,8.83,0,0,1-4.023,4.758,8.076,8.076,0,0,1-.406,5.378c-1.237,2.872-4.859,4.152-7.755,3.275" transform="translate(-803.113 -298.447)" fill="#fff"/>
  <path id="Path_1434" data-name="Path 1434" d="M884.7,363.463c-2.862-.383-3.013-3.684-1.6-5.643a1.852,1.852,0,0,1,1.266-.663,3.477,3.477,0,0,1,2.2-.3,3.292,3.292,0,0,1,2.054,5.356c-.864,1.219-2.533,1.4-3.917,1.249" transform="translate(-792.649 -296.779)" fill="#fff"/>
  <path id="Path_1435" data-name="Path 1435" d="M892.772,359.779a2.4,2.4,0,1,1,2.33,2.476,2.435,2.435,0,0,1-2.33-2.476" transform="translate(-785.5 -296.345)" fill="#fff"/>
  <path id="Path_1436" data-name="Path 1436" d="M893.737,360.562a1.657,1.657,0,0,1,2.142-2.528,1.657,1.657,0,0,1-2.142,2.528" transform="translate(-785.252 -296.203)" fill="#fff"/>
  <path id="Path_1437" data-name="Path 1437" d="M883.89,362.831c-2.048-.992-1.061-5.594-.579-7.375.992-2.014,3.315-1.856,4.794-.468,2.108,1.93,1.019,6.083-2.185,5.53-.158,1.188-.42,2.823-2.029,2.313" transform="translate(-792.369 -298.722)" fill="#fff"/>
  <path id="Path_1438" data-name="Path 1438" d="M887.238,361.206c-1.878-.242-3.154-2.217-1.89-3.842a2.2,2.2,0,0,1,1.093-.73,3.383,3.383,0,0,1,2.518-.842c3.211.4,3.464,3.978.6,5.2a3.854,3.854,0,0,1-2.323.218" transform="translate(-790.88 -297.479)" fill="#fff"/>
  <path id="Path_1439" data-name="Path 1439" d="M898.93,357.062a2.4,2.4,0,1,1,2.33,2.476,2.435,2.435,0,0,1-2.33-2.476" transform="translate(-781.322 -298.188)" fill="#fff"/>
  <path id="Path_1440" data-name="Path 1440" d="M857.059,360.058a2.128,2.128,0,0,0,2.063-1.719c-.5-1.081-1.907-1.064-2.593-1.949-1.119.472-1.324,1.754-1.274,2.84.289.655,1.156.816,1.8.827m-1.078,4.523a6.125,6.125,0,0,1-4.757-3.342,7.147,7.147,0,0,1,.25-5.235,5.5,5.5,0,0,1,6.141-3.139c2.048-.546,4.033.911,5.191,2.486,1.85,2.294.873,5.537-1.059,7.456a6.667,6.667,0,0,1-5.767,1.774" transform="translate(-813.956 -299.544)" fill="#fff"/>
  <path id="Path_1441" data-name="Path 1441" d="M851.713,377.6c-3.4-.846-6.316-4.888-5.47-8.38a5.517,5.517,0,0,1,2.116-2.467,7.664,7.664,0,0,1-1.88-7.659,5.737,5.737,0,0,1,2.823-3.969,8.413,8.413,0,0,1,8.7,1.912c3.8-1.025,4.444,4.445,1.949,6.306a23.456,23.456,0,0,1,1.185,4.8c.188,1.373-.614,2.544-.932,3.825-1.1,3.674-4.521,6.6-8.494,5.634" transform="translate(-817.166 -298.276)" fill="#fff"/>
  <path id="Path_1442" data-name="Path 1442" d="M853.136,358.491a10.622,10.622,0,0,1-.616-2.012,2.1,2.1,0,0,1,3.706-1.762,4.707,4.707,0,0,1,.8.265c.082.037.164.076.245.119a1.3,1.3,0,0,1,1.516,1.47,2.791,2.791,0,0,1-2.184,4.25,3.633,3.633,0,0,1-3.463-2.33" transform="translate(-812.848 -298.755)" fill="#fff"/>
  <path id="Path_1443" data-name="Path 1443" d="M840.043,356.909a2.994,2.994,0,0,1-.7-1.232,3.937,3.937,0,0,1-.042-1.36,2.336,2.336,0,0,1,2.472-3.652,4.779,4.779,0,0,1,1.245-.953c1.271-4.673,6.789-2.838,8.6.41a5.9,5.9,0,0,1-.05,4.678c-1.25,2.684-4.7,3.092-7.285,2.417a3.41,3.41,0,0,1-4.24-.307" transform="translate(-822.083 -303.508)" fill="#fff"/>
  <path id="Path_1444" data-name="Path 1444" d="M836.5,343.87a2.4,2.4,0,1,1,2.33,2.476,2.434,2.434,0,0,1-2.33-2.476" transform="translate(-823.677 -307.137)" fill="#fff"/>
  <path id="Path_1445" data-name="Path 1445" d="M828.86,341.655a2.4,2.4,0,1,1,2.33,2.476,2.435,2.435,0,0,1-2.33-2.476" transform="translate(-828.859 -308.641)" fill="#fff"/>
  <path id="Path_1446" data-name="Path 1446" d="M857.573,384.7c-3.567-2.006-1.524-6.393,1.284-8.065,1.052-1.5,3.014-2.6,4.852-2a2.43,2.43,0,0,1,1.47.032c1.987-1.193,4.579-.774,6.689-.121a5.85,5.85,0,0,1,5.254-3.508c2.679.017,4.454,2.734,4.841,5.144.44,4.654-3.909,8.634-8.483,6.779a7.119,7.119,0,0,1-8.906.124,3.819,3.819,0,0,1-3.436,1.328,3.76,3.76,0,0,1-3.565.284" transform="translate(-810.67 -287.126)" fill="#fff"/>
  <path id="Path_1447" data-name="Path 1447" d="M866.963,378.213c0-.02,0-.04.007-.06a.571.571,0,0,1-.065.032l.059.029M865.35,391.7c-12.058-1.7-4.978-20.665,1.806-14.245,1.84-3.516,6.336.084,6.538,2.936.282,2.316-.6,4.607-1.537,6.685-1.2,2.571-3.775,5.027-6.806,4.624" transform="translate(-808.532 -283.76)" fill="#fff"/>
  <path id="Path_1448" data-name="Path 1448" d="M864.028,398.745a7.84,7.84,0,0,1-1.465-.564,5.01,5.01,0,0,1-2.163-2.11c-4.424,0-4.653-6.073-.675-7.076a2.421,2.421,0,0,1,3.688-.643c2.529-.608,5.324,2.593,6.133,4.732a4.349,4.349,0,0,1-5.517,5.661" transform="translate(-809.834 -275.772)" fill="#fff"/>
  <path id="Path_1449" data-name="Path 1449" d="M858.465,400.092c-3.071-1.4-1.172-6.947,1.266-8.147.886-.592,2.251-.871,2.93.146,1.673-.356,3.008,1.349,2.892,2.932a7.183,7.183,0,0,1-1.025,3.229c-1.326,1.838-3.928,2.957-6.063,1.84" transform="translate(-809.855 -273.302)" fill="#fff"/>
  <path id="Path_1450" data-name="Path 1450" d="M875.012,390.676a3.88,3.88,0,0,1-3.84-3.914c.059-1.161.5-2.78,1.648-3.281,1.5-1.469,3.842-.676,5.091.728,2.534,2.4.45,6.586-2.9,6.467" transform="translate(-800.154 -279.216)" fill="#fff"/>
  <path id="Path_1451" data-name="Path 1451" d="M868.276,404.859a2.631,2.631,0,0,1-1.289-4.831c.725-.624,2.194-1.229,2.872-.255l0-.01a.9.9,0,0,1,.139.618,2.538,2.538,0,0,1-1.724,4.478" transform="translate(-803.79 -267.977)" fill="#fff"/>
  <path id="Path_1452" data-name="Path 1452" d="M864.089,409.676a2.4,2.4,0,1,1,2.33,2.476,2.435,2.435,0,0,1-2.33-2.476" transform="translate(-804.959 -262.493)" fill="#fff"/>
  <path id="Path_1453" data-name="Path 1453" d="M880.4,351.453c-.913-1.767.8-3.018,1.762-4.258q2.266-2.54,4.646-4.977c2.239-2.251,4.57-4.408,6.868-6.6a2.416,2.416,0,0,1,3.874-.05,2.207,2.207,0,0,1-.173,2.684c-.455.451-.928.895-1.373,1.355-2.743,2.7-5.579,5.305-8.134,8.189-1.2,1.3-2.373,2.642-3.443,4.058a2.426,2.426,0,0,1-4.028-.4" transform="translate(-794.072 -311.832)" fill="#31414a"/>
  <path id="Path_1454" data-name="Path 1454" d="M881.349,352.523a2.327,2.327,0,0,1-.309-3.646c3.488-2.133,8.014-1.116,11.9-1.892,1.61-.485,3.867-1.039,4.606,1.007a2.25,2.25,0,0,1-.93,2.773c-2.053.895-13.746,2.994-15.267,1.757" transform="translate(-793.96 -303.75)" fill="#31414a"/>
  <path id="Path_1455" data-name="Path 1455" d="M839.624,381.808a2.151,2.151,0,0,1-.327-3.535,45.258,45.258,0,0,1,9.676-4.068,3.389,3.389,0,0,1,2.234-.161,2.366,2.366,0,0,1-.144,4.46,32.186,32.186,0,0,0-6.971,2.241c-1.437.391-2.974,1.834-4.468,1.064" transform="translate(-822.306 -285.181)" fill="#31414a"/>
  <path id="Path_1456" data-name="Path 1456" d="M844.321,391.442a2.351,2.351,0,0,1,.26-1.848c.381-.876.715-1.772,1.083-2.655.953-2.068,1.069-4.428,2.182-6.435a3.6,3.6,0,0,1,1.7-2.449,2.385,2.385,0,0,1,3.268,2.687,18.586,18.586,0,0,1-1.178,2.689,59.212,59.212,0,0,1-2.425,6.833c-.5,1.126-1.042,2.511-2.417,2.724a2.233,2.233,0,0,1-2.469-1.546" transform="translate(-818.429 -282.509)" fill="#31414a"/>
</svg>
