<?xml version="1.0" encoding="utf-8"?>
<!-- Generator: Adobe Illustrator 25.2.0, SVG Export Plug-In . SVG Version: 6.00 Build 0)  -->
<svg version="1.1" id="Layer_1" xmlns="http://www.w3.org/2000/svg" xmlns:xlink="http://www.w3.org/1999/xlink" x="0px" y="0px"
	 viewBox="0 0 4602.9 2309.6" style="enable-background:new 0 0 4602.9 2309.6;" xml:space="preserve">
<style type="text/css">
	.st0{fill:#FFFFFF;stroke:#06305E;stroke-width:31.4098;}
	.st1{fill:#002F87;}
	.st2{fill:#C5281C;}
	.st3{fill:#FFFFFF;}
	.st4{fill:#9E1C0F;}
	.st5{fill:#E1251B;}
	.st6{fill:none;stroke:#06305E;stroke-width:31.3522;}
</style>
<g>
	<g>
		<g>
			<g>
				<path class="st0" d="M2169.4,1718.4l625.9,37.6c0,0-26.5-59-32-77.9c86.6,21.4,348.3,90.8,348.3,90.8s-61.6-187.5-63.5-193.1
					c0-0.4-0.1-0.4-0.1-1.2c0-6.1,1.1-23.6,10.2-59.9c12.2,24.1,27.1,46.4,44.7,66.8c60.6,70.2,139.8,104.5,205,121.3
					c-16.2,22.5-94.1,130.7-94.1,130.7s32.8,23.7,100.9,62.9c68,39.3,212.7,101,378.8,102c108.3,0.6,211.7-25,291.3-72.2
					c104.1-61.7,164.7-157,175.3-275.5c3.7-41.8,0.2-85-10.9-131.9c-9.7-52-26.8-101.2-42.6-144.6c-9.8-26.8-26.1-61.5-20.5-64.8
					c25.6-15.1,54.2,7.6,61.8,24l69.2,129.1l235.3-357.4l10.9-17.9l-17.3-14.4l-63.8-49.4c-87-67.5-195.6-109.7-313.9-122.3l-1-0.1
					l-1-0.1c-104.3-7.9-180.9,14.2-230.3,33.6c-11.3-25.6-26.1-51.2-46.5-75.4c-57.5-67.8-139.2-106.1-243.3-114
					c-99.1-7.5-195.7,14.4-279.2,62.3c35.1-109.8,70.2-214.1,103.5-304.7l51.2-139l-146.3,22.7c-64.5,10-241.6,9.1-254.6,9.1
					c-2.3-9.6-5-20.6-5-20.6l-37.4-17.9c-55-26.2-147.5-44.9-215-43.7c-44,0.8-84.8,7.4-121.9,19.6c-1.8-17-8.3-78.1-8.3-78.1
					L2594,233c-45.6-25.5-127.1-53.6-198.2-55.2c-306.6-6.8-435.1,226.7-440.4,406.7l-0.6,48.3c0,12,0.1,25.1,0.3,39
					c-23.6,5.8-538.7,131.7-609.7,149.1c-0.4-2.1-0.5-4.2-1-6.4c-22.8-118.3-68.3-206.6-139.3-270
					c-71.1-63.3-163.9-98.6-283.9-107.7C705,420.6,464.6,500.9,335.4,544c0.2,0-62.1,20.6-62.1,20.6l-99.5,32.9l-42.1,13.5
					l16.2,19.2l83.1,98.3c37.2,43.5,48.1,80.6,58.9,116.5c0.1,0.3,4.9,16.1,4.9,16.1c102.8,328.4,192.8,632.5,301.2,1017.2
					c14.4,51.3,19.7,75.1,22,140.9l3.9,113.3l625.1-189.8c31.3,23.2,72.7,39.6,127.9,26.5c22-5.2,575.6-175.8,575.6-175.8
					s-105.4-50.6-169.1-81.7l185.2-93.7c-6.5,12.8-55.3,109.1-55.3,109.1s199.2-21,270.9-28.6L2169.4,1718.4z"/>
				<g>
					<path class="st1" d="M1524.7,1674.5L1524.7,1674.5c-66.6-66.8-279.7-301.8-368.1-422.8c52-55.3,103.6-143.7,103.6-277.4
						c0-34.9-3.5-72.8-11.5-114c-39-202.9-153-304.6-358.8-320.2c-201.8-15.2-433.5,62.1-557.9,103.6l-62.3,20.6l15.5,18.3
						c46.6,54.6,61.1,103.1,72.7,142.1l4.8,15.9c102.8,328.5,193,633.1,301.5,1018.5c15.5,55.1,22.1,84.7,24.6,157.7l0.7,21
						l403.8-122.6l-20.7-19c-33.4-30.9-55.7-65-74.5-114.1c-34.5-89.8-80.8-228.9-124.9-374.4c1.3-0.4,4-1.3,4-1.3s5-1.6,10.1-3.3
						c55.6,72.9,336.7,415.6,351.3,431.7c0,0,10.2,11.6,10.2,11.6c28.8,32.4,58.5,66,109.6,53.9c21-4.9,114.1-34.3,196.3-60.4
						l144.1-45.1l-36.2-17.8C1627,1759.2,1586.9,1736.8,1524.7,1674.5z M779.4,773.9c46.2,2.6,83.4,19.8,110.7,51.3
						c31.2,36,47.4,88.2,47.4,152.4c0,11.5-0.5,23.4-1.6,35.7c-9.5,110.7-76.8,157.9-125.3,177.6c-52.4-180.2-98.9-347.4-113-406.3
						C728.9,776.4,756.5,772.6,779.4,773.9z"/>
					<path class="st1" d="M2876.2,436.8c-43.5-12.5-97-20.7-137.1-20c-73.7,1.4-134.9,21.4-182.7,59.4
						c-4.4-41.4-15.5-144.8-15.5-144.8l-7.4-4.1c-39.4-22-108.8-44.9-165.1-46.1c-205.3-4.6-336.3,112.5-342,305.5
						c-0.4,13.6-0.6,28.9-0.6,46.3c0,54.7,2,128,6,218.6c-21.9,1.5-94.7,6.5-94.7,6.5l1.2,16.1l9.5,145l15.6-0.6
						c10-0.4,40.5-2.5,76.6-5c8.4,150.2,19.2,303,27.5,406.9c-13.7-18.2-25.9-39.7-35.4-63.1l0,0c-25-60.5-112.2-427.2-118.8-456.2
						c-7-30.9-12.4-59.2-15.4-96.8l-1.6-18.8l-18.3,4.5l-255.3,62.6l3.7,15.6c10.2,42.3,80.4,349.6,88.9,399.9
						c7.8,46.1-3.3,82.9-16.9,97.5c-7.7,8.3-14.2,7.7-16.4,7.4c-1.1-0.1-26.8-4.4-67.6-172.1c-23.8-97.9-43.4-213-53.9-274.9
						l-9.8-56.4l-16.8,4.3l-258.3,63.3l0.9,33.9c0.2,23-1.2,45.7-4,67.5l-0.4,2.7l10.1,48.5c19.5,95.5,60,294.3,113.7,420.8
						c37.9,89.3,109.3,139.5,201,141.5c106.4,2.2,178.1-76.7,207.2-133.9c14.5,25.9,31.5,49,49.7,66.5l8.4,8.1l209.8-110.6
						c0.1,3.6,0.2,7.5,0.2,11.8c0,32.1-4.2,81.2-25.1,122.6l-13.4,26.5c0,0,259.9-27.2,304.3-31.9c-3.7,7.6-7.6,14.3-11.5,19.4
						l-18.7,24.3l345,18.5l-6.5-21.9c-5.9-20.2-9.6-48-9.6-69.9c0-2.8,0.1-5.4,0.2-7.9l326,80.7l-9.2-27.8
						c-3.6-10.7-6.2-40.6,16-119.9c83.3-298.3,204.4-713.3,308.6-996.1l9.6-25.7l-27.1,4.2c-70,10.8-177.3,10.3-241.6,10l-22.9,1.4
						l5.1,19.9c0,0,29.7,123.6,38.7,161.2c-22.3-4.6-55.2-6.6-72.6-7.8l-13.4-0.9l-3.4,13.1c-27.3,108.2-145.2,520.2-239.5,793.3
						c-14.6,42.4-49.1,47.8-69.7,71.4l-3,3.5c17.2-193.1,40.5-383,58.1-514.4c31.3,3.7,65.5,10.1,81.2,19.1l18.3,10.3l48.7-190.8
						l-18.7-1.9c-26.6-2.6-72.4-6.3-105.4-8.9c3.6-24.2,13.7-91,13.7-91c19.8-126.2,97.9-135.4,163.6-129.4c9,0.8,21.2,2.5,32.4,4.3
						L2876.2,436.8z M2405,1015.1c-16.4,158.9-30.1,325.4-40.1,448.2c0,0-1.1,13.3-2.1,25.7c-3.8-13-6.9-26.7-8.9-41.3
						c-15.8-119.4-28-277-33.6-435C2341.2,1013.4,2383.8,1014.5,2405,1015.1z M2472.9,587.8c-15.8,35.4-31.9,121.2-49.2,260.7
						c-20.1-0.3-84.8-1.1-106.8-1.4c0-3.1,0-6.3,0-9.4c0-72.2,1.9-134.8,5.7-182.4c7.3-95,47.5-141.6,122.9-142.2
						c20.4-0.1,43.1,4.8,62.6,13.2C2494.8,544.6,2482.9,565.2,2472.9,587.8z"/>
					<path class="st1" d="M4345.4,1111.7c-76.7-59.4-172.7-96.6-277.8-107.7c-117.7-8.9-192.7,25.2-233,43.5l-20.3,9.2l1.4,11.9
						c2.9,23.2,4.8,38.5,0.5,86.1c-9.1,102.3-28.3,194.9-82,260.6l6,14.7c18.5,54,29.7,100.2,35,118.8
						c32.5,114.3-84.9,154.6-149.7,150.1c-61.6-4.2-113.3-36.6-138.1-52.1l-0.6-0.4c29.9-3,56-9.5,81.3-19.9l4.3-1.8l140.2-199
						l-40.5,8.8c-33.4,7.2-90.5,13.4-150.5,8.8c-39.3-2.9-110.4-14.5-144.8-58.9c-13.4-17.4-20.1-38.8-20.1-63.9
						c0-4.5,0.2-9.1,0.6-13.8c53,10.7,181.3,36.5,304,64.3l10.9,2.5l6.2-9.4c10.1-15.6,61.8-100.1,73.5-231.8
						c2.6-29.2,56.6-116.1-10.1-194.8c-44.6-52.7-110-82.7-194.4-89c-200.8-15.2-430,113.5-458.5,431.9
						c-9.5,105.9,13.3,191.6,67.8,254.8c79.9,92.5,203.1,109.2,252.3,112.1c20.1,1.2,38.6,1.4,55.6,0.7l-128.5,178.7l15.1,9
						c52.4,31.4,191.5,91,342.8,91.9c170.6,1,376.6-72.5,395.4-283c7.1-78.7-19.5-150.1-42.9-213.2c-18.4-49.7-34.4-92.7-31-129.7
						c3.7-42,40.8-68.4,90-64.3c44.8,3.7,86.8,28.8,105,62.6l12.7,23.9l133.8-203L4345.4,1111.7z M3402.7,1137.7
						c17.7-36.9,60.2-108.3,123.9-103.5c9.6,0.7,17.3,4.5,23.4,11.6c11.8,14,16,38.2,16,60.5c0,5.5-0.2,10.8-0.7,15.9
						c-2,22.5-4.6,37.8-6.8,47.5C3536.7,1165.2,3431.6,1143.7,3402.7,1137.7z"/>
				</g>
				<g>
					<path class="st2" d="M1550.6,1638.9L1550.6,1638.9c-66.6-66.7-279.7-301.8-368.1-422.8c52-55.3,103.5-143.7,103.5-277.3
						c0-34.9-3.5-72.8-11.4-114c-39-202.9-153-304.6-358.8-320.2c-201.9-15.2-433.5,62.1-557.9,103.7l-62.3,20.6l15.5,18.3
						c46.7,54.7,61.1,103.2,72.7,142.2l4.8,15.9c102.8,328.5,193,633,301.6,1018.5c15.5,55,22,84.7,24.5,157.7l0.8,21l403.8-122.6
						l-20.7-19.1c-33.4-30.9-55.7-65.1-74.6-114.1c-34.4-89.8-80.7-228.9-124.9-374.4c1.3-0.5,4-1.3,4-1.3s5-1.6,10.1-3.3
						c55.6,72.8,336.6,415.6,351.2,431.6c0.1,0,10.3,11.5,10.3,11.5c28.7,32.5,58.5,66,109.6,53.9c21.1-5,114.2-34.4,196.3-60.4
						l144-45.2l-36.1-17.8C1652.8,1723.7,1612.7,1701.3,1550.6,1638.9z M805.3,738.4c46.1,2.6,83.3,19.8,110.7,51.3
						c31.2,36,47.3,88.2,47.3,152.3c0,11.6-0.5,23.5-1.6,35.7c-9.4,110.8-76.8,157.9-125.2,177.6c-52.5-180.1-98.9-347.3-113-406.3
						C754.8,740.9,782.2,737.1,805.3,738.4z"/>
					<path class="st2" d="M3304.1,474.9l9.4-25.7l-27,4.2c-70.1,10.8-177.4,10.3-241.5,9.9l-63.5,0l5,20c0,0,29.8,123.5,38.9,161.2
						c-22.3-4.6-43.1-7.7-60.4-9l-13.5-1l-3.2,13.1c-27.3,108.2-145.2,520.2-239.6,793.3c-14.5,42.4-20.5,50.4-41.2,73.9l-3,3.5
						c17.2-193.1,40.7-383,58.2-514.4c31.2,3.7,65.3,10.1,81.2,19.1l18.3,10.3l48.7-190.8l-18.6-1.8c-26.7-2.6-72.3-6.3-105.5-8.9
						c3.6-24.2,13.8-91,13.8-91c19.7-126.1,97.7-135.4,163.5-129.4c16.3,1.5,42.3,5.7,55.7,8.5l25.1,5.4L2955,421.4l-6.9-3.3
						c-44.9-21.4-127.2-37.9-183.1-36.8c-73.8,1.4-135,21.4-182.8,59.4c-4.5-41.4-15.5-144.8-15.5-144.8l-7.3-4.1
						c-39.5-22-108.9-44.9-165.2-46.1c-205.2-4.6-336.4,112.5-342,305.5c-0.3,13.6-0.5,29-0.5,46.3c0,54.6,2,128,6,218.6
						c-21.8,1.5-94.7,6.5-94.7,6.5l1.2,16l9.3,145l15.8-0.6c9.9-0.4,40.4-2.5,76.5-5c8.5,150.2,19.2,303,27.5,406.9
						c-13.6-18.2-25.7-39.6-35.4-63.1v0c-24.9-60.5-112.1-427.2-118.8-456.2c-7-31-12.3-59.2-15.4-96.9l-1.6-18.8l-18.4,4.5
						L1648.2,817l3.7,15.6c10.3,42.2,80.5,349.7,89,399.9c7.8,46.1-3.3,82.9-16.9,97.5c-7.7,8.3-14.2,7.7-16.3,7.4
						c-1.1-0.1-26.9-4.5-67.7-172.1c-23.8-97.9-43.4-213-53.8-274.9l-9.9-56.4l-16.7,4.3l-258.3,63.3l0.9,34c0.2,23-1.2,45.7-4,67.5
						l-0.4,2.7l10.1,48.5c19.5,95.5,60,294.3,113.7,420.8c37.9,89.3,109.2,139.5,201,141.5c106.4,2.2,178.1-76.7,207.1-134
						c14.6,26,31.6,49,49.8,66.5l8.4,8.1l209.7-110.6c0.1,3.5,0.2,7.5,0.2,11.8c0,32.1-4.2,81.2-25.2,122.5l-13.4,26.5
						c0,0,259.8-27.2,304.2-31.9c-3.7,7.7-7.5,14.3-11.5,19.4l-18.5,24.3l344.9,18.5l-6.5-21.9c-5.9-20.2-9.6-48-9.6-69.9
						c0-2.7,0.1-5.4,0.2-7.9l326.1,80.7l-9.2-27.8c-3.5-10.7-6.2-40.6,16-119.9C3078.7,1172.7,3199.9,757.7,3304.1,474.9z
						 M2430.8,979.6c-16.3,158.9-30,325.4-40.2,448.2c0,0-1,13.3-2.1,25.8c-3.8-13.1-6.9-26.7-8.8-41.3c-15.9-119.4-28-277-33.6-435
						C2367,977.8,2409.7,979,2430.8,979.6z M2498.7,552.3c-15.6,35.5-31.7,121.2-49.2,260.8c-20-0.3-84.8-1.2-106.7-1.5
						c0-3.1,0-6.3,0-9.4c0-72.1,1.9-134.8,5.6-182.4c7.4-95,47.7-141.5,123-142.2c20.4-0.1,43,4.8,62.5,13.2
						C2520.5,509.1,2508.7,529.7,2498.7,552.3z"/>
					<path class="st2" d="M4338.8,1076.2c-76.6-59.4-172.7-96.6-277.7-107.7c-117.7-8.9-192.7,25.2-233.1,43.5l-20.3,9.2l1.3,11.9
						c2.9,23.2,4.9,38.5,0.5,86.1c-9,102.3-39.6,183.9-93.3,249.5l-5,6.2l1.9,7.9c5.7,23.4,14,45.9,22.2,67.5
						c15.6,41.8,30.4,81.3,26.5,126.4c-6.4,70.7-78.1,91-143,86.5c-61.6-4.2-113.2-36.6-138-52.1l-0.5-0.4
						c29.8-3,55.9-9.5,81.2-19.9l4.3-1.8l140.2-199l-40.4,8.8c-33.4,7.2-90.6,13.3-150.6,8.8c-39.4-3-110.4-14.5-144.8-58.9
						c-13.4-17.4-20.2-38.8-20.2-63.9c0-4.5,0.2-9.1,0.7-13.8c52.9,10.7,231.8,50.9,354.6,78.9l10.9,2.4l6.2-9.3
						c10.2-15.7,61.7-100.2,73.5-231.8c2.7-29.3,6-130.7-60.6-209.4c-44.8-52.7-110-82.6-194.4-89c-200.7-15.2-430,113.5-458.5,432
						c-9.5,105.9,13.2,191.6,67.9,254.8c79.8,92.6,203,109.3,252.1,112.1c20.2,1.2,38.7,1.4,55.8,0.7l-128.6,178.6l15.1,9
						c52.4,31.4,191.5,91.1,342.7,91.9c170.7,1,376.7-72.5,395.5-283c7.1-78.8-19.3-150.2-42.8-213.2
						c-18.5-49.7-34.4-92.8-31.1-129.7c3.8-41.9,40.7-68.4,90-64.3c44.8,3.7,86.9,28.9,105.1,62.6l12.8,23.9l133.6-203
						L4338.8,1076.2z M3396.2,1102.2c17.7-36.9,60.2-108.4,124-103.5c9.6,0.7,17.2,4.5,23.3,11.6c11.9,14,16,38.2,16,60.5
						c0,5.4-0.3,10.8-0.7,15.8c-2,22.5-4.5,37.9-6.7,47.5C3530.2,1129.7,3425.2,1108.1,3396.2,1102.2z"/>
				</g>
				<path class="st3" d="M3709.8,1362l12.7-19.1c10.2-15.7,61.7-100.2,73.5-231.8c2.7-29.3,6-130.7-60.6-209.4
					c-44.8-52.7-110-82.6-194.4-89l2-27.3c92.1,6.9,163.8,40.1,213.3,98.7c73.6,86.7,69.2,197.5,67.1,229.5
					c-10.2,150.1-87.9,262.9-98.7,279.4c0,0-12.6,19.1-12.6,19.1L3709.8,1362z"/>
				<g>
					<path class="st3" d="M357.9,608.2c124.4-41.5,356-118.8,557.9-103.7c205.8,15.6,319.8,117.4,358.8,320.2
						c7.9,41.2,11.4,79.2,11.4,114c0,133.6-51.5,222.1-103.5,277.3l20,18.9c50.6-53.9,111-148.9,111-296.2c0-37.9-4-78-11.9-119.2
						c-41.2-214-166.7-326-383.7-342.4c-207.4-15.7-442.4,62.7-568.7,104.9L357.9,608.2z"/>
					<path class="st3" d="M2764.4,353.8c60.6-1.1,146.5,16.3,195.4,39.5l18.9,8.9l62.7,259.1L2933.3,640l5.7-26.8l65.6,12.2
						L2955,421.4l-6.9-3.3c-44.9-21.4-127.2-37.9-183.1-36.8L2764.4,353.8z"/>
				</g>
				<path class="st3" d="M3716.3,1352.3l6.2-9.3c10.2-15.7,61.7-100.2,73.5-231.8c2.7-29.3,6-130.7-60.6-209.4
					c-44.8-52.7-110-82.6-194.4-89l2-27.3c92.1,6.9,163.8,40.1,213.3,98.7c73.6,86.7,69.2,197.5,67.1,229.5
					c-10.2,150.1-87.9,262.9-98.7,279.4c0,0-6.2,9.4-6.2,9.4L3716.3,1352.3z"/>
				<g>
					<polygon class="st4" points="875.6,1754.7 730.8,1980.7 1087.6,1872.4 					"/>
					<polygon class="st4" points="1443.3,1678.7 1380.6,1848.9 1681.4,1755.7 					"/>
					<polygon class="st4" points="1967.8,1352.7 2106.3,1423.8 1890.8,1537.5 					"/>
					<polygon class="st4" points="2536.2,1478.4 2656.6,1620.3 2364.9,1604.7 					"/>
					<polygon class="st4" points="2880.9,1427.8 2964.1,1596.1 2679.4,1525.5 					"/>
					<polygon class="st4" points="3536.2,1455.4 3669.1,1414.6 3555.5,1575.9 					"/>
					<polygon class="st4" points="3470.2,1623.3 3519.9,1723.5 3353.2,1786.1 					"/>
					<g>
						<path class="st4" d="M1563.5,853.9l-245.7,60.3c0.3,7.2,0.5,14.3,0.6,21.2l159.7,60.4L1563.5,853.9z"/>
					</g>
					<path class="st4" d="M2255.4,1432.3l-168.2,155.9l283.7-29.7c4.1-11.2,7.9-24.1,10.6-38.7L2255.4,1432.3z"/>
				</g>
				<g>
					<path class="st5" d="M1161.4,1214.6c64.5-63.6,136.5-183.8,97.4-386.8c-37.7-196.1-147.6-292.3-344.1-307.1
						c-223-16.9-487.1,82.5-591.2,115.9c28.1,32.9,45,63.6,56.6,91.3c-0.1-0.2-0.1-0.2-0.2-0.4l0,0l495.8,1027.2l212,117.8
						c-33.3-30.8-57.6-65.4-78.7-120.1c-30.9-80.6-78.8-221-129.9-390.8c19.6-6.5,22.4-6.7,40.2-12.9l26.8-9.1l497.3,339.2l238.1,77
						c-39.9-19.7-81-43.9-142.2-105.3C1466.6,1577.6,1243.7,1330.8,1161.4,1214.6z M1041.1,1021.6
						c-35.2,141.4-161.2,159.5-215.2,155c-61.1-209.6-113.2-398-121.5-439c21.3-6.4,47.2-12.6,73-14.8l0,0c0,0,93-15.2,174.2,50.2
						C1011.9,821.6,1065.8,922.1,1041.1,1021.6z"/>
					<path class="st5" d="M3289,469.4c-51.2,8-120.7,9.9-180.3,10.3l-227.8,948.2l83.2,168.3c-8-24.5,0.2-74,15.9-129.4
						C3060.7,1177.3,3182.9,756.8,3289,469.4z"/>
					<path class="st5" d="M3202,1332.1c60.9,107.9,225,152.2,334.2,123.3l132.9-40.8c-33.7,7.4-92.6,13.9-155.2,9.1
						c-62.5-4.7-202.7-29.9-176.7-171.5c0.4-2.6,371.8,81.9,371.8,81.9c18.5-28.4,60.6-108.8,71-224.4
						c8.1-90.9-24.4-264.5-240.3-280.8c-48.4-3.6-97.9,1.4-145.4,15.5C3216.1,914.6,3087.2,1128.1,3202,1332.1z M3521.5,982.6
						c48.8,3.7,57.2,64,53.4,105.5c-3,33.6-7.6,56.1-11.8,64.7l-189.7-38.8C3396.8,1055.3,3448.4,977.1,3521.5,982.6z"/>
					<path class="st5" d="M4059.5,984.5c-80-6.1-132.3,5.9-174.2,21.3l0,0c2.3,18.9,5.2,103.1-17.3,185.5
						c-36.6,134.1-124.8,224.7-125,225c-1.4-4.1,43.6,102.4,37.7,163.1c-7.6,77-82.6,105.4-162.8,99.9
						c-67.6-4.7-123.1-40.6-147.6-56l49.7,100.2c0,0,94.9,89.3,277.8,80.1c161-8.1,258.8-97.8,270.4-220.4c0,4-0.1,8-0.3,12
						c5.9-131.1-82.6-243-74.7-330.8c4.6-50.4,49.4-83.8,107.5-78.9c47.7,4,96.2,30.7,117.8,71.1l110.5-167.8
						C4250.2,1027.9,4155.4,994.6,4059.5,984.5z"/>
					<path class="st5" d="M2646.8,1531.5c16.9-192.9,40.7-388.8,61.6-545.2c19.5,1.8,77.3,8.1,103,22.7l38.9-152.2
						c-34.4-3.4-101.2-8.6-122.4-10.2c6.2-42.8,11.8-79.5,16.3-108.3c21.8-138.7,111.3-149.4,181-143c17,1.6,44,5.9,57.7,8.8
						l-41.8-171.5c-42.5-20.2-123.1-36.3-175.9-35.3c-24.8,0.4-49.1,3.1-72.4,8.5c-91,33.4-122.2,106.9-135.6,214.1
						c-17.5,140-21,858.5-21,858.5l120.4,141.9C2648.8,1593.9,2644.7,1556,2646.8,1531.5z"/>
					<path class="st5" d="M2106.3,1423.8c-25.3-23.4-47.5-56.9-63.5-95.9c-25.9-62.9-113.3-431-119.5-458.8
						c-6.5-28.6-12.4-58.8-15.8-99.1l-239.8,58.8l300.1,523.8L2106.3,1423.8z"/>
					<path class="st5" d="M1706.1,1353.5c-66.3-6.3-128.9-425.4-142.6-499.6L1478,995.8c0,0,3.5,425.3,70.7,516.9
						c57.3,78.3,148.5,74.9,192.2,49.6c52.7-38.5,82.6-95.6,87-119.8c-23.9-54.5-52.5-130.4-70.9-212.6
						C1768.3,1297,1743.6,1357.2,1706.1,1353.5z"/>
					<g>
						<path class="st5" d="M2363.6,1414.4c-17.6-132.3-29.3-299.3-34.3-453.7l103.1,2.8c4.9-46.4,9.9-91.7,15-134.4l-120.6-1.7
							c-0.5-81.2,1.3-153.8,5.5-208.9c11.5-147.9,101.4-156.8,139-157.1c24.4-0.2,50.9,6.2,73,16.3c7.3-8.8,15-16.8,23.1-24.3
							l-15.8-147.5c-40.1-22.4-106.4-43-157.7-44.1c-60.8-1.4-114.8,8.2-160.5,27.6c-54.5,26.6-99.6,78.1-103.4,184
							c-7.5,207,125.5,958.9,125.5,958.9l126.1,87.5c1.6-8.8,3-18,3.8-27.9C2374.8,1469.2,2367.4,1443.2,2363.6,1414.4z"/>
					</g>
				</g>
			</g>
		</g>
	</g>
</g>
<g>
	<g>
		<path class="st6" d="M4215.7,1782.2c31.1,0,55.9,25.3,55.9,56.4c0,31.6-24.8,56.7-56.2,56.7c-31.1,0-56.4-25.1-56.4-56.7
			c0-31.1,25.3-56.4,56.4-56.4H4215.7z M4215.2,1793.5c-23.6,0-42.6,20.3-42.6,45.4c0,25.3,19.1,45.1,42.9,45.1
			c23.8,0.3,43.1-19.8,43.1-45.1c0-25.1-19.3-45.4-43.1-45.4H4215.2z M4205.7,1871.5h-13.3v-62.7c5-0.8,10.5-1.8,20.1-1.8
			c10.8,0,17.3,1.8,21.6,5c3.5,2.8,5.5,7,5.5,13.5c0,7.5-5.3,12.8-12,14.5v0.5c5.5,1,9,6,10,15.3c1.3,9.8,2.5,13.5,3.5,15.5h-13.8
			c-1.5-2.3-2.5-7.8-3.8-16.3c-1-6.8-5-9.5-11.8-9.5h-6V1871.5z M4205.7,1835.4h6.3c7.8,0,13.8-2.5,13.8-9c0-5.3-3.8-9.3-12.8-9.3
			c-3.3,0-5.5,0-7.3,0.3V1835.4z"/>
	</g>
	<g>
		<path class="st3" d="M4215.7,1782.2c31.1,0,55.9,25.3,55.9,56.4c0,31.6-24.8,56.7-56.2,56.7c-31.1,0-56.4-25.1-56.4-56.7
			c0-31.1,25.3-56.4,56.4-56.4H4215.7z M4215.2,1793.5c-23.6,0-42.6,20.3-42.6,45.4c0,25.3,19.1,45.1,42.9,45.1
			c23.8,0.3,43.1-19.8,43.1-45.1c0-25.1-19.3-45.4-43.1-45.4H4215.2z M4205.7,1871.5h-13.3v-62.7c5-0.8,10.5-1.8,20.1-1.8
			c10.8,0,17.3,1.8,21.6,5c3.5,2.8,5.5,7,5.5,13.5c0,7.5-5.3,12.8-12,14.5v0.5c5.5,1,9,6,10,15.3c1.3,9.8,2.5,13.5,3.5,15.5h-13.8
			c-1.5-2.3-2.5-7.8-3.8-16.3c-1-6.8-5-9.5-11.8-9.5h-6V1871.5z M4205.7,1835.4h6.3c7.8,0,13.8-2.5,13.8-9c0-5.3-3.8-9.3-12.8-9.3
			c-3.3,0-5.5,0-7.3,0.3V1835.4z"/>
	</g>
</g>
</svg>
