<?xml version="1.0" encoding="utf-8"?>
<!-- Generator: Adobe Illustrator 25.2.0, SVG Export Plug-In . SVG Version: 6.00 Build 0)  -->
<svg version="1.1" id="Layer_1" xmlns="http://www.w3.org/2000/svg" xmlns:xlink="http://www.w3.org/1999/xlink" x="0px" y="0px"
	 viewBox="0 0 75.5 50" style="enable-background:new 0 0 75.5 50;" xml:space="preserve">
<style type="text/css">
	.st0{fill:#ffffff;}
	.st1{fill:none;}
</style>
<path class="st0" d="M18.9,39.2c0.5-0.3,0.6-1,1.2-1.1l0.1,0.1c-0.3,0.6-0.7,1.2-1,1.8c-0.2,0.3-0.5,0.4-0.9,0.4
	c-0.5,0-0.6-0.2-0.4-0.7c0.3-0.8,0.7-1.7,1.1-2.5c0.9-1.9,1.9-3.8,2.8-5.7c0.5-1.1,1-2.1,1.5-3.2c0-0.1,0.1-0.3,0.1-0.4
	c-0.1,0.1-0.3,0.1-0.4,0.2l-2.1,2.1c0,0-0.1,0.1-0.1,0.1c0,0.6-0.5,0.8-0.8,1.2c-0.4,0.5-0.8,1-1.2,1.6c-1.4,2.3-2.5,4.7-3.5,7.2
	c-0.1,0.3-0.3,0.7-0.4,1.1c-0.1,0.3-0.5,0.4-0.7,0.2c0,0-0.1,0-0.1-0.1C14,41.3,14,41.2,14,41.1c0.7-1.8,1.4-3.5,2.2-5.3
	c0.2-0.5,0.5-1.1,0.7-1.6l-0.1-0.1c-0.2,0.1-0.4,0.3-0.7,0.4c-0.5,0.4-1,0.8-1.6,1.2c-1.1,0.7-2.2,1.4-3.4,2.1
	c-1.1,0.6-2.3,1.1-3.5,1.3c-0.7,0.1-1.3,0.1-2,0c-1.3-0.3-2.1-1.6-1.7-2.9c0.2-1.6,0.8-3.2,1.6-4.6c1.2-2.1,2.6-4.1,4.2-5.9
	c1.1-1.2,2.2-2.4,3.5-3.5c1.5-1.4,3.3-2.6,5.3-3.5c0.4-0.2,0.8-0.3,1.3-0.4c0.4-0.1,0.9,0,1.2,0.3c0.2,0.1,0.2,0.4,0.1,0.6
	c-0.4,0.5-1,0.7-1.6,0.6l1.1-0.9v-0.1c-0.2,0-0.4,0-0.6,0c-1.2,0.3-2.4,0.9-3.4,1.6c-1.5,1-2.9,2.1-4.2,3.4
	c-1.8,1.7-3.5,3.7-4.9,5.8c-0.9,1.3-1.6,2.7-2.2,4.2c-0.4,0.9-0.5,1.8-0.6,2.7c0,1.3,0.5,1.9,2,2c1.1,0,2.1-0.3,3.1-0.8
	c1.7-0.8,3.3-1.7,4.8-2.7c0.7-0.6,1.4-1.2,2.1-1.9c0.2-0.2,0.5-0.4,0.7-0.6c0.6-0.5,1.1-1.2,1.3-2c0.8-1.8,1.6-3.5,2.3-5.3
	c0.3-0.8,0.5-1.6,0.8-2.3c0.1-0.2,0.1-0.4,0.4-0.4c0.2,0,0.4,0.2,0.4,0.4c0,0,0,0,0,0c0,0.2-0.1,0.5-0.2,0.7
	c-0.8,1.8-1.5,3.6-2.3,5.5c-0.2,0.5-0.5,1.1-0.7,1.6l0.1,0.1c0.1-0.1,0.3-0.2,0.4-0.3c0.8-0.9,1.6-1.8,2.5-2.7
	c0.4-0.3,0.8-0.6,1.3-0.8c0.3-0.1,0.7,0,0.8,0.3c0,0.1,0.1,0.3,0,0.4c-0.3,0.9-0.6,1.8-1.2,2.7c-1.3,2.8-2.7,5.6-4,8.4
	C19.1,39,19,39.1,18.9,39.2z"/>
<path class="st0" d="M61,18c3.3-2.2,6.8-3.9,10.5-5c0.1,0,0.2,0,0.3,0l0.1,0.1c-0.4,0.3-0.8,0.6-1.3,0.8c-1.6,0.8-3.3,1.5-5,2.3
	c-1.7,0.8-2.9,1.7-4.3,2.6c-0.2,0.1-0.4,0.4-0.4,0.6c0.1,1.5,0.1,3,0.2,4.5c0.1,1,0.2,2,0.3,3c0.1,0.2-0.1,0.4-0.3,0.5c0,0,0,0,0,0
	c-0.2,0-0.4,0-0.5-0.3c-0.1-0.8-0.3-1.5-0.3-2.3c-0.1-1.5-0.1-3.1-0.2-4.7c0-0.1,0-0.2,0-0.4c-0.5,0.1-0.8,0.5-0.8,0.9
	c0,1.4,0,2.7,0,4.1c0,0.3,0.1,0.6,0.2,0.9c-0.4,0.4-0.9,0.1-0.9-0.4c0-0.3-0.1-0.6-0.1-1c0-1,0-1.9,0-2.9c0-0.1,0-0.2,0-0.4h-0.1
	c-0.4,0.5-0.8,1-1.2,1.5c-0.2,0.2-0.3,0.3-0.6,0.3c-0.2,0-0.3-0.1-0.4-0.2c0-0.1,0-0.3,0.1-0.4c0.7-0.7,1.4-1.5,2-2.2
	c0.1-0.1,0.1-0.2,0.1-0.4c0-0.6-0.1-1.1-0.1-1.7c0-0.1,0.1-0.3,0.1-0.3c0.2,0,0.5,0,0.7,0.1c0.1,0,0.1,0.2,0.1,0.4c0,0.3,0,0.7,0,1
	c0.6-0.2,0.8-0.5,0.8-1c0-0.8-0.1-1.5-0.1-2.3c0-0.2-0.1-0.5-0.1-0.7c-0.1-0.3,0-0.4,0.3-0.4s0.6,0.1,0.6,0.5c0,0.8,0.1,1.5,0.1,2.3
	C61,17.7,61,17.8,61,18z"/>
<path class="st0" d="M55.8,26l-0.3,0.9c-0.1,0.3-0.3,0.5-0.6,0.6c-0.3,0.1-0.7,0-0.9-0.3c0-0.1-0.1-0.2-0.1-0.3
	c0-0.6,0.2-1.3,0.2-1.9c0-0.2,0-0.4,0-0.6c0-0.3,0.3-0.6,0.6-0.6c0.1,0,0.2,0,0.3,0.1c0.3,0.1,0.6,0.2,1,0.4c0.1,0,0.3,0.2,0.3,0.3
	c0,0.7,0.3,1.3,0.8,1.7c0,0-0.1,0.3-0.1,0.3c-0.2,0-0.5,0-0.7-0.1C56.1,26.4,56,26.2,55.8,26z M54.8,25.9L54.8,25.9
	c0.4-0.4,0.5-1.2,0.2-1.4L54.8,25.9z"/>
<path class="st1" d="M33.2,41.8l0.1,0.2l0.6-0.3l-0.1-0.1L33.2,41.8z"/>
<path class="st1" d="M36.4,40.5c-0.3,0.1-0.7,0.2-1,0.3c-0.1,0.1-0.3,0.2-0.4,0.3v0.2c0.7-0.1,1.2-0.5,1.9-0.5v-0.2
	C36.7,40.6,36.5,40.5,36.4,40.5z"/>
<path class="st1" d="M43.2,38.2c-0.1,0.1-0.1,0.1-0.1,0.2c0,0.1,0.1,0.1,0.1,0.2c0.1,0,0.2-0.1,0.2-0.1c0,0,0.1-0.1,0.1-0.1
	c0.2,0,0.3,0,0.5,0c0.1,0,0.2-0.1,0.4-0.1c-0.1-0.1-0.2-0.2-0.3-0.2C43.8,38,43.5,38.1,43.2,38.2z"/>
<path class="st1" d="M38.2,39.9c-0.4,0.1-0.8,0.3-1.2,0.4l0.2,0.3l0.2-0.2h0.4v-0.2l0.4-0.3v0.2l0.1,0.1l0.3-0.4
	C38.5,39.9,38.3,39.9,38.2,39.9z"/>
<path class="st1" d="M42.5,38.4c-0.3,0.1-0.7,0.2-1,0.3c-0.2,0.1-0.4,0.3-0.6,0.3c-0.5,0-1,0.1-1.4,0.4c0,0-0.1,0-0.2,0.1l-0.4,0.2
	c0.2,0,0.4,0,0.7,0c0.1,0,0.3,0,0.4-0.1c0.4-0.2,0.7-0.5,1.2-0.4c0,0,0.1,0,0.1,0c0.1-0.2,0.3-0.2,0.5-0.2s0.2-0.1,0.2-0.1
	s0.1-0.1,0.2-0.1s0.4,0,0.7,0C42.9,38.4,42.8,38.3,42.5,38.4z"/>
<path class="st1" d="M34.1,41.6v0.1l0.6-0.3C34.4,41.1,34.4,41.2,34.1,41.6z"/>
<path class="st1" d="M52.3,16.3h-0.1L52,17.2h0.2L52.3,16.3z"/>
<path class="st1" d="M44.2,21.9l-0.7,0.4l0.3,1.4h0.1L44.2,21.9L44.2,21.9z"/>
<path class="st1" d="M32.4,42c0,0,0.1,0.1,0.1,0.1l0.5-0.1l-0.1-0.2L32.4,42z"/>
<path class="st1" d="M42.9,27c0.3-0.6,0.3-1.4,0-2V27z"/>
<path class="st1" d="M43.1,33.8c0.2-0.1,0.3-0.1,0.5-0.2c0.5-0.1,1-0.2,1.5-0.4c0.8-0.2,1.6-0.5,2.4-0.8s1.8-0.5,2.6-0.8
	c0.4-0.1,0.4-0.3,0.2-0.7l-7.7,2.7V34L43.1,33.8z"/>
<path class="st1" d="M28.6,43.3c0.1,0.3,0.3,0.2,0.5,0.1c0.1-0.1,0.2-0.1,0.3-0.1c0.5,0.1,0.7-0.3,1-0.5v-0.1L28.6,43.3z"/>
<path class="st1" d="M49.6,36.3c0.4,0.1,0.7,0.4,1.1,0C50.3,35.9,49.9,36.2,49.6,36.3z"/>
<path class="st1" d="M51.9,36c0.1,0,0.2-0.2,0.2-0.3l-0.1-0.1c-0.3,0.3-0.6,0.2-1,0.2C51.4,36.3,51.7,36.1,51.9,36z"/>
<path class="st1" d="M52.3,30.3v-0.2c-0.1,0-0.2-0.1-0.3-0.1c-0.2,0.1-0.4,0.2-0.6,0.3v0.1L52.3,30.3z"/>
<path class="st1" d="M53.2,35.9v-0.5l-0.5,0.1v0.1L53.2,35.9z"/>
<path class="st1" d="M44.4,37.9V38c0.1,0,0.3,0.2,0.4,0.1s0.5-0.2,0.4-0.6L44.4,37.9z"/>
<path class="st1" d="M63.6,28.1c-0.6,0.1-1.2,0.2-1.7,0.3s-1.4,0.2-2.2,0.4c-1,0.2-1.9,0.4-2.9,0.6S55,29.7,54.2,30
	s-1.6,0.5-2.4,0.7c-0.5,0.1-0.5,0.1-0.4,0.8c0.6-0.2,1.1-0.4,1.7-0.5c1.1-0.3,2.3-0.6,3.4-0.9l3.4-0.9c1-0.2,2-0.5,3-0.7
	c0.6-0.1,1.1-0.3,1.6-0.5C64.1,28,63.8,28,63.6,28.1z"/>
<path class="st1" d="M47,33.5c-1,0.3-2.1,0.7-3.1,1c-0.9,0.3-1.8,0.5-2.6,0.8c-1,0.3-2.1,0.7-3.1,1.1c-0.9,0.3-1.8,0.6-2.6,0.9
	c-1,0.4-2.1,0.8-3.1,1.2c-0.8,0.3-1.7,0.7-2.5,1s-1.3,0.7-1.9,1.1c-0.9,0.5-1.9,1-2.8,1.6c-1.1,0.7-2.2,1.3-3.3,2s-2,1.3-3,2
	l0.1,0.1l2-0.8l3.5-1.3c0.6-0.2,1.2-0.4,1.8-0.6l3.5-1.2l1.6-0.5l2.8-1l1.5-0.5l3.8-1.3c0.4-0.1,0.8-0.2,1.1-0.3
	c0.6-0.2,1.2-0.5,1.9-0.7s1.4-0.4,2.2-0.7c1.3-0.4,2.5-0.8,3.8-1.2c0.8-0.2,1.7-0.5,2.4-0.7c-0.1-1.1-0.2-2.1-0.4-3.1
	C49.3,32.9,48.2,33.2,47,33.5z"/>
<path class="st1" d="M54.5,29.5l-1.8,0.5c-0.1,0-0.1,0.2-0.2,0.3l2-0.6L54.5,29.5z"/>
<path class="st1" d="M58.9,34c-0.1,0-0.2,0.2-0.3,0.1c-0.3-0.1-0.2,0.1-0.2,0.2C58.9,34.3,59,34.2,58.9,34z"/>
<path class="st1" d="M55.7,29.2l-0.9,0.2C55.2,29.7,55.4,29.4,55.7,29.2z"/>
<path class="st1" d="M45.4,37.6h0.3l-0.2,0.2c0.4,0,0.9-0.1,1.3-0.2c0.4-0.2,0.9-0.4,1.3-0.4c0.3-0.4,0.7-0.3,1.1-0.4l0.1-0.4
	l-3.9,1.1L45.4,37.6z"/>
<path d="M32.7,37.3"/>
<path class="st0" d="M67.3,27c-0.3-0.1-0.5-0.1-0.8-0.1c-0.9,0.1-1.8,0.2-2.7,0.3c-1.1,0.2-2.2,0.4-3.4,0.6l-2.6,0.6
	c-0.9,0.2-1.8,0.4-2.7,0.6c-0.6,0.2-1.3,0.4-1.9,0.5l-1.9,0.5c0-0.3-0.1-0.7-0.1-1c0.1-1.9,0.2-3.8,0.3-5.6c0.1-1.2,0.2-2.5,0.4-3.7
	c0.2-1.5,0.5-3,0.8-4.4c0.3-1.2,0.6-2.5,1-3.7c0.5-1.4,1.1-2.9,1.6-4.3s1.2-3,1.9-4.4c0.1-0.3,0.2-0.6-0.2-0.8s-0.5,0-0.7,0.2
	c-0.8,0.9-1.7,1.8-2.4,2.8S52.6,7,51.9,8c-0.9,1.3-1.7,2.7-2.5,4.1c-0.7,1.2-1.3,2.4-1.8,3.7c-0.5,1.3-1,2.5-1.3,3.9
	c-0.4,1.5-0.8,3.1-1.2,4.6c-0.3,1.2-0.5,2.4-0.8,3.5c0,0.1-0.1,0.3-0.2,0.4H44c-0.1-0.7-0.1-1.3,0-2c0.2-1.2,0.6-2.3,0.9-3.4
	c0.6-2,1.2-4,1.7-6c0.1-0.3,0.1-0.6,0.2-0.9c0-0.2-0.1-0.4-0.3-0.4s-0.3,0.2-0.3,0.4c-0.5,1.8-1,3.6-1.6,5.3c0,0.1-0.1,0.3-0.3,0.3
	c-0.8,0.4-1.5,0.7-2.3,1c-1,0.5-2.1,1-3.2,1.5s-2.2,1.2-3.2,1.9c-1.6,1-3.1,2-4.6,3.1c-0.1,0-0.1,0.1-0.2,0.1c0,0,0-0.1,0-0.1
	c0.3-1.5,0.6-3.1,1-4.6c0.5-1.8,1.2-3.5,2.1-5c0.5-0.7,1-1.4,1.6-2.1c0.4-0.5,0.8-0.4,1.1,0.1s0.5,1,0.8,1.4
	c0.1,0.1,0.1,0.3,0.2,0.4c0.1,0.1,0.2,0.1,0.3,0.1s0.1-0.2,0.1-0.3c-0.3-0.9-0.8-1.7-1.4-2.4c-0.5-0.4-1.2-0.4-1.6,0
	c-0.2,0.2-0.4,0.4-0.6,0.7c-0.8,1.1-1.4,2.3-2,3.5c-0.7,1.5-1.3,3-1.6,4.6c-0.3,1.4-0.5,2.9-0.8,4.3c0,0.1-0.1,0.2-0.2,0.3
	c-0.8,0.6-1.7,1.2-2.5,1.8c-0.3,0.2-0.3,0.4,0,0.5c0.4,0.2,0.8,0.1,1.1-0.1c0.4-0.4,0.8-0.7,1.2-1c0.1,0,0.2-0.1,0.2-0.1
	c0.1,0.4-0.1,0.9-0.4,1.2c-0.6,0.6-1.2,1.2-1.9,1.8c-1,0.9-2,1.8-3.1,2.6c-0.4,0.3-0.8,0.5-1.3,0.6c-0.3,0.1-0.7,0-0.8-0.3
	c0-0.1-0.1-0.2-0.1-0.3c-0.1-0.9,0.1-1.8,0.4-2.6c0.6,0.3,1.3,0.2,1.8-0.3c0.3-0.2,0.5-0.5,0.8-0.8c0.8-1.1,1.7-2.1,2.5-3.3
	c0.7-1,1.3-2.1,1.7-3.2c0.2-0.5-0.1-1.1-0.6-1.3c-0.2-0.1-0.4-0.1-0.7,0c-0.6,0.2-1.1,0.5-1.5,0.9c-2,1.9-3.5,4.2-4.5,6.8
	c-0.4,0.9-0.7,1.9-0.8,2.9c-0.1,0.7-0.1,1.4,0.6,1.8c0.4,0.2,0.9,0.3,1.4,0.2c0.7-0.2,1.4-0.5,1.9-1.1c1.1-1,2.1-1.9,3.1-2.9
	c0.4-0.4,0.8-0.8,1.2-1.2c0.1,0.4,0.1,0.6,0.2,0.8c0.2,0.9,0.7,1.6,1.5,2.1c0.2,0.2,0.5,0.1,0.7-0.1c-0.2-0.1-0.4-0.2-0.5-0.4
	c-0.8-0.8-1.2-2-1-3.2c0-0.1,0.1-0.2,0.2-0.2c0.3-0.4,0.5-0.8,0.8-1.2c0-0.1,0.1-0.2,0.1-0.2h-0.1l-0.8,0.7c-0.2-0.5,0.1-0.7,0.4-1
	c1.9-1.5,4-2.8,6.1-4c1.4-0.7,2.7-1.5,4.1-2.3c0.5-0.3,1-0.5,1.5-0.8c-0.1,0.8-0.1,1.6-0.2,2.4c-0.1,1-0.2,2.1-0.3,3.2
	c-0.1,0.6-0.1,1.3-0.2,1.9c0,0.3,0.2,0.4,0.4,0.4c0.2-0.1,0.4-0.2,0.4-0.5c0.1-0.5,0.3-1.1,0.5-1.6c0.4,0.4,1,0.4,1.3,0
	c0.1-0.1,0.2-0.3,0.3-0.5c0.2-0.6,0.3-1.2,0.4-1.8c0.5-2.8,1.2-5.5,2.1-8.2c1-2.8,2.3-5.5,3.9-8c1.3-2,2.7-3.9,4.2-5.7
	c0.1-0.2,0.3-0.3,0.4-0.5c0,0.1,0,0.1,0,0.2l-1.6,3.5c-1.1,2.5-1.9,5.1-2.5,7.8c-0.4,1.9-0.7,3.8-0.9,5.6s-0.3,3.6-0.4,5.4
	c-0.1,1.1,0,2.2,0,3.3c0,0.2-0.1,0.3-0.2,0.4c-0.5,0.2-1,0.3-1.4,0.5c-0.2,0.1-0.5,0.1-0.7,0.2v0.1c0.3,0,0.6-0.1,0.8-0.1
	s0.7-0.2,1-0.4c0.1,0,0.2,0,0.3,0.1c-0.1,0.1-0.2,0.2-0.3,0.2c-0.7,0.2-1.4,0.4-2.1,0.7c-1,0.3-2,0.7-3,1c-1.7,0.7-3.4,1.3-5,2
	c-0.9,0.3-1.8,0.8-2.6,1.1c-1.1,0.4-2.3,0.8-3.4,1.2h-0.1v-0.2l-1,0.4v0.1c-0.4,0.2-0.8,0.4-1.2,0.5c-0.7,0.3-1.4,0.6-2.1,0.9
	c-0.5,0.2-0.9,0.4-1.4,0.6L26.6,40c-0.4,0.2-0.8,0.4-1.2,0.5c-0.9,0.4-1.9,0.7-2.8,1.1c-0.4,0.2-0.8,0.4-1.2,0.6s-0.9,0.3-1.3,0.5
	c-0.6,0.2-1.3,0.5-1.9,0.8s-1.6,0.7-2.3,1c-1.1,0.5-2.2,0.9-3.3,1.3c-1.4,0.5-2.8,1-4.2,1.4c-0.5,0.1-1,0.2-1.5,0.2L7.2,47
	c-0.2-0.1-0.3-0.2-0.5-0.2c-0.3,0.1-0.6,0.2-0.9,0.3c-0.1,0.1-0.3,0.2-0.3,0.3s0.2,0.4,0.3,0.4C6.2,48,6.6,48.1,7,48.1
	c1.1,0,2.2-0.2,3.2-0.6c2-0.7,3.9-1.5,5.9-2.2c1.3-0.5,2.6-1.1,3.8-1.7s2.3-1,3.5-1.4c0.4-0.2,0.8-0.5,1.3-0.1c0-0.4,2.5-1.6,3-1.5
	c-0.1,0.1-0.1,0.2-0.2,0.2l-1.3,0.7l-3.4,2c-0.3,0.2-0.6,0.5-1,0.4c-0.1,0-0.3,0.2-0.3,0.3c-0.3,0.4-0.7,0.7-1.2,0.8
	c-0.3,0.6-1,0.7-1.6,1c0.1-0.4,0.4-0.6,0.8-0.7c0.1,0,0.3,0,0.3-0.3c0-0.2,0.2-0.3,0.3-0.3c0.1,0,0.1,0,0.1,0.1c0.1,0,0.2,0,0.3,0
	l0.3-0.6c-0.2,0-0.3,0.1-0.4,0.1c-1.1,0.8-2.2,1.6-3.3,2.5c-0.2,0.1-0.3,0.4-0.2,0.7c0.1,0.3,0.3,0.4,0.6,0.4c0,0,0,0,0,0
	c0.4,0,0.8-0.1,1.2-0.2c1.6-0.6,3.2-1.2,4.8-1.7c2.2-0.8,4.3-1.6,6.5-2.3c1.6-0.6,3.3-1.1,5-1.7s3.3-1.2,5-1.8
	c2.6-0.8,5.2-1.7,7.8-2.5c2.2-0.7,4.4-1.2,6.6-1.8c1.6-0.4,3.2-0.8,4.8-1.2c1.3-0.3,2.7-0.6,4-0.9c0.6-0.1,1.2-0.2,1.8-0.3l0,0
	l-1-0.1c0.1-0.1,0.3-0.1,0.3-0.2c0.1-0.2,0.2-0.2,0.4-0.1c0.1,0,0.1,0,0.2,0l1.6-0.4c-0.1,0-0.1-0.1-0.2-0.1c-1,0.1-1.9,0.2-2.8,0.3
	c-0.9,0.2-1.8,0.4-2.6,0.5c-0.7,0.2-1.4,0.3-2.2,0.5c-0.9,0.2-1.8,0.4-2.6,0.7L53.4,35l-1.6,0.4c-0.1-0.2-0.2-0.4-0.2-0.6
	c-0.1-0.8-0.2-1.5-0.3-2.3c0-0.1,0.1-0.2,0.2-0.2c0.4-0.1,0.8-0.2,1.3-0.4c0.7-0.2,1.4-0.4,2.2-0.6c1.4-0.3,2.7-0.6,4.1-1
	c1.5-0.4,3.1-0.8,4.6-1.2c1.2-0.3,2.5-0.7,3.7-1.1c0.2-0.1,0.3-0.2,0.3-0.4C67.8,27.4,67.7,27.1,67.3,27z M23.8,31.2
	c0.8-1.6,1.9-3.2,3.3-4.5c0.4-0.3,0.8-0.6,1.2-0.9c0.2-0.1,0.3-0.1,0.5-0.2c0,0.3-0.1,0.6-0.2,0.9c-0.5,1.2-1.1,2.3-1.9,3.4
	c-0.6,0.8-1.2,1.5-1.8,2.3c-0.3,0.3-0.5,0.6-0.8,0.9c-0.4,0.4-0.4,0.6-1.3,0.3C23.1,32.6,23.4,31.9,23.8,31.2z M42.9,27v-2
	C43.2,25.7,43.2,26.4,42.9,27z M43.7,23.7l-0.3-1.4l0.7-0.4l0.1,0.1L43.7,23.7L43.7,23.7z M52.2,16.3h0.1l-0.1,0.9H52L52.2,16.3z
	 M50.4,31c0.2,0.4,0.2,0.6-0.2,0.7c-0.9,0.3-1.8,0.5-2.6,0.8s-1.6,0.5-2.4,0.8c-0.5,0.2-1,0.2-1.5,0.4c-0.2,0.1-0.3,0.1-0.5,0.2
	L42.7,34v-0.2L50.4,31z M29.4,43.2c-0.1,0-0.2,0-0.3,0.1c-0.2,0.2-0.3,0.2-0.5-0.1l1.8-0.6v0.1C30,42.9,29.8,43.3,29.4,43.2
	L29.4,43.2z M32.5,42.2L32.4,42l0.4-0.3l0.1,0.2L32.5,42.2z M33.3,42l-0.1-0.2l0.6-0.3l0.1,0.1L33.3,42z M34.1,41.7v-0.1
	c0.3-0.4,0.3-0.5,0.7-0.2L34.1,41.7z M36.8,40.8c-0.7,0-1.2,0.4-1.9,0.5v-0.2c0.1-0.1,0.3-0.2,0.4-0.3c0.3-0.1,0.7-0.2,1-0.3
	c0.1,0,0.3,0.1,0.4,0.1L36.8,40.8z M38.4,40.3L38.4,40.3L38.3,40l-0.4,0.3v0.2h-0.4l-0.2,0.2L37,40.3c0.4-0.2,0.8-0.3,1.2-0.4
	c0.1,0,0.3,0,0.4,0L38.4,40.3z M42.8,38.8c-0.2,0-0.4,0-0.7,0S42,38.9,42,38.9s-0.2,0.1-0.2,0.1s-0.4,0-0.5,0.2c0,0-0.1,0.1-0.1,0
	c-0.5-0.2-0.8,0.2-1.2,0.4c-0.1,0-0.3,0.1-0.4,0.1c-0.2,0-0.4,0-0.7,0l0.4-0.2c0.1,0,0.1,0,0.2-0.1c0.4-0.3,0.9-0.4,1.4-0.4
	c0.2,0,0.4-0.2,0.6-0.3c0.3-0.1,0.7-0.3,1-0.3C42.8,38.3,42.9,38.4,42.8,38.8L42.8,38.8z M44.1,38.3c-0.2,0-0.3,0-0.5,0
	c0,0,0,0.1-0.1,0.1c-0.1,0.1-0.1,0.1-0.2,0.1c-0.1,0-0.1-0.1-0.1-0.2c0-0.1,0-0.2,0.1-0.2c0.3-0.1,0.6-0.2,0.9-0.2
	c0.1,0,0.2,0.2,0.3,0.2C44.3,38.2,44.2,38.3,44.1,38.3L44.1,38.3z M44.8,38.1c0,0-0.3-0.1-0.4-0.1v-0.1l0.8-0.4
	C45.3,37.9,44.9,37.9,44.8,38.1L44.8,38.1z M49.3,36.8c-0.4,0-0.8,0-1.1,0.4c-0.5,0-0.9,0.2-1.3,0.4c-0.4,0.1-0.9,0.2-1.3,0.2
	l0.2-0.2h-0.3v-0.1l3.9-1.1L49.3,36.8z M49.6,36.3c0.4-0.1,0.7-0.4,1.1,0C50.3,36.7,49.9,36.5,49.6,36.3L49.6,36.3z M48.5,36.3
	c-1.3,0.4-2.5,0.8-3.8,1.2c-0.7,0.2-1.5,0.4-2.2,0.7s-1.2,0.5-1.9,0.7c-0.4,0.1-0.8,0.2-1.1,0.3l-3.8,1.3L34.2,41l-2.8,1l-1.6,0.6
	l-3.5,1.2c-0.6,0.2-1.2,0.4-1.8,0.6L21,45.6l-2,0.8l-0.1-0.1c1-0.7,2-1.4,3-2s2.2-1.4,3.3-2c0.9-0.5,1.9-1,2.8-1.6
	c0.6-0.4,1.2-0.8,1.9-1.1s1.6-0.7,2.5-1c1-0.4,2.1-0.8,3.1-1.2c0.9-0.3,1.8-0.6,2.6-0.9c1-0.4,2.1-0.7,3.1-1.1
	c0.9-0.3,1.8-0.5,2.6-0.8c1-0.3,2.1-0.7,3.1-1s2.3-0.6,3.5-1c0.1,1,0.2,2,0.4,3.1C50.1,35.9,49.3,36.1,48.5,36.3L48.5,36.3z
	 M58.7,34.1c0.1,0,0.2-0.1,0.3-0.1c0,0.3,0,0.3-0.5,0.4C58.5,34.2,58.4,34,58.7,34.1L58.7,34.1z M55.7,29.2
	c-0.2,0.2-0.4,0.5-0.9,0.2L55.7,29.2z M52.7,29.9l1.8-0.5v0.1l-2,0.6C52.6,30.1,52.6,30,52.7,29.9L52.7,29.9z M52.1,30
	c0.1,0,0.2,0,0.3,0.1v0.2l-0.9,0.2v-0.1C51.7,30.2,51.9,30.2,52.1,30L52.1,30z M53.2,35.3v0.5l-0.5-0.3v-0.1L53.2,35.3z M52.1,35.5
	L52.1,35.5c0,0.2,0,0.4-0.1,0.4c-0.3,0.1-0.6,0.3-0.8-0.2C51.5,35.7,51.8,35.8,52.1,35.5L52.1,35.5z M62.8,28.5c-1,0.2-2,0.5-3,0.7
	l-3.4,0.9c-1.1,0.3-2.3,0.6-3.4,0.9c-0.6,0.1-1.1,0.3-1.7,0.5c-0.2-0.6-0.1-0.6,0.4-0.8c0.8-0.2,1.6-0.5,2.4-0.7s1.7-0.4,2.6-0.6
	s1.9-0.5,2.9-0.6c0.7-0.1,1.4-0.2,2.2-0.4s1.2-0.2,1.7-0.3c0.3-0.1,0.6-0.1,0.9,0C63.9,28.2,63.4,28.4,62.8,28.5L62.8,28.5z"/>
</svg>
