<svg id="Layer_1" data-name="Layer 1" xmlns="http://www.w3.org/2000/svg" viewBox="0 0 200 50"><defs><style>.cls-1{fill:#064377;}.cls-2{fill:none;}</style></defs><path class="cls-1" d="M121,38.28c.48-.28.54-.94,1.12-1.06l.13.1c-.32.54-.62,1.1-1,1.63a.84.84,0,0,1-.82.34c-.43,0-.57-.21-.41-.62.31-.8.63-1.6,1-2.38.85-1.78,1.73-3.55,2.6-5.33l1.44-3a2.6,2.6,0,0,0,.11-.39,2.8,2.8,0,0,0-.37.23c-.66.64-1.32,1.28-2,1.93,0,0-.1.09-.1.14,0,.56-.5.74-.77,1.1A15.34,15.34,0,0,0,121,32.48a44.9,44.9,0,0,0-3.28,6.72c-.13.33-.25.67-.39,1a.51.51,0,0,1-.76.16.38.38,0,0,1-.07-.32c.67-1.66,1.34-3.3,2-5,.21-.5.44-1,.66-1.49l-.06-.07c-.21.13-.42.25-.61.39-.51.36-1,.76-1.51,1.09-1,.67-2.09,1.34-3.17,1.94a9.9,9.9,0,0,1-3.24,1.24,5.17,5.17,0,0,1-1.84,0,2.25,2.25,0,0,1-1.64-2.67,11.93,11.93,0,0,1,1.49-4.33,25.81,25.81,0,0,1,4-5.48,44.74,44.74,0,0,1,3.22-3.24,18.5,18.5,0,0,1,4.9-3.25,8.11,8.11,0,0,1,1.18-.38,1.14,1.14,0,0,1,1.07.24.44.44,0,0,1,.1.59,1.68,1.68,0,0,1-1.5.61l1-.83,0-.11a4.38,4.38,0,0,0-.51,0,8.94,8.94,0,0,0-3.22,1.53A26.07,26.07,0,0,0,114.87,24a33.18,33.18,0,0,0-4.56,5.4,19.76,19.76,0,0,0-2.06,3.88,7.23,7.23,0,0,0-.54,2.55c0,1.25.51,1.79,1.83,1.86a6.33,6.33,0,0,0,2.85-.71,25.44,25.44,0,0,0,4.48-2.56,20,20,0,0,0,1.94-1.75,4.72,4.72,0,0,1,.67-.6,3.92,3.92,0,0,0,1.2-1.89c.72-1.64,1.45-3.28,2.14-4.93.29-.71.5-1.45.72-2.18.06-.2.12-.36.35-.34s.43.17.42.43a2,2,0,0,1-.15.63c-.71,1.71-1.44,3.41-2.17,5.11-.21.51-.44,1-.67,1.53l.08.06a3.57,3.57,0,0,0,.37-.31c.76-.83,1.5-1.7,2.29-2.5a3.54,3.54,0,0,1,1.19-.73c.43-.19.81.21.73.67a9.9,9.9,0,0,1-1.08,2.5c-1.25,2.62-2.52,5.24-3.77,7.86A1.71,1.71,0,0,0,121,38.28Z"/><path class="cls-1" d="M160.36,18.48a37.73,37.73,0,0,1,9.85-4.64,1.38,1.38,0,0,1,.29,0l.05.1a13.75,13.75,0,0,1-1.21.72c-1.54.74-3.12,1.38-4.63,2.17s-2.67,1.59-4,2.39a.59.59,0,0,0-.33.6c.06,1.4.06,2.81.14,4.21.05.93.18,1.85.29,2.77a.34.34,0,0,1-.27.43c-.21.05-.43,0-.47-.25-.1-.73-.25-1.45-.29-2.18-.07-1.45-.09-2.9-.14-4.35,0-.11,0-.22,0-.33a.86.86,0,0,0-.75.86c0,1.28,0,2.56,0,3.83a6.48,6.48,0,0,0,.15.82c-.4.37-.81.11-.85-.36a8.66,8.66,0,0,1-.07-.89c0-.9,0-1.79,0-2.69a2.09,2.09,0,0,0,0-.34l-.09-.05c-.38.46-.74.93-1.14,1.37a1,1,0,0,1-.52.29.49.49,0,0,1-.39-.2c0-.07,0-.28.11-.38.62-.68,1.26-1.35,1.89-2A.49.49,0,0,0,158,20c0-.54,0-1.08-.06-1.62,0-.09.07-.25.1-.25a1.8,1.8,0,0,1,.62.11c.08,0,.11.23.12.36,0,.3,0,.61,0,.93.57-.18.75-.43.73-.94,0-.72-.06-1.45-.11-2.17a3.43,3.43,0,0,0-.11-.64c-.08-.29,0-.4.31-.36s.55.08.56.46c0,.73.1,1.45.14,2.17C160.36,18.16,160.35,18.28,160.36,18.48Z"/><path class="cls-1" d="M155.51,26c-.12.31-.23.58-.33.85a.89.89,0,0,1-.57.55.6.6,0,0,1-.84-.59c0-.59.14-1.18.19-1.77,0-.19-.05-.38,0-.57a.55.55,0,0,1,.83-.48c.3.12.6.21.89.34.11.05.24.15.26.25a2.6,2.6,0,0,0,.73,1.63s-.07.26-.1.26a2.34,2.34,0,0,1-.64-.12C155.77,26.27,155.67,26.12,155.51,26Zm-.9-.07h.1c.25-.42.35-1.16.14-1.34Z"/><path class="cls-2" d="M134.38,40.67l.1.17.51-.32-.07-.14Z"/><path class="cls-2" d="M137.34,39.5a8.16,8.16,0,0,0-1,.32,1.84,1.84,0,0,0-.39.27l0,.17c.62-.08,1.13-.49,1.77-.48v-.19A1.21,1.21,0,0,0,137.34,39.5Z"/><path class="cls-2" d="M143.71,37.29c-.06,0-.11.14-.1.22a.23.23,0,0,0,.13.16c.07,0,.15-.07.21-.12s.05-.09.07-.12h.47a3.37,3.37,0,0,0,.34-.1c-.1-.08-.2-.23-.29-.22A4,4,0,0,0,143.71,37.29Z"/><path class="cls-2" d="M139,38.9c-.37.11-.73.25-1.13.39l.16.32.21-.19h.43l0-.15.4-.25,0,.17.09.08.27-.33A1.21,1.21,0,0,0,139,38.9Z"/><path class="cls-2" d="M143.08,37.53a9.82,9.82,0,0,0-1,.32c-.19.08-.35.28-.54.29a2.4,2.4,0,0,0-1.35.38l-.15.06-.39.17a2.75,2.75,0,0,0,.62,0,1.1,1.1,0,0,0,.37-.06c.36-.14.65-.47,1.09-.33a.12.12,0,0,0,.12,0c.08-.23.26-.22.45-.22s.15-.07.22-.12.12-.12.18-.12.39,0,.62,0C143.45,37.54,143.38,37.45,143.08,37.53Z"/><path class="cls-2" d="M135.2,40.48l0,.1.59-.27C135.52,40.06,135.46,40.07,135.2,40.48Z"/><path class="cls-2" d="M152.24,16.9l-.11,0-.17.84h.14Z"/><path class="cls-2" d="M144.66,22.12l-.7.39.25,1.29.1,0,.43-1.64Z"/><path class="cls-2" d="M133.63,40.9l.07.12.39-.19-.11-.19Z"/><path class="cls-2" d="M143.41,26.91a2.13,2.13,0,0,0,0-1.86C143.39,25.67,143.4,26.29,143.41,26.91Z"/><path class="cls-2" d="M143.6,33.26a4,4,0,0,1,.44-.17c.48-.12,1-.2,1.42-.34.77-.23,1.53-.51,2.3-.75s1.64-.47,2.46-.71c.35-.1.41-.29.2-.64l-7.2,2.54.05.17Z"/><path class="cls-2" d="M130.07,42.05c.13.25.28.2.46.05a.43.43,0,0,1,.26-.09c.43.07.63-.31,1-.42l0-.11Z"/><path class="cls-2" d="M149.66,35.56c.34.13.69.4,1,0C150.32,35.2,150,35.48,149.66,35.56Z"/><path class="cls-2" d="M151.91,35.25c.09,0,.13-.19.2-.29l-.08-.1c-.25.27-.6.16-.89.24C151.37,35.53,151.65,35.36,151.91,35.25Z"/><path class="cls-2" d="M152.26,29.94v-.15c-.09,0-.2-.09-.28-.06a6.36,6.36,0,0,0-.58.3v.08Z"/><path class="cls-2" d="M153,35.15v-.47l-.49.06v.13Z"/><path class="cls-2" d="M144.83,37v.12c.13,0,.33.13.37.09s.48-.18.38-.57Z"/><path class="cls-2" d="M162.72,27.87c-.54.08-1.08.19-1.62.29s-1.35.21-2,.35c-.91.18-1.81.39-2.71.59s-1.6.33-2.39.54-1.52.46-2.28.67c-.46.13-.48.13-.35.72.54-.16,1-.32,1.55-.46l3.18-.8,3.15-.79c.93-.23,1.87-.44,2.8-.68.51-.13,1-.29,1.51-.43A2.26,2.26,0,0,0,162.72,27.87Z"/><path class="cls-2" d="M147.31,32.93c-1,.29-1.95.61-2.92.91-.82.25-1.65.48-2.46.75-1,.33-2,.68-2.93,1l-2.46.87c-1,.36-1.95.73-2.92,1.11-.78.3-1.56.6-2.31,1s-1.17.69-1.76,1c-.87.5-1.74,1-2.6,1.47-1,.62-2.06,1.26-3.07,1.91s-1.89,1.26-2.83,1.9l0,.12,1.91-.71,3.26-1.19,1.71-.58,3.24-1.13,1.52-.53,2.59-.9,1.4-.47,3.54-1.25c.35-.12.71-.19,1.05-.31.58-.2,1.15-.44,1.74-.64s1.35-.41,2-.61l3.55-1.08c.78-.23,1.57-.44,2.27-.64-.12-1-.23-2-.35-2.91C149.45,32.34,148.38,32.62,147.31,32.93Z"/><path class="cls-2" d="M154.27,29.18c-.57.14-1.14.27-1.7.43-.07,0-.1.14-.18.29l1.9-.59Z"/><path class="cls-2" d="M158.42,33.36c-.1,0-.18.14-.25.13-.27-.07-.19.1-.19.23C158.4,33.69,158.46,33.64,158.42,33.36Z"/><path class="cls-2" d="M155.35,28.92l-.82.23C154.94,29.42,155.13,29.11,155.35,28.92Z"/><path class="cls-2" d="M145.77,36.75l.28,0-.18.15a6.2,6.2,0,0,0,1.2-.23,2.92,2.92,0,0,1,1.23-.39c.27-.34.69-.3,1.07-.34l0-.4-3.67,1.06Z"/><path d="M133.93,36.49Z"/><path class="cls-1" d="M166.24,26.89a2.75,2.75,0,0,0-.75-.06c-.86.08-1.71.17-2.55.3-1.06.17-2.11.38-3.16.58-.82.16-1.63.34-2.45.52s-1.68.36-2.52.56c-.6.15-1.18.33-1.77.49s-1.14.3-1.75.45a7.62,7.62,0,0,1,0-1c.07-1.75.14-3.51.26-5.26.08-1.16.2-2.33.38-3.48.22-1.39.48-2.78.8-4.15.27-1.16.59-2.31,1-3.43.46-1.35,1-2.68,1.53-4s1.18-2.76,1.76-4.14c.12-.28.19-.56-.14-.75s-.49,0-.66.23c-.77.87-1.57,1.71-2.29,2.61a33.2,33.2,0,0,0-2,2.71c-.82,1.24-1.62,2.5-2.35,3.79a31.84,31.84,0,0,0-1.68,3.42,34.74,34.74,0,0,0-1.24,3.6c-.41,1.42-.75,2.87-1.09,4.31-.26,1.1-.48,2.2-.72,3.29a2,2,0,0,1-.16.4l-.16,0a9.36,9.36,0,0,1,0-1.83c.22-1.09.56-2.15.86-3.22.54-1.86,1.09-3.71,1.62-5.57a3,3,0,0,0,.13-.84c0-.17,0-.38-.3-.39s-.26.16-.31.34c-.48,1.66-1,3.32-1.46,5a.52.52,0,0,1-.24.3c-.7.34-1.41.64-2.11,1-1,.47-2,.93-2.94,1.44s-2,1.11-3,1.74c-1.45.92-2.86,1.9-4.29,2.86a1.65,1.65,0,0,1-.22.09c0-.07,0-.11,0-.14.3-1.44.56-2.9.93-4.33a16.88,16.88,0,0,1,2-4.66,14.57,14.57,0,0,1,1.46-1.95c.35-.42.71-.35,1,.12s.48.89.72,1.33a1.54,1.54,0,0,0,.23.37c.06.07.19.07.28.1s.11-.22.08-.3a5.71,5.71,0,0,0-1.32-2.22,1.17,1.17,0,0,0-1.52,0,4.41,4.41,0,0,0-.58.64A23.11,23.11,0,0,0,133.55,21,20.22,20.22,0,0,0,132,25.31c-.27,1.32-.48,2.66-.73,4a.55.55,0,0,1-.18.31c-.78.55-1.56,1.1-2.35,1.64-.24.16-.26.33,0,.5a.93.93,0,0,0,1-.11c.37-.34.77-.66,1.16-1a.79.79,0,0,1,.22-.08,1.25,1.25,0,0,1-.37,1.12c-.6.55-1.14,1.17-1.75,1.71-.93.84-1.88,1.66-2.86,2.44a3.9,3.9,0,0,1-1.21.54.6.6,0,0,1-.84-.56,5.7,5.7,0,0,1,.39-2.43,1.36,1.36,0,0,0,1.66-.27,5,5,0,0,0,.73-.73c.79-1,1.57-2,2.32-3a11.7,11.7,0,0,0,1.58-3,.91.91,0,0,0-1.15-1.23,3.81,3.81,0,0,0-1.33.81,15.36,15.36,0,0,0-2.83,3.54,16.6,16.6,0,0,0-1.37,2.81A11.47,11.47,0,0,0,123.4,35c-.07.65-.09,1.32.59,1.71a1.87,1.87,0,0,0,1.33.19,3.7,3.7,0,0,0,1.79-1c1-.89,2-1.8,2.92-2.71.37-.35.72-.71,1.12-1.12.07.33.1.54.14.75a2.89,2.89,0,0,0,1.38,1.93.47.47,0,0,0,.66-.1c-.18-.13-.35-.23-.49-.35a3.48,3.48,0,0,1-1-3c0-.08.09-.16.14-.23l.75-1.09a1.25,1.25,0,0,0,.07-.23l-.06,0-.8.69c-.15-.48.09-.7.39-.92A46.89,46.89,0,0,1,138,25.77c1.28-.69,2.53-1.43,3.8-2.14.45-.25.91-.47,1.39-.72-.06.77-.1,1.51-.17,2.25-.08,1-.19,2-.28,2.95-.06.6-.11,1.21-.17,1.81,0,.25.15.4.38.33a.55.55,0,0,0,.4-.43c.13-.5.29-1,.44-1.52a.89.89,0,0,0,1.5-.41,15,15,0,0,0,.38-1.64,61,61,0,0,1,1.95-7.63,34.24,34.24,0,0,1,3.65-7.47,51.15,51.15,0,0,1,3.88-5.28l.41-.45a.23.23,0,0,1,0,.2c-.5,1.12-1,2.25-1.49,3.37a37.63,37.63,0,0,0-2.31,7.31c-.37,1.73-.65,3.5-.86,5.26s-.31,3.34-.4,5c-.06,1,0,2,0,3.07a.48.48,0,0,1-.21.39,12.91,12.91,0,0,1-1.32.46c-.23.08-.46.12-.69.18l0,.14a5.32,5.32,0,0,0,.78-.14c.33-.09.64-.23,1-.33a.59.59,0,0,1,.28.06.87.87,0,0,1-.36.2c-.64.21-1.29.4-1.93.62-.93.31-1.86.62-2.78,1q-2.36.9-4.71,1.84c-.83.33-1.63.73-2.46,1-1,.41-2.11.76-3.16,1.14,0,0-.05,0-.07,0l0-.18-1,.4s0,0,0,.06l-1.11.52-2,.85-1.31.52c-.45.18-.89.38-1.34.57s-.76.34-1.14.49c-.87.34-1.75.66-2.61,1-.37.16-.69.42-1.06.58s-.82.31-1.23.47c-.59.23-1.17.46-1.76.71l-2.17.9c-1,.42-2.06.85-3.1,1.22-1.29.47-2.6.91-3.91,1.32a9,9,0,0,1-1.42.23l.23-.39c-.15-.07-.31-.22-.43-.2a4.49,4.49,0,0,0-.86.33c-.11.06-.29.21-.27.26s.16.37.3.42a3.76,3.76,0,0,0,1.1.21,8.69,8.69,0,0,0,3-.59c1.84-.67,3.66-1.38,5.47-2.11,1.21-.49,2.4-1,3.6-1.55s2.18-.92,3.28-1.35c.37-.14.74-.44,1.19-.08,0-.34,2.33-1.46,2.84-1.45a.58.58,0,0,1-.16.18l-1.2.68-3.22,1.93c-.29.17-.52.45-.93.35-.09,0-.27.16-.33.29a1.91,1.91,0,0,1-1.16.74c-.31.59-.9.68-1.48.89a1.19,1.19,0,0,1,.78-.68c.13,0,.27,0,.29-.25s.17-.33.43-.2a.76.76,0,0,0,.28,0l.24-.56a1.48,1.48,0,0,0-.42.14l-3.1,2.29a.52.52,0,0,0-.21.63.46.46,0,0,0,.56.35,6.8,6.8,0,0,0,1.11-.21l4.48-1.61c2-.73,4-1.47,6.08-2.18,1.53-.54,3.08-1,4.62-1.57s3.13-1.13,4.71-1.65c2.42-.79,4.86-1.56,7.3-2.29,2.05-.6,4.12-1.14,6.18-1.69,1.5-.39,3-.75,4.52-1.11,1.25-.29,2.5-.56,3.76-.83.57-.12,1.14-.22,1.71-.33v0l-.89-.08c.11-.06.25-.1.28-.18s.22-.18.38-.1a.35.35,0,0,0,.2,0l1.48-.41a.25.25,0,0,0-.2-.07c-.89.08-1.78.14-2.66.28s-1.63.34-2.45.51c-.67.15-1.34.27-2,.43-.82.19-1.64.4-2.45.61l-2.49.63-1.51.35a3.23,3.23,0,0,1-.18-.52c-.1-.71-.19-1.43-.27-2.14a.31.31,0,0,1,.16-.23c.39-.12.79-.23,1.19-.33.67-.18,1.34-.37,2-.53l3.83-.91c1.44-.36,2.88-.73,4.32-1.13,1.17-.31,2.33-.66,3.49-1a.5.5,0,0,0,.3-.37C166.64,27.25,166.58,27,166.24,26.89Zm-40.67,3.88a16,16,0,0,1,3.06-4.15,9.17,9.17,0,0,1,1.16-.86,2,2,0,0,1,.44-.16,6.8,6.8,0,0,1-.18.79,12,12,0,0,1-1.77,3.14c-.54.71-1.07,1.43-1.63,2.13a5.87,5.87,0,0,1-.8.85c-.41.36-.42.53-1.21.33C125,32.12,125.22,31.42,125.57,30.77Zm17.84-3.86c0-.62,0-1.24,0-1.86A2.13,2.13,0,0,1,143.41,26.91Zm.8-3.11L144,22.51l.7-.39.08.06-.43,1.64Zm7.92-6.92.11,0-.14.83H152Zm-1.71,13.77c.21.35.15.54-.2.64-.82.24-1.65.46-2.46.71s-1.53.52-2.3.75c-.46.14-.94.22-1.42.34a4,4,0,0,0-.44.17l-.33.1-.05-.17ZM130.79,42a.43.43,0,0,0-.26.09c-.18.15-.33.2-.46-.05l1.64-.57,0,.11C131.42,41.7,131.22,42.08,130.79,42Zm2.91-1-.07-.12.35-.26.11.19Zm.78-.18-.1-.17.54-.29.07.14Zm.76-.26,0-.1c.26-.41.32-.42.63-.17Zm2.5-.8c-.64,0-1.15.4-1.77.48l0-.17a1.84,1.84,0,0,1,.39-.27,8.16,8.16,0,0,1,1-.32,1.21,1.21,0,0,1,.4.09Zm1.44-.5-.09-.08,0-.17-.4.25,0,.15h-.43l-.21.19-.16-.32c.4-.14.76-.28,1.13-.39a1.21,1.21,0,0,1,.41.05Zm4.18-1.41c-.23,0-.43,0-.62,0s-.12.08-.18.12-.15.12-.22.12-.37,0-.45.22a.12.12,0,0,1-.12,0c-.44-.14-.73.19-1.09.33a1.1,1.1,0,0,1-.37.06,2.75,2.75,0,0,1-.62,0l.39-.17.15-.06a2.4,2.4,0,0,1,1.35-.38c.19,0,.35-.21.54-.29a9.82,9.82,0,0,1,1-.32C143.38,37.45,143.45,37.54,143.36,37.87Zm1.13-.45H144s0,.09-.07.12-.14.12-.21.12a.23.23,0,0,1-.13-.16c0-.08,0-.21.1-.22a4,4,0,0,1,.83-.19c.09,0,.19.14.29.22A3.37,3.37,0,0,1,144.49,37.42Zm.72-.18s-.24-.06-.37-.09V37l.76-.36C145.69,37.06,145.35,37.08,145.21,37.24ZM149.37,36c-.38,0-.8,0-1.07.34a2.92,2.92,0,0,0-1.23.39,6.2,6.2,0,0,1-1.2.23l.18-.15-.28,0,0-.1,3.67-1.06Zm.29-.43c.33-.08.66-.36,1,0C150.35,36,150,35.69,149.66,35.56Zm-1,0-3.55,1.08c-.68.2-1.36.39-2,.61s-1.16.44-1.74.64c-.34.12-.7.19-1.05.31l-3.54,1.25-1.4.47-2.59.9-1.52.53L128,42.51l-1.71.58L123,44.28l-1.91.71,0-.12c.94-.64,1.88-1.28,2.83-1.9s2-1.29,3.07-1.91c.86-.51,1.73-1,2.6-1.47.59-.34,1.15-.74,1.76-1s1.53-.67,2.31-1c1-.38,1.94-.75,2.92-1.11l2.46-.87c1-.34,1.95-.69,2.93-1,.81-.27,1.64-.5,2.46-.75,1-.3,1.94-.62,2.92-.91s2.14-.59,3.24-.89c.12,1,.23,1.9.35,2.91C150.2,35.15,149.41,35.36,148.63,35.59Zm9.54-2.1c.07,0,.15-.08.25-.13,0,.28,0,.33-.44.36C158,33.59,157.9,33.42,158.17,33.49Zm-2.82-4.57c-.22.19-.41.5-.82.23Zm-2.78.69c.56-.16,1.13-.29,1.7-.43l0,.13-1.9.59C152.47,29.75,152.5,29.62,152.57,29.61Zm-.58.12c.08,0,.19,0,.28.06v.15l-.84.17V30A6.36,6.36,0,0,1,152,29.73Zm1,4.95v.47l-.48-.28v-.13Zm-1,.18.08.1c-.07.1-.11.25-.2.29-.26.11-.54.28-.77-.15C151.43,35,151.78,35.13,152,34.86Zm10-6.56c-.93.24-1.87.45-2.8.68l-3.15.79-3.18.8c-.51.14-1,.3-1.55.46-.13-.59-.11-.59.35-.72.76-.21,1.51-.47,2.28-.67s1.59-.36,2.39-.54,1.8-.41,2.71-.59c.67-.14,1.35-.23,2-.35s1.08-.21,1.62-.29a2.26,2.26,0,0,1,.82,0C163,28,162.54,28.17,162,28.3Z"/><path class="cls-1" d="M29.45,19.94h6a5.81,5.81,0,0,1,2.45.44,3.15,3.15,0,0,1,1.84,3.13,3.3,3.3,0,0,1-1.87,3.17,2.77,2.77,0,0,1,1.17.83,3,3,0,0,1,.43,1.67L39.58,31a5.3,5.3,0,0,0,.13,1.13,1.07,1.07,0,0,0,.57.81v.3h-2.2a1.42,1.42,0,0,1-.14-.44,8.29,8.29,0,0,1-.1-1l-.1-2.21a1.88,1.88,0,0,0-.94-1.74,3.65,3.65,0,0,0-1.57-.25h-4V33.2h-1.8ZM35.29,26a3.39,3.39,0,0,0,2-.5A2.12,2.12,0,0,0,38,23.68a2,2,0,0,0-1-1.93,3.17,3.17,0,0,0-1.43-.27H31.25V26Z"/><path class="cls-1" d="M48.35,23.8a3.72,3.72,0,0,1,1.47,1.25,4.39,4.39,0,0,1,.64,1.7,11.05,11.05,0,0,1,.14,2.14h-7a4.15,4.15,0,0,0,.69,2.36,2.29,2.29,0,0,0,2,.9,2.57,2.57,0,0,0,2-.85,2.93,2.93,0,0,0,.6-1.13h1.6a3.44,3.44,0,0,1-.42,1.18,4.46,4.46,0,0,1-.8,1.08,3.74,3.74,0,0,1-1.82,1,5.32,5.32,0,0,1-1.31.14,4,4,0,0,1-3-1.31,5.1,5.1,0,0,1-1.25-3.68,5.56,5.56,0,0,1,1.25-3.78,4.14,4.14,0,0,1,3.29-1.46A4.26,4.26,0,0,1,48.35,23.8Zm.58,3.79a4.27,4.27,0,0,0-.45-1.68,2.34,2.34,0,0,0-2.22-1.18,2.43,2.43,0,0,0-1.86.81,3.06,3.06,0,0,0-.79,2.05Z"/><path class="cls-1" d="M59.05,24.05a3.78,3.78,0,0,1,1.23,2.73H58.7A2.8,2.8,0,0,0,58,25.3a2.05,2.05,0,0,0-1.65-.6,2.29,2.29,0,0,0-2.22,1.52,6,6,0,0,0-.43,2.43,4.56,4.56,0,0,0,.61,2.44,2.39,2.39,0,0,0,3.53.38,3.4,3.4,0,0,0,.82-1.69h1.58a4.24,4.24,0,0,1-1.35,2.81,4.19,4.19,0,0,1-2.77.89,3.7,3.7,0,0,1-3-1.39A5.29,5.29,0,0,1,52,28.63a5.83,5.83,0,0,1,1.24-4,4,4,0,0,1,3.15-1.42A4.21,4.21,0,0,1,59.05,24.05Z"/><path class="cls-1" d="M67.88,23.8a3.72,3.72,0,0,1,1.47,1.25,4.39,4.39,0,0,1,.64,1.7,10.87,10.87,0,0,1,.15,2.14h-7a4.15,4.15,0,0,0,.69,2.36,2.3,2.3,0,0,0,2,.9,2.6,2.6,0,0,0,2-.85,2.91,2.91,0,0,0,.59-1.13H70a3.24,3.24,0,0,1-.42,1.18,4.44,4.44,0,0,1-.79,1.08,3.83,3.83,0,0,1-1.82,1,5.35,5.35,0,0,1-1.32.14,4,4,0,0,1-3-1.31,5.1,5.1,0,0,1-1.25-3.68,5.57,5.57,0,0,1,1.26-3.78,4.12,4.12,0,0,1,3.28-1.46A4.26,4.26,0,0,1,67.88,23.8Zm.58,3.79A4.1,4.1,0,0,0,68,25.91a2.34,2.34,0,0,0-2.21-1.18,2.47,2.47,0,0,0-1.87.81,3.06,3.06,0,0,0-.79,2.05Z"/><path class="cls-1" d="M72.52,20.83h1.64v2.7h1.55v1.33H74.16v6.31a.69.69,0,0,0,.35.68,1.51,1.51,0,0,0,.63.1h.25l.32,0V33.2a3.62,3.62,0,0,1-.59.12,6.3,6.3,0,0,1-.65,0,1.75,1.75,0,0,1-1.54-.59,2.52,2.52,0,0,1-.41-1.51v-6.4H71.21V23.53h1.31Z"/><path class="cls-1" d="M77.66,20.83H79.3v2.7h1.55v1.33H79.3v6.31a.7.7,0,0,0,.34.68,1.6,1.6,0,0,0,.64.1h.25l.32,0V33.2a3.86,3.86,0,0,1-.59.12,6.48,6.48,0,0,1-.65,0,1.75,1.75,0,0,1-1.54-.59,2.52,2.52,0,0,1-.41-1.51v-6.4H76.35V23.53h1.31Z"/><path class="cls-1" d="M88.45,23.8a3.69,3.69,0,0,1,1.46,1.25,4.24,4.24,0,0,1,.64,1.7,10.87,10.87,0,0,1,.15,2.14h-7a4.15,4.15,0,0,0,.69,2.36,2.3,2.3,0,0,0,2,.9,2.6,2.6,0,0,0,2-.85A2.79,2.79,0,0,0,89,30.17h1.6a3.24,3.24,0,0,1-.42,1.18,4.19,4.19,0,0,1-.79,1.08,3.78,3.78,0,0,1-1.82,1,5.35,5.35,0,0,1-1.32.14,4,4,0,0,1-3-1.31,5.1,5.1,0,0,1-1.25-3.68,5.57,5.57,0,0,1,1.26-3.78,4.12,4.12,0,0,1,3.28-1.46A4.33,4.33,0,0,1,88.45,23.8ZM89,27.59a4.26,4.26,0,0,0-.46-1.68,2.33,2.33,0,0,0-2.21-1.18,2.47,2.47,0,0,0-1.87.81,3.11,3.11,0,0,0-.79,2.05Z"/><path class="cls-1" d="M93.72,30.17a2.3,2.3,0,0,0,.42,1.24,2.6,2.6,0,0,0,2.17.79,3.3,3.3,0,0,0,1.63-.39,1.33,1.33,0,0,0,.7-1.22,1.05,1.05,0,0,0-.56-.95,7.5,7.5,0,0,0-1.42-.46l-1.31-.32a6.55,6.55,0,0,1-1.85-.69,2,2,0,0,1-1.07-1.82,2.78,2.78,0,0,1,1-2.22,4,4,0,0,1,2.7-.85,3.73,3.73,0,0,1,3.19,1.28,2.77,2.77,0,0,1,.6,1.75H98.38a1.88,1.88,0,0,0-.39-1,2.62,2.62,0,0,0-2-.63,2.38,2.38,0,0,0-1.43.35,1.1,1.1,0,0,0-.49.93,1.15,1.15,0,0,0,.64,1,4.13,4.13,0,0,0,1.09.4l1.09.26a8.56,8.56,0,0,1,2.39.82,2.17,2.17,0,0,1,.95,2,3,3,0,0,1-1,2.23,4.24,4.24,0,0,1-3,.94,4.07,4.07,0,0,1-3.1-1,3.68,3.68,0,0,1-1-2.42Z"/></svg>