<svg id="Layer_1" data-name="Layer 1" xmlns="http://www.w3.org/2000/svg" viewBox="0 0 200 50"><defs><style>.cls-1{fill:#064377;}.cls-2{fill:none;}</style></defs><path class="cls-1" d="M46.47,38.28c.48-.28.54-.94,1.12-1.06l.13.1c-.32.54-.63,1.1-1,1.63a.84.84,0,0,1-.82.34c-.44,0-.57-.21-.42-.62.32-.8.64-1.6,1-2.38.85-1.78,1.73-3.55,2.6-5.33l1.44-3c0-.09.05-.19.11-.39a2.25,2.25,0,0,0-.37.23c-.66.64-1.32,1.28-2,1.93,0,0-.1.09-.1.14,0,.56-.5.74-.77,1.1a15.34,15.34,0,0,0-1.06,1.48,44,44,0,0,0-3.28,6.72c-.13.33-.25.67-.39,1a.51.51,0,0,1-.76.16.38.38,0,0,1-.07-.32c.67-1.66,1.34-3.3,2-5,.21-.5.44-1,.66-1.49l-.07-.07c-.2.13-.41.25-.6.39-.51.36-1,.76-1.51,1.09-1,.67-2.09,1.34-3.17,1.94A10,10,0,0,1,36,38.18a5.17,5.17,0,0,1-1.84,0,2.25,2.25,0,0,1-1.64-2.67A11.93,11.93,0,0,1,34,31.13a26.11,26.11,0,0,1,4-5.48c1-1.12,2.09-2.23,3.23-3.24a18.5,18.5,0,0,1,4.9-3.25,8.11,8.11,0,0,1,1.18-.38,1.11,1.11,0,0,1,1.06.24.43.43,0,0,1,.11.59,1.69,1.69,0,0,1-1.5.61l1-.83,0-.11a4.21,4.21,0,0,0-.51,0,8.94,8.94,0,0,0-3.22,1.53A25.56,25.56,0,0,0,40.3,24a32.69,32.69,0,0,0-4.56,5.4,19.76,19.76,0,0,0-2.06,3.88,7.23,7.23,0,0,0-.54,2.55c0,1.25.5,1.79,1.83,1.86A6.33,6.33,0,0,0,37.82,37a25.44,25.44,0,0,0,4.48-2.56,20,20,0,0,0,1.94-1.75,4.72,4.72,0,0,1,.67-.6,3.83,3.83,0,0,0,1.19-1.89c.72-1.64,1.46-3.28,2.15-4.93.29-.71.5-1.45.72-2.18.06-.2.12-.36.35-.34s.43.17.42.43a2,2,0,0,1-.15.63q-1.08,2.57-2.17,5.11c-.22.51-.44,1-.67,1.53l.07.06a2.85,2.85,0,0,0,.38-.31c.76-.83,1.49-1.7,2.29-2.5A3.54,3.54,0,0,1,50.68,27c.43-.19.81.21.73.67a9.9,9.9,0,0,1-1.08,2.5L46.55,38A1.67,1.67,0,0,0,46.47,38.28Z"/><path class="cls-1" d="M85.78,18.48a38,38,0,0,1,9.85-4.64,1.51,1.51,0,0,1,.3,0l0,.1a12.29,12.29,0,0,1-1.2.72c-1.54.74-3.12,1.38-4.63,2.17s-2.68,1.59-4,2.39a.59.59,0,0,0-.33.6c.06,1.4.06,2.81.14,4.21,0,.93.18,1.85.29,2.77a.34.34,0,0,1-.27.43c-.21.05-.43,0-.47-.25-.1-.73-.25-1.45-.29-2.18-.08-1.45-.09-2.9-.14-4.35,0-.11,0-.22,0-.33a.85.85,0,0,0-.75.86c0,1.28,0,2.56,0,3.83a5.09,5.09,0,0,0,.15.82c-.41.37-.81.11-.85-.36a8.66,8.66,0,0,1-.07-.89c0-.9,0-1.79,0-2.69,0-.11,0-.22,0-.34l-.1-.05c-.37.46-.73.93-1.13,1.37a1.08,1.08,0,0,1-.52.29.52.52,0,0,1-.4-.2c0-.07,0-.28.12-.38.62-.68,1.26-1.35,1.89-2a.54.54,0,0,0,.13-.35c0-.54,0-1.08-.07-1.62,0-.09.08-.25.11-.25a1.84,1.84,0,0,1,.62.11c.08,0,.11.23.12.36,0,.3,0,.61,0,.93.57-.18.75-.43.73-.94,0-.72-.07-1.45-.11-2.17a2.78,2.78,0,0,0-.12-.64c-.07-.29,0-.4.32-.36s.54.08.56.46c0,.73.09,1.45.14,2.17C85.79,18.16,85.78,18.28,85.78,18.48Z"/><path class="cls-1" d="M80.94,26c-.12.31-.23.58-.33.85a.89.89,0,0,1-.57.55.6.6,0,0,1-.84-.59c0-.59.14-1.18.19-1.77,0-.19,0-.38,0-.57a.55.55,0,0,1,.83-.48c.3.12.6.21.89.34.11.05.24.15.26.25a2.6,2.6,0,0,0,.73,1.63.49.49,0,0,1-.1.26,2.34,2.34,0,0,1-.64-.12C81.19,26.27,81.09,26.12,80.94,26ZM80,25.9h.1c.25-.42.34-1.16.14-1.34Z"/><path class="cls-2" d="M59.81,40.67l.1.17.51-.32-.08-.14Z"/><path class="cls-2" d="M62.77,39.5a8.16,8.16,0,0,0-1,.32,1.62,1.62,0,0,0-.39.27l0,.17c.62-.08,1.13-.49,1.77-.48v-.19A1.21,1.21,0,0,0,62.77,39.5Z"/><path class="cls-2" d="M69.14,37.29c-.06,0-.11.14-.11.22a.25.25,0,0,0,.14.16c.07,0,.14-.07.2-.12a.42.42,0,0,0,.08-.12h.47a3.37,3.37,0,0,0,.34-.1c-.1-.08-.21-.23-.3-.22A3.9,3.9,0,0,0,69.14,37.29Z"/><path class="cls-2" d="M64.46,38.9c-.37.11-.73.25-1.12.39l.16.32.21-.19h.42l0-.15.4-.25v.17l.1.08.27-.33A1.24,1.24,0,0,0,64.46,38.9Z"/><path class="cls-2" d="M68.51,37.53a9.82,9.82,0,0,0-1,.32c-.19.08-.36.28-.54.29a2.36,2.36,0,0,0-1.35.38l-.15.06-.39.17a2.72,2.72,0,0,0,.62,0,1.15,1.15,0,0,0,.37-.06c.36-.14.65-.47,1.09-.33a.13.13,0,0,0,.12,0c.08-.23.26-.22.45-.22s.15-.07.22-.12.11-.12.18-.12.39,0,.62,0C68.87,37.54,68.81,37.45,68.51,37.53Z"/><path class="cls-2" d="M60.63,40.48l0,.1.59-.27C61,40.06,60.89,40.07,60.63,40.48Z"/><path class="cls-2" d="M77.66,16.9l-.1,0-.17.84h.14Z"/><path class="cls-2" d="M70.08,22.12l-.69.39.25,1.29.09,0,.44-1.64Z"/><path class="cls-2" d="M59.06,40.9a.37.37,0,0,0,.07.12l.39-.19-.11-.19Z"/><path class="cls-2" d="M68.84,26.91a2.17,2.17,0,0,0,0-1.86C68.82,25.67,68.83,26.29,68.84,26.91Z"/><path class="cls-2" d="M69,33.26a4,4,0,0,1,.44-.17c.47-.12,1-.2,1.42-.34.77-.23,1.53-.51,2.29-.75s1.65-.47,2.47-.71c.35-.1.41-.29.2-.64l-7.2,2.54,0,.17Z"/><path class="cls-2" d="M55.5,42.05c.13.25.28.2.46.05a.4.4,0,0,1,.25-.09c.44.07.64-.31,1-.42l0-.11Z"/><path class="cls-2" d="M75.09,35.56c.34.13.69.4,1,0C75.75,35.2,75.42,35.48,75.09,35.56Z"/><path class="cls-2" d="M77.34,35.25c.09,0,.13-.19.2-.29l-.08-.1c-.25.27-.6.16-.89.24C76.8,35.53,77.08,35.36,77.34,35.25Z"/><path class="cls-2" d="M77.68,29.94l0-.15c-.09,0-.2-.09-.28-.06a6.36,6.36,0,0,0-.58.3v.08Z"/><path class="cls-2" d="M78.45,35.15v-.47l-.49.06v.13Z"/><path class="cls-2" d="M70.26,37v.12c.12,0,.33.13.37.09s.48-.18.38-.57Z"/><path class="cls-2" d="M88.15,27.87c-.54.08-1.08.19-1.62.29s-1.35.21-2,.35c-.91.18-1.81.39-2.71.59s-1.6.33-2.39.54-1.52.46-2.28.67c-.46.13-.48.13-.35.72.53-.16,1-.32,1.55-.46l3.18-.8L84.66,29c.93-.23,1.87-.44,2.8-.68.51-.13,1-.29,1.51-.43A2.26,2.26,0,0,0,88.15,27.87Z"/><path class="cls-2" d="M72.74,32.93c-1,.29-1.95.61-2.92.91-.82.25-1.65.48-2.47.75-1,.33-1.94.68-2.92,1-.82.29-1.65.57-2.46.87-1,.36-2,.73-2.93,1.11-.77.3-1.55.6-2.3,1s-1.17.69-1.77,1c-.86.5-1.74,1-2.59,1.47-1,.62-2.06,1.26-3.07,1.91s-1.89,1.26-2.84,1.9l.05.12,1.91-.71,3.26-1.19,1.71-.58,3.24-1.13,1.52-.53,2.59-.9,1.39-.47,3.55-1.25c.35-.12.71-.19,1-.31.58-.2,1.15-.44,1.73-.64s1.36-.41,2-.61l3.55-1.08c.78-.23,1.57-.44,2.27-.64-.12-1-.23-2-.35-2.91C74.88,32.34,73.8,32.62,72.74,32.93Z"/><path class="cls-2" d="M79.7,29.18c-.57.14-1.14.27-1.71.43-.06,0-.09.14-.17.29l1.9-.59Z"/><path class="cls-2" d="M83.85,33.36c-.1,0-.19.14-.25.13-.27-.07-.19.1-.19.23C83.83,33.69,83.89,33.64,83.85,33.36Z"/><path class="cls-2" d="M80.78,28.92l-.82.23C80.36,29.42,80.56,29.11,80.78,28.92Z"/><path class="cls-2" d="M71.2,36.75l.27,0L71.3,37a6.2,6.2,0,0,0,1.2-.23,2.92,2.92,0,0,1,1.23-.39C74,36,74.41,36,74.8,36l0-.4-3.67,1.06Z"/><path d="M59.36,36.49Z"/><path class="cls-1" d="M91.67,26.89a2.79,2.79,0,0,0-.76-.06c-.85.08-1.7.17-2.54.3-1.06.17-2.11.38-3.16.58-.82.16-1.64.34-2.45.52s-1.69.36-2.52.56c-.6.15-1.18.33-1.78.49s-1.14.3-1.74.45a7.62,7.62,0,0,1,0-1c.07-1.75.14-3.51.25-5.26.08-1.16.2-2.33.39-3.48.21-1.39.48-2.78.8-4.15a33.54,33.54,0,0,1,1-3.43c.46-1.35,1-2.68,1.53-4s1.17-2.76,1.76-4.14c.12-.28.19-.56-.14-.75s-.49,0-.67.23c-.76.87-1.56,1.71-2.28,2.61a33.2,33.2,0,0,0-2,2.71c-.82,1.24-1.62,2.5-2.35,3.79a31.92,31.92,0,0,0-1.69,3.42A34.69,34.69,0,0,0,72,19.91c-.41,1.42-.75,2.87-1.1,4.31-.26,1.1-.47,2.2-.71,3.29a2.78,2.78,0,0,1-.16.4l-.16,0a8,8,0,0,1,0-1.83c.21-1.09.55-2.15.86-3.22.53-1.86,1.08-3.71,1.62-5.57a3.42,3.42,0,0,0,.13-.84c0-.17-.06-.38-.31-.39s-.25.16-.3.34q-.72,2.49-1.46,5a.52.52,0,0,1-.24.3c-.7.34-1.41.64-2.11,1-1,.47-2,.93-3,1.44s-2,1.11-3,1.74c-1.45.92-2.86,1.9-4.29,2.86-.06,0-.14,0-.22.09a.37.37,0,0,1,0-.14c.3-1.44.56-2.9.93-4.33a16.88,16.88,0,0,1,2-4.66A14.5,14.5,0,0,1,62,17.68c.36-.42.72-.35,1,.12s.48.89.71,1.33a1.57,1.57,0,0,0,.24.37c.06.07.18.07.28.1s.11-.22.08-.3a5.61,5.61,0,0,0-1.33-2.22,1.15,1.15,0,0,0-1.51,0,4.41,4.41,0,0,0-.58.64A23.11,23.11,0,0,0,59,21a20.22,20.22,0,0,0-1.51,4.33c-.27,1.32-.48,2.66-.73,4a.51.51,0,0,1-.19.31c-.77.55-1.55,1.1-2.34,1.64-.24.16-.26.33,0,.5a.92.92,0,0,0,1-.11c.38-.34.78-.66,1.17-1a.79.79,0,0,1,.22-.08,1.25,1.25,0,0,1-.37,1.12c-.6.55-1.14,1.17-1.75,1.71-.93.84-1.88,1.66-2.86,2.44a3.85,3.85,0,0,1-1.22.54.6.6,0,0,1-.83-.56A5.84,5.84,0,0,1,50,33.4a1.37,1.37,0,0,0,1.67-.27,5,5,0,0,0,.73-.73c.78-1,1.57-2,2.32-3a12,12,0,0,0,1.58-3,.91.91,0,0,0-1.15-1.23,3.81,3.81,0,0,0-1.33.81,15.36,15.36,0,0,0-2.83,3.54,15.88,15.88,0,0,0-1.37,2.81A12,12,0,0,0,48.82,35c-.07.65-.08,1.32.6,1.71a1.87,1.87,0,0,0,1.33.19,3.62,3.62,0,0,0,1.78-1c1-.89,2-1.8,2.93-2.71.37-.35.71-.71,1.12-1.12.06.33.09.54.14.75a2.89,2.89,0,0,0,1.38,1.93.46.46,0,0,0,.65-.1c-.17-.13-.34-.23-.48-.35a3.48,3.48,0,0,1-1-3c0-.08.08-.16.14-.23.25-.36.5-.72.74-1.09a.78.78,0,0,0,.08-.23l-.07,0-.79.69c-.16-.48.09-.7.38-.92a47.68,47.68,0,0,1,5.67-3.77c1.28-.69,2.54-1.43,3.81-2.14.44-.25.9-.47,1.39-.72-.06.77-.1,1.51-.17,2.25-.08,1-.19,2-.28,2.95-.06.6-.11,1.21-.17,1.81a.28.28,0,0,0,.38.33.55.55,0,0,0,.4-.43c.13-.5.29-1,.44-1.52a.88.88,0,0,0,1.49-.41,15,15,0,0,0,.39-1.64,59.26,59.26,0,0,1,2-7.63,34.24,34.24,0,0,1,3.65-7.47,51.15,51.15,0,0,1,3.88-5.28L81,5.42a.23.23,0,0,1,0,.2c-.5,1.12-1,2.25-1.49,3.37a37.63,37.63,0,0,0-2.31,7.31c-.38,1.73-.65,3.5-.86,5.26s-.31,3.34-.4,5c-.06,1,0,2,0,3.07a.48.48,0,0,1-.21.39,12.28,12.28,0,0,1-1.33.46c-.22.08-.45.12-.68.18l0,.14a5.22,5.22,0,0,0,.79-.14c.33-.09.64-.23,1-.33a.59.59,0,0,1,.28.06.87.87,0,0,1-.36.2c-.65.21-1.29.4-1.93.62-.93.31-1.86.62-2.78,1Q68.33,33.09,66,34c-.83.33-1.63.73-2.46,1-1,.41-2.11.76-3.16,1.14,0,0,0,0-.08,0l0-.18-1,.4a.21.21,0,0,0,0,.06L58.25,37l-2,.85L55,38.38,53.63,39c-.38.16-.76.34-1.15.49-.86.34-1.74.66-2.6,1-.37.16-.7.42-1.07.58s-.82.31-1.22.47c-.59.23-1.18.46-1.76.71s-1.45.61-2.18.9c-1,.42-2,.85-3.09,1.22-1.3.47-2.6.91-3.91,1.32a9.15,9.15,0,0,1-1.42.23l.23-.39c-.15-.07-.31-.22-.44-.2a4.66,4.66,0,0,0-.85.33c-.11.06-.29.21-.27.26a.67.67,0,0,0,.3.42,3.76,3.76,0,0,0,1.1.21,8.69,8.69,0,0,0,3-.59c1.84-.67,3.65-1.38,5.46-2.11,1.22-.49,2.4-1,3.61-1.55s2.18-.92,3.28-1.35c.37-.14.74-.44,1.19-.08,0-.34,2.33-1.46,2.84-1.45-.07.08-.11.15-.17.18l-1.2.68-3.21,1.93c-.29.17-.53.45-.93.35-.09,0-.27.16-.33.29a1.94,1.94,0,0,1-1.16.74c-.31.59-.9.68-1.48.89a1.19,1.19,0,0,1,.78-.68c.12,0,.27,0,.28-.25s.18-.33.44-.2c.09,0,.23,0,.28,0l.24-.56a1.38,1.38,0,0,0-.42.14l-3.1,2.29a.5.5,0,0,0-.21.63.46.46,0,0,0,.55.35A6.92,6.92,0,0,0,46.19,46c1.5-.53,3-1.08,4.47-1.61,2-.73,4.05-1.47,6.09-2.18,1.53-.54,3.08-1,4.62-1.57S64.5,39.5,66.08,39c2.42-.79,4.85-1.56,7.3-2.29,2.05-.6,4.12-1.14,6.18-1.69,1.5-.39,3-.75,4.52-1.11,1.25-.29,2.5-.56,3.75-.83.57-.12,1.15-.22,1.72-.33v0l-.89-.08c.11-.06.25-.1.28-.18s.22-.18.38-.1a.31.31,0,0,0,.19,0L91,32a.26.26,0,0,0-.2-.07c-.89.08-1.78.14-2.67.28s-1.63.34-2.44.51-1.34.27-2,.43c-.82.19-1.64.4-2.46.61l-2.48.63-1.51.35a2.48,2.48,0,0,1-.18-.52c-.11-.71-.2-1.43-.27-2.14a.31.31,0,0,1,.16-.23c.39-.12.79-.23,1.19-.33.67-.18,1.34-.37,2-.53L84,30c1.44-.36,2.88-.73,4.32-1.13,1.17-.31,2.33-.66,3.49-1a.5.5,0,0,0,.3-.37C92.07,27.25,92,27,91.67,26.89ZM51,30.77a16,16,0,0,1,3-4.15,10.87,10.87,0,0,1,1.16-.86,2.39,2.39,0,0,1,.45-.16,6.8,6.8,0,0,1-.18.79,12.32,12.32,0,0,1-1.77,3.14c-.54.71-1.08,1.43-1.63,2.13a6.48,6.48,0,0,1-.8.85c-.41.36-.42.53-1.22.33C50.38,32.12,50.65,31.42,51,30.77Zm17.84-3.86c0-.62,0-1.24,0-1.86A2.17,2.17,0,0,1,68.84,26.91Zm.8-3.11-.25-1.29.69-.39.09.06-.44,1.64Zm7.92-6.92.1,0-.13.83h-.14ZM75.85,30.65c.21.35.15.54-.2.64-.82.24-1.65.46-2.47.71s-1.52.52-2.29.75c-.46.14-1,.22-1.42.34a4,4,0,0,0-.44.17l-.34.1,0-.17ZM56.21,42a.4.4,0,0,0-.25.09c-.18.15-.33.2-.46-.05l1.64-.57,0,.11C56.85,41.7,56.65,42.08,56.21,42Zm2.92-1a.37.37,0,0,1-.07-.12l.35-.26.11.19Zm.78-.18-.1-.17.53-.29.08.14Zm.76-.26,0-.1c.26-.41.32-.42.63-.17Zm2.5-.8c-.64,0-1.15.4-1.77.48l0-.17a1.62,1.62,0,0,1,.39-.27,8.16,8.16,0,0,1,1-.32,1.21,1.21,0,0,1,.4.09Zm1.44-.5-.1-.08V39l-.4.25,0,.15h-.42l-.21.19-.16-.32c.39-.14.75-.28,1.12-.39a1.24,1.24,0,0,1,.42.05Zm4.18-1.41c-.23,0-.43,0-.62,0S68.05,38,68,38s-.15.12-.22.12-.37,0-.45.22a.13.13,0,0,1-.12,0c-.44-.14-.73.19-1.09.33a1.15,1.15,0,0,1-.37.06,2.72,2.72,0,0,1-.62,0l.39-.17.15-.06A2.36,2.36,0,0,1,67,38.14c.18,0,.35-.21.54-.29a9.82,9.82,0,0,1,1-.32C68.81,37.45,68.87,37.54,68.79,37.87Zm1.13-.45h-.47a.42.42,0,0,1-.08.12c-.06.05-.13.12-.2.12a.25.25,0,0,1-.14-.16c0-.08,0-.21.11-.22A3.9,3.9,0,0,1,70,37.1c.09,0,.2.14.3.22A3.37,3.37,0,0,1,69.92,37.42Zm.72-.18s-.25-.06-.37-.09V37l.76-.36C71.12,37.06,70.77,37.08,70.64,37.24ZM74.8,36c-.39,0-.8,0-1.07.34a2.92,2.92,0,0,0-1.23.39,6.2,6.2,0,0,1-1.2.23l.17-.15-.27,0,0-.1,3.67-1.06Zm.29-.43c.33-.08.66-.36,1,0C75.78,36,75.43,35.69,75.09,35.56Zm-1,0-3.55,1.08c-.68.2-1.36.39-2,.61s-1.15.44-1.73.64c-.34.12-.7.19-1,.31l-3.55,1.25L60.75,40l-2.59.9-1.52.53L53.4,42.51l-1.71.58-3.26,1.19L46.52,45l-.05-.12c1-.64,1.88-1.28,2.84-1.9s2-1.29,3.07-1.91c.85-.51,1.73-1,2.59-1.47.6-.34,1.16-.74,1.77-1s1.53-.67,2.3-1c1-.38,2-.75,2.93-1.11.81-.3,1.64-.58,2.46-.87,1-.34,1.94-.69,2.92-1,.82-.27,1.65-.5,2.47-.75,1-.3,1.94-.62,2.92-.91S74.88,32.34,76,32c.12,1,.23,1.9.35,2.91C75.63,35.15,74.84,35.36,74.06,35.59Zm9.54-2.1c.06,0,.15-.08.25-.13,0,.28,0,.33-.44.36C83.41,33.59,83.33,33.42,83.6,33.49Zm-2.82-4.57c-.22.19-.42.5-.82.23ZM78,29.61c.57-.16,1.14-.29,1.71-.43l0,.13-1.9.59C77.9,29.75,77.93,29.62,78,29.61Zm-.57.12c.08,0,.19,0,.28.06l0,.15-.83.17V30A6.36,6.36,0,0,1,77.42,29.73Zm1,4.95v.47L78,34.87v-.13Zm-1,.18.08.1c-.07.1-.11.25-.2.29-.26.11-.54.28-.77-.15C76.86,35,77.21,35.13,77.46,34.86Zm10-6.56c-.93.24-1.87.45-2.8.68l-3.15.79-3.18.8c-.51.14-1,.3-1.55.46-.13-.59-.11-.59.35-.72.76-.21,1.51-.47,2.28-.67s1.59-.36,2.39-.54,1.8-.41,2.71-.59c.67-.14,1.35-.23,2-.35s1.08-.21,1.62-.29a2.26,2.26,0,0,1,.82,0C88.46,28,88,28.17,87.46,28.3Z"/><path class="cls-1" d="M102.78,19.91h6a5.88,5.88,0,0,1,2.46.45,3.14,3.14,0,0,1,1.83,3.14,3.53,3.53,0,0,1-.49,1.95,3.57,3.57,0,0,1-1.38,1.22,2.71,2.71,0,0,1,1.17.83,2.94,2.94,0,0,1,.44,1.68l.07,1.78a5.52,5.52,0,0,0,.12,1.13,1.1,1.1,0,0,0,.58.81v.3h-2.21a1.42,1.42,0,0,1-.14-.44,7.14,7.14,0,0,1-.09-1l-.11-2.22a1.85,1.85,0,0,0-.94-1.74,3.65,3.65,0,0,0-1.57-.25h-4v5.7h-1.8ZM108.63,26a3.32,3.32,0,0,0,2-.51,2.06,2.06,0,0,0,.72-1.82,2,2,0,0,0-1-1.94,3.17,3.17,0,0,0-1.43-.27h-4.28V26Z"/><path class="cls-1" d="M121.71,23.78A3.72,3.72,0,0,1,123.18,25a4.45,4.45,0,0,1,.65,1.71,11.94,11.94,0,0,1,.14,2.14h-7a4.21,4.21,0,0,0,.69,2.37,2.31,2.31,0,0,0,2,.89,2.6,2.6,0,0,0,2-.84,2.83,2.83,0,0,0,.59-1.14h1.6a3.22,3.22,0,0,1-.42,1.19,4,4,0,0,1-.79,1.07,3.71,3.71,0,0,1-1.83,1,5.27,5.27,0,0,1-1.32.15,4,4,0,0,1-3-1.32,5.12,5.12,0,0,1-1.25-3.69,5.59,5.59,0,0,1,1.26-3.79,4.13,4.13,0,0,1,3.29-1.45A4.38,4.38,0,0,1,121.71,23.78Zm.59,3.8a4.31,4.31,0,0,0-.46-1.69,2.34,2.34,0,0,0-2.22-1.17,2.43,2.43,0,0,0-1.86.81,3.07,3.07,0,0,0-.8,2Z"/><path class="cls-1" d="M132.43,24a3.79,3.79,0,0,1,1.24,2.74h-1.58a2.92,2.92,0,0,0-.67-1.49,2.08,2.08,0,0,0-1.65-.59,2.3,2.3,0,0,0-2.23,1.52,6,6,0,0,0-.43,2.43,4.59,4.59,0,0,0,.61,2.45,2.4,2.4,0,0,0,3.55.37,3.48,3.48,0,0,0,.82-1.69h1.58a3.83,3.83,0,0,1-4.14,3.71,3.71,3.71,0,0,1-3-1.39,5.32,5.32,0,0,1-1.13-3.47,5.88,5.88,0,0,1,1.24-4,4,4,0,0,1,3.16-1.42A4.21,4.21,0,0,1,132.43,24Z"/><path class="cls-1" d="M135.3,19.91H137v1.85H135.3Zm0,3.65H137V33.2H135.3Z"/><path class="cls-1" d="M139.28,23.56h1.59v1.28a3.8,3.8,0,0,1,1.07-1,3.47,3.47,0,0,1,1.94-.54,3.65,3.65,0,0,1,2.8,1.26,5.15,5.15,0,0,1,1.15,3.61c0,2.11-.55,3.61-1.66,4.52a3.78,3.78,0,0,1-2.45.86,3.31,3.31,0,0,1-1.84-.48,4.29,4.29,0,0,1-1-.93v5h-1.62Zm6.12,7.59a4.49,4.49,0,0,0,.76-2.85,5.18,5.18,0,0,0-.34-2,2.46,2.46,0,0,0-4.64.09,6.53,6.53,0,0,0-.34,2.3,4.8,4.8,0,0,0,.34,1.91,2.46,2.46,0,0,0,4.22.54Z"/><path class="cls-1" d="M155.7,23.78A3.62,3.62,0,0,1,157.16,25a4.3,4.3,0,0,1,.65,1.71,11.05,11.05,0,0,1,.14,2.14h-7a4.21,4.21,0,0,0,.69,2.37,2.29,2.29,0,0,0,2,.89,2.58,2.58,0,0,0,2-.84,3,3,0,0,0,.6-1.14h1.6a3.22,3.22,0,0,1-.42,1.19,4,4,0,0,1-.8,1.07,3.72,3.72,0,0,1-1.82,1,5.32,5.32,0,0,1-1.32.15,4.05,4.05,0,0,1-3.05-1.32,5.17,5.17,0,0,1-1.25-3.69,5.59,5.59,0,0,1,1.26-3.79,4.15,4.15,0,0,1,3.29-1.45A4.39,4.39,0,0,1,155.7,23.78Zm.58,3.8a4.15,4.15,0,0,0-.46-1.69,2.34,2.34,0,0,0-2.21-1.17,2.47,2.47,0,0,0-1.87.81,3.07,3.07,0,0,0-.8,2Z"/><path class="cls-1" d="M161,30.16a2.34,2.34,0,0,0,.42,1.25,2.66,2.66,0,0,0,2.18.79,3.2,3.2,0,0,0,1.63-.4,1.3,1.3,0,0,0,.7-1.21,1,1,0,0,0-.56-.95,6.82,6.82,0,0,0-1.42-.46l-1.32-.33a6.2,6.2,0,0,1-1.85-.69,2.05,2.05,0,0,1-1.07-1.82,2.79,2.79,0,0,1,1-2.23,4,4,0,0,1,2.7-.85,3.81,3.81,0,0,1,3.2,1.28,2.85,2.85,0,0,1,.59,1.76h-1.54a1.79,1.79,0,0,0-.4-1,2.59,2.59,0,0,0-2-.64,2.47,2.47,0,0,0-1.43.35,1.11,1.11,0,0,0-.48.93,1.13,1.13,0,0,0,.64,1,4,4,0,0,0,1.08.4l1.1.26a9.16,9.16,0,0,1,2.4.82,2.21,2.21,0,0,1,1,2,3,3,0,0,1-1,2.23,4.24,4.24,0,0,1-3,.94,4.06,4.06,0,0,1-3.1-1,3.65,3.65,0,0,1-1-2.43Z"/></svg>