<svg xmlns="http://www.w3.org/2000/svg" width="74.4" height="74.4" viewBox="0 0 74.4 74.4">
  <g id="Group_1690" data-name="Group 1690" transform="translate(-302.5 -1006)">
    <path id="Path_3988" data-name="Path 3988" d="M50,12.8A37.2,37.2,0,1,0,87.2,50,37.258,37.258,0,0,0,50,12.8Zm0,70.4A33.2,33.2,0,1,1,83.2,50,33.246,33.246,0,0,1,50,83.2Z" transform="translate(289.7 993.2)"/>
    <path id="Path_3989" data-name="Path 3989" d="M49.6,27.1a2.006,2.006,0,0,0,2-2V22.2a2,2,0,1,0-4,0v2.9A2.006,2.006,0,0,0,49.6,27.1Zm17.7,7a1.974,1.974,0,0,0,1.4-.6l2.1-2.1A1.98,1.98,0,0,0,68,28.6l-2.1,2.1a1.933,1.933,0,0,0,0,2.8A1.974,1.974,0,0,0,67.3,34.1ZM77.9,47.6H75a2,2,0,0,0,0,4h2.9a2,2,0,0,0,0-4ZM69.3,65.9a1.98,1.98,0,1,0-2.8,2.8l2.1,2.1a1.933,1.933,0,0,0,2.8,0,1.933,1.933,0,0,0,0-2.8Zm-18.9,7a2.006,2.006,0,0,0-2,2v2.9a2,2,0,0,0,4,0V74.9A2.006,2.006,0,0,0,50.4,72.9ZM31.2,66.5l-2.1,2.1a1.933,1.933,0,0,0,0,2.8,1.933,1.933,0,0,0,2.8,0L34,69.3a1.98,1.98,0,1,0-2.8-2.8ZM25.1,48.4H22.2a2,2,0,1,0,0,4h2.9a2,2,0,1,0,0-4Zm5.6-14.3a1.933,1.933,0,0,0,2.8,0,1.933,1.933,0,0,0,0-2.8l-2.1-2.1A1.98,1.98,0,0,0,28.6,32Zm29,4.4a5.153,5.153,0,0,0,.3-3.4,3.955,3.955,0,0,0-2.7-2.9l-1.8-.7a4.013,4.013,0,0,0-1.5-.3c-1.9,0-3.5,1.3-4.3,3.6l-.5,1.4A13.8,13.8,0,0,0,40,59.8l-.5,1.4a5.072,5.072,0,0,0,.2,4,5.475,5.475,0,0,0,2.9,2.7l1.8.7a5.079,5.079,0,0,0,1.7.3A5.264,5.264,0,0,0,51,65.4l.5-1.6A14.072,14.072,0,0,0,63.4,50a13.658,13.658,0,0,0-4.2-9.9ZM41.6,55.6a9.771,9.771,0,0,1,5.9-15.2ZM47.2,64a1.189,1.189,0,0,1-1.5.7L43.9,64a1.344,1.344,0,0,1-.7-.6,1.185,1.185,0,0,1-.1-.8L53.3,36.2c.3-.7.5-1,.6-1h.2l1.8.7a.1.1,0,0,1,.1.1,2.16,2.16,0,0,1-.2,1.2ZM59.4,50a9.847,9.847,0,0,1-6.5,9.2l4.8-14.7A9.668,9.668,0,0,1,59.4,50Z" transform="translate(290.3 993.2)"/>
    <path id="Path_3990" data-name="Path 3990" d="M50,12.8A37.2,37.2,0,1,0,87.2,50,37.258,37.258,0,0,0,50,12.8Zm0,70.4A33.2,33.2,0,1,1,83.2,50,33.246,33.246,0,0,1,50,83.2Z" transform="translate(289.7 993.2)"/>
    <path id="Path_3991" data-name="Path 3991" d="M49.6,27.1a2.006,2.006,0,0,0,2-2V22.2a2,2,0,1,0-4,0v2.9A2.006,2.006,0,0,0,49.6,27.1Zm17.7,7a1.974,1.974,0,0,0,1.4-.6l2.1-2.1A1.98,1.98,0,0,0,68,28.6l-2.1,2.1a1.933,1.933,0,0,0,0,2.8A1.974,1.974,0,0,0,67.3,34.1ZM77.9,47.6H75a2,2,0,0,0,0,4h2.9a2,2,0,0,0,0-4ZM69.3,65.9a1.98,1.98,0,1,0-2.8,2.8l2.1,2.1a1.933,1.933,0,0,0,2.8,0,1.933,1.933,0,0,0,0-2.8Zm-18.9,7a2.006,2.006,0,0,0-2,2v2.9a2,2,0,0,0,4,0V74.9A2.006,2.006,0,0,0,50.4,72.9ZM31.2,66.5l-2.1,2.1a1.933,1.933,0,0,0,0,2.8,1.933,1.933,0,0,0,2.8,0L34,69.3a1.98,1.98,0,1,0-2.8-2.8ZM25.1,48.4H22.2a2,2,0,1,0,0,4h2.9a2,2,0,1,0,0-4Zm5.6-14.3a1.933,1.933,0,0,0,2.8,0,1.933,1.933,0,0,0,0-2.8l-2.1-2.1A1.98,1.98,0,0,0,28.6,32Zm29,4.4a5.153,5.153,0,0,0,.3-3.4,3.955,3.955,0,0,0-2.7-2.9l-1.8-.7a4.013,4.013,0,0,0-1.5-.3c-1.9,0-3.5,1.3-4.3,3.6l-.5,1.4A13.8,13.8,0,0,0,40,59.8l-.5,1.4a5.072,5.072,0,0,0,.2,4,5.475,5.475,0,0,0,2.9,2.7l1.8.7a5.079,5.079,0,0,0,1.7.3A5.264,5.264,0,0,0,51,65.4l.5-1.6A14.072,14.072,0,0,0,63.4,50a13.658,13.658,0,0,0-4.2-9.9ZM41.6,55.6a9.771,9.771,0,0,1,5.9-15.2ZM47.2,64a1.189,1.189,0,0,1-1.5.7L43.9,64a1.344,1.344,0,0,1-.7-.6,1.185,1.185,0,0,1-.1-.8L53.3,36.2c.3-.7.5-1,.6-1h.2l1.8.7a.1.1,0,0,1,.1.1,2.16,2.16,0,0,1-.2,1.2ZM59.4,50a9.847,9.847,0,0,1-6.5,9.2l4.8-14.7A9.668,9.668,0,0,1,59.4,50Z" transform="translate(290.3 993.2)"/>
  </g>
</svg>
