<svg xmlns="http://www.w3.org/2000/svg" width="80.686" height="90.402" viewBox="0 0 80.686 90.402">
  <g id="Group_1580" data-name="Group 1580" transform="translate(-267.945 -967.294)">
    <path id="Path_4038" data-name="Path 4038" d="M356.863,992.656a4.128,4.128,0,1,0-4.128,4.128A4.132,4.132,0,0,0,356.863,992.656Zm-4.128-1.047a1.047,1.047,0,1,1-1.047,1.047A1.048,1.048,0,0,1,352.736,991.609Z" transform="translate(-63.898 -16.674)" fill="#1d1d1b" stroke="#000" stroke-width="0.5"/>
    <path id="Path_4039" data-name="Path 4039" d="M291.405,1021.844v-17.478c3.176-.653,5.117-2.564,5.117-5.234a5.445,5.445,0,0,0-.077-.9V977.082a9.163,9.163,0,0,0,.077-1.181c0-4.608-3.447-8.358-7.684-8.358s-7.685,3.749-7.685,8.358a9.192,9.192,0,0,0,.077,1.179v21.146a5.4,5.4,0,0,0-.077.9c0,2.67,1.941,4.581,5.117,5.234v17.478c-10.175,1.1-18.076,8.631-18.076,17.732,0,9.854,9.26,17.87,20.643,17.87s20.643-8.016,20.643-17.87C309.48,1030.475,301.58,1022.942,291.405,1021.844Zm-2.567,32.521c-9.684,0-17.562-6.635-17.562-14.789,0-7.42,6.524-13.58,14.995-14.63a20.89,20.89,0,0,1,2.567-.16h0a20.846,20.846,0,0,1,2.567.16c8.471,1.05,14.995,7.209,14.995,14.63C306.4,1047.731,298.521,1054.365,288.838,1054.365Zm-4.6-55.234a2.323,2.323,0,0,1,.047-.459,1.547,1.547,0,0,0,.03-.3V976.977a1.532,1.532,0,0,0-.015-.217,6.131,6.131,0,0,1-.061-.859c0-2.91,2.065-5.277,4.6-5.277s4.6,2.367,4.6,5.277a6.075,6.075,0,0,1-.062.858,1.55,1.55,0,0,0-.015.218v21.391a1.538,1.538,0,0,0,.03.3,2.357,2.357,0,0,1,.047.461c0,1.15-.973,1.751-2.036,2.063a9.836,9.836,0,0,1-2.567.337h0a9.835,9.835,0,0,1-2.567-.337C285.207,1000.882,284.234,1000.282,284.234,999.132Z" fill="#1d1d1b" stroke="#000" stroke-width="0.5"/>
    <path id="Path_4040" data-name="Path 4040" d="M382.327,1265.079a15.141,15.141,0,0,0-7.8-3.755c-.492-.083-.99-.147-1.493-.185l-.117,1.536-.012.163-.1,1.374a13.1,13.1,0,0,1,2.118.336c4.152,1.014,7.327,3.977,8.069,7.549a7.849,7.849,0,0,1,.168,1.6h3.081A11.728,11.728,0,0,0,382.327,1265.079Z" transform="translate(-83.118 -233.296)" fill="#1d1d1b" stroke="#000" stroke-width="0.5"/>
    <path id="Path_4041" data-name="Path 4041" d="M567.843,992.656a4.128,4.128,0,1,0-4.128,4.128A4.133,4.133,0,0,0,567.843,992.656Zm-4.128-1.047a1.047,1.047,0,1,1-1.047,1.047A1.048,1.048,0,0,1,563.715,991.609Z" transform="translate(-231.545 -16.674)" fill="#1d1d1b" stroke="#000" stroke-width="0.5"/>
    <path id="Path_4042" data-name="Path 4042" d="M533.163,1051.634l-1.407-23.533a8.637,8.637,0,0,0-8.506-8.013h-3.715v-17.651c3.176-.653,5.117-2.564,5.117-5.234a5.415,5.415,0,0,0-.077-.9V980.082a9.157,9.157,0,0,0,.077-1.18c0-4.608-3.447-8.358-7.684-8.358s-7.685,3.749-7.685,8.358a9.227,9.227,0,0,0,.077,1.179V996.3a5.4,5.4,0,0,0-.077.9c0,2.67,1.941,4.581,5.117,5.234v17.652h-3.715a8.637,8.637,0,0,0-8.506,8.013l-1.407,23.533a7.676,7.676,0,0,0,7.721,8.2h16.949a7.676,7.676,0,0,0,7.721-8.2Zm-7.721,5.116H508.493a4.6,4.6,0,0,1-4.646-4.932l1.407-23.533a5.585,5.585,0,0,1,5.431-5.116H523.25a5.585,5.585,0,0,1,5.431,5.116l1.407,23.533a4.6,4.6,0,0,1-4.646,4.932ZM512.364,997.2a2.327,2.327,0,0,1,.047-.459,1.526,1.526,0,0,0,.03-.3V979.977a1.522,1.522,0,0,0-.015-.217,6.167,6.167,0,0,1-.061-.858c0-2.91,2.065-5.277,4.6-5.277s4.6,2.367,4.6,5.277a6.079,6.079,0,0,1-.061.858,1.555,1.555,0,0,0-.016.218v16.461a1.54,1.54,0,0,0,.03.3,2.37,2.37,0,0,1,.047.461c0,1.15-.973,1.75-2.036,2.063a9.835,9.835,0,0,1-2.567.337h0a9.835,9.835,0,0,1-2.567-.337C513.337,998.953,512.364,998.353,512.364,997.2Z" transform="translate(-184.798 -2.384)" fill="#1d1d1b" stroke="#000" stroke-width="0.5"/>
    <path id="Path_4043" data-name="Path 4043" d="M573.724,1250.125a1.54,1.54,0,0,0-1.54,1.54v20.949a1.54,1.54,0,0,0,3.081,0v-20.949A1.54,1.54,0,0,0,573.724,1250.125Z" transform="translate(-241.555 -224.544)" fill="#1d1d1b" stroke="#000" stroke-width="0.5"/>
    <path id="Path_4044" data-name="Path 4044" d="M536.047,1250.127a1.539,1.539,0,0,0-1.628,1.447l-1.232,20.949a1.541,1.541,0,0,0,1.447,1.628l.092,0a1.541,1.541,0,0,0,1.536-1.45l1.232-20.949A1.54,1.54,0,0,0,536.047,1250.127Z" transform="translate(-210.565 -224.543)" fill="#1d1d1b" stroke="#000" stroke-width="0.5"/>
    <path id="Path_4045" data-name="Path 4045" d="M608.262,1251.574a1.54,1.54,0,0,0-3.075.181l1.232,20.949a1.541,1.541,0,0,0,1.536,1.45c.03,0,.061,0,.092,0a1.54,1.54,0,0,0,1.447-1.628Z" transform="translate(-267.778 -224.543)" fill="#1d1d1b" stroke="#000" stroke-width="0.5"/>
  </g>
</svg>
