<svg xmlns="http://www.w3.org/2000/svg" width="93.094" height="76.524" viewBox="0 0 93.094 76.524">
  <path id="Path_3017" data-name="Path 3017" d="M86.6,32.418,78.1,41.8l1.341,12.566a.766.766,0,0,1-1.074.777L66.778,49.988,55.193,55.142a.766.766,0,0,1-1.074-.777L55.46,41.8l-8.5-9.381a.762.762,0,0,1,.41-1.258l12.414-2.612L66.114,17.6a.768.768,0,0,1,1.328,0l6.331,10.951L86.187,31.16a.762.762,0,0,1,.411,1.258ZM29.357,89.37a.766.766,0,0,0,1.074.777l11.585-5.153L53.6,90.147a.766.766,0,0,0,1.074-.777L53.335,76.8l8.5-9.381a.762.762,0,0,0-.41-1.258L49.012,63.553,42.681,52.6a.768.768,0,0,0-1.328,0L35.022,63.553,22.608,66.166a.762.762,0,0,0-.41,1.258L30.7,76.8Zm81.591-23.2L98.535,63.553,92.2,52.6a.768.768,0,0,0-1.328,0L84.545,63.553,72.131,66.166a.762.762,0,0,0-.41,1.258l8.5,9.381L78.881,89.37a.766.766,0,0,0,1.074.777L91.54,84.994l11.585,5.153a.766.766,0,0,0,1.075-.777L102.858,76.8l8.5-9.381a.762.762,0,0,0-.41-1.258Z" transform="translate(-20.231 -15.464)" fill="none" stroke="#000" stroke-width="3.5"/>
</svg>
