<svg id="Group_1563" data-name="Group 1563" xmlns="http://www.w3.org/2000/svg" width="97.025" height="133.825" viewBox="0 0 97.025 133.825">
  <g id="Group_1548" data-name="Group 1548" transform="translate(0)">
    <g id="Group_1548-2" data-name="Group 1548" transform="translate(0 23.314)">
      <path id="Path_3932" data-name="Path 3932" d="M-187.518,144.1" transform="translate(203.143 -144.102)" fill="#ffb711"/>
      <path id="Path_3933" data-name="Path 3933" d="M-185.045,153.225a1.519,1.519,0,0,1-1.519-1.519,1.519,1.519,0,0,1,1.519-1.52,1.519,1.519,0,0,1,1.52,1.52A1.519,1.519,0,0,1-185.045,153.225Z" transform="translate(203.226 -143.577)" fill="#ffb711"/>
      <circle id="Ellipse_73" data-name="Ellipse 73" cx="2.36" cy="2.36" r="2.36" transform="translate(20.083 13.189)" fill="#ffb711"/>
      <circle id="Ellipse_74" data-name="Ellipse 74" cx="2.735" cy="2.735" r="2.735" transform="translate(24.853 19.655)" fill="#ffb711"/>
      <path id="Path_3934" data-name="Path 3934" d="M-170.9,173.514a2.823,2.823,0,0,1-2.823-2.823,2.823,2.823,0,0,1,2.823-2.822,2.823,2.823,0,0,1,2.823,2.822A2.823,2.823,0,0,1-170.9,173.514Z" transform="translate(204.334 -142.051)" fill="#ffb711"/>
      <circle id="Ellipse_75" data-name="Ellipse 75" cx="2.692" cy="2.692" r="2.692" transform="translate(37.255 31.505)" fill="#ffb711"/>
      <circle id="Ellipse_76" data-name="Ellipse 76" cx="2.287" cy="2.287" r="2.287" transform="translate(44.836 36.572)" fill="#ffb711"/>
      <path id="Path_3935" data-name="Path 3935" d="M-151.2,184.663a1.5,1.5,0,0,1-1.5-1.5,1.5,1.5,0,0,1,1.5-1.5,1.5,1.5,0,0,1,1.5,1.5A1.5,1.5,0,0,1-151.2,184.663Z" transform="translate(206.149 -140.86)" fill="#ffb711"/>
      <path id="Path_3936" data-name="Path 3936" d="M-158.757,186.364a1.956,1.956,0,0,1-1.956-1.956,1.957,1.957,0,0,1,1.956-1.958,1.958,1.958,0,0,1,1.958,1.958A1.957,1.957,0,0,1-158.757,186.364Z" transform="translate(205.456 -140.793)" fill="#ffb711"/>
      <path id="Path_3937" data-name="Path 3937" d="M-166.078,188.948a2.189,2.189,0,0,1-2.189-2.189,2.188,2.188,0,0,1,2.189-2.188,2.189,2.189,0,0,1,2.189,2.188A2.189,2.189,0,0,1-166.078,188.948Z" transform="translate(204.805 -140.61)" fill="#ffb711"/>
      <circle id="Ellipse_77" data-name="Ellipse 77" cx="2.257" cy="2.257" r="2.257" transform="translate(28.777 47.192)" fill="#ffb711"/>
      <circle id="Ellipse_78" data-name="Ellipse 78" cx="2.197" cy="2.197" r="2.197" transform="translate(21.45 51.187)" fill="#ffb711"/>
      <path id="Path_3938" data-name="Path 3938" d="M-186.434,199.617a2.013,2.013,0,0,1-2.013-2.014,2.013,2.013,0,0,1,2.013-2.014,2.014,2.014,0,0,1,2.014,2.014A2.014,2.014,0,0,1-186.434,199.617Z" transform="translate(203.063 -139.659)" fill="#ffb711"/>
      <circle id="Ellipse_79" data-name="Ellipse 79" cx="1.643" cy="1.643" r="1.643" transform="translate(8.471 61.552)" fill="#ffb711"/>
      <path id="Path_3939" data-name="Path 3939" d="M-197.794,208.959a1,1,0,0,1-1-1,1,1,0,0,1,1-1,1,1,0,0,1,1,1A1,1,0,0,1-197.794,208.959Z" transform="translate(202.17 -138.678)" fill="#ffb711"/>
      <path id="Path_3940" data-name="Path 3940" d="M-201.9,214.424" transform="translate(201.902 -138.033)" fill="#ffb711"/>
    </g>
    <path id="Path_3941" data-name="Path 3941" d="M-145.664,132.066c.653,3.636,1.28,7.146,2.061,10.59s1.654,6.8,2.629,10.1a125.448,125.448,0,0,0,7.233,18.891c1.467,2.976,3.023,5.891,4.744,8.677,1.744,2.763,3.547,5.488,5.521,8.052A132.05,132.05,0,0,0-110.6,202.889h0l4.277,2.964-5.1.93a78.66,78.66,0,0,0-21.754,7.7c-3.495,1.779-6.9,3.813-10.252,5.963-3.339,2.182-6.6,4.542-9.79,7.03a140.961,140.961,0,0,0-17.874,16.952c-5.509,6.274-10.6,13.133-14.12,21.458a49.14,49.14,0,0,1,4.318-13.09,79.6,79.6,0,0,1,6.923-11.551,96.818,96.818,0,0,1,8.384-10.1,103.808,103.808,0,0,1,9.38-8.794,101.453,101.453,0,0,1,10.163-7.5,90.459,90.459,0,0,1,10.85-6.086c7.443-3.483,15.362-5.96,23.463-6.205l-.822,3.894h0a62.857,62.857,0,0,1-15.446-12.95,76.1,76.1,0,0,1-11.617-17.962,77.649,77.649,0,0,1-6.469-21.224,69.532,69.532,0,0,1-.776-11.2A52.1,52.1,0,0,1-145.664,132.066Z" transform="translate(203.343 -132.066)" fill="#ffb711"/>
    <g id="Group_1550" data-name="Group 1550" transform="translate(0 23.314)">
      <path id="Path_3952" data-name="Path 3952" d="M-187.518,144.1" transform="translate(203.143 -144.102)" fill="#ffb711"/>
      <path id="Path_3953" data-name="Path 3953" d="M-185.045,153.225a1.519,1.519,0,0,1-1.519-1.519,1.519,1.519,0,0,1,1.519-1.52,1.519,1.519,0,0,1,1.52,1.52A1.519,1.519,0,0,1-185.045,153.225Z" transform="translate(203.226 -143.577)" fill="#ffb711"/>
      <circle id="Ellipse_84" data-name="Ellipse 84" cx="2.36" cy="2.36" r="2.36" transform="translate(20.083 13.189)" fill="#ffb711"/>
      <circle id="Ellipse_85" data-name="Ellipse 85" cx="2.735" cy="2.735" r="2.735" transform="translate(24.853 19.655)" fill="#ffb711"/>
      <path id="Path_3954" data-name="Path 3954" d="M-170.9,173.514a2.823,2.823,0,0,1-2.823-2.823,2.823,2.823,0,0,1,2.823-2.822,2.823,2.823,0,0,1,2.823,2.822A2.823,2.823,0,0,1-170.9,173.514Z" transform="translate(204.334 -142.051)" fill="#ffb711"/>
      <circle id="Ellipse_86" data-name="Ellipse 86" cx="2.692" cy="2.692" r="2.692" transform="translate(37.255 31.505)" fill="#ffb711"/>
      <circle id="Ellipse_87" data-name="Ellipse 87" cx="2.287" cy="2.287" r="2.287" transform="translate(44.836 36.572)" fill="#ffb711"/>
      <path id="Path_3955" data-name="Path 3955" d="M-151.2,184.663a1.5,1.5,0,0,1-1.5-1.5,1.5,1.5,0,0,1,1.5-1.5,1.5,1.5,0,0,1,1.5,1.5A1.5,1.5,0,0,1-151.2,184.663Z" transform="translate(206.149 -140.86)" fill="#ffb711"/>
      <path id="Path_3956" data-name="Path 3956" d="M-158.757,186.364a1.956,1.956,0,0,1-1.956-1.956,1.957,1.957,0,0,1,1.956-1.958,1.958,1.958,0,0,1,1.958,1.958A1.957,1.957,0,0,1-158.757,186.364Z" transform="translate(205.456 -140.793)" fill="#ffb711"/>
      <path id="Path_3957" data-name="Path 3957" d="M-166.078,188.948a2.189,2.189,0,0,1-2.189-2.189,2.188,2.188,0,0,1,2.189-2.188,2.189,2.189,0,0,1,2.189,2.188A2.189,2.189,0,0,1-166.078,188.948Z" transform="translate(204.805 -140.61)" fill="#ffb711"/>
      <circle id="Ellipse_88" data-name="Ellipse 88" cx="2.257" cy="2.257" r="2.257" transform="translate(28.777 47.192)" fill="#ffb711"/>
      <circle id="Ellipse_89" data-name="Ellipse 89" cx="2.197" cy="2.197" r="2.197" transform="translate(21.45 51.187)" fill="#ffb711"/>
      <path id="Path_3958" data-name="Path 3958" d="M-186.434,199.617a2.013,2.013,0,0,1-2.013-2.014,2.013,2.013,0,0,1,2.013-2.014,2.014,2.014,0,0,1,2.014,2.014A2.014,2.014,0,0,1-186.434,199.617Z" transform="translate(203.063 -139.659)" fill="#ffb711"/>
      <circle id="Ellipse_90" data-name="Ellipse 90" cx="1.643" cy="1.643" r="1.643" transform="translate(8.471 61.552)" fill="#ffb711"/>
      <path id="Path_3959" data-name="Path 3959" d="M-197.794,208.959a1,1,0,0,1-1-1,1,1,0,0,1,1-1,1,1,0,0,1,1,1A1,1,0,0,1-197.794,208.959Z" transform="translate(202.17 -138.678)" fill="#ffb711"/>
      <path id="Path_3960" data-name="Path 3960" d="M-201.9,214.424" transform="translate(201.902 -138.033)" fill="#ffb711"/>
    </g>
    <path id="Path_3961" data-name="Path 3961" d="M-145.664,132.066c.653,3.636,1.28,7.146,2.061,10.59s1.654,6.8,2.629,10.1a125.448,125.448,0,0,0,7.233,18.891c1.467,2.976,3.023,5.891,4.744,8.677,1.744,2.763,3.547,5.488,5.521,8.052A132.05,132.05,0,0,0-110.6,202.889h0l4.277,2.964-5.1.93a78.66,78.66,0,0,0-21.754,7.7c-3.495,1.779-6.9,3.813-10.252,5.963-3.339,2.182-6.6,4.542-9.79,7.03a140.961,140.961,0,0,0-17.874,16.952c-5.509,6.274-10.6,13.133-14.12,21.458a49.14,49.14,0,0,1,4.318-13.09,79.6,79.6,0,0,1,6.923-11.551,96.818,96.818,0,0,1,8.384-10.1,103.808,103.808,0,0,1,9.38-8.794,101.453,101.453,0,0,1,10.163-7.5,90.459,90.459,0,0,1,10.85-6.086c7.443-3.483,15.362-5.96,23.463-6.205l-.822,3.894h0a62.857,62.857,0,0,1-15.446-12.95,76.1,76.1,0,0,1-11.617-17.962,77.649,77.649,0,0,1-6.469-21.224,69.532,69.532,0,0,1-.776-11.2A52.1,52.1,0,0,1-145.664,132.066Z" transform="translate(203.343 -132.066)" fill="#ffb711"/>
  </g>
</svg>
