<svg xmlns="http://www.w3.org/2000/svg" width="252.379" height="334.374" viewBox="0 0 252.379 334.374">
  <g id="Group_1674" data-name="Group 1674" transform="translate(-670.302 -3633.169)">
    <g id="Group_1550" data-name="Group 1550" transform="matrix(-0.966, 0.259, -0.259, -0.966, 950.467, 3862.979)">
      <path id="Path_3952" data-name="Path 3952" d="M-187.518,144.1" transform="translate(223.479 -144.102)" fill="#fff"/>
      <path id="Path_3953" data-name="Path 3953" d="M-183.069,157.18a3.5,3.5,0,0,1-3.5-3.5,3.5,3.5,0,0,1,3.5-3.5,3.5,3.5,0,0,1,3.5,3.5A3.5,3.5,0,0,1-183.069,157.18Z" transform="translate(224.91 -134.974)" fill="#fff"/>
      <circle id="Ellipse_84" data-name="Ellipse 84" cx="5.432" cy="5.432" r="5.432" transform="translate(46.22 30.354)" fill="#fff"/>
      <circle id="Ellipse_85" data-name="Ellipse 85" cx="6.295" cy="6.295" r="6.295" transform="translate(57.198 45.235)" fill="#fff"/>
      <path id="Path_3954" data-name="Path 3954" d="M-167.223,180.862a6.5,6.5,0,0,1-6.5-6.5,6.5,6.5,0,0,1,6.5-6.5,6.5,6.5,0,0,1,6.5,6.5A6.5,6.5,0,0,1-167.223,180.862Z" transform="translate(244.176 -108.449)" fill="#fff"/>
      <circle id="Ellipse_86" data-name="Ellipse 86" cx="6.195" cy="6.195" r="6.195" transform="translate(85.742 72.508)" fill="#fff"/>
      <circle id="Ellipse_87" data-name="Ellipse 87" cx="5.263" cy="5.263" r="5.263" transform="translate(103.19 84.17)" fill="#fff"/>
      <path id="Path_3955" data-name="Path 3955" d="M-149.247,188.561a3.445,3.445,0,0,1-3.445-3.445,3.446,3.446,0,0,1,3.445-3.448,3.446,3.446,0,0,1,3.445,3.448A3.445,3.445,0,0,1-149.247,188.561Z" transform="translate(275.721 -87.75)" fill="#fff"/>
      <path id="Path_3956" data-name="Path 3956" d="M-156.21,191.458a4.5,4.5,0,0,1-4.5-4.5,4.5,4.5,0,0,1,4.5-4.505,4.506,4.506,0,0,1,4.505,4.505A4.5,4.5,0,0,1-156.21,191.458Z" transform="translate(263.689 -86.577)" fill="#fff"/>
      <path id="Path_3957" data-name="Path 3957" d="M-163.229,194.644a5.037,5.037,0,0,1-5.038-5.038,5.037,5.037,0,0,1,5.038-5.035,5.038,5.038,0,0,1,5.038,5.035A5.039,5.039,0,0,1-163.229,194.644Z" transform="translate(252.357 -83.395)" fill="#fff"/>
      <circle id="Ellipse_88" data-name="Ellipse 88" cx="5.195" cy="5.195" r="5.195" transform="translate(66.23 108.611)" fill="#fff"/>
      <circle id="Ellipse_89" data-name="Ellipse 89" cx="5.056" cy="5.056" r="5.056" transform="translate(49.368 117.807)" fill="#fff"/>
      <path id="Path_3958" data-name="Path 3958" d="M-183.814,204.859a4.633,4.633,0,0,1-4.633-4.635,4.633,4.633,0,0,1,4.633-4.635,4.635,4.635,0,0,1,4.635,4.635A4.635,4.635,0,0,1-183.814,204.859Z" transform="translate(222.086 -66.867)" fill="#fff"/>
      <circle id="Ellipse_90" data-name="Ellipse 90" cx="3.781" cy="3.781" r="3.781" transform="translate(19.496 141.661)" fill="#fff"/>
      <path id="Path_3959" data-name="Path 3959" d="M-196.489,211.569a2.307,2.307,0,0,1-2.308-2.308,2.308,2.308,0,0,1,2.308-2.308,2.308,2.308,0,0,1,2.305,2.308A2.306,2.306,0,0,1-196.489,211.569Z" transform="translate(206.56 -49.818)" fill="#fff"/>
      <path id="Path_3960" data-name="Path 3960" d="M-201.9,214.424" transform="translate(201.902 -38.613)" fill="#fff"/>
    </g>
    <path id="Path_3961" data-name="Path 3961" d="M-94.2,132.066c1.5,8.084,2.945,15.888,4.743,23.544,1.82,7.642,3.808,15.121,6.05,22.449a273.152,273.152,0,0,0,16.646,42c3.375,6.615,6.958,13.1,10.918,19.29,4.013,6.142,8.163,12.2,12.705,17.9,8.923,11.6,19.041,22.027,29.646,32.272l0,0,9.843,6.59-11.735,2.067c-17.263,3.04-34.011,9.15-50.067,17.128-8.043,3.955-15.881,8.477-23.6,13.256-7.685,4.85-15.186,10.1-22.531,15.628a320.024,320.024,0,0,0-41.136,37.687c-12.678,13.949-24.4,29.2-32.5,47.707a106.678,106.678,0,0,1,9.938-29.1,175.841,175.841,0,0,1,15.933-25.68,217.117,217.117,0,0,1,19.3-22.463,235.807,235.807,0,0,1,21.588-19.552,233.211,233.211,0,0,1,23.391-16.684,210.363,210.363,0,0,1,24.971-13.53c17.131-7.744,35.356-13.25,54-13.8l-1.893,8.657h0a143.6,143.6,0,0,1-35.549-28.79,168.671,168.671,0,0,1-26.736-39.934,168.337,168.337,0,0,1-14.888-47.185,149.421,149.421,0,0,1-1.785-24.893A112.053,112.053,0,0,1-94.2,132.066Z" transform="matrix(-0.966, 0.259, -0.259, -0.966, 777.966, 4096.052)" fill="#fff"/>
  </g>
</svg>
