<svg xmlns="http://www.w3.org/2000/svg" width="274.052" height="334.369" viewBox="0 0 274.052 334.369">
  <g id="Group_1564" data-name="Group 1564" transform="matrix(-0.914, 0.407, -0.407, -0.914, 331.49, 297.264)">
    <g id="Group_1563" data-name="Group 1563" transform="translate(0 52.969)">
      <g id="Group_1548" data-name="Group 1548" transform="translate(0)">
        <g id="Group_1548-2" data-name="Group 1548" transform="translate(0 50.507)">
          <path id="Path_3932" data-name="Path 3932" d="M-187.518,144.1" transform="translate(221.369 -144.102)" fill="#ffb711"/>
          <path id="Path_3933" data-name="Path 3933" d="M-183.274,156.769a3.29,3.29,0,0,1-3.29-3.29,3.291,3.291,0,0,1,3.29-3.292,3.291,3.291,0,0,1,3.292,3.292A3.291,3.291,0,0,1-183.274,156.769Z" transform="translate(222.66 -135.867)" fill="#ffb711"/>
          <circle id="Ellipse_73" data-name="Ellipse 73" cx="5.114" cy="5.114" r="5.114" transform="translate(43.508 28.573)" fill="#ffb711"/>
          <circle id="Ellipse_74" data-name="Ellipse 74" cx="5.925" cy="5.925" r="5.925" transform="translate(53.841 42.581)" fill="#ffb711"/>
          <path id="Path_3934" data-name="Path 3934" d="M-167.6,180.1a6.116,6.116,0,0,1-6.116-6.116,6.116,6.116,0,0,1,6.116-6.114,6.116,6.116,0,0,1,6.116,6.114A6.116,6.116,0,0,1-167.6,180.1Z" transform="translate(240.041 -111.936)" fill="#ffb711"/>
          <circle id="Ellipse_75" data-name="Ellipse 75" cx="5.832" cy="5.832" r="5.832" transform="translate(80.71 68.253)" fill="#ffb711"/>
          <circle id="Ellipse_76" data-name="Ellipse 76" cx="4.954" cy="4.954" r="4.954" transform="translate(97.134 79.23)" fill="#ffb711"/>
          <path id="Path_3935" data-name="Path 3935" d="M-149.449,188.156a3.243,3.243,0,0,1-3.243-3.243,3.244,3.244,0,0,1,3.243-3.245,3.244,3.244,0,0,1,3.243,3.245A3.243,3.243,0,0,1-149.449,188.156Z" transform="translate(268.501 -93.261)" fill="#ffb711"/>
          <path id="Path_3936" data-name="Path 3936" d="M-156.475,190.929a4.237,4.237,0,0,1-4.238-4.238,4.239,4.239,0,0,1,4.238-4.241,4.241,4.241,0,0,1,4.241,4.241A4.239,4.239,0,0,1-156.475,190.929Z" transform="translate(257.646 -92.203)" fill="#ffb711"/>
          <path id="Path_3937" data-name="Path 3937" d="M-163.525,194.053a4.742,4.742,0,0,1-4.742-4.742,4.741,4.741,0,0,1,4.742-4.74,4.743,4.743,0,0,1,4.742,4.74A4.743,4.743,0,0,1-163.525,194.053Z" transform="translate(247.423 -89.332)" fill="#ffb711"/>
          <circle id="Ellipse_77" data-name="Ellipse 77" cx="4.891" cy="4.891" r="4.891" transform="translate(62.343 102.237)" fill="#ffb711"/>
          <circle id="Ellipse_78" data-name="Ellipse 78" cx="4.76" cy="4.76" r="4.76" transform="translate(46.471 110.893)" fill="#ffb711"/>
          <path id="Path_3938" data-name="Path 3938" d="M-184.086,204.315a4.361,4.361,0,0,1-4.361-4.363,4.361,4.361,0,0,1,4.361-4.363,4.363,4.363,0,0,1,4.363,4.363A4.363,4.363,0,0,1-184.086,204.315Z" transform="translate(220.112 -74.421)" fill="#ffb711"/>
          <circle id="Ellipse_79" data-name="Ellipse 79" cx="3.559" cy="3.559" r="3.559" transform="translate(18.352 133.348)" fill="#ffb711"/>
          <path id="Path_3939" data-name="Path 3939" d="M-196.625,211.3a2.171,2.171,0,0,1-2.172-2.172,2.173,2.173,0,0,1,2.172-2.172,2.173,2.173,0,0,1,2.17,2.172A2.171,2.171,0,0,1-196.625,211.3Z" transform="translate(206.104 -59.04)" fill="#ffb711"/>
          <path id="Path_3940" data-name="Path 3940" d="M-201.9,214.424" transform="translate(201.902 -48.93)" fill="#ffb711"/>
        </g>
        <path id="Path_3941" data-name="Path 3941" d="M-99.539,132.066c1.414,7.877,2.772,15.482,4.464,22.943,1.713,7.447,3.584,14.735,5.7,21.876a271.775,271.775,0,0,0,15.669,40.925c3.177,6.446,6.549,12.762,10.277,18.8,3.777,5.985,7.684,11.889,11.96,17.444,8.4,11.306,17.923,21.464,27.906,31.448l0,0,9.265,6.421-11.047,2.014c-16.25,2.962-32.015,8.916-47.129,16.691-7.571,3.854-14.949,8.261-22.211,12.918-7.234,4.726-14.294,9.839-21.209,15.229A305.38,305.38,0,0,0-154.618,375.5c-11.934,13.593-22.967,28.452-30.589,46.488a106.457,106.457,0,0,1,9.355-28.358,172.445,172.445,0,0,1,15-25.024,209.746,209.746,0,0,1,18.163-21.889,224.886,224.886,0,0,1,20.321-19.053A219.79,219.79,0,0,1-100.351,311.4a195.972,195.972,0,0,1,23.505-13.184c16.125-7.547,33.281-12.912,50.831-13.443l-1.782,8.436h0A136.174,136.174,0,0,1-61.26,265.159a164.863,164.863,0,0,1-25.167-38.914,168.219,168.219,0,0,1-14.014-45.979,150.636,150.636,0,0,1-1.68-24.257A112.869,112.869,0,0,1-99.539,132.066Z" transform="translate(224.497 -132.066)" fill="#ffb711"/>
        <g id="Group_1550" data-name="Group 1550" transform="translate(0 50.507)">
          <path id="Path_3952" data-name="Path 3952" d="M-187.518,144.1" transform="translate(221.369 -144.102)" fill="#ffb711"/>
          <path id="Path_3953" data-name="Path 3953" d="M-183.274,156.769a3.29,3.29,0,0,1-3.29-3.29,3.291,3.291,0,0,1,3.29-3.292,3.291,3.291,0,0,1,3.292,3.292A3.291,3.291,0,0,1-183.274,156.769Z" transform="translate(222.66 -135.867)" fill="#ffb711"/>
          <circle id="Ellipse_84" data-name="Ellipse 84" cx="5.114" cy="5.114" r="5.114" transform="translate(43.508 28.573)" fill="#ffb711"/>
          <circle id="Ellipse_85" data-name="Ellipse 85" cx="5.925" cy="5.925" r="5.925" transform="translate(53.841 42.581)" fill="#ffb711"/>
          <path id="Path_3954" data-name="Path 3954" d="M-167.6,180.1a6.116,6.116,0,0,1-6.116-6.116,6.116,6.116,0,0,1,6.116-6.114,6.116,6.116,0,0,1,6.116,6.114A6.116,6.116,0,0,1-167.6,180.1Z" transform="translate(240.041 -111.936)" fill="#ffb711"/>
          <circle id="Ellipse_86" data-name="Ellipse 86" cx="5.832" cy="5.832" r="5.832" transform="translate(80.71 68.253)" fill="#ffb711"/>
          <circle id="Ellipse_87" data-name="Ellipse 87" cx="4.954" cy="4.954" r="4.954" transform="translate(97.134 79.23)" fill="#ffb711"/>
          <path id="Path_3955" data-name="Path 3955" d="M-149.449,188.156a3.243,3.243,0,0,1-3.243-3.243,3.244,3.244,0,0,1,3.243-3.245,3.244,3.244,0,0,1,3.243,3.245A3.243,3.243,0,0,1-149.449,188.156Z" transform="translate(268.501 -93.261)" fill="#ffb711"/>
          <path id="Path_3956" data-name="Path 3956" d="M-156.475,190.929a4.237,4.237,0,0,1-4.238-4.238,4.239,4.239,0,0,1,4.238-4.241,4.241,4.241,0,0,1,4.241,4.241A4.239,4.239,0,0,1-156.475,190.929Z" transform="translate(257.646 -92.203)" fill="#ffb711"/>
          <path id="Path_3957" data-name="Path 3957" d="M-163.525,194.053a4.742,4.742,0,0,1-4.742-4.742,4.741,4.741,0,0,1,4.742-4.74,4.743,4.743,0,0,1,4.742,4.74A4.743,4.743,0,0,1-163.525,194.053Z" transform="translate(247.423 -89.332)" fill="#ffb711"/>
          <circle id="Ellipse_88" data-name="Ellipse 88" cx="4.891" cy="4.891" r="4.891" transform="translate(62.343 102.237)" fill="#ffb711"/>
          <circle id="Ellipse_89" data-name="Ellipse 89" cx="4.76" cy="4.76" r="4.76" transform="translate(46.471 110.893)" fill="#ffb711"/>
          <path id="Path_3958" data-name="Path 3958" d="M-184.086,204.315a4.361,4.361,0,0,1-4.361-4.363,4.361,4.361,0,0,1,4.361-4.363,4.363,4.363,0,0,1,4.363,4.363A4.363,4.363,0,0,1-184.086,204.315Z" transform="translate(220.112 -74.421)" fill="#ffb711"/>
          <circle id="Ellipse_90" data-name="Ellipse 90" cx="3.559" cy="3.559" r="3.559" transform="translate(18.352 133.348)" fill="#ffb711"/>
          <path id="Path_3959" data-name="Path 3959" d="M-196.625,211.3a2.171,2.171,0,0,1-2.172-2.172,2.173,2.173,0,0,1,2.172-2.172,2.173,2.173,0,0,1,2.17,2.172A2.171,2.171,0,0,1-196.625,211.3Z" transform="translate(206.104 -59.04)" fill="#ffb711"/>
          <path id="Path_3960" data-name="Path 3960" d="M-201.9,214.424" transform="translate(201.902 -48.93)" fill="#ffb711"/>
        </g>
        <path id="Path_3961" data-name="Path 3961" d="M-99.539,132.066c1.414,7.877,2.772,15.482,4.464,22.943,1.713,7.447,3.584,14.735,5.7,21.876a271.775,271.775,0,0,0,15.669,40.925c3.177,6.446,6.549,12.762,10.277,18.8,3.777,5.985,7.684,11.889,11.96,17.444,8.4,11.306,17.923,21.464,27.906,31.448l0,0,9.265,6.421-11.047,2.014c-16.25,2.962-32.015,8.916-47.129,16.691-7.571,3.854-14.949,8.261-22.211,12.918-7.234,4.726-14.294,9.839-21.209,15.229A305.38,305.38,0,0,0-154.618,375.5c-11.934,13.593-22.967,28.452-30.589,46.488a106.457,106.457,0,0,1,9.355-28.358,172.445,172.445,0,0,1,15-25.024,209.746,209.746,0,0,1,18.163-21.889,224.886,224.886,0,0,1,20.321-19.053A219.79,219.79,0,0,1-100.351,311.4a195.972,195.972,0,0,1,23.505-13.184c16.125-7.547,33.281-12.912,50.831-13.443l-1.782,8.436h0A136.174,136.174,0,0,1-61.26,265.159a164.863,164.863,0,0,1-25.167-38.914,168.219,168.219,0,0,1-14.014-45.979,150.636,150.636,0,0,1-1.68-24.257A112.869,112.869,0,0,1-99.539,132.066Z" transform="translate(224.497 -132.066)" fill="#ffb711"/>
      </g>
    </g>
  </g>
</svg>
