<?xml version="1.0" encoding="utf-8"?>
<!-- Generator: Adobe Illustrator 25.2.2, SVG Export Plug-In . SVG Version: 6.00 Build 0)  -->
<svg version="1.1" id="Layer_1" xmlns="http://www.w3.org/2000/svg" xmlns:xlink="http://www.w3.org/1999/xlink" x="0px" y="0px"
	 viewBox="0 0 29.2 29.2" style="enable-background:new 0 0 29.2 29.2;" xml:space="preserve">
<style type="text/css">
	.st0{fill:#2A2A2B;}
</style>
<g id="Group_1690" transform="translate(-1725.75 -1349.375)">
	<path id="Path_3926" class="st0" d="M1732.5,1368.2c-0.5-0.5-0.6-1.4-0.1-1.9l6.5-6.9c0.5-0.5,1.3-0.6,1.9-0.1l6.8,6.4
		c0.6,0.5,0.6,1.4,0.1,1.9c-0.5,0.6-1.4,0.6-1.9,0.1c0,0,0,0,0,0l-5.8-5.4l-5.5,5.9C1733.9,1368.7,1733.1,1368.7,1732.5,1368.2
		C1732.5,1368.2,1732.5,1368.2,1732.5,1368.2z"/>
	<path id="Path_3927" class="st0" d="M1740.4,1349.4c-8.1,0-14.6,6.5-14.6,14.6s6.5,14.6,14.6,14.6s14.6-6.5,14.6-14.6l0,0
		C1755,1355.9,1748.5,1349.4,1740.4,1349.4C1740.4,1349.4,1740.4,1349.4,1740.4,1349.4z M1740.4,1351.6c6.8,0,12.4,5.5,12.4,12.4
		c0,3.3-1.3,6.4-3.6,8.8c-4.8,4.8-12.7,4.8-17.5,0c-4.8-4.8-4.8-12.7,0-17.5C1733.9,1352.9,1737.1,1351.6,1740.4,1351.6z"/>
</g>
</svg>
