<?xml version="1.0" standalone="no"?>
<!DOCTYPE svg PUBLIC "-//W3C//DTD SVG 1.1//EN" "http://www.w3.org/Graphics/SVG/1.1/DTD/svg11.dtd" >
<svg xmlns="http://www.w3.org/2000/svg">
<metadata>
Created by FontPrep 20130207 at Wed May 18 19:33:52 2016
 By Ismael Serrano
Copyright 2014 Indian Type Foundry. All rights reserved.
</metadata>
<defs>
<font id="97a90fe65e472ab48b372f9962b57c56" horiz-adv-x='1024' >
  <font-face 
    font-family="Teko-Medium"
    font-weight="500"
    font-stretch="normal"
    units-per-em="2048"
    panose-1="2 0 0 0 0 0 0 0 0 0"
    ascent="1638"
    descent="-410"
    x-height="1006"
    cap-height="1292"
    bbox="-899 -856 3760 1815"
    underline-thickness="102"
    underline-position="-102"
    unicode-range="U+000D-FB02"
  />
<missing-glyph horiz-adv-x="1044" 
d="M0 0v1436h1028v-1436h-1028zM104 1335v-1235h820v1235h-820zM514 618h-8l-205 -428h-123l275 533l-275 522h123l215 -422h8l205 422h123l-277 -534l277 -521h-123z" />
    <glyph glyph-name=".notdef" horiz-adv-x="1044" 
d="M0 0v1436h1028v-1436h-1028zM104 1335v-1235h820v1235h-820zM514 618h-8l-205 -428h-123l275 533l-275 522h123l215 -422h8l205 422h123l-277 -534l277 -521h-123z" />
    <glyph glyph-name=".null" horiz-adv-x="0" 
 />
    <glyph glyph-name="nonmarkingreturn" horiz-adv-x="681" 
 />
    <glyph glyph-name="NULL" horiz-adv-x="0" 
 />
    <glyph glyph-name="NULL" horiz-adv-x="0" 
 />
    <glyph glyph-name="CR" unicode="&#xd;" horiz-adv-x="0" 
 />
    <glyph glyph-name="space" unicode=" " horiz-adv-x="329" 
 />
    <glyph glyph-name="exclam" unicode="!" horiz-adv-x="479" 
d="M102 1292h275l-41 -858h-193zM115 0v276h247v-276h-247z" />
    <glyph glyph-name="quotedbl" unicode="&#x22;" horiz-adv-x="681" 
d="M76 1292h211v-483h-211v483zM395 1292h211v-483h-211v483z" />
    <glyph glyph-name="numbersign" unicode="#" horiz-adv-x="1124" 
d="M643 483l64 324h-226l-63 -324h225zM1063 807h-154l-63 -324h141v-166h-172l-61 -317h-203l61 317h-225l-61 -317h-203l61 317h-123v166h154l64 324h-142v166h172l62 317h202l-61 -317h225l62 317h202l-61 -317h123v-166z" />
    <glyph glyph-name="dollar" unicode="$" horiz-adv-x="817" 
d="M369 741h161q215 0 215 -200v-338q0 -203 -223 -203h-2v-162h-223v162q-219 2 -219 203v178h235v-145q0 -33 12.5 -44.5t47.5 -11.5h78q33 0 45 11.5t12 44.5v276q0 33 -12.5 44t-44.5 11h-166q-211 0 -211 205v318q0 203 221 202h2v162h223v-162q221 0 221 -202v-181
h-237v148q0 33 -12.5 44t-45.5 11h-77q-35 0 -47.5 -11t-12.5 -44v-260q0 -33 12.5 -44.5t47.5 -11.5z" />
    <glyph glyph-name="percent" unicode="%" horiz-adv-x="1466" 
d="M580 1120v-377q0 -170 -183 -170h-157q-182 0 -183 170v377q0 172 183 172h157q183 0 183 -172zM1409 547v-375q0 -172 -182 -172h-158q-182 0 -182 172v375q0 86 43 129t139 43h158q182 0 182 -172zM389 772v320q0 31 -9 41t-40 10h-41q-31 0 -41 -11.5t-10 -39.5v-320
q0 -29 10 -39t41 -10h41q31 0 40 10t9 39zM1219 201v317q0 31 -10.5 41t-41.5 10h-41q-31 0 -40 -10t-9 -41v-317q0 -31 9.5 -41t39.5 -10h41q31 0 41.5 10t10.5 41zM961 1292h184l-639 -1292h-182z" />
    <glyph glyph-name="ampersand" unicode="&#x26;" horiz-adv-x="1042" 
d="M358 172h326l-285 324q-74 -45 -87 -67.5t-13 -63.5v-138q0 -33 12 -44t47 -11zM360 1067v-170q0 -61 74 -145q74 49 97.5 78.5t23.5 80.5v156q0 33 -11.5 44t-45.5 11h-80q-35 0 -46.5 -11t-11.5 -44zM756 0h-459q-223 0 -223 203v184q0 78 30.5 124t112.5 95l53 37
q-49 59 -73 94q-68 92 -68 172v181q0 203 223 202h211q219 0 219 -202v-175q0 -107 -42 -169t-175 -144l232 -272v153h188v-280q0 -43 -12 -80l168 -195h-242l-70 78q-34 -6 -73 -6z" />
    <glyph glyph-name="quotesingle" unicode="'" horiz-adv-x="378" 
d="M76 1292h227v-483h-227v483z" />
    <glyph glyph-name="parenleft" unicode="(" horiz-adv-x="583" 
d="M92 840q0 383 124 587.5t364 204.5h26v-196l-24 -2q-254 -12 -254 -590v-410q0 -578 254 -590l24 -2v-196h-26q-240 0 -364 204.5t-124 587.5v402z" />
    <glyph glyph-name="parenright" unicode=")" horiz-adv-x="583" 
d="M489 438q0 -383 -123.5 -587.5t-363.5 -204.5h-27v196l25 2q254 12 254 590v410q0 578 -254 590l-25 2v196h27q240 0 363.5 -204.5t123.5 -587.5v-402z" />
    <glyph glyph-name="asterisk" unicode="*" horiz-adv-x="698" 
d="M258 1231v61h182v-63q0 -76 -16 -135q57 37 127 57l57 18l58 -174q-137 -41 -195 -45q45 -33 94 -100l37 -51l-147 -109q-76 104 -105 172q-27 -68 -104 -172l-150 109q84 111 131 151q-70 4 -135 27l-59 18l57 174l60 -18q68 -20 124 -59q-16 73 -16 139z" />
    <glyph glyph-name="plus" unicode="+" horiz-adv-x="899" 
d="M856 735v-182h-293v-311h-227v311h-293v182h293v312h227v-312h293z" />
    <glyph glyph-name="comma" unicode="," horiz-adv-x="389" 
d="M70 276h249v-147l-172 -420h-77v567z" />
    <glyph glyph-name="hyphen" unicode="-" horiz-adv-x="661" 
d="M82 522v170h498v-170h-498z" />
    <glyph glyph-name="period" unicode="." horiz-adv-x="389" 
d="M70 0v276h249v-276h-249z" />
    <glyph glyph-name="slash" unicode="/" horiz-adv-x="811" 
d="M571 1434h207l-579 -1645h-207z" />
    <glyph glyph-name="zero" unicode="0" horiz-adv-x="866" 
d="M774 1090v-887q0 -203 -223 -203h-238q-223 0 -223 203v887q0 203 223 202h238q223 1 223 -202zM539 236v821q0 33 -12.5 44t-47.5 11h-94q-33 0 -45 -11t-12 -44v-821q0 -33 12 -44.5t45 -11.5h94q35 0 47.5 11.5t12.5 44.5z" />
    <glyph glyph-name="one" unicode="1" horiz-adv-x="532" 
d="M434 1292v-1292h-235v1112h-160v180h395z" />
    <glyph glyph-name="two" unicode="2" horiz-adv-x="755" 
d="M285 1057v-193h-236v226q0 203 223 202h197q225 0 225 -202v-146q0 -152 -92 -295l-268 -469h366v-180h-645v170l334 541q72 109 72 237v109q0 33 -12.5 44t-45.5 11h-59q-35 0 -47 -11t-12 -44z" />
    <glyph glyph-name="three" unicode="3" horiz-adv-x="798" 
d="M293 1057v-174h-236v207q0 203 224 202h206q223 0 224 -202v-277q0 -127 -86 -156q86 -29 86 -147v-307q0 -203 -224 -203h-206q-223 0 -224 203v205h236v-172q0 -33 12 -44.5t45 -11.5h70q33 0 45 11.5t12 44.5v276q0 33 -11 45t-46 12h-158v172h158q33 0 45 11.5
t12 44.5v260q0 33 -12 44t-45 11h-70q-33 0 -45 -11t-12 -44z" />
    <glyph glyph-name="four" unicode="4" horiz-adv-x="829" 
d="M829 432v-182h-122v-250h-224v250h-469v201l406 841h235l-426 -860h254v250h224v-250h122z" />
    <glyph glyph-name="five" unicode="5" horiz-adv-x="817" 
d="M324 821h200q223 0 224 -203v-415q0 -203 -224 -203h-219q-223 0 -223 203v221h237v-188q0 -33 12.5 -44.5t45.5 -11.5h78q35 0 47 11.5t12 44.5v350q0 33 -12.5 44t-46.5 11h-365v651h649v-180h-415v-291z" />
    <glyph glyph-name="six" unicode="6" horiz-adv-x="847" 
d="M539 236v284q0 33 -12.5 44t-47.5 11h-155v-339q0 -33 12 -44.5t45 -11.5h98q35 0 47.5 11.5t12.5 44.5zM324 752h223q223 0 223 -203v-346q0 -203 -223 -203h-234q-223 0 -223 203v887q0 203 223 202h224q223 0 223 -202v-199h-232v166q0 33 -12 44t-45 11h-90
q-33 0 -45 -11t-12 -44v-305z" />
    <glyph glyph-name="seven" unicode="7" horiz-adv-x="673" 
d="M664 1292v-139l-361 -1153h-242l351 1102h-398v190h650z" />
    <glyph glyph-name="eight" unicode="8" horiz-adv-x="862" 
d="M545 788v271q0 33 -12.5 44t-47.5 11h-110q-33 0 -45.5 -11t-12.5 -44v-271q0 -33 12.5 -44t45.5 -11h110q35 0 47.5 11t12.5 44zM545 233v283q0 33 -12.5 44t-47.5 11h-110q-33 0 -45.5 -11t-12.5 -44v-283q0 -33 12.5 -44t45.5 -11h110q35 0 47.5 11t12.5 44zM772 1090
v-281q0 -127 -86 -156q86 -29 86 -147v-303q0 -203 -223 -203h-238q-223 0 -223 203v303q0 119 86 147q-86 29 -86 156v281q0 203 223 202h238q223 1 223 -202z" />
    <glyph glyph-name="nine" unicode="9" horiz-adv-x="843" 
d="M362 690h158v367q0 33 -12 44t-45 11h-101q-33 0 -45 -11t-12 -44v-312q0 -33 12 -44t45 -11zM297 1292h231q223 0 224 -202v-887q0 -203 -224 -203h-223q-223 0 -223 203v194h231v-161q0 -33 12.5 -44.5t45.5 -11.5h92q33 0 45 11.5t12 44.5v284h-223q-223 0 -223 203
v367q0 202 223 202z" />
    <glyph glyph-name="colon" unicode=":" horiz-adv-x="389" 
d="M70 705h249v-404h-249v404z" />
    <glyph glyph-name="semicolon" unicode=";" horiz-adv-x="389" 
d="M70 276h249v-147l-172 -420h-77v567zM70 729v277h249v-277h-249z" />
    <glyph glyph-name="less" unicode="&#x3c;" horiz-adv-x="927" 
d="M870 819l-589 -172l589 -174v-197l-813 263v221l813 256v-197z" />
    <glyph glyph-name="equal" unicode="=" horiz-adv-x="927" 
d="M57 745v187h813v-187h-813zM57 356v189h813v-189h-813z" />
    <glyph glyph-name="greater" unicode="&#x3e;" horiz-adv-x="927" 
d="M647 647l-590 172v197l813 -256v-221l-813 -263v197z" />
    <glyph glyph-name="question" unicode="?" horiz-adv-x="776" 
d="M231 0v276h250v-276h-250zM264 1292h219q223 0 224 -200v-324q0 -201 -224 -201h-16l-10 -133h-197l-20 283h176q31 0 42 12t11 45v291q0 33 -11.5 45t-41.5 12h-82q-33 0 -44 -12t-11 -45v-145h-238v172q0 200 223 200z" />
    <glyph glyph-name="at" unicode="@" horiz-adv-x="1523" 
d="M485 690q0 193 199 193h49q111 0 139 -90v90h199v-557h92q33 0 45.5 11t12.5 44v592q0 35 -12.5 46t-45.5 11h-757q-33 0 -45.5 -11t-12.5 -46v-907q0 -33 12.5 -44.5t45.5 -11.5h667v-174h-729q-211 0 -211 203v962q0 203 211 203h877q209 0 209 -203v-634
q0 -201 -209 -201h-340v110q-18 -111 -148 -110h-49q-199 0 -199 192v332zM696 668v-287q0 -33 11.5 -43t44.5 -10h57q59 0 59 65v262q0 66 -59 66h-57q-33 0 -44.5 -10t-11.5 -43z" />
    <glyph glyph-name="A" unicode="A" horiz-adv-x="882" 
d="M328 446h219l-113 619zM629 0l-49 268h-283l-45 -268h-236l260 1292h318l272 -1292h-237z" />
    <glyph glyph-name="B" unicode="B" horiz-adv-x="901" 
d="M98 1292h492q223 0 223 -202v-279q0 -129 -86 -158q86 -29 86 -147v-303q0 -203 -223 -203h-492v1292zM580 227v285q0 33 -12.5 44t-47.5 11h-186v-395h186q35 0 47.5 11t12.5 44zM580 795v270q0 33 -12.5 44t-47.5 11h-186v-381h186q35 0 47.5 11.5t12.5 44.5z" />
    <glyph glyph-name="C" unicode="C" horiz-adv-x="841" 
d="M774 864h-237v201q0 33 -12.5 44t-45.5 11h-96q-33 0 -45 -11t-12 -44v-840q0 -33 12 -44t45 -11h96q33 0 45.5 11.5t12.5 43.5v197h237v-221q0 -203 -223 -203h-240q-223 0 -223 203v889q0 203 223 202h240q223 0 223 -202v-226z" />
    <glyph glyph-name="D" unicode="D" horiz-adv-x="913" 
d="M586 227v838q0 33 -12.5 44t-45.5 11h-184v-948h184q33 0 45.5 11t12.5 44zM109 1292h491q223 0 223 -202v-887q0 -203 -223 -203h-491v1292z" />
    <glyph glyph-name="E" unicode="E" horiz-adv-x="765" 
d="M336 180h393v-180h-631v1292h615v-180h-377v-358h317v-183h-317v-391z" />
    <glyph glyph-name="F" unicode="F" horiz-adv-x="743" 
d="M725 1112h-389v-393h317v-172h-317v-547h-238v1292h627v-180z" />
    <glyph glyph-name="G" unicode="G" horiz-adv-x="851" 
d="M774 895h-237v170q0 33 -12.5 44t-45.5 11h-96q-33 0 -45 -11t-12 -44v-840q0 -33 12 -44t45 -11h96q33 0 45.5 11.5t12.5 43.5v287h-103v166h340v-477q0 -203 -223 -203h-240q-223 0 -223 203v889q0 203 223 202h240q223 0 223 -202v-195z" />
    <glyph glyph-name="H" unicode="H" horiz-adv-x="933" 
d="M600 1292h236v-1292h-236v551h-266v-551h-236v1292h236v-561h266v561z" />
    <glyph glyph-name="I" unicode="I" horiz-adv-x="456" 
d="M111 1292h235v-1292h-235v1292z" />
    <glyph glyph-name="J" unicode="J" horiz-adv-x="757" 
d="M27 453h235v-217q0 -33 12.5 -44.5t47.5 -11.5h49q33 0 45 11.5t12 44.5v1056h238v-1089q0 -203 -224 -203h-192q-223 0 -223 203v250z" />
    <glyph glyph-name="K" unicode="K" horiz-adv-x="872" 
d="M98 0v1292h236v-1292h-236zM856 1292l-266 -643l264 -649h-254l-256 649l258 643h254z" />
    <glyph glyph-name="L" unicode="L" horiz-adv-x="684" 
d="M334 180h344v-180h-580v1292h236v-1112z" />
    <glyph glyph-name="M" unicode="M" horiz-adv-x="1148" 
d="M307 0h-209v1292h258l217 -768l218 768h258v-1292h-207v907l-172 -626h-191l-172 624v-905z" />
    <glyph glyph-name="N" unicode="N" horiz-adv-x="913" 
d="M598 1292h215v-1292h-221l-277 856v-856h-217v1292h228l272 -843v843z" />
    <glyph glyph-name="O" unicode="O" horiz-adv-x="878" 
d="M551 236v821q0 33 -12.5 44t-44.5 11h-109q-35 0 -47 -11t-12 -44v-821q0 -33 12 -44.5t47 -11.5h109q33 0 45 11.5t12 44.5zM313 1292h250q223 0 223 -202v-887q0 -203 -223 -203h-250q-223 0 -223 203v887q0 202 223 202z" />
    <glyph glyph-name="P" unicode="P" horiz-adv-x="849" 
d="M561 711v346q0 33 -12 44t-45 11h-170v-457h170q33 0 45 11.5t12 44.5zM98 1292h475q223 0 224 -202v-412q0 -203 -224 -203h-239v-475h-236v1292z" />
    <glyph glyph-name="Q" unicode="Q" horiz-adv-x="878" 
d="M326 1057v-821q0 -33 12 -44.5t47 -11.5h109q33 0 45 11.5t12 44.5v821q0 33 -12.5 44t-44.5 11h-109q-35 0 -47 -11t-12 -44zM313 0q-223 0 -223 203v887q0 203 223 202h250q223 0 223 -202v-887q0 -139 -102 -183l158 -192h-258l-138 172h-133z" />
    <glyph glyph-name="R" unicode="R" horiz-adv-x="880" 
d="M334 1112v-434h170q33 0 45 11t12 44v324q0 33 -12 44t-45 11h-170zM334 504v-504h-236v1292h475q223 0 224 -202v-383q0 -168 -150 -197l215 -510h-254l-196 504h-78z" />
    <glyph glyph-name="S" unicode="S" horiz-adv-x="817" 
d="M508 236v276q0 33 -12.5 44t-44.5 11h-166q-211 0 -211 205v318q0 203 221 202h225q221 0 221 -202v-181h-237v148q0 33 -12.5 44t-45.5 11h-77q-35 0 -47.5 -11t-12.5 -44v-260q0 -33 12.5 -44.5t47.5 -11.5h161q215 0 215 -200v-338q0 -203 -223 -203h-221
q-223 0 -223 203v178h235v-145q0 -33 12.5 -44.5t47.5 -11.5h78q33 0 45 11.5t12 44.5z" />
    <glyph glyph-name="T" unicode="T" horiz-adv-x="708" 
d="M698 1292v-180h-227v-1112h-235v1112h-226v180h688z" />
    <glyph glyph-name="U" unicode="U" horiz-adv-x="888" 
d="M557 1292h236v-1089q0 -203 -224 -203h-250q-223 0 -223 203v1089h236v-1056q0 -33 12 -44.5t45 -11.5h109q35 0 47 11.5t12 44.5v1056z" />
    <glyph glyph-name="V" unicode="V" horiz-adv-x="845" 
d="M592 1292h242l-256 -1292h-310l-256 1292h244l166 -1044z" />
    <glyph glyph-name="W" unicode="W" horiz-adv-x="1382" 
d="M1128 1292h234l-227 -1292h-299l-146 911l-143 -911h-299l-228 1292h244l133 -1048l170 1048h248l168 -1048z" />
    <glyph glyph-name="X" unicode="X" horiz-adv-x="851" 
d="M551 659l295 -659h-262l-162 453l-164 -453h-252l285 659l-271 633h265l137 -426l137 426h254z" />
    <glyph glyph-name="Y" unicode="Y" horiz-adv-x="833" 
d="M543 0h-236v410l-301 882h240l176 -663l166 663h239l-284 -876v-416z" />
    <glyph glyph-name="Z" unicode="Z" horiz-adv-x="731" 
d="M707 1292v-180l-441 -932h430v-180h-671v180l440 932h-418v180h660z" />
    <glyph glyph-name="bracketleft" unicode="[" horiz-adv-x="641" 
d="M545 1427h-199v-1581h199v-180h-436v1942h436v-181z" />
    <glyph glyph-name="backslash" unicode="\" horiz-adv-x="811" 
d="M33 1434h209l579 -1645h-209z" />
    <glyph glyph-name="bracketright" unicode="]" horiz-adv-x="641" 
d="M506 1608v-1942h-436v180h198v1581h-198v181h436z" />
    <glyph glyph-name="asciicircum" unicode="^" horiz-adv-x="1142" 
d="M399 1372h306l264 -745h-242l-176 538l-174 -538h-242z" />
    <glyph glyph-name="underscore" unicode="_" horiz-adv-x="970" 
d="M0 -258v172h971v-172h-971z" />
    <glyph glyph-name="grave" unicode="`" horiz-adv-x="909" 
d="M473 1352l176 -281h-192l-232 281h248z" />
    <glyph glyph-name="a" unicode="a" horiz-adv-x="806" 
d="M362 180h62q63 0 63 68v510q0 68 -63 67h-62q-33 0 -45 -11t-12 -44v-534q0 -33 12 -44.5t45 -11.5zM492 1006h229v-1006h-234v86q-31 -86 -141 -86h-63q-209 0 -209 203v600q0 203 209 203h63q121 0 146 -99v99z" />
    <glyph glyph-name="b" unicode="b" horiz-adv-x="806" 
d="M502 236v536q0 33 -12.5 44t-45.5 11h-61q-63 0 -64 -69v-510q0 -68 64 -68h61q33 0 45.5 11.5t12.5 44.5zM463 1008h61q211 0 211 -203v-602q0 -203 -211 -203h-61q-117 0 -146 92v-92h-229v1370h231v-448q31 86 144 86z" />
    <glyph glyph-name="c" unicode="c" horiz-adv-x="778" 
d="M721 668h-227v102q0 33 -12.5 44t-45.5 11h-74q-33 0 -45 -11t-12 -44v-534q0 -33 12.5 -44.5t44.5 -11.5h74q33 0 45.5 11.5t12.5 44.5v104h227v-137q0 -203 -223 -203h-201q-223 0 -223 203v600q0 203 223 203h201q223 0 223 -203v-135z" />
    <glyph glyph-name="d" unicode="d" horiz-adv-x="806" 
d="M362 180h62q63 0 63 68v510q0 39 -14 54t-49 15h-62q-33 0 -45 -11t-12 -44v-536q0 -33 12 -44.5t45 -11.5zM487 1370h234v-1370h-229v100q-25 -100 -146 -100h-63q-209 0 -209 203v602q0 203 209 203h63q111 0 141 -86v448z" />
    <glyph glyph-name="e" unicode="e" horiz-adv-x="802" 
d="M303 586h213v192q0 33 -12 44.5t-45 11.5h-99q-33 0 -45 -11.5t-12 -44.5v-192zM301 1006h217q221 0 221 -203v-367h-436v-207q0 -33 11.5 -44t45.5 -11h95q33 0 45 11.5t12 43.5v76h225v-102q0 -203 -223 -203h-213q-223 0 -223 203v600q0 203 223 203z" />
    <glyph glyph-name="f" unicode="f" horiz-adv-x="507" 
d="M498 1188h-92q-33 0 -45.5 -11.5t-12.5 -43.5v-127h150v-181h-150v-825h-231v825h-103v181h103v161q0 203 221 203h160v-182z" />
    <glyph glyph-name="g" unicode="g" horiz-adv-x="806" 
d="M362 207h62q35 0 49 15.5t14 53.5v482q0 68 -63 67h-62q-33 0 -45 -11t-12 -44v-508q0 -33 12 -44t45 -11zM492 1006h229v-1082q0 -203 -223 -203h-387v177h319q33 0 45 11t12 44v160q-31 -86 -141 -86h-63q-209 0 -209 202v574q0 203 209 203h63q121 0 146 -99v99z" />
    <glyph glyph-name="h" unicode="h" horiz-adv-x="817" 
d="M463 1006h61q211 0 211 -203v-803h-233v770q0 33 -12.5 44t-45.5 11h-61q-63 0 -64 -67v-758h-231v1370h231v-450q31 86 144 86z" />
    <glyph glyph-name="i" unicode="i" horiz-adv-x="407" 
d="M319 0h-231v1006h231v-1006zM82 1169v203h244v-203h-244z" />
    <glyph glyph-name="j" unicode="j" horiz-adv-x="407" 
d="M88 -47v1053h231v-1082q0 -203 -223 -203h-112v177h45q35 0 47 11t12 44zM82 1169v203h244v-203h-244z" />
    <glyph glyph-name="k" unicode="k" horiz-adv-x="800" 
d="M88 0v1370h231v-1370h-231zM799 1006l-226 -484l226 -522h-244l-217 522l219 484h242z" />
    <glyph glyph-name="l" unicode="l" horiz-adv-x="407" 
d="M319 0h-231v1370h231v-1370z" />
    <glyph glyph-name="m" unicode="m" horiz-adv-x="1226" 
d="M877 1006h63q209 0 209 -203v-803h-231v770q0 33 -12.5 44t-45.5 11h-61q-63 0 -64 -67v-758h-233v770q0 33 -12.5 44t-45.5 11h-61q-63 0 -64 -67v-758h-231v1006h229v-93q29 92 146 93h61q152 0 193 -103q29 103 160 103z" />
    <glyph glyph-name="n" unicode="n" horiz-adv-x="817" 
d="M463 1006h61q211 0 211 -203v-803h-233v770q0 33 -12.5 44t-45.5 11h-61q-63 0 -64 -67v-758h-231v1006h229v-93q29 93 146 93z" />
    <glyph glyph-name="o" unicode="o" horiz-adv-x="823" 
d="M518 229v547q0 33 -12 44t-47 11h-94q-35 0 -47.5 -11t-12.5 -44v-547q0 -33 12.5 -44t47.5 -11h94q35 0 47 11t12 44zM297 1006h231q217 0 217 -203v-600q0 -203 -217 -203h-231q-219 0 -219 203v600q0 203 219 203z" />
    <glyph glyph-name="p" unicode="p" horiz-adv-x="806" 
d="M502 236v534q0 33 -12.5 44t-45.5 11h-61q-63 0 -64 -67v-510q0 -68 64 -68h61q33 0 45.5 11.5t12.5 44.5zM463 1006h61q211 0 211 -203v-600q0 -203 -211 -203h-61q-113 0 -144 86v-365h-231v1285h229v-93q29 93 146 93z" />
    <glyph glyph-name="q" unicode="q" horiz-adv-x="806" 
d="M362 180h62q63 0 63 68v510q0 68 -63 67h-62q-33 0 -45 -11t-12 -44v-534q0 -33 12 -44.5t45 -11.5zM492 1006h229v-1285h-234v365q-31 -86 -141 -86h-63q-209 0 -209 203v600q0 203 209 203h63q121 0 146 -99v99z" />
    <glyph glyph-name="r" unicode="r" horiz-adv-x="544" 
d="M498 1010h37v-201h-86q-129 0 -130 -147v-662h-231v1006h229v-129q16 59 63.5 96t117.5 37z" />
    <glyph glyph-name="s" unicode="s" horiz-adv-x="741" 
d="M453 221v141q0 33 -12.5 44.5t-47.5 11.5h-110q-219 0 -220 200v185q0 203 224 203h162q221 0 221 -203v-94h-224v75q0 33 -12 44.5t-45 11.5h-41q-35 0 -47 -11.5t-12 -44.5v-147q0 -33 12 -44t47 -11h111q221 0 221 -201v-178q0 -203 -223 -203h-166q-223 0 -223 203
v92h227v-74q0 -33 12 -44t45 -11h41q35 0 47.5 11t12.5 44z" />
    <glyph glyph-name="t" unicode="t" horiz-adv-x="499" 
d="M479 825h-137v-583q0 -33 12.5 -44.5t46.5 -11.5h76v-186h-143q-223 0 -223 203v622h-101v181h101v180h231v-180h137v-181z" />
    <glyph glyph-name="u" unicode="u" horiz-adv-x="817" 
d="M498 1006h233v-1006h-229v100q-25 -100 -146 -100h-63q-209 0 -209 203v803h231v-770q0 -33 12.5 -44.5t45.5 -11.5h61q63 0 64 68v758z" />
    <glyph glyph-name="v" unicode="v" horiz-adv-x="733" 
d="M238 1006l129 -789l129 789h231l-207 -1006h-307l-207 1006h232z" />
    <glyph glyph-name="w" unicode="w" horiz-adv-x="1193" 
d="M967 1006h217l-197 -1006h-272l-121 711l-121 -711h-272l-191 1006h217l117 -785l131 785h244l123 -783z" />
    <glyph glyph-name="x" unicode="x" horiz-adv-x="763" 
d="M506 516l252 -516h-240l-139 334l-133 -334h-236l242 514l-236 492h246l119 -314l115 314h237z" />
    <glyph glyph-name="y" unicode="y" horiz-adv-x="772" 
d="M258 -279h-137v179h104q90 0 111 71l16 66h-110l-230 969h240l143 -775l133 775h234l-225 -1067q-54 -218 -279 -218z" />
    <glyph glyph-name="z" unicode="z" horiz-adv-x="657" 
d="M631 174v-174h-604v174l352 657h-330v175h574v-175l-357 -657h365z" />
    <glyph glyph-name="braceleft" unicode="{" horiz-adv-x="604" 
d="M444 1380v-489q0 -225 -155 -252q156 -16 155 -238v-503q0 -57 62 -58h82v-172h-166q-213 0 -213 211v469q0 106 -38 156.5t-122 50.5h-29v170h29q84 0 122 49t38 158v467q0 209 213 209h166v-170h-82q-62 -1 -62 -58z" />
    <glyph glyph-name="bar" unicode="|" horiz-adv-x="444" 
d="M109 1575h219v-1862h-219v1862z" />
    <glyph glyph-name="braceright" unicode="}" horiz-adv-x="604" 
d="M158 891v489q0 57 -62 58h-80v170h166q211 0 211 -209v-467q0 -109 38 -158t124 -49h29v-170h-29q-86 0 -124 -50t-38 -157v-469q0 -211 -211 -211h-166v172h80q61 0 62 58v503q0 106 41 168t116 70q-157 27 -157 252z" />
    <glyph glyph-name="asciitilde" unicode="~" horiz-adv-x="1189" 
d="M762 432q-74 0 -133.5 41t-109.5 82t-93 41t-55.5 -16.5t-12.5 -53.5v-94h-213v146q0 90 45.5 134t143.5 44h94q74 0 133.5 -41t110.5 -82t93 -41t53 15.5t11 54.5v92h213v-146q0 -88 -45 -132t-145 -44h-90z" />
    <glyph glyph-name="uni00A0" unicode="&#xa0;" horiz-adv-x="329" 
 />
    <glyph glyph-name="exclamdown" unicode="&#xa1;" horiz-adv-x="479" 
d="M115 729v277h247v-277h-247zM377 -287h-275l41 858h193z" />
    <glyph glyph-name="cent" unicode="&#xa2;" horiz-adv-x="778" 
d="M721 668h-227v102q0 33 -12.5 44t-45.5 11h-74q-33 0 -45 -11t-12 -44v-534q0 -33 12.5 -44.5t44.5 -11.5h74q33 0 45.5 11.5t12.5 44.5v104h227v-137q0 -195 -207 -203v-158h-223v158q-217 2 -217 203v600q0 201 217 203v159h223v-159q207 -8 207 -203v-135z" />
    <glyph glyph-name="sterling" unicode="&#xa3;" horiz-adv-x="862" 
d="M821 180v-180h-764v172q57 4 77 46t20 140v174h-97v173h97v385q0 203 223 202h213q223 0 223 -202v-189h-235v156q0 33 -12.5 44t-47.5 11h-69q-33 0 -45.5 -11t-12.5 -44v-352h279v-173h-279v-192q0 -123 -55 -160h485z" />
    <glyph glyph-name="currency" unicode="&#xa4;" horiz-adv-x="1056" 
d="M489 373h84q59 0 83 19.5t24 84.5v271q0 66 -23.5 85t-83.5 19h-84q-59 0 -81.5 -19.5t-22.5 -84.5v-271q0 -66 22.5 -85t81.5 -19zM881 760v-295q0 -74 -19 -127l86 -86l-143 -146l-107 107q-35 -6 -73 -6h-185q-51 0 -84 8l-108 -109l-146 146l99 98q-14 45 -15 115
v295q0 78 21 131l-105 104l146 144l127 -125q41 4 65 4h185q39 0 55 -2l125 123l143 -144l-92 -92q25 -57 25 -143z" />
    <glyph glyph-name="yen" unicode="&#xa5;" horiz-adv-x="870" 
d="M819 723v-162h-211l-37 -106h248v-160h-262v-295h-235v295h-265v160h250l-35 106h-215v162h160l-194 569h237l178 -643l172 643h240l-188 -569h157z" />
    <glyph glyph-name="brokenbar" unicode="&#xa6;" horiz-adv-x="444" 
d="M98 520h238v-717h-238v717zM336 770h-238v715h238v-715z" />
    <glyph glyph-name="section" unicode="&#xa7;" horiz-adv-x="929" 
d="M530 778h-131q-33 0 -45 -11t-12 -44v-180q0 -33 11.5 -44.5t45.5 -11.5h131q35 0 46.5 11.5t11.5 44.5v180q0 33 -12.5 44t-45.5 11zM817 1081h-231v66q0 33 -12.5 44t-45.5 11h-71q-35 0 -47.5 -11t-12.5 -44v-143q0 -33 12.5 -44.5t47.5 -11.5h131q223 0 223 -203
v-157q0 -139 -72 -187q27 -45 27 -116v-187q0 -203 -223 -202h-207q-223 0 -223 202v86h231v-67q0 -33 12.5 -44.5t46.5 -11.5h72q33 0 45 11.5t12 44.5v143q0 33 -12 44t-45 11h-133q-223 0 -223 203v146q0 143 80 190q-33 47 -33 125v188q0 201 223 201h205
q223 0 223 -201v-86z" />
    <glyph glyph-name="dieresis" unicode="&#xa8;" horiz-adv-x="909" 
d="M127 1108v215h238v-215h-238zM545 1108v215h237v-215h-237z" />
    <glyph glyph-name="copyright" unicode="&#xa9;" horiz-adv-x="1478" 
d="M1415 696v-110q0 -295 -108.5 -440.5t-360.5 -145.5h-393q-254 0 -361.5 145.5t-107.5 440.5v110q0 295 108.5 445.5t360.5 150.5h393q252 0 360.5 -150.5t108.5 -445.5zM584 158h331q166 0 236 98t70 311v148q0 215 -71 318.5t-235 103.5h-331q-164 0 -236 -103.5
t-72 -318.5v-148q0 -213 71 -311t237 -98zM838 510v57h184v-88q0 -168 -180 -168h-183q-182 0 -182 168v350q0 166 182 166h183q180 0 180 -166v-88h-184v58q0 29 -10.5 39t-41.5 10h-73q-31 0 -41 -10.5t-10 -38.5v-289q0 -29 10 -39t41 -10h73q31 0 41.5 10t10.5 39z" />
    <glyph glyph-name="ordfeminine" unicode="&#xaa;" horiz-adv-x="573" 
d="M242 709h75q45 0 45 49v362q0 47 -45 47h-75q-23 0 -32 -8t-9 -31v-380q0 -23 9 -31t32 -8zM365 1292h147v-710h-150v55q-18 -55 -92 -55h-69q-150 0 -150 143v424q0 143 150 143h65q80 0 99 -63v63z" />
    <glyph glyph-name="guillemotleft" unicode="&#xab;" horiz-adv-x="1009" 
d="M301 209l-238 315l238 316h231l-239 -316l239 -315h-231zM721 209l-238 315l238 316h231l-237 -316l237 -315h-231z" />
    <glyph glyph-name="logicalnot" unicode="&#xac;" horiz-adv-x="1005" 
d="M907 829v-534h-172v299h-655v235h827z" />
    <glyph glyph-name="uni00AD" unicode="&#xad;" horiz-adv-x="661" 
d="M82 522v170h498v-170h-498z" />
    <glyph glyph-name="registered" unicode="&#xae;" horiz-adv-x="886" 
d="M819 1108v-61q0 -166 -61.5 -248t-204.5 -82h-221q-143 0 -203.5 82t-60.5 248v61q0 166 60 251t204 85h221q143 0 204.5 -85t61.5 -251zM350 809h187q94 0 133 53t39 172v84q0 121 -40 177.5t-132 56.5h-187q-92 0 -132 -57.5t-40 -176.5v-84q0 -119 40 -172t132 -53z
M326 1290h161q78 0 78 -71v-113q0 -57 -49 -70l72 -162h-92l-66 158h-16v-158h-88v416zM479 1116v94q0 14 -14 15h-51v-123h51q14 0 14 14z" />
    <glyph glyph-name="macron" unicode="&#xaf;" horiz-adv-x="909" 
d="M143 1130v162h621v-162h-621z" />
    <glyph glyph-name="degree" unicode="&#xb0;" horiz-adv-x="843" 
d="M735 1092v-213q0 -201 -217 -201h-199q-217 0 -217 201v213q0 201 217 200h199q217 1 217 -200zM520 891v188q0 31 -12 42.5t-47 11.5h-84q-35 0 -47.5 -11.5t-12.5 -42.5v-188q0 -31 12.5 -42t47.5 -11h84q35 0 47 11t12 42z" />
    <glyph glyph-name="plusminus" unicode="&#xb1;" horiz-adv-x="927" 
d="M57 330v182h813v-182h-813zM578 913h292v-178h-292v-160h-228v160h-293v178h293v158h228v-158z" />
    <glyph glyph-name="twosuperior" unicode="&#xb2;" horiz-adv-x="464" 
d="M178 1151v-102h-149v133q0 111 121 110h151q123 0 123 -110v-74q0 -109 -59 -182l-156 -228h217v-116h-397v108l207 281q37 47 36 133v47q0 31 -30 31h-33q-31 0 -31 -31z" />
    <glyph glyph-name="threesuperior" unicode="&#xb3;" horiz-adv-x="479" 
d="M180 1151v-84h-149v115q0 111 123 110h153q123 0 123 -110v-156q0 -72 -47 -86q47 -16 47 -82v-166q0 -111 -123 -110h-153q-123 0 -123 110v115h149v-84q0 -31 33 -31h37q18 0 24.5 6.5t6.5 24.5v131q0 18 -6.5 24.5t-24.5 6.5h-68v106h68q31 0 31 31v129q0 31 -31 31
h-37q-33 0 -33 -31z" />
    <glyph glyph-name="acute" unicode="&#xb4;" horiz-adv-x="909" 
d="M240 1071l176 281h248l-232 -281h-192z" />
    <glyph glyph-name="uni00B5" unicode="&#xb5;" horiz-adv-x="829" 
d="M498 1006h231v-1006h-229v100q-25 -100 -146 -100h-41v-279h-231v1285h231v-770q0 -33 12.5 -44.5t47.5 -11.5h61q63 0 64 68v758z" />
    <glyph glyph-name="paragraph" unicode="&#xb6;" horiz-adv-x="1075" 
d="M614 1292v-1571h-200v732h-103q-223 0 -223 202v435q0 203 223 202h303zM756 1292h198v-1571h-198v1571z" />
    <glyph glyph-name="periodcentered" unicode="&#xb7;" horiz-adv-x="477" 
d="M78 530v267h250v-267h-250z" />
    <glyph glyph-name="cedilla" unicode="&#xb8;" horiz-adv-x="909" 
d="M418 -195v95h219v-113q0 -213 -236 -213h-137v170h90q64 0 64 61z" />
    <glyph glyph-name="onesuperior" unicode="&#xb9;" horiz-adv-x="339" 
d="M262 1292v-710h-153v600h-86v110h239z" />
    <glyph glyph-name="ordmasculine" unicode="&#xba;" horiz-adv-x="557" 
d="M356 731v412q0 23 -9 31t-34 8h-69q-25 0 -33 -8.5t-8 -30.5v-412q0 -23 8 -31t33 -8h69q25 0 34 8t9 31zM207 1292h143q156 0 156 -143v-424q0 -143 -156 -143h-143q-154 0 -154 143v424q0 143 154 143z" />
    <glyph glyph-name="guillemotright" unicode="&#xbb;" horiz-adv-x="1009" 
d="M532 524l-237 -315h-232l238 315l-238 316h232zM952 524l-237 -315h-232l238 315l-238 316h232z" />
    <glyph glyph-name="questiondown" unicode="&#xbf;" horiz-adv-x="776" 
d="M516 1006v-277h-250v277h250zM469 86h238v-172q0 -201 -224 -201h-219q-223 0 -223 201v324q0 201 223 200h17l10 133h196l21 -282h-176q-31 0 -42 -12.5t-11 -45.5v-290q0 -33 11 -45.5t42 -12.5h82q33 0 44 12.5t11 45.5v145z" />
    <glyph glyph-name="Agrave" unicode="&#xc0;" horiz-adv-x="882" 
d="M518 1358h-192l-232 280h248zM328 446h219l-113 619zM629 0l-49 268h-283l-45 -268h-236l260 1292h318l272 -1292h-237z" />
    <glyph glyph-name="Aacute" unicode="&#xc1;" horiz-adv-x="882" 
d="M766 1638l-231 -280h-193l176 280h248zM328 446h219l-113 619zM629 0l-49 268h-283l-45 -268h-236l260 1292h318l272 -1292h-237z" />
    <glyph glyph-name="Acircumflex" unicode="&#xc2;" horiz-adv-x="882" 
d="M434 1516l-106 -158h-230l217 280h240l217 -280h-229zM328 446h219l-113 619zM629 0l-49 268h-283l-45 -268h-236l260 1292h318l272 -1292h-237z" />
    <glyph glyph-name="Atilde" unicode="&#xc3;" horiz-adv-x="882" 
d="M295 1399v-41h-193v65q0 86 39 130t133 44h25q57 0 128 -44t87 -44q37 0 37 47v41h192v-71q0 -84 -38.5 -126t-133.5 -42h-20q-57 0 -130 44t-89 44q-37 0 -37 -47zM328 446h219l-113 619zM629 0l-49 268h-283l-45 -268h-236l260 1292h318l272 -1292h-237z" />
    <glyph glyph-name="Adieresis" unicode="&#xc4;" horiz-adv-x="882" 
d="M762 1571v-215h-238v215h238zM344 1571v-215h-238v215h238zM328 446h219l-113 619zM629 0l-49 268h-283l-45 -268h-236l260 1292h318l272 -1292h-237z" />
    <glyph glyph-name="Aring" unicode="&#xc5;" horiz-adv-x="882" 
d="M350 1536v-18q0 -29 10.5 -38.5t40.5 -9.5h70q31 0 41 9.5t10 38.5v18q0 29 -10 39t-41 10h-70q-31 0 -41 -10t-10 -39zM510 1356h-148q-166 0 -165 153v35q0 156 165 156h148q166 0 166 -156v-35q0 -153 -166 -153zM328 446h219l-113 619zM629 0l-49 268h-283l-45 -268
h-236l260 1292h318l272 -1292h-237z" />
    <glyph glyph-name="AE" unicode="&#xc6;" horiz-adv-x="1298" 
d="M635 461v600l-217 -600h217zM862 180h395v-180h-622v285h-283l-102 -285h-234l490 1292h735v-180h-379v-358h318v-183h-318v-391z" />
    <glyph glyph-name="Ccedilla" unicode="&#xc7;" horiz-adv-x="841" 
d="M324 -195v95h219v-113q0 -213 -236 -213h-137v170h90q64 0 64 61zM774 864h-237v201q0 33 -12.5 44t-45.5 11h-96q-33 0 -45 -11t-12 -44v-840q0 -33 12 -44t45 -11h96q33 0 45.5 11.5t12.5 43.5v197h237v-221q0 -203 -223 -203h-240q-223 0 -223 203v889q0 203 223 202
h240q223 0 223 -202v-226z" />
    <glyph glyph-name="Egrave" unicode="&#xc8;" horiz-adv-x="765" 
d="M504 1358h-193l-231 280h248zM336 180h393v-180h-631v1292h615v-180h-377v-358h317v-183h-317v-391z" />
    <glyph glyph-name="Eacute" unicode="&#xc9;" horiz-adv-x="765" 
d="M729 1638l-231 -280h-193l176 280h248zM336 571v-391h393v-180h-631v1292h615v-180h-377v-358h317v-183h-317z" />
    <glyph glyph-name="Ecircumflex" unicode="&#xca;" horiz-adv-x="765" 
d="M410 1516l-107 -158h-229l217 280h239l218 -280h-230zM336 571v-391h393v-180h-631v1292h615v-180h-377v-358h317v-183h-317z" />
    <glyph glyph-name="Edieresis" unicode="&#xcb;" horiz-adv-x="811" 
d="M315 1571v-215h-237v215h237zM336 571v-391h393v-180h-631v1292h615v-180h-377v-358h317v-183h-317zM496 1571h237v-215h-237v215z" />
    <glyph glyph-name="Igrave" unicode="&#xcc;" horiz-adv-x="456" 
d="M111 1292h235v-1292h-235v1292zM147 1638l177 -280h-193l-231 280h247z" />
    <glyph glyph-name="Iacute" unicode="&#xcd;" horiz-adv-x="456" 
d="M111 1292h235v-1292h-235v1292zM133 1358l176 280h248l-231 -280h-193z" />
    <glyph glyph-name="Icircumflex" unicode="&#xce;" horiz-adv-x="456" 
d="M111 1292h235v-1292h-235v1292zM-109 1358l218 280h239l217 -280h-229l-109 158l-106 -158h-230z" />
    <glyph glyph-name="Idieresis" unicode="&#xcf;" horiz-adv-x="456" 
d="M-100 1356v215h237v-215h-237zM317 1356v215h238v-215h-238zM111 1292h235v-1292h-235v1292z" />
    <glyph glyph-name="Eth" unicode="&#xd0;" horiz-adv-x="911" 
d="M586 227v838q0 33 -12.5 44t-45.5 11h-184v-383h141v-170h-141v-395h184q33 0 45.5 11t12.5 44zM109 1292h491q223 0 223 -202v-887q0 -203 -223 -203h-491v567h-107v170h107v555z" />
    <glyph glyph-name="Ntilde" unicode="&#xd1;" horiz-adv-x="913" 
d="M598 1292h215v-1292h-221l-277 856v-856h-217v1292h228l272 -843v843zM586 1358q-57 0 -130 44t-89 44q-37 0 -37 -47v-41h-193v65q0 86 39 130t133 44h25q57 0 127.5 -44t87.5 -44q37 0 37 47v41h192v-71q0 -84 -39 -126t-133 -42h-20z" />
    <glyph glyph-name="Ograve" unicode="&#xd2;" horiz-adv-x="878" 
d="M520 1358h-192l-232 280h248zM551 236v821q0 33 -12.5 44t-44.5 11h-109q-35 0 -47 -11t-12 -44v-821q0 -33 12 -44.5t47 -11.5h109q33 0 45 11.5t12 44.5zM313 1292h250q223 0 223 -202v-887q0 -203 -223 -203h-250q-223 0 -223 203v887q0 202 223 202z" />
    <glyph glyph-name="Oacute" unicode="&#xd3;" horiz-adv-x="878" 
d="M760 1638l-232 -280h-192l176 280h248zM551 236v821q0 33 -12.5 44t-44.5 11h-109q-35 0 -47 -11t-12 -44v-821q0 -33 12 -44.5t47 -11.5h109q33 0 45 11.5t12 44.5zM313 1292h250q223 0 223 -202v-887q0 -203 -223 -203h-250q-223 0 -223 203v887q0 202 223 202z" />
    <glyph glyph-name="Ocircumflex" unicode="&#xd4;" horiz-adv-x="878" 
d="M434 1516l-106 -158h-230l217 280h240l217 -280h-229zM551 236v821q0 33 -12.5 44t-44.5 11h-109q-35 0 -47 -11t-12 -44v-821q0 -33 12 -44.5t47 -11.5h109q33 0 45 11.5t12 44.5zM313 1292h250q223 0 223 -202v-887q0 -203 -223 -203h-250q-223 0 -223 203v887
q0 202 223 202z" />
    <glyph glyph-name="Otilde" unicode="&#xd5;" horiz-adv-x="878" 
d="M307 1399v-41h-192v65q0 86 39 130t133 44h24q57 0 128 -44t87 -44q37 0 37 47v41h193v-71q0 -84 -39 -126t-133 -42h-21q-57 0 -130 44t-89 44q-37 0 -37 -47zM551 236v821q0 33 -12.5 44t-44.5 11h-109q-35 0 -47 -11t-12 -44v-821q0 -33 12 -44.5t47 -11.5h109
q33 0 45 11.5t12 44.5zM313 1292h250q223 0 223 -202v-887q0 -203 -223 -203h-250q-223 0 -223 203v887q0 202 223 202z" />
    <glyph glyph-name="Odieresis" unicode="&#xd6;" horiz-adv-x="864" 
d="M766 1571v-215h-238v215h238zM348 1571v-215h-237v215h237zM551 236v821q0 33 -12.5 44t-44.5 11h-109q-35 0 -47 -11t-12 -44v-821q0 -33 12 -44.5t47 -11.5h109q33 0 45 11.5t12 44.5zM313 1292h250q223 0 223 -202v-887q0 -203 -223 -203h-250q-223 0 -223 203v887
q0 202 223 202z" />
    <glyph glyph-name="multiply" unicode="&#xd7;" horiz-adv-x="835" 
d="M788 868l-231 -231l231 -231l-139 -140l-231 232l-232 -232l-139 140l232 231l-232 231l139 140l232 -232l231 232z" />
    <glyph glyph-name="Oslash" unicode="&#xd8;" horiz-adv-x="888" 
d="M567 223v561l-245 -569q2 -27 14 -37t45 -10h127q35 0 47 11t12 44zM322 1069v-573l245 571v2q0 33 -12 44t-47 11h-127q-35 0 -47 -11t-12 -44zM793 1090v-887q0 -203 -224 -203h-250q-45 0 -86 10l-22 -51h-121l47 107q-41 49 -41 137v887q0 203 223 202h250
q49 0 90 -10l23 51h123l-49 -112q37 -49 37 -131z" />
    <glyph glyph-name="Ugrave" unicode="&#xd9;" horiz-adv-x="888" 
d="M539 1358h-193l-231 280h247zM557 1292h236v-1089q0 -203 -224 -203h-250q-223 0 -223 203v1089h236v-1056q0 -33 12 -44.5t45 -11.5h109q35 0 47 11.5t12 44.5v1056z" />
    <glyph glyph-name="Uacute" unicode="&#xda;" horiz-adv-x="888" 
d="M764 1638l-232 -280h-192l176 280h248zM557 1292h236v-1089q0 -203 -224 -203h-250q-223 0 -223 203v1089h236v-1056q0 -33 12 -44.5t45 -11.5h109q35 0 47 11.5t12 44.5v1056z" />
    <glyph glyph-name="Ucircumflex" unicode="&#xdb;" horiz-adv-x="888" 
d="M442 1516l-106 -158h-230l218 280h239l217 -280h-229zM557 1292h236v-1089q0 -203 -224 -203h-250q-223 0 -223 203v1089h236v-1056q0 -33 12 -44.5t45 -11.5h109q35 0 47 11.5t12 44.5v1056z" />
    <glyph glyph-name="Udieresis" unicode="&#xdc;" horiz-adv-x="888" 
d="M770 1571v-215h-238v215h238zM352 1571v-215h-237v215h237zM557 1292h236v-1089q0 -203 -224 -203h-250q-223 0 -223 203v1089h236v-1056q0 -33 12 -44.5t45 -11.5h109q35 0 47 11.5t12 44.5v1056z" />
    <glyph glyph-name="Yacute" unicode="&#xdd;" horiz-adv-x="833" 
d="M741 1638l-231 -280h-193l177 280h247zM543 0h-236v410l-301 882h240l176 -663l166 663h239l-284 -876v-416z" />
    <glyph glyph-name="Thorn" unicode="&#xde;" horiz-adv-x="876" 
d="M557 477v336q0 33 -12.5 44t-44.5 11h-160v-446h160q33 0 45 11t12 44zM340 1044h229q223 0 224 -202v-393q0 -201 -224 -201h-229v-248h-236v1292h236v-248z" />
    <glyph glyph-name="germandbls" unicode="&#xdf;" horiz-adv-x="1095" 
d="M446 317h232v-92q0 -33 10 -43t43 -12h27q33 0 45 11.5t12 43.5v142q0 33 -12 44t-45 11h-94q-115 0 -165 51t-50 152v94q0 193 210 192q41 0 53.5 9.5t12.5 37.5v56q0 33 -11.5 45t-43.5 12h-283q-33 0 -46 -12t-13 -45v-1014h-236v1053q0 98 50.5 149t164.5 51h445
q215 0 215 -194v-135q0 -88 -43 -128t-150 -40h-41q-35 0 -47 -11.5t-12 -44.5v-57q0 -33 12 -44t47 -11h90q221 0 221 -203v-182q0 -100 -49 -151.5t-164 -51.5h-167q-217 2 -218 203v114z" />
    <glyph glyph-name="agrave" unicode="&#xe0;" horiz-adv-x="806" 
d="M555 1071h-193l-231 281h248zM362 180h62q63 0 63 68v510q0 68 -63 67h-62q-33 0 -45 -11t-12 -44v-534q0 -33 12 -44.5t45 -11.5zM492 1006h229v-1006h-234v86q-31 -86 -141 -86h-63q-209 0 -209 203v600q0 203 209 203h63q121 0 146 -99v99z" />
    <glyph glyph-name="aacute" unicode="&#xe1;" horiz-adv-x="806" 
d="M741 1352l-231 -281h-193l177 281h247zM362 180h62q63 0 63 68v510q0 68 -63 67h-62q-33 0 -45 -11t-12 -44v-534q0 -33 12 -44.5t45 -11.5zM492 1006h229v-1006h-234v86q-31 -86 -141 -86h-63q-209 0 -209 203v600q0 203 209 203h63q121 0 146 -99v99z" />
    <glyph glyph-name="acircumflex" unicode="&#xe2;" horiz-adv-x="806" 
d="M408 1229l-107 -158h-229l217 281h239l217 -281h-229zM362 180h62q63 0 63 68v510q0 68 -63 67h-62q-33 0 -45 -11t-12 -44v-534q0 -33 12 -44.5t45 -11.5zM492 1006h229v-1006h-234v86q-31 -86 -141 -86h-63q-209 0 -209 203v600q0 203 209 203h63q121 0 146 -99v99z
" />
    <glyph glyph-name="atilde" unicode="&#xe3;" horiz-adv-x="806" 
d="M268 1133v-41h-192v65q0 86 39 130t133 44h24q57 0 128 -44t87 -44q37 0 37 47v41h193v-71q0 -84 -39 -126t-133 -42h-21q-57 0 -129.5 44t-89.5 44q-37 0 -37 -47zM362 180h62q63 0 63 68v510q0 68 -63 67h-62q-33 0 -45 -11t-12 -44v-534q0 -33 12 -44.5t45 -11.5z
M492 1006h229v-1006h-234v86q-31 -86 -141 -86h-63q-209 0 -209 203v600q0 203 209 203h63q121 0 146 -99v99z" />
    <glyph glyph-name="adieresis" unicode="&#xe4;" horiz-adv-x="806" 
d="M319 1323v-215h-237v215h237zM362 180h62q63 0 63 68v510q0 68 -63 67h-62q-33 0 -45 -11t-12 -44v-534q0 -33 12 -44.5t45 -11.5zM492 1006h229v-1006h-234v86q-31 -86 -141 -86h-63q-209 0 -209 203v600q0 203 209 203h63q121 0 146 -99v99zM500 1323h237v-215h-237
v215z" />
    <glyph glyph-name="aring" unicode="&#xe5;" horiz-adv-x="806" 
d="M324 1264v-19q0 -29 10 -38t41 -9h69q31 0 41.5 9.5t10.5 37.5v19q0 29 -10.5 39t-41.5 10h-69q-31 0 -41 -10t-10 -39zM483 1083h-147q-166 0 -166 154v35q0 156 166 155h147q166 0 166 -155v-35q0 -154 -166 -154zM362 180h62q63 0 63 68v510q0 68 -63 67h-62
q-33 0 -45 -11t-12 -44v-534q0 -33 12 -44.5t45 -11.5zM492 1006h229v-1006h-234v86q-31 -86 -141 -86h-63q-209 0 -209 203v600q0 203 209 203h63q121 0 146 -99v99z" />
    <glyph glyph-name="ae" unicode="&#xe6;" horiz-adv-x="1247" 
d="M373 180h61q61 0 64 62v180l-183 -74v-112q0 -33 12.5 -44.5t45.5 -11.5zM874 829h-90q-35 0 -47 -11t-12 -44v-184h207v184q0 33 -12.5 44t-45.5 11zM1145 432h-420v-201q0 -33 12.5 -44t46.5 -11h86q33 0 45.5 11.5t12.5 43.5v74h229v-102q0 -203 -223 -203h-150
q-137 0 -180 94q-16 -41 -62 -67.5t-106 -26.5h-143q-209 0 -209 203v215l414 170v176q-2 61 -64 61h-61q-33 0 -45.5 -11t-12.5 -44v-133h-231v166q0 203 209 203h143q59 0 105.5 -27t62.5 -68q43 94 182 95h150q223 0 223 -203v-350h-14v-21z" />
    <glyph glyph-name="ccedilla" unicode="&#xe7;" horiz-adv-x="778" 
d="M297 -195v95h219v-113q0 -213 -235 -213h-138v170h90q64 0 64 61zM721 668h-227v102q0 33 -12.5 44t-45.5 11h-74q-33 0 -45 -11t-12 -44v-534q0 -33 12.5 -44.5t44.5 -11.5h74q33 0 45.5 11.5t12.5 44.5v104h227v-137q0 -203 -223 -203h-201q-223 0 -223 203v600
q0 203 223 203h201q223 0 223 -203v-135z" />
    <glyph glyph-name="egrave" unicode="&#xe8;" horiz-adv-x="802" 
d="M489 1071h-192l-231 281h247zM303 586h213v192q0 33 -12 44.5t-45 11.5h-99q-33 0 -45 -11.5t-12 -44.5v-192zM301 1006h217q221 0 221 -203v-367h-436v-207q0 -33 11.5 -44t45.5 -11h95q33 0 45 11.5t12 43.5v76h225v-102q0 -203 -223 -203h-213q-223 0 -223 203v600
q0 203 223 203z" />
    <glyph glyph-name="eacute" unicode="&#xe9;" horiz-adv-x="802" 
d="M735 1352l-231 -281h-193l176 281h248zM303 586h213v192q0 33 -12 44.5t-45 11.5h-99q-33 0 -45 -11.5t-12 -44.5v-192zM301 1006h217q221 0 221 -203v-367h-436v-207q0 -33 11.5 -44t45.5 -11h95q33 0 45 11.5t12 43.5v76h225v-102q0 -203 -223 -203h-213
q-223 0 -223 203v600q0 203 223 203z" />
    <glyph glyph-name="ecircumflex" unicode="&#xea;" horiz-adv-x="800" 
d="M412 1229l-107 -158h-229l217 281h239l218 -281h-230zM303 586h213v192q0 33 -12 44.5t-45 11.5h-99q-33 0 -45 -11.5t-12 -44.5v-192zM301 1006h217q221 0 221 -203v-367h-436v-207q0 -33 11.5 -44t45.5 -11h95q33 0 45 11.5t12 43.5v76h225v-102q0 -203 -223 -203h-213
q-223 0 -223 203v600q0 203 223 203z" />
    <glyph glyph-name="edieresis" unicode="&#xeb;" horiz-adv-x="800" 
d="M731 1323v-215h-237v215h237zM313 1323v-215h-237v215h237zM303 586h213v192q0 33 -12 44.5t-45 11.5h-99q-33 0 -45 -11.5t-12 -44.5v-192zM301 1006h217q221 0 221 -203v-367h-436v-207q0 -33 11.5 -44t45.5 -11h95q33 0 45 11.5t12 43.5v76h225v-102q0 -203 -223 -203
h-213q-223 0 -223 203v600q0 203 223 203z" />
    <glyph glyph-name="igrave" unicode="&#xec;" horiz-adv-x="407" 
d="M319 0h-231v1006h231v-1006zM125 1352l176 -281h-192l-232 281h248z" />
    <glyph glyph-name="iacute" unicode="&#xed;" horiz-adv-x="407" 
d="M319 0h-231v1006h231v-1006zM100 1071l176 281h248l-231 -281h-193z" />
    <glyph glyph-name="icircumflex" unicode="&#xee;" horiz-adv-x="407" 
d="M319 0h-231v1006h231v-1006zM-135 1071l217 281h240l217 -281h-230l-108 158l-107 -158h-229z" />
    <glyph glyph-name="idieresis" unicode="&#xef;" horiz-adv-x="407" 
d="M319 0h-231v1006h231v-1006zM-127 1108v215h238v-215h-238zM291 1108v215h237v-215h-237z" />
    <glyph glyph-name="eth" unicode="&#xf0;" horiz-adv-x="843" 
d="M522 236v385q0 23 -4 67h-156q-35 0 -46 -12t-11 -45v-395q0 -33 12.5 -44.5t44.5 -11.5h103q33 0 45 11.5t12 44.5zM752 631v-428q0 -203 -224 -203h-231q-223 0 -223 203v452q0 203 223 203h182q-31 86 -92 180l-205 -69v131l123 41q-72 82 -164 151h322q39 -35 72 -73
l182 61v-131l-107 -35q142 -219 142 -483z" />
    <glyph glyph-name="ntilde" unicode="&#xf1;" horiz-adv-x="817" 
d="M264 1133v-41h-192v65q0 86 39 130t133 44h24q57 0 128 -44t87 -44q37 0 37 47v41h193v-71q0 -84 -39 -126t-133 -42h-21q-57 0 -130 44t-89 44q-37 0 -37 -47zM463 1006h61q211 0 211 -203v-803h-233v770q0 33 -12.5 44t-45.5 11h-61q-63 0 -64 -67v-758h-231v1006h229
v-93q29 93 146 93z" />
    <glyph glyph-name="ograve" unicode="&#xf2;" horiz-adv-x="823" 
d="M500 1071h-193l-231 281h248zM518 229v547q0 33 -12 44t-47 11h-94q-35 0 -47.5 -11t-12.5 -44v-547q0 -33 12.5 -44t47.5 -11h94q35 0 47 11t12 44zM297 1006h231q217 0 217 -203v-600q0 -203 -217 -203h-231q-219 0 -219 203v600q0 203 219 203z" />
    <glyph glyph-name="oacute" unicode="&#xf3;" horiz-adv-x="823" 
d="M739 1352l-231 -281h-193l177 281h247zM518 229v547q0 33 -12 44t-47 11h-94q-35 0 -47.5 -11t-12.5 -44v-547q0 -33 12.5 -44t47.5 -11h94q35 0 47 11t12 44zM297 1006h231q217 0 217 -203v-600q0 -203 -217 -203h-231q-219 0 -219 203v600q0 203 219 203z" />
    <glyph glyph-name="ocircumflex" unicode="&#xf4;" horiz-adv-x="823" 
d="M408 1229l-107 -158h-229l217 281h239l217 -281h-229zM518 229v547q0 33 -12 44t-47 11h-94q-35 0 -47.5 -11t-12.5 -44v-547q0 -33 12.5 -44t47.5 -11h94q35 0 47 11t12 44zM297 1006h231q217 0 217 -203v-600q0 -203 -217 -203h-231q-219 0 -219 203v600q0 203 219 203
z" />
    <glyph glyph-name="otilde" unicode="&#xf5;" horiz-adv-x="823" 
d="M272 1133v-41h-192v65q0 86 39 130t133 44h24q57 0 128 -44t88 -44q37 0 36 47v41h193v-71q0 -84 -39 -126t-133 -42h-21q-57 0 -129.5 44t-89.5 44q-37 0 -37 -47zM518 229v547q0 33 -12 44t-47 11h-94q-35 0 -47.5 -11t-12.5 -44v-547q0 -33 12.5 -44t47.5 -11h94
q35 0 47 11t12 44zM297 1006h231q217 0 217 -203v-600q0 -203 -217 -203h-231q-219 0 -219 203v600q0 203 219 203z" />
    <glyph glyph-name="odieresis" unicode="&#xf6;" horiz-adv-x="823" 
d="M739 1323v-215h-237v215h237zM322 1323v-215h-238v215h238zM518 229v547q0 33 -12 44t-47 11h-94q-35 0 -47.5 -11t-12.5 -44v-547q0 -33 12.5 -44t47.5 -11h94q35 0 47 11t12 44zM297 1006h231q217 0 217 -203v-600q0 -203 -217 -203h-231q-219 0 -219 203v600
q0 203 219 203z" />
    <glyph glyph-name="divide" unicode="&#xf7;" horiz-adv-x="915" 
d="M51 553v182h813v-182h-813zM344 1047h227v-195h-227v195zM344 438h227v-196h-227v196z" />
    <glyph glyph-name="oslash" unicode="&#xf8;" horiz-adv-x="835" 
d="M530 219v383l-219 -422q10 -18 54 -18h106q35 0 47 12t12 45zM305 786v-383l219 422q-10 18 -53 19h-106q-35 0 -47.5 -11.5t-12.5 -46.5zM752 803v-600q0 -203 -220 -203h-231q-47 0 -80 8l-24 -49h-123l53 102q-43 45 -43 142v600q0 203 217 203h231q49 0 82 -9l25 50
h123l-53 -103q43 -49 43 -141z" />
    <glyph glyph-name="ugrave" unicode="&#xf9;" horiz-adv-x="817" 
d="M510 1071h-193l-231 281h248zM498 1006h233v-1006h-229v100q-25 -100 -146 -100h-63q-209 0 -209 203v803h231v-770q0 -33 12.5 -44.5t45.5 -11.5h61q63 0 64 68v758z" />
    <glyph glyph-name="uacute" unicode="&#xfa;" horiz-adv-x="817" 
d="M727 1352l-231 -281h-193l176 281h248zM498 1006h233v-1006h-229v100q-25 -100 -146 -100h-63q-209 0 -209 203v803h231v-770q0 -33 12.5 -44.5t45.5 -11.5h61q63 0 64 68v758z" />
    <glyph glyph-name="ucircumflex" unicode="&#xfb;" horiz-adv-x="813" 
d="M401 1229l-106 -158h-229l217 281h239l217 -281h-229zM498 1006h233v-1006h-229v100q-25 -100 -146 -100h-63q-209 0 -209 203v803h231v-770q0 -33 12.5 -44.5t45.5 -11.5h61q63 0 64 68v758z" />
    <glyph glyph-name="udieresis" unicode="&#xfc;" horiz-adv-x="827" 
d="M727 1323v-215h-238v215h238zM309 1323v-215h-237v215h237zM498 1006h233v-1006h-229v100q-25 -100 -146 -100h-63q-209 0 -209 203v803h231v-770q0 -33 12.5 -44.5t45.5 -11.5h61q63 0 64 68v758z" />
    <glyph glyph-name="yacute" unicode="&#xfd;" horiz-adv-x="772" 
d="M258 -279h-137v179h104q90 0 111 71l16 66h-110l-230 969h240l143 -775l133 775h234l-225 -1067q-54 -218 -279 -218zM297 1071l176 281h248l-232 -281h-192z" />
    <glyph glyph-name="thorn" unicode="&#xfe;" horiz-adv-x="817" 
d="M498 236v534q0 33 -12.5 44t-47.5 11h-59q-63 0 -64 -67v-510q0 -68 64 -68h59q35 0 47.5 11.5t12.5 44.5zM457 1006h61q211 0 211 -203v-600q0 -203 -211 -203h-61q-111 0 -142 86v-365h-233v1649h229v-463q25 99 146 99z" />
    <glyph glyph-name="ydieresis" unicode="&#xff;" horiz-adv-x="804" 
d="M59 1108v215h238v-215h-238zM477 1108v215h238v-215h-238zM258 -279h-137v179h104q90 0 111 71l16 66h-110l-230 969h240l143 -775l133 775h234l-225 -1067q-54 -218 -279 -218z" />
    <glyph glyph-name="Amacron" unicode="&#x100;" horiz-adv-x="882" 
d="M745 1518v-162h-620v162h620zM328 446h219l-113 619zM629 0l-49 268h-283l-45 -268h-236l260 1292h318l272 -1292h-237z" />
    <glyph glyph-name="amacron" unicode="&#x101;" horiz-adv-x="806" 
d="M709 1292v-162h-621v162h621zM362 180h62q63 0 63 68v510q0 68 -63 67h-62q-33 0 -45 -11t-12 -44v-534q0 -33 12 -44.5t45 -11.5zM492 1006h229v-1006h-234v86q-31 -86 -141 -86h-63q-209 0 -209 203v600q0 203 209 203h63q121 0 146 -99v99z" />
    <glyph glyph-name="Abreve" unicode="&#x102;" horiz-adv-x="882" 
d="M539 1358h-209q-221 0 -221 203v77h208v-75q0 -33 12.5 -44.5t47.5 -11.5h115q35 0 47 11.5t12 44.5v75h209v-77q0 -203 -221 -203zM328 446h219l-113 619zM629 0l-49 268h-283l-45 -268h-236l260 1292h318l272 -1292h-237z" />
    <glyph glyph-name="abreve" unicode="&#x103;" horiz-adv-x="806" 
d="M362 180h62q63 0 63 68v510q0 68 -63 67h-62q-33 0 -45 -11t-12 -44v-534q0 -33 12 -44.5t45 -11.5zM492 1006h229v-1006h-234v86q-31 -86 -141 -86h-63q-209 0 -209 203v600q0 203 209 203h63q121 0 146 -99v99zM537 1352h208v-78q0 -203 -221 -203h-209
q-221 0 -221 203v78h209v-76q0 -33 12.5 -44t46.5 -11h115q35 0 47.5 11t12.5 44v76z" />
    <glyph glyph-name="Aogonek" unicode="&#x104;" horiz-adv-x="882" 
d="M328 446h219l-113 619zM731 -340h172v-149h-209q-102 0 -148 46t-46 138v78q0 184 194 184h15v43h-80l-49 268h-283l-45 -268h-236l260 1292h318l266 -1267h6v-218h-135q-33 0 -44 -10t-11 -41v-47q0 -29 11 -39t44 -10z" />
    <glyph glyph-name="aogonek" unicode="&#x105;" horiz-adv-x="806" 
d="M362 180h62q63 0 63 68v510q0 68 -63 67h-62q-33 0 -45 -11t-12 -44v-534q0 -33 12 -44.5t45 -11.5zM586 -340h172v-149h-209q-102 0 -148.5 46t-46.5 138v78q0 184 195 184h14v43h-76v86q-31 -86 -141 -86h-63q-209 0 -209 203v600q0 203 209 203h63q121 0 146 -99v99
h229v-1199h-135q-33 0 -44.5 -10t-11.5 -41v-47q0 -29 11.5 -39t44.5 -10z" />
    <glyph glyph-name="Cacute" unicode="&#x106;" horiz-adv-x="841" 
d="M756 1638l-232 -280h-192l176 280h248zM774 864h-237v201q0 33 -12.5 44t-45.5 11h-96q-33 0 -45 -11t-12 -44v-840q0 -33 12 -44t45 -11h96q33 0 45.5 11.5t12.5 43.5v197h237v-221q0 -203 -223 -203h-240q-223 0 -223 203v889q0 203 223 202h240q223 0 223 -202v-226z
" />
    <glyph glyph-name="cacute" unicode="&#x107;" horiz-adv-x="778" 
d="M723 1352l-231 -281h-193l176 281h248zM297 1006h201q223 0 223 -203v-135h-227v102q0 33 -12.5 44t-45.5 11h-74q-33 0 -45 -11t-12 -44v-534q0 -33 12.5 -44.5t44.5 -11.5h74q33 0 45.5 11.5t12.5 44.5v104h227v-137q0 -203 -223 -203h-201q-223 0 -223 203v600
q0 203 223 203z" />
    <glyph glyph-name="Ccaron" unicode="&#x10c;" horiz-adv-x="841" 
d="M549 1358h-240l-217 280h230l106 -157l109 157h229zM774 864h-237v201q0 33 -12.5 44t-45.5 11h-96q-33 0 -45 -11t-12 -44v-840q0 -33 12 -44t45 -11h96q33 0 45.5 11.5t12.5 43.5v197h237v-221q0 -203 -223 -203h-240q-223 0 -223 203v889q0 203 223 202h240
q223 0 223 -202v-226z" />
    <glyph glyph-name="ccaron" unicode="&#x10d;" horiz-adv-x="778" 
d="M514 1071h-240l-217 281h230l106 -158l109 158h229zM297 1006h201q223 0 223 -203v-135h-227v102q0 33 -12.5 44t-45.5 11h-74q-33 0 -45 -11t-12 -44v-534q0 -33 12.5 -44.5t44.5 -11.5h74q33 0 45.5 11.5t12.5 44.5v104h227v-137q0 -203 -223 -203h-201
q-223 0 -223 203v600q0 203 223 203z" />
    <glyph glyph-name="Dcaron" unicode="&#x10e;" horiz-adv-x="913" 
d="M569 1358h-239l-217 280h229l107 -157l108 157h229zM586 227v838q0 33 -12.5 44t-45.5 11h-184v-948h184q33 0 45.5 11t12.5 44zM109 1292h491q223 0 223 -202v-887q0 -203 -223 -203h-491v1292z" />
    <glyph glyph-name="dcaron" unicode="&#x10f;" horiz-adv-x="874" 
d="M362 180h62q63 0 63 68v510q0 39 -14 54t-49 15h-62q-33 0 -45 -11t-12 -44v-536q0 -33 12 -44.5t45 -11.5zM487 1370h234v-1370h-229v100q-25 -100 -146 -100h-63q-209 0 -209 203v602q0 203 209 203h63q111 0 141 -86v448zM807 1370h176v-115l-109 -260h-67v375z" />
    <glyph glyph-name="Dcroat" unicode="&#x110;" horiz-adv-x="921" 
d="M586 236v821q0 33 -12.5 44t-45.5 11h-184v-375h141v-170h-141v-387h184q33 0 45.5 11.5t12.5 44.5zM109 1292h491q223 0 223 -202v-887q0 -203 -223 -203h-491v567h-107v170h107v555z" />
    <glyph glyph-name="dcroat" unicode="&#x111;" horiz-adv-x="817" 
d="M373 180h61q63 0 64 68v510q0 68 -64 67h-61q-33 0 -45.5 -11t-12.5 -44v-534q0 -33 12.5 -44.5t45.5 -11.5zM827 1251v-135h-96v-1116h-229v100q-25 -100 -146 -100h-63q-209 0 -209 203v600q0 203 209 203h63q111 0 142 -86v196h-152v135h152v119h233v-119h96z" />
    <glyph glyph-name="Emacron" unicode="&#x112;" horiz-adv-x="765" 
d="M713 1538v-162h-621v162h621zM336 180h393v-180h-631v1292h615v-180h-377v-358h317v-183h-317v-391z" />
    <glyph glyph-name="emacron" unicode="&#x113;" horiz-adv-x="802" 
d="M711 1292v-162h-621v162h621zM303 586h213v192q0 33 -12 44.5t-45 11.5h-99q-33 0 -45 -11.5t-12 -44.5v-192zM301 1006h217q221 0 221 -203v-367h-436v-207q0 -33 11.5 -44t45.5 -11h95q33 0 45 11.5t12 43.5v76h225v-102q0 -203 -223 -203h-213q-223 0 -223 203v600
q0 203 223 203z" />
    <glyph glyph-name="Edotaccent" unicode="&#x116;" horiz-adv-x="765" 
d="M547 1573v-215h-250v215h250zM336 180h393v-180h-631v1292h615v-180h-377v-358h317v-183h-317v-391z" />
    <glyph glyph-name="edotaccent" unicode="&#x117;" horiz-adv-x="802" 
d="M537 1319v-215h-250v215h250zM303 586h213v192q0 33 -12 44.5t-45 11.5h-99q-33 0 -45 -11.5t-12 -44.5v-192zM301 1006h217q221 0 221 -203v-367h-436v-207q0 -33 11.5 -44t45.5 -11h95q33 0 45 11.5t12 43.5v76h225v-102q0 -203 -223 -203h-213q-223 0 -223 203v600
q0 203 223 203z" />
    <glyph glyph-name="Eogonek" unicode="&#x118;" horiz-adv-x="765" 
d="M596 -340h172v-149h-209q-102 0 -148 46t-46 138v78q0 184 194 184h14v43h-475v1292h615v-180h-377v-358h317v-183h-317v-391h393v-155h2v-218h-135q-33 0 -44 -10t-11 -41v-47q0 -29 11 -39t44 -10z" />
    <glyph glyph-name="eogonek" unicode="&#x119;" horiz-adv-x="802" 
d="M303 586h213v192q0 33 -12 44.5t-45 11.5h-99q-33 0 -45 -11.5t-12 -44.5v-192zM301 1006h217q221 0 221 -203v-367h-436v-207q0 -33 11.5 -44t45.5 -11h95q33 0 45 11.5t12 43.5v76h225v-102q0 -203 -223 -203h-8v-193h-135q-33 0 -44.5 -10t-11.5 -41v-47
q0 -29 11.5 -39t44.5 -10h172v-149h-209q-102 0 -148.5 46t-46.5 138v78q0 184 195 184h14v43h-47q-223 0 -223 203v600q0 203 223 203z" />
    <glyph glyph-name="Ecaron" unicode="&#x11a;" horiz-adv-x="765" 
d="M528 1358h-239l-217 280h229l107 -157l108 157h229zM336 571v-391h393v-180h-631v1292h615v-180h-377v-358h317v-183h-317z" />
    <glyph glyph-name="ecaron" unicode="&#x11b;" horiz-adv-x="802" 
d="M528 1071h-239l-217 281h229l107 -158l108 158h229zM303 586h213v192q0 33 -12 44.5t-45 11.5h-99q-33 0 -45 -11.5t-12 -44.5v-192zM301 1006h217q221 0 221 -203v-367h-436v-207q0 -33 11.5 -44t45.5 -11h95q33 0 45 11.5t12 43.5v76h225v-102q0 -203 -223 -203h-213
q-223 0 -223 203v600q0 203 223 203z" />
    <glyph glyph-name="Gbreve" unicode="&#x11e;" horiz-adv-x="851" 
d="M537 1358h-209q-221 0 -222 203v77h209v-75q0 -33 12.5 -44.5t47.5 -11.5h114q35 0 47.5 11.5t12.5 44.5v75h209v-77q0 -203 -221 -203zM774 895h-237v170q0 33 -12.5 44t-45.5 11h-96q-33 0 -45 -11t-12 -44v-840q0 -33 12 -44t45 -11h96q33 0 45.5 11.5t12.5 43.5v287
h-103v166h340v-477q0 -203 -223 -203h-240q-223 0 -223 203v889q0 203 223 202h240q223 0 223 -202v-195z" />
    <glyph glyph-name="gbreve" unicode="&#x11f;" horiz-adv-x="806" 
d="M362 207h62q35 0 49 15.5t14 53.5v482q0 68 -63 67h-62q-33 0 -45 -11t-12 -44v-508q0 -33 12 -44t45 -11zM492 1006h229v-1082q0 -203 -223 -203h-387v177h319q33 0 45 11t12 44v160q-31 -86 -141 -86h-63q-209 0 -209 202v574q0 203 209 203h63q121 0 146 -99v99z
M520 1352h209v-78q0 -203 -221 -203h-209q-221 0 -221 203v78h209v-76q0 -33 12 -44t47 -11h115q35 0 47 11t12 44v76z" />
    <glyph glyph-name="uni0122" unicode="&#x122;" horiz-adv-x="851" 
d="M324 -512v412h241v-123l-164 -289h-77zM774 895h-237v170q0 33 -12.5 44t-45.5 11h-96q-33 0 -45 -11t-12 -44v-840q0 -33 12 -44t45 -11h96q33 0 45.5 11.5t12.5 43.5v287h-103v166h340v-477q0 -203 -223 -203h-240q-223 0 -223 203v889q0 203 223 202h240
q223 0 223 -202v-195z" />
    <glyph glyph-name="uni0123" unicode="&#x123;" horiz-adv-x="806" 
d="M543 1483v-412h-242v123l164 289h78zM362 207h62q35 0 49 15.5t14 53.5v482q0 68 -63 67h-62q-33 0 -45 -11t-12 -44v-508q0 -33 12 -44t45 -11zM492 1006h229v-1082q0 -203 -223 -203h-387v177h319q33 0 45 11t12 44v160q-31 -86 -141 -86h-63q-209 0 -209 202v574
q0 203 209 203h63q121 0 146 -99v99z" />
    <glyph glyph-name="Imacron" unicode="&#x12a;" horiz-adv-x="456" 
d="M111 1292h235v-1292h-235v1292zM-82 1376v162h621v-162h-621z" />
    <glyph glyph-name="imacron" unicode="&#x12b;" horiz-adv-x="407" 
d="M319 0h-231v1006h231v-1006zM-106 1130v162h620v-162h-620z" />
    <glyph glyph-name="Iogonek" unicode="&#x12e;" horiz-adv-x="456" 
d="M211 -340h172v-149h-209q-102 0 -148 46t-46 138v78q0 184 194 184h14v43h-77v1292h235v-1485h-135q-33 0 -44 -10t-11 -41v-47q0 -29 11 -39t44 -10z" />
    <glyph glyph-name="iogonek" unicode="&#x12f;" horiz-adv-x="407" 
d="M326 1372v-203h-244v203h244zM184 -340h172v-149h-209q-102 0 -148 46t-46 138v78q0 184 194 184h15v43h-74v1006h231v-1199h-135q-33 0 -44 -10t-11 -41v-47q0 -29 11 -39t44 -10z" />
    <glyph glyph-name="Idotaccent" unicode="&#x130;" horiz-adv-x="456" 
d="M111 1292h235v-1292h-235v1292zM102 1376v215h250v-215h-250z" />
    <glyph glyph-name="dotlessi" unicode="&#x131;" horiz-adv-x="407" 
d="M319 0h-231v1006h231v-1006z" />
    <glyph glyph-name="uni0136" unicode="&#x136;" horiz-adv-x="872" 
d="M334 1292v-1292h-236v1292h236zM317 -512v412h242v-123l-164 -289h-78zM856 1292l-266 -643l264 -649h-254l-256 649l258 643h254z" />
    <glyph glyph-name="uni0137" unicode="&#x137;" horiz-adv-x="800" 
d="M319 1370v-1370h-231v1370h231zM297 -512v412h242v-123l-164 -289h-78zM799 1006l-226 -484l226 -522h-244l-217 522l219 484h242z" />
    <glyph glyph-name="Lacute" unicode="&#x139;" horiz-adv-x="684" 
d="M547 1638l-232 -280h-192l176 280h248zM334 180h344v-180h-580v1292h236v-1112z" />
    <glyph glyph-name="lacute" unicode="&#x13a;" horiz-adv-x="407" 
d="M104 1436l177 280h247l-231 -280h-193zM319 0h-231v1370h231v-1370z" />
    <glyph glyph-name="uni013B" unicode="&#x13b;" horiz-adv-x="684" 
d="M264 -512v412h242v-123l-164 -289h-78zM334 180h344v-180h-580v1292h236v-1112z" />
    <glyph glyph-name="uni013C" unicode="&#x13c;" horiz-adv-x="407" 
d="M319 0h-231v1370h231v-1370zM82 -100h244v-123l-166 -289h-78v412z" />
    <glyph glyph-name="Lcaron" unicode="&#x13d;" horiz-adv-x="684" 
d="M551 1645l-217 -281h-240l-217 281h229l107 -158l109 158h229zM334 180h344v-180h-580v1292h236v-1112z" />
    <glyph glyph-name="lcaron" unicode="&#x13e;" horiz-adv-x="483" 
d="M408 1370h176v-115l-109 -260h-67v375zM319 0h-231v1370h231v-1370z" />
    <glyph glyph-name="Lslash" unicode="&#x141;" horiz-adv-x="708" 
d="M342 180h344v-180h-580v506l-161 -76v172l161 76v614h236v-501l213 100v-172l-213 -101v-438z" />
    <glyph glyph-name="lslash" unicode="&#x142;" horiz-adv-x="428" 
d="M330 0h-232v610l-180 -86v170l180 86v590h232v-481l198 94v-170l-198 -94v-719z" />
    <glyph glyph-name="Nacute" unicode="&#x143;" horiz-adv-x="913" 
d="M354 1358l176 280h248l-231 -280h-193zM598 1292h215v-1292h-221l-277 856v-856h-217v1292h228l272 -843v843z" />
    <glyph glyph-name="nacute" unicode="&#x144;" horiz-adv-x="817" 
d="M721 1352l-232 -281h-192l176 281h248zM463 1006h61q211 0 211 -203v-803h-233v770q0 33 -12.5 44t-45.5 11h-61q-63 0 -64 -67v-758h-231v1006h229v-93q29 93 146 93z" />
    <glyph glyph-name="uni0145" unicode="&#x145;" horiz-adv-x="913" 
d="M598 1292h215v-1292h-221l-277 856v-856h-217v1292h228l272 -843v843zM317 -100h242v-123l-164 -289h-78v412z" />
    <glyph glyph-name="uni0146" unicode="&#x146;" horiz-adv-x="817" 
d="M287 -512v412h241v-123l-163 -289h-78zM463 1006h61q211 0 211 -203v-803h-233v770q0 33 -12.5 44t-45.5 11h-61q-63 0 -64 -67v-758h-231v1006h229v-93q29 93 146 93z" />
    <glyph glyph-name="Ncaron" unicode="&#x147;" horiz-adv-x="913" 
d="M338 1356l-217 280h229l107 -157l108 157h230l-217 -280h-240zM598 1292h215v-1292h-221l-277 856v-856h-217v1292h228l272 -843v843z" />
    <glyph glyph-name="ncaron" unicode="&#x148;" horiz-adv-x="817" 
d="M512 1071h-240l-217 281h230l106 -158l109 158h229zM463 1006h61q211 0 211 -203v-803h-233v770q0 33 -12.5 44t-45.5 11h-61q-63 0 -64 -67v-758h-231v1006h229v-93q29 93 146 93z" />
    <glyph glyph-name="Omacron" unicode="&#x14c;" horiz-adv-x="878" 
d="M748 1518v-162h-621v162h621zM551 236v821q0 33 -12.5 44t-44.5 11h-109q-35 0 -47 -11t-12 -44v-821q0 -33 12 -44.5t47 -11.5h109q33 0 45 11.5t12 44.5zM313 1292h250q223 0 223 -202v-887q0 -203 -223 -203h-250q-223 0 -223 203v887q0 202 223 202z" />
    <glyph glyph-name="omacron" unicode="&#x14d;" horiz-adv-x="823" 
d="M713 1292v-162h-621v162h621zM518 229v547q0 33 -12 44t-47 11h-94q-35 0 -47.5 -11t-12.5 -44v-547q0 -33 12.5 -44t47.5 -11h94q35 0 47 11t12 44zM297 1006h231q217 0 217 -203v-600q0 -203 -217 -203h-231q-219 0 -219 203v600q0 203 219 203z" />
    <glyph glyph-name="Ohungarumlaut" unicode="&#x150;" horiz-adv-x="864" 
d="M664 1356h-162l176 280h217zM608 1636l-231 -280h-162l176 280h217zM551 236v821q0 33 -12.5 44t-44.5 11h-109q-35 0 -47 -11t-12 -44v-821q0 -33 12 -44.5t47 -11.5h109q33 0 45 11.5t12 44.5zM313 1292h250q223 0 223 -202v-887q0 -203 -223 -203h-250
q-223 0 -223 203v887q0 202 223 202z" />
    <glyph glyph-name="ohungarumlaut" unicode="&#x151;" horiz-adv-x="823" 
d="M631 1071h-162l176 281h217zM575 1352l-231 -281h-162l176 281h217zM518 229v547q0 33 -12 44t-47 11h-94q-35 0 -47.5 -11t-12.5 -44v-547q0 -33 12.5 -44t47.5 -11h94q35 0 47 11t12 44zM297 1006h231q217 0 217 -203v-600q0 -203 -217 -203h-231q-219 0 -219 203v600
q0 203 219 203z" />
    <glyph glyph-name="OE" unicode="&#x152;" horiz-adv-x="1259" 
d="M578 227v838q0 33 -12.5 44t-47.5 11h-108q-33 0 -45.5 -11t-12.5 -44v-838q0 -33 12.5 -44t45.5 -11h108q35 0 47.5 11t12.5 44zM807 172h393v-172h-573v39q-49 -39 -129 -39h-158q-223 0 -223 203v887q0 203 223 202h156q84 0 131 -41v41h557v-172h-377v-372h317v-170
h-317v-406z" />
    <glyph glyph-name="oe" unicode="&#x153;" horiz-adv-x="1345" 
d="M725 590h207v184q0 33 -12.5 44t-45.5 11h-90q-35 0 -47 -11t-12 -44v-184zM434 825h-61q-33 0 -45.5 -11t-12.5 -44v-534q0 -33 12.5 -44.5t45.5 -11.5h61q61 0 64 62v522q-3 61 -64 61zM786 1006h150q223 0 223 -203v-371h-434v-201q0 -33 12.5 -44t46.5 -11h86
q33 0 45.5 11.5t12.5 43.5v74h229v-102q0 -203 -223 -203h-150q-137 0 -180 94q-16 -41 -62 -67.5t-106 -26.5h-143q-209 0 -209 203v600q0 203 209 203h143q59 0 105.5 -27t62.5 -68q43 95 182 95z" />
    <glyph glyph-name="Racute" unicode="&#x154;" horiz-adv-x="880" 
d="M752 1636l-232 -280h-192l176 280h248zM334 1112v-434h170q33 0 45 11t12 44v324q0 33 -12 44t-45 11h-170zM334 504v-504h-236v1292h475q223 0 224 -202v-383q0 -168 -150 -197l215 -510h-254l-196 504h-78z" />
    <glyph glyph-name="racute" unicode="&#x155;" horiz-adv-x="544" 
d="M641 1352l-231 -281h-193l176 281h248zM317 1006v-129q16 59 63.5 96t117.5 37h37v-201h-86q-129 0 -130 -147v-662h-231v1006h229z" />
    <glyph glyph-name="uni0156" unicode="&#x156;" horiz-adv-x="880" 
d="M317 -512v412h242v-123l-164 -289h-78zM334 1112v-434h170q33 0 45 11t12 44v324q0 33 -12 44t-45 11h-170zM334 504v-504h-236v1292h475q223 0 224 -202v-383q0 -168 -150 -197l215 -510h-254l-196 504h-78z" />
    <glyph glyph-name="uni0157" unicode="&#x157;" horiz-adv-x="544" 
d="M86 -512v412h242v-123l-164 -289h-78zM498 1010h37v-201h-86q-129 0 -130 -147v-662h-231v1006h229v-129q16 59 63.5 96t117.5 37z" />
    <glyph glyph-name="Rcaron" unicode="&#x158;" horiz-adv-x="880" 
d="M555 1356h-240l-217 280h230l106 -157l109 157h229zM334 1112v-434h170q33 0 45 11t12 44v324q0 33 -12 44t-45 11h-170zM334 504v-504h-236v1292h475q223 0 224 -202v-383q0 -168 -150 -197l215 -510h-254l-196 504h-78z" />
    <glyph glyph-name="rcaron" unicode="&#x159;" horiz-adv-x="544" 
d="M430 1071h-240l-217 281h230l106 -158l109 158h229zM317 1006v-129q16 59 63.5 96t117.5 37h37v-201h-86q-129 0 -130 -147v-662h-231v1006h229z" />
    <glyph glyph-name="Sacute" unicode="&#x15a;" horiz-adv-x="817" 
d="M319 1358l177 280h247l-231 -280h-193zM508 236v276q0 33 -12.5 44t-44.5 11h-166q-211 0 -211 205v318q0 203 221 202h225q221 0 221 -202v-181h-237v148q0 33 -12.5 44t-45.5 11h-77q-35 0 -47.5 -11t-12.5 -44v-260q0 -33 12.5 -44.5t47.5 -11.5h161q215 0 215 -200
v-338q0 -203 -223 -203h-221q-223 0 -223 203v178h235v-145q0 -33 12.5 -44.5t47.5 -11.5h78q33 0 45 11.5t12 44.5z" />
    <glyph glyph-name="sacute" unicode="&#x15b;" horiz-adv-x="741" 
d="M289 1071l176 281h248l-232 -281h-192zM453 221v141q0 33 -12.5 44.5t-47.5 11.5h-110q-219 0 -220 200v185q0 203 224 203h162q221 0 221 -203v-94h-224v75q0 33 -12 44.5t-45 11.5h-41q-35 0 -47 -11.5t-12 -44.5v-147q0 -33 12 -44t47 -11h111q221 0 221 -201v-178
q0 -203 -223 -203h-166q-223 0 -223 203v92h227v-74q0 -33 12 -44t45 -11h41q35 0 47.5 11t12.5 44z" />
    <glyph glyph-name="uni015E" unicode="&#x15e;" horiz-adv-x="817" 
d="M508 236v276q0 33 -12.5 44t-44.5 11h-166q-211 0 -211 205v318q0 203 221 202h225q221 0 221 -202v-181h-237v148q0 33 -12.5 44t-45.5 11h-77q-35 0 -47.5 -11t-12.5 -44v-260q0 -33 12.5 -44.5t47.5 -11.5h161q215 0 215 -200v-338q0 -203 -223 -203h-221
q-223 0 -223 203v178h235v-145q0 -33 12.5 -44.5t47.5 -11.5h78q33 0 45 11.5t12 44.5zM287 -100h241v-123l-163 -289h-78v412z" />
    <glyph glyph-name="uni015F" unicode="&#x15f;" horiz-adv-x="741" 
d="M453 221v141q0 33 -12.5 44.5t-47.5 11.5h-110q-219 0 -220 200v185q0 203 224 203h162q221 0 221 -203v-94h-224v75q0 33 -12 44.5t-45 11.5h-41q-35 0 -47 -11.5t-12 -44.5v-147q0 -33 12 -44t47 -11h111q221 0 221 -201v-178q0 -203 -223 -203h-166q-223 0 -223 203
v92h227v-74q0 -33 12 -44t45 -11h41q35 0 47.5 11t12.5 44zM248 -100h241v-123l-163 -289h-78v412z" />
    <glyph glyph-name="Scaron" unicode="&#x160;" horiz-adv-x="817" 
d="M289 1358l-217 280h229l107 -157l108 157h229l-217 -280h-239zM508 236v276q0 33 -12.5 44t-44.5 11h-166q-211 0 -211 205v318q0 203 221 202h225q221 0 221 -202v-181h-237v148q0 33 -12.5 44t-45.5 11h-77q-35 0 -47.5 -11t-12.5 -44v-260q0 -33 12.5 -44.5
t47.5 -11.5h161q215 0 215 -200v-338q0 -203 -223 -203h-221q-223 0 -223 203v178h235v-145q0 -33 12.5 -44.5t47.5 -11.5h78q33 0 45 11.5t12 44.5z" />
    <glyph glyph-name="scaron" unicode="&#x161;" horiz-adv-x="741" 
d="M248 1071l-217 281h229l107 -158l108 158h230l-218 -281h-239zM453 221v141q0 33 -12.5 44.5t-47.5 11.5h-110q-219 0 -220 200v185q0 203 224 203h162q221 0 221 -203v-94h-224v75q0 33 -12 44.5t-45 11.5h-41q-35 0 -47 -11.5t-12 -44.5v-147q0 -33 12 -44t47 -11h111
q221 0 221 -201v-178q0 -203 -223 -203h-166q-223 0 -223 203v92h227v-74q0 -33 12 -44t45 -11h41q35 0 47.5 11t12.5 44z" />
    <glyph glyph-name="uni0162" unicode="&#x162;" horiz-adv-x="708" 
d="M231 -512v412h242v-123l-164 -289h-78zM10 1292h688v-180h-227v-1112h-235v1112h-226v180z" />
    <glyph glyph-name="uni0163" unicode="&#x163;" horiz-adv-x="708" 
d="M233 -512v412h242v-123l-164 -289h-78zM10 1292h688v-180h-227v-1112h-235v1112h-226v180z" />
    <glyph glyph-name="Tcaron" unicode="&#x164;" horiz-adv-x="708" 
d="M471 1358h-240l-217 280h230l106 -157l109 157h229zM698 1292v-180h-227v-1112h-235v1112h-226v180h688z" />
    <glyph glyph-name="tcaron" unicode="&#x165;" horiz-adv-x="499" 
d="M342 1186v-180h137v-181h-137v-583q0 -33 12.5 -44.5t46.5 -11.5h76v-186h-143q-223 0 -223 203v622h-101v181h101v180h231zM430 1407h193v-113l-127 -221h-66v334z" />
    <glyph glyph-name="Umacron" unicode="&#x16a;" horiz-adv-x="888" 
d="M756 1518v-162h-621v162h621zM557 1292h236v-1089q0 -203 -224 -203h-250q-223 0 -223 203v1089h236v-1056q0 -33 12 -44.5t45 -11.5h109q35 0 47 11.5t12 44.5v1056z" />
    <glyph glyph-name="umacron" unicode="&#x16b;" horiz-adv-x="817" 
d="M715 1292v-162h-621v162h621zM498 1006h233v-1006h-229v100q-25 -100 -146 -100h-63q-209 0 -209 203v803h231v-770q0 -33 12.5 -44.5t45.5 -11.5h61q63 0 64 68v758z" />
    <glyph glyph-name="Uring" unicode="&#x16e;" horiz-adv-x="888" 
d="M356 1536v-18q0 -29 10.5 -38.5t41.5 -9.5h69q31 0 41 9.5t10 38.5v18q0 29 -10 39t-41 10h-69q-31 0 -41.5 -10t-10.5 -39zM516 1356h-147q-166 0 -166 153v35q0 156 166 156h147q166 0 166 -156v-35q0 -153 -166 -153zM557 1292h236v-1089q0 -203 -224 -203h-250
q-223 0 -223 203v1089h236v-1056q0 -33 12 -44.5t45 -11.5h109q35 0 47 11.5t12 44.5v1056z" />
    <glyph glyph-name="uring" unicode="&#x16f;" horiz-adv-x="817" 
d="M330 1260v-19q0 -29 10 -38t41 -9h70q31 0 41 9t10 38v19q0 29 -10.5 39t-40.5 10h-70q-31 0 -41 -10t-10 -39zM489 1079h-147q-166 0 -166 154v35q0 156 166 155h147q166 0 166 -155v-35q0 -154 -166 -154zM498 1006h233v-1006h-229v100q-25 -100 -146 -100h-63
q-209 0 -209 203v803h231v-770q0 -33 12.5 -44.5t45.5 -11.5h61q63 0 64 68v758z" />
    <glyph glyph-name="Uhungarumlaut" unicode="&#x170;" horiz-adv-x="868" 
d="M657 1358h-161l176 280h217zM602 1638l-231 -280h-162l176 280h217zM557 236v1056h236v-1089q0 -203 -224 -203h-250q-223 0 -223 203v1089h236v-1056q0 -33 12 -44.5t45 -11.5h109q35 0 47 11.5t12 44.5z" />
    <glyph glyph-name="uhungarumlaut" unicode="&#x171;" horiz-adv-x="817" 
d="M614 1071h-161l176 281h217zM559 1352l-231 -281h-162l176 281h217zM498 1006h233v-1006h-229v100q-25 -100 -146 -100h-63q-209 0 -209 203v803h231v-770q0 -33 12.5 -44.5t45.5 -11.5h61q63 0 64 68v758z" />
    <glyph glyph-name="Uogonek" unicode="&#x172;" horiz-adv-x="888" 
d="M557 1292h236v-1089q0 -203 -224 -203h-28v-193h-135q-33 0 -44.5 -10t-11.5 -41v-47q0 -29 11.5 -39t44.5 -10h172v-149h-209q-102 0 -148.5 46t-46.5 138v78q0 184 195 184h14v43h-64q-223 0 -223 203v1089h236v-1056q0 -33 12 -44.5t45 -11.5h109q35 0 47 11.5
t12 44.5v1056z" />
    <glyph glyph-name="uogonek" unicode="&#x173;" horiz-adv-x="817" 
d="M596 -340h172v-149h-209q-102 0 -148 46t-46 138v78q0 184 194 184h14v43h-71v100q-25 -100 -146 -100h-63q-209 0 -209 203v803h231v-770q0 -33 12.5 -44.5t45.5 -11.5h61q63 0 64 68v758h233v-1199h-135q-33 0 -44 -10t-11 -41v-47q0 -29 11 -39t44 -10z" />
    <glyph glyph-name="Ydieresis" unicode="&#x178;" horiz-adv-x="817" 
d="M739 1587v-215h-237v215h237zM322 1587v-215h-238v215h238zM543 0h-236v410l-301 882h240l176 -663l166 663h239l-284 -876v-416z" />
    <glyph glyph-name="Zacute" unicode="&#x179;" horiz-adv-x="731" 
d="M705 1638l-232 -280h-192l176 280h248zM707 1292v-180l-441 -932h430v-180h-671v180l440 932h-418v180h660z" />
    <glyph glyph-name="zacute" unicode="&#x17a;" horiz-adv-x="657" 
d="M670 1352l-232 -281h-192l176 281h248zM631 174v-174h-604v174l352 657h-330v175h574v-175l-357 -657h365z" />
    <glyph glyph-name="Zdotaccent" unicode="&#x17b;" horiz-adv-x="731" 
d="M510 1573v-215h-250v215h250zM707 1292v-180l-441 -932h430v-180h-671v180l440 932h-418v180h660z" />
    <glyph glyph-name="zdotaccent" unicode="&#x17c;" horiz-adv-x="657" 
d="M467 1319v-215h-250v215h250zM631 174v-174h-604v174l352 657h-330v175h574v-175l-357 -657h365z" />
    <glyph glyph-name="Zcaron" unicode="&#x17d;" horiz-adv-x="731" 
d="M502 1358h-240l-217 280h229l107 -157l108 157h230zM47 1112v180h660v-180l-441 -932h430v-180h-671v180l440 932h-418z" />
    <glyph glyph-name="zcaron" unicode="&#x17e;" horiz-adv-x="657" 
d="M457 1071h-240l-217 281h229l107 -158l108 158h230zM631 174v-174h-604v174l352 657h-330v175h574v-175l-357 -657h365z" />
    <glyph glyph-name="florin" unicode="&#x192;" horiz-adv-x="780" 
d="M692 1184h-100q-33 0 -43 -10.5t-14 -45.5l-17 -122h174v-181h-198l-123 -917q-14 -102 -62.5 -152.5t-161.5 -50.5h-167v186h100q33 0 44 11.5t15 44.5l119 878h-137v181h160l22 161q12 102 61.5 152.5t159.5 50.5h168v-186z" />
    <glyph glyph-name="uni0218" unicode="&#x218;" horiz-adv-x="817" 
d="M508 236v276q0 33 -12.5 44t-44.5 11h-166q-211 0 -211 205v318q0 203 221 202h225q221 0 221 -202v-181h-237v148q0 33 -12.5 44t-45.5 11h-77q-35 0 -47.5 -11t-12.5 -44v-260q0 -33 12.5 -44.5t47.5 -11.5h161q215 0 215 -200v-338q0 -203 -223 -203h-221
q-223 0 -223 203v178h235v-145q0 -33 12.5 -44.5t47.5 -11.5h78q33 0 45 11.5t12 44.5zM287 -100h241v-123l-163 -289h-78v412z" />
    <glyph glyph-name="uni0219" unicode="&#x219;" horiz-adv-x="741" 
d="M453 221v141q0 33 -12.5 44.5t-47.5 11.5h-110q-219 0 -220 200v185q0 203 224 203h162q221 0 221 -203v-94h-224v75q0 33 -12 44.5t-45 11.5h-41q-35 0 -47 -11.5t-12 -44.5v-147q0 -33 12 -44t47 -11h111q221 0 221 -201v-178q0 -203 -223 -203h-166q-223 0 -223 203
v92h227v-74q0 -33 12 -44t45 -11h41q35 0 47.5 11t12.5 44zM258 -100h244v-123l-166 -289h-78v412z" />
    <glyph glyph-name="uni021A" unicode="&#x21a;" horiz-adv-x="708" 
d="M233 -512v412h242v-123l-164 -289h-78zM10 1292h688v-180h-227v-1112h-235v1112h-226v180z" />
    <glyph glyph-name="uni021B" unicode="&#x21b;" horiz-adv-x="499" 
d="M164 -512v412h242v-123l-164 -289h-78zM479 825h-137v-583q0 -33 12.5 -44.5t46.5 -11.5h76v-186h-143q-223 0 -223 203v622h-101v181h101v180h231v-180h137v-181z" />
    <glyph glyph-name="circumflex" unicode="&#x2c6;" horiz-adv-x="909" 
d="M117 1071l217 281h239l218 -281h-230l-108 158l-107 -158h-229z" />
    <glyph glyph-name="caron" unicode="&#x2c7;" horiz-adv-x="909" 
d="M334 1071l-217 281h229l107 -158l108 158h230l-218 -281h-239z" />
    <glyph glyph-name="uni02C9" unicode="&#x2c9;" horiz-adv-x="909" 
d="M143 1130v162h621v-162h-621z" />
    <glyph glyph-name="breve" unicode="&#x2d8;" horiz-adv-x="909" 
d="M571 1352h209v-78q0 -203 -221 -203h-209q-221 0 -221 203v78h209v-76q0 -33 12 -44t47 -11h115q35 0 47 11t12 44v76z" />
    <glyph glyph-name="dotaccent" unicode="&#x2d9;" horiz-adv-x="909" 
d="M330 1104v215h250v-215h-250z" />
    <glyph glyph-name="ring" unicode="&#x2da;" horiz-adv-x="909" 
d="M694 1229v-35q0 -154 -166 -154h-147q-166 0 -166 154v35q0 156 166 155h147q166 1 166 -155zM541 1202v19q0 29 -10.5 39t-41.5 10h-69q-31 0 -41 -10.5t-10 -38.5v-19q0 -29 10 -38t41 -9h69q31 0 41.5 9t10.5 38z" />
    <glyph glyph-name="ogonek" unicode="&#x2db;" horiz-adv-x="909" 
d="M492 -340h172v-149h-209q-102 0 -148.5 46t-46.5 138v78q0 184 195 184h14v68h158v-218h-135q-33 0 -44.5 -10t-11.5 -41v-47q0 -29 11.5 -39t44.5 -10z" />
    <glyph glyph-name="tilde" unicode="&#x2dc;" horiz-adv-x="909" 
d="M582 1092q-57 0 -130 44t-90 44q-37 0 -36 -47v-41h-193v65q0 86 39 130t133 44h25q57 0 127.5 -44t87.5 -44q37 0 37 47v41h192v-71q0 -84 -39 -126t-133 -42h-20z" />
    <glyph glyph-name="hungarumlaut" unicode="&#x2dd;" horiz-adv-x="909" 
d="M401 1071l177 281h217l-232 -281h-162zM115 1071l176 281h217l-232 -281h-161z" />
    <glyph glyph-name="pi" unicode="&#x3c0;" horiz-adv-x="972" 
d="M963 1006v-170h-144v-836h-235v836h-213v-633q0 -203 -224 -203h-139v186h72q33 0 45 11.5t12 44.5v764h826z" />
    <glyph glyph-name="uni0901" unicode="&#x901;" horiz-adv-x="0" 
d="M-586 1706h201v-111q0 -35 12.5 -47t46.5 -12h228q35 0 47 12.5t12 46.5v111h201v-135q0 -92 -54.5 -136t-173.5 -44h-292q-119 0 -173.5 44t-54.5 136v135zM-307 1815h188v-195h-188v195z" />
    <glyph glyph-name="uni0902" unicode="&#x902;" horiz-adv-x="0" 
d="M-311 1704h192v-215h-192v215z" />
    <glyph glyph-name="uni0903" unicode="&#x903;" horiz-adv-x="411" 
d="M109 340h194v-215h-194v215zM109 1010h194v-215h-194v215z" />
    <glyph glyph-name="uni0905" unicode="&#x905;" horiz-adv-x="1230" 
d="M1272 1292v-170h-139v-1122h-232v561h-182v-205q0 -98 -50.5 -147t-166.5 -49h-205q-117 0 -167 49t-50 147v185h233v-158q0 -33 11.5 -43t44.5 -10h61q33 0 45 11t12 42v197q0 35 -13 48t-48 13h-107v168h107q35 0 48 13.5t13 47.5v203q0 31 -12 42t-45 11h-61
q-33 0 -44.5 -10t-11.5 -43v-147h-233v174q0 98 50 147t167 49h205q117 0 167 -49t50 -147v-266q0 -94 -84 -105h266v563h371z" />
    <glyph glyph-name="uni0906" unicode="&#x906;" horiz-adv-x="1662" 
d="M1702 1292v-170h-139v-1122h-232v1122h-198v-1122h-232v561h-182v-205q0 -98 -50.5 -147t-166.5 -49h-205q-117 0 -167 49t-50 147v185h233v-158q0 -33 11.5 -43t44.5 -10h61q33 0 45 11t12 42v197q0 35 -13 48t-48 13h-107v168h107q35 0 48 13.5t13 47.5v203
q0 31 -12 42t-45 11h-61q-33 0 -44.5 -10t-11.5 -43v-147h-233v174q0 98 50 147t167 49h205q117 0 167 -49t50 -147v-266q0 -94 -84 -105h266v563h801z" />
    <glyph glyph-name="uni0907" unicode="&#x907;" horiz-adv-x="806" 
d="M698 821h-342q-33 0 -45 -11t-12 -42v-68q0 -31 12.5 -42t44.5 -11h154q117 0 167 -45t50 -143v-183q0 -96 -50 -141t-167 -45h-195v-145h-233v422h233v-117h123q35 0 46.5 10t11.5 43v129q0 33 -11.5 43t-46.5 10h-153q-117 0 -167 45t-50 144v121q0 96 50 141t167 45
h182v141h-508v170h889v-170h-150v-301z" />
    <glyph glyph-name="uni0908" unicode="&#x908;" horiz-adv-x="806" 
d="M698 821h-342q-33 0 -45 -11t-12 -42v-68q0 -31 12.5 -42t44.5 -11h154q117 0 167 -45t50 -143v-183q0 -96 -50 -141t-167 -45h-195v-145h-233v422h233v-117h123q35 0 46.5 10t11.5 43v129q0 33 -11.5 43t-46.5 10h-153q-117 0 -167 45t-50 144v121q0 96 50 141t167 45
h182v141h-508v170h508v140q0 96 50 141t167 45h158v-160h-86q-33 0 -45.5 -11t-12.5 -42v-113h150v-170h-150v-301z" />
    <glyph glyph-name="uni0909" unicode="&#x909;" horiz-adv-x="796" 
d="M829 1292v-170h-155q14 -23 14 -53v-238q0 -98 -84 -104v-8q84 -10 84 -103v-430q0 -96 -50 -141t-167 -45h-207q-117 0 -167 45t-50 141v250h232v-221q0 -33 11 -44t40 -11h69q35 0 46.5 11t11.5 44v363q0 35 -11.5 46t-46.5 11h-137v170h137q35 0 46.5 11t11.5 46v193
q0 43 -15.5 55t-68.5 12h-414v170h870z" />
    <glyph glyph-name="uni090A" unicode="&#x90a;" horiz-adv-x="1132" 
d="M1174 1292v-170h-500q14 -23 14 -53v-238q0 -98 -84 -104v-8h268q209 0 209 -205v-328q0 -96 -50 -141t-167 -45h-106v170h35q33 0 44 10t11 43v271q0 35 -11.5 46t-43.5 11h-105v-365q0 -96 -50 -141t-167 -45h-207q-117 0 -167 45t-50 141v250h232v-221q0 -33 11 -44
t40 -11h69q35 0 46.5 11t11.5 44v363q0 35 -11.5 46t-46.5 11h-137v170h137q35 0 46.5 11t11.5 46v193q0 43 -15.5 55t-68.5 12h-414v170h1215z" />
    <glyph glyph-name="uni090B" unicode="&#x90b;" horiz-adv-x="1630" 
d="M1192 768v-158q0 -55 49 -55h35q47 0 47 55v158q0 31 -11.5 43t-43.5 12h-23q-31 0 -42 -12t-11 -43zM827 1122v-567h162q-29 33 -28 92v131q0 106 54 154.5t181 48.5h123q127 0 181 -48t54 -155v-137q0 -72 -18 -102.5t-61 -42.5v-11q78 -18 77 -116v-183
q0 -94 -49 -140t-168 -46h-164q-111 0 -157.5 47t-46.5 139v101h229v-72q0 -31 11.5 -43t37.5 -12h23q31 0 42 12t11 43v131q0 31 -11.5 40t-41.5 9h-441v-395h-231v395h-47l-256 -395h-264l317 487l-117 211q-33 61 -64.5 84t-88.5 23h-58v172h138q104 0 157.5 -29.5
t98.5 -107.5l163 -285h21v567h-637v170h1712v-170h-844z" />
    <glyph glyph-name="uni090C" unicode="&#x90c;" horiz-adv-x="1226" 
d="M1135 80h-168q-35 0 -46.5 -10.5t-11.5 -42.5v-72q0 -33 11.5 -43t46.5 -10h270v-168h-342q-117 0 -167 45t-50 141v133q0 98 49 143.5t164 45.5h12v571h-119q-35 0 -46 -12.5t-11 -44.5v-353h-231v353q0 33 -11.5 45t-46.5 12h-61q-33 0 -45.5 -11t-12.5 -46v-529
q0 -33 12.5 -44t45.5 -11h80v-172h-152q-117 0 -167 45t-50 141v590q0 106 51 155.5t158 49.5h209q94 0 104 -84h6q10 84 105 84h182v141h-944v170h1309v-170h-133v-1042z" />
    <glyph glyph-name="uni090D" unicode="&#x90d;" horiz-adv-x="892" 
d="M602 1372h-291q-121 0 -174 44t-53 136v136h199v-111q0 -35 13 -47t48 -12h225q37 0 49.5 12t12.5 47v111h200v-136q0 -92 -54 -136t-175 -44zM934 1292v-170h-127v-368q0 -96 -50 -141.5t-167 -45.5h-152v170h80q33 0 44 10.5t11 43.5v331h-241v-907q0 -33 11 -44
t44 -11h133q29 0 39 11t10 44v211h234v-240q0 -96 -50.5 -141t-166.5 -45h-271q-117 0 -167 45t-50 141v936h-139v170h975z" />
    <glyph glyph-name="uni090E" unicode="&#x90e;" horiz-adv-x="892" 
d="M934 1292v-170h-127v-368q0 -96 -50 -141.5t-167 -45.5h-152v170h80q33 0 44 10.5t11 43.5v331h-241v-907q0 -33 11 -44t44 -11h133q29 0 39 11t10 44v211h234v-240q0 -96 -50.5 -141t-166.5 -45h-271q-117 0 -167 45t-50 141v936h-139v170h614v56q0 43 -12 55t-55 12
h-184q-174 0 -175 174v111h234v-47q0 -43 12.5 -55.5t55.5 -12.5h184q174 0 174 -174v-119h127z" />
    <glyph glyph-name="uni090F" unicode="&#x90f;" horiz-adv-x="892" 
d="M934 1292v-170h-127v-368q0 -96 -50 -141.5t-167 -45.5h-152v170h80q33 0 44 10.5t11 43.5v331h-241v-907q0 -33 11 -44t44 -11h133q29 0 39 11t10 44v211h234v-240q0 -96 -50.5 -141t-166.5 -45h-271q-117 0 -167 45t-50 141v936h-139v170h975z" />
    <glyph glyph-name="uni0910" unicode="&#x910;" horiz-adv-x="892" 
d="M934 1292v-170h-127v-368q0 -96 -50 -141.5t-167 -45.5h-152v170h80q33 0 44 10.5t11 43.5v331h-241v-907q0 -33 11 -44t44 -11h133q29 0 39 11t10 44v211h234v-240q0 -96 -50.5 -141t-166.5 -45h-271q-117 0 -167 45t-50 141v936h-139v170h598q-86 78 -195 221l-129 179
h279l281 -400h141z" />
    <glyph glyph-name="uni0911" unicode="&#x911;" horiz-adv-x="1662" 
d="M1702 1292v-170h-139v-1122h-232v1122h-198v-1122h-232v561h-182v-205q0 -98 -50.5 -147t-166.5 -49h-205q-117 0 -167 49t-50 147v185h233v-158q0 -33 11.5 -43t44.5 -10h61q33 0 45 11t12 42v197q0 35 -13 48t-48 13h-107v168h107q35 0 48 13.5t13 47.5v203
q0 31 -12 42t-45 11h-61q-33 0 -44.5 -10t-11.5 -43v-147h-233v174q0 98 50 147t167 49h205q117 0 167 -49t50 -147v-266q0 -94 -84 -105h266v563h801zM1620 1706h201v-135q0 -92 -54.5 -136t-175.5 -44h-291q-121 0 -174 44t-53 136v135h199v-111q0 -35 13 -47t48 -12h226
q37 0 49 12.5t12 46.5v111z" />
    <glyph glyph-name="uni0912" unicode="&#x912;" horiz-adv-x="1660" 
d="M1702 1292v-170h-139v-1122h-232v1122h-198v-1122h-232v561h-182v-205q0 -98 -50.5 -147t-166.5 -49h-205q-117 0 -167 49t-50 147v185h233v-158q0 -33 11.5 -43t44.5 -10h61q33 0 45 11t12 42v197q0 35 -13 48t-48 13h-107v168h107q35 0 48 13.5t13 47.5v203
q0 31 -12 42t-45 11h-61q-33 0 -44.5 -10t-11.5 -43v-147h-233v174q0 98 50 147t167 49h205q117 0 167 -49t50 -147v-266q0 -94 -84 -105h266v563h428v56q0 43 -12 55t-55 12h-185q-174 0 -174 174v111h234v-47q0 -43 12 -55.5t55 -12.5h185q174 0 174 -174v-119h139z" />
    <glyph glyph-name="uni0913" unicode="&#x913;" horiz-adv-x="1660" 
d="M1702 1292v-170h-139v-1122h-232v1122h-198v-1122h-232v561h-182v-205q0 -98 -50.5 -147t-166.5 -49h-205q-117 0 -167 49t-50 147v185h233v-158q0 -33 11.5 -43t44.5 -10h61q33 0 45 11t12 42v197q0 35 -13 48t-48 13h-107v168h107q35 0 48 13.5t13 47.5v203
q0 31 -12 42t-45 11h-61q-33 0 -44.5 -10t-11.5 -43v-147h-233v174q0 98 50 147t167 49h205q117 0 167 -49t50 -147v-266q0 -94 -84 -105h266v563h424q-86 78 -195 221l-129 179h279l281 -400h141z" />
    <glyph glyph-name="uni0914" unicode="&#x914;" horiz-adv-x="1662" 
d="M1702 1292v-170h-139v-1122h-232v1122h-198v-1122h-232v561h-182v-205q0 -98 -50.5 -147t-166.5 -49h-205q-117 0 -167 49t-50 147v185h233v-158q0 -33 11.5 -43t44.5 -10h61q33 0 45 11t12 42v197q0 35 -13 48t-48 13h-107v168h107q35 0 48 13.5t13 47.5v203
q0 31 -12 42t-45 11h-61q-33 0 -44.5 -10t-11.5 -43v-147h-233v174q0 98 50 147t167 49h205q117 0 167 -49t50 -147v-266q0 -94 -84 -105h266v563h412q-82 53 -201 160l-266 240h284q217 -252 304 -387h8q-35 63 -72 149l-98 238h223l64 -400h143z" />
    <glyph glyph-name="uni0915" unicode="&#x915;" horiz-adv-x="1212" 
d="M1253 1122h-530v-164q23 23 84 23h127q106 0 157.5 -49t51.5 -156v-430q0 -96 -50.5 -141t-166.5 -45h-121v159h49q33 0 44 11.5t11 44.5v381q0 35 -11 46t-44 11h-72q-33 0 -46 -13.5t-13 -47.5v-752h-234v184q-25 -25 -83 -24h-127q-209 0 -209 205v430q0 96 50 141
t167 45h121v-160h-50q-33 0 -45 -11t-12 -42v-381q0 -35 12.5 -46t44.5 -11h72q33 0 46 12t13 47v733h-530v170h1294v-170z" />
    <glyph glyph-name="uni0916" unicode="&#x916;" horiz-adv-x="1509" 
d="M1550 1292v-170h-141v-1122h-227v238q-25 -31 -90 -31h-115q-209 0 -209 205v366q0 96 50 141.5t167 45.5h125v-160h-57q-33 0 -45.5 -11.5t-12.5 -41.5v-318q0 -35 12.5 -46t45.5 -11h61q37 0 52.5 14.5t15.5 50.5v680h-516q14 -23 14 -53v-385q0 -102 -52.5 -148.5
t-168.5 -46.5h-135v-249q0 -39 13 -53.5t52 -14.5h469v-172h-514q-131 0 -192.5 47t-61.5 148v770h234v-306h57q39 0 52 13.5t13 52.5v332q0 41 -12 53t-53 12h-422v170h1591z" />
    <glyph glyph-name="uni0917" unicode="&#x917;" horiz-adv-x="1241" 
d="M356 330h72q33 0 45 11t12 46v356h-125q-41 0 -52 -11t-11 -52v-293q0 -35 13 -46t46 -11zM1282 1292v-170h-139v-1122h-234v1122h-190v-757q0 -109 -55.5 -157t-180.5 -48h-182q-125 0 -180 48t-55 157v354q0 102 60 148t191 46h168v209h-526v170h1323z" />
    <glyph glyph-name="uni0918" unicode="&#x918;" horiz-adv-x="956" 
d="M625 399v723h-201q-66 0 -83 -10t-17 -55v-191q0 -35 11 -46t44 -11h108v-168h-108q-33 0 -44 -11.5t-11 -45.5v-197q0 -35 11 -46t44 -11h176q39 0 54.5 15t15.5 54zM997 1292v-170h-139v-1122h-233v184q-25 -25 -80 -24h-217q-123 0 -180.5 49t-57.5 156v251
q0 96 86 103v8q-86 10 -86 104v234q0 39 19 57h-150v170h1038z" />
    <glyph glyph-name="uni0919" unicode="&#x919;" horiz-adv-x="905" 
d="M705 608v215h192v-215h-192zM-41 1292h987v-170h-258v-301h-301q-33 0 -44 -10t-11 -43v-102q0 -33 11 -43.5t44 -10.5h117q117 0 167 -45t50 -141v-240q0 -96 -50 -141t-167 -45h-207q-117 0 -167 45t-50 141v146h233v-117q0 -33 10.5 -44t38.5 -11h70q33 0 45 11t12 44
v184q0 31 -12 42.5t-45 11.5h-117q-117 0 -166 45t-49 141v156q0 96 49.5 141t165.5 45h142v141h-498v170z" />
    <glyph glyph-name="uni091A" unicode="&#x91a;" horiz-adv-x="892" 
d="M934 1292v-170h-141v-1122h-232v184q-25 -25 -84 -24h-151q-209 0 -209 205v368q0 53 26 80h-147v168h477v-168h-33q-59 0 -74.5 -9t-15.5 -48v-369q0 -35 11.5 -46t44.5 -11h96q33 0 46 12t13 47v733h-604v170h977z" />
    <glyph glyph-name="uni091B" unicode="&#x91b;" horiz-adv-x="1206" 
d="M725 1122h-309l10 -2q-63 4 -81.5 -7t-18.5 -56v-277q0 -35 12 -46t45 -11h72v-168h-72q-33 0 -45 -11.5t-12 -45.5v-269q0 -35 12 -46t45 -11h448q35 0 46.5 11.5t11.5 45.5v547q0 33 -11.5 43t-46.5 10h-36q-33 0 -44.5 -10t-11.5 -43v-188q0 -33 11.5 -43t44.5 -10h32
v-152h-77q-201 0 -201 186v226q0 90 43 134t133 50v143zM1247 1122h-305v-143q88 -8 131 -52t43 -132v-590q0 -106 -57.5 -155.5t-179.5 -49.5h-549q-121 0 -178.5 49t-57.5 156v325q0 94 84 105v6q-84 10 -84 104v324q0 37 15 53h-150v170h1288v-170z" />
    <glyph glyph-name="uni091C" unicode="&#x91c;" horiz-adv-x="1218" 
d="M1260 1292v-170h-142v-1122h-231v813h-164v-448q0 -109 -54.5 -157t-181.5 -48h-163q-127 0 -181.5 48t-54.5 157v616h231v-594q0 -35 12.5 -46t47.5 -11h55q33 0 45.5 11t12.5 46v594h395v141h-928v170h1301z" />
    <glyph glyph-name="uni091D" unicode="&#x91d;" horiz-adv-x="1251" 
d="M922 647v475h-213v-301h-340q-33 0 -45.5 -11t-12.5 -42v-68q0 -31 12.5 -42t45.5 -11h553zM1292 1292v-170h-139v-1122h-233v485h-191q4 -29 4 -43v-166q0 -96 -50 -141t-167 -45h-201v-145h-233v422h233v-117h129q33 0 45.5 11t12.5 42v129q0 31 -12.5 42t-45.5 11
h-147q-117 0 -167 45t-50 144v121q0 96 50 141t167 45h178v141h-534v170h1351z" />
    <glyph glyph-name="uni091E" unicode="&#x91e;" horiz-adv-x="1200" 
d="M1241 1292v-170h-139v-1122h-234v512h-186v-147q0 -109 -54.5 -157t-181.5 -48h-157q-127 0 -181.5 48t-54.5 157v172h232v-150q0 -35 12 -46t45 -11h51q33 0 45.5 11t12.5 46v371q0 33 -11.5 44t-46.5 11h-190v168h264q115 0 165 -49t50 -146v-104h186v440h-909v170
h1282z" />
    <glyph glyph-name="uni091F" unicode="&#x91f;" horiz-adv-x="823" 
d="M727 813h-338q-33 0 -45 -11t-12 -46v-529q0 -35 12 -46t45 -11h55q33 0 46.5 11.5t13.5 45.5v211h231v-233q0 -109 -55 -157t-180 -48h-166q-125 0 -180.5 48t-55.5 157v590q0 96 50.5 141t166.5 45h181v141h-537v170h905v-170h-137v-309z" />
    <glyph glyph-name="uni0920" unicode="&#x920;" horiz-adv-x="862" 
d="M539 227v529q0 35 -12.5 46t-45.5 11h-92q-33 0 -45 -11t-12 -46v-529q0 -35 12 -46t45 -11h92q33 0 45.5 11t12.5 46zM903 1122h-352v-141q119 -2 169 -50t50 -155v-571q0 -109 -54 -157t-181 -48h-201q-125 0 -180.5 48t-55.5 157v571q0 106 51.5 154.5t169.5 50.5v141
h-360v170h944v-170z" />
    <glyph glyph-name="uni0921" unicode="&#x921;" horiz-adv-x="825" 
d="M688 821h-301q-33 0 -44 -10t-11 -43v-102q0 -33 11 -43.5t44 -10.5h117q117 0 167 -45t50 -141v-240q0 -96 -50 -141t-167 -45h-207q-117 0 -167 45t-50 141v146h233v-117q0 -33 10.5 -44t38.5 -11h70q33 0 45 11t12 44v184q0 31 -12 42.5t-45 11.5h-117q-117 0 -166 45
t-49 141v156q0 96 49.5 141t165.5 45h142v141h-498v170h907v-170h-178v-301z" />
    <glyph glyph-name="uni0922" unicode="&#x922;" horiz-adv-x="899" 
d="M727 813h-338q-33 0 -45 -11t-12 -46v-529q0 -35 12 -46t45 -11h129q33 0 45 11.5t12 45.5v146q0 33 -12 44t-45 11h-88v170h143q125 0 180.5 -48t55.5 -157v-188q0 -109 -55.5 -157t-180.5 -48h-239q-125 0 -180.5 48t-55.5 157v590q0 96 50.5 141t166.5 45h181v141
h-537v170h981v-170h-213v-309z" />
    <glyph glyph-name="uni0923" unicode="&#x923;" horiz-adv-x="1226" 
d="M492 387v735h-173v-735q0 -35 12.5 -46t47.5 -11h55q33 0 45.5 11t12.5 46zM1268 1292v-170h-140v-1122h-233v1122h-172v-757q0 -109 -54.5 -157t-181.5 -48h-163q-127 0 -181.5 48t-54.5 157v757h-129v170h1309z" />
    <glyph glyph-name="uni0924" unicode="&#x924;" horiz-adv-x="872" 
d="M913 1292v-170h-141v-1122h-231v813h-164q-33 0 -45.5 -11t-12.5 -44v-531q0 -33 12.5 -44t45.5 -11h49v-172h-121q-117 0 -167 45t-50 141v609q0 96 50 141t167 45h236v141h-582v170h954z" />
    <glyph glyph-name="uni0925" unicode="&#x925;" horiz-adv-x="1079" 
d="M1120 1292v-170h-139v-1122h-233v184q-25 -25 -80 -24h-334q-121 0 -178.5 49t-57.5 156v401h226q33 0 45 11t12 44v258q0 31 -12.5 42.5t-44.5 11.5h-13q-33 0 -44 -10.5t-11 -43.5v-84h-141v121q0 96 49 141.5t155 45.5h87q207 0 206 -187v-323q0 -98 -50 -146.5
t-167 -48.5h-65v-211q0 -35 12 -46t45 -11h291q39 0 54.5 15t15.5 54v893h372z" />
    <glyph glyph-name="uni0926" unicode="&#x926;" horiz-adv-x="825" 
d="M725 813h-348q-33 0 -45.5 -11t-12.5 -46v-369q0 -35 11.5 -46t44.5 -11h67q33 0 46.5 12t13.5 47v178h231v-567h-231v184q-25 -25 -84 -24h-96q-125 0 -180.5 48t-55.5 157v430q0 96 50 141t167 45h191v141h-547v170h919v-170h-141v-309z" />
    <glyph glyph-name="uni0927" unicode="&#x927;" horiz-adv-x="1054" 
d="M1102 1292v-170h-139v-1122h-232v186q-25 -27 -82 -26h-313q-209 0 -209 186v252q0 92 86 102v9q-86 10 -86 104v303q0 186 209 187h88q207 0 207 -187v-121h-142v84q0 33 -11 43.5t-44 10.5h-18q-33 0 -44.5 -10.5t-11.5 -43.5v-231q0 -35 11.5 -46t44.5 -11h141v-170
h-141q-33 0 -44.5 -11.5t-11.5 -44.5v-178q0 -35 11.5 -46t44.5 -11h246q39 0 54 15t15 54v723l-2 170h373z" />
    <glyph glyph-name="uni0928" unicode="&#x928;" horiz-adv-x="1183" 
d="M465 387v426h-109q-33 0 -45 -11t-12 -44v-371q0 -35 12.5 -46t46.5 -11h50q33 0 45 11t12 46zM1225 1292v-170h-140v-1122h-233v813h-154v-448q0 -109 -55 -157t-182 -48h-158q-127 0 -181 48t-54 157v430q0 96 50 141t167 45h567v141h-893v170h1266z" />
    <glyph glyph-name="uni0928093C" unicode="&#x929;" horiz-adv-x="1183" 
d="M498 -217v215h194v-215h-194zM465 387v426h-109q-33 0 -45 -11t-12 -44v-371q0 -35 12.5 -46t46.5 -11h50q33 0 45 11t12 46zM1225 1292v-170h-140v-1122h-233v813h-154v-448q0 -109 -55 -157t-182 -48h-158q-127 0 -181 48t-54 157v430q0 96 50 141t167 45h567v141h-893
v170h1266z" />
    <glyph glyph-name="uni092A" unicode="&#x92a;" horiz-adv-x="849" 
d="M520 389v733h-188v-735q0 -35 11 -46t44 -11h72q35 0 48 12t13 47zM891 1292v-170h-139v-1122h-232v186q-25 -27 -86 -26h-127q-209 0 -209 205v757h-139v170h932z" />
    <glyph glyph-name="uni092B" unicode="&#x92b;" horiz-adv-x="1232" 
d="M512 389v733h-188v-735q0 -35 11 -46t44 -11h74q33 0 46 12t13 47zM1274 1122h-531v-166q25 25 84 25h129q104 0 155.5 -49t51.5 -156v-430q0 -96 -49 -141t-166 -45h-121v159h47q35 0 46.5 11.5t11.5 44.5v381q0 35 -11.5 46t-46.5 11h-71q-33 0 -46.5 -13.5
t-13.5 -47.5v-752h-231v186q-25 -27 -86 -26h-127q-209 0 -209 205v757h-131v170h1315v-170z" />
    <glyph glyph-name="uni092C" unicode="&#x92c;" horiz-adv-x="960" 
d="M373 330h207l-150 229q-94 170 -113 193v-365q0 -35 11.5 -46t44.5 -11zM1001 1292v-170h-139v-1122h-233v174q-23 -14 -70 -14h-266q-209 0 -209 205v430q0 96 50 141t167 45h244v-160h-152l125 -207l123 -196q-12 66 -12 248v456h-670v170h1042z" />
    <glyph glyph-name="uni092D" unicode="&#x92d;" horiz-adv-x="1269" 
d="M506 387v299h-129q-33 0 -45.5 -11t-12.5 -42v-246q0 -35 12.5 -46t47.5 -11h70q33 0 45 11t12 46zM1311 1292v-170h-140v-1122h-233v686h-199v-321q0 -109 -55 -157t-180 -48h-180q-127 0 -181.5 48t-54.5 157v305q0 96 50 141t167 45h201v217q0 33 -11.5 43t-43.5 10
h-58q-33 0 -44 -10t-11 -43v-88h-234v115q0 98 50.5 147t167.5 49h200q115 0 166 -49t51 -147v-244h199v436h373z" />
    <glyph glyph-name="uni092E" unicode="&#x92e;" horiz-adv-x="1249" 
d="M918 885v237h-199v-237h199zM485 420v295h-145q-33 0 -45 -11.5t-12 -41.5v-242q0 -33 13 -44t46 -11h86q33 0 45 11t12 44zM1290 1292v-170h-139v-1122h-233v715h-199v-316q0 -109 -55.5 -156.5t-180.5 -47.5h-180q-127 0 -181 48t-54 156v299q0 96 50 141.5t167 45.5
h200v237h-526v170h1331z" />
    <glyph glyph-name="uni092F" unicode="&#x92f;" horiz-adv-x="1056" 
d="M725 399v723h-184q20 -27 20 -69v-244q0 -98 -48 -147.5t-163 -49.5h-41v-225q0 -35 11.5 -46t44.5 -11h290q41 0 55.5 15t14.5 54zM1098 1292v-170h-140v-1122h-233v186q-25 -27 -80 -26h-334q-121 0 -178 49t-57 156v417h205q33 0 44 10.5t11 43.5v219q0 43 -14.5 55
t-67.5 12h-317v170h1161z" />
    <glyph glyph-name="uni0930" unicode="&#x930;" horiz-adv-x="804" 
d="M846 1292v-170h-137q14 -16 14 -53v-324q0 -100 -60.5 -146t-191.5 -46h-152v-338q0 -33 12.5 -44t45.5 -11h61q31 0 41 11t10 44v211h232v-240q0 -96 -49 -141t-166 -45h-201q-117 0 -167 45t-50 141v750h231v-215h107q39 0 52.5 14.5t13.5 52.5v269q0 41 -12.5 53
t-53.5 12h-467v170h887z" />
    <glyph glyph-name="uni0930093C" unicode="&#x931;" horiz-adv-x="804" 
d="M285 -356v215h194v-215h-194zM846 1292v-170h-137q14 -16 14 -53v-324q0 -100 -60.5 -146t-191.5 -46h-152v-338q0 -33 12.5 -44t45.5 -11h61q31 0 41 11t10 44v211h232v-240q0 -96 -49 -141t-166 -45h-201q-117 0 -167 45t-50 141v750h231v-215h107q39 0 52.5 14.5
t13.5 52.5v269q0 41 -12.5 53t-53.5 12h-467v170h887z" />
    <glyph glyph-name="uni0932" unicode="&#x932;" horiz-adv-x="1232" 
d="M1274 1292v-170h-131v-1122h-234v813h-112q-35 0 -46.5 -12.5t-11.5 -44.5v-387h-231v387q0 33 -11.5 45t-45.5 12h-64q-33 0 -44 -11t-11 -46v-529q0 -33 11 -44t44 -11h117v-172h-189q-117 0 -166 45t-49 141v590q0 106 51.5 155.5t155.5 49.5h211q94 0 105 -84h6
q10 84 102 84h178v141h-950v170h1315z" />
    <glyph glyph-name="uni0933" unicode="&#x933;" horiz-adv-x="1257" 
d="M948 387v369q0 35 -11 46t-44 11h-96q-35 0 -45.5 -12.5t-10.5 -44.5v-369q0 -33 10.5 -45t45.5 -12h96q33 0 44 11t11 46zM518 387v369q0 33 -11 45t-46 12h-96q-33 0 -44.5 -11t-11.5 -46v-369q0 -35 11.5 -46t44.5 -11h96q35 0 46 12t11 45zM1321 1122h-336v-141
q100 -4 148.5 -52t48.5 -153v-411q0 -205 -209 -205h-217q-111 0 -121 84h-8q-6 -84 -121 -84h-221q-209 0 -209 205v411q0 205 209 205h221q115 0 121 -84h8q10 82 117 84v141h-815v170h1384v-170z" />
    <glyph glyph-name="uni0933093C" unicode="&#x934;" horiz-adv-x="1257" 
d="M154 -195v215h194v-215h-194zM948 387v369q0 35 -11 46t-44 11h-96q-35 0 -45.5 -12.5t-10.5 -44.5v-369q0 -33 10.5 -45t45.5 -12h96q33 0 44 11t11 46zM518 387v369q0 33 -11 45t-46 12h-96q-33 0 -44.5 -11t-11.5 -46v-369q0 -35 11.5 -46t44.5 -11h96q35 0 46 12
t11 45zM1321 1122h-336v-141q100 -4 148.5 -52t48.5 -153v-411q0 -205 -209 -205h-217q-111 0 -121 84h-8q-6 -84 -121 -84h-221q-209 0 -209 205v411q0 205 209 205h221q115 0 121 -84h8q10 82 117 84v141h-815v170h1384v-170z" />
    <glyph glyph-name="uni0935" unicode="&#x935;" horiz-adv-x="843" 
d="M885 1292v-170h-142v-1122h-231v186q-25 -27 -86 -26h-127q-209 0 -209 205v430q0 96 50 141t167 45h121v-168h-49q-33 0 -44 -11t-11 -44v-371q0 -35 11 -46t44 -11h74q33 0 46 12t13 47v733h-553v170h926z" />
    <glyph glyph-name="uni0936" unicode="&#x936;" horiz-adv-x="1234" 
d="M326 1298h198q117 0 167 -49t50 -147v-391q0 -100 -60 -146.5t-192 -46.5h-151v-303q0 -33 11 -44t46 -11h62q29 0 40 11t11 44v176h231v-205q0 -96 -50 -141t-167 -45h-200q-117 0 -166.5 45t-49.5 141v609h232v-109h106q39 0 52.5 14.5t13.5 53.5v321q0 33 -11.5 43
t-45.5 10h-62q-31 0 -41 -11t-10 -42v-141h-231v168q0 98 50 147t167 49zM905 1292h371v-170h-141v-1122h-230v1292z" />
    <glyph glyph-name="uni0937" unicode="&#x937;" horiz-adv-x="940" 
d="M608 805v317h-268q219 -422 241.5 -475t45.5 -112q-19 110 -19 270zM387 330h162q47 0 55 28q-254 494 -291 594q18 -102 19 -247v-318q0 -35 11 -46t44 -11zM981 1292v-170h-139v-1122h-234v184q-25 -25 -84 -24h-217q-209 0 -209 205v757h-139v170h1022z" />
    <glyph glyph-name="uni0938" unicode="&#x938;" horiz-adv-x="1220" 
d="M889 721v401h-180q14 -16 14 -53v-256q0 -59 -29 -92h195zM1262 1292v-170h-142v-1122h-231v553h-570v-338q0 -33 12.5 -44t45.5 -11h61q31 0 41 11t10 44v211h232v-240q0 -96 -49 -141t-166 -45h-201q-117 0 -167 45t-50 141v750h231v-215h107q39 0 52.5 14.5t13.5 52.5
v269q0 41 -12.5 53t-53.5 12h-467v170h1303z" />
    <glyph glyph-name="uni0939" unicode="&#x939;" horiz-adv-x="856" 
d="M758 813h-371q-33 0 -44 -11t-11 -42v-62q0 -31 11 -42t44 -11h145q127 0 181.5 -48t54.5 -157v-96h-231v76q0 35 -12.5 46t-47.5 11h-90q-33 0 -44 -11t-11 -46v-193q0 -35 11 -46t44 -11h381v-170h-434q-121 0 -178.5 49t-57.5 156v248q0 94 86 104v6q-86 10 -86 105
v127q0 96 50.5 141t166.5 45h209v141h-565v170h950v-170h-151v-309z" />
    <glyph glyph-name="uni093C" unicode="&#x93c;" horiz-adv-x="0" 
d="M-309 -106h194v-216h-194v216z" />
    <glyph glyph-name="uni093D" unicode="&#x93d;" horiz-adv-x="808" 
d="M676 1130h-285q-33 0 -44 -10t-11 -43v-241q0 -33 11 -43.5t44 -10.5h117q117 0 167 -45t50 -143v-408q0 -96 -50 -141t-167 -45h-207q-117 0 -167 45t-50 141v146h233v-117q0 -33 10.5 -44t39.5 -11h69q33 0 45.5 11t12.5 44v352q0 31 -12.5 42.5t-45.5 11.5h-117
q-117 0 -166 45t-49 143v295q0 98 49.5 143t165.5 45h357v-162z" />
    <glyph glyph-name="uni093E" unicode="&#x93e;" horiz-adv-x="432" 
d="M471 1292v-170h-139v-1122h-232v1122h-139v170h510z" />
    <glyph glyph-name="uni093F" unicode="&#x93f;" 
d="M299 1706h655q201 0 201 -193v-139h-233v94q0 43 -11.5 55.5t-56.5 12.5h-455q-43 0 -55 -12.5t-12 -55.5v-176h139v-170h-139v-1122h-234v1122h-139v170h139v221q0 193 201 193z" />
    <glyph glyph-name="uni0940" unicode="&#x940;" 
d="M471 1292v-170h-139v-1122h-234v1122h-139v170h139v176q0 43 -12 55.5t-55 12.5h-88q-45 0 -57.5 -12.5t-12.5 -55.5v-94h-231v139q0 193 200 193h289q201 0 201 -193v-221h139z" />
    <glyph glyph-name="uni0941" unicode="&#x941;" horiz-adv-x="0" 
d="M-125 8q209 0 209 -205v-106q0 -106 -51 -155.5t-158 -49.5h-240q-133 0 -201.5 38t-129.5 142l-70 121h274l48 -78q33 -55 104 -55h129q39 0 51.5 12.5t12.5 51.5v49q0 39 -12.5 51t-51.5 12h-121v172h207z" />
    <glyph glyph-name="uni0942" unicode="&#x942;" horiz-adv-x="0" 
d="M-125 8q127 0 192.5 -38t127.5 -140l208 -336h-274l-178 283q-37 61 -98 61h-84q-39 0 -51.5 -11t-12.5 -52v-49q0 -41 12.5 -52.5t51.5 -11.5h106v-172h-192q-106 0 -157.5 49t-51.5 158v104q0 109 51 158t158 49h192z" />
    <glyph glyph-name="uni0943" unicode="&#x943;" horiz-adv-x="0" 
d="M-98 8v-170h-117q-39 0 -51.5 -11t-12.5 -52v-49q0 -41 12.5 -52.5t51.5 -11.5h190v-172h-278q-209 0 -209 207v104q0 207 209 207h205z" />
    <glyph glyph-name="uni0944" unicode="&#x944;" horiz-adv-x="0" 
d="M-496 -170q0 178 201 178h197v-170h-109q-33 0 -44 -11t-11 -46v-64q0 -35 11 -46t44 -11h96v-170h-96q-33 0 -44 -11t-11 -44v-64q0 -35 11 -46t44 -11h201v-170h-254q-121 0 -178.5 49t-57.5 156v119q0 92 86 102v8q-86 10 -86 105v147z" />
    <glyph glyph-name="uni0945" unicode="&#x945;" horiz-adv-x="0" 
d="M-590 1706h199v-111q0 -35 13 -47t48 -12h226q37 0 49 12.5t12 46.5v111h201v-135q0 -92 -54.5 -136t-175.5 -44h-290q-121 0 -174.5 44t-53.5 136v135z" />
    <glyph glyph-name="uni0946" unicode="&#x946;" horiz-adv-x="0" 
d="M-758 1700h234v-47q0 -43 12 -55.5t55 -12.5h185q174 0 174 -174v-194h-234v131q0 43 -12 55t-55 12h-185q-174 0 -174 174v111z" />
    <glyph glyph-name="uni0947" unicode="&#x947;" horiz-adv-x="0" 
d="M-399 1692l293 -418h-228q-92 78 -215 239l-129 179h279z" />
    <glyph glyph-name="uni0948" unicode="&#x948;" horiz-adv-x="0" 
d="M-823 1692h284q217 -252 303 -387h9q-35 63 -72 149l-98 238h223l65 -414h-225q-86 51 -223 174z" />
    <glyph glyph-name="uni0949" unicode="&#x949;" horiz-adv-x="432" 
d="M-39 1122v170h510v-170h-139v-1122h-232v1122h-139zM389 1706h201v-135q0 -92 -54.5 -136t-175.5 -44h-290q-121 0 -174.5 44t-53.5 136v135h199v-111q0 -35 13.5 -47t47.5 -12h226q37 0 49 12.5t12 46.5v111z" />
    <glyph glyph-name="uni094A" unicode="&#x94a;" horiz-adv-x="432" 
d="M471 1292v-170h-139v-1122h-232v1122h-139v170h137v56q0 43 -12 55t-55 12h-185q-174 0 -174 174v111h234v-47q0 -43 12 -55.5t55 -12.5h185q174 0 174 -174v-119h139z" />
    <glyph glyph-name="uni094B" unicode="&#x94b;" horiz-adv-x="432" 
d="M471 1292v-170h-139v-1122h-232v1122h-139v170h123q-86 78 -195 221l-129 179h279l280 -400h152z" />
    <glyph glyph-name="uni094C" unicode="&#x94c;" horiz-adv-x="432" 
d="M471 1292v-170h-139v-1122h-232v1122h-139v170h121q-82 53 -201 160l-266 240h285q217 -252 303 -387h8q-35 63 -72 149l-98 238h223l64 -400h143z" />
    <glyph glyph-name="uni094D" unicode="&#x94d;" horiz-adv-x="0" 
d="M-123 -125l234 -285h-238l-231 285h235z" />
    <glyph glyph-name="uni0950" unicode="&#x950;" horiz-adv-x="1552" 
d="M979 1356v-195h-188v195h188zM1235 733q117 0 167 -49t50 -147v-340q0 -98 -50 -147.5t-167 -49.5h-182q-115 0 -165 49t-50 148v200h231v-174q0 -33 11.5 -43t43.5 -10h39q33 0 45.5 11.5t12.5 41.5v285q0 33 -12.5 44t-45.5 11h-471q27 -25 27 -84v-282
q0 -98 -51.5 -147.5t-165.5 -49.5h-205q-117 0 -167 49t-50 148v217h231v-191q0 -31 12.5 -42t45.5 -11h61q33 0 44 10t11 43v279q0 35 -13 48t-46 13h-109v168h109q33 0 46 13.5t13 48.5v276q0 33 -11 43t-44 10h-61q-33 0 -45.5 -11t-12.5 -42v-180h-231v207q0 98 50 147
t167 49h205q115 0 166 -49t51 -147v-52h305q35 0 47 11.5t12 46.5v112h228v-143q0 -98 -50.5 -147.5t-166.5 -49.5h-375v-57q0 -59 -27 -84h543z" />
    <glyph glyph-name="uni0915093C" unicode="&#x958;" horiz-adv-x="1212" 
d="M137 -182v215h195v-215h-195zM1253 1122h-530v-164q23 23 84 23h127q106 0 157.5 -49t51.5 -156v-430q0 -96 -50.5 -141t-166.5 -45h-121v159h49q33 0 44 11.5t11 44.5v381q0 35 -11 46t-44 11h-72q-33 0 -46 -13.5t-13 -47.5v-752h-234v184q-25 -25 -83 -24h-127
q-209 0 -209 205v430q0 96 50 141t167 45h121v-160h-50q-33 0 -45 -11t-12 -42v-381q0 -35 12.5 -46t44.5 -11h72q33 0 46 12t13 47v733h-530v170h1294v-170z" />
    <glyph glyph-name="uni0916093C" unicode="&#x959;" horiz-adv-x="1509" 
d="M289 -330v215h194v-215h-194zM1550 1292v-170h-141v-1122h-227v238q-25 -31 -90 -31h-115q-209 0 -209 205v366q0 96 50 141.5t167 45.5h125v-160h-57q-33 0 -45.5 -11.5t-12.5 -41.5v-318q0 -35 12.5 -46t45.5 -11h61q37 0 52.5 14.5t15.5 50.5v680h-516q14 -23 14 -53
v-385q0 -102 -52.5 -148.5t-168.5 -46.5h-135v-249q0 -39 13 -53.5t52 -14.5h469v-172h-514q-131 0 -192.5 47t-61.5 148v770h234v-306h57q39 0 52 13.5t13 52.5v332q0 41 -12 53t-53 12h-422v170h1591z" />
    <glyph glyph-name="uni0917093C" unicode="&#x95a;" horiz-adv-x="1241" 
d="M289 -207v215h194v-215h-194zM356 330h72q33 0 45 11t12 46v356h-125q-41 0 -52 -11t-11 -52v-293q0 -35 13 -46t46 -11zM1282 1292v-170h-139v-1122h-234v1122h-190v-757q0 -109 -55.5 -157t-180.5 -48h-182q-125 0 -180 48t-55 157v354q0 102 60 148t191 46h168v209
h-526v170h1323z" />
    <glyph glyph-name="uni091C093C" unicode="&#x95b;" horiz-adv-x="1218" 
d="M309 -205v215h195v-215h-195zM1260 1292v-170h-142v-1122h-231v813h-164v-448q0 -109 -54.5 -157t-181.5 -48h-163q-127 0 -181.5 48t-54.5 157v616h231v-594q0 -35 12.5 -46t47.5 -11h55q33 0 45.5 11t12.5 46v594h395v141h-928v170h1301z" />
    <glyph glyph-name="uni0921093C" unicode="&#x95c;" horiz-adv-x="825" 
d="M301 -336v215h195v-215h-195zM688 821h-301q-33 0 -44 -10t-11 -43v-102q0 -33 11 -43.5t44 -10.5h117q117 0 167 -45t50 -141v-240q0 -96 -50 -141t-167 -45h-207q-117 0 -167 45t-50 141v146h233v-117q0 -33 10.5 -44t38.5 -11h70q33 0 45 11t12 44v184q0 31 -12 42.5
t-45 11.5h-117q-117 0 -166 45t-49 141v156q0 96 49.5 141t165.5 45h142v141h-498v170h907v-170h-178v-301z" />
    <glyph glyph-name="uni0922093C" unicode="&#x95d;" horiz-adv-x="899" 
d="M358 -326v215h195v-215h-195zM727 813h-338q-33 0 -45 -11t-12 -46v-529q0 -35 12 -46t45 -11h129q33 0 45 11.5t12 45.5v146q0 33 -12 44t-45 11h-88v170h143q125 0 180.5 -48t55.5 -157v-188q0 -109 -55.5 -157t-180.5 -48h-239q-125 0 -180.5 48t-55.5 157v590
q0 96 50.5 141t166.5 45h181v141h-537v170h981v-170h-213v-309z" />
    <glyph glyph-name="uni092B093C" unicode="&#x95e;" horiz-adv-x="1232" 
d="M190 -215v215h195v-215h-195zM512 389v733h-188v-735q0 -35 11 -46t44 -11h74q33 0 46 12t13 47zM1274 1122h-531v-166q25 25 84 25h129q104 0 155.5 -49t51.5 -156v-430q0 -96 -49 -141t-166 -45h-121v159h47q35 0 46.5 11.5t11.5 44.5v381q0 35 -11.5 46t-46.5 11h-71
q-33 0 -46.5 -13.5t-13.5 -47.5v-752h-231v186q-25 -27 -86 -26h-127q-209 0 -209 205v757h-131v170h1315v-170z" />
    <glyph glyph-name="uni092F093C" unicode="&#x95f;" horiz-adv-x="1056" 
d="M362 -209v215h195v-215h-195zM725 399v723h-184q20 -27 20 -69v-244q0 -98 -48 -147.5t-163 -49.5h-41v-225q0 -35 11.5 -46t44.5 -11h290q41 0 55.5 15t14.5 54zM1098 1292v-170h-140v-1122h-233v186q-25 -27 -80 -26h-334q-121 0 -178 49t-57 156v417h205q33 0 44 10.5
t11 43.5v219q0 43 -14.5 55t-67.5 12h-317v170h1161z" />
    <glyph glyph-name="uni0960" unicode="&#x960;" horiz-adv-x="1642" 
d="M1223 768v-158q0 -31 11 -43t42 -12h24q31 0 42.5 12.5t11.5 42.5v158q0 31 -11.5 43t-42.5 12h-24q-31 0 -42 -12t-11 -43zM850 1122v-567h170q-29 33 -29 92v131q0 106 53.5 154.5t182.5 48.5h123q127 0 181 -48t54 -155v-178q0 -106 -54 -155.5t-181 -49.5h-76
q-29 0 -40 -11t-11 -46v-62q0 -35 11 -46t44 -11h92v-170h-92q-33 0 -44 -11t-11 -46v-64q0 -35 11 -46t44 -11h195v-168h-246q-121 0 -178.5 48t-57.5 157v117q0 94 84 104v6q-84 10 -84 105v98q0 35 19 57h-160v-395h-232v395h-47l-256 -395h-264l318 487l-117 211
q-33 61 -64.5 84t-89.5 23h-57v172h137q104 0 157.5 -29.5t98.5 -107.5l164 -285h20v567h-659v170h1739v-170h-848z" />
    <glyph glyph-name="uni0961" unicode="&#x961;" horiz-adv-x="1226" 
d="M1135 291h-107q-33 0 -44 -11.5t-11 -46.5v-61q0 -35 11 -46t44 -11h96v-170h-96q-33 0 -44 -11.5t-11 -46.5v-63q0 -35 11 -46t44 -11h201v-168h-254q-121 0 -178.5 48t-57.5 156v117q0 94 84 105v6q-84 10 -84 104v148q0 160 164 176v354h-119q-35 0 -46 -12.5
t-11 -44.5v-273h-231v273q0 33 -11.5 45t-46.5 12h-61q-33 0 -45.5 -11t-12.5 -46v-529q0 -33 12.5 -44t45.5 -11h80v-172h-152q-117 0 -167 45t-50 141v590q0 106 51 155.5t158 49.5h209q94 0 104 -84h6q10 84 105 84h182v141h-944v170h1309v-170h-133v-831z" />
    <glyph glyph-name="uni0964" unicode="&#x964;" horiz-adv-x="741" 
d="M483 1356v-1419h-225v1419h225z" />
    <glyph glyph-name="uni0965" unicode="&#x965;" horiz-adv-x="1146" 
d="M483 1356v-1419h-225v1419h225zM889 1356v-1419h-225v1419h225z" />
    <glyph glyph-name="uni0966" unicode="&#x966;" horiz-adv-x="866" 
d="M774 1090v-887q0 -203 -223 -203h-238q-223 0 -223 203v887q0 203 223 202h238q223 1 223 -202zM539 236v821q0 33 -12.5 44t-47.5 11h-94q-33 0 -45 -11t-12 -44v-821q0 -33 12 -44.5t45 -11.5h94q35 0 47.5 11.5t12.5 44.5z" />
    <glyph glyph-name="uni0967" unicode="&#x967;" horiz-adv-x="532" 
d="M434 1292v-1292h-235v1112h-160v180h395z" />
    <glyph glyph-name="uni0968" unicode="&#x968;" horiz-adv-x="755" 
d="M285 1057v-193h-236v226q0 203 223 202h197q225 0 225 -202v-146q0 -152 -92 -295l-268 -469h366v-180h-645v170l334 541q72 109 72 237v109q0 33 -12.5 44t-45.5 11h-59q-35 0 -47 -11t-12 -44z" />
    <glyph glyph-name="uni0969" unicode="&#x969;" horiz-adv-x="798" 
d="M293 1057v-174h-236v207q0 203 224 202h206q223 0 224 -202v-277q0 -127 -86 -156q86 -29 86 -147v-307q0 -203 -224 -203h-206q-223 0 -224 203v205h236v-172q0 -33 12 -44.5t45 -11.5h70q33 0 45 11.5t12 44.5v276q0 33 -11 45t-46 12h-158v172h158q33 0 45 11.5
t12 44.5v260q0 33 -12 44t-45 11h-70q-33 0 -45 -11t-12 -44z" />
    <glyph glyph-name="uni096A" unicode="&#x96a;" horiz-adv-x="829" 
d="M829 432v-182h-122v-250h-224v250h-469v201l406 841h235l-426 -860h254v250h224v-250h122z" />
    <glyph glyph-name="uni096B" unicode="&#x96b;" horiz-adv-x="817" 
d="M324 821h200q223 0 224 -203v-415q0 -203 -224 -203h-219q-223 0 -223 203v221h237v-188q0 -33 12.5 -44.5t45.5 -11.5h78q35 0 47 11.5t12 44.5v350q0 33 -12.5 44t-46.5 11h-365v651h649v-180h-415v-291z" />
    <glyph glyph-name="uni096C" unicode="&#x96c;" horiz-adv-x="847" 
d="M539 236v284q0 33 -12.5 44t-47.5 11h-155v-339q0 -33 12 -44.5t45 -11.5h98q35 0 47.5 11.5t12.5 44.5zM324 752h223q223 0 223 -203v-346q0 -203 -223 -203h-234q-223 0 -223 203v887q0 203 223 202h224q223 0 223 -202v-199h-232v166q0 33 -12 44t-45 11h-90
q-33 0 -45 -11t-12 -44v-305z" />
    <glyph glyph-name="uni096D" unicode="&#x96d;" horiz-adv-x="673" 
d="M664 1292v-139l-361 -1153h-242l351 1102h-398v190h650z" />
    <glyph glyph-name="uni096E" unicode="&#x96e;" horiz-adv-x="862" 
d="M545 788v271q0 33 -12.5 44t-47.5 11h-110q-33 0 -45.5 -11t-12.5 -44v-271q0 -33 12.5 -44t45.5 -11h110q35 0 47.5 11t12.5 44zM545 233v283q0 33 -12.5 44t-47.5 11h-110q-33 0 -45.5 -11t-12.5 -44v-283q0 -33 12.5 -44t45.5 -11h110q35 0 47.5 11t12.5 44zM772 1090
v-281q0 -127 -86 -156q86 -29 86 -147v-303q0 -203 -223 -203h-238q-223 0 -223 203v303q0 119 86 147q-86 29 -86 156v281q0 203 223 202h238q223 1 223 -202z" />
    <glyph glyph-name="uni096F" unicode="&#x96f;" horiz-adv-x="843" 
d="M362 690h158v367q0 33 -12 44t-45 11h-101q-33 0 -45 -11t-12 -44v-312q0 -33 12 -44t45 -11zM297 1292h231q223 0 224 -202v-887q0 -203 -224 -203h-223q-223 0 -223 203v194h231v-161q0 -33 12.5 -44.5t45.5 -11.5h92q33 0 45 11.5t12 44.5v284h-223q-223 0 -223 203
v367q0 202 223 202z" />
    <glyph glyph-name="uni0970" unicode="&#x970;" horiz-adv-x="761" 
d="M115 637q0 135 71.5 206.5t194.5 71.5t195.5 -72.5t72.5 -205.5t-72.5 -206t-195.5 -73t-194.5 72t-71.5 207zM291 637q0 -129 90 -129t90 129t-90 129t-90 -129z" />
    <glyph glyph-name="uni0972" unicode="&#x972;" horiz-adv-x="1144" 
d="M1272 1292v-170h-139v-1122h-232v561h-182v-205q0 -98 -50.5 -147t-166.5 -49h-205q-117 0 -167 49t-50 147v185h233v-158q0 -33 11.5 -43t44.5 -10h61q33 0 45 11t12 42v197q0 35 -13 48t-48 13h-107v168h107q35 0 48 13.5t13 47.5v203q0 31 -12 42t-45 11h-61
q-33 0 -44.5 -10t-11.5 -43v-147h-233v174q0 98 50 147t167 49h205q117 0 167 -49t50 -147v-266q0 -94 -84 -105h266v563h371zM1210 1706h201v-135q0 -92 -54 -136t-175 -44h-291q-121 0 -174 44t-53 136v135h198v-111q0 -35 13.5 -47t48.5 -12h225q37 0 49 12.5t12 46.5
v111z" />
    <glyph glyph-name="uni200B" unicode="&#x200b;" horiz-adv-x="0" 
 />
    <glyph glyph-name="uni200C" unicode="&#x200c;" horiz-adv-x="0" 
d="M49 -471h-96v2132h96v-2132z" />
    <glyph glyph-name="uni200D" unicode="&#x200d;" horiz-adv-x="0" 
d="M49 -471h-96v1771l-141 -149l-68 68l190 190l-194 195l67 67l195 -194l197 194l65 -65l-196 -197l196 -195l-67 -67l-148 153v-1771z" />
    <glyph glyph-name="endash" unicode="&#x2013;" horiz-adv-x="970" 
d="M63 522v170h748v-170h-748z" />
    <glyph glyph-name="emdash" unicode="&#x2014;" horiz-adv-x="1224" 
d="M41 522v170h1135v-170h-1135z" />
    <glyph glyph-name="quoteleft" unicode="&#x2018;" horiz-adv-x="391" 
d="M322 725h-252v147l178 420h74v-567z" />
    <glyph glyph-name="quoteright" unicode="&#x2019;" horiz-adv-x="391" 
d="M70 1292h252v-147l-179 -420h-73v567z" />
    <glyph glyph-name="quotesinglbase" unicode="&#x201a;" horiz-adv-x="389" 
d="M70 276h249v-147l-172 -420h-77v567z" />
    <glyph glyph-name="quotedblleft" unicode="&#x201c;" horiz-adv-x="733" 
d="M662 725h-248v147l176 420h72v-567zM319 725h-249v147l178 420h71v-567z" />
    <glyph glyph-name="quotedblright" unicode="&#x201d;" horiz-adv-x="733" 
d="M70 1292h249v-147l-178 -420h-71v567zM414 1292h248v-147l-177 -420h-71v567z" />
    <glyph glyph-name="quotedblbase" unicode="&#x201e;" horiz-adv-x="733" 
d="M70 276h249v-147l-178 -420h-71v567zM414 276h248v-147l-177 -420h-71v567z" />
    <glyph glyph-name="dagger" unicode="&#x2020;" horiz-adv-x="796" 
d="M782 967v-172h-266v-1020h-235v1020h-267v172h267v325h235v-325h266z" />
    <glyph glyph-name="daggerdbl" unicode="&#x2021;" horiz-adv-x="845" 
d="M807 795h-266v-602h266v-170h-266v-326h-236v326h-266v170h266v602h-266v172h266v325h236v-325h266v-172z" />
    <glyph glyph-name="bullet" unicode="&#x2022;" horiz-adv-x="811" 
d="M127 657.5q0 114.5 82 196.5t196.5 82t196.5 -82t82 -196.5t-82 -196.5t-196.5 -82t-196.5 82t-82 196.5z" />
    <glyph glyph-name="ellipsis" unicode="&#x2026;" horiz-adv-x="1253" 
d="M98 0v270h262v-270h-262zM530 0v270h261v-270h-261zM963 0v270h260v-270h-260z" />
    <glyph glyph-name="perthousand" unicode="&#x2030;" horiz-adv-x="2084" 
d="M580 1120v-377q0 -170 -183 -170h-157q-182 0 -183 170v377q0 172 183 172h157q183 0 183 -172zM1409 547v-375q0 -172 -182 -172h-158q-182 0 -182 172v375q0 86 43 129t139 43h158q182 0 182 -172zM389 772v320q0 31 -9 41t-40 10h-41q-31 0 -41 -11.5t-10 -39.5v-320
q0 -29 10 -39t41 -10h41q31 0 40 10t9 39zM1219 201v317q0 31 -10.5 41t-41.5 10h-41q-31 0 -40 -10t-9 -41v-317q0 -31 9.5 -41t39.5 -10h41q31 0 41.5 10t10.5 41zM961 1292h184l-639 -1292h-182zM2028 547v-375q0 -172 -183 -172h-157q-182 0 -183 172v375q0 86 43 129
t140 43h157q183 0 183 -172zM1837 201v317q0 31 -10 41t-41 10h-41q-31 0 -40 -10t-9 -41v-317q0 -31 9 -41t40 -10h41q31 0 41 10t10 41z" />
    <glyph glyph-name="guilsinglleft" unicode="&#x2039;" horiz-adv-x="598" 
d="M301 209l-238 315l238 316h240l-238 -316l238 -315h-240z" />
    <glyph glyph-name="guilsinglright" unicode="&#x203a;" horiz-adv-x="600" 
d="M541 524l-238 -315h-240l238 315l-238 316h240z" />
    <glyph glyph-name="fraction" unicode="&#x2044;" horiz-adv-x="811" 
d="M571 1434h207l-579 -1645h-207z" />
    <glyph glyph-name="Euro" unicode="&#x20ac;" horiz-adv-x="886" 
d="M819 864h-237v201q0 33 -12.5 44t-45.5 11h-94q-35 0 -47 -11t-12 -44v-219h161v-152h-161v-94h161v-156h-161v-219q0 -33 12 -44t47 -11h94q33 0 45.5 11.5t12.5 43.5v197h237v-221q0 -203 -223 -203h-240q-221 0 -221 203v243h-92v156h92v94h-92v152h92v244
q0 203 221 202h240q223 0 223 -202v-226z" />
    <glyph glyph-name="uni20B9" unicode="&#x20b9;" horiz-adv-x="804" 
d="M711 1292v-157h-146q18 -27 19 -95v-63h127v-158h-127v-123q0 -111 -56.5 -159t-185.5 -45h-16l301 -492h-248l-297 492v170h213q35 0 46 11t11 46v100h-270v158h270v102q0 33 -12 44.5t-45 11.5h-213v157h629z" />
    <glyph glyph-name="trademark" unicode="&#x2122;" horiz-adv-x="1345" 
d="M14 1139v153h527v-153h-170v-516h-187v516h-170zM1284 1292v-669h-168v399l-94 -293h-150l-96 293v-399h-168v669h209l129 -379l127 379h211z" />
    <glyph glyph-name="uni2126" unicode="&#x2126;" horiz-adv-x="903" 
d="M879 180v-180h-383v180h20q29 0 39 14.5t10 49.5v813q0 33 -12 44t-47 11h-109q-33 0 -45 -11t-12 -44v-813q0 -35 9 -49.5t40 -14.5h21v-180h-385v180h139q-59 39 -60 137v773q0 203 224 202h250q223 0 223 -202v-773q0 -98 -60 -137h138z" />
    <glyph glyph-name="product" unicode="&#x220f;" horiz-adv-x="954" 
d="M133 1292h721v-1292h-236v1120h-253v-917q0 -203 -224 -203h-129v186h62q35 0 47 11.5t12 44.5v1050z" />
    <glyph glyph-name="minus" unicode="&#x2212;" horiz-adv-x="1036" 
d="M43 553v182h813v-182h-813z" />
    <glyph glyph-name="uni2215" unicode="&#x2215;" horiz-adv-x="811" 
d="M571 1434h207l-579 -1645h-207z" />
    <glyph glyph-name="uni2219" unicode="&#x2219;" horiz-adv-x="389" 
d="M70 508v276h249v-276h-249z" />
    <glyph glyph-name="infinity" unicode="&#x221e;" horiz-adv-x="1218" 
d="M989 616v193q0 41 -11 55.5t-52 14.5h-84q-39 0 -76 -56l-72 -121l72 -96q41 -59 92 -59h68q41 0 52 14t11 55zM291 547h63q61 0 99 61l61 97l-68 98q-27 39 -49 56.5t-59 17.5h-47q-39 0 -50.5 -14.5t-11.5 -53.5v-193q0 -41 11.5 -55t50.5 -14zM852 1034h98
q223 0 224 -198v-246q0 -199 -224 -199h-73q-90 0 -137.5 25.5t-102.5 103.5l-29 39q-63 -113 -114.5 -140.5t-161.5 -27.5h-66q-221 0 -221 199v246q0 199 221 198h76q84 0 131 -32t129 -156q84 135 121 161.5t129 26.5z" />
    <glyph glyph-name="integral" unicode="&#x222b;" horiz-adv-x="714" 
d="M481 -63q0 -203 -223 -203h-168v186h100q33 0 44.5 11.5t15.5 43.5v1285q0 203 223 202h168v-186h-100q-33 0 -45.5 -11.5t-14.5 -43.5v-1284z" />
    <glyph glyph-name="approxequal" unicode="&#x2248;" horiz-adv-x="1048" 
d="M688 745q-74 0 -131 37t-105.5 73t-90.5 36t-54 -16.5t-12 -53.5v-76h-213v127q0 90 45 134.5t143 44.5h92q57 0 107.5 -22.5t79.5 -49.5q76 -74 149 -74q35 0 45.5 15.5t10.5 54.5v74h213v-127q0 -88 -44 -132.5t-145 -44.5h-90zM688 373q-74 0 -131 36.5t-105.5 72.5
t-90.5 36t-54 -15.5t-12 -51.5v-76h-213v127q0 90 44 133t144 43h92q57 0 107.5 -22.5t79.5 -49.5q76 -74 149 -74q35 0 45.5 15.5t10.5 54.5v76h213v-127q0 -88 -44 -133t-145 -45h-90z" />
    <glyph glyph-name="notequal" unicode="&#x2260;" horiz-adv-x="1024" 
d="M944 748v-197h-399l-174 -346h-162l174 346h-303v197h401l172 339h162l-172 -339h301z" />
    <glyph glyph-name="lessequal" unicode="&#x2264;" horiz-adv-x="978" 
d="M887 922l-619 -127l619 -131v-191l-819 229v193l819 213v-186zM887 420v-170h-819v170h819z" />
    <glyph glyph-name="greaterequal" unicode="&#x2265;" horiz-adv-x="978" 
d="M698 795l-618 127v186l819 -213v-193l-819 -229v191zM80 250v170h819v-170h-819z" />
    <glyph glyph-name="lozenge" unicode="&#x25ca;" horiz-adv-x="1140" 
d="M567 193l226 454l-226 453l-219 -453zM678 1292l348 -645l-348 -647h-221l-342 647l342 645h221z" />
    <glyph glyph-name="uni25CC" unicode="&#x25cc;" horiz-adv-x="858" 
d="M281 309v-149q-59 0 -97.5 41t-38.5 108h136zM145 537h136v-150h-136v150zM145 766h136v-150h-136v150zM281 844h-136q0 70 37 109.5t99 39.5v-149zM571 309h136q0 -61 -37 -105t-99 -44v149zM571 537h136v-150h-136v150zM571 766h136v-150h-136v150zM571 844v149
q135 0 136 -149h-136zM358 993h136v-149h-136v149zM358 309h136v-149h-136v149z" />
    <glyph glyph-name="commaaccent" unicode="&#xf6c3;" horiz-adv-x="909" 
d="M334 -100h241v-123l-163 -289h-78v412z" />
    <glyph glyph-name="fi" unicode="&#xfb01;" horiz-adv-x="849" 
d="M764 1006v-1006h-232v825h-186v-825h-229v825h-103v181h103v161q0 203 221 203h104v-180h-39q-33 0 -45 -11.5t-12 -43.5v-129h418zM532 1370h232v-180h-232v180z" />
    <glyph glyph-name="fl" unicode="&#xfb02;" horiz-adv-x="849" 
d="M535 1370h229v-1370h-229v825h-189v-825h-229v825h-103v181h103v161q0 203 221 203h104v-180h-39q-33 0 -45 -11.5t-12 -43.5v-129h189v364z" />
    <glyph glyph-name="itfLogo" horiz-adv-x="3375" 
d="M301 0v1298h401v-1298h-401zM784 920v378h402v-378h-402zM1268 0v1298h401v-1298h-401zM1751 920v378h401v-378h-401zM2234 0v1298h402v-1298h-402zM2718 920v378h401v-378h-401zM2718 459v379h401v-379h-401z" />
    <glyph glyph-name="uni0915094D" horiz-adv-x="847" 
d="M1022 1122h-299v-225q23 23 84 23h215v-168h-240q-33 0 -46 -13.5t-13 -48.5v-690h-234v184q-25 -25 -83 -24h-127q-209 0 -209 205v430q0 96 50 141t167 45h121v-160h-50q-33 0 -45 -11t-12 -42v-381q0 -35 12.5 -46t44.5 -11h72q33 0 46 12t13 47v733h-530v170h1063
v-170z" />
    <glyph glyph-name="uni0916094D" horiz-adv-x="1093" 
d="M995 752v-318q0 -35 12.5 -46t45.5 -11h215v-170h-291q-209 0 -209 205v366q0 96 50 141.5t167 45.5h125v-160h-57q-33 0 -45.5 -11t-12.5 -42zM-41 1292h1309v-170h-602q14 -23 14 -53v-403q0 -102 -52.5 -147.5t-168.5 -45.5h-135v-233q0 -39 13 -53.5t52 -14.5h426
v-172h-471q-131 0 -192.5 47t-61.5 148v770h234v-324h57q39 0 52 14.5t13 53.5v348q0 41 -12 53t-53 12h-422v170z" />
    <glyph glyph-name="uni0917094D" horiz-adv-x="806" 
d="M356 330h72q33 0 45 11t12 46v356h-125q-41 0 -52 -11t-11 -52v-293q0 -35 13 -46t46 -11zM852 1292v-170h-133v-757q0 -109 -55.5 -157t-180.5 -48h-182q-125 0 -180 48t-55 157v354q0 102 60 148t191 46h168v209h-526v170h893z" />
    <glyph glyph-name="uni0918094D" horiz-adv-x="526" 
d="M743 1122h-354q-41 0 -53 -12t-12 -53v-191q0 -35 11 -46t44 -11h108v-168h-108q-33 0 -44 -11.5t-11 -45.5v-197q0 -35 11 -46t44 -11h364v-170h-415q-123 0 -180.5 49t-57.5 156v251q0 96 86 103v8q-86 10 -86 104v238q0 33 14 53h-145v170h784v-170z" />
    <glyph glyph-name="uni0919094D" horiz-adv-x="905" 
d="M283 -125h235l234 -285h-238zM705 608v215h192v-215h-192zM-41 1292h987v-170h-258v-301h-301q-33 0 -44 -10t-11 -43v-102q0 -33 11 -43.5t44 -10.5h117q117 0 167 -45t50 -141v-240q0 -96 -50 -141t-167 -45h-207q-117 0 -167 45t-50 141v146h233v-117q0 -33 10.5 -44
t38.5 -11h70q33 0 45 11t12 44v184q0 31 -12 42.5t-45 11.5h-117q-117 0 -166 45t-49 141v156q0 96 49.5 141t165.5 45h142v141h-498v170z" />
    <glyph glyph-name="uni091A094D" horiz-adv-x="460" 
d="M350 756v-369q0 -35 11.5 -46t44.5 -11h266v-170h-346q-209 0 -209 205v368q0 55 28 80h-149v168h477v-168h-67q-33 0 -44.5 -11t-11.5 -46zM-43 1292h715v-170h-715v170z" />
    <glyph glyph-name="uni091B094D" horiz-adv-x="1206" 
d="M1247 1292v-170h-831l10 -2q-63 4 -81.5 -7t-18.5 -56v-277q0 -35 12 -46t45 -11h72v-168h-72q-33 0 -45 -11.5t-12 -45.5v-269q0 -35 12 -46t45 -11h448q35 0 46.5 11.5t11.5 45.5v547q0 33 -11.5 43t-46.5 10h-36q-33 0 -44.5 -10t-11.5 -43v-188q0 -33 11.5 -43
t44.5 -10h32v-152h-77q-201 0 -201 186v226q0 100 53 143t166 43h127q113 0 167 -43t54 -143v-590q0 -106 -57.5 -155.5t-179.5 -49.5h-549q-121 0 -178.5 49t-57.5 156v325q0 94 84 105v6q-84 10 -84 104v324q0 37 15 53h-150v170h1288z" />
    <glyph glyph-name="uni091C094D" horiz-adv-x="786" 
d="M963 1292v-170h-1004v170h1004zM319 981v-594q0 -35 12.5 -46t47.5 -11h55q33 0 45.5 11t12.5 46v594h471v-168h-240v-448q0 -109 -54.5 -157t-181.5 -48h-163q-127 0 -181.5 48t-54.5 157v616h231z" />
    <glyph glyph-name="uni091D094D" horiz-adv-x="821" 
d="M709 821h-340q-33 0 -45.5 -11t-12.5 -42v-68q0 -31 12.5 -42t45.5 -11h632v-162h-272q4 -29 4 -43v-166q0 -96 -50 -141t-167 -45h-201v-145h-233v422h233v-117h129q33 0 45.5 11t12.5 42v129q0 31 -12.5 42t-45.5 11h-147q-117 0 -167 45t-50 144v121q0 96 50 141
t167 45h178v141h-516v170h1042v-170h-292v-301z" />
    <glyph glyph-name="uni091E094D" horiz-adv-x="770" 
d="M682 786v-104h291v-170h-291v-147q0 -109 -54.5 -157t-181.5 -48h-157q-127 0 -181.5 48t-54.5 157v172h232v-150q0 -35 12 -46t45 -11h51q33 0 45.5 11t12.5 46v371q0 33 -11.5 44t-46.5 11h-190v168h264q115 0 165 -49.5t50 -145.5zM-41 1292h1014v-170h-1014v170z" />
    <glyph glyph-name="uni091F094D" horiz-adv-x="823" 
d="M319 -125h236l233 -285h-237zM-41 1292h905v-170h-137v-309h-338q-33 0 -45 -11t-12 -46v-529q0 -35 12 -46t45 -11h55q33 0 46.5 11.5t13.5 45.5v211h231v-233q0 -109 -55 -157t-180 -48h-166q-125 0 -180.5 48t-55.5 157v590q0 96 50.5 141t166.5 45h181v141h-537v170z
" />
    <glyph glyph-name="uni0920094D" horiz-adv-x="862" 
d="M283 -125h235l234 -285h-238zM539 227v529q0 35 -12.5 46t-45.5 11h-92q-33 0 -45 -11t-12 -46v-529q0 -35 12 -46t45 -11h92q33 0 45.5 11t12.5 46zM903 1122h-352v-141q119 -2 169 -50t50 -155v-571q0 -109 -54 -157t-181 -48h-201q-125 0 -180.5 48t-55.5 157v571
q0 106 51.5 154.5t169.5 50.5v141h-360v170h944v-170z" />
    <glyph glyph-name="uni0921094D" horiz-adv-x="825" 
d="M283 -125h235l234 -285h-238zM-41 1292h907v-170h-178v-301h-301q-33 0 -44 -10t-11 -43v-102q0 -33 11 -43.5t44 -10.5h117q117 0 167 -45t50 -141v-240q0 -96 -50 -141t-167 -45h-207q-117 0 -167 45t-50 141v146h233v-117q0 -33 10.5 -44t38.5 -11h70q33 0 45 11
t12 44v184q0 31 -12 42.5t-45 11.5h-117q-117 0 -166 45t-49 141v156q0 96 49.5 141t165.5 45h142v141h-498v170z" />
    <glyph glyph-name="uni0922094D" horiz-adv-x="899" 
d="M319 -125h236l233 -285h-237zM727 813h-338q-33 0 -45 -11t-12 -46v-529q0 -35 12 -46t45 -11h129q33 0 45 11.5t12 45.5v146q0 33 -12 44t-45 11h-88v170h143q125 0 180.5 -48t55.5 -157v-188q0 -109 -55.5 -157t-180.5 -48h-239q-125 0 -180.5 48t-55.5 157v590
q0 96 50.5 141t166.5 45h181v141h-537v170h981v-170h-213v-309z" />
    <glyph glyph-name="uni0923094D" horiz-adv-x="796" 
d="M492 387v735h-173v-735q0 -35 12.5 -46t47.5 -11h55q33 0 45.5 11t12.5 46zM852 1292v-170h-129v-757q0 -109 -54.5 -157t-181.5 -48h-163q-127 0 -181.5 48t-54.5 157v757h-129v170h893z" />
    <glyph glyph-name="uni0924094D" horiz-adv-x="442" 
d="M582 1292v-170h-623v170h623zM582 981v-168h-205q-33 0 -45.5 -11t-12.5 -44v-531q0 -33 12.5 -44t45.5 -11h49v-172h-121q-117 0 -167 45t-50 141v609q0 96 50 141t167 45h277z" />
    <glyph glyph-name="uni0925094D" horiz-adv-x="733" 
d="M954 160h-620q-121 0 -178.5 49t-57.5 156v401h226q33 0 45 11t12 44v258q0 31 -12.5 42.5t-44.5 11.5h-13q-33 0 -44 -10.5t-11 -43.5v-84h-141v121q0 96 49 141.5t155 45.5h87q207 0 206 -187v-323q0 -98 -50 -146.5t-167 -48.5h-65v-211q0 -35 12 -46t45 -11h567v-170
z" />
    <glyph glyph-name="uni0926094D" horiz-adv-x="860" 
d="M502 0v184q-25 -25 -84 -24h-96q-125 0 -180.5 48t-55.5 157v430q0 96 50 141t167 45h191v141h-547v170h919v-170h-141v-309h-348q-33 0 -45.5 -11t-12.5 -46v-369q0 -35 11.5 -46t44.5 -11h67q33 0 46.5 12t13.5 47v178h231v-567h-231zM719 -125l233 -285h-237l-232 285
h236z" />
    <glyph glyph-name="uni0927094D" horiz-adv-x="755" 
d="M360 848q0 -35 11.5 -46t44.5 -11h141v-170h-141q-33 0 -44.5 -11.5t-11.5 -44.5v-178q0 -35 11.5 -46t44.5 -11h565v-170h-645q-209 0 -209 186v252q0 92 86 102v9q-86 10 -86 104v303q0 186 209 187h88q207 0 207 -187v-121h-142v84q0 33 -11 43.5t-44 10.5h-18
q-33 0 -44.5 -10.5t-11.5 -43.5v-231z" />
    <glyph glyph-name="uni0928094D" horiz-adv-x="753" 
d="M299 758v-371q0 -35 12.5 -46t46.5 -11h50q33 0 45 11t12 46v426h-109q-33 0 -45 -11t-12 -44zM68 365v430q0 96 50 141t167 45h676v-168h-263v-448q0 -109 -55 -157t-182 -48h-158q-127 0 -181 48t-54 157zM-41 1292h1002v-170h-1002v170z" />
    <glyph glyph-name="uni092A094D" horiz-adv-x="411" 
d="M629 1122h-305v-735q0 -35 11 -46t44 -11h250v-170h-330q-209 0 -209 205v757h-131v170h670v-170z" />
    <glyph glyph-name="uni092B094D" horiz-adv-x="833" 
d="M512 389v733h-188v-735q0 -35 11 -46t44 -11h74q33 0 46 12t13 47zM1026 1122h-283v-237q25 27 84 26h199v-170h-223q-33 0 -46.5 -13t-13.5 -46v-682h-231v186q-25 -27 -86 -26h-127q-209 0 -209 205v757h-131v170h1067v-170z" />
    <glyph glyph-name="uni092C094D" horiz-adv-x="530" 
d="M692 1292v-170h-733v170h733zM293 160q-209 0 -209 205v430q0 96 50 141t167 45h244v-160h-152l125 -207l174 -303v-151h-399zM317 387q0 -35 11.5 -46t44.5 -11h198l-141 229q-94 170 -113 193v-365z" />
    <glyph glyph-name="uni092D094D" horiz-adv-x="862" 
d="M506 387v299h-129q-33 0 -45.5 -11t-12.5 -42v-246q0 -35 12.5 -46t47.5 -11h70q33 0 45 11t12 46zM1075 856v-170h-336v-321q0 -109 -55 -157t-180 -48h-180q-127 0 -181.5 48t-54.5 157v305q0 96 50 141t167 45h201v217q0 33 -11.5 43t-43.5 10h-58q-33 0 -44 -10
t-11 -43v-88h-234v115q0 98 50.5 147t167.5 49h200q115 0 166 -49t51 -147v-244h336z" />
    <glyph glyph-name="uni092E094D" horiz-adv-x="819" 
d="M485 420v295h-145q-33 0 -45 -11.5t-12 -41.5v-242q0 -33 13 -44t46 -11h86q33 0 45 11t12 44zM1006 1122h-287v-237h287v-170h-287v-316q0 -109 -55.5 -156.5t-180.5 -47.5h-180q-127 0 -181 48t-54 156v299q0 96 50 141.5t167 45.5h200v237h-534v170h1055v-170z" />
    <glyph glyph-name="uni092F094D" horiz-adv-x="626" 
d="M844 1292v-170h-303q20 -27 20 -69v-244q0 -98 -48 -147.5t-163 -49.5h-41v-225q0 -35 11.5 -46t44.5 -11h479v-170h-533q-121 0 -178 49t-57 156v417h205q33 0 44 10.5t11 43.5v219q0 43 -14.5 55t-67.5 12h-317v170h907z" />
    <glyph glyph-name="uni0930094D" horiz-adv-x="804" 
d="M721 426v-240q0 -96 -49 -141t-166 -45h-201q-117 0 -167 45t-50 141v750h231v-215h107q39 0 52.5 14.5t13.5 52.5v269q0 41 -12.5 53t-53.5 12h-467v170h887v-170h-137q14 -16 14 -53v-324q0 -100 -60.5 -146t-191.5 -46h-152v-338q0 -33 12.5 -44t45.5 -11h61
q31 0 41 11t10 44v211h232zM700 -125l234 -285h-238l-231 285h235z" />
    <glyph glyph-name="uni0932094D" horiz-adv-x="811" 
d="M965 1292v-170h-1006v170h1006zM518 981q94 0 105 -84h6q10 84 102 84h234v-168h-168q-35 0 -46.5 -12.5t-11.5 -44.5v-387h-231v387q0 33 -11.5 45t-45.5 12h-64q-33 0 -44 -11t-11 -46v-529q0 -33 11 -44t44 -11h117v-172h-189q-117 0 -166 45t-49 141v590
q0 106 51.5 155.5t155.5 49.5h211z" />
    <glyph glyph-name="uni0933094D" horiz-adv-x="1257" 
d="M1321 1292v-170h-1384v170h1384zM973 981q106 0 157.5 -49t51.5 -156v-411q0 -205 -209 -205h-217q-111 0 -121 84h-8q-6 -84 -121 -84h-221q-209 0 -209 205v411q0 205 209 205h221q115 0 121 -84h8q10 84 121 84h217zM948 756q0 35 -11 46t-44 11h-96
q-35 0 -45.5 -12.5t-10.5 -44.5v-369q0 -33 10.5 -45t45.5 -12h96q33 0 44 11t11 46v369zM518 756q0 33 -11 45t-46 12h-96q-33 0 -44.5 -11t-11.5 -46v-369q0 -35 11.5 -46t44.5 -11h96q35 0 46 12t11 45v369z" />
    <glyph glyph-name="uni0935094D" horiz-adv-x="411" 
d="M629 1292v-170h-670v170h670zM428 981v-160h-49q-33 0 -44 -10t-11 -43v-381q0 -35 11 -46t44 -11h250v-170h-330q-209 0 -209 205v430q0 96 50 141t167 45h121z" />
    <glyph glyph-name="uni0936094D" horiz-adv-x="854" 
d="M489 518h-151v-303q0 -33 11 -44t46 -11h62q29 0 40 11t11 44v176h231v-205q0 -96 -50 -141t-167 -45h-200q-117 0 -166.5 45t-49.5 141v609h232v-109h106q39 0 52.5 14.5t13.5 53.5v321q0 33 -11.5 43t-45.5 10h-62q-31 0 -41 -11t-10 -42v-141h-231v168q0 98 50 147
t167 49h198q117 0 167 -49t50 -147v-391q0 -100 -60.5 -146.5t-191.5 -46.5z" />
    <glyph glyph-name="uni0937094D" horiz-adv-x="509" 
d="M332 705v-318q0 -35 11 -46t44 -11h162q47 0 55 28q-254 494 -291 594q19 -102 19 -247zM698 1292v-170h-358l182 -352q80 -152 156 -379l2 -115q-12 -117 -156 -116h-217q-209 0 -209 205v757h-139v170h739z" />
    <glyph glyph-name="uni0938094D" horiz-adv-x="790" 
d="M936 1292v-170h-227q14 -16 14 -53v-256q0 -59 -29 -92h242v-168h-617v-338q0 -33 12.5 -44t45.5 -11h61q31 0 41 11t10 44v211h232v-240q0 -96 -49 -141t-166 -45h-201q-117 0 -167 45t-50 141v750h231v-215h107q39 0 52.5 14.5t13.5 52.5v269q0 41 -12.5 53t-53.5 12
h-467v170h977z" />
    <glyph glyph-name="uni0939094D" horiz-adv-x="804" 
d="M758 813h-371q-33 0 -44 -11t-11 -42v-70q0 -31 11 -41t44 -10h610v-170h-610q-33 0 -44 -11.5t-11 -45.5v-185q0 -35 11 -46t44 -11h381v-170h-434q-121 0 -178.5 49t-57.5 156v241q0 92 86 103v6q-86 10 -86 104v136q0 96 50.5 141t166.5 45h209v141h-565v170h1038
v-170h-239v-309z" />
    <glyph glyph-name="uni0915093C094D" horiz-adv-x="847" 
d="M137 -182v215h195v-215h-195zM1022 1122h-299v-225q23 23 84 23h215v-168h-240q-33 0 -46 -13.5t-13 -48.5v-690h-234v184q-25 -25 -83 -24h-127q-209 0 -209 205v430q0 96 50 141t167 45h121v-160h-50q-33 0 -45 -11t-12 -42v-381q0 -35 12.5 -46t44.5 -11h72
q33 0 46 12t13 47v733h-530v170h1063v-170z" />
    <glyph glyph-name="uni0916093C094D" horiz-adv-x="1093" 
d="M289 -330v215h194v-215h-194zM995 752v-318q0 -35 12.5 -46t45.5 -11h215v-170h-291q-209 0 -209 205v366q0 96 50 141.5t167 45.5h125v-160h-57q-33 0 -45.5 -11t-12.5 -42zM-41 1292h1309v-170h-602q14 -23 14 -53v-403q0 -102 -52.5 -147.5t-168.5 -45.5h-135v-233
q0 -39 13 -53.5t52 -14.5h426v-172h-471q-131 0 -192.5 47t-61.5 148v770h234v-324h57q39 0 52 14.5t13 53.5v348q0 41 -12 53t-53 12h-422v170z" />
    <glyph glyph-name="uni0917093C094D" horiz-adv-x="806" 
d="M287 -217v215h194v-215h-194zM356 330h72q33 0 45 11t12 46v356h-125q-41 0 -52 -11t-11 -52v-293q0 -35 13 -46t46 -11zM852 1292v-170h-133v-757q0 -109 -55.5 -157t-180.5 -48h-182q-125 0 -180 48t-55 157v354q0 102 60 148t191 46h168v209h-526v170h893z" />
    <glyph glyph-name="uni091C093C094D" horiz-adv-x="786" 
d="M303 0h195v-215h-195v215zM963 1292v-170h-1004v170h1004zM319 981v-594q0 -35 12.5 -46t47.5 -11h55q33 0 45.5 11t12.5 46v594h471v-168h-240v-448q0 -109 -54.5 -157t-181.5 -48h-163q-127 0 -181.5 48t-54.5 157v616h231z" />
    <glyph glyph-name="uni0928093C094D" horiz-adv-x="753" 
d="M498 -217v215h194v-215h-194zM299 758v-371q0 -35 12.5 -46t46.5 -11h50q33 0 45 11t12 46v426h-109q-33 0 -45 -11t-12 -44zM68 365v430q0 96 50 141t167 45h676v-168h-263v-448q0 -109 -55 -157t-182 -48h-158q-127 0 -181 48t-54 157zM-41 1292h1002v-170h-1002v170z
" />
    <glyph glyph-name="uni092B093C094D" horiz-adv-x="911" 
d="M172 -217v215h195v-215h-195zM512 389v733h-188v-735q0 -35 11 -46t44 -11h74q33 0 46 12t13 47zM1026 1122h-283v-237q25 27 84 26h199v-170h-223q-33 0 -46.5 -13t-13.5 -46v-682h-231v186q-25 -27 -86 -26h-127q-209 0 -209 205v757h-131v170h1067v-170z" />
    <glyph glyph-name="uni092F093C094D" horiz-adv-x="626" 
d="M362 -209v215h195v-215h-195zM844 1292v-170h-303q20 -27 20 -69v-244q0 -98 -48 -147.5t-163 -49.5h-41v-225q0 -35 11.5 -46t44.5 -11h479v-170h-533q-121 0 -178 49t-57 156v417h205q33 0 44 10.5t11 43.5v219q0 43 -14.5 55t-67.5 12h-317v170h907z" />
    <glyph glyph-name="itfStar" horiz-adv-x="1376" 
d="M1358 926l-447 -287q14 -33 98.5 -257t94.5 -249l-418 344q-41 -29 -420 -344l197 506q-29 16 -227.5 143t-225.5 144l535 -17q53 209 141 504l135 -504q279 17 537 17z" />
    <glyph glyph-name="uni09080902" horiz-adv-x="806" 
d="M698 1538v-246h150v-170h-150v-301h-342q-33 0 -45 -11t-12 -42v-68q0 -31 12.5 -42t44.5 -11h154q117 0 167 -45t50 -143v-183q0 -96 -50 -141t-167 -45h-195v-145h-233v422h233v-117h123q35 0 46.5 10t11.5 43v129q0 33 -11.5 43t-46.5 10h-153q-117 0 -167 45t-50 144
v121q0 96 50 141t167 45h182v141h-508v170h508v273q0 96 49 141t166 45h176v-160h-102q-35 0 -46.5 -10t-11.5 -43zM766 1524h162v-172h-162v172z" />
    <glyph glyph-name="uni09300941" horiz-adv-x="1208" 
d="M1249 1292v-170h-540q14 -16 14 -53v-88h225q117 0 166 -45t49 -141v-271h-231v234q0 33 -11.5 43t-46.5 10h-151v-66q0 -100 -60.5 -146t-191.5 -46h-152v-338q0 -33 12.5 -44t45.5 -11h61q31 0 41 11t10 44v211h232v-240q0 -96 -49 -141t-166 -45h-201q-117 0 -167 45
t-50 141v750h231v-215h107q39 0 52.5 14.5t13.5 52.5v269q0 41 -12.5 53t-53.5 12h-467v170h1290z" />
    <glyph glyph-name="uni09300942" horiz-adv-x="1249" 
d="M1290 1292v-170h-581q14 -16 14 -53v-88h231q117 0 167 -45t50 -141v-420q0 -98 -50 -143.5t-167 -45.5h-139v174h68q33 0 44 10.5t11 43.5v344q0 33 -11.5 43t-43.5 10h-160v-66q0 -100 -60.5 -146t-191.5 -46h-152v-338q0 -33 12.5 -44t45.5 -11h61q31 0 41 11t10 44
v211h232v-240q0 -96 -49 -141t-166 -45h-201q-117 0 -167 45t-50 141v750h231v-215h107q39 0 52.5 14.5t13.5 52.5v269q0 41 -12.5 53t-53.5 12h-467v170h1331z" />
    <glyph glyph-name="uni09390941" horiz-adv-x="856" 
d="M758 813h-371q-33 0 -44 -11t-11 -42v-62q0 -31 11 -42t44 -11h145q127 0 181.5 -48t54.5 -157v-96h-231v76q0 35 -12.5 46t-47.5 11h-90q-33 0 -44 -11t-11 -46v-193q0 -35 11 -46t44 -11h176q106 0 157.5 -49t51.5 -156v-106q0 -205 -209 -205h-227q-135 0 -204 38
t-130 144l-70 119h275l47 -78q33 -53 104 -53h119q39 0 51.5 12t12.5 51v50q0 39 -12.5 51t-51.5 12h-143q-131 0 -183.5 47t-52.5 158v248q0 94 86 104v6q-86 10 -86 105v127q0 96 50.5 141t166.5 45h209v141h-565v170h950v-170h-151v-309z" />
    <glyph glyph-name="uni09390942" horiz-adv-x="868" 
d="M541 0h-86q-41 0 -52.5 -12.5t-11.5 -50.5v-50q0 -39 11.5 -51t52.5 -12h106v-170h-192q-104 0 -152.5 48t-48.5 157v106q0 37 6 66q-76 33 -76 166v256q0 94 86 104v6q-86 10 -86 105v127q0 96 50.5 141t166.5 45h209v141h-565v170h950v-170h-151v-309h-371
q-33 0 -44 -11t-11 -42v-62q0 -31 11 -42t44 -11h145q127 0 181.5 -48t54.5 -157v-96h-231v76q0 35 -12.5 46t-47.5 11h-90q-33 0 -44 -11t-11 -46v-193q0 -35 11 -46t44 -11h166q125 0 184.5 -37t126.5 -141l209 -336h-258l-178 285q-37 59 -96 59z" />
    <glyph glyph-name="uni09260943" horiz-adv-x="825" 
d="M725 813h-348q-33 0 -45.5 -11t-12.5 -46v-369q0 -35 11.5 -46t44.5 -11h67q33 0 46.5 12t13.5 47v178h231v-727h-168q-35 0 -46 -10t-11 -43v-72q0 -33 11 -43t46 -10h271v-170h-342q-117 0 -167.5 45t-50.5 141v136q0 98 48.5 142t164.5 44h13v184q-25 -25 -84 -24h-96
q-125 0 -180.5 48t-55.5 157v430q0 96 50 141t167 45h191v141h-547v170h919v-170h-141v-309z" />
    <glyph glyph-name="uni09390943" horiz-adv-x="841" 
d="M741 821h-354q-33 0 -44 -11t-11 -40v-51q0 -31 11 -42t44 -11h174q141 0 141 -103q0 -45 -38.5 -106.5t-38.5 -77.5q0 -25 30 -25h82v-123h-159q-135 0 -136 99q0 41 37 97t37 73q0 25 -31 24h-98q-33 0 -44 -11t-11 -46v-258q0 -35 11 -46t44 -11h381v-152h-434
q-121 0 -178.5 49t-57.5 156v260q0 92 86 102v6q-86 10 -86 105v117q0 96 50.5 141t166.5 45h195v141h-551v170h934v-170h-152v-301z" />
    <glyph glyph-name="uni094D0928.post" horiz-adv-x="432" 
d="M471 1292v-170h-139v-1122h-232v254l-235 -217q-27 -23 -28 -37t22 -39l63 -74l-172 -155l-92 104q-131 135 35 285l407 366v635h-139v170h510z" />
    <glyph glyph-name="uni094D092F.post" horiz-adv-x="1112" 
d="M1153 1292v-170h-139v-1122h-234v184q-25 -25 -80 -24h-333q-121 0 -178.5 49t-57.5 156v253h205q33 0 45 11.5t12 42.5v104q0 31 -12 42t-45 11h-377v164h447q115 0 163.5 -48t48.5 -148v-135q0 -98 -49 -146.5t-163 -48.5h-41v-80q0 -35 11 -46t44 -11h291q39 0 54 15
t15 54v723h-821v170h1194z" />
    <glyph glyph-name="uni094D0930.post" horiz-adv-x="432" 
d="M471 1292v-170h-139v-1122h-232v252l-356 -381h-242l598 631v620h-139v170h510z" />
    <glyph glyph-name="uni094D0930" horiz-adv-x="0" 
d="M-344 57h260l201 -350h-207l-123 242l-127 -242h-209z" />
    <glyph glyph-name="uni0930094D.1" horiz-adv-x="647" 
d="M688 782v-170h-250q-115 0 -164 48.5t-49 148.5v133h226v-106q0 -31 12 -42.5t45 -11.5h180zM-41 1292h729v-170h-729v170z" />
    <glyph glyph-name="uni0930094D.2" horiz-adv-x="0" 
d="M47 1446h-88q-33 0 -44 -10.5t-11 -40.5v-138h-234v164q0 96 50.5 141.5t166.5 45.5h160v-162z" />
    <glyph glyph-name="uni0930094D0902" horiz-adv-x="0" 
d="M59 1751v-160h-102q-35 0 -46 -10t-11 -43v-281h-232v308q0 96 49.5 141t165.5 45h176zM-33 1524h162v-172h-162v172z" />
    <glyph glyph-name="uni093E0930094D" horiz-adv-x="432" 
d="M475 1446h-88q-33 0 -44 -10.5t-11 -40.5v-103h139v-170h-139v-1122h-232v1122h-139v170h137v129q0 96 50.5 141.5t166.5 45.5h160v-162z" />
    <glyph glyph-name="uni093E0930094D0902" horiz-adv-x="432" 
d="M332 1538v-246h139v-170h-139v-1122h-232v1122h-139v170h139v273q0 96 49.5 141t165.5 45h177v-160h-103q-35 0 -46 -10t-11 -43zM399 1524h162v-172h-162v172z" />
    <glyph glyph-name="uni0930094D.aMatraI" horiz-adv-x="0" 
d="M143 1446h-88q-33 0 -44 -10.5t-11 -40.5v-138h-233v164q0 96 50 141.5t167 45.5h159v-162z" />
    <glyph glyph-name="uni0902.aMatraI" horiz-adv-x="0" 
d="M49 1561h195v-215h-195v215z" />
    <glyph glyph-name="uni0930094D0902.aMatraI" horiz-adv-x="0" 
d="M160 1751v-160h-103q-35 0 -46 -10t-11 -43v-281h-231v308q0 96 49 141t166 45h176zM68 1524h161v-172h-161v172z" />
    <glyph glyph-name="uni09400930094D" 
d="M506 1614h-107q-43 0 -55 -12.5t-12 -55.5v-254h139v-170h-139v-1122h-234v1122h-139v170h139v176q0 43 -12 55.5t-55 12.5h-88q-43 0 -56.5 -12.5t-13.5 -55.5v-94h-231v139q0 193 200 193h240q125 0 129 -90h8v37q0 131 148 131h139v-170z" />
    <glyph glyph-name="uni09400902" 
d="M332 1513v-221h139v-170h-139v-1122h-234v1122h-139v170h139v176q0 43 -12 55.5t-55 12.5h-88q-45 0 -57.5 -12.5t-12.5 -55.5v-94h-231v139q0 193 200 193h289q201 0 201 -193zM399 1597h193v-215h-193v215z" />
    <glyph glyph-name="uni09400930094D0902" 
d="M332 1546v-254h139v-170h-139v-1122h-234v1122h-139v170h139v176q0 43 -12 55.5t-55 12.5h-88q-43 0 -56.5 -12.5t-13.5 -55.5v-94h-231v139q0 193 200 193h240q125 0 129 -90h8v37q0 131 148 131h139v-170h-107q-43 0 -55 -12.5t-12 -55.5zM403 1536h164v-170h-164v170z
" />
    <glyph glyph-name="uni0940.aLong" 
d="M471 1292v-170h-139v-1122h-234v1122h-139v170h139v176q0 43 -12 55.5t-55 12.5h-449q-45 0 -57 -12.5t-12 -55.5v-94h-232v139q0 193 201 193h649q201 0 201 -193v-221h139z" />
    <glyph glyph-name="uni09400930094D.aLong" 
d="M506 1614h-107q-43 0 -55 -12.5t-12 -55.5v-254h139v-170h-139v-1122h-234v1122h-139v170h139v176q0 43 -12 55.5t-55 12.5h-449q-43 0 -55 -12.5t-12 -55.5v-94h-234v139q0 193 201 193h600q125 0 129 -90h8v37q0 131 148 131h139v-170z" />
    <glyph glyph-name="uni09400902.aLong" 
d="M332 1513v-221h139v-170h-139v-1122h-234v1122h-139v170h139v176q0 43 -12 55.5t-55 12.5h-449q-45 0 -57 -12.5t-12 -55.5v-94h-232v139q0 193 201 193h649q201 0 201 -193zM399 1597h193v-215h-193v215z" />
    <glyph glyph-name="uni09400930094D0902.aLong" 
d="M332 1546v-254h139v-170h-139v-1122h-234v1122h-139v170h139v176q0 43 -12 55.5t-55 12.5h-449q-43 0 -55 -12.5t-12 -55.5v-94h-234v139q0 193 201 193h600q125 0 129 -90h8v37q0 131 148 131h139v-170h-107q-43 0 -55 -12.5t-12 -55.5zM408 1526h163v-172h-163v172z
" />
    <glyph glyph-name="uni09470930094D" horiz-adv-x="0" 
d="M-272 1606q0 178 198 178h113v-170h-76q-43 0 -55 -12.5t-12 -55.5v-272h-224q-154 113 -270 266l-113 152h281l80 -113q68 -100 94 -184h6q-22 119 -22 211z" />
    <glyph glyph-name="uni09470902" horiz-adv-x="0" 
d="M-391 1692l293 -418h-228q-92 78 -215 239l-129 179h279zM-203 1681h193v-215h-193v215z" />
    <glyph glyph-name="uni09470930094D0902" horiz-adv-x="0" 
d="M-57 1536h163v-172h-163v172zM-272 1606q0 178 198 178h113v-170h-76q-43 0 -55 -12.5t-12 -55.5v-272h-224q-154 113 -270 266l-113 152h281l80 -113q68 -100 94 -184h6q-22 119 -22 211z" />
    <glyph glyph-name="uni09480930094D" horiz-adv-x="0" 
d="M-213 1577q0 135 150 135h102v-170h-70q-43 0 -58 -14.5t-15 -59.5v-190h-228q-82 39 -258 174l-309 240h285q227 -217 370 -387h8q-100 127 -180 260l-82 127h226q59 -211 67 -260h6q-14 71 -14 145z" />
    <glyph glyph-name="uni09480902" horiz-adv-x="0" 
d="M-823 1692h284q217 -252 303 -387h9q-35 63 -72 149l-98 238h223l65 -414h-225q-86 51 -223 174zM-82 1575h193v-215h-193v215z" />
    <glyph glyph-name="uni09480930094D0902" horiz-adv-x="0" 
d="M-213 1649q0 135 152 135h102v-170h-68q-45 0 -59 -14.5t-14 -57.5v-264h-230q-76 37 -256 174l-309 240h285q246 -240 368 -387h11q-90 109 -183 260l-80 127h224q59 -211 67 -260h6q-16 131 -16 217zM-47 1534h164v-172h-164v172z" />
    <glyph glyph-name="uni094A0902" horiz-adv-x="432" 
d="M332 1411v-119h139v-170h-139v-1122h-232v1122h-139v170h137v56q0 43 -12 55t-55 12h-185q-174 0 -174 174v111h234v-47q0 -43 12 -55.5t55 -12.5h185q174 0 174 -174zM356 1698h193v-215h-193v215z" />
    <glyph glyph-name="uni094B0930094D" horiz-adv-x="432" 
d="M475 1614h-76q-43 0 -55 -12.5t-12 -55.5v-254h139v-170h-139v-1122h-232v1122h-139v170h123q-143 111 -246 248l-112 152h280l80 -113q68 -100 94 -184h6q-23 119 -22 211q0 178 198 178h113v-170z" />
    <glyph glyph-name="uni094B0902" horiz-adv-x="432" 
d="M428 1681v-215h-192v215h192zM471 1292v-170h-139v-1122h-232v1122h-139v170h131q-86 78 -194 221l-129 179h278l281 -400h143z" />
    <glyph glyph-name="uni094B0930094D0902" horiz-adv-x="432" 
d="M334 1546v-254h137v-170h-139v-1122h-232v1122h-139v170h125q-143 111 -246 248l-112 152h280l80 -113q68 -100 94 -184h6q-23 119 -22 211q0 178 199 178h112v-170h-76q-43 0 -55 -12.5t-12 -55.5zM381 1536h162v-172h-162v172z" />
    <glyph glyph-name="uni094C0930094D" horiz-adv-x="432" 
d="M475 1542h-69q-43 0 -58.5 -14.5t-15.5 -59.5v-176h139v-170h-139v-1122h-232v1122h-139v170h115q-72 39 -230 160l-309 240h285q227 -217 371 -387h8q-100 127 -181 260l-81 127h225q59 -211 67 -260h7q-14 72 -15 145q0 135 150 135h102v-170z" />
    <glyph glyph-name="uni094C0902" horiz-adv-x="432" 
d="M471 1292v-170h-139v-1122h-232v1122h-139v170h125q-82 53 -201 160l-266 240h285q217 -252 303 -387h8q-35 63 -72 149l-98 238h223l64 -400h139zM360 1575h193v-215h-193v215z" />
    <glyph glyph-name="uni094C0930094D0902" horiz-adv-x="432" 
d="M371 1784h102v-170h-67q-45 0 -59.5 -14.5t-14.5 -57.5v-250h139v-170h-139v-1122h-232v1122h-139v170h113q-63 35 -228 160l-309 240h285q246 -240 368 -387h11q-90 109 -183 260l-79 127h223q59 -211 67 -260h7q-16 131 -17 217q0 135 152 135zM385 1534h164v-172h-164
v172z" />
    <glyph glyph-name="uni0915094D0937" horiz-adv-x="1318" 
d="M573 799v276q0 35 -13 46.5t-46 11.5h-61q-33 0 -45.5 -11.5t-12.5 -46.5v-276q0 -35 12.5 -46.5t45.5 -11.5h61q33 0 46 11.5t13 46.5zM1360 1292v-170h-141v-1122h-232v573h-639q-35 0 -47 -11t-12 -44v-203q0 -35 12 -46t47 -11h150q37 0 53 15.5t16 52.5v104h234
v-485h-234v176q-23 -31 -90 -31h-233q-186 0 -187 189v270q0 162 131 188q-27 25 -26 76v285q0 109 55 157t180 48h172q125 0 180.5 -48.5t55.5 -156.5v-303q0 -33 -17 -54h199v551h373z" />
    <glyph glyph-name="uni0915094D0937094D" horiz-adv-x="987" 
d="M395 1075v-276q0 -35 12.5 -46.5t45.5 -11.5h61q33 0 46 11.5t13 46.5v276q0 35 -13 46.5t-46 11.5h-61q-33 0 -45.5 -11.5t-12.5 -46.5zM1055 573h-707q-35 0 -47 -11t-12 -44v-203q0 -35 12 -46t47 -11h150q37 0 53 15.5t16 52.5v104h234v-485h-234v176
q-23 -31 -90 -31h-233q-186 0 -187 189v270q0 162 131 188q-27 25 -26 76v285q0 109 55 157t180 48h172q125 0 180.5 -48.5t55.5 -156.5v-303q0 -33 -17 -54h267v-168z" />
    <glyph glyph-name="uni0915094D0937094D092E" horiz-adv-x="2183" 
d="M1851 885v237h-198v-237h198zM1419 420v295h-145q-33 0 -45 -11.5t-12 -41.5v-242q0 -33 13 -44t46 -11h86q33 0 45 11t12 44zM573 799v276q0 35 -13 46.5t-46 11.5h-61q-33 0 -45.5 -11.5t-12.5 -46.5v-276q0 -35 12.5 -46.5t45.5 -11.5h61q33 0 46 11.5t13 46.5z
M2224 1292v-170h-139v-1122h-234v715h-198v-316q0 -109 -55.5 -156.5t-180.5 -47.5h-180q-127 0 -181.5 48t-54.5 156v174h-653q-35 0 -47 -11t-12 -44v-203q0 -35 12 -46t47 -11h150q37 0 53 15.5t16 52.5v104h234v-485h-234v176q-23 -31 -90 -31h-233q-186 0 -187 189v270
q0 162 131 188q-27 25 -26 76v285q0 109 55 157t180 48h172q125 0 180.5 -48.5t55.5 -156.5v-303q0 -33 -17 -54h216q20 143 215 144h200v237h-526v170h1331z" />
    <glyph glyph-name="uni0915094D0937094D092E094D" horiz-adv-x="1851" 
d="M1436 420v295h-146q-33 0 -45 -11.5t-12 -41.5v-242q0 -33 13.5 -44t45.5 -11h86q33 0 45.5 11t12.5 44zM573 799v276q0 35 -13 46.5t-46 11.5h-61q-33 0 -45.5 -11.5t-12.5 -46.5v-276q0 -35 12.5 -46.5t45.5 -11.5h61q33 0 46 11.5t13 46.5zM1956 1122h-287v-237h287
v-170h-287v-316q0 -109 -55 -156.5t-180 -47.5h-181q-127 0 -181 48t-54 156v174h-670q-35 0 -47 -11t-12 -44v-203q0 -35 12 -46t47 -11h150q37 0 53 15.5t16 52.5v104h234v-485h-234v176q-23 -31 -90 -31h-233q-186 0 -187 189v270q0 162 131 188q-27 25 -26 76v285
q0 109 55 157t180 48h172q125 0 180.5 -48.5t55.5 -156.5v-303q0 -33 -17 -54h232q20 143 215 144h201v237h-535v170h1055v-170z" />
    <glyph glyph-name="uni0915094D0937094D092E094D092F" horiz-adv-x="2779" 
d="M2447 399v723h-184q23 -27 23 -69v-138q0 -100 -49.5 -148t-163.5 -48h-41v-332q0 -35 11 -46t44 -11h291q39 0 54 15t15 54zM1632 889h371q33 0 45 11t12 42v113q0 43 -15 55t-69 12h-344v-233zM1399 387v332h-109q-33 0 -45 -11.5t-12 -41.5v-279q0 -35 12 -46t47 -11
h49q33 0 45.5 11t12.5 46zM573 799v276q0 35 -13 46.5t-46 11.5h-61q-33 0 -45.5 -11.5t-12.5 -46.5v-276q0 -35 12.5 -46.5t45.5 -11.5h61q33 0 46 11.5t13 46.5zM2820 1292v-170h-139v-1122h-234v184q-25 -25 -80 -24h-333q-121 0 -178.5 49t-57.5 156v354h-166v-354
q0 -109 -55 -157t-182 -48h-158q-127 0 -181.5 48t-54.5 157v208h-653q-35 0 -47 -11t-12 -44v-203q0 -35 12 -46t47 -11h150q37 0 53 15.5t16 52.5v104h234v-485h-234v176q-23 -31 -90 -31h-233q-186 0 -187 189v270q0 162 131 188q-27 25 -26 76v285q0 109 55 157t180 48
h172q125 0 180.5 -48.5t55.5 -156.5v-303q0 -33 -17 -54h216q18 147 215 148h180v233h-506v170h1927z" />
    <glyph glyph-name="uni0915094D0937094D092F" horiz-adv-x="1968" 
d="M1638 399v723h-186q23 -27 23 -69v-250q0 -98 -49.5 -147.5t-163.5 -49.5h-41v-219q0 -35 11 -46t46 -11h291q41 0 55 15t14 54zM573 834v241q0 35 -13 46.5t-46 11.5h-61q-33 0 -45.5 -11.5t-12.5 -46.5v-241q0 -35 12.5 -46.5t45.5 -11.5h61q33 0 46 11.5t13 46.5z
M2009 1292v-170h-139v-1122h-232v186q-25 -27 -82 -26h-331q-121 0 -178.5 49t-57.5 156v243h-641q-35 0 -47 -13t-12 -56v-224q0 -35 12 -46t47 -11h150q37 0 53 15.5t16 52.5v104h234v-485h-234v176q-23 -31 -90 -31h-233q-186 0 -187 189v292q0 174 131 201
q-27 25 -26 76v250q0 109 55 157t180 48h172q125 0 180.5 -48.5t55.5 -156.5v-271q0 -31 -14 -51h401q35 0 46 10.5t11 42.5v226q0 43 -15 55t-69 12h-227v170h1071z" />
    <glyph glyph-name="uni0915094D0937094D0935" horiz-adv-x="1755" 
d="M573 799v276q0 35 -13 46.5t-46 11.5h-61q-33 0 -45.5 -11.5t-12.5 -46.5v-276q0 -35 12.5 -46.5t45.5 -11.5h61q33 0 46 11.5t13 46.5zM1782 1292v-170h-142v-1122h-231v186q-25 -27 -84 -26h-129q-207 0 -207 205v208h-641q-35 0 -47 -11t-12 -44v-203q0 -35 12 -46
t47 -11h150q37 0 53 15.5t16 52.5v104h234v-485h-234v176q-23 -31 -90 -31h-233q-186 0 -187 189v270q0 162 131 188q-27 25 -26 76v285q0 109 55 157t180 48h172q125 0 180.5 -48.5t55.5 -156.5v-303q0 -33 -17 -54h201v54q0 96 49 141t166 45h121v-160h-47q-35 0 -46 -10
t-11 -43v-381q0 -35 11 -46t46 -11h72q33 0 46 12t13 47v733h-471v170h844z" />
    <glyph glyph-name="uni091C094D091E" horiz-adv-x="1212" 
d="M1253 1292v-170h-141v-1122h-233v784h-174q14 -16 14 -51v-457q0 -96 -50.5 -141t-166.5 -45h-178v-145h-234v456h234v-151h106q33 0 44 10t11 43v428q0 33 -11 43t-44 10h-291v170h740v168h-920v170h1294z" />
    <glyph glyph-name="uni091C094D091E094D" horiz-adv-x="780" 
d="M139 784v170h846v-170h-280q14 -16 14 -51v-457q0 -96 -50.5 -141t-166.5 -45h-178v-145h-234v456h234v-151h106q33 0 44 10t11 43v428q0 33 -11 43t-44 10h-291zM-41 1292h1026v-170h-1026v170z" />
    <glyph glyph-name="uni091C094D091E094D092F" horiz-adv-x="1851" 
d="M1520 399v723h-185q23 -27 23 -69v-172q0 -98 -48 -147.5t-165 -49.5h-41v-297q0 -35 11 -46t44 -11h291q41 0 55.5 15t14.5 54zM1892 1292v-170h-139v-1122h-233v184q-25 -25 -80 -24h-334q-121 0 -178.5 49t-57.5 156v319h-165q14 -16 14 -51v-357q0 -96 -50.5 -141
t-166.5 -45h-178v-145h-234v456h234v-151h106q33 0 44 10t11 43v328q0 33 -11 43t-44 10h-291v170h936q33 0 45.5 11.5t12.5 41.5v148q0 43 -15.5 55t-68.5 12h-1090v170h1933z" />
    <glyph glyph-name="uni0915094D0928" horiz-adv-x="2027" 
d="M1696 920v202h-973v-225q23 23 84 23h889zM1309 387v365h-111q-33 0 -44 -11.5t-11 -44.5v-309q0 -35 12 -46t45 -11h49q35 0 47.5 11t12.5 46zM2068 1292v-170h-141v-1122h-231v752h-156v-387q0 -109 -54 -157t-181 -48h-158q-127 0 -182.5 48t-55.5 157v387h-127
q-33 0 -46 -13.5t-13 -48.5v-690h-234v184q-25 -25 -83 -24h-127q-209 0 -209 205v430q0 96 50 141t167 45h121v-160h-50q-33 0 -45 -11t-12 -42v-381q0 -35 12.5 -46t44.5 -11h72q33 0 46 12t13 47v733h-530v170h2109z" />
    <glyph glyph-name="uni0916094D0928" horiz-adv-x="2297" 
d="M1579 387v426h-109q-33 0 -44 -11t-11 -44v-371q0 -35 12.5 -46t45.5 -11h49q33 0 45 11t12 46zM2339 1292v-170h-139v-1122h-232v813h-156v-448q0 -109 -55 -157t-180 -48h-160q-160 0 -207 80q-31 -33 -100 -33h-133q-209 0 -209 205v383q0 96 50 141t167 45h125v-160
h-57q-33 0 -45.5 -11t-12.5 -42v-334q0 -35 12.5 -46t45.5 -11h61q37 0 52.5 14.5t15.5 50.5v353q0 96 50 141t167 45h569v141h-1302q14 -23 14 -53v-385q0 -102 -52.5 -148.5t-168.5 -46.5h-135v-249q0 -39 13 -53.5t52 -14.5h469v-172h-514q-131 0 -192.5 47t-61.5 148
v770h234v-306h57q39 0 52 13.5t13 52.5v332q0 41 -12 53t-53 12h-422v170h2380z" />
    <glyph glyph-name="uni0917094D0928" horiz-adv-x="2007" 
d="M1288 387v426h-108q-33 0 -45.5 -11t-12.5 -44v-371q0 -35 12.5 -46t47.5 -11h49q33 0 45 11t12 46zM356 330h72q33 0 45 11t12 46v356h-125q-41 0 -52 -11t-11 -52v-293q0 -35 13 -46t46 -11zM2048 1292v-170h-139v-1122h-234v813h-153v-448q0 -109 -55.5 -157
t-182.5 -48h-158q-127 0 -181 48t-54 157v430q0 96 50 141t167 45h567v141h-956v-757q0 -109 -55.5 -157t-180.5 -48h-182q-125 0 -180 48t-55 157v354q0 102 60 148t191 46h168v209h-526v170h2089z" />
    <glyph glyph-name="uni0918094D0928" horiz-adv-x="1726" 
d="M1393 981v141h-1004q-41 0 -53 -12t-12 -53v-191q0 -35 11 -46t44 -11h108v-168h-108q-33 0 -44 -11.5t-11 -45.5v-197q0 -35 11 -46t44 -11h158q39 0 54 14t15 53v398q0 96 50.5 141t166.5 45h570zM1006 387v426h-111q-33 0 -44 -11t-11 -44v-371q0 -35 12 -46t45 -11
h49q33 0 46.5 11t13.5 46zM1765 1292v-170h-141v-1122h-231v813h-156v-448q0 -109 -55.5 -157t-180.5 -48h-159q-125 0 -180 47q-35 -47 -123 -47h-211q-123 0 -180.5 49t-57.5 156v251q0 96 86 103v8q-86 10 -86 104v238q0 33 14 53h-145v170h1806z" />
    <glyph glyph-name="uni091A094D0928" horiz-adv-x="1681" 
d="M963 387v426h-109q-33 0 -44 -11t-11 -44v-371q0 -35 12 -46t45 -11h49q33 0 45.5 11t12.5 46zM1722 1292v-170h-139v-1122h-231v813h-156v-448q0 -109 -55.5 -157t-179.5 -48h-160q-135 0 -191 57q-33 -57 -131 -57h-153q-209 0 -209 205v368q0 55 28 80h-149v168h477
v-168h-67q-33 0 -44.5 -11t-11.5 -46v-369q0 -35 11.5 -46t44.5 -11h90q39 0 54 14t15 53v398q0 96 50.5 141t166.5 45h570v141h-1393v170h1763z" />
    <glyph glyph-name="uni091B094D0928" horiz-adv-x="1206" 
d="M725 1122h-309l10 -2q-63 4 -81.5 -7t-18.5 -56v-277q0 -35 12 -46t45 -11h72v-168h-72q-33 0 -45 -11.5t-12 -45.5v-269q0 -35 12 -46t45 -11h448q35 0 46.5 11.5t11.5 45.5v547q0 33 -11.5 43t-46.5 10h-36q-33 0 -44.5 -10t-11.5 -43v-188q0 -33 11.5 -43t44.5 -10h32
v-152h-77q-201 0 -201 186v226q0 90 43 134t133 50v143zM1247 1122h-305v-143q88 -8 131 -52t43 -132v-590q0 -104 -56 -153.5t-173 -51.5v-508h-189v221h-155q-33 0 -44.5 -11t-11.5 -46v-68l-188 2v95q0 186 195 186h204v129h-368q-121 0 -178.5 49t-57.5 156v325
q0 94 84 105v6q-84 10 -84 104v324q0 37 15 53h-150v170h1288v-170z" />
    <glyph glyph-name="uni091C094D0928" horiz-adv-x="2011" 
d="M1292 387v426h-108q-33 0 -45.5 -11t-12.5 -44v-371q0 -35 13.5 -46t46.5 -11h49q33 0 45 11t12 46zM2052 1292v-170h-139v-1122h-234v813h-153v-448q0 -109 -55.5 -157t-180.5 -48h-160q-125 0 -180 48t-55 157v448h-172v-448q0 -109 -54.5 -157t-181.5 -48h-163
q-127 0 -181.5 48t-54.5 157v616h231v-594q0 -35 12.5 -46t47.5 -11h55q33 0 45.5 11t12.5 46v594h1187v141h-1720v170h2093z" />
    <glyph glyph-name="uni091D094D0928" horiz-adv-x="2015" 
d="M1683 981v141h-974v-301h-340q-33 0 -45.5 -11t-12.5 -42v-68q0 -31 12.5 -42t45.5 -11h530v148q0 96 50 141t167 45h567zM1296 387v426h-108q-33 0 -45.5 -11t-12.5 -44v-371q0 -35 12.5 -46t47.5 -11h49q33 0 45 11t12 46zM2056 1292v-170h-139v-1122h-234v813h-153
v-448q0 -109 -55.5 -157t-182.5 -48h-157q-127 0 -181.5 48t-54.5 157v120h-170q4 -29 4 -43v-166q0 -96 -50 -141t-167 -45h-201v-145h-233v422h233v-117h129q33 0 45.5 11t12.5 42v129q0 31 -12.5 42t-45.5 11h-147q-117 0 -167 45t-50 144v121q0 96 50 141t167 45h178
v141h-516v170h2097z" />
    <glyph glyph-name="uni091F094D0928" horiz-adv-x="823" 
d="M727 813h-338q-33 0 -45 -11t-12 -46v-529q0 -35 12 -46t45 -11h55q33 0 46.5 11.5t13.5 45.5v211h231v-233q0 -102 -51 -154v-559h-186v221h-103q-33 0 -45 -11t-12 -46v-68l-186 2v95q0 186 194 186h152v129h-164q-125 0 -180.5 48t-55.5 157v590q0 96 50.5 141
t166.5 45h181v141h-537v170h905v-170h-137v-309z" />
    <glyph glyph-name="uni0920094D0928" horiz-adv-x="862" 
d="M389 170h92q33 0 45.5 11.5t12.5 45.5v529q0 35 -12.5 46t-45.5 11h-92q-33 0 -45 -11t-12 -46v-529q0 -35 12 -46t45 -11zM903 1122h-352v-141q119 -2 169 -50t50 -155v-571q0 -135 -88 -178v-535h-188v221h-91q-33 0 -45 -11t-12 -46v-68l-186 2v95q0 98 48 142t146 44
h140v129h-160q-125 0 -180.5 48t-55.5 157v571q0 106 51.5 154.5t169.5 50.5v141h-360v170h944v-170z" />
    <glyph glyph-name="uni0921094D0928" horiz-adv-x="825" 
d="M688 821h-301q-33 0 -44 -10t-11 -43v-102q0 -33 11 -43.5t44 -10.5h117q117 0 167 -45t50 -141v-240q0 -106 -62 -149v-545h-188v221h-100q-35 0 -46.5 -11t-11.5 -46v-68l-186 2v95q0 98 48 142t147 44h149v129h-174q-117 0 -167 45t-50 141v146h233v-117
q0 -33 10.5 -44t38.5 -11h70q33 0 45 11t12 44v184q0 31 -12 42.5t-45 11.5h-117q-117 0 -166 45t-49 141v156q0 96 49.5 141t165.5 45h142v141h-498v170h907v-170h-178v-301z" />
    <glyph glyph-name="uni0924094D0928" horiz-adv-x="1656" 
d="M938 387v426h-109q-33 0 -45 -11t-12 -44v-371q0 -35 13.5 -46t45.5 -11h50q33 0 45 11t12 46zM1698 1292v-170h-139v-1122h-234v813h-154v-448q0 -109 -55 -157t-180 -48h-160q-125 0 -180 48t-55 157v448h-164q-33 0 -45.5 -11t-12.5 -44v-531q0 -33 12.5 -44t45.5 -11
h49v-172h-121q-117 0 -167 45t-50 141v609q0 96 50 141t167 45h1020v141h-1366v170h1739z" />
    <glyph glyph-name="uni0925094D0928" horiz-adv-x="1865" 
d="M1147 387v426h-111q-33 0 -44 -11t-11 -44v-371q0 -35 12.5 -46t44.5 -11h49q35 0 47.5 11t12.5 46zM1907 1292v-170h-142v-1122h-231v813h-156v-448q0 -109 -54 -157t-181 -48h-160q-121 0 -178 45q-20 -45 -94 -45h-377q-121 0 -178.5 49t-57.5 156v401h226q33 0 45 11
t12 44v258q0 31 -12.5 42.5t-44.5 11.5h-13q-33 0 -44 -10.5t-11 -43.5v-84h-141v121q0 96 49 141.5t155 45.5h87q207 0 206 -187v-323q0 -98 -50 -146.5t-167 -48.5h-65v-211q0 -35 12 -46t45 -11h291q39 0 54.5 15t15.5 54v396q0 96 50 141t167 45h569v141h-786v170h1159z
" />
    <glyph glyph-name="uni0926094D0928" horiz-adv-x="825" 
d="M725 813h-348q-33 0 -45.5 -11t-12.5 -46v-369q0 -35 11.5 -46t44.5 -11h86q33 0 46 12t13 47v178h213v-917h-213v221h-112q-33 0 -45.5 -11.5t-12.5 -45.5v-66h-186v94q0 186 194 187h162v157q-25 -27 -84 -26h-114q-125 0 -180.5 48t-55.5 157v430q0 96 50 141t167 45
h191v141h-547v170h919v-170h-141v-309z" />
    <glyph glyph-name="uni0927094D0928" horiz-adv-x="1847" 
d="M1128 387v426h-110q-33 0 -44 -11t-11 -44v-371q0 -35 12 -46t45 -11h49q35 0 47 11t12 46zM1888 1292v-170h-141v-1122h-231v813h-156v-448q0 -109 -54.5 -157t-181.5 -48h-157q-125 0 -179 47q-20 -47 -96 -47h-356q-209 0 -209 186v252q0 92 86 102v9q-86 10 -86 104
v303q0 186 209 187h88q207 0 207 -187v-121h-142v84q0 33 -11 43.5t-44 10.5h-18q-33 0 -44.5 -10.5t-11.5 -43.5v-231q0 -35 11.5 -46t44.5 -11h141v-170h-141q-33 0 -44.5 -11.5t-11.5 -44.5v-178q0 -35 11.5 -46t44.5 -11h246q39 0 54 15t15 54v396q0 96 49 141t166 45
h570v141h-785l-2 170h1159z" />
    <glyph glyph-name="uni0928094D0928" horiz-adv-x="1980" 
d="M1262 387v426h-111q-33 0 -44 -11t-11 -44v-371q0 -35 12 -46t45 -11h49q35 0 47.5 11t12.5 46zM465 387v426h-109q-33 0 -45 -11t-12 -44v-371q0 -35 12.5 -46t46.5 -11h50q33 0 45 11t12 46zM2021 1292v-170h-141v-1122h-231v813h-156v-448q0 -109 -54.5 -157
t-181.5 -48h-157q-127 0 -182.5 48t-55.5 157v448h-164v-448q0 -109 -55 -157t-182 -48h-158q-127 0 -181 48t-54 157v430q0 96 50 141t167 45h1364v141h-1690v170h2062z" />
    <glyph glyph-name="uni092A094D0928" horiz-adv-x="1636" 
d="M1305 981v141h-973v-735q0 -35 11 -46t44 -11h64q41 0 55 15t14 54v396q0 96 49 141t166 45h570zM918 387v426h-109q-35 0 -46 -11t-11 -44v-371q0 -35 12 -46t45 -11h51q33 0 45.5 11t12.5 46zM1677 1292v-170h-139v-1122h-233v813h-156v-448q0 -109 -54.5 -157
t-181.5 -48h-157q-125 0 -178 47q-20 -47 -97 -47h-174q-209 0 -209 205v757h-139v170h1718z" />
    <glyph glyph-name="uni092B094D0928" horiz-adv-x="2048" 
d="M1716 981v141h-973v-166q25 25 84 25h889zM1329 387v426h-108q-33 0 -45.5 -11t-12.5 -44v-371q0 -35 13.5 -46t46.5 -11h49q33 0 45 11t12 46zM379 330h74q33 0 46 12t13 47v733h-188v-735q0 -35 11 -46t44 -11zM2089 1292v-170h-139v-1122h-234v813h-153v-448
q0 -109 -55.5 -157t-180.5 -48h-160q-125 0 -180 48t-55 157v448h-129q-33 0 -46.5 -13.5t-13.5 -47.5v-752h-231v186q-25 -27 -86 -26h-127q-209 0 -209 205v757h-131v170h2130z" />
    <glyph glyph-name="uni092C094D0928" horiz-adv-x="1751" 
d="M1032 387v426h-108q-33 0 -45.5 -11t-12.5 -44v-371q0 -35 13.5 -46t46.5 -11h49q33 0 45 11t12 46zM379 330h207l-150 229q-90 160 -114 193v-365q0 -35 12 -46t45 -11zM1792 1292v-170h-139v-1122h-234v813h-153v-448q0 -109 -55.5 -157t-180.5 -48h-160
q-125 0 -180 47q-33 -47 -121 -47h-270q-209 0 -209 205v430q0 96 50 141t167 45h244v-160h-152l123 -207l125 -196q-12 55 -12 139v238q0 96 50 141t167 45h567v141h-1460v170h1833z" />
    <glyph glyph-name="uni092D094D0928" horiz-adv-x="2017" 
d="M1298 387v426h-108q-33 0 -45 -11t-12 -44v-371q0 -35 12 -46t47 -11h49q33 0 45 11t12 46zM506 387v283h-129q-33 0 -45.5 -11.5t-12.5 -44.5v-227q0 -35 12.5 -46t47.5 -11h70q33 0 45 11t12 46zM2058 1292v-170h-139v-1122h-233v813h-154v-448q0 -109 -55.5 -157
t-180.5 -48h-159q-127 0 -181.5 48t-54.5 157v305h-162v-305q0 -109 -55 -157t-180 -48h-180q-127 0 -181.5 48t-54.5 157v286q0 96 50 141.5t167 45.5h201v235q0 33 -11.5 43t-43.5 10h-58q-33 0 -44 -10t-11 -43v-88h-234v115q0 98 50.5 147t167.5 49h200q115 0 166 -49
t51 -147v-262h164q10 74 60.5 108.5t154.5 34.5h568v141h-785v170h1157z" />
    <glyph glyph-name="uni092E094D0928" horiz-adv-x="2031" 
d="M1700 981v141h-973v-237h203q37 96 203 96h567zM1313 387v426h-109q-33 0 -45 -11t-12 -44v-371q0 -35 12 -46t47 -11h49q33 0 45.5 11t12.5 46zM494 420v295h-146q-33 0 -45 -11.5t-12 -41.5v-242q0 -33 13 -44t46 -11h86q33 0 45.5 11t12.5 44zM2073 1292v-170h-140
v-1122h-233v813h-154v-448q0 -109 -55 -157t-182 -48h-158q-127 0 -181.5 48t-54.5 157v350h-188v-316q0 -109 -55.5 -156.5t-179.5 -47.5h-181q-127 0 -181 48t-54 156v299q0 96 50 141.5t167 45.5h201v237h-535v170h2114z" />
    <glyph glyph-name="uni092F094D0928" horiz-adv-x="1841" 
d="M1511 981v141h-970q20 -27 20 -69v-244q0 -98 -48 -147.5t-163 -49.5h-41v-225q0 -35 11.5 -46t44.5 -11h290q41 0 55.5 15t14.5 54v396q0 96 50 141t167 45h569zM1122 387v426h-108q-33 0 -44.5 -11t-11.5 -44v-371q0 -35 12.5 -46t45.5 -11h49q33 0 45 11t12 46z
M1882 1292v-170h-139v-1122h-232v813h-155v-448q0 -109 -55.5 -157t-180.5 -48h-159q-121 0 -179 45q-20 -45 -94 -45h-377q-121 0 -178 49t-57 156v417h205q33 0 44 10.5t11 43.5v219q0 43 -14.5 55t-67.5 12h-295v170h1923z" />
    <glyph glyph-name="uni0935094D0928" horiz-adv-x="1628" 
d="M909 387v426h-108q-35 0 -46.5 -11t-11.5 -44v-371q0 -35 12.5 -46t47.5 -11h49q33 0 45 11t12 46zM1669 1292v-170h-139v-1122h-234v813h-155v-448q0 -109 -54.5 -157t-181.5 -48h-157q-135 0 -191 57q-35 -57 -131 -57h-127q-209 0 -209 205v430q0 96 50 141t167 45
h121v-168h-49q-33 0 -44 -11t-11 -44v-371q0 -35 11 -46t44 -11h74q33 0 46 13t13 46v406q0 96 50 141t167 45h567v141h-1337v170h1710z" />
    <glyph glyph-name="uni0936094D0928" horiz-adv-x="2037" 
d="M326 1298h198q117 0 167 -49t50 -147v-391q0 -100 -60 -146.5t-192 -46.5h-151v-303q0 -33 11 -44t46 -11h62q29 0 40 11t11 44v176h231v-205q0 -96 -50 -141t-167 -45h-200q-117 0 -166.5 45t-49.5 141v609h232v-109h106q39 0 52.5 14.5t13.5 53.5v321q0 33 -11.5 43
t-45.5 10h-62q-31 0 -41 -11t-10 -42v-141h-231v168q0 98 50 147t167 49zM1319 387v426h-109q-33 0 -45 -11t-12 -44v-371q0 -35 12.5 -46t46.5 -11h50q33 0 45 11t12 46zM2079 1292v-170h-140v-1122h-233v813h-154v-448q0 -109 -55 -157t-182 -48h-158q-127 0 -181 48
t-54 157v430q0 96 50 141t167 45h567v141h-893v170h1266z" />
    <glyph glyph-name="uni0938094D0928" horiz-adv-x="2007" 
d="M1675 981v141h-966q14 -16 14 -53v-256q0 -59 -29 -92h197v74q0 96 50 141t167 45h567zM1288 387v426h-108q-33 0 -45.5 -11t-12.5 -44v-371q0 -35 12.5 -46t47.5 -11h49q33 0 45 11t12 46zM2048 1292v-170h-139v-1122h-234v813h-153v-448q0 -109 -55.5 -157t-182.5 -48
h-158q-127 0 -181 48t-54 157v188h-572v-338q0 -33 12.5 -44t45.5 -11h61q31 0 41 11t10 44v211h232v-240q0 -96 -49 -141t-166 -45h-201q-117 0 -167 45t-50 141v750h231v-215h107q39 0 52.5 14.5t13.5 52.5v269q0 41 -12.5 53t-53.5 12h-467v170h2089z" />
    <glyph glyph-name="uni0939094D0928" horiz-adv-x="921" 
d="M741 821h-354q-33 0 -44 -11t-11 -40v-29q0 -31 11 -41t44 -10h299q180 0 180 -168v-291h-147v129h-96q-35 0 -46.5 -10t-11.5 -45v-41h-157v53q0 158 172 158h139v27q0 35 -13.5 46t-46.5 11h-272q-33 0 -44 -11t-11 -46v-293q0 -35 11 -46t44 -11h356v-152h-409
q-121 0 -178.5 49t-57.5 156v282q0 92 86 103v8q-86 10 -86 104v93q0 96 50.5 141t166.5 45h195v141h-551v170h1004v-170h-222v-301z" />
    <glyph glyph-name="uni0915094D0930" horiz-adv-x="1212" 
d="M1253 1122h-530v-164q23 23 84 23h127q106 0 157.5 -49t51.5 -156v-377q0 -96 -50.5 -141t-166.5 -45h-121v160h49q33 0 44 10t11 43v330q0 35 -11 46t-44 11h-72q-33 0 -46 -13.5t-13 -47.5v-752h-234v223l-210 -334h-248l211 326q-88 8 -130 56t-42 147v377
q0 96 50 141t167 45h121v-160h-50q-33 0 -45 -11t-12 -42v-330q0 -35 12.5 -46t44.5 -11h72q33 0 46 13.5t13 47.5v680h-530v170h1294v-170z" />
    <glyph glyph-name="uni0916094D0930" horiz-adv-x="1509" 
d="M1550 1292v-170h-141v-1122h-227v240l-232 -351h-245l221 330q-158 23 -158 201v358q0 96 50 141.5t167 45.5h125v-160h-57q-33 0 -45.5 -11.5t-12.5 -41.5v-310q0 -35 12.5 -46t45.5 -11h61q37 0 52.5 14.5t15.5 51.5v671h-516q14 -23 14 -53v-385q0 -102 -52.5 -148.5
t-168.5 -46.5h-135v-249q0 -39 13 -53.5t52 -14.5h322v-172h-367q-131 0 -192.5 47t-61.5 148v770h234v-306h57q39 0 52 13.5t13 52.5v332q0 41 -12 53t-53 12h-422v170h1591z" />
    <glyph glyph-name="uni0917094D0930" horiz-adv-x="1241" 
d="M356 481h72q33 0 45 11.5t12 46.5v274h-125q-41 0 -52 -11t-11 -52v-211q0 -35 13 -46.5t46 -11.5zM1282 1292v-170h-139v-1122h-234v252l-356 -381h-242l598 631v620h-190v-604q0 -109 -55.5 -158t-180.5 -49h-182q-125 0 -180 49.5t-55 157.5v268q0 102 60 148.5
t191 46.5h168v141h-526v170h1323z" />
    <glyph glyph-name="uni0918094D0930" horiz-adv-x="958" 
d="M627 442v680h-203q-66 0 -83 -10t-17 -55v-172q0 -35 11 -46.5t44 -11.5h108v-170h-108q-33 0 -44 -11t-11 -44v-164q0 -35 11 -46t44 -11h188q33 0 46.5 13t13.5 48zM999 1292v-170h-139v-1122h-233v223l-211 -334h-248l209 324h-94q-193 0 -193 186v236q0 92 86 102v8
q-86 10 -86 105v215q0 39 19 57h-150v170h1040z" />
    <glyph glyph-name="uni0919094D0930" horiz-adv-x="905" 
d="M705 608v215h192v-215h-192zM-41 1292h987v-170h-258v-301h-301q-33 0 -44 -10t-11 -43v-102q0 -33 11 -43.5t44 -10.5h117q117 0 167 -45t50 -141v-240q0 -82 -35 -126t-115 -56l170 -297h-206l-123 242l-127 -242h-209l172 295q-90 8 -129 53t-39 131v146h233v-117
q0 -33 10.5 -44t38.5 -11h70q33 0 45 11t12 44v184q0 31 -12 42.5t-45 11.5h-117q-117 0 -166 45t-49 141v156q0 96 49.5 141t165.5 45h142v141h-498v170z" />
    <glyph glyph-name="uni091A094D0930" horiz-adv-x="899" 
d="M934 1292v-170h-141v-1122h-232v225l-211 -336h-250l211 324h-2q-193 0 -192 186v334q0 53 26 80h-147v168h477v-168h-33q-59 0 -74.5 -9t-15.5 -48v-318q0 -35 11.5 -46t44.5 -11h96q33 0 46 13.5t13 47.5v680h-604v170h977z" />
    <glyph glyph-name="uni091B094D0930" horiz-adv-x="1206" 
d="M725 1122h-309l10 -2q-63 4 -81.5 -7t-18.5 -56v-277q0 -35 12 -46t45 -11h72v-168h-72q-33 0 -45 -11.5t-12 -45.5v-269q0 -35 12 -46t45 -11h448q35 0 46.5 11.5t11.5 45.5v547q0 33 -11.5 43t-46.5 10h-36q-33 0 -44.5 -10t-11.5 -43v-188q0 -33 11.5 -43t44.5 -10h32
v-152h-77q-201 0 -201 186v226q0 90 43 134t133 50v143zM1247 1122h-305v-143q88 -8 131 -52t43 -132v-590q0 -106 -57.5 -155.5t-179.5 -49.5h-101l168 -293h-207l-123 242l-127 -242h-208l172 293h-123q-121 0 -178.5 49t-57.5 156v325q0 94 84 105v6q-84 10 -84 104v324
q0 37 15 53h-150v170h1288v-170z" />
    <glyph glyph-name="uni091C094D0930" horiz-adv-x="1218" 
d="M1260 1292v-170h-142v-1122h-231v190l-287 -301h-256l543 549v375h-164v-344q0 -109 -54.5 -157t-181.5 -48h-163q-127 0 -181.5 48t-54.5 157v512h231v-492q0 -35 12.5 -46t47.5 -11h55q33 0 45.5 11.5t12.5 45.5v492h395v141h-928v170h1301z" />
    <glyph glyph-name="uni091D094D0930" horiz-adv-x="1251" 
d="M922 688v434h-213v-272h-340q-33 0 -45.5 -11.5t-12.5 -41.5v-58q0 -31 12.5 -41t45.5 -10h553zM1292 1292v-170h-139v-1122h-233v170l-281 -281h-227l508 486v166h-191q4 -25 4 -41v-138q0 -90 -50 -131t-167 -41h-201v-190h-233v426h233v-88h129q33 0 45.5 10t12.5 41
v100q0 31 -12.5 41.5t-45.5 10.5h-147q-117 0 -167 42t-50 132v108q0 90 50 131t167 41h178v127h-534v170h1351z" />
    <glyph glyph-name="uni091E094D0930" horiz-adv-x="1200" 
d="M1241 1292v-170h-139v-1122h-234v252l-356 -381h-242l598 631v10h-186q-2 -106 -56.5 -153.5t-179.5 -47.5h-157q-127 0 -181.5 48.5t-54.5 158.5v57h232v-36q0 -35 12 -46.5t45 -11.5h51q33 0 45.5 11.5t12.5 46.5v219q0 33 -11.5 44t-46.5 11h-190v168h264
q115 0 165 -49t50 -146v-104h186v440h-909v170h1282z" />
    <glyph glyph-name="uni091F094D0930" horiz-adv-x="823" 
d="M727 813h-338q-33 0 -45 -11t-12 -46v-529q0 -35 12 -46t45 -11h55q33 0 46.5 11.5t13.5 45.5v211h231v-233q0 -170 -147 -197l172 -301h-207l-123 242l-127 -242h-209l174 297q-90 10 -130 58.5t-40 142.5v590q0 96 50.5 141t166.5 45h181v141h-537v170h905v-170h-137
v-309z" />
    <glyph glyph-name="uni0920094D0930" horiz-adv-x="862" 
d="M539 227v529q0 35 -12.5 46t-45.5 11h-92q-33 0 -45 -11t-12 -46v-529q0 -35 12 -46t45 -11h92q33 0 45.5 11t12.5 46zM903 1122h-352v-141q119 -2 169 -50t50 -155v-571q0 -94 -41 -142.5t-131 -58.5l170 -297h-207l-123 242l-127 -242h-209l172 295q-92 10 -134 59.5
t-42 143.5v571q0 106 51.5 154.5t169.5 50.5v141h-360v170h944v-170z" />
    <glyph glyph-name="uni0921094D0930" horiz-adv-x="825" 
d="M688 821h-301q-33 0 -44 -10t-11 -43v-102q0 -33 11 -43.5t44 -10.5h117q117 0 167 -45t50 -141v-240q0 -82 -35 -126t-117 -56l170 -297h-207l-122 242l-127 -242h-209l172 295q-88 8 -127 53t-39 131v146h233v-117q0 -33 10.5 -44t38.5 -11h70q33 0 45 11t12 44v184
q0 31 -12 42.5t-45 11.5h-117q-117 0 -166 45t-49 141v156q0 96 49.5 141t165.5 45h142v141h-498v170h907v-170h-178v-301z" />
    <glyph glyph-name="uni0922094D0930" horiz-adv-x="899" 
d="M727 813h-338q-33 0 -45 -11t-12 -46v-529q0 -35 12 -46t45 -11h129q33 0 45 11.5t12 45.5v146q0 33 -12 44t-45 11h-88v170h143q125 0 180.5 -48t55.5 -157v-188q0 -96 -44 -145.5t-142 -57.5l168 -295h-207l-123 242l-127 -242h-209l172 295q-104 6 -151.5 54
t-47.5 149v590q0 96 50.5 141t166.5 45h181v141h-537v170h981v-170h-213v-309z" />
    <glyph glyph-name="uni0923094D0930" horiz-adv-x="1234" 
d="M492 547v575h-173v-575q0 -33 12.5 -44t47.5 -11h55q33 0 45.5 11t12.5 44zM1276 1292v-170h-139v-1122h-232v252l-356 -381h-242l598 631v620h-182v-596q0 -109 -54.5 -156.5t-181.5 -47.5h-163q-127 0 -181.5 48t-54.5 156v596h-129v170h1317z" />
    <glyph glyph-name="uni0924094D0930" horiz-adv-x="925" 
d="M967 1292v-170h-140v-1122h-231v395h-47l-256 -395h-264l317 487l-117 211q-33 61 -64.5 84t-88.5 23h-58v172h138q104 0 157.5 -29.5t98.5 -107.5l163 -285h21v567h-637v170h1008z" />
    <glyph glyph-name="uni0925094D0930" horiz-adv-x="1079" 
d="M1120 1292v-170h-139v-1122h-233v223l-211 -334h-248l211 324h-211q-190 0 -191 186v367h226q33 0 45 11t12 44v258q0 31 -12.5 42.5t-44.5 11.5h-13q-33 0 -44 -10.5t-11 -43.5v-84h-141v121q0 96 49 141.5t155 45.5h87q207 0 206 -187v-323q0 -98 -50 -146.5
t-167 -48.5h-65v-160q0 -35 12 -46t45 -11h301q33 0 46.5 13.5t13.5 47.5v850h372z" />
    <glyph glyph-name="uni0926094D0930" horiz-adv-x="825" 
d="M725 813h-348q-33 0 -45.5 -11t-12.5 -46v-318q0 -35 11.5 -46t44.5 -11h67q33 0 46.5 13.5t13.5 47.5v125h231v-567h-231v223l-211 -334h-248l209 324q-166 12 -166 186v396q0 96 50 141t167 45h191v141h-547v170h919v-170h-141v-309z" />
    <glyph glyph-name="uni0927094D0930" horiz-adv-x="1054" 
d="M1102 1292v-170h-139v-1122h-232v225l-213 -336h-248l211 324h-164q-190 0 -190 186v228q0 92 86 102v6q-86 10 -86 105v276q0 186 209 187h88q207 0 207 -187v-121h-142v84q0 33 -11 43.5t-44 10.5h-18q-33 0 -44.5 -10.5t-11.5 -43.5v-202q0 -35 11.5 -46.5t44.5 -11.5
h141v-170h-141q-33 0 -44.5 -11t-11.5 -46v-154q0 -35 11.5 -46t44.5 -11h254q35 0 48 13.5t13 47.5v680l-2 170h373z" />
    <glyph glyph-name="uni0928094D0930" horiz-adv-x="1200" 
d="M465 565v248h-109q-33 0 -45 -11t-12 -44v-193q0 -35 12.5 -46t46.5 -11h50q33 0 45 11t12 46zM1225 1292v-170h-140v-1122h-233v252l-356 -381h-242l598 631v311h-154v-268q0 -109 -55 -157t-182 -48h-158q-127 0 -181 48t-54 157v250q0 96 50 141t167 45h567v141h-893
v170h1266z" />
    <glyph glyph-name="uni092A094D0930" horiz-adv-x="849" 
d="M520 442v680h-188v-684q0 -35 11 -46t44 -11h72q35 0 48 13t13 48zM891 1292v-170h-139v-1122h-232v225l-211 -336h-250l211 326q-172 16 -172 203v704h-139v170h932z" />
    <glyph glyph-name="uni092B094D0930" horiz-adv-x="1232" 
d="M512 442v680h-188v-684q0 -35 11 -46t44 -11h74q33 0 46 13t13 48zM1274 1122h-531v-166q25 25 84 25h129q104 0 155.5 -49t51.5 -156v-430q0 -96 -49 -141t-166 -45h-121v159h47q35 0 46.5 11.5t11.5 44.5v381q0 35 -11.5 46t-46.5 11h-71q-33 0 -46.5 -13.5
t-13.5 -47.5v-752h-231v225l-211 -336h-250l211 324q-172 8 -172 186v723h-131v170h1315v-170z" />
    <glyph glyph-name="uni092C094D0930" horiz-adv-x="960" 
d="M373 365h159q20 0 33 6l-135 204q-80 133 -113 175v-330q0 -33 11.5 -44t44.5 -11zM1001 1292v-170h-139v-1122h-233v219l-209 -330h-248l199 306h-78q-209 0 -209 204v396q0 96 50 141t167 45h244v-160h-152l248 -372q-12 66 -12 247v426h-670v170h1042z" />
    <glyph glyph-name="uni092D094D0930" horiz-adv-x="1269" 
d="M506 512v180h-129q-33 0 -45.5 -11t-12.5 -42v-127q0 -35 12.5 -46t47.5 -11h70q33 0 45 11t12 46zM1311 1292v-170h-140v-1122h-233v252l-356 -381h-242l598 631v190h-199v-203q0 -109 -55 -156.5t-180 -47.5h-180q-127 0 -181.5 48t-54.5 156v187q0 96 50 141t167 45
h201v211q0 33 -11.5 43t-43.5 10h-58q-33 0 -44 -10t-11 -43v-88h-234v115q0 98 50.5 147t167.5 49h200q115 0 166 -49t51 -147v-238h199v430h373z" />
    <glyph glyph-name="uni092E094D0930" horiz-adv-x="1249" 
d="M918 899v223h-199v-223h199zM485 512v217h-145q-33 0 -45 -11t-12 -42v-164q0 -35 13 -46t46 -11h86q33 0 45 11t12 46zM1290 1292v-170h-139v-1122h-233v252l-357 -381h-242l599 631v227h-199v-240q0 -109 -55.5 -156.5t-180.5 -47.5h-180q-127 0 -181 48t-54 156v222
q0 98 50 143t167 45h200v223h-526v170h1331z" />
    <glyph glyph-name="uni092F094D0930" horiz-adv-x="1056" 
d="M725 442v680h-184q20 -27 20 -69v-244q0 -98 -48 -147.5t-163 -49.5h-41v-174q0 -35 11.5 -46t44.5 -11h301q33 0 46 13t13 48zM1098 1292v-170h-140v-1122h-233v223l-211 -334h-248l211 324h-211q-190 0 -190 186v383h205q33 0 44 10.5t11 43.5v219q0 43 -14.5 55
t-67.5 12h-317v170h1161z" />
    <glyph glyph-name="uni0935094D0930" horiz-adv-x="843" 
d="M885 1292v-170h-142v-1122h-231v225l-211 -336h-250l211 324q-172 8 -172 186v396q0 96 50 141t167 45h121v-168h-49q-33 0 -44 -11t-11 -44v-320q0 -35 11 -46t44 -11h76q33 0 45 11t12 46v684h-553v170h926z" />
    <glyph glyph-name="uni0936094D0930" horiz-adv-x="1212" 
d="M334 1079v-278q0 -31 11 -42t44 -11h43q33 0 44 11t11 42v278q0 31 -11 42.5t-44 11.5h-43q-33 0 -44 -11.5t-11 -42.5zM881 1292h372v-170h-139v-1122h-233v354l-263 -262h-260l502 496h-270l-301 -285h-273l303 285q-117 4 -167 53t-50 152v294q0 106 54.5 155.5
t181.5 49.5h145q127 0 181.5 -49t54.5 -156v-249q0 -57 -29 -90h191v544z" />
    <glyph glyph-name="uni0938094D0930" horiz-adv-x="1220" 
d="M889 721v401h-180q14 -16 14 -53v-256q0 -59 -29 -92h195zM1262 1292v-170h-142v-1122h-231v510l-221 -238h-242l299 291h-406v-348q0 -33 12.5 -44t45.5 -11h346v-160h-418q-117 0 -167 45t-50 141v750h231v-215h107q39 0 52.5 14.5t13.5 52.5v269q0 41 -12.5 53
t-53.5 12h-467v170h1303z" />
    <glyph glyph-name="uni0939094D0930" horiz-adv-x="950" 
d="M741 821h-354q-33 0 -44 -11t-11 -40v-63q0 -31 11 -41.5t44 -10.5h313q180 0 181 -168v-159h-152v139q0 49 -35 55l-139 -270h-156l140 272h-152q-33 0 -44 -11t-11 -46v-258q0 -35 11 -46t44 -11h367v-152h-420q-121 0 -178.5 49t-57.5 156v248q0 94 86 104v6
q-86 10 -86 105v127q0 96 50.5 141t166.5 45h195v141h-551v170h1032v-170h-250v-301z" />
    <glyph glyph-name="uni0915093C094D0930" horiz-adv-x="1212" 
d="M383 -315v215h195v-215h-195zM1253 1122h-530v-164q23 23 84 23h127q106 0 157.5 -49t51.5 -156v-377q0 -96 -50.5 -141t-166.5 -45h-121v160h49q33 0 44 10t11 43v330q0 35 -11 46t-44 11h-72q-33 0 -46 -13.5t-13 -47.5v-752h-234v223l-210 -334h-248l211 326
q-88 8 -130 56t-42 147v377q0 96 50 141t167 45h121v-160h-50q-33 0 -45 -11t-12 -42v-330q0 -35 12.5 -46t44.5 -11h72q33 0 46 13.5t13 47.5v680h-530v170h1294v-170z" />
    <glyph glyph-name="uni0916093C094D0930" horiz-adv-x="1509" 
d="M1067 -311v215h195v-215h-195zM1550 1292v-170h-141v-1122h-227v240l-232 -351h-245l221 330q-158 23 -158 201v358q0 96 50 141.5t167 45.5h125v-160h-57q-33 0 -45.5 -11.5t-12.5 -41.5v-310q0 -35 12.5 -46t45.5 -11h61q37 0 52.5 14.5t15.5 51.5v671h-516
q14 -23 14 -53v-385q0 -102 -52.5 -148.5t-168.5 -46.5h-135v-249q0 -39 13 -53.5t52 -14.5h322v-172h-367q-131 0 -192.5 47t-61.5 148v770h234v-306h57q39 0 52 13.5t13 52.5v332q0 41 -12 53t-53 12h-422v170h1591z" />
    <glyph glyph-name="uni0917093C094D0930" horiz-adv-x="1241" 
d="M725 -311v215h195v-215h-195zM356 481h72q33 0 45 11.5t12 46.5v274h-125q-41 0 -52 -11t-11 -52v-211q0 -35 13 -46.5t46 -11.5zM1282 1292v-170h-139v-1122h-234v252l-356 -381h-242l598 631v620h-190v-604q0 -109 -55.5 -158t-180.5 -49h-182q-125 0 -180 49.5
t-55 157.5v268q0 102 60 148.5t191 46.5h168v141h-526v170h1323z" />
    <glyph glyph-name="uni0918093C094D0930" horiz-adv-x="958" 
d="M541 -311v215h194v-215h-194zM627 442v680h-203q-66 0 -83 -10t-17 -55v-172q0 -35 11 -46.5t44 -11.5h108v-170h-108q-33 0 -44 -11t-11 -44v-164q0 -35 11 -46t44 -11h188q33 0 46.5 13t13.5 48zM999 1292v-170h-139v-1122h-233v223l-211 -334h-248l209 324h-94
q-193 0 -193 186v236q0 92 86 102v8q-86 10 -86 105v215q0 39 19 57h-150v170h1040z" />
    <glyph glyph-name="uni0919093C094D0930" horiz-adv-x="905" 
d="M311 -524v215h195v-215h-195zM705 608v215h192v-215h-192zM-41 1292h987v-170h-258v-301h-301q-33 0 -44 -10t-11 -43v-102q0 -33 11 -43.5t44 -10.5h117q117 0 167 -45t50 -141v-240q0 -82 -35 -126t-115 -56l170 -297h-206l-123 242l-127 -242h-209l172 295
q-90 8 -129 53t-39 131v146h233v-117q0 -33 10.5 -44t38.5 -11h70q33 0 45 11t12 44v184q0 31 -12 42.5t-45 11.5h-117q-117 0 -166 45t-49 141v156q0 96 49.5 141t165.5 45h142v141h-498v170z" />
    <glyph glyph-name="uni091A093C094D0930" horiz-adv-x="899" 
d="M451 -311v215h194v-215h-194zM934 1292v-170h-141v-1122h-232v225l-211 -336h-250l211 324h-2q-193 0 -192 186v334q0 53 26 80h-147v168h477v-168h-33q-59 0 -74.5 -9t-15.5 -48v-318q0 -35 11.5 -46t44.5 -11h96q33 0 46 13.5t13 47.5v680h-604v170h977z" />
    <glyph glyph-name="uni091B093C094D0930" horiz-adv-x="1206" 
d="M514 -537v215h195v-215h-195zM725 1122h-309l10 -2q-63 4 -81.5 -7t-18.5 -56v-277q0 -35 12 -46t45 -11h72v-168h-72q-33 0 -45 -11.5t-12 -45.5v-269q0 -35 12 -46t45 -11h448q35 0 46.5 11.5t11.5 45.5v547q0 33 -11.5 43t-46.5 10h-36q-33 0 -44.5 -10t-11.5 -43
v-188q0 -33 11.5 -43t44.5 -10h32v-152h-77q-201 0 -201 186v226q0 90 43 134t133 50v143zM1247 1122h-305v-143q88 -8 131 -52t43 -132v-590q0 -106 -57.5 -155.5t-179.5 -49.5h-101l168 -293h-207l-123 242l-127 -242h-208l172 293h-123q-121 0 -178.5 49t-57.5 156v325
q0 94 84 105v6q-84 10 -84 104v324q0 37 15 53h-150v170h1288v-170z" />
    <glyph glyph-name="uni091C093C094D0930" horiz-adv-x="1218" 
d="M739 -299v215h195v-215h-195zM1260 1292v-170h-142v-1122h-231v190l-287 -301h-256l543 549v375h-164v-344q0 -109 -54.5 -157t-181.5 -48h-163q-127 0 -181.5 48t-54.5 157v512h231v-492q0 -35 12.5 -46t47.5 -11h55q33 0 45.5 11.5t12.5 45.5v492h395v141h-928v170
h1301z" />
    <glyph glyph-name="uni091D093C094D0930" horiz-adv-x="1251" 
d="M791 -315v215h194v-215h-194zM922 688v434h-213v-272h-340q-33 0 -45.5 -11.5t-12.5 -41.5v-58q0 -31 12.5 -41t45.5 -10h553zM1292 1292v-170h-139v-1122h-233v170l-281 -281h-227l508 486v166h-191q4 -25 4 -41v-138q0 -90 -50 -131t-167 -41h-201v-190h-233v426h233
v-88h129q33 0 45.5 10t12.5 41v100q0 31 -12.5 41.5t-45.5 10.5h-147q-117 0 -167 42t-50 132v108q0 90 50 131t167 41h178v127h-534v170h1351z" />
    <glyph glyph-name="uni091E093C094D0930" horiz-adv-x="1200" 
d="M676 -319v215h194v-215h-194zM1241 1292v-170h-139v-1122h-234v252l-356 -381h-242l598 631v10h-186q-2 -106 -56.5 -153.5t-179.5 -47.5h-157q-127 0 -181.5 48.5t-54.5 158.5v57h232v-36q0 -35 12 -46.5t45 -11.5h51q33 0 45.5 11.5t12.5 46.5v219q0 33 -11.5 44
t-46.5 11h-190v168h264q115 0 165 -49t50 -146v-104h186v440h-909v170h1282z" />
    <glyph glyph-name="uni091F093C094D0930" horiz-adv-x="823" 
d="M332 -522v215h194v-215h-194zM727 813h-338q-33 0 -45 -11t-12 -46v-529q0 -35 12 -46t45 -11h55q33 0 46.5 11.5t13.5 45.5v211h231v-233q0 -170 -147 -197l172 -301h-207l-123 242l-127 -242h-209l174 297q-90 10 -130 58.5t-40 142.5v590q0 96 50.5 141t166.5 45h181
v141h-537v170h905v-170h-137v-309z" />
    <glyph glyph-name="uni0920093C094D0930" horiz-adv-x="862" 
d="M338 -526v215h194v-215h-194zM539 227v529q0 35 -12.5 46t-45.5 11h-92q-33 0 -45 -11t-12 -46v-529q0 -35 12 -46t45 -11h92q33 0 45.5 11t12.5 46zM903 1122h-352v-141q119 -2 169 -50t50 -155v-571q0 -94 -41 -142.5t-131 -58.5l170 -297h-207l-123 242l-127 -242
h-209l172 295q-92 10 -134 59.5t-42 143.5v571q0 106 51.5 154.5t169.5 50.5v141h-360v170h944v-170z" />
    <glyph glyph-name="uni0921093C094D0930" horiz-adv-x="825" 
d="M315 -528v215h195v-215h-195zM688 821h-301q-33 0 -44 -10t-11 -43v-102q0 -33 11 -43.5t44 -10.5h117q117 0 167 -45t50 -141v-240q0 -82 -35 -126t-117 -56l170 -297h-207l-122 242l-127 -242h-209l172 295q-88 8 -127 53t-39 131v146h233v-117q0 -33 10.5 -44
t38.5 -11h70q33 0 45 11t12 44v184q0 31 -12 42.5t-45 11.5h-117q-117 0 -166 45t-49 141v156q0 96 49.5 141t165.5 45h142v141h-498v170h907v-170h-178v-301z" />
    <glyph glyph-name="uni0922093C094D0930" horiz-adv-x="899" 
d="M362 -528v215h195v-215h-195zM727 813h-338q-33 0 -45 -11t-12 -46v-529q0 -35 12 -46t45 -11h129q33 0 45 11.5t12 45.5v146q0 33 -12 44t-45 11h-88v170h143q125 0 180.5 -48t55.5 -157v-188q0 -96 -44 -145.5t-142 -57.5l168 -295h-207l-123 242l-127 -242h-209
l172 295q-104 6 -151.5 54t-47.5 149v590q0 96 50.5 141t166.5 45h181v141h-537v170h981v-170h-213v-309z" />
    <glyph glyph-name="uni0923093C094D0930" horiz-adv-x="1234" 
d="M715 -291v215h194v-215h-194zM492 547v575h-173v-575q0 -33 12.5 -44t47.5 -11h55q33 0 45.5 11t12.5 44zM1276 1292v-170h-139v-1122h-232v252l-356 -381h-242l598 631v620h-182v-596q0 -109 -54.5 -156.5t-181.5 -47.5h-163q-127 0 -181.5 48t-54.5 156v596h-129v170
h1317z" />
    <glyph glyph-name="uni0924093C094D0930" horiz-adv-x="925" 
d="M373 -303v215h194v-215h-194zM967 1292v-170h-140v-1122h-231v395h-47l-256 -395h-264l317 487l-117 211q-33 61 -64.5 84t-88.5 23h-58v172h138q104 0 157.5 -29.5t98.5 -107.5l163 -285h21v567h-637v170h1008z" />
    <glyph glyph-name="uni0925093C094D0930" horiz-adv-x="1079" 
d="M666 -301v215h194v-215h-194zM1120 1292v-170h-139v-1122h-233v223l-211 -334h-248l211 324h-211q-190 0 -191 186v367h226q33 0 45 11t12 44v258q0 31 -12.5 42.5t-44.5 11.5h-13q-33 0 -44 -10.5t-11 -43.5v-84h-141v121q0 96 49 141.5t155 45.5h87q207 0 206 -187
v-323q0 -98 -50 -146.5t-167 -48.5h-65v-160q0 -35 12 -46t45 -11h301q33 0 46.5 13.5t13.5 47.5v850h372z" />
    <glyph glyph-name="uni0926093C094D0930" horiz-adv-x="825" 
d="M420 -309v215h194v-215h-194zM725 813h-348q-33 0 -45.5 -11t-12.5 -46v-318q0 -35 11.5 -46t44.5 -11h67q33 0 46.5 13.5t13.5 47.5v125h231v-567h-231v223l-211 -334h-248l209 324q-166 12 -166 186v396q0 96 50 141t167 45h191v141h-547v170h919v-170h-141v-309z" />
    <glyph glyph-name="uni0927093C094D0930" horiz-adv-x="1054" 
d="M631 -315v215h194v-215h-194zM1102 1292v-170h-139v-1122h-232v225l-213 -336h-248l211 324h-164q-190 0 -190 186v228q0 92 86 102v6q-86 10 -86 105v276q0 186 209 187h88q207 0 207 -187v-121h-142v84q0 33 -11 43.5t-44 10.5h-18q-33 0 -44.5 -10.5t-11.5 -43.5v-202
q0 -35 11.5 -46.5t44.5 -11.5h141v-170h-141q-33 0 -44.5 -11t-11.5 -46v-154q0 -35 11.5 -46t44.5 -11h254q35 0 48 13.5t13 47.5v680l-2 170h373z" />
    <glyph glyph-name="uni0928093C094D0930" horiz-adv-x="1200" 
d="M678 -309v215h194v-215h-194zM465 565v248h-109q-33 0 -45 -11t-12 -44v-193q0 -35 12.5 -46t46.5 -11h50q33 0 45 11t12 46zM1225 1292v-170h-140v-1122h-233v252l-356 -381h-242l598 631v311h-154v-268q0 -109 -55 -157t-182 -48h-158q-127 0 -181 48t-54 157v250
q0 96 50 141t167 45h567v141h-893v170h1266z" />
    <glyph glyph-name="uni092A093C094D0930" horiz-adv-x="849" 
d="M418 -285v215h194v-215h-194zM520 442v680h-188v-684q0 -35 11 -46t44 -11h72q35 0 48 13t13 48zM891 1292v-170h-139v-1122h-232v225l-211 -336h-250l211 326q-172 16 -172 203v704h-139v170h932z" />
    <glyph glyph-name="uni092B093C094D0930" horiz-adv-x="1232" 
d="M414 -311v215h194v-215h-194zM512 442v680h-188v-684q0 -35 11 -46t44 -11h74q33 0 46 13t13 48zM1274 1122h-531v-166q25 25 84 25h129q104 0 155.5 -49t51.5 -156v-430q0 -96 -49 -141t-166 -45h-121v159h47q35 0 46.5 11.5t11.5 44.5v381q0 35 -11.5 46t-46.5 11h-71
q-33 0 -46.5 -13.5t-13.5 -47.5v-752h-231v225l-211 -336h-250l211 324q-172 8 -172 186v723h-131v170h1315v-170z" />
    <glyph glyph-name="uni092C093C094D0930" horiz-adv-x="960" 
d="M530 -307v215h195v-215h-195zM373 365h159q20 0 33 6l-135 204q-80 133 -113 175v-330q0 -33 11.5 -44t44.5 -11zM1001 1292v-170h-139v-1122h-233v219l-209 -330h-248l199 306h-78q-209 0 -209 204v396q0 96 50 141t167 45h244v-160h-152l248 -372q-12 66 -12 247v426
h-670v170h1042z" />
    <glyph glyph-name="uni092D093C094D0930" horiz-adv-x="1269" 
d="M748 -313v215h194v-215h-194zM506 512v180h-129q-33 0 -45.5 -11t-12.5 -42v-127q0 -35 12.5 -46t47.5 -11h70q33 0 45 11t12 46zM1311 1292v-170h-140v-1122h-233v252l-356 -381h-242l598 631v190h-199v-203q0 -109 -55 -156.5t-180 -47.5h-180q-127 0 -181.5 48
t-54.5 156v187q0 96 50 141t167 45h201v211q0 33 -11.5 43t-43.5 10h-58q-33 0 -44 -10t-11 -43v-88h-234v115q0 98 50.5 147t167.5 49h200q115 0 166 -49t51 -147v-238h199v430h373z" />
    <glyph glyph-name="uni092E093C094D0930" horiz-adv-x="1249" 
d="M729 -309v215h195v-215h-195zM918 899v223h-199v-223h199zM485 512v217h-145q-33 0 -45 -11t-12 -42v-164q0 -35 13 -46t46 -11h86q33 0 45 11t12 46zM1290 1292v-170h-139v-1122h-233v252l-357 -381h-242l599 631v227h-199v-240q0 -109 -55.5 -156.5t-180.5 -47.5h-180
q-127 0 -181 48t-54 156v222q0 98 50 143t167 45h200v223h-526v170h1331z" />
    <glyph glyph-name="uni092F093C094D0930" horiz-adv-x="1056" 
d="M639 -305v215h195v-215h-195zM725 442v680h-184q20 -27 20 -69v-244q0 -98 -48 -147.5t-163 -49.5h-41v-174q0 -35 11.5 -46t44.5 -11h301q33 0 46 13t13 48zM1098 1292v-170h-140v-1122h-233v223l-211 -334h-248l211 324h-211q-190 0 -190 186v383h205q33 0 44 10.5
t11 43.5v219q0 43 -14.5 55t-67.5 12h-317v170h1161z" />
    <glyph glyph-name="uni0935093C094D0930" horiz-adv-x="843" 
d="M442 -319v215h195v-215h-195zM885 1292v-170h-142v-1122h-231v225l-211 -336h-250l211 324q-172 8 -172 186v396q0 96 50 141t167 45h121v-168h-49q-33 0 -44 -11t-11 -44v-320q0 -35 11 -46t44 -11h76q33 0 45 11t12 46v684h-553v170h926z" />
    <glyph glyph-name="uni0915094D0930094D" horiz-adv-x="987" 
d="M1081 1122h-358v-225q23 23 84 23h274v-168h-299q-33 0 -46 -13.5t-13 -48.5v-690h-234v223l-210 -334h-248l211 326q-88 8 -130 56t-42 147v377q0 96 50 141t167 45h121v-160h-50q-33 0 -45 -11t-12 -42v-330q0 -35 12.5 -46t44.5 -11h72q33 0 46 13.5t13 47.5v680h-530
v170h1122v-170z" />
    <glyph glyph-name="uni0916094D0930094D" horiz-adv-x="1134" 
d="M711 172v-172h-367q-131 0 -192.5 47t-61.5 148v770h234v-306h57q39 0 52 13.5t13 52.5v332q0 41 -12 53t-53 12h-422v170h1225v-170h-518q14 -23 14 -53v-385q0 -102 -52.5 -148.5t-168.5 -46.5h-135v-249q0 -39 13 -53.5t52 -14.5h322zM1053 385h164v-92l-267 -404
h-245l221 330q-158 23 -158 201v358q0 96 50 141.5t167 45.5h125v-160h-57q-33 0 -45.5 -11.5t-12.5 -41.5v-310q0 -35 12.5 -46t45.5 -11z" />
    <glyph glyph-name="uni0917094D0930094D" horiz-adv-x="935" 
d="M553 -129h-242l680 717v-254zM356 481h72q33 0 45 11.5t12 46.5v274h-125q-41 0 -52 -11t-11 -52v-211q0 -35 13 -46.5t46 -11.5zM-41 1292h1032v-170h-272v-604q0 -109 -55.5 -158t-180.5 -49h-182q-125 0 -180 49.5t-55 157.5v268q0 102 60 148.5t191 46.5h168v141
h-526v170z" />
    <glyph glyph-name="uni0918094D0930094D" horiz-adv-x="645" 
d="M694 1122h-270q-66 0 -83 -10t-17 -55v-170q0 -35 11 -46.5t44 -11.5h108v-170h-108q-33 0 -44 -11t-11 -46v-164q0 -35 11 -46t44 -11h315v-107l-243 -385h-248l211 324h-131q-193 0 -193 186v238q0 92 86 102v6q-86 10 -86 105v215q0 39 19 57h-150v170h735v-170z" />
    <glyph glyph-name="uni091A094D0930094D" horiz-adv-x="550" 
d="M350 756v-318q0 -35 11.5 -46t44.5 -11h186v-107l-242 -385h-250l211 324h-2q-193 0 -192 186v334q0 53 26 80h-147v168h477v-168h-33q-59 0 -74.5 -9t-15.5 -48zM-43 1292h635v-170h-635v170z" />
    <glyph glyph-name="uni091C094D0930094D" horiz-adv-x="952" 
d="M-41 1292h1034v-170h-1034v170zM88 981h231v-492q0 -35 12.5 -46t47.5 -11h55q33 0 45.5 11.5t12.5 45.5v492h501v-168h-270v-344q0 -109 -54.5 -157t-181.5 -48h-163q-127 0 -181.5 48t-54.5 157v512zM993 547v-244l-393 -414h-256z" />
    <glyph glyph-name="uni091D094D0930094D" horiz-adv-x="1042" 
d="M711 -190h-248l641 630v-227zM709 821h-340q-33 0 -45.5 -11t-12.5 -42v-68q0 -31 12.5 -42t45.5 -11h735v-162h-375q4 -29 4 -43v-166q0 -96 -50 -141t-167 -45h-201v-145h-233v422h233v-117h129q33 0 45.5 11t12.5 42v129q0 31 -12.5 42t-45.5 11h-147q-117 0 -167 45
t-50 144v121q0 96 50 141t167 45h178v141h-516v170h1145v-170h-395v-301z" />
    <glyph glyph-name="uni091E094D0930094D" horiz-adv-x="909" 
d="M635 -190h-248l584 577v-231zM682 786v-104h289v-170h-289v-147q0 -109 -54.5 -157t-181.5 -48h-157q-127 0 -181.5 48t-54.5 157v172h232v-150q0 -35 12 -46t45 -11h51q33 0 45.5 11t12.5 46v371q0 33 -11.5 44t-46.5 11h-190v168h264q115 0 165 -49.5t50 -145.5z
M-41 1292h1012v-170h-1012v170z" />
    <glyph glyph-name="uni091F094D0930094D" horiz-adv-x="823" 
d="M283 -328h235l234 -284h-238zM727 813h-338q-33 0 -45 -11t-12 -46v-529q0 -35 12 -46t45 -11h55q33 0 46.5 11.5t13.5 45.5v211h231v-233q0 -170 -147 -197l172 -301h-207l-123 242l-127 -242h-209l174 297q-90 10 -130 58.5t-40 142.5v590q0 96 50.5 141t166.5 45h181
v141h-537v170h905v-170h-137v-309z" />
    <glyph glyph-name="uni0920094D0930094D" horiz-adv-x="862" 
d="M299 -328h236l233 -284h-238zM539 227v529q0 35 -12.5 46t-45.5 11h-92q-33 0 -45 -11t-12 -46v-529q0 -35 12 -46t45 -11h92q33 0 45.5 11t12.5 46zM903 1122h-352v-141q119 -2 169 -50t50 -155v-571q0 -94 -41 -142.5t-131 -58.5l170 -297h-207l-123 242l-127 -242
h-209l172 295q-92 10 -134 59.5t-42 143.5v571q0 106 51.5 154.5t169.5 50.5v141h-360v170h944v-170z" />
    <glyph glyph-name="uni0921094D0930094D" horiz-adv-x="825" 
d="M283 -328h235l234 -284h-238zM-41 1292h907v-170h-178v-301h-301q-33 0 -44 -10t-11 -43v-102q0 -33 11 -43.5t44 -10.5h117q117 0 167 -45t50 -141v-240q0 -82 -35 -126t-117 -56l170 -297h-207l-122 242l-127 -242h-209l172 295q-88 8 -127 53t-39 131v146h233v-117
q0 -33 10.5 -44t38.5 -11h70q33 0 45 11t12 44v184q0 31 -12 42.5t-45 11.5h-117q-117 0 -166 45t-49 141v156q0 96 49.5 141t165.5 45h142v141h-498v170z" />
    <glyph glyph-name="uni0922094D0930094D" horiz-adv-x="899" 
d="M324 -328h235l234 -284h-238zM727 813h-338q-33 0 -45 -11t-12 -46v-529q0 -35 12 -46t45 -11h129q33 0 45 11.5t12 45.5v146q0 33 -12 44t-45 11h-88v170h143q125 0 180.5 -48t55.5 -157v-188q0 -96 -44 -145.5t-142 -57.5l168 -295h-207l-123 242l-127 -242h-209
l172 295q-104 6 -151.5 54t-47.5 149v590q0 96 50.5 141t166.5 45h181v141h-537v170h981v-170h-213v-309z" />
    <glyph glyph-name="uni0923094D0930094D" horiz-adv-x="837" 
d="M582 -190h-250l567 555v-232zM492 432v690h-173v-690q0 -35 12.5 -46t47.5 -11h55q33 0 45.5 11t12.5 46zM-41 1292h940v-170h-176v-710q0 -111 -54.5 -159t-181.5 -48h-163q-127 0 -181.5 48t-54.5 159v710h-129v170z" />
    <glyph glyph-name="uni0924094D0930094D" horiz-adv-x="684" 
d="M725 555v-160h-176l-256 -395h-264l317 487l-117 211q-33 61 -64.5 84t-88.5 23h-58v172h138q104 0 157.5 -29.5t98.5 -107.5l163 -285h150zM-41 1292h766v-170h-766v170z" />
    <glyph glyph-name="uni0925094D0930094D" horiz-adv-x="739" 
d="M387 381h393v-107l-243 -385h-248l211 324h-211q-190 0 -191 186v367h226q33 0 45 11t12 44v258q0 31 -12.5 42.5t-44.5 11.5h-13q-33 0 -44 -10.5t-11 -43.5v-84h-141v121q0 96 49 141.5t155 45.5h87q207 0 206 -187v-323q0 -98 -50 -146.5t-167 -48.5h-65v-160
q0 -35 12 -46t45 -11z" />
    <glyph glyph-name="uni0926094D0930094D" horiz-adv-x="825" 
d="M502 0v223l-211 -334h-248l209 324q-166 12 -166 186v396q0 96 50 141t167 45h191v141h-547v170h919v-170h-141v-309h-348q-33 0 -45.5 -11t-12.5 -46v-318q0 -35 11.5 -46t44.5 -11h67q33 0 46.5 13.5t13.5 47.5v125h231v-567h-231zM719 -125l233 -285h-237l-232 285
h236z" />
    <glyph glyph-name="uni0927094D0930094D" horiz-adv-x="700" 
d="M127 627q0 92 86 102v6q-86 10 -86 105v276q0 186 209 187h88q207 0 207 -187v-121h-142v84q0 33 -11 43.5t-44 10.5h-18q-33 0 -44.5 -10.5t-11.5 -43.5v-202q0 -35 11.5 -46.5t44.5 -11.5h141v-170h-141q-33 0 -44.5 -11t-11.5 -46v-154q0 -35 11.5 -46t44.5 -11h346
v-107l-244 -385h-248l240 369l-86 -45h-107q-190 0 -190 186v228z" />
    <glyph glyph-name="uni0928094D0930094D" horiz-adv-x="919" 
d="M496 -129h-242l707 743v-249zM299 758v-193q0 -35 12.5 -46t46.5 -11h50q33 0 45 11t12 46v248h-109q-33 0 -45 -11t-12 -44zM68 545v250q0 96 50 141t167 45h676v-168h-263v-268q0 -109 -55 -157t-182 -48h-158q-127 0 -181 48t-54 157zM-41 1292h1002v-170h-1002v170z
" />
    <glyph glyph-name="uni092A094D0930094D" horiz-adv-x="509" 
d="M551 1122h-219v-684q0 -35 11 -46t44 -11h164v-107l-242 -385h-250l211 326q-172 16 -172 203v704h-139v170h592v-170z" />
    <glyph glyph-name="uni092B094D0930094D" horiz-adv-x="985" 
d="M512 442v680h-188v-684q0 -35 11 -46t44 -11h74q33 0 46 13t13 48zM1026 1122h-283v-166q25 25 84 25h199v-168h-223q-33 0 -46.5 -13.5t-13.5 -47.5v-752h-231v225l-211 -336h-250l211 324q-172 8 -172 186v723h-131v170h1067v-170z" />
    <glyph glyph-name="uni092C094D0930094D" horiz-adv-x="636" 
d="M-41 1292h715v-170h-715v170zM317 387q0 -35 11.5 -46t44.5 -11h198l-141 229q-94 170 -113 193v-365zM84 795q0 96 50 141t167 45h244v-160h-152l125 -207q29 -45 85 -155.5t71 -124.5v-170l-197 -275h-246l199 271h-137q-209 0 -209 205v430z" />
    <glyph glyph-name="uni092D094D0930094D" horiz-adv-x="978" 
d="M582 -129h-242l680 715v-250zM506 512v180h-129q-33 0 -45.5 -11t-12.5 -42v-127q0 -35 12.5 -46t47.5 -11h70q33 0 45 11t12 46zM739 862h281v-170h-281v-203q0 -109 -55 -156.5t-180 -47.5h-180q-127 0 -181.5 48t-54.5 156v187q0 96 50 141t167 45h201v211
q0 33 -11.5 43t-43.5 10h-58q-33 0 -44 -10t-11 -43v-88h-234v115q0 98 50.5 147t167.5 49h200q115 0 166 -49t51 -147v-238z" />
    <glyph glyph-name="uni092E094D0930094D" horiz-adv-x="954" 
d="M561 -129h-242l676 709v-248zM485 512v217h-145q-33 0 -45 -11t-12 -42v-164q0 -35 13 -46t46 -11h86q33 0 45 11t12 46zM995 1122h-276v-223h276v-170h-276v-240q0 -109 -55.5 -156.5t-180.5 -47.5h-180q-127 0 -181 48t-54 156v222q0 98 50 143t167 45h200v223h-526
v170h1036v-170z" />
    <glyph glyph-name="uni092F094D0930094D" horiz-adv-x="716" 
d="M758 1292v-170h-217q20 -27 20 -69v-244q0 -98 -48 -147.5t-163 -49.5h-41v-174q0 -35 11.5 -46t44.5 -11h393v-107l-244 -385h-248l211 324h-211q-190 0 -190 186v383h205q33 0 44 10.5t11 43.5v219q0 43 -14.5 55t-67.5 12h-295v170h799z" />
    <glyph glyph-name="uni0935094D0930094D" horiz-adv-x="524" 
d="M324 758v-320q0 -35 11 -46t44 -11h166v-107l-244 -385h-250l211 324q-172 8 -172 186v396q0 96 50 141t167 45h121v-168h-49q-33 0 -44 -11t-11 -44zM-41 1292h586v-170h-586v170z" />
    <glyph glyph-name="uni0938094D0930094D" horiz-adv-x="923" 
d="M965 1292v-170h-256q14 -16 14 -53v-256q0 -59 -29 -92h271v-133l-297 -316h-242l297 291h-404v-348q0 -33 12.5 -44t45.5 -11h346v-160h-418q-117 0 -167 45t-50 141v750h231v-215h107q39 0 52.5 14.5t13.5 52.5v269q0 41 -12.5 53t-53.5 12h-467v170h1006z" />
    <glyph glyph-name="uni0915093C094D0930094D" horiz-adv-x="987" 
d="M391 -309v215h195v-215h-195zM1081 1122h-358v-225q23 23 84 23h274v-168h-299q-33 0 -46 -13.5t-13 -48.5v-690h-234v223l-210 -334h-248l211 326q-88 8 -130 56t-42 147v377q0 96 50 141t167 45h121v-160h-50q-33 0 -45 -11t-12 -42v-330q0 -35 12.5 -46t44.5 -11h72
q33 0 46 13.5t13 47.5v680h-530v170h1122v-170z" />
    <glyph glyph-name="uni0916093C094D0930094D" horiz-adv-x="1134" 
d="M711 172v-172h-367q-131 0 -192.5 47t-61.5 148v770h234v-306h57q39 0 52 13.5t13 52.5v332q0 41 -12 53t-53 12h-422v170h1225v-170h-518q14 -23 14 -53v-385q0 -102 -52.5 -148.5t-168.5 -46.5h-135v-249q0 -39 13 -53.5t52 -14.5h322zM436 -315v215h195v-215h-195z
M1053 385h164v-92l-267 -404h-245l221 330q-158 23 -158 201v358q0 96 50 141.5t167 45.5h125v-160h-57q-33 0 -45.5 -11.5t-12.5 -41.5v-310q0 -35 12.5 -46t45.5 -11z" />
    <glyph glyph-name="uni0917093C094D0930094D" horiz-adv-x="935" 
d="M782 -258v215h195v-215h-195zM553 -129h-242l680 717v-254zM356 481h72q33 0 45 11.5t12 46.5v274h-125q-41 0 -52 -11t-11 -52v-211q0 -35 13 -46.5t46 -11.5zM-41 1292h1032v-170h-272v-604q0 -109 -55.5 -158t-180.5 -49h-182q-125 0 -180 49.5t-55 157.5v268
q0 102 60 148.5t191 46.5h168v141h-526v170z" />
    <glyph glyph-name="uni0918093C094D0930094D" horiz-adv-x="645" 
d="M694 381v-107l-243 -385h-248l211 324h-131q-193 0 -193 186v238q0 92 86 102v6q-86 10 -86 105v215q0 39 19 57h-150v170h735v-170h-270q-66 0 -83 -10t-17 -55v-170q0 -35 11 -46.5t44 -11.5h108v-170h-108q-33 0 -44 -11t-11 -46v-164q0 -35 11 -46t44 -11h315z
M584 -61h194v-215h-194v215z" />
    <glyph glyph-name="uni0919093C094D0930094D" horiz-adv-x="905" 
d="M178 -559v215h195v-215h-195zM397 -344h236l233 -285h-237zM705 608v215h192v-215h-192zM-41 1292h987v-170h-258v-301h-301q-33 0 -44 -10t-11 -43v-102q0 -33 11 -43.5t44 -10.5h117q117 0 167 -45t50 -141v-240q0 -82 -35 -126t-115 -56l170 -297h-206l-123 242
l-127 -242h-209l172 295q-90 8 -129 53t-39 131v146h233v-117q0 -33 10.5 -44t38.5 -11h70q33 0 45 11t12 44v184q0 31 -12 42.5t-45 11.5h-117q-117 0 -166 45t-49 141v156q0 96 49.5 141t165.5 45h142v141h-498v170z" />
    <glyph glyph-name="uni091A093C094D0930094D" horiz-adv-x="550" 
d="M592 1292v-170h-635v170h635zM592 381v-107l-242 -385h-250l211 324h-2q-193 0 -192 186v334q0 53 26 80h-147v168h477v-168h-33q-59 0 -74.5 -9t-15.5 -48v-318q0 -35 11.5 -46t44.5 -11h186zM438 -86h195v-215h-195v215z" />
    <glyph glyph-name="uni091B093C094D0930094D" horiz-adv-x="1206" 
d="M375 -559v215h194v-215h-194zM596 -344h235l234 -285h-238zM725 1122h-309l10 -2q-63 4 -81.5 -7t-18.5 -56v-277q0 -35 12 -46t45 -11h72v-168h-72q-33 0 -45 -11.5t-12 -45.5v-269q0 -35 12 -46t45 -11h448q35 0 46.5 11.5t11.5 45.5v547q0 33 -11.5 43t-46.5 10h-36
q-33 0 -44.5 -10t-11.5 -43v-188q0 -33 11.5 -43t44.5 -10h32v-152h-77q-201 0 -201 186v226q0 90 43 134t133 50v143zM1247 1122h-305v-143q88 -8 131 -52t43 -132v-590q0 -106 -57.5 -155.5t-179.5 -49.5h-101l168 -293h-207l-123 242l-127 -242h-208l172 293h-123
q-121 0 -178.5 49t-57.5 156v325q0 94 84 105v6q-84 10 -84 104v324q0 37 15 53h-150v170h1288v-170z" />
    <glyph glyph-name="uni091C093C094D0930094D" horiz-adv-x="952" 
d="M-41 1292h1034v-170h-1034v170zM88 981h231v-492q0 -35 12.5 -46t47.5 -11h55q33 0 45.5 11.5t12.5 45.5v492h501v-168h-270v-344q0 -109 -54.5 -157t-181.5 -48h-163q-127 0 -181.5 48t-54.5 157v512zM993 547v-244l-393 -414h-256zM729 -86h195v-215h-195v215z" />
    <glyph glyph-name="uni091D093C094D0930094D" horiz-adv-x="1042" 
d="M516 90h-201v-145h-233v422h233v-117h129q33 0 45.5 11t12.5 42v129q0 31 -12.5 42t-45.5 11h-147q-117 0 -167 45t-50 144v121q0 96 50 141t167 45h178v141h-516v170h1145v-170h-395v-301h-340q-33 0 -45.5 -11t-12.5 -42v-68q0 -31 12.5 -42t45.5 -11h735v-162h-375
q4 -29 4 -43v-166q0 -96 -50 -141t-167 -45zM1104 440v-227l-393 -403h-248zM920 -86h194v-215h-194v215z" />
    <glyph glyph-name="uni091E093C094D0930094D" horiz-adv-x="909" 
d="M971 1292v-170h-1012v170h1012zM682 512v-147q0 -109 -54.5 -157t-181.5 -48h-157q-127 0 -181.5 48t-54.5 157v172h232v-150q0 -35 12 -46t45 -11h51q33 0 45.5 11t12.5 46v371q0 33 -11.5 44t-46.5 11h-190v168h264q115 0 165 -49t50 -146v-104h289v-170h-289zM971 387
v-231l-336 -346h-248zM825 -143h195v-215h-195v215z" />
    <glyph glyph-name="uni091F093C094D0930094D" horiz-adv-x="823" 
d="M98 205v590q0 96 50.5 141t166.5 45h181v141h-537v170h905v-170h-137v-309h-338q-33 0 -45 -11t-12 -46v-529q0 -35 12 -46t45 -11h55q33 0 46.5 11.5t13.5 45.5v211h231v-233q0 -170 -147 -197l172 -301h-207l-123 242l-127 -242h-209l174 297q-90 10 -130 58.5
t-40 142.5zM205 -559v215h194v-215h-194zM662 -344l233 -285h-238l-231 285h236z" />
    <glyph glyph-name="uni0920093C094D0930094D" horiz-adv-x="862" 
d="M209 -559v215h194v-215h-194zM430 -344h236l233 -285h-237zM539 227v529q0 35 -12.5 46t-45.5 11h-92q-33 0 -45 -11t-12 -46v-529q0 -35 12 -46t45 -11h92q33 0 45.5 11t12.5 46zM-41 1292h944v-170h-352v-141q119 -2 169 -50t50 -155v-571q0 -94 -41 -142.5t-131 -58.5
l170 -297h-207l-123 242l-127 -242h-209l172 295q-92 10 -134 59.5t-42 143.5v571q0 106 51.5 154.5t169.5 50.5v141h-360v170z" />
    <glyph glyph-name="uni0921093C094D0930094D" horiz-adv-x="825" 
d="M80 186v146h233v-117q0 -33 10.5 -44t38.5 -11h70q33 0 45 11t12 44v184q0 31 -12 42.5t-45 11.5h-117q-117 0 -166 45t-49 141v156q0 96 49.5 141t165.5 45h142v141h-498v170h907v-170h-178v-301h-301q-33 0 -44 -10t-11 -43v-102q0 -33 11 -43.5t44 -10.5h117
q117 0 167 -45t50 -141v-240q0 -82 -35 -126t-117 -56l170 -297h-207l-122 242l-127 -242h-209l172 295q-88 8 -127 53t-39 131zM184 -559v215h195v-215h-195zM641 -344l233 -285h-237l-231 285h235z" />
    <glyph glyph-name="uni0922093C094D0930094D" horiz-adv-x="899" 
d="M233 -559v215h195v-215h-195zM455 -344h235l234 -285h-238zM-41 1292h981v-170h-213v-309h-338q-33 0 -45 -11t-12 -46v-529q0 -35 12 -46t45 -11h129q33 0 45 11.5t12 45.5v146q0 33 -12 44t-45 11h-88v170h143q125 0 180.5 -48t55.5 -157v-188q0 -96 -44 -145.5
t-142 -57.5l168 -295h-207l-123 242l-127 -242h-209l172 295q-104 6 -151.5 54t-47.5 149v590q0 96 50.5 141t166.5 45h181v141h-537v170z" />
    <glyph glyph-name="uni0923093C094D0930094D" horiz-adv-x="837" 
d="M379 375h55q33 0 45.5 11t12.5 46v690h-173v-690q0 -35 12.5 -46t47.5 -11zM723 1122v-710q0 -111 -54.5 -159t-181.5 -48h-163q-127 0 -181.5 48t-54.5 159v710h-129v170h940v-170h-176zM899 365v-232l-317 -323h-250zM733 -123h195v-215h-195v215z" />
    <glyph glyph-name="uni0924093C094D0930094D" horiz-adv-x="684" 
d="M418 -266v215h194v-215h-194zM725 555v-160h-176l-256 -395h-264l317 487l-117 211q-33 61 -64.5 84t-88.5 23h-58v172h138q104 0 157.5 -29.5t98.5 -107.5l163 -285h150zM-41 1292h766v-170h-766v170z" />
    <glyph glyph-name="uni0925093C094D0930094D" horiz-adv-x="739" 
d="M780 381v-107l-243 -385h-248l211 324h-211q-190 0 -191 186v367h226q33 0 45 11t12 44v258q0 31 -12.5 42.5t-44.5 11.5h-13q-33 0 -44 -10.5t-11 -43.5v-84h-141v121q0 96 49 141.5t155 45.5h87q207 0 206 -187v-323q0 -98 -50 -146.5t-167 -48.5h-65v-160
q0 -35 12 -46t45 -11h393zM633 -82h194v-215h-194v215z" />
    <glyph glyph-name="uni0926093C094D0930094D" horiz-adv-x="825" 
d="M86 399v396q0 96 50 141t167 45h191v141h-547v170h919v-170h-141v-309h-348q-33 0 -45.5 -11t-12.5 -46v-318q0 -35 11.5 -46t44.5 -11h67q33 0 46.5 13.5t13.5 47.5v125h231v-567h-231v223l-211 -334h-248l209 324q-166 12 -166 186zM256 -352v215h195v-215h-195z
M711 -137l233 -285h-237l-232 285h236z" />
    <glyph glyph-name="uni0927093C094D0930094D" horiz-adv-x="700" 
d="M127 627q0 92 86 102v6q-86 10 -86 105v276q0 186 209 187h88q207 0 207 -187v-121h-142v84q0 33 -11 43.5t-44 10.5h-18q-33 0 -44.5 -10.5t-11.5 -43.5v-202q0 -35 11.5 -46.5t44.5 -11.5h141v-170h-141q-33 0 -44.5 -11t-11.5 -46v-154q0 -35 11.5 -46t44.5 -11h346
v-107l-244 -385h-248l240 369l-86 -45h-107q-190 0 -190 186v228zM635 -55h194v-215h-194v215z" />
    <glyph glyph-name="uni0928093C094D0930094D" horiz-adv-x="919" 
d="M666 -225v215h194v-215h-194zM496 -129h-242l707 743v-249zM299 758v-193q0 -35 12.5 -46t46.5 -11h50q33 0 45 11t12 46v248h-109q-33 0 -45 -11t-12 -44zM68 545v250q0 96 50 141t167 45h676v-168h-263v-268q0 -109 -55 -157t-182 -48h-158q-127 0 -181 48t-54 157z
M-41 1292h1002v-170h-1002v170z" />
    <glyph glyph-name="uni092A093C094D0930094D" horiz-adv-x="509" 
d="M551 381v-107l-242 -385h-250l211 326q-172 16 -172 203v704h-139v170h592v-170h-219v-684q0 -35 11 -46t44 -11h164zM416 -29h194v-215h-194v215z" />
    <glyph glyph-name="uni092B093C094D0930094D" horiz-adv-x="985" 
d="M426 -307v215h195v-215h-195zM512 442v680h-188v-684q0 -35 11 -46t44 -11h74q33 0 46 13t13 48zM1026 1122h-283v-166q25 25 84 25h199v-168h-223q-33 0 -46.5 -13.5t-13.5 -47.5v-752h-231v225l-211 -336h-250l211 324q-172 8 -172 186v723h-131v170h1067v-170z" />
    <glyph glyph-name="uni092C093C094D0930094D" horiz-adv-x="636" 
d="M-41 1292h715v-170h-715v170zM317 387q0 -35 11.5 -46t44.5 -11h198l-141 229q-94 170 -113 193v-365zM84 795q0 96 50 141t167 45h244v-160h-152l125 -207q29 -45 85 -155.5t71 -124.5v-170l-197 -275h-246l199 271h-137q-209 0 -209 205v430zM575 -98h195v-215h-195
v215z" />
    <glyph glyph-name="uni092D093C094D0930094D" horiz-adv-x="978" 
d="M780 -248v215h195v-215h-195zM582 -129h-242l680 715v-250zM506 512v180h-129q-33 0 -45.5 -11t-12.5 -42v-127q0 -35 12.5 -46t47.5 -11h70q33 0 45 11t12 46zM739 862h281v-170h-281v-203q0 -109 -55 -156.5t-180 -47.5h-180q-127 0 -181.5 48t-54.5 156v187
q0 96 50 141t167 45h201v211q0 33 -11.5 43t-43.5 10h-58q-33 0 -44 -10t-11 -43v-88h-234v115q0 98 50.5 147t167.5 49h200q115 0 166 -49t51 -147v-238z" />
    <glyph glyph-name="uni092E093C094D0930094D" horiz-adv-x="954" 
d="M756 -258v215h194v-215h-194zM561 -129h-242l676 709v-248zM485 512v217h-145q-33 0 -45 -11t-12 -42v-164q0 -35 13 -46t46 -11h86q33 0 45 11t12 46zM995 1122h-276v-223h276v-170h-276v-240q0 -109 -55.5 -156.5t-180.5 -47.5h-180q-127 0 -181 48t-54 156v222
q0 98 50 143t167 45h200v223h-526v170h1036v-170z" />
    <glyph glyph-name="uni092F093C094D0930094D" horiz-adv-x="716" 
d="M758 381v-107l-244 -385h-248l211 324h-211q-190 0 -190 186v383h205q33 0 44 10.5t11 43.5v219q0 43 -14.5 55t-67.5 12h-295v170h799v-170h-217q20 -27 20 -69v-244q0 -98 -48 -147.5t-163 -49.5h-41v-174q0 -35 11.5 -46t44.5 -11h393zM612 -70h195v-215h-195v215z
" />
    <glyph glyph-name="uni0935093C094D0930094D" horiz-adv-x="524" 
d="M545 1292v-170h-586v170h586zM545 381v-107l-244 -385h-250l211 324q-172 8 -172 186v396q0 96 50 141t167 45h121v-168h-49q-33 0 -44 -11t-11 -44v-320q0 -35 11 -46t44 -11h166zM416 -59h194v-215h-194v215z" />
    <glyph glyph-name="uni0915094D0915" horiz-adv-x="2035" 
d="M1313 389v733h-590v-164q23 23 84 23h424v-160h-49q-33 0 -44.5 -10t-11.5 -43v-381q0 -35 11.5 -46t44.5 -11h71q33 0 46.5 12t13.5 47zM2077 1122h-531v-164q23 23 84 23h127q106 0 157.5 -49t51.5 -156v-430q0 -96 -50 -141t-167 -45h-121v159h49q33 0 45.5 11.5
t12.5 44.5v381q0 35 -12.5 46t-45.5 11h-71q-33 0 -46.5 -13.5t-13.5 -47.5v-752h-233v184q-25 -25 -84 -24h-127q-209 0 -209 205v374q0 37 12 74h-123q-33 0 -46 -13.5t-13 -47.5v-752h-234v184q-25 -25 -83 -24h-127q-209 0 -209 205v430q0 96 50 141t167 45h121v-160
h-50q-33 0 -45 -11t-12 -42v-381q0 -35 12.5 -46t44.5 -11h72q33 0 46 12t13 47v733h-530v170h2118v-170z" />
    <glyph glyph-name="uni0915094D0916" horiz-adv-x="2328" 
d="M1266 725v332q0 41 -12.5 53t-53.5 12h-477v-225q23 23 84 23h336v-261h57q39 0 52.5 13.5t13.5 52.5zM2370 1292v-170h-142v-1122h-227v238q-25 -31 -90 -31h-115q-209 0 -209 205v366q0 96 50.5 141.5t166.5 45.5h125v-160h-57q-33 0 -45 -11.5t-12 -41.5v-318
q0 -35 12 -46t45 -11h61q37 0 52.5 14.5t15.5 50.5v680h-516q14 -23 14 -53v-385q0 -102 -52 -148.5t-169 -46.5h-135v-249q0 -39 13 -53.5t52 -14.5h469v-172h-514q-131 0 -192.5 47t-61.5 148v557h-127q-33 0 -46 -13.5t-13 -48.5v-690h-234v184q-25 -25 -83 -24h-127
q-209 0 -209 205v430q0 96 50 141t167 45h121v-160h-50q-33 0 -45 -11t-12 -42v-381q0 -35 12.5 -46t44.5 -11h72q33 0 46 12t13 47v733h-530v170h2411z" />
    <glyph glyph-name="uni0915094D091A" horiz-adv-x="1675" 
d="M1346 389v733h-623v-225q23 23 84 23h450v-168h-32q-59 0 -74.5 -9.5t-15.5 -48.5v-307q0 -35 11 -46t44 -11h94q35 0 48.5 12t13.5 47zM1716 1292v-170h-139v-1122h-231v186q-25 -27 -86 -26h-150q-209 0 -209 205v307q0 53 27 80h-146q-33 0 -46 -13.5t-13 -48.5v-690
h-234v184q-25 -25 -83 -24h-127q-209 0 -209 205v430q0 96 50 141t167 45h121v-160h-50q-33 0 -45 -11t-12 -42v-381q0 -35 12.5 -46t44.5 -11h72q33 0 46 12t13 47v733h-530v170h1757z" />
    <glyph glyph-name="uni0915094D091C" horiz-adv-x="2039" 
d="M1710 981v141h-987v-164q23 23 84 23h336v-594q0 -35 12 -46t45 -11h55q33 0 46.5 11t13.5 46v594h395zM2081 1292v-170h-139v-1122h-232v813h-164v-448q0 -109 -55 -157t-180 -48h-164q-127 0 -182.5 48t-55.5 157v448h-127q-33 0 -46 -13.5t-13 -47.5v-752h-234v184
q-25 -25 -83 -24h-127q-209 0 -209 205v430q0 96 50 141t167 45h121v-160h-50q-33 0 -45 -11t-12 -42v-381q0 -35 12.5 -46t44.5 -11h72q33 0 46 12t13 47v733h-530v170h2122z" />
    <glyph glyph-name="uni0915094D091F" horiz-adv-x="1644" 
d="M723 1122v-164q23 23 84 23h500v141h-584zM1538 813h-338q-33 0 -45 -11t-12 -46v-529q0 -35 12 -46t45 -11h55q33 0 46.5 11.5t13.5 45.5v211h231v-233q0 -109 -55 -157t-180 -48h-164q-127 0 -182.5 48t-55.5 157v608h-127q-33 0 -46 -13.5t-13 -47.5v-752h-234v184
q-25 -25 -83 -24h-127q-209 0 -209 205v430q0 96 50 141t167 45h121v-160h-50q-33 0 -45 -11t-12 -42v-381q0 -35 12.5 -46t44.5 -11h72q33 0 46 12t13 47v733h-530v170h1727v-170h-148v-309z" />
    <glyph glyph-name="uni0915094D0923" horiz-adv-x="2058" 
d="M1323 387v735h-172v-735q0 -35 13.5 -46t45.5 -11h56q33 0 45 11t12 46zM807 920h113v202h-197v-225q23 23 84 23zM2099 1292v-170h-139v-1122h-234v1122h-172v-757q0 -109 -54 -157t-181 -48h-164q-127 0 -181 48t-54 157v387h-138q-33 0 -46 -13.5t-13 -48.5v-690h-234
v184q-25 -25 -83 -24h-127q-209 0 -209 205v430q0 96 50 141t167 45h121v-160h-50q-33 0 -45 -11t-12 -42v-381q0 -35 12.5 -46t44.5 -11h72q33 0 46 12t13 47v733h-530v170h2140z" />
    </font>
</defs>
</svg>
