<svg xmlns="http://www.w3.org/2000/svg" width="61.096" height="11.164" viewBox="0 0 61.096 11.164">
  <g id="Group_794" data-name="Group 794" transform="translate(1.591 1.127)">
    <path id="Path_983" data-name="Path 983" d="M148.414,139.376a3.821,3.821,0,0,0,5.678,0l5.746-6.38a3.821,3.821,0,0,1,5.678,0l5.749,6.381a3.82,3.82,0,0,0,5.677,0l5.75-6.383a3.821,3.821,0,0,1,5.677,0l5.752,6.384a3.822,3.822,0,0,0,5.677,0" transform="translate(-145.141 -131.73)" fill="none" stroke="#f9dd31" stroke-miterlimit="10" stroke-width="1"/>
    <path id="Path_984" data-name="Path 984" d="M143.253,135.742l3.273,3.633a3.821,3.821,0,0,0,5.678,0L157.95,133a3.821,3.821,0,0,1,5.678,0l5.749,6.381a3.82,3.82,0,0,0,5.677,0l5.75-6.383a3.821,3.821,0,0,1,5.677,0l5.752,6.384a3.822,3.822,0,0,0,5.677,0l3.253-3.611" transform="translate(-143.253 -131.73)" fill="none" stroke="#f9dd31" stroke-linecap="round" stroke-miterlimit="10" stroke-width="2.254"/>
  </g>
</svg>
