<svg xmlns="http://www.w3.org/2000/svg" width="110.02" height="19.275" viewBox="0 0 110.02 19.275">
  <g id="Group_801" data-name="Group 801" transform="translate(2.118 1.5)">
    <g id="Group_794" data-name="Group 794" transform="translate(0 0)">
      <path id="Path_983" data-name="Path 983" d="M148.414,145.695a6.979,6.979,0,0,0,10.372,0l10.5-11.653a6.98,6.98,0,0,1,10.372,0l10.5,11.656a6.978,6.978,0,0,0,10.37,0l10.5-11.658a6.98,6.98,0,0,1,10.37,0L231.905,145.7a6.981,6.981,0,0,0,10.37,0" transform="translate(-142.435 -131.73)" fill="none" stroke="#1468cf" stroke-miterlimit="10" stroke-width="3"/>
      <path id="Path_984" data-name="Path 984" d="M143.253,139.058l5.979,6.637a6.979,6.979,0,0,0,10.372,0l10.5-11.653a6.98,6.98,0,0,1,10.372,0l10.5,11.656a6.977,6.977,0,0,0,10.37,0l10.5-11.658a6.98,6.98,0,0,1,10.37,0L232.723,145.7a6.981,6.981,0,0,0,10.37,0l5.943-6.6" transform="translate(-143.253 -131.73)" fill="none" stroke="#1468cf" stroke-linecap="round" stroke-miterlimit="10" stroke-width="3"/>
    </g>
    <path id="Path_985" data-name="Path 985" d="M234.705,137.942" transform="translate(-128.763 -130.746)" fill="none" stroke="#1468cf" stroke-linecap="round" stroke-miterlimit="10" stroke-width="3"/>
  </g>
</svg>
