<svg xmlns="http://www.w3.org/2000/svg" viewBox="0 0 302.23 288.69"><defs><style>.cls-1{isolation:isolate;}.cls-2{fill:#bfd730;mix-blend-mode:multiply;}.cls-3{font-size:6.88px;font-family:GothamRounded-Bold, GothamRounded Bold;font-weight:700;letter-spacing:-0.01em;}.cls-4{letter-spacing:-0.02em;}</style></defs><g class="cls-1"><g id="Garden_Crisps" data-name="Garden Crisps"><path class="cls-2" d="M294.58,7.65v273.4H7.65V7.65H294.58M302.23,0H0V288.69H302.23V0Z" transform="translate(0 0)"/><path d="M248,225a.38.38,0,0,1-.38.37h-.87a.15.15,0,0,0-.15.15V229a.37.37,0,0,1-.37.37h-.33a.37.37,0,0,1-.37-.37v-3.49a.15.15,0,0,0-.15-.15h-.87a.38.38,0,0,1-.38-.37v-.12a.37.37,0,0,1,.38-.37h3.11a.37.37,0,0,1,.38.37Zm6.05,4a.37.37,0,0,1-.37.37h-.26a.38.38,0,0,1-.38-.37v-3.11s0,0,0,0L252,229a.54.54,0,0,1-.49.36h-.09a.52.52,0,0,1-.49-.36l-1.09-3.13s0,0,0,0V229a.37.37,0,0,1-.37.37h-.27a.37.37,0,0,1-.37-.37v-4.13a.36.36,0,0,1,.37-.37h.76a.53.53,0,0,1,.49.35l1,2.94c0,.05.07.05.09,0l1-2.94a.51.51,0,0,1,.49-.35h.75a.36.36,0,0,1,.37.37Z" transform="translate(0 0)"/><path id="Off_the_Eaten_Path" data-name="Off the Eaten Path" d="M88.52,156.9c1.59,0,3.13.07,4.64.21l2.89-12.91A1.4,1.4,0,0,1,97.37,143h15.77a1.54,1.54,0,0,1,1.55,1.19l3.94,13.88a1.41,1.41,0,0,0,1.43,1.19h9.58A1.42,1.42,0,0,0,131,157.6L112.55,83.16c-.12-.84-.6-1.32-1.32-1.32H100.11a1.4,1.4,0,0,0-1.31,1.32L80.55,157.41A62.79,62.79,0,0,1,88.52,156.9Zm10.63-27.41,5.26-20a.78.78,0,0,1,1.56,0l5.39,20a1.34,1.34,0,0,1-1.32,1.56h-9.58A1.33,1.33,0,0,1,99.15,129.49Zm42.79,28.35V95.6A1.48,1.48,0,0,0,140.62,94H129.51a1.38,1.38,0,0,1-1.44-1.43V83.4a1.49,1.49,0,0,1,1.44-1.56h37.66a1.49,1.49,0,0,1,1.43,1.56v9.21A1.38,1.38,0,0,1,167.17,94H156.05a1.56,1.56,0,0,0-1.43,1.56v62.24a1.45,1.45,0,0,1-1.44,1.43h-9.81A1.44,1.44,0,0,1,141.94,157.84Zm37.39-76h31a1.47,1.47,0,0,1,1.31,1.56v9.21A1.35,1.35,0,0,1,210.3,94H192a1.51,1.51,0,0,0-1.56,1.56v16.16a1.42,1.42,0,0,0,1.56,1.43h10a1.67,1.67,0,0,1,1.55,1.44v9.45a1.55,1.55,0,0,1-1.55,1.43H192a1.4,1.4,0,0,0-1.56,1.32v18.93a1.39,1.39,0,0,0,1.56,1.31H210.3a1.43,1.43,0,0,1,1.31,1.44v9.33a1.35,1.35,0,0,1-1.31,1.43h-31a1.38,1.38,0,0,1-1.44-1.43V83.4A1.49,1.49,0,0,1,179.33,81.84Zm82.84,1.8v74.08a1.61,1.61,0,0,1-1.68,1.55h-8.73a1.64,1.64,0,0,1-1.55-1.19l-15.55-42.26a.66.66,0,0,0-1.31.12v39.13a21.14,21.14,0,0,0-4.2-.42,32.83,32.83,0,0,0-7.17.77V83.64a1.65,1.65,0,0,1,1.56-1.8h8.61a1.54,1.54,0,0,1,1.55,1.32l15.67,41.52a.61.61,0,0,0,1.2-.12V83.64a1.65,1.65,0,0,1,1.55-1.8h8.37A1.67,1.67,0,0,1,262.17,83.64Zm-145,116.83c-3.35,9.63-12.2,18.79-31.66,18.79-5.9,0-8.77-.28-11.14-1.48-3,10-5,16.12-4.57,26.33A1.63,1.63,0,0,1,68.21,246c-3.4,0-6-7.26-6.32-17.08-.27-7.21,1.19-14.63,3.23-21.64.69-2.37,1.45-4.7,2.23-7,.58-1.68,1.17-3.32,1.75-4.91,3.16-8.56,6.14-15.7,6.08-19.86,0-.57.11-1,1.08-1,3.17,0,8.31,2.14,8.47,6.34s-.64,7.62-2.5,13.28c-.48,1.47-1,3.08-1.66,4.9-.51,1.49-1.07,3.11-1.68,4.9-1,3-2.15,6.37-3.44,10.37a18.91,18.91,0,0,0,6.81,1.07c10.65,0,18.07-6,22-13.78a31,31,0,0,0,2-4.93,32.31,32.31,0,0,0,1.07-4.85c1.57-11.25-3-22.8-14.18-25.27a21.48,21.48,0,0,0-4.59-.48,34.34,34.34,0,0,0-6.42.59c-16.47,3.19-23.44,18.49-21,29.43a16.38,16.38,0,0,0,1.73,4.58c.51.89.62,1.81.22,2.24s-1.28.35-2.37-.26c-4.18-2.33-7.63-7.58-7.92-15.44-.56-15,14.53-25.64,35.71-25.64,19,0,33.92,10.93,29.94,34A31.63,31.63,0,0,1,117.2,200.47Zm120.43,24.12a2.35,2.35,0,0,0-1.33,0,.46.46,0,0,0-.18.69c3,5.74-4,14.89-8.11,14.89-14.18,0,20.9-43.4-2.36-43.4-8.13,0-15,6.08-20.21,13,1.31-4.67,2.76-9.48,4.32-14.2.51-1.58,1.05-3.14,1.59-4.68l.09-.25c1.17.11,2.29.18,3.36.23.72,0,1.42.05,2.09.05,9.76,0,16.42-3.39,20.37-7.93,6.47-7.42,5.67-17.93-.81-22a11.47,11.47,0,0,0-6.16-1.67l-.75,0C219.46,159.74,213,167,207,178.69q-1.38,2.72-2.74,5.73l-.71-.09c-1.68-.2-3.37-.42-5.05-.66-.82-.11-1.63-.23-2.44-.36q-3-.45-5.93-1c.77-2.71,1.94-7.72,1.89-9.11-.15-4-3.31-6.4-8.9-6.4.21,1.54-1.72,8.29-3.55,13.56-11.71-2.25-22.66-4.43-31.38-4.43-20.68,0-21,13.08-21,13.08,0,.43.22.81.78.39,0,0,7.18-6.23,20.21-6.23a207.87,207.87,0,0,1,29.49,2.44c-3.58,9.91-8.29,22.65-10.79,33.63-6,15.43-12.51,21-14.68,21-2.84,0-3.57-2.18-3.68-5.19-.35-9.44,7.62-24.07,10-29.88s-.85-8.72-8.46-8.72c.06,1.73-1.15,5.19-2.74,9.48-.7-2.71-3.12-9.51-9.95-9.51-25.06,0-35.18,46.41-13.84,46.41,7.76,0,13.42-7.39,17.29-15.45-1.24,8.55.65,15.45,11,15.45,5.18,0,9.7-5.91,13.47-13.55-.6,8.22,1.37,13.9,8.21,13.9,7.66,0,13.38-7.63,16.87-14.16-.92,4.37-1.43,7.25-1.53,7.79-.88,4.76,1.5,6.37,4.8,6.37a8,8,0,0,0,3.89-.74s2.17-11,5.83-25.05c5.91-8.75,14.95-16.45,20.35-16.45,9.24,0-24.58,42.09,3.84,42.09C242.67,243.11,245.22,226.55,237.63,224.59Zm-93-16.61c-.71,11.54-13.3,31.43-19.31,31.43-12.14,0,4.72-39.53,14-39.53C145.49,199.88,144.66,208,144.66,208Zm85.27-45.38a4.83,4.83,0,0,1,4.75,2.84c2.81,6.08-3.83,19.81-16.8,19.81-1.46,0-2.92,0-4.4-.1,4-10.28,7.25-17.45,11.32-20.66A8.09,8.09,0,0,1,229.93,162.6Zm-37.46,57.34h0c-1.26,2.71-9,20.17-17.54,20.17-7.78,0,7.26-33.61,13.68-52.78,4.78.78,9.31,1.55,13.49,2.18A227.2,227.2,0,0,0,192.47,219.94ZM71.7,159.27H41.43A1.38,1.38,0,0,1,40,157.84V83.4a1.49,1.49,0,0,1,1.44-1.56h31a1.47,1.47,0,0,1,1.31,1.56v9.21A1.35,1.35,0,0,1,72.4,94H54.11a1.51,1.51,0,0,0-1.56,1.56v16.16a1.42,1.42,0,0,0,1.56,1.43h10a1.67,1.67,0,0,1,1.55,1.44v9.45a1.55,1.55,0,0,1-1.55,1.43h-10a1.4,1.4,0,0,0-1.56,1.32v18.93a1.39,1.39,0,0,0,1.56,1.31H72.4a1.43,1.43,0,0,1,1.31,1.44v9.33a1.53,1.53,0,0,1-.33,1,1.27,1.27,0,0,1-1,.46Zm90.42-95.7-2,.35L160,65.76l-2.5-2.08-.16-1.25-3-2.51-3.31-2.77c-2.77,2.32-4.91,4.11-6.29,5.28l-.16,1.25-2.5,2.08L142,63.92l-2-.35,2.69-2.16,1.19,0,3-2.53,3.14-2.62-6.42-5.37-.91.91-1.66-4.29,4.28,1.67-.78.78,6.51,5.44c1.91-1.6,4.09-3.43,6.51-5.44l-.78-.78,4.28-1.67-1.66,4.29-.91-.91-6.41,5.37,6.13,5.15,1.2,0ZM66.61,56a13.6,13.6,0,1,0-27.19,0,13.6,13.6,0,0,0,27.19,0ZM46,56a7,7,0,1,1,7,7A7,7,0,0,1,46,56ZM79.31,42.67H94.58a1,1,0,0,1,1,1v4a1,1,0,0,1-1,1H84.69V53.4h8.08a1.06,1.06,0,0,1,1,1v4a1.06,1.06,0,0,1-1,1H84.69v8.63a1.06,1.06,0,0,1-1,1H79.31a1,1,0,0,1-1-1V43.7A1,1,0,0,1,79.31,42.67Zm34.74,6.09V53.4h8.07a1.06,1.06,0,0,1,1,1v4a1.07,1.07,0,0,1-1,1h-8.07v8.63a1.06,1.06,0,0,1-1,1h-4.35a1,1,0,0,1-1-1V43.7a1,1,0,0,1,1-1h15.27a1,1,0,0,1,1,1v4a1,1,0,0,1-1,1Zm75.74,20.39h-4.43a1.06,1.06,0,0,1-1-1V48.76h-4.94a1,1,0,0,1-1-1v-4a1,1,0,0,1,1-1h16.37a1,1,0,0,1,1,1v4a1,1,0,0,1-1,1h-4.94V68.12A1.06,1.06,0,0,1,189.79,69.15Zm19.39-1V43.7a1.06,1.06,0,0,1,1-1h4.38a1,1,0,0,1,1,1v9h9.88v-9a1,1,0,0,1,1-1h4.39a1.06,1.06,0,0,1,1,1V68.12a1.06,1.06,0,0,1-1,1h-4.39a1,1,0,0,1-1-1V58.75h-9.88v9.37a1,1,0,0,1-1,1h-4.38A1.06,1.06,0,0,1,209.18,68.12Zm42.64-19.36v3.9h8.08a1.06,1.06,0,0,1,1,1v4a1,1,0,0,1-1,1h-8.08v4.31h9.88a1,1,0,0,1,1,1v4a1,1,0,0,1-1,1H246.43a1,1,0,0,1-1-1V43.7a1,1,0,0,1,1-1H261.7a1,1,0,0,1,1,1v4a1,1,0,0,1-1,1Z" transform="translate(0 0)"/><text class="cls-3" transform="translate(244.81 235.92) scale(0.9 1)">M<tspan class="cls-4" x="5.48" y="0">C</tspan></text></g></g></svg>