<svg id="Group_818" data-name="Group 818" xmlns="http://www.w3.org/2000/svg" width="44.513" height="44.657" viewBox="0 0 44.513 44.657">
  <path id="Path_892" data-name="Path 892" d="M1808.893,795.868l.192-.428-.185.129a.857.857,0,0,1,.049-.421.086.086,0,0,1-.062.05c-.04-.506-.026-1.06.146-1.119-.037-.22-.13-.109-.129-.341.017-.316.094-.113.146.022a4.122,4.122,0,0,1-.173-1.254c.009,0-.045.333-.045.333.04-.484-.234-.688-.143-1.374l.225-.116,0,.655.068-1.1c-.061-.216-.071-.045-.142-.087.01-.669-.24-.615-.138-1.02l-.185-.059.017-.529c-.068.133-.166.449-.41-.252l-.206-.638.22.107c-.15-.331-.446-.391-.437-.94l-.146.019c-.255-.529.144-.3-.135-.719l-.042.22c-.218-.689-.439-1.263-.663-1.812a5.03,5.03,0,0,0-.864-1.545l-.041.041a10.638,10.638,0,0,1-.75-1.221l.1.1c.019-.013-.558-.819-.558-.819l-.025.005c-.355-.561-.719-1.15-.969-1.167-.331-.439-.472-.662-.576-.826-.006-.141.018-.311.025-.453-.377-.386-.036-.34-.638-.75.078.175.129.245-.022.221a2.826,2.826,0,0,1-.642-.9c.184.363-.061.358-.469.113-.367-.377-.682-.655-.814-.655l-.019-.017.012-.016a.131.131,0,0,0-.021.008,5.487,5.487,0,0,0-1.3-1.045l-.57-.085c-.462-.239-.333-.524-.684-.607-.97-.462-.033-.2-.906-.563l.013-.008-.09-.022,0,0h0a5.787,5.787,0,0,1-1.033-.485s-.554-.352-.562-.336c-.055-.253-.576-.193-.862-.288l-.14-.219c-.458-.081-1.031-.237-1.911-.44l-.022-.019-.028.008-.015,0v.008a2.143,2.143,0,0,1-1-.039c-.741-.12-1.326-.148-2.5-.417l-.311.151-.89-.144,0-.133c.443.031,1.083.035,1.751.082l1.927.264.033-.055c-.671-.1-1.443-.162-1.885-.243-.21-.075-.761-.215-.345-.291l-.432.108a15.81,15.81,0,0,0-2.283.1l-.961.008a9.7,9.7,0,0,0-1.415.058l.213.035a2.361,2.361,0,0,1-1.068.133c-.717.067-1.418.269-2.08.381s-1.252.262-1.723.346l-.139.217c-.287.1-.807.036-.863.289-.008-.017-.561.336-.561.336a5.77,5.77,0,0,1-1.033.485h0l-.09.023.013.008c-.873.361.064.1-.906.563-.353.084-.224.367-.684.606l-.57.085a12.536,12.536,0,0,0-1.918,1.578c-.538.381-.908.459-.693.033a2.819,2.819,0,0,1-.641.9c-.152.023-.1-.046-.023-.221-.6.41-.26.364-.638.75.01.225.077.53-.03.662l.174-.117a11.89,11.89,0,0,1-1.149,1.41l-.048-.069-.384.579-.109-.026s-.578.808-.557.821l.1-.1a10.748,10.748,0,0,1-.75,1.221l-.041-.042a5.052,5.052,0,0,0-.866,1.546c-.222.549-.445,1.123-.661,1.811l-.044-.22c-.278.423.121.192-.135.72l-.145-.019c.01.549-.285.609-.437.939l.221-.105-.206.638c-.246.7-.343.385-.41.252l.015.529-.185.059c.1.405-.147.351-.138,1.019-.069.044-.08-.127-.14.089l.068,1.1-.005-.655.226.115c.092.687-.183.89-.143,1.375,0,0-.054-.334-.045-.333a4.2,4.2,0,0,1-.172,1.254c.052-.135.129-.34.144-.023,0,.233-.091.122-.128.341.171.06.185.615.145,1.12a.088.088,0,0,1-.062-.05.841.841,0,0,1,.05.421l-.185-.129.19.428c-.035.291.117.7-.005.673l-.044-.161s0,.136.01.342a5.6,5.6,0,0,0,.054.752l.144,1.089-.136.054c.216.184.122,1.2.369,1.077-.028.435.5,1.557.17,1.394a8.506,8.506,0,0,0,.689,1.753c.127.287.252.57.383.87.153.307.309.651.469,1.061a9.63,9.63,0,0,0,1.609,3.095c.351.428.674.819.981,1.194s.657.674.975,1a25.46,25.46,0,0,0,2.21,1.969,7.477,7.477,0,0,0,1.843,1.505,24.568,24.568,0,0,1,2.129,1.235l.418.057a5.916,5.916,0,0,0,1.56.8,17.824,17.824,0,0,1,1.909.76c.338.03.512.055.589.071-.058-.021-.143-.07-.149-.156.359.153,1.135.276,1.043.423l-.1-.009c-.046.075.246.13.6.194a3.421,3.421,0,0,1,.978.176l-.207-.211.722.14-.2,0c.8.049,1.484.041,2.111.058s1.194.087,1.758.06c.563-.008,1.125,0,1.728-.054a16.645,16.645,0,0,0,1.955-.424c-.177.125-.036.077.158.023.19-.071.432-.154.475-.057a3.506,3.506,0,0,0,1.9-.651.079.079,0,0,1,.028-.051l1.016-.344c-.508.469.646-.473.174-.058a16.928,16.928,0,0,0,4.2-2.073c.682-.48,1.358-1,2.013-1.53.442-.427.921-.814,1.36-1.227l.026,0c.057-.068.162-.183.283-.313.052-.054.108-.105.157-.159l-.011,0c.567-.6,1.466-1.514,1.729-1.834.629-.942,1.933-2.828,1.958-3.517.162-.41.318-.754.469-1.061l.385-.868a8.58,8.58,0,0,0,.689-1.755c-.328.162.2-.96.17-1.393.247.125.153-.894.368-1.077l-.135-.055.13-.985.005.019,0-.033.012-.089a5.451,5.451,0,0,0,.054-.752c.006-.206.011-.343.011-.343l-.044.162c-.124.03.028-.383-.006-.674m-12.974,16.018c-.6.281-1.138.588-1.634.777s-.909.34-1.2.449a4.07,4.07,0,0,1-.458.16l-.736.382c-.282.031-.57.073-.861.127s-.6.062-.906.107a17.808,17.808,0,0,1-1.893.22,11.817,11.817,0,0,1-1.941.051,8.268,8.268,0,0,1-1.854-.235l-.072.153a1.567,1.567,0,0,1-.773-.238,19.383,19.383,0,0,1-8.611-3.732,17.579,17.579,0,0,1-5.526-7.025,20.664,20.664,0,0,1-.833-2.5,14.616,14.616,0,0,1-1.053-5.508l.022.07s-.027-.216-.032-.435l.008-.435c.015-.037.035-.041.045-.012a7.3,7.3,0,0,1,.073-1.783c.14-.647.246-1.328.426-1.9v.072a19.957,19.957,0,0,1,4.591-9.009,18.042,18.042,0,0,1,8.531-5.379,31.825,31.825,0,0,1,5.081-.759l.675-.046.682.025c.455.021.916.029,1.374.066a14.525,14.525,0,0,1,2.7.58,3.793,3.793,0,0,0,.513.18c.126.032.269.076.423.127l.03.01c.157.053.327.116.507.192.311.115.66.244,1.022.38.12.049.242.094.359.145l.853.406a17.582,17.582,0,0,1,5.5,4.182,19.942,19.942,0,0,1,4.591,9.009v-.072c.18.572.286,1.252.427,1.9a7.3,7.3,0,0,1,.072,1.783c.012-.03.031-.024.046.012l.008.436c-.007.217-.032.433-.032.433l.022-.068a14.6,14.6,0,0,1-1.055,5.508,20.562,20.562,0,0,1-.832,2.5,18.639,18.639,0,0,1-1.549,2.868c-.126.145-.248.284-.345.41l-.466.556-1.174,1.312c-.387.36-.839.78-1.321,1.23-.515.414-1.081.839-1.648,1.257-.607.356-1.186.769-1.778,1.064" transform="translate(-1764.572 -772.385)" fill="#1468cf"/>
  <path id="Path_893" data-name="Path 893" d="M1786.452,784.789c-1.508-4.169-7.529-6.527-7.529-6.527s-3.184,5.457-1.6,9.834c1.836,5.067,7.728,7.076,7.728,7.076s3.266-5.237,1.4-10.383M1779,788.317c-1.25-3.445.5-8.128.5-8.128a16.31,16.31,0,0,0,.493,7.25c.7-.152,1.012-3.135,1.012-3.135a9.946,9.946,0,0,1-.327,4.694,16.427,16.427,0,0,0,1.01,1.7c.152-.66,1.023-3.557.655-5.273,0,0,1.026,5.819.516,6.789,1.01,1.171,1.524.966,1.524.966a7.967,7.967,0,0,1-5.383-4.861" transform="translate(-1761.047 -770.702)" fill="#1468cf"/>
  <path id="Path_894" data-name="Path 894" d="M1784.954,802.076s7.1.134,10.764-4.215c3.159-3.759,1.46-10.312,1.46-10.312s-7.356.169-10.367,3.742c-3.721,4.421-1.857,10.786-1.857,10.786m1.376-1.735s.5.39,1.984-.4c-.243-1.144.814-5.734.814-5.734.187,4.11.14,4.579.962,4.65a15.762,15.762,0,0,0,1.653-1.316,9.5,9.5,0,0,1,1.177-4.759s-.628,3.067.081,3.467a15.406,15.406,0,0,0,2.908-7s.386,5.262-2.108,8.225c-2.885,3.427-7.471,2.866-7.471,2.866" transform="translate(-1758.87 -768.044)" fill="#1468cf"/>
  <path id="Path_895" data-name="Path 895" d="M1780.627,789.7c-4.406-2.517-11.591.346-11.591.346s1.086,7.582,5.714,10.224c5.356,3.061,12.174-.013,12.174-.013s-.858-7.45-6.3-10.557m-4.191,9.376c-3.645-2.084-4.451-7.423-4.451-7.423a11.466,11.466,0,0,0,4.712,5.805,14.286,14.286,0,0,0,1.87.885c-.233-.967-.756-3.458-.27-4.586,0,0,.423,4.443,2.929,5.379.35.073.695.14,1.023.188a16.594,16.594,0,0,0,3.526.2s-5.114,1.968-9.339-.445" transform="translate(-1763.294 -767.724)" fill="#1468cf"/>
</svg>
