<svg id="Group_820" data-name="Group 820" xmlns="http://www.w3.org/2000/svg" width="44.76" height="44.905" viewBox="0 0 44.76 44.905">
  <path id="Path_903" data-name="Path 903" d="M1778.088,882.732c-.009-.018-.023-.016,0,0" transform="translate(-1760.573 -866.917)" fill="#1468cf"/>
  <path id="Path_904" data-name="Path 904" d="M1786.014,890.266l.01.009c.035-.021.066-.039.09-.05Z" transform="translate(-1758.3 -864.768)" fill="#1468cf"/>
  <path id="Path_905" data-name="Path 905" d="M1787.13,891.63l0,.017c.016-.017.035-.032,0-.017" transform="translate(-1757.981 -864.367)" fill="#1468cf"/>
  <path id="Path_906" data-name="Path 906" d="M1782.942,887.614a.035.035,0,0,0-.041-.013.081.081,0,0,1,.041.013" transform="translate(-1759.192 -865.519)" fill="#1468cf"/>
  <path id="Path_907" data-name="Path 907" d="M1775.679,880.585l.009.005a.331.331,0,0,1,0-.035Z" transform="translate(-1761.259 -867.536)" fill="#1468cf"/>
  <path id="Path_908" data-name="Path 908" d="M1775.756,880.566c.016.055-.049.03-.069.022a.138.138,0,0,0,.094.139c.042-.044-.039-.112-.024-.161" transform="translate(-1761.257 -867.533)" fill="#1468cf"/>
  <path id="Path_909" data-name="Path 909" d="M1771.432,876.562h.033a.074.074,0,0,0-.033,0" transform="translate(-1762.475 -868.68)" fill="#1468cf"/>
  <path id="Path_910" data-name="Path 910" d="M1781.436,889.381l-.035-.014a.033.033,0,0,0,.035.014" transform="translate(-1759.621 -865.013)" fill="#1468cf"/>
  <path id="Path_911" data-name="Path 911" d="M1772.055,877.256l.077-.058a.32.32,0,0,0-.077.058" transform="translate(-1762.297 -868.497)" fill="#1468cf"/>
  <path id="Path_912" data-name="Path 912" d="M1786.092,890.228l.037-.015a.23.23,0,0,0-.037.015" transform="translate(-1758.278 -864.771)" fill="#1468cf"/>
  <path id="Path_913" data-name="Path 913" d="M1788.261,892.806a.228.228,0,0,0-.043.061l0,0Z" transform="translate(-1757.67 -864.029)" fill="#1468cf"/>
  <path id="Path_914" data-name="Path 914" d="M1793.248,899.418a.193.193,0,0,0,.022-.031l-.077.019a.075.075,0,0,0,.055.012" transform="translate(-1756.245 -862.144)" fill="#1468cf"/>
  <path id="Path_915" data-name="Path 915" d="M1789.669,894.667a.206.206,0,0,0,.031-.017.8.8,0,0,0-.22-.267l-.09.077Z" transform="translate(-1757.334 -863.577)" fill="#1468cf"/>
  <path id="Path_916" data-name="Path 916" d="M1795.511,903.932l-.05-.383c.774.611.932,1.1,1.663,1.557l-.069,0c.049.125.473-.206.975,1.208l-.018.017c.037.03.07,0,.093.107l-.064-.268a1.357,1.357,0,0,1,.453.18.151.151,0,0,1-.04.121l.354.293-.009.207c.158.04.341-.235.48.156.058-.26.226.035.274-.08-.006.033-.005.093-.008.145.176.136.518.387.674.377a7.333,7.333,0,0,1-.283-1.282c.179.262.077.037.087-.059l-.055.026c-.094-.171.005-.273-.033-.367a.348.348,0,0,0-.023.032l.022-.005a.061.061,0,0,1-.045.036c-.019.023-.042.033-.073-.008l.018,0a.785.785,0,0,1-.185-.2l.082-.085c-.257.063-.422-.9-.549-1.038-.029-.238-.326-.269-.439-.486-.238-.289-.011-.255-.072-.459-.115-.217-.064.131-.136.071l-.082-.314c.125.1.113-.008.124-.062-.158-.185-.277-.609-.5-.493-.152-.31-.086-.378-.177-.485,0,.064.042.157.009.192-.019-.166-.063-.026-.041.028-.213-.067-.433-1.035-.646-.88l.033-.033c-.168.106-.248.291-.422.269l-.006-.127-.157-.038c-.023-.112.046-.116.063-.133-.225-.1-.377-.4-.556-.61l-.162.581c-.081-.251-.206-.723-.357-.634l.024-.225c-.094-.568-.336-.125-.4-.328l-.031-.3.163.166a2.409,2.409,0,0,1-.163-.565l-.005,0a.043.043,0,0,1,0,.036l-.027-.019c-.088.048-.22.009-.333-.111-.146-.184-.377-.211-.5-.619l-.2.075-.117-.28.111-.112c.189.2.6.521.854.763l.055-.046c-.149-.147-.367-.265-.454-.374-.026-.069-.033-.306.13-.293l-.2.018a3.66,3.66,0,0,1-.911-1.115l-.01.1c-.135-.069-.27-.139-.208-.257a2.429,2.429,0,0,1-.609-1.057l-.174.087c-.059-.072.039-.368-.175-.216l-.2-.081c-.08-.1-.21-.077-.237-.255a.155.155,0,0,1,0-.036l-.01.013c-.146-.26-.115.12-.273-.187.018-.167-.247.086-.331-.057l.072-.3c-.1-.311-.32-.157-.619-.452a.35.35,0,0,1,.25-.488c-.3.045-.171.054-.426-.033.043-.1.077-.094.179-.121-.071-.235-.158-.028-.27-.148-.166.1-.417.276-.462.248l0,.086a.575.575,0,0,1-.436-.358l.072-.062-.185-.116.076-.1-.243-.188.006.053a.835.835,0,0,1-.309-.314l.05-.045c-.121-.416-.536-.439-.867-.734l.138-.057c-.011-.2-.177.121-.259-.054l.113-.127c-.269.046-.113-.177-.131-.314l-.12.193-.113-.177c-.109-.211.1-.3.2-.355l-.233.016.116-.161c-.239.082-.054-.106-.28-.157.041-.064.105-.059.08-.129l-.424-.033.225.051-.217.187c-.3.01-.175-.217-.336-.264l.131.01c-.217-.118-.141-.214-.193-.352-.008.067-.018.167-.112.126-.062-.039.042-.1.017-.167a.227.227,0,0,1-.385-.1.175.175,0,0,1,.061-.04c-.049-.005-.1.015-.116-.066l.177-.122-.235.05c-.022-.1-.221-.085-.113-.179l.065.005-.44-.507.112-.127c-.211.12-.2-.319-.386-.1.022-.2-.432-.27-.149-.451-.295-.327-.684-.27-.953-.76.061-.331-.374-.634-.6-.9-.56-.389-.942-.62-1.492-1.038-.019-.566-.824-.629-.987-1.1l-.194.024c-.037-.382-.569-.485-.695-.947a.636.636,0,0,1-.193-.058c.008.018.008.059-.055.135-.035-.132-.266-.239-.116-.367l.035.008c.15-.127-.319-.188-.293-.4l-.1.2-.134-.183.071.013c-1.019-.353-.863-1.135-1.811-1.474.247-.077-.212-.041-.046-.228.058-.386-.35-.252-.543-.325a.082.082,0,0,1-.042.023l-.214-.253c.363-.085-.354.019-.035-.044a22.254,22.254,0,0,0-2.047-2.17l-.026.089c-.168-.189-.462-.341-.507-.567s-.442-.148-.5-.192c-.248-.049-.189-.381-.135-.307-.187-.13-.539-.073-.674-.381.112-.265-.79-.412-.584-.633l-.021.017c-.134-.432-.656-.44-.827-.88a.2.2,0,0,1,.046-.014l-1.266.036-.531.891-.037,1.115,1.587,1.32.942,1.381,2.915,2.731.363.04c.279.833,1.316,1.217,1.717,2.013l.151-.127c.177.159.081.234.1.3a48.679,48.679,0,0,1,4.656,4.525c.046.228.516.585.527.789a5.083,5.083,0,0,1,1.559,1.244l-.033,0,.244.188a.049.049,0,0,1-.035.042c.366.12.631.623.882.97l-.032,0c1.725,1.757,3.608,3.105,5.152,5.017.583,1.025,1.832,1.641,2.571,2.746a11.288,11.288,0,0,0,2.24,2.155" transform="translate(-1762.884 -868.68)" fill="#1468cf"/>
  <path id="Path_917" data-name="Path 917" d="M1792.13,899.817l-.008-.006c-.058.059-.026.048.008.006" transform="translate(-1756.561 -862.023)" fill="#1468cf"/>
  <path id="Path_918" data-name="Path 918" d="M1790.344,895.62l.01.013.036-.127Z" transform="translate(-1757.061 -863.256)" fill="#1468cf"/>
  <path id="Path_919" data-name="Path 919" d="M1792.335,897.487c-.093-.129-.112-.12-.12-.08a.207.207,0,0,0,.12.08" transform="translate(-1756.525 -862.719)" fill="#1468cf"/>
  <path id="Path_920" data-name="Path 920" d="M1792.923,900.464c.054.063.066.005.071-.067-.067-.053-.112-.09-.112-.09.019.046.022.109.041.157" transform="translate(-1756.334 -861.881)" fill="#1468cf"/>
  <path id="Path_921" data-name="Path 921" d="M1793.34,899.636l.066-.03c-.046-.022-.062,0-.066.03" transform="translate(-1756.203 -862.084)" fill="#1468cf"/>
  <path id="Path_922" data-name="Path 922" d="M1781.173,903.463l-.115-8.371c.748-.311.812-.809.812-.809a1.057,1.057,0,0,0,.831.8l.1,8.374Z" transform="translate(-1759.719 -863.606)" fill="#1468cf"/>
  <path id="Path_923" data-name="Path 923" d="M1809.036,894.047l.193-.43-.187.129a.84.84,0,0,1,.049-.423.086.086,0,0,1-.062.05c-.04-.507-.026-1.065.147-1.125-.037-.22-.131-.109-.13-.342.017-.319.094-.113.145.022a4.182,4.182,0,0,1-.174-1.26c.01,0-.045.334-.045.334.041-.486-.235-.691-.144-1.381l.228-.116,0,.659.068-1.1c-.062-.219-.072-.046-.141-.09.009-.671-.243-.617-.139-1.025l-.187-.059.017-.531c-.068.132-.166.451-.413-.254l-.207-.642.223.107c-.153-.332-.449-.392-.44-.945l-.146.021c-.256-.533.144-.3-.135-.724l-.044.221c-.217-.693-.441-1.27-.665-1.821a5.02,5.02,0,0,0-.871-1.554l-.041.041a10.894,10.894,0,0,1-.754-1.227l.1.1c.019-.014-.561-.826-.561-.826l-.026.006c-.356-.563-.723-1.156-.974-1.173-.332-.441-.475-.666-.579-.831-.006-.143.018-.312.025-.455-.38-.387-.036-.341-.642-.754.079.176.13.247-.022.223a2.836,2.836,0,0,1-.646-.9c.185.365-.06.359-.472.113-.369-.378-.684-.657-.819-.657l-.019-.017.012-.015a.13.13,0,0,0-.021.008,5.457,5.457,0,0,0-1.3-1.051l-.574-.085c-.463-.24-.334-.526-.688-.61-.975-.466-.032-.2-.909-.567l.012-.008-.09-.023h0a5.812,5.812,0,0,1-1.038-.487s-.557-.355-.565-.338c-.057-.255-.58-.193-.867-.29l-.14-.22c-.462-.082-1.038-.238-1.923-.443l-.023-.019c-.005,0-.021.005-.028.008l-.014,0v.008a2.144,2.144,0,0,1-1-.039c-.745-.12-1.333-.148-2.516-.419l-.313.152-.9-.145,0-.134c.445.032,1.088.036,1.76.084l1.938.265.033-.057c-.677-.1-1.452-.162-1.9-.243-.21-.076-.765-.216-.346-.293l-.435.109a15.615,15.615,0,0,0-2.3.1l-.966.006a10.034,10.034,0,0,0-1.423.059l.215.035a2.394,2.394,0,0,1-1.074.134c-.719.066-1.425.27-2.092.382s-1.258.264-1.731.349l-.14.219c-.288.1-.811.036-.867.291-.008-.018-.565.337-.565.337a5.713,5.713,0,0,1-1.038.487h0l0,0c-.028.006-.058.013-.09.022l.011.009c-.877.363.064.1-.909.566-.355.084-.225.369-.688.61l-.574.085a12.655,12.655,0,0,0-1.928,1.587c-.54.382-.913.46-.7.032a2.843,2.843,0,0,1-.646.906c-.152.023-.1-.047-.022-.224-.606.413-.262.367-.642.754.01.228.077.534-.031.668l.175-.118a11.662,11.662,0,0,1-1.155,1.417l-.048-.071-.386.583-.109-.024s-.58.812-.561.825l.1-.1a10.5,10.5,0,0,1-.754,1.228l-.041-.042a5.047,5.047,0,0,0-.87,1.554c-.225.552-.448,1.128-.665,1.821l-.044-.221c-.28.426.121.193-.136.724l-.146-.019c.009.552-.288.612-.44.944l.221-.107-.206.642c-.247.7-.345.387-.414.253l.018.533-.187.059c.1.406-.148.352-.139,1.025-.071.042-.081-.13-.142.089l.068,1.1,0-.659.227.116c.092.691-.184.9-.144,1.383,0,0-.054-.337-.045-.336a4.209,4.209,0,0,1-.172,1.262c.051-.136.129-.341.145-.023,0,.233-.093.122-.13.344.172.059.187.617.147,1.125a.082.082,0,0,1-.062-.051.871.871,0,0,1,.049.423l-.187-.129.193.431c-.035.292.117.706-.006.677l-.044-.162s.005.138.011.345a5.234,5.234,0,0,0,.054.756l.144,1.095-.136.055c.216.185.122,1.209.371,1.083-.029.436.5,1.564.17,1.4a8.594,8.594,0,0,0,.695,1.764c.127.288.252.572.386.873.153.309.31.655.472,1.068a9.665,9.665,0,0,0,1.617,3.112c.354.431.678.824.988,1.2s.66.678.979,1.01a25.609,25.609,0,0,0,2.223,1.98,7.481,7.481,0,0,0,1.854,1.513c.772.4,1.526.837,2.14,1.243l.421.058a6.08,6.08,0,0,0,1.568.807,17.637,17.637,0,0,1,1.921.764c.341.03.516.055.592.071-.058-.021-.143-.069-.149-.157.362.154,1.14.278,1.049.426l-.1-.008c-.046.073.247.13.6.194a3.414,3.414,0,0,1,.984.177l-.208-.212.724.141-.2,0c.8.049,1.492.041,2.123.058s1.2.089,1.767.062c.567-.009,1.132,0,1.737-.055a16.6,16.6,0,0,0,1.967-.427c-.177.125-.036.077.159.024.192-.072.435-.157.477-.058a3.537,3.537,0,0,0,1.913-.655.081.081,0,0,1,.027-.052l1.023-.346c-.511.473.648-.476.175-.058a16.931,16.931,0,0,0,4.219-2.085c.687-.482,1.366-1.007,2.025-1.538.445-.428.926-.817,1.367-1.232l.026,0c.056-.069.162-.184.284-.315.053-.054.108-.105.158-.161l-.011.005c.571-.6,1.474-1.524,1.738-1.844.633-.947,1.944-2.844,1.969-3.536.162-.413.319-.759.472-1.068l.386-.873a8.526,8.526,0,0,0,.693-1.764c-.329.163.2-.965.171-1.4.248.127.154-.9.37-1.082l-.136-.055.13-.992.007.021,0-.033.011-.09a5.428,5.428,0,0,0,.054-.756c.007-.207.012-.345.012-.345l-.044.162c-.124.03.028-.385-.007-.678m-13.046,16.107c-.6.282-1.145.59-1.643.781s-.915.342-1.205.452a4.045,4.045,0,0,1-.461.161l-.74.385q-.427.046-.866.127c-.294.049-.6.063-.911.108a18,18,0,0,1-1.9.221,12.088,12.088,0,0,1-1.951.052,8.3,8.3,0,0,1-1.865-.237l-.071.153a1.55,1.55,0,0,1-.778-.239,19.476,19.476,0,0,1-8.657-3.752,17.667,17.667,0,0,1-5.557-7.063,20.612,20.612,0,0,1-.839-2.51,14.7,14.7,0,0,1-1.06-5.539l.022.069s-.026-.217-.032-.436l.008-.439c.015-.036.035-.041.046-.012a7.376,7.376,0,0,1,.073-1.792c.141-.651.247-1.335.428-1.91v.072a20.063,20.063,0,0,1,4.617-9.058,18.141,18.141,0,0,1,8.579-5.41,32.042,32.042,0,0,1,5.109-.763l.679-.048.684.026c.458.021.922.03,1.383.066a14.7,14.7,0,0,1,2.716.583,3.62,3.62,0,0,0,.517.181c.126.033.27.076.425.129l.03.01c.158.054.329.117.511.193l1.028.381c.12.05.242.1.36.148l.858.408a17.675,17.675,0,0,1,5.531,4.2,20.064,20.064,0,0,1,4.615,9.058v-.072c.18.575.287,1.259.428,1.91a7.374,7.374,0,0,1,.073,1.792c.012-.03.03-.024.046.012,0,0,0,.219.006.439s-.032.436-.032.436l.023-.069a14.7,14.7,0,0,1-1.06,5.539,20.528,20.528,0,0,1-.839,2.51,18.765,18.765,0,0,1-1.556,2.885c-.127.145-.25.286-.347.412l-.468.558-1.18,1.32c-.39.361-.844.785-1.329,1.236-.518.417-1.085.844-1.657,1.263-.611.359-1.192.774-1.788,1.07" transform="translate(-1764.469 -870.434)" fill="#1468cf"/>
  <path id="Path_924" data-name="Path 924" d="M1783.54,903.085s-1.319-5.18-4.625-7.472c-.3-.211-1.127-.726-1.668-1.145a20.176,20.176,0,0,1-2.831-2.875s.867,4.173,4.07,6a21.414,21.414,0,0,1,3.54,3.539c.4.553.773,1.128.965,1.442.635,1.036.583.395.549.515" transform="translate(-1761.621 -864.376)" fill="#1468cf"/>
  <path id="Path_925" data-name="Path 925" d="M1785.071,877.086a9.17,9.17,0,0,1-2.151,3.289c-1.038,1.1-1.68,1.779-.787,4.29a5.98,5.98,0,0,0,3.526-2.558c.71-1.367.514-3.052-.588-5.021" transform="translate(-1759.533 -868.529)" fill="#1468cf"/>
  <path id="Path_926" data-name="Path 926" d="M1778.087,882.688a5.985,5.985,0,0,0,3.854,2.032c.526-2.614-.2-3.2-1.389-4.136a9.162,9.162,0,0,1-2.6-2.949c-.812,2.1-.767,3.8.131,5.053" transform="translate(-1760.773 -868.372)" fill="#1468cf"/>
  <path id="Path_927" data-name="Path 927" d="M1782.141,873.677c-1.9,1.465-2.818,3.019-2.709,4.6a5.9,5.9,0,0,0,2.3,3.827c1.935-2.076,1.609-2.979,1.079-4.443a9.079,9.079,0,0,1-.674-3.989" transform="translate(-1760.187 -869.505)" fill="#1468cf"/>
  <path id="Path_928" data-name="Path 928" d="M1775.87,881.315c-.245,5.472,5.117,6.841,6.007,7.031.916-1.3,1.218-2.2.952-2.857-.3-.731-1.357-1.1-2.58-1.509-1.491-.507-3.307-1.124-4.378-2.665" transform="translate(-1761.207 -867.319)" fill="#1468cf"/>
  <path id="Path_929" data-name="Path 929" d="M1775.836,885.034c-.815,5.563,5.464,7.5,6.53,7.794,1.138-1.355.513-2.114.294-2.834-.247-.821-1.017-1.243-2.319-1.774-1.576-.647-3.5-1.439-4.5-3.186" transform="translate(-1761.235 -866.254)" fill="#1468cf"/>
  <path id="Path_930" data-name="Path 930" d="M1776.177,889.1c-.675,5.543,4.523,6.869,5.388,7.053,1-1.329,1.371-2.246,1.163-2.9-.242-.747-1.257-1.1-2.434-1.5-1.43-.491-3.182-1.1-4.117-2.65" transform="translate(-1761.134 -865.09)" fill="#1468cf"/>
  <path id="Path_931" data-name="Path 931" d="M1783.1,896.056c.038-.013.077-.019.122-.031,1.118-.309,6.506-2.067,6.089-7.757-1.1,1.688-3.027,2.43-4.609,3.036-1.294.508-2.418.936-2.713,1.743-.261.7.09,1.659,1.11,3.009" transform="translate(-1759.475 -865.328)" fill="#1468cf"/>
  <path id="Path_932" data-name="Path 932" d="M1788.348,884.5c-.771,1.672-2.448,2.543-3.822,3.258-1.133.588-2.111,1.091-2.27,1.859-.139.679.324,1.532,1.466,2.687.881-.322,5.908-2.377,4.626-7.8" transform="translate(-1759.383 -866.407)" fill="#1468cf"/>
  <path id="Path_933" data-name="Path 933" d="M1787.547,880.381c-.589,1.708-2.17,2.687-3.459,3.492-1.069.653-1.991,1.223-2.066,2a2.98,2.98,0,0,0,1.229,2.772c.844-.363,6.167-2.942,4.3-8.265" transform="translate(-1759.449 -867.586)" fill="#1468cf"/>
</svg>
