<svg id="Group_819" data-name="Group 819" xmlns="http://www.w3.org/2000/svg" width="44.626" height="44.771" viewBox="0 0 44.626 44.771">
  <path id="Path_896" data-name="Path 896" d="M1808.824,853.692l.192-.428-.185.129a.852.852,0,0,1,.049-.422.085.085,0,0,1-.062.05c-.04-.507-.026-1.062.146-1.123-.038-.22-.13-.108-.129-.341.017-.318.094-.113.145.022a4.129,4.129,0,0,1-.172-1.257c.009,0-.045.333-.045.333.04-.485-.236-.689-.144-1.378l.226-.116,0,.657.068-1.1c-.062-.217-.072-.046-.141-.089.009-.67-.242-.616-.138-1.023l-.187-.058.017-.531c-.068.132-.166.45-.411-.252l-.206-.641.221.107c-.153-.331-.449-.391-.439-.942l-.147.019c-.255-.53.144-.3-.135-.722l-.042.22c-.217-.691-.44-1.266-.664-1.815a5.02,5.02,0,0,0-.868-1.55l-.04.041a10.5,10.5,0,0,1-.752-1.223l.095.1c.021-.013-.559-.822-.559-.822l-.024.006c-.356-.563-.722-1.154-.97-1.17-.332-.439-.475-.664-.579-.828-.006-.141.018-.311.024-.454-.378-.386-.036-.34-.639-.751.079.176.129.246-.022.223a2.832,2.832,0,0,1-.643-.9c.184.364-.062.358-.471.112-.368-.377-.683-.656-.817-.655l-.019-.017.011-.015-.021.006a5.486,5.486,0,0,0-1.3-1.047l-.571-.085c-.462-.239-.333-.525-.686-.607-.972-.464-.033-.2-.908-.566l.013-.008-.09-.022,0,0h0a5.668,5.668,0,0,1-1.035-.486s-.556-.354-.564-.337c-.055-.253-.577-.193-.864-.289l-.14-.217c-.459-.082-1.034-.238-1.917-.441l-.022-.021c-.007,0-.022.005-.03.009l-.014,0v.008a2.16,2.16,0,0,1-1-.04c-.743-.12-1.329-.147-2.51-.417l-.311.151-.894-.144,0-.134c.444.032,1.084.036,1.756.084l1.931.264.033-.055c-.674-.105-1.447-.163-1.89-.243-.21-.076-.763-.216-.345-.292l-.433.108a15.687,15.687,0,0,0-2.29.1l-.962.006a10.125,10.125,0,0,0-1.42.058l.215.036a2.373,2.373,0,0,1-1.07.132c-.718.066-1.423.27-2.086.382s-1.254.262-1.726.346l-.139.219c-.287.1-.809.035-.866.289-.006-.017-.562.337-.562.337a5.782,5.782,0,0,1-1.035.485h0l-.09.023.013.008c-.876.363.064.1-.908.565-.352.084-.224.368-.686.608l-.573.085a12.573,12.573,0,0,0-1.922,1.582c-.539.381-.911.459-.695.032a2.827,2.827,0,0,1-.643.9c-.152.025-.1-.046-.022-.221-.6.412-.262.364-.641.751.01.226.077.531-.031.665l.175-.118a11.721,11.721,0,0,1-1.151,1.414l-.048-.069-.385.58-.109-.024s-.579.809-.558.822l.1-.1a10.869,10.869,0,0,1-.753,1.223l-.041-.042a5.074,5.074,0,0,0-.867,1.55c-.224.55-.447,1.125-.664,1.816l-.042-.22c-.279.423.12.19-.136.722l-.146-.021c.009.552-.287.611-.438.943l.221-.107-.206.639c-.246.7-.344.386-.412.253l.017.53-.187.059c.1.406-.146.351-.137,1.023-.071.042-.081-.13-.142.089l.068,1.1,0-.657.227.116c.091.688-.184.893-.144,1.378,0,0-.054-.336-.045-.334a4.177,4.177,0,0,1-.172,1.258c.052-.135.129-.339.146-.023,0,.233-.093.122-.13.342.172.059.186.616.146,1.122a.084.084,0,0,1-.062-.05.869.869,0,0,1,.049.422l-.185-.129.191.43c-.035.291.117.7-.006.675l-.044-.162s.005.138.012.344a5.4,5.4,0,0,0,.054.755l.144,1.091-.136.055c.215.184.122,1.205.369,1.079-.028.435.5,1.56.17,1.4a8.559,8.559,0,0,0,.692,1.757l.385.871c.153.309.309.653.471,1.065a9.67,9.67,0,0,0,1.612,3.1c.354.428.677.821.985,1.2s.659.677.976,1.006a25.623,25.623,0,0,0,2.216,1.974,7.49,7.49,0,0,0,1.848,1.509c.769.4,1.521.835,2.134,1.237l.419.058a6.04,6.04,0,0,0,1.563.805,17.515,17.515,0,0,1,1.914.761c.339.03.514.055.592.071-.058-.022-.143-.069-.149-.157.36.154,1.137.278,1.044.424l-.1-.008c-.047.073.246.13.6.194a3.436,3.436,0,0,1,.98.176l-.207-.212.723.141-.2.005c.8.048,1.488.04,2.116.057s1.2.089,1.762.062c.565-.009,1.129,0,1.733-.054a17.082,17.082,0,0,0,1.96-.427c-.177.125-.037.077.158.024.19-.072.434-.156.476-.058a3.528,3.528,0,0,0,1.908-.652.08.08,0,0,1,.027-.051l1.019-.345c-.509.471.647-.475.175-.058a16.966,16.966,0,0,0,4.206-2.079c.684-.481,1.362-1,2.018-1.533.445-.428.924-.815,1.364-1.23l.027,0c.057-.068.162-.184.283-.314.053-.054.108-.105.158-.161l-.013.005c.57-.6,1.47-1.519,1.734-1.839.631-.944,1.938-2.835,1.963-3.526.162-.412.318-.756.471-1.064.133-.3.257-.584.385-.871a8.654,8.654,0,0,0,.692-1.758c-.329.162.2-.962.17-1.4.247.126.153-.9.369-1.079l-.136-.054.13-.989.007.021,0-.033.011-.09a5.439,5.439,0,0,0,.054-.754c.006-.207.011-.344.011-.344l-.044.161c-.124.03.028-.383-.007-.675m-13.007,16.06c-.6.28-1.142.589-1.637.778l-1.2.45a4.01,4.01,0,0,1-.459.161l-.739.383c-.283.03-.571.073-.863.127s-.6.062-.907.107a17.633,17.633,0,0,1-1.9.22,11.741,11.741,0,0,1-1.946.051,8.234,8.234,0,0,1-1.859-.235l-.072.153a1.555,1.555,0,0,1-.774-.238,19.431,19.431,0,0,1-8.632-3.74,17.617,17.617,0,0,1-5.54-7.044,20.684,20.684,0,0,1-.836-2.5,14.643,14.643,0,0,1-1.056-5.522l.022.069s-.027-.217-.032-.436.008-.436.008-.436c.016-.037.035-.041.045-.012a7.342,7.342,0,0,1,.073-1.788c.142-.648.247-1.33.427-1.9v.072a19.98,19.98,0,0,1,4.6-9.031,18.088,18.088,0,0,1,8.553-5.395,32,32,0,0,1,5.094-.76l.678-.046.683.025c.457.021.918.03,1.377.066a14.607,14.607,0,0,1,2.708.581,3.883,3.883,0,0,0,.514.181c.126.032.27.075.425.127l.03.009c.157.054.328.118.508.194l1.025.379c.12.049.242.1.359.147l.855.406a17.6,17.6,0,0,1,5.514,4.192,20,20,0,0,1,4.6,9.032V848.5c.181.574.287,1.255.428,1.9a7.336,7.336,0,0,1,.073,1.787c.01-.028.03-.024.045.013l.008.436c-.005.219-.032.436-.032.436l.022-.069a14.644,14.644,0,0,1-1.057,5.522,20.446,20.446,0,0,1-.835,2.5,18.608,18.608,0,0,1-1.552,2.876c-.126.145-.248.284-.346.41l-.466.557-1.177,1.316-1.325,1.234c-.516.416-1.083.84-1.652,1.259-.61.358-1.188.77-1.783,1.066" transform="translate(-1764.39 -830.15)" fill="#1468cf"/>
  <path id="Path_897" data-name="Path 897" d="M1778.675,852.279a8.893,8.893,0,0,1-.575,3.928,2.966,2.966,0,0,1-2.872,1.522,3.351,3.351,0,0,1-2.741-1.1c-.773-.933-.839-2.555-.839-4.2V845.06c0-2.555.4-3.463,1.038-4.151a3.657,3.657,0,0,1,4.906-.024c.642.688,1.083,1.547,1.083,3.806Zm-1.945-7.563c0-1.964-.309-2.823-1.546-2.823-1.571,0-1.614,1.571-1.614,2.775v8.153c0,1.914.154,2.995,1.569,2.995,1.5,0,1.591-1.178,1.591-2.578Z" transform="translate(-1762.312 -827.344)" fill="#1468cf"/>
  <path id="Path_898" data-name="Path 898" d="M1778.675,852.279a8.893,8.893,0,0,1-.575,3.928,2.966,2.966,0,0,1-2.872,1.522,3.351,3.351,0,0,1-2.741-1.1c-.773-.933-.839-2.555-.839-4.2V845.06c0-2.555.4-3.463,1.038-4.151a3.657,3.657,0,0,1,4.906-.024c.642.688,1.083,1.547,1.083,3.806Zm-1.945-7.563c0-1.964-.309-2.823-1.546-2.823-1.571,0-1.614,1.571-1.614,2.775v8.153c0,1.914.154,2.995,1.569,2.995,1.5,0,1.591-1.178,1.591-2.578Z" transform="translate(-1762.312 -827.344)" fill="#1468cf" stroke="#253b92" stroke-width="0.341"/>
  <path id="Path_899" data-name="Path 899" d="M1786.6,856.184v-7.891c0-1.414-.183-2.3-1.113-2.3-1.041,0-1.187,1.164-1.187,2.189v8.006h-1.479v-8.257c0-.774-.072-1.938-1.095-1.938-1.168,0-1.222,1.141-1.222,2.76v7.435h-1.461v-11.4h1.369V845.9a2.238,2.238,0,0,1,1.954-1.324,1.956,1.956,0,0,1,1.807,1.324,2.158,2.158,0,0,1,1.879-1.324c1.5,0,2.045,1.414,2.045,3.193v8.416Z" transform="translate(-1760.195 -826.02)" fill="#1468cf"/>
  <path id="Path_900" data-name="Path 900" d="M1786.6,856.184v-7.891c0-1.414-.183-2.3-1.113-2.3-1.041,0-1.187,1.164-1.187,2.189v8.006h-1.479v-8.257c0-.774-.072-1.938-1.095-1.938-1.168,0-1.222,1.141-1.222,2.76v7.435h-1.461v-11.4h1.369V845.9a2.238,2.238,0,0,1,1.954-1.324,1.956,1.956,0,0,1,1.807,1.324,2.158,2.158,0,0,1,1.879-1.324c1.5,0,2.045,1.414,2.045,3.193v8.416Z" transform="translate(-1760.195 -826.02)" fill="#1468cf" stroke="#253b92" stroke-width="0.341"/>
  <path id="Path_901" data-name="Path 901" d="M1792.29,856.846c0,2.531-1.478,3.169-2.83,3.169a2.466,2.466,0,0,1-2.482-2.76v-.16h1.352c0,.777.255,1.46,1.205,1.46,1.057,0,1.294-.821,1.294-1.893V855l-.164.274a1.972,1.972,0,0,1-1.678.98,1.824,1.824,0,0,1-1.626-1,6.96,6.96,0,0,1-.473-3.126v-3.467c0-1.917.291-4.083,2.281-4.083a1.893,1.893,0,0,1,1.771,1.209v-1h1.351Zm-3.906-4.563c0,1.232.055,2.578,1.168,2.578,1.223,0,1.315-1.665,1.315-2.623v-3.125c0-1.847-.127-3.262-1.3-3.262-1.114,0-1.187,1.506-1.187,3.352Z" transform="translate(-1757.949 -826.02)" fill="#1468cf"/>
  <path id="Path_902" data-name="Path 902" d="M1792.29,856.846c0,2.531-1.478,3.169-2.83,3.169a2.466,2.466,0,0,1-2.482-2.76v-.16h1.352c0,.777.255,1.46,1.205,1.46,1.057,0,1.294-.821,1.294-1.893V855l-.164.274a1.972,1.972,0,0,1-1.678.98,1.824,1.824,0,0,1-1.626-1,6.96,6.96,0,0,1-.473-3.126v-3.467c0-1.917.291-4.083,2.281-4.083a1.893,1.893,0,0,1,1.771,1.209v-1h1.351Zm-3.906-4.563c0,1.232.055,2.578,1.168,2.578,1.223,0,1.315-1.665,1.315-2.623v-3.125c0-1.847-.127-3.262-1.3-3.262-1.114,0-1.187,1.506-1.187,3.352Z" transform="translate(-1757.949 -826.02)" fill="#1468cf" stroke="#253b92" stroke-width="0.341"/>
</svg>
