<svg id="Group_816" data-name="Group 816" xmlns="http://www.w3.org/2000/svg" width="44.513" height="44.657" viewBox="0 0 44.513 44.657">
  <path id="Path_834" data-name="Path 834" d="M1808.893,707.8l.192-.428-.185.129a.857.857,0,0,1,.049-.421.086.086,0,0,1-.062.05c-.04-.5-.026-1.06.146-1.119-.037-.22-.13-.109-.129-.341.017-.316.094-.113.146.022a4.121,4.121,0,0,1-.173-1.254c.009,0-.045.333-.045.333.04-.484-.234-.688-.143-1.374l.225-.116,0,.655.068-1.1c-.061-.216-.071-.045-.142-.088.01-.669-.24-.615-.138-1.02l-.185-.059.017-.529c-.068.132-.166.449-.41-.252l-.206-.638.22.107c-.15-.33-.446-.391-.437-.94l-.146.019c-.255-.529.144-.3-.135-.719l-.042.22c-.218-.689-.439-1.263-.663-1.811a5.024,5.024,0,0,0-.864-1.546l-.041.041a10.617,10.617,0,0,1-.75-1.221l.1.1c.019-.013-.558-.819-.558-.819l-.025.005c-.355-.561-.719-1.15-.969-1.167-.331-.439-.472-.662-.576-.826-.006-.141.018-.311.025-.453-.377-.386-.036-.339-.638-.75.078.175.129.244-.022.221a2.825,2.825,0,0,1-.642-.9c.184.363-.061.358-.469.113-.367-.377-.682-.655-.814-.655l-.019-.017.012-.016a.13.13,0,0,0-.021.008,5.487,5.487,0,0,0-1.3-1.044l-.57-.085c-.462-.239-.333-.524-.684-.607-.97-.462-.033-.2-.906-.563l.013-.008-.09-.022,0,0h0a5.778,5.778,0,0,1-1.033-.485s-.554-.352-.562-.336c-.055-.254-.576-.193-.862-.288l-.14-.219c-.458-.081-1.031-.237-1.911-.44l-.022-.019-.028.008-.015,0v.008a2.143,2.143,0,0,1-1-.039c-.741-.12-1.326-.148-2.5-.417l-.311.151-.89-.144,0-.133c.443.031,1.083.035,1.751.082l1.927.264.033-.055c-.671-.1-1.443-.162-1.885-.243-.21-.075-.761-.215-.345-.291l-.432.108a15.828,15.828,0,0,0-2.283.1l-.961.008a9.7,9.7,0,0,0-1.415.058l.213.035a2.357,2.357,0,0,1-1.068.132c-.717.067-1.418.269-2.08.381s-1.252.262-1.723.346l-.139.217c-.287.1-.807.036-.863.289-.008-.017-.561.336-.561.336a5.779,5.779,0,0,1-1.033.485h0l-.09.023.013.008c-.873.361.064.1-.906.563-.353.084-.224.367-.684.606l-.57.085a12.536,12.536,0,0,0-1.918,1.578c-.538.381-.908.459-.693.033a2.82,2.82,0,0,1-.641.9c-.152.023-.1-.046-.023-.221-.6.41-.26.364-.638.75.01.225.077.53-.03.662l.174-.117a11.89,11.89,0,0,1-1.149,1.41l-.048-.07-.384.579-.109-.026s-.578.808-.557.821l.1-.1a10.727,10.727,0,0,1-.75,1.221l-.041-.042a5.051,5.051,0,0,0-.866,1.546c-.222.549-.445,1.123-.661,1.811l-.044-.22c-.278.423.121.192-.135.72l-.145-.019c.01.549-.285.608-.437.939l.221-.105-.206.638c-.246.7-.343.385-.41.252l.015.529-.185.059c.1.405-.147.351-.138,1.019-.069.044-.08-.127-.14.089l.068,1.1-.005-.655.226.114c.092.687-.183.89-.143,1.375,0,0-.054-.334-.045-.333a4.2,4.2,0,0,1-.172,1.254c.052-.135.129-.34.144-.023,0,.233-.091.122-.128.341.171.061.185.615.145,1.12a.088.088,0,0,1-.062-.05.84.84,0,0,1,.05.421l-.185-.129.19.428c-.035.291.117.7-.005.673l-.044-.161s0,.136.01.344a5.6,5.6,0,0,0,.054.751l.144,1.089-.136.054c.216.184.122,1.2.369,1.077-.028.435.5,1.556.17,1.394a8.512,8.512,0,0,0,.689,1.753c.127.287.252.57.383.87.153.307.309.651.469,1.061a9.63,9.63,0,0,0,1.609,3.095c.351.428.674.819.981,1.194s.657.674.975,1a25.46,25.46,0,0,0,2.21,1.969,7.474,7.474,0,0,0,1.843,1.5,24.6,24.6,0,0,1,2.129,1.235l.418.057a5.916,5.916,0,0,0,1.56.8,17.8,17.8,0,0,1,1.909.76c.338.03.512.055.589.071-.058-.021-.143-.069-.149-.156.359.153,1.135.276,1.043.423l-.1-.008c-.046.073.246.129.6.193a3.426,3.426,0,0,1,.978.176l-.207-.211.722.14-.2,0c.8.049,1.484.041,2.111.058s1.194.088,1.758.061c.563-.008,1.125,0,1.728-.054a16.645,16.645,0,0,0,1.955-.424c-.177.125-.036.077.158.023.19-.071.432-.154.475-.057a3.5,3.5,0,0,0,1.9-.651.079.079,0,0,1,.028-.051l1.016-.344c-.508.469.646-.473.174-.058a16.924,16.924,0,0,0,4.2-2.074c.682-.48,1.358-1,2.013-1.529.442-.427.921-.814,1.36-1.227l.026,0c.057-.068.162-.183.283-.313.052-.054.108-.105.157-.159l-.011,0c.567-.6,1.466-1.514,1.729-1.834.629-.942,1.933-2.828,1.958-3.517.162-.41.318-.754.469-1.061l.385-.868a8.579,8.579,0,0,0,.689-1.755c-.328.162.2-.96.17-1.393.247.125.153-.894.368-1.077l-.135-.055.13-.985.005.019,0-.033.012-.089a5.453,5.453,0,0,0,.054-.752c.006-.206.011-.344.011-.344l-.044.162c-.124.03.028-.383-.006-.674m-12.974,16.018c-.6.281-1.138.588-1.634.777s-.909.34-1.2.449a4.05,4.05,0,0,1-.458.159l-.736.382c-.282.031-.57.073-.861.127s-.6.062-.906.107a17.808,17.808,0,0,1-1.893.22,11.8,11.8,0,0,1-1.941.052,8.261,8.261,0,0,1-1.854-.235l-.072.153a1.57,1.57,0,0,1-.773-.238,19.383,19.383,0,0,1-8.611-3.732,17.579,17.579,0,0,1-5.526-7.025,20.671,20.671,0,0,1-.833-2.5,14.617,14.617,0,0,1-1.053-5.508l.022.069s-.027-.216-.032-.435l.008-.435c.015-.037.035-.041.045-.012a7.3,7.3,0,0,1,.073-1.783c.14-.647.246-1.327.426-1.9v.072a19.958,19.958,0,0,1,4.591-9.009,18.043,18.043,0,0,1,8.531-5.379,31.839,31.839,0,0,1,5.081-.759l.675-.046.682.024c.455.021.916.03,1.374.066a14.525,14.525,0,0,1,2.7.58,3.811,3.811,0,0,0,.513.18c.126.032.269.076.423.127l.03.01c.157.053.327.117.507.192l1.022.379c.12.049.242.1.359.145l.853.406a17.583,17.583,0,0,1,5.5,4.182,19.942,19.942,0,0,1,4.591,9.009v-.072c.18.572.286,1.252.427,1.9a7.3,7.3,0,0,1,.072,1.783c.012-.03.031-.024.046.011l.008.436c-.007.217-.032.433-.032.433l.022-.068a14.6,14.6,0,0,1-1.055,5.508,20.57,20.57,0,0,1-.832,2.5,18.639,18.639,0,0,1-1.549,2.868c-.126.145-.248.284-.345.41l-.466.556-1.174,1.312c-.387.36-.839.78-1.321,1.23-.515.414-1.081.839-1.648,1.257-.607.356-1.186.769-1.778,1.064" transform="translate(-1764.572 -684.32)" fill="#1468cf"/>
  <path id="Path_835" data-name="Path 835" d="M1773.711,686.78l.044-.012c-.012-.015-.013-.037-.044.012" transform="translate(-1761.955 -683.624)" fill="#1468cf"/>
  <path id="Path_836" data-name="Path 836" d="M1789.619,710.563c-.012.019-.018.041-.03.06a.15.15,0,0,0,.03-.06" transform="translate(-1757.409 -676.806)" fill="#1468cf"/>
  <path id="Path_837" data-name="Path 837" d="M1782.765,687.2l-.138-.174.09.149Z" transform="translate(-1759.403 -683.545)" fill="#1468cf"/>
  <path id="Path_838" data-name="Path 838" d="M1773.261,690.421l-.127.018.042.122c.274.769.653,1.578,1.7,1.578a1.949,1.949,0,0,0,.207-.01l.059-.005.026-.054a.908.908,0,0,0-.13-.96,1.924,1.924,0,0,0-1.782-.689" transform="translate(-1762.121 -682.579)" fill="#1468cf"/>
  <path id="Path_839" data-name="Path 839" d="M1772.638,690.822l.012.125c.049.552.1,1.1.15,1.654l.01.1.1-.01c.16-.013.32-.028.482-.044l.578-.054-.026-.116c-.15-.7-.337-1.581-1.186-1.65Z" transform="translate(-1762.263 -682.458)" fill="#1468cf"/>
  <path id="Path_840" data-name="Path 840" d="M1775.684,691.769l-.052,0a1.046,1.046,0,0,0-.876.634,1.442,1.442,0,0,0,.274,1.64l.033.037.05,0c.949-.041,1.421-.517,1.4-1.417l-.005-.03c-.224-.709-.615-.843-.829-.859" transform="translate(-1761.698 -682.188)" fill="#1468cf"/>
  <path id="Path_841" data-name="Path 841" d="M1773.5,694.957l.035,0,.136,0a1.315,1.315,0,0,0,1.057-.388,1.729,1.729,0,0,0,.176-1.523l-.007-.031-.023-.021a1.027,1.027,0,0,0-1.046-.311,1.292,1.292,0,0,0-.823,1,1.264,1.264,0,0,0,.467,1.25Z" transform="translate(-1762.165 -681.936)" fill="#1468cf"/>
  <path id="Path_842" data-name="Path 842" d="M1777.39,693.121l-.3-.176.013.2c.05.759.127,1.9,1.145,1.9l.08,0,.053,0,.03-.044a.938.938,0,0,0,.163-.746c-.125-.523-.735-.872-1.18-1.128" transform="translate(-1760.989 -681.851)" fill="#1468cf"/>
  <path id="Path_843" data-name="Path 843" d="M1777.076,693.609l-.53.049-.938.086-.072.005-.019.069a1.868,1.868,0,0,0,.39,1.794,1.36,1.36,0,0,0,.994.4,2.144,2.144,0,0,0,.592-.089l.035-.01.022-.028c.5-.688,0-1.735-.438-2.233Z" transform="translate(-1761.461 -681.66)" fill="#1468cf"/>
  <path id="Path_844" data-name="Path 844" d="M1774.752,694.422c-.244.028-.583.185-.8.765l-.008.022v.021a2.677,2.677,0,0,0,.426,1.253c.072.126.145.256.208.394l.03.068.076-.008c.392-.036.783-.072,1.177-.107l.057,0,.027-.049a1.659,1.659,0,0,0-.1-1.726,1.244,1.244,0,0,0-1.1-.629" transform="translate(-1761.888 -681.429)" fill="#1468cf"/>
  <path id="Path_845" data-name="Path 845" d="M1778.5,694.745l-.056,0-.028.05a1.529,1.529,0,0,0,.082,1.537,1.3,1.3,0,0,0,1.084.659h.068l.084-.005.014-.081c.019-.1.071-.215.341-.194l.081,0,.026-.077a1.383,1.383,0,0,0-.225-1.289,1.668,1.668,0,0,0-1.47-.606" transform="translate(-1760.658 -681.337)" fill="#1468cf"/>
  <path id="Path_846" data-name="Path 846" d="M1778.273,695.685a.984.984,0,0,0-1.091-.013,1.46,1.46,0,0,0-.473,1.549l.005.03.021.023a1.654,1.654,0,0,0,1.217.563,1.624,1.624,0,0,0,.844-.243l.042-.024.008-.049a1.755,1.755,0,0,0-.572-1.836" transform="translate(-1761.108 -681.115)" fill="#1468cf"/>
  <path id="Path_847" data-name="Path 847" d="M1776.555,696.436l-.04,0a1.157,1.157,0,0,0-1.285.526,1.3,1.3,0,0,0,.235,1.388,1.314,1.314,0,0,0,1.015.472,1.571,1.571,0,0,0,.489-.082l.048-.017.018-.046a2.119,2.119,0,0,0-.451-2.209Z" transform="translate(-1761.552 -680.856)" fill="#1468cf"/>
  <path id="Path_848" data-name="Path 848" d="M1780.912,696.623a1.113,1.113,0,0,0-1.235.493,1.763,1.763,0,0,0,.491,2.079l.028.032.044,0c.058,0,.113.006.166.006a1.776,1.776,0,0,0,1.129-.41,2.634,2.634,0,0,1,.364-.23l.061-.03V698.5c-.019-1-.41-1.7-1.047-1.875" transform="translate(-1760.297 -680.809)" fill="#1468cf"/>
  <path id="Path_849" data-name="Path 849" d="M1785.668,704.138a1.112,1.112,0,0,0-1.235.493,1.762,1.762,0,0,0,.491,2.079l.028.032.044,0c.058,0,.113.006.166.006a1.769,1.769,0,0,0,1.129-.412,2.746,2.746,0,0,1,.364-.229l.061-.03v-.067c-.019-1-.41-1.7-1.047-1.875" transform="translate(-1758.936 -678.657)" fill="#1468cf"/>
  <path id="Path_850" data-name="Path 850" d="M1774.626,699.155a.905.905,0,0,0,.617.211,1.343,1.343,0,0,0,.158-.009l.1-.01-.008-.1c-.053-.76-.131-1.9-1.149-1.9l-.081,0-.1.006v.1a2.389,2.389,0,0,0,.46,1.7" transform="translate(-1761.826 -680.591)" fill="#1468cf"/>
  <path id="Path_851" data-name="Path 851" d="M1778.99,697.433a1.2,1.2,0,0,0-1.248.467l-.03.033,0,.044a2.192,2.192,0,0,0,1.712,2.326l.074.016.039-.064a1.916,1.916,0,0,1,.54-.52c.106-.078.219-.161.319-.251l.044-.041-.011-.059a2.542,2.542,0,0,0-1.443-1.95" transform="translate(-1760.809 -680.576)" fill="#1468cf"/>
  <path id="Path_852" data-name="Path 852" d="M1777.118,698.4a.987.987,0,0,0-.851.686,1.554,1.554,0,0,0,.5,1.513,1.436,1.436,0,0,0,.981.392,1.562,1.562,0,0,0,.584-.116l.036-.014.018-.035a1.86,1.86,0,0,0-.135-1.807,1.224,1.224,0,0,0-1.136-.619" transform="translate(-1761.237 -680.291)" fill="#1468cf"/>
  <path id="Path_853" data-name="Path 853" d="M1782.319,698.662a1.429,1.429,0,0,0-1.514.85c-.109.268-.263.96.684,1.576l.049.017c.081.006.158.009.233.009a1.9,1.9,0,0,0,1.458-.661l.032-.031v-.045c.018-1.37-.654-1.655-.943-1.715" transform="translate(-1759.948 -680.22)" fill="#1468cf"/>
  <path id="Path_854" data-name="Path 854" d="M1776.18,702.07a1.708,1.708,0,0,0,.479-.076l.048-.014.019-.046a2.349,2.349,0,0,0-.307-2.207,1.187,1.187,0,0,0-1.226-.421l-.062.014-.017.06a2.744,2.744,0,0,0,.342,2.4.991.991,0,0,0,.724.288" transform="translate(-1761.589 -680.038)" fill="#1468cf"/>
  <path id="Path_855" data-name="Path 855" d="M1780.51,699.721a1.277,1.277,0,0,0-1.334.8c-.226.581.061,1.192.767,1.632l.037.025.042-.01a4.832,4.832,0,0,0,1.267-.54l.188-.1v-.064c-.013-1.415-.681-1.688-.966-1.74" transform="translate(-1760.412 -679.914)" fill="#1468cf"/>
  <path id="Path_856" data-name="Path 856" d="M1779.034,703.166c.008-.157.187-.189.581-.2l.068,0,.026-.063a1.83,1.83,0,0,0-.682-2.2,1.142,1.142,0,0,0-1.555.379l-.023.028v.039a2.2,2.2,0,0,0,1.429,2.11l.146.079Z" transform="translate(-1760.885 -679.678)" fill="#1468cf"/>
  <path id="Path_857" data-name="Path 857" d="M1784.062,700.866a2.915,2.915,0,0,1-.328-.41l-.032-.05h-.059a1.87,1.87,0,0,0-1.9,1.181l-.033.08.072.049a1.411,1.411,0,0,1,.418.655,1.85,1.85,0,0,0,.408.686l.033.03.045,0c1.223-.086,1.837-.561,1.874-1.454v-.022l-.008-.021a2.272,2.272,0,0,0-.494-.722" transform="translate(-1759.664 -679.714)" fill="#1468cf"/>
  <path id="Path_858" data-name="Path 858" d="M1776.571,704.19l.054-.005q.591-.052,1.178-.109l.05-.005.027-.041a2.1,2.1,0,0,0,.109-1.554,1.43,1.43,0,0,0-.6-.934l-.037-.01c-.8-.089-1.133.229-1.277.5a2.207,2.207,0,0,0,.458,2.113Z" transform="translate(-1761.314 -679.396)" fill="#1468cf"/>
  <path id="Path_859" data-name="Path 859" d="M1781.577,701.632h-.041a1.44,1.44,0,0,0-1.289,1.216c-.032.291.03.99,1.3,1.212l.031.006.03-.014a2.736,2.736,0,0,0,.467-.287,2.614,2.614,0,0,1,.439-.269l.063-.028V703.4c-.023-1.551-.7-1.751-.993-1.765" transform="translate(-1760.086 -679.364)" fill="#1468cf"/>
  <path id="Path_860" data-name="Path 860" d="M1779.715,704.823a.992.992,0,0,0,.215.023,1.741,1.741,0,0,0,1.034-.444l.064-.049-.031-.075c-.064-.152-.12-.314-.176-.475-.2-.589-.417-1.2-1.007-1.387l-.107-.033-.027.108c-.053.2-.26.293-.479.392-.285.127-.608.271-.616.684v.026l.012.023c.36.737.7,1.109,1.119,1.205" transform="translate(-1760.56 -679.148)" fill="#1468cf"/>
  <path id="Path_861" data-name="Path 861" d="M1784.966,702.466a2.525,2.525,0,0,0-1.933.729l-.033.032v.045a1.448,1.448,0,0,0,1.427,1.65l.041.005.033-.024a2.268,2.268,0,0,0,1.072-1.843v-.019l-.007-.019a.83.83,0,0,0-.6-.556" transform="translate(-1759.296 -679.133)" fill="#1468cf"/>
  <path id="Path_862" data-name="Path 862" d="M1777.392,705.54a1.939,1.939,0,0,0,.309.5l.027.031.041,0c.059,0,.113.006.167.006a1.761,1.761,0,0,0,1.132-.414,2.854,2.854,0,0,1,.362-.228l.057-.028v-.064c.018-1.124-.616-1.682-1.25-1.739a1.32,1.32,0,0,0-1.379,1.231l-.013.082.078.032c.225.091.342.333.468.588" transform="translate(-1761.058 -678.799)" fill="#1468cf"/>
  <path id="Path_863" data-name="Path 863" d="M1782.2,703.541c-.3.04-.809.259-.912,1.276l-.005.05.036.036c.094.094.183.2.27.3a1.7,1.7,0,0,0,1.326.781h.035l.027-.019a1.253,1.253,0,0,0,.591-1.528,1.4,1.4,0,0,0-1.367-.894" transform="translate(-1759.788 -678.819)" fill="#1468cf"/>
  <path id="Path_864" data-name="Path 864" d="M1780.511,706.85l.023.019.028,0a1.637,1.637,0,0,0,.238.019,1.292,1.292,0,0,0,.686-.2,1.133,1.133,0,0,1,.494-.174l.086-.008.01-.086c.142-1.344-.476-1.688-.749-1.773a1.2,1.2,0,0,0-1.349.58c-.133.244-.347.9.532,1.622" transform="translate(-1760.196 -678.513)" fill="#1468cf"/>
  <path id="Path_865" data-name="Path 865" d="M1778.768,707.983l.049.023a1.658,1.658,0,0,0,.3.03.99.99,0,0,0,.771-.356.793.793,0,0,1,.562-.295l.1-.005,0-.1c.062-1.33-.58-1.648-.859-1.724a1.327,1.327,0,0,0-1.464.691c-.139.268-.365.972.543,1.731" transform="translate(-1760.7 -678.25)" fill="#1468cf"/>
  <path id="Path_866" data-name="Path 866" d="M1782.916,707.743l.031.052h.061c.836-.005,1.811-.121,1.926-.975l0-.015,0-.015a1.557,1.557,0,0,0-1.046-1.391,1.066,1.066,0,0,0-1.114.405,1.672,1.672,0,0,0,.143,1.94" transform="translate(-1759.428 -678.294)" fill="#1468cf"/>
  <path id="Path_867" data-name="Path 867" d="M1782.315,708.824l.082,0,.083-.006.013-.084c.015-.1.071-.2.338-.19l.068,0,.032-.06a1.559,1.559,0,0,0-.157-1.706,1.456,1.456,0,0,0-1.576-.437l-.042.012-.022.04a1.863,1.863,0,0,0,.131,1.807,1.259,1.259,0,0,0,1.048.624" transform="translate(-1759.88 -678.035)" fill="#1468cf"/>
  <path id="Path_868" data-name="Path 868" d="M1779.855,709.7l.026.018.031,0c.063,0,.124.006.181.006a1.607,1.607,0,0,0,1.428-.817l.091-.121,0-.041c-.081-1.059-.7-1.275-.961-1.318a1.35,1.35,0,0,0-1.389.753c-.1.24-.255.872.6,1.517" transform="translate(-1760.39 -677.708)" fill="#1468cf"/>
  <path id="Path_869" data-name="Path 869" d="M1785.317,707.347c-.419-.241-1.041-.12-1.847.361l-.05.03v.058a1.509,1.509,0,0,0,.54,1.224,2.069,2.069,0,0,1,.334.414l.03.054h.062a1.032,1.032,0,0,0,.754-.327.822.822,0,0,1,.616-.273h.107v-.1c.006-.743-.177-1.227-.544-1.438" transform="translate(-1759.176 -677.762)" fill="#1468cf"/>
  <path id="Path_870" data-name="Path 870" d="M1783.1,710.31c.042,0,.086,0,.131-.005l.035,0,.027-.026c.068-.06.143-.12.216-.177a1.293,1.293,0,0,0,.652-1.174l-.007-.081-.08-.014c-.1-.019-.2-.075-.189-.338l0-.051-.039-.033a1.574,1.574,0,0,0-1.806.165l-.022.028v.036a1.9,1.9,0,0,0,.41,1.439.946.946,0,0,0,.666.235" transform="translate(-1759.576 -677.485)" fill="#1468cf"/>
  <path id="Path_871" data-name="Path 871" d="M1779.531,708.811a1.419,1.419,0,0,0-1.068.246c-.152.075-.309.152-.469.214l-.07.027,0,.076a2.081,2.081,0,0,0,.4,1.469l.028.026h.053a1.44,1.44,0,0,0,1.634-1.424l0-.027-.01-.026a.959.959,0,0,0-.5-.58" transform="translate(-1760.749 -677.319)" fill="#1468cf"/>
  <path id="Path_872" data-name="Path 872" d="M1784.005,711.651h.076l.044-.012a1.246,1.246,0,0,0,.633-1.6l-.009-.035-.03-.023a1.423,1.423,0,0,0-1.434-.01.673.673,0,0,0-.345.729.979.979,0,0,0,1.065.949" transform="translate(-1759.317 -677.029)" fill="#1468cf"/>
  <path id="Path_873" data-name="Path 873" d="M1785.527,710.7h.076l.044-.012a1.245,1.245,0,0,0,.633-1.6l-.009-.035-.03-.023a1.423,1.423,0,0,0-1.434-.01.673.673,0,0,0-.345.729.979.979,0,0,0,1.065.949" transform="translate(-1758.881 -677.302)" fill="#1468cf"/>
  <path id="Path_874" data-name="Path 874" d="M1780.848,710.484c-.687-.545-1.569.1-1.994.405l-.036.026-.006.045a1.239,1.239,0,0,0,.395,1.169,1.835,1.835,0,0,1,.221.273l.031.05h.074a1.438,1.438,0,0,0,1.632-1.425l.009-.1-.095-.018c-.057-.012-.207-.039-.192-.34l0-.055Z" transform="translate(-1760.5 -676.89)" fill="#1468cf"/>
  <path id="Path_875" data-name="Path 875" d="M1784.263,713.085a1.22,1.22,0,0,0,.643.167,1.994,1.994,0,0,0,1.042-.319l.045-.03,0-.051a1.427,1.427,0,0,0-.723-1.546,1.287,1.287,0,0,0-1.458.464l-.021.024,0,.032a1.191,1.191,0,0,0,.471,1.258" transform="translate(-1759.073 -676.616)" fill="#1468cf"/>
  <path id="Path_876" data-name="Path 876" d="M1785.88,712.229a1.22,1.22,0,0,0,.643.167,1.993,1.993,0,0,0,1.042-.319l.045-.03,0-.051a1.426,1.426,0,0,0-.723-1.546,1.287,1.287,0,0,0-1.457.464l-.021.024,0,.032a1.192,1.192,0,0,0,.471,1.258" transform="translate(-1758.61 -676.861)" fill="#1468cf"/>
  <path id="Path_877" data-name="Path 877" d="M1788.578,719.027a.912.912,0,0,0,.434-.113c.051.44.078.7.08.716l.011.118.116-.028c2.211-.552,1.545-3.743.9-6.829-.219-1.047-.426-2.036-.522-2.917-.383-3.468-2.9-8.744-2.93-8.8-2.584-4.735-2.965-4.566-3.146-4.489-.439.188.143,2.187.422,3.055a40.011,40.011,0,0,1,3.307,9.3.777.777,0,0,0-.553-.273h-.026l-.023.012a1.538,1.538,0,0,0-.783,1.585.967.967,0,0,0,1.046.733.892.892,0,0,0,.649-.727c.073.329.143.655.211.976a1.012,1.012,0,0,0-.887.536l-.014.024v.028a.9.9,0,0,0,.593.88,1.237,1.237,0,0,0,.461.089,1.209,1.209,0,0,0,.154-.03c.058.306.115.607.167.9a1.468,1.468,0,0,0,.144.828c.1.565.18,1.095.256,1.587a1.359,1.359,0,0,0-.854.346,1.511,1.511,0,0,1-.4.252l-.074.028.006.078c.073.978.279,2,1.243,2.134Z" transform="translate(-1759.192 -680.787)" fill="#1468cf"/>
  <path id="Path_878" data-name="Path 878" d="M1779.127,711.338c2.687,4.52,5.761,6.106,7.869,6.641a9.02,9.02,0,0,0,2.228.283,6.476,6.476,0,0,0,1.757-.21l.408-.126-.419-.075a3.409,3.409,0,0,1-.534-.156l.016-.01,0-.053a1.87,1.87,0,0,0-.927-1.939,1.122,1.122,0,0,0-1.294.386l-.027.03v.039a1.741,1.741,0,0,0,.057.383c-.459-.3-.945-.632-1.452-1-.2-.589-.453-1.205-1.272-1.137l-.053.005-.027.044c-.011.018-.011.04-.023.058l-.324-.252a1.266,1.266,0,0,0,.389-1.428l-.01-.036-.031-.023a.991.991,0,0,0-1.249-.045,1.173,1.173,0,0,0-.372.516q-.33-.268-.658-.54a1.357,1.357,0,0,0,.823-.351,1.519,1.519,0,0,1,.4-.251l.059-.022.009-.063a1.229,1.229,0,0,0-.4-1.216,1.088,1.088,0,0,0-1.1-.059,1.106,1.106,0,0,0-.642.944.68.68,0,0,0,.015.323c-3.954-3.332-7.642-6.854-7.71-6.919l-.66-.632s-.606-.467-.719-.422.232.647.232.647a79.632,79.632,0,0,0,5.639,6.663" transform="translate(-1762.092 -678.678)" fill="#1468cf"/>
</svg>
