<svg id="Layer_1" data-name="Layer 1" xmlns="http://www.w3.org/2000/svg" viewBox="0 0 322.05 322.05"><defs><style>.cls-1,.cls-2,.cls-3{fill:#016cc9;}.cls-1,.cls-2{stroke:#016cc9;stroke-miterlimit:10;}.cls-1{stroke-width:2px;}.cls-4{fill:#1d7acf;}</style></defs><path class="cls-1" d="M271,190.29c.8-5.88-53.14,11.74-49.35,33.54C257.68,228.86,268.11,211.25,271,190.29Z" transform="translate(-13.47 -14.97)"/><path class="cls-1" d="M264,89.4c.27-4-35.24,10.28-31.71,24.78C256.78,116,263,103.63,264,89.4Z" transform="translate(-13.47 -14.97)"/><path class="cls-1" d="M267.15,157.78c.68-5-45,9.93-41.75,28.38C255.91,190.41,264.74,175.51,267.15,157.78Z" transform="translate(-13.47 -14.97)"/><path class="cls-1" d="M265.21,124c.62-4.52-40.81,9-37.89,25.76C255,153.62,263,140.1,265.21,124Z" transform="translate(-13.47 -14.97)"/><path class="cls-2" d="M177.63,136.77c1.05-6.7-.69-17.13,8.7-27.92s29.87-13.57,35.09-17.4.75,31.32-9.34,38.62S177.63,136.77,177.63,136.77Z" transform="translate(-13.47 -14.97)"/><path class="cls-2" d="M174.5,182.4c1-6.2-.64-15.87,8.05-25.86s27.67-12.56,32.5-16.11.69,29-8.65,35.77S174.5,182.4,174.5,182.4Z" transform="translate(-13.47 -14.97)"/><path class="cls-2" d="M174.5,224.64c1-6.2-.64-15.86,8.05-25.85s27.67-12.57,32.5-16.11.69,29-8.65,35.76S174.5,224.64,174.5,224.64Z" transform="translate(-13.47 -14.97)"/><path class="cls-1" d="M170.32,106.41c4.53-.34,21.23-11.3,21.23-21.57s0-22.62-21.23-42.1" transform="translate(-13.47 -14.97)"/><rect class="cls-3" x="153.02" y="213.89" width="6.23" height="74.67"/><path class="cls-3" d="M214.75,303.53h-6.24V234.84a14.63,14.63,0,0,1,4.19-10.24l13.84-14.08a1.55,1.55,0,0,1,2.2,2.15l-9.28,10.74a19.35,19.35,0,0,0-4.71,12.65Z" transform="translate(-13.47 -14.97)"/><rect class="cls-3" x="172.6" y="219.1" width="6.23" height="69.46"/><rect class="cls-3" x="166.67" y="216.85" width="7.41" height="85.14" transform="translate(416.32 74.07) rotate(90)"/><path class="cls-1" d="M69.69,190.33c-.8-5.88,53.14,11.74,49.34,33.54C83,228.9,72.53,211.29,69.69,190.33Z" transform="translate(-13.47 -14.97)"/><path class="cls-1" d="M76.66,89.44c-.27-4,35.24,10.28,31.71,24.78C83.87,116,77.64,103.67,76.66,89.44Z" transform="translate(-13.47 -14.97)"/><path class="cls-1" d="M73.5,157.82c-.68-5,45,9.93,41.75,28.38C84.74,190.45,75.91,175.55,73.5,157.82Z" transform="translate(-13.47 -14.97)"/><path class="cls-1" d="M75.43,124c-.61-4.52,40.82,9,37.9,25.76C85.64,153.66,77.62,140.14,75.43,124Z" transform="translate(-13.47 -14.97)"/><path class="cls-2" d="M163,136.81c-1.05-6.7.69-17.13-8.7-27.92s-29.87-13.57-35.09-17.4-.75,31.32,9.34,38.62S163,136.81,163,136.81Z" transform="translate(-13.47 -14.97)"/><path class="cls-2" d="M166.15,182.44c-1-6.2.64-15.87-8.06-25.86S130.43,144,125.6,140.47s-.69,29,8.65,35.77S166.15,182.44,166.15,182.44Z" transform="translate(-13.47 -14.97)"/><path class="cls-2" d="M166.15,224.68c-1-6.2.64-15.86-8.06-25.85s-27.66-12.57-32.49-16.11-.69,29,8.65,35.76S166.15,224.68,166.15,224.68Z" transform="translate(-13.47 -14.97)"/><path class="cls-1" d="M170.32,106.45c-4.52-.34-21.22-11.31-21.22-21.57s0-22.62,21.22-42.1" transform="translate(-13.47 -14.97)"/><path class="cls-3" d="M125.9,303.57h6.24v-68.7A14.6,14.6,0,0,0,128,224.64l-13.84-14.08a1.55,1.55,0,0,0-2.2,2.15l9.28,10.74a19.34,19.34,0,0,1,4.71,12.65Z" transform="translate(-13.47 -14.97)"/><rect class="cls-3" x="148.35" y="234.11" width="6.23" height="69.46" transform="translate(289.45 522.7) rotate(-180)"/><path class="cls-4" d="M174.5,337c-88.79,0-161-72.24-161-161S85.71,15,174.5,15s161,72.24,161,161S263.29,337,174.5,337Zm0-305.22C95,31.81,30.31,96.49,30.31,176S95,320.19,174.5,320.19,318.69,255.51,318.69,176,254,31.81,174.5,31.81Z" transform="translate(-13.47 -14.97)"/></svg>